<svg width="960" height="960" viewBox="0 0 960 960" xmlns="http://www.w3.org/2000/svg" xmlns:xlink="http://www.w3.org/1999/xlink" fill="none" overflow="hidden"><defs><linearGradient x1="730.554" y1="431.729" x2="730.554" y2="757.023" gradientUnits="userSpaceOnUse" id="paint0_linear_248_1699"><stop offset="0" stop-color="#FFB800"/><stop offset="1" stop-color="#FF7F0A"/></linearGradient><linearGradient x1="693.342" y1="794.28" x2="693.342" y2="807.707" gradientUnits="userSpaceOnUse" id="paint1_linear_248_1699"><stop offset="0" stop-color="#FFB800"/><stop offset="1" stop-color="#FF7F0A"/></linearGradient><linearGradient x1="523.225" y1="678.519" x2="523.225" y2="741.84" gradientUnits="userSpaceOnUse" id="paint2_linear_248_1699"><stop offset="0" stop-color="#FFB800"/><stop offset="1" stop-color="#FF7F0A"/></linearGradient><linearGradient x1="540.569" y1="333.218" x2="540.569" y2="505.625" gradientUnits="userSpaceOnUse" id="paint3_linear_248_1699"><stop offset="0" stop-color="#FFB800"/><stop offset="1" stop-color="#FF7F0A"/></linearGradient><linearGradient x1="444.986" y1="551.044" x2="444.986" y2="620.381" gradientUnits="userSpaceOnUse" id="paint4_linear_248_1699"><stop offset="0" stop-color="#FFB800"/><stop offset="1" stop-color="#FF7F0A"/></linearGradient><linearGradient x1="396.2" y1="384.148" x2="396.2" y2="413.177" gradientUnits="userSpaceOnUse" id="paint5_linear_248_1699"><stop offset="0" stop-color="#FFB800"/><stop offset="1" stop-color="#FF7F0A"/></linearGradient><linearGradient x1="204.736" y1="741.84" x2="204.736" y2="777.972" gradientUnits="userSpaceOnUse" id="paint6_linear_248_1699"><stop offset="0" stop-color="#FFB800"/><stop offset="1" stop-color="#FF7F0A"/></linearGradient><linearGradient x1="519.499" y1="468.702" x2="519.499" y2="505.624" gradientUnits="userSpaceOnUse" id="paint7_linear_248_1699"><stop offset="0" stop-color="#FFB800"/><stop offset="1" stop-color="#FF7F0A"/></linearGradient><linearGradient x1="399.083" y1="452.127" x2="399.083" y2="476.003" gradientUnits="userSpaceOnUse" id="paint8_linear_248_1699"><stop offset="0" stop-color="#FFB800"/><stop offset="1" stop-color="#FF7F0A"/></linearGradient><linearGradient x1="305.141" y1="447.863" x2="305.141" y2="476.003" gradientUnits="userSpaceOnUse" id="paint9_linear_248_1699"><stop offset="0" stop-color="#FFB800"/><stop offset="1" stop-color="#FF7F0A"/></linearGradient><linearGradient x1="208.144" y1="493.91" x2="208.144" y2="518.212" gradientUnits="userSpaceOnUse" id="paint10_linear_248_1699"><stop offset="0" stop-color="#FFB800"/><stop offset="1" stop-color="#FF7F0A"/></linearGradient><linearGradient x1="227.934" y1="572.359" x2="227.934" y2="595.809" gradientUnits="userSpaceOnUse" id="paint11_linear_248_1699"><stop offset="0" stop-color="#FFB800"/><stop offset="1" stop-color="#FF7F0A"/></linearGradient><linearGradient x1="316.226" y1="580.46" x2="316.226" y2="606.894" gradientUnits="userSpaceOnUse" id="paint12_linear_248_1699"><stop offset="0" stop-color="#FFB800"/><stop offset="1" stop-color="#FF7F0A"/></linearGradient><linearGradient x1="352.873" y1="490.925" x2="352.873" y2="514.801" gradientUnits="userSpaceOnUse" id="paint13_linear_248_1699"><stop offset="0" stop-color="#FFB800"/><stop offset="1" stop-color="#FF7F0A"/></linearGradient><linearGradient x1="486.474" y1="518.212" x2="486.474" y2="538.175" gradientUnits="userSpaceOnUse" id="paint14_linear_248_1699"><stop offset="0" stop-color="#FFB800"/><stop offset="1" stop-color="#FF7F0A"/></linearGradient><linearGradient x1="541.555" y1="558.29" x2="541.555" y2="585.71" gradientUnits="userSpaceOnUse" id="paint15_linear_248_1699"><stop offset="0" stop-color="#FFB800"/><stop offset="1" stop-color="#FF7F0A"/></linearGradient><linearGradient x1="309.831" y1="684.918" x2="309.831" y2="695.577" gradientUnits="userSpaceOnUse" id="paint16_linear_248_1699"><stop offset="0" stop-color="#FFB800"/><stop offset="1" stop-color="#FF7F0A"/></linearGradient><clipPath id="clip0_248_1699"><rect x="0" y="0" width="883" height="709" fill="#FFFFFF" transform="translate(39 126)"/></clipPath></defs><g clip-path="url(#clip0_248_1699)"><path d="M679.905 436.443C656.626 446.799 638.786 472.62 630.605 498.188 625.718 513.454 625.747 532.708 625.776 552.184 625.793 563.905 625.811 575.706 624.757 586.768 623.571 599.298 621.016 610.877 615.525 620.326L618.325 623.099 618.334 623.099C632.928 623.607 650.803 623.446 668.678 623.285 686.545 623.124 704.412 622.963 719 623.47 722.061 623.57 725.288 623.642 727.961 622.148 727.976 622.138 727.99 622.131 728.004 622.124 728.017 622.117 728.03 622.11 728.042 622.102 733.325 619.085 733.815 611.767 733.642 605.667 733.39 596.419 733.137 585.593 732.884 574.762 732.629 563.874 732.375 552.98 732.12 543.678L732.193 543.642C740.392 559.887 747.867 576.512 751.781 594.224 756.802 616.92 755.368 642.007 742.802 661.568 741.558 663.501 740.23 665.368 738.816 667.168 734.882 672.227 730.403 676.864 725.918 681.505 721.304 686.281 716.685 691.062 712.65 696.314 709.2 700.773 706.394 705.696 704.315 710.937 703.077 714.053 702.192 717.299 701.678 720.613 700.571 726.911 701.525 733.399 704.396 739.113 705.162 740.572 706.06 741.959 707.078 743.254 715.124 753.491 730 757.307 743.4 757.007 784.216 756.087 820.924 725.785 836.085 687.887 851.246 649.989 847.106 606.32 831.785 568.476 820.623 540.906 803.971 516.045 785.017 492.996 777.955 484.407 770.584 476.072 763.055 467.945 748.445 452.162 731.502 436.18 710.555 432.511 709.459 432.312 708.345 432.158 707.23 432.031 697.891 431.025 688.453 432.548 679.905 436.443ZM757.126 482.582C756.494 482.178 755.654 482.363 755.249 482.996 754.845 483.628 755.03 484.468 755.663 484.873 810.185 519.724 840.832 588.526 830.271 652.368 830.148 653.108 830.649 653.808 831.39 653.93 832.13 654.053 832.83 653.552 832.952 652.811 843.691 587.897 812.565 518.019 757.126 482.582Z" fill="url(#paint0_linear_248_1699)" fill-rule="evenodd" clip-rule="evenodd"/><path d="M617.109 413.138C615.685 419.093 614.262 425.049 613.01 431.025 612.63 432.837 612.286 434.685 611.992 436.59 608.775 456.402 609.337 480.79 611.729 505.39 614.575 534.682 620.019 564.268 624.775 586.768 625.823 575.718 625.803 563.93 625.784 552.222 625.752 532.733 625.72 513.464 630.61 498.188 638.786 472.62 656.626 446.799 679.91 436.443 688.019 422.705 681.359 408.291 677.382 400.943 675.645 397.734 673.635 394.679 671.626 391.625 669.035 387.686 666.445 383.75 664.444 379.488 655.683 360.807 659.421 338.936 663.321 318.668L663.221 318.168C669.424 316.977 675.075 313.812 679.33 309.144 688.028 327.174 705.324 340.583 724.685 345.393 716.332 372.107 711.575 404.369 710.597 432.293L710.56 432.51C731.504 436.179 748.447 452.161 763.06 467.944 770.589 476.071 777.964 484.406 785.022 492.995L785.674 492.461C788.111 473.978 781.785 452.439 775.73 431.819 772.396 420.469 769.145 409.398 767.482 399.269 765.526 387.37 765.782 375.217 766.038 363.086 766.351 348.248 766.664 333.441 762.925 319.169 755.06 289.199 727.546 264.872 696.632 262.707 665.718 260.542 634.216 282.084 626.832 312.184 624.029 323.593 624.489 335.374 624.949 347.18 625.188 353.309 625.427 359.446 625.21 365.539 624.635 381.662 620.872 397.399 617.109 413.138ZM705.826 270.791C705.116 270.549 704.343 270.928 704.101 271.638 703.858 272.348 704.237 273.121 704.948 273.363 731.645 282.479 752.065 307.862 755.249 335.891 755.334 336.636 756.007 337.172 756.753 337.087 757.499 337.003 758.035 336.329 757.95 335.584 754.647 306.511 733.517 280.246 705.826 270.791Z" fill="#171717" fill-rule="evenodd" clip-rule="evenodd"/><path d="M557.489 497.943C562.774 511.955 566.78 526.416 569.458 541.15 575.553 573.86 576.24 612.557 576.834 645.986L576.858 647.362 570.758 654.862 547.523 654.862 547.523 620.326 516.184 620.326 516.184 654.863 386.671 654.863 386.671 678.519 487.41 678.519 487.41 708.273 487.092 708.273 234.892 705.473 234.892 705.183C236.523 693.043 238.398 680.945 240.518 668.888L240.537 668.78C224.037 665.536 208.301 659.529 196.36 648.005 181.628 633.79 174.887 613.187 171.571 592.983 165.271 554.568 170.071 513.254 191.087 480.483 207.54 454.807 233.044 435.726 261.021 423.595 288.998 411.464 318.526 405.901 348.921 403.409L349.528 403.427C349.42 406.589 349.384 409.748 349.42 412.904L349.438 413.176C380.477 411.065 411.547 409.512 442.648 408.519L442.621 407.803C442.793 405.903 442.901 403.989 442.956 402.077L443.182 402.086C454.284 402.697 465.219 405.059 475.582 409.086 496.601 417.158 515.437 431.473 529.761 449.004 541.699 463.623 550.749 480.285 557.489 497.943ZM382.776 546.698C382.862 546.654 382.947 546.61 383.033 546.566 383.296 546.43 383.559 546.294 383.822 546.161L384.012 546.478C372.734 553.354 363.221 562.774 356.234 573.984L355.717 574.193C358.789 578.578 359.794 584.493 360.383 589.975 361.162 597.25 361.621 604.55 361.76 611.875L363.165 611.848C374.382 624.746 390.24 632.69 407.287 633.948 412.977 634.337 420.162 632.842 421.487 627.307 422.72 622.152 417.718 617.884 412.445 616.326L412.59 615.855 477.397 620.385 477.397 555.574 436.11 552.684 436.11 552.657C441.764 552.947 448.31 549.93 448.686 544.349 448.912 540.861 446.511 537.608 443.467 535.905 441.311 534.77 438.953 534.068 436.527 533.839L436.6 533.323C436.237 529.816 433.7 526.79 430.584 525.132 427.384 523.608 423.86 522.89 420.319 523.039 412.411 523.185 404.692 525.487 397.996 529.697 391.3 533.908 385.88 539.867 382.322 546.931 382.474 546.854 382.625 546.776 382.776 546.698ZM260.137 499.406C260.813 499.734 261.095 500.546 260.767 501.222 255.297 512.504 251.381 524.475 249.127 536.809 248.392 540.832 247.953 544.741 249.362 548.088 250.516 550.829 252.726 552.836 255.539 554.357 258.36 555.883 261.7 556.871 264.956 557.606 284.754 562.069 305.212 562.789 325.275 559.728 326.017 559.615 326.71 560.125 326.823 560.867 326.936 561.609 326.426 562.302 325.685 562.415 305.287 565.527 284.487 564.795 264.358 560.258L264.357 560.258C261.014 559.502 257.391 558.449 254.246 556.747 251.091 555.041 248.327 552.635 246.857 549.142 245.102 544.972 245.723 540.319 246.453 536.321L246.453 536.321C248.752 523.745 252.744 511.539 258.322 500.036 258.649 499.361 259.462 499.079 260.137 499.406ZM507.623 434.331C507.061 433.834 506.202 433.887 505.705 434.45 505.208 435.013 505.261 435.871 505.824 436.368 534.848 462.002 553.745 497.172 559.099 535.523 559.202 536.267 559.889 536.785 560.633 536.682 561.376 536.578 561.894 535.891 561.791 535.148 556.347 496.154 537.133 460.394 507.623 434.331Z" fill="#171717" fill-rule="evenodd" clip-rule="evenodd"/><path d="M812.929 757.877 845.591 794.28 792.037 794.28 812.929 757.877Z" fill="#171717"/><path d="M742.588 794.28 644.096 794.28 644.096 807.707 742.588 807.707 742.588 794.28Z" fill="url(#paint1_linear_248_1699)"/><path d="M728.328 622.564C734.576 636.537 738.02 651.6 738.466 666.9L738.829 667.172C730.847 677.437 720.618 685.963 712.663 696.318 709.212 700.777 706.406 705.7 704.328 710.941L703.628 710.67 593.301 709.405 593.301 709.17C594.732 698.533 596.182 689.156 597.613 678.519L650.479 678.519 650.479 654.863 618.348 623.1C647.53 624.115 689.832 622.457 719.014 623.471 722.077 623.571 725.302 623.643 727.975 622.149 728.002 622.13 728.029 622.121 728.056 622.103L728.328 622.564Z" fill="#171717"/><path d="M594.211 741.84 594.211 814.103 531.533 814.103 531.533 741.84 559.04 741.84 594.211 741.84Z" fill="#171717"/><path d="M559.039 709.016 559.039 741.84 531.532 741.84 518.576 741.84 487.41 741.84 487.41 708.273 487.41 678.519 559.039 678.519 559.039 709.016Z" fill="url(#paint2_linear_248_1699)"/><path d="M554.882 409.906C570.828 426.468 588.151 436.253 611.145 436.443L611.988 436.588C608.771 456.402 609.333 480.788 611.725 505.388L611.317 505.425C594.891 506.394 572.902 503.825 557.491 497.941 550.751 480.283 541.7 463.621 529.758 449.007 515.434 431.476 496.598 417.161 475.579 409.089L475.751 408.645C471.441 387.769 469.23 366.514 469.151 345.197 469.141 341.981 469.295 338.438 471.47 336.074 473.952 333.356 478.102 333.192 481.77 333.22L485.693 333.247C496.401 333.319 507.107 333.392 517.811 333.464 518.219 333.464 518.627 333.473 519.034 333.473 522.142 333.491 525.558 333.618 527.886 335.684 530.957 338.402 530.794 343.14 530.677 347.245 530.395 358.768 532.387 370.234 536.541 380.986 540.694 391.738 546.927 401.565 554.882 409.906L554.882 409.906Z" fill="url(#paint3_linear_248_1699)"/><path d="M477.389 555.574 477.389 620.381 412.582 615.851 412.582 551.044 436.102 552.684 477.389 555.574Z" fill="url(#paint4_linear_248_1699)"/><path d="M442.752 392.52C442.986 395.7 443.053 398.891 442.952 402.078 442.897 403.99 442.789 405.902 442.617 407.804L442.644 408.52C411.54 409.52 380.47 411.072 349.434 413.177L349.416 412.905C349.38 409.752 349.416 406.593 349.524 403.428 349.624 400.447 349.791 397.473 350.024 394.504 350.025 392.402 350.561 390.335 351.582 388.497 353.276 385.979 356.538 385.018 359.573 384.873 362.608 384.728 365.661 385.199 368.66 384.737L369.095 384.148C373.424 387.21 378.094 389.758 383.011 391.741 393.449 396.035 404.964 398.318 416.111 396.488 423.842 395.262 431.06 391.847 436.911 386.649L437.436 387.229C438.636 386.229 440.589 386.839 441.522 388.08 442.352 389.41 442.779 390.952 442.752 392.52L442.752 392.52Z" fill="url(#paint5_linear_248_1699)"/><path d="M403.742 332.615C409.486 334.137 415.42 335.007 421.201 336.438 426.381 337.584 431.327 339.61 435.823 342.427 437.714 343.672 439.437 345.155 440.951 346.839 448.462 355.265 448.988 368.639 443.461 378.486 441.728 381.54 439.516 384.296 436.911 386.649 431.059 391.847 423.841 395.262 416.111 396.488 404.967 398.318 393.452 396.035 383.011 391.741 378.094 389.758 373.424 387.21 369.095 384.148 363.705 380.408 359.201 375.531 355.901 369.861 350.111 359.541 349.848 345.598 357.423 336.51 360.194 333.26 363.709 330.727 367.67 329.127 371.473 327.562 375.527 326.693 379.638 326.563 387.991 326.282 396.227 328.683 403.901 331.99L403.742 332.615ZM400.471 353.2C401.195 351.78 401.565 350.207 401.55 348.613 401.534 347.02 401.132 345.454 400.38 344.049 397.499 338.441 390.26 336.439 384.353 336.258 380.945 336.062 377.592 337.18 374.985 339.384 373.71 340.497 372.766 341.94 372.258 343.554 371.75 345.168 371.696 346.891 372.104 348.534 373.336 352.684 377.667 355.034 381.744 356.489 384.955 357.805 388.415 358.405 391.882 358.247 395.325 357.938 398.795 356.216 400.471 353.2Z" fill="#171717"/><path d="M427.089 800.993 390.84 800.993 390.84 833.292 427.089 833.292 427.089 800.993Z" fill="#171717"/><path d="M397.063 560.593C402.001 553.798 409.863 548.593 418.263 548.942 424.098 549.178 429.552 552.004 435.363 552.602 435.608 552.63 435.853 552.648 436.106 552.657L436.106 552.684 412.586 551.044 412.586 615.851 412.441 616.322C411.74 616.119 411.025 615.961 410.303 615.851 404.36 614.972 397.864 615.869 392.709 612.779 388.169 610.052 385.741 604.671 385.309 599.389 384.877 594.107 386.134 588.852 387.493 583.733 389.634 575.615 392.126 567.388 397.063 560.593Z" fill="#171717"/><path d="M375.075 238.435C383.229 238.508 391.328 239.794 399.483 239.984 407.638 240.174 416.09 239.151 423.111 235.01 428.996 231.346 433.708 226.074 436.692 219.817 437.204 218.553 437.972 217.408 438.948 216.455 439.451 215.994 440.098 215.72 440.779 215.679 441.46 215.638 442.135 215.832 442.69 216.229 443.632 217.09 443.605 218.557 443.469 219.829 442.656 227.082 440.378 234.094 436.774 240.44 444.163 233.919 453.282 229.677 463.03 228.227 463.247 233.274 460.937 238.166 457.694 242.035 454.451 245.904 450.319 248.903 446.233 251.865 454.275 249.785 462.447 248.249 470.695 247.265 473.612 246.911 477.354 247.093 478.45 249.82 479.537 252.52 476.991 255.247 474.582 256.886 464.289 263.886 451.968 267.061 439.474 268.03 435.931 268.311 432.38 268.402 428.855 268.357 412.9 268.148 397.1 265.267 381.181 264.107 376.733 263.781 371.768 263.763 368.461 266.744 364.637 270.187 364.637 276.076 364.936 281.213 365.716 294.975 366.504 308.742 367.301 322.513L367.174 322.522C363.019 326.561 357.963 329.555 352.424 331.256 351.762 329.69 351.592 327.961 351.935 326.296 352.278 324.631 353.118 323.109 354.345 321.933 351.64 324.281 348.517 326.1 345.14 327.296 343.999 327.704 342.603 327.996 341.679 327.206 340.411 326.146 341.054 324.116 341.752 322.612 347.826 309.499 350.299 295.005 348.918 280.619 348.338 274.712 347.118 268.85 347.079 262.919 347.04 256.988 348.357 250.77 352.234 246.267 357.652 239.948 366.758 238.354 375.075 238.435Z" fill="#171717"/><path d="M346.072 741.84 273.166 741.84 273.166 801.954 346.072 801.954 346.072 741.84Z" fill="#171717"/><path d="M209.846 741.84 232.877 776.078 176.596 777.972 209.846 741.84Z" fill="url(#paint6_linear_248_1699)"/><path d="M399.809 326.617C401.485 326.064 403.297 326.445 405.054 326.581 406.811 326.717 408.805 326.499 409.92 325.131 410.684 323.951 411.016 322.543 410.862 321.145 410.717 310.562 407.175 300.207 406.962 289.67 406.935 288.646 406.953 287.604 406.998 286.57 406.915 285.24 407.361 283.931 408.24 282.928 409.185 282.254 410.332 281.922 411.492 281.986 416.722 281.743 421.961 282.166 427.085 283.245" stroke="#171717" stroke-width="2.718" stroke-linecap="round" stroke-linejoin="round"/><path d="M394.101 295.822C393.505 294.962 392.718 294.251 391.802 293.745 390.886 293.238 389.866 292.951 388.82 292.904 387.774 292.858 386.732 293.053 385.775 293.476 384.818 293.899 383.971 294.537 383.301 295.341" stroke="#171717" stroke-width="2.718" stroke-linecap="round" stroke-linejoin="round"/><path d="M416.688 295.269C417.275 294.626 417.996 294.12 418.799 293.785 419.603 293.45 420.47 293.295 421.34 293.33 422.21 293.365 423.061 293.591 423.835 293.99 424.609 294.389 425.286 294.952 425.82 295.64" stroke="#171717" stroke-width="2.718" stroke-linecap="round" stroke-linejoin="round"/><path d="M403.901 331.99C396.227 328.683 387.991 326.282 379.638 326.563 375.527 326.693 371.473 327.562 367.67 329.127 363.709 330.727 360.194 333.26 357.423 336.51 349.848 345.598 350.111 359.541 355.901 369.861 359.203 375.531 363.709 380.408 369.101 384.148 373.43 387.21 378.1 389.758 383.017 391.741 393.455 396.035 404.97 398.318 416.117 396.488 423.847 395.262 431.065 391.847 436.917 386.649 439.522 384.296 441.734 381.54 443.467 378.486 448.994 368.638 448.467 355.265 440.957 346.839 439.443 345.155 437.72 343.672 435.829 342.427 431.333 339.61 426.387 337.584 421.207 336.438 415.426 335.007 409.492 334.138 403.748 332.615 402.198 332.215 400.676 331.763 399.163 331.238" stroke="#171717" stroke-width="2.718" stroke-linecap="round" stroke-linejoin="round"/><path d="M384.352 336.257C380.944 336.061 377.591 337.18 374.984 339.383 373.709 340.496 372.765 341.939 372.257 343.553 371.749 345.167 371.695 346.89 372.103 348.533 373.335 352.683 377.666 355.033 381.743 356.488 384.954 357.804 388.414 358.404 391.881 358.246 395.324 357.938 398.794 356.216 400.47 353.199 401.194 351.78 401.564 350.206 401.549 348.612 401.533 347.019 401.131 345.453 400.379 344.048 397.5 338.44 390.259 336.438 384.352 336.257Z" stroke="#171717" stroke-width="2.718" stroke-linecap="round" stroke-linejoin="round"/><path d="M435.977 342.209C439.32 317.632 440.491 292.808 439.477 268.025 439.477 267.935 439.468 267.835 439.468 267.744" stroke="#171717" stroke-width="2.718" stroke-linecap="round" stroke-linejoin="round"/><path d="M367.701 329.543C367.692 329.407 367.683 329.262 367.674 329.127 367.547 326.916 367.42 324.714 367.302 322.504 366.502 308.741 365.713 294.974 364.937 281.204 364.637 276.067 364.637 270.178 368.462 266.735 371.769 263.754 376.734 263.772 381.182 264.098 397.101 265.258 412.901 268.139 428.856 268.348 432.381 268.393 435.932 268.302 439.475 268.021 451.969 267.052 464.29 263.872 474.583 256.877 476.992 255.238 479.538 252.511 478.451 249.811 477.351 247.084 473.613 246.902 470.696 247.256 462.448 248.24 454.275 249.777 446.234 251.856 450.32 248.894 454.46 245.895 457.695 242.026 460.93 238.157 463.248 233.265 463.031 228.218 453.283 229.668 444.163 233.91 436.775 240.431 440.379 234.085 442.656 227.073 443.47 219.82 443.606 218.551 443.633 217.084 442.691 216.22 442.135 215.823 441.461 215.629 440.78 215.67 440.098 215.712 439.452 215.985 438.949 216.446 437.973 217.399 437.205 218.544 436.693 219.808 433.709 226.065 428.996 231.337 423.112 235.001 416.091 239.142 407.638 240.157 399.484 239.975 391.33 239.793 383.23 238.499 375.076 238.426 366.759 238.345 357.653 239.939 352.235 246.245 348.358 250.745 347.053 256.954 347.08 262.897 347.107 268.84 348.339 274.697 348.919 280.597 350.3 294.983 347.827 309.477 341.753 322.59 341.053 324.09 340.412 326.124 341.68 327.184 342.604 327.972 344 327.684 345.141 327.274 348.518 326.079 351.64 324.259 354.346 321.911 353.119 323.088 352.278 324.609 351.935 326.274 351.592 327.939 351.763 329.668 352.425 331.234 357.964 329.533 363.02 326.539 367.175 322.5" stroke="#171717" stroke-width="2.718" stroke-linecap="round" stroke-linejoin="round"/><path d="M368.66 384.737C365.66 385.199 362.599 384.719 359.573 384.873 356.547 385.027 353.273 385.979 351.582 388.497 350.561 390.334 350.025 392.402 350.024 394.504 349.788 397.476 349.621 400.45 349.524 403.428 349.416 406.59 349.38 409.749 349.416 412.905" stroke="#171717" stroke-width="2.718" stroke-linecap="round" stroke-linejoin="round"/><path d="M437.436 387.229C438.636 386.229 440.589 386.839 441.522 388.08 442.352 389.41 442.78 390.952 442.754 392.52 442.988 395.7 443.054 398.891 442.954 402.078 442.899 403.99 442.791 405.902 442.619 407.804" stroke="#171717" stroke-width="2.718" stroke-linecap="round" stroke-linejoin="round"/><path d="M348.918 403.41C318.518 405.902 288.995 411.465 261.018 423.596 233.041 435.727 207.537 454.808 191.084 480.484 170.064 513.254 165.271 554.568 171.568 592.984 174.884 613.184 181.625 633.791 196.357 648.006 208.298 659.53 224.035 665.537 240.534 668.781 248.323 670.259 256.192 671.279 264.099 671.834 287.793 673.648 311.604 673.236 335.22 670.602 341.082 669.95 347.261 669.025 351.828 665.302 357.907 660.337 359.52 651.82 360.353 644.02 361.5 633.345 361.967 622.608 361.753 611.874 361.62 604.564 361.161 597.263 360.376 589.974 359.787 584.493 358.782 578.574 355.71 574.192 354.843 572.948 353.793 571.842 352.594 570.912 346.243 566.001 337.264 567.442 329.336 568.728 309.929 571.873 290.208 572.615 270.618 570.939 263.361 570.314 254.935 568.547 251.809 561.97" stroke="#171717" stroke-width="2.718" stroke-linecap="round" stroke-linejoin="round"/><path d="M443.18 402.087C454.281 402.698 465.216 405.06 475.58 409.087 496.599 417.159 515.435 431.474 529.759 449.005 541.701 463.619 550.752 480.281 557.492 497.939 562.777 511.951 566.783 526.412 569.461 541.146 575.64 574.306 576.261 613.618 576.861 647.358L576.861 647.584" stroke="#171717" stroke-width="2.718" stroke-linecap="round" stroke-linejoin="round"/><path d="M356.23 573.984C363.217 562.774 372.73 553.354 384.008 546.478 398.77 537.288 415.97 532.787 433.34 533.567 434.4 533.622 435.46 533.703 436.52 533.839 438.946 534.068 441.304 534.77 443.46 535.905 446.504 537.605 448.905 540.861 448.679 544.349 448.307 549.93 441.757 552.949 436.103 552.657 435.85 552.648 435.603 552.63 435.36 552.602 429.553 552.002 424.099 549.178 418.26 548.942 409.86 548.598 401.997 553.798 397.06 560.593 392.123 567.388 389.631 575.615 387.484 583.733 386.125 588.852 384.857 594.107 385.3 599.389 385.743 604.671 388.163 610.052 392.7 612.779 397.855 615.869 404.351 614.972 410.294 615.851 411.017 615.962 411.731 616.119 412.432 616.322 417.705 617.88 422.707 622.148 421.474 627.303 420.152 632.838 412.967 634.333 407.274 633.944 390.228 632.686 374.369 624.742 363.152 611.844" stroke="#171717" stroke-width="2.718" stroke-linecap="round" stroke-linejoin="round"/><path d="M436.592 533.323C436.229 529.816 433.692 526.79 430.576 525.132 427.376 523.608 423.852 522.889 420.311 523.039 412.404 523.186 404.687 525.489 397.992 529.699 391.298 533.909 385.88 539.868 382.322 546.931 382.822 546.677 383.322 546.414 383.822 546.161" stroke="#171717" stroke-width="2.718" stroke-linecap="round" stroke-linejoin="round"/><path d="M475.751 408.647C471.441 387.771 469.23 366.516 469.151 345.199 469.141 341.983 469.295 338.44 471.47 336.076 473.952 333.358 478.102 333.194 481.77 333.222L485.693 333.249C496.401 333.321 507.107 333.394 517.811 333.466 518.219 333.466 518.627 333.475 519.034 333.475 522.142 333.493 525.558 333.62 527.886 335.686 530.957 338.404 530.794 343.142 530.677 347.247 530.394 358.769 532.386 370.234 536.539 380.986 540.691 391.738 546.923 401.565 554.877 409.906 570.823 426.468 588.146 436.253 611.14 436.443" stroke="#171717" stroke-width="2.718" stroke-linecap="round" stroke-linejoin="round"/><path d="M683.225 356.714C682.522 356.881 681.871 357.221 681.332 357.702 680.792 358.183 680.381 358.791 680.135 359.47 679.889 360.15 679.816 360.88 679.922 361.595 680.029 362.31 680.312 362.987 680.745 363.566 681.178 364.145 681.748 364.606 682.405 364.91 683.061 365.213 683.782 365.348 684.503 365.303 685.225 365.258 685.924 365.035 686.537 364.653 687.151 364.27 687.66 363.742 688.018 363.114" stroke="#171717" stroke-width="2.718" stroke-linecap="round" stroke-linejoin="round"/><path d="M691.4 385.689C692.61 385.989 693.868 386.04 695.098 385.839 696.328 385.639 697.505 385.191 698.557 384.523 699.609 383.854 700.514 382.98 701.218 381.951 701.922 380.923 702.411 379.762 702.653 378.54" stroke="#171717" stroke-width="2.718" stroke-linecap="round" stroke-linejoin="round"/><path d="M676.113 340.85C676.33 338.504 676.541 336.16 676.747 333.82" stroke="#171717" stroke-width="2.718" stroke-linecap="round" stroke-linejoin="round"/><path d="M703.575 344.048C703.358 341.91 703.149 339.781 702.932 337.648" stroke="#171717" stroke-width="2.718" stroke-linecap="round" stroke-linejoin="round"/><path d="M667.779 330C669.693 328.135 672.157 326.937 674.806 326.586 677.455 326.235 680.146 326.749 682.479 328.052" stroke="#171717" stroke-width="2.718" stroke-linecap="round" stroke-linejoin="round"/><path d="M650.482 317.838C654.648 318.913 659.004 319.027 663.22 318.173 669.423 316.982 675.074 313.816 679.329 309.149 688.029 327.179 705.323 340.588 724.684 345.398 730.531 346.878 736.557 347.525 742.584 347.319" stroke="#171717" stroke-width="2.718" stroke-linecap="round" stroke-linejoin="round"/><path d="M663.321 318.671C659.421 338.939 655.683 360.81 664.444 379.491 667.996 387.057 673.405 393.598 677.382 400.946 681.359 408.294 688.019 422.708 679.91 436.446" stroke="#171717" stroke-width="2.718" stroke-linecap="round" stroke-linejoin="round"/><path d="M724.831 344.936C724.786 345.09 724.731 345.244 724.686 345.398 716.333 372.108 711.576 404.37 710.598 432.298" stroke="#171717" stroke-width="2.718" stroke-linecap="round" stroke-linejoin="round"/><path d="M624.769 586.768C620.013 564.268 614.569 534.682 611.723 505.39 609.331 480.79 608.769 456.402 611.986 436.59 612.286 434.69 612.629 432.839 613.009 431.027 617.567 409.256 624.416 387.765 625.209 365.541 625.844 347.711 622.573 329.518 626.831 312.186 634.215 282.086 665.717 260.544 696.631 262.709 727.545 264.874 755.059 289.201 762.924 319.171 769.719 345.11 763.132 372.816 767.481 399.271 772.165 427.801 789.451 463.806 785.673 492.463" stroke="#171717" stroke-width="2.718" stroke-linecap="round" stroke-linejoin="round"/><path d="M615.537 620.326C621.028 610.877 623.583 599.298 624.769 586.768 627.56 557.323 622.776 522.641 630.604 498.188 638.785 472.62 656.625 446.799 679.904 436.443 688.452 432.548 697.89 431.025 707.229 432.031 708.344 432.158 709.458 432.312 710.554 432.511 731.501 436.18 748.444 452.162 763.054 467.945 770.583 476.072 777.954 484.407 785.016 492.996 803.97 516.045 820.622 540.906 831.784 568.476 847.105 606.32 851.245 649.989 836.084 687.887 820.923 725.785 784.215 756.087 743.399 757.007 729.999 757.307 715.123 753.491 707.077 743.254 706.058 741.959 705.16 740.572 704.395 739.113 701.523 733.399 700.57 726.911 701.677 720.613 702.191 717.299 703.076 714.053 704.314 710.937 706.392 705.696 709.198 700.773 712.649 696.314 720.604 685.959 730.833 677.433 738.815 667.168 740.228 665.368 741.557 663.501 742.801 661.568 755.367 642.007 756.801 616.92 751.78 594.224 747.866 576.512 740.391 559.887 732.192 543.642 729.881 539.067 727.517 534.518 725.152 529.988" stroke="#171717" stroke-width="2.718" stroke-linecap="round" stroke-linejoin="round"/><path d="M618.348 623.1C647.53 624.115 689.832 622.457 719.014 623.471 722.077 623.571 725.302 623.643 727.975 622.149 728.002 622.13 728.029 622.121 728.056 622.103 733.338 619.086 733.828 611.766 733.656 605.668 733.149 587.122 732.642 562.234 732.134 543.679" stroke="#171717" stroke-width="2.718" stroke-linecap="round" stroke-linejoin="round"/><path d="M824.256 711.924 920.375 713.056" stroke="#171717" stroke-width="2.718" stroke-linecap="round" stroke-linejoin="round"/><path d="M559.455 709.016 593.304 709.405 703.628 710.665" stroke="#171717" stroke-width="2.718" stroke-linecap="round" stroke-linejoin="round"/><path d="M40.377 703.308 234.888 705.473 487.093 708.273" stroke="#171717" stroke-width="2.718" stroke-linecap="round" stroke-linejoin="round"/><path d="M487.411 678.519 386.672 678.519 386.672 654.863 516.185 654.863 547.524 654.863 570.763 654.863 650.483 654.863 650.483 678.519 597.617 678.519 559.04 678.519" stroke="#171717" stroke-width="2.718" stroke-linecap="round" stroke-linejoin="round"/><path d="M487.41 741.84 487.41 708.273 487.41 678.519 559.039 678.519 559.039 709.016 559.039 741.84" stroke="#171717" stroke-width="2.718" stroke-linecap="round" stroke-linejoin="round"/><path d="M531.532 741.84 518.576 741.84" stroke="#171717" stroke-width="2.718" stroke-linecap="round" stroke-linejoin="round"/><path d="M518.577 741.84 518.577 814.103 450.953 814.103 450.953 741.84 487.411 741.84 518.577 741.84Z" stroke="#171717" stroke-width="2.718" stroke-linecap="round" stroke-linejoin="round"/><path d="M531.533 741.84 559.04 741.84 594.211 741.84 594.211 814.103 531.533 814.103 531.533 741.84Z" stroke="#171717" stroke-width="2.718" stroke-linecap="round" stroke-linejoin="round"/><path d="M436.102 552.684 477.389 555.574 477.389 620.381 412.582 615.851 412.582 551.044 436.102 552.684Z" stroke="#171717" stroke-width="2.718" stroke-linecap="round" stroke-linejoin="round"/><path d="M346.072 741.84 273.166 741.84 273.166 801.954 346.072 801.954 346.072 741.84Z" stroke="#171717" stroke-width="2.718" stroke-linecap="round" stroke-linejoin="round"/><path d="M414.404 741.84 382.322 741.84 382.322 773.913 414.404 773.913 414.404 741.84Z" stroke="#171717" stroke-width="2.718" stroke-linecap="round" stroke-linejoin="round"/><path d="M742.588 794.28 644.096 794.28 644.096 807.707 742.588 807.707 742.588 794.28Z" stroke="#171717" stroke-width="2.718" stroke-linecap="round" stroke-linejoin="round"/><path d="M650.484 654.863 618.348 623.099 618.339 623.099 615.539 620.326 606.262 611.158 576.862 647.362 570.764 654.863" stroke="#171717" stroke-width="2.718" stroke-linecap="round" stroke-linejoin="round"/><path d="M547.525 654.863 547.525 620.326 516.186 620.326 516.186 654.863" stroke="#171717" stroke-width="2.718" stroke-linecap="round" stroke-linejoin="round"/><path d="M427.089 800.993 390.84 800.993 390.84 833.292 427.089 833.292 427.089 800.993Z" stroke="#171717" stroke-width="2.718" stroke-linecap="round" stroke-linejoin="round"/><path d="M792.037 794.28 812.929 757.877 845.591 794.28 792.037 794.28Z" stroke="#171717" stroke-width="2.718" stroke-linecap="round" stroke-linejoin="round"/><path d="M232.877 776.078 209.846 741.84 176.596 777.972 232.877 776.078Z" stroke="#171717" stroke-width="2.718" stroke-linecap="round" stroke-linejoin="round"/><path d="M557.256 497.852C557.337 497.88 557.41 497.916 557.491 497.943 572.902 503.823 594.891 506.396 611.317 505.427" stroke="#171717" stroke-width="2.718" stroke-linecap="round" stroke-linejoin="round"/><path d="M500.556 304.673C501.326 295.468 502.093 286.266 502.856 277.067 503.046 274.757 503.073 272.03 501.243 270.607 499.404 269.167 496.543 269.964 494.983 271.707 493.423 273.45 492.845 275.829 492.346 278.107 488.493 295.796 486.27 313.802 485.705 331.897" stroke="#171717" stroke-width="2.718" stroke-linecap="round" stroke-linejoin="round"/><path d="M500.556 304.673C500.175 307.6 499.94 310.535 499.822 313.48L500.556 304.673Z" stroke="#171717" stroke-width="2.718" stroke-linecap="round" stroke-linejoin="round"/><path d="M517.826 332.606C529.892 326.586 539.819 317.007 546.266 305.163 544 298 531 304.173 527 311.5 524.841 315.454 519 314.5 517.566 312.882 523.323 299.319 530.02 286.234 530 271.5 529.991 265 526.5 266.458 524.961 266.947 524.5 267.093 522 268 521 274 517.829 286.766 515.442 295.607 512.28 308.379 515.718 294.659 518.5 266.458 513.504 266.458 506 265 502.279 291.198 500.557 304.673" stroke="#171717" stroke-width="2.718" stroke-linecap="round" stroke-linejoin="round"/><path d="M701.293 720.549C698.502 724.68 693.809 726.492 689.334 727.625 681.315 729.654 673.089 730.216 665.025 731.901 656.961 733.586 648.799 736.549 642.525 742.601 641.764 743.335 640.967 744.401 641.325 745.428 641.533 745.886 641.896 746.257 642.35 746.474 642.804 746.691 643.32 746.741 643.808 746.615 671.939 740.871 684.279 743.199 706.766 743.498" stroke="#171717" stroke-width="2.718" stroke-linecap="round" stroke-linejoin="round"/><path d="M240.515 668.888C238.395 680.947 236.519 693.045 234.889 705.183" stroke="#171717" stroke-width="2.718" stroke-linecap="round" stroke-linejoin="round"/><path d="M399.81 285.049 373.092 285.049 373.092 308.868 399.81 308.868 399.81 285.049Z" stroke="#171717" stroke-width="2.718" stroke-linecap="round" stroke-linejoin="round"/><path d="M435.977 287.604 414.178 287.604 414.178 307.908 435.977 307.908 435.977 287.604Z" stroke="#171717" stroke-width="2.718" stroke-linecap="round" stroke-linejoin="round"/><path d="M399.881 291.826C401.886 290.412 404.281 289.657 406.735 289.667 409.188 289.677 411.578 290.451 413.571 291.881" stroke="#171717" stroke-width="2.718" stroke-linecap="round" stroke-linejoin="round"/><path d="M395.179 349.539C393.106 349.891 390.985 349.848 388.928 349.412 387.076 349.088 385.347 348.264 383.928 347.029 383.205 346.345 382.623 345.524 382.218 344.615 381.812 343.705 381.59 342.725 381.564 341.729" stroke="#171717" stroke-width="2.718" stroke-linecap="round" stroke-linejoin="round"/><path d="M349.271 413.186C349.325 413.186 349.379 413.177 349.434 413.177 380.473 411.066 411.543 409.513 442.644 408.52L442.653 408.52" stroke="#171717" stroke-width="2.718" stroke-linecap="round" stroke-linejoin="round"/><path d="M728.326 622.564C734.574 636.537 738.019 651.6 738.464 666.9 738.836 666.085 739.207 665.269 739.57 664.454" stroke="#171717" stroke-width="2.718" stroke-linecap="round" stroke-linejoin="round"/><path d="M597.617 678.519C596.186 689.156 594.736 698.533 593.305 709.17" stroke="#171717" stroke-width="2.718" stroke-linecap="round" stroke-linejoin="round"/><path d="M510.02 468.702 512.349 489.22 525.141 489.22 528.978 505.624" stroke="url(#paint7_linear_248_1699)" stroke-width="2.718" stroke-linecap="round" stroke-linejoin="round"/><path d="M409.458 452.127 395.963 459.801 399.4 467.049 388.707 476.003" stroke="url(#paint8_linear_248_1699)" stroke-width="2.718" stroke-linecap="round" stroke-linejoin="round"/><path d="M298.746 447.863 309.618 454.259 301.304 464.065 311.536 476.003" stroke="url(#paint9_linear_248_1699)" stroke-width="2.718" stroke-linecap="round" stroke-linejoin="round"/><path d="M222.001 493.91 204.733 497.849 207.931 516.08 194.287 518.212" stroke="url(#paint10_linear_248_1699)" stroke-width="2.718" stroke-linecap="round" stroke-linejoin="round"/><path d="M218.164 572.359 231.381 572.359 224.773 594.368 237.704 595.809" stroke="url(#paint11_linear_248_1699)" stroke-width="2.718" stroke-linecap="round" stroke-linejoin="round"/><path d="M317.079 606.894 327.312 595.809 305.141 586.77 311.536 580.46" stroke="url(#paint12_linear_248_1699)" stroke-width="2.718" stroke-linecap="round" stroke-linejoin="round"/><path d="M356.231 514.801 361.806 508.832 343.939 497.849 349.401 490.925" stroke="url(#paint13_linear_248_1699)" stroke-width="2.718" stroke-linecap="round" stroke-linejoin="round"/><path d="M491.884 518.212 484.766 521.197 491.884 530.577 481.064 538.175" stroke="url(#paint14_linear_248_1699)" stroke-width="2.718" stroke-linecap="round" stroke-linejoin="round"/><path d="M531.535 585.71 540.146 574.065 551.574 579.887 551.574 558.29" stroke="url(#paint15_linear_248_1699)" stroke-width="2.718" stroke-linecap="round" stroke-linejoin="round"/><path d="M292.35 687.034 301.73 693.844 316.226 684.918 327.312 695.577" stroke="url(#paint16_linear_248_1699)" stroke-width="2.718" stroke-linecap="round" stroke-linejoin="round"/><path d="M130.04 429.549C129.34 424.468 134.631 419.86 139.74 420.299 144.849 420.738 149.017 425.166 150.305 430.131 151.593 435.096 150.448 440.414 148.379 445.108 141.641 460.399 126.323 469.703 112.407 478.954 98.4905 488.205 84.1065 499.954 81.3475 516.437 80.6795 520.425 80.7815 524.673 82.5395 528.314 84.2975 531.955 87.9575 534.844 92.0005 534.865 96.0435 534.886 100.033 531.437 99.8725 527.398 99.7125 523.359 94.5725 520.217 91.1965 522.448" stroke="#171717" stroke-width="2.718" stroke-linecap="round" stroke-linejoin="round"/><path d="M231.327 399.1C229.227 392.121 227.688 384.812 228.521 377.572 229.354 370.332 232.865 363.116 239.029 359.228 247.683 353.769 258.999 355.948 268.885 353.315 282.29 349.744 292.329 336.222 291.868 322.357 291.768 319.357 291.038 316.052 288.586 314.319 285.345 312.028 280.579 313.719 278.049 316.774 272.297 323.726 276.333 335.62 284.634 339.157 292.935 342.694 303.14 338.806 308.625 331.641 314.11 324.476 315.462 314.829 314.308 305.88 313.26 298.172 310.547 290.783 306.359 284.227 302.17 277.672 296.606 272.105 290.052 267.914" stroke="#171717" stroke-width="2.718" stroke-linecap="round" stroke-linejoin="round"/><path d="M478.631 301.771C477.647 299.038 477.256 296.127 477.486 293.231 477.716 290.335 478.56 287.522 479.963 284.978" stroke="#171717" stroke-width="2.718" stroke-linecap="round" stroke-linejoin="round"/><path d="M585.922 358.058C580.698 355.744 576.205 352.048 572.928 347.368" stroke="#171717" stroke-width="2.718" stroke-linecap="round" stroke-linejoin="round"/><path d="M573.746 359.394C577.536 355.426 580.766 350.958 583.346 346.115L582.697 347.883" stroke="#171717" stroke-width="2.718" stroke-linecap="round" stroke-linejoin="round"/><path d="M567.35 402.243 562.234 393.29" stroke="#171717" stroke-width="2.718" stroke-linecap="round" stroke-linejoin="round"/><path d="M559.676 400.964 567.35 395.208" stroke="#171717" stroke-width="2.718" stroke-linecap="round" stroke-linejoin="round"/><path d="M605.699 296.811 589.75 293.431" stroke="#171717" stroke-width="2.718" stroke-linecap="round" stroke-linejoin="round"/><path d="M612.429 282.876C604.267 271.016 595.214 259.794 585.348 249.309" stroke="#171717" stroke-width="2.718" stroke-linecap="round" stroke-linejoin="round"/><path d="M623.831 274.3 621.1 257.065" stroke="#171717" stroke-width="2.718" stroke-linecap="round" stroke-linejoin="round"/><path d="M838.285 343.625C825.329 372.372 816.702 402.879 812.685 434.154 811.598 442.639 810.996 451.848 815.432 459.162 817.834 463.12 821.518 466.137 825.872 467.713 830.226 469.288 834.988 469.328 839.367 467.824 843.746 466.32 847.479 463.364 849.947 459.446 852.414 455.528 853.468 450.884 852.932 446.285 852.265 440.57 848.101 434.647 842.348 434.559 838.498 434.501 835.018 437.087 832.848 440.266 826.648 449.34 829.629 462.086 835.97 471.06 842.311 480.034 851.438 486.613 858.847 494.727 866.256 502.841 872.154 513.772 869.706 524.484 868.906 527.963 867.106 531.396 864.034 533.219 860.962 535.042 856.509 534.741 854.328 531.919 852.147 529.097 853.661 524.029 857.195 523.533" stroke="#171717" stroke-width="2.718" stroke-linecap="round" stroke-linejoin="round"/><path d="M870.506 366 867.088 350.653" stroke="#171717" stroke-width="2.718" stroke-linecap="round" stroke-linejoin="round"/><path d="M861.119 359.234 874.313 356.968" stroke="#171717" stroke-width="2.718" stroke-linecap="round" stroke-linejoin="round"/><path d="M865.421 424.831 863.273 413.322" stroke="#171717" stroke-width="2.718" stroke-linecap="round" stroke-linejoin="round"/><path d="M858.562 419.622C862.342 420.04 866.168 419.652 869.786 418.481" stroke="#171717" stroke-width="2.718" stroke-linecap="round" stroke-linejoin="round"/><path d="M135.101 651.9 124.715 641.826" stroke="#171717" stroke-width="2.718" stroke-linecap="round" stroke-linejoin="round"/><path d="M125.051 653.528C127.843 650.265 130.337 646.757 132.502 643.048" stroke="#171717" stroke-width="2.718" stroke-linecap="round" stroke-linejoin="round"/><path d="M145.152 603.29C141.967 601.849 139.164 599.682 136.967 596.963" stroke="#171717" stroke-width="2.718" stroke-linecap="round" stroke-linejoin="round"/><path d="M136.83 604.9C139.06 601.44 141.925 598.435 145.274 596.043" stroke="#171717" stroke-width="2.718" stroke-linecap="round" stroke-linejoin="round"/><path d="M123.448 450.923 116.564 445.023" stroke="#171717" stroke-width="2.718" stroke-linecap="round" stroke-linejoin="round"/><path d="M115.807 453.376C118.577 450.409 120.796 446.972 122.363 443.227" stroke="#171717" stroke-width="2.718" stroke-linecap="round" stroke-linejoin="round"/><path d="M316.207 349.778 323.459 343.813" stroke="#171717" stroke-width="2.718" stroke-linecap="round" stroke-linejoin="round"/><path d="M322.163 353.227 317.5 342.983" stroke="#171717" stroke-width="2.718" stroke-linecap="round" stroke-linejoin="round"/><path d="M249.1 334.345 244.6 324.22" stroke="#171717" stroke-width="2.718" stroke-linecap="round" stroke-linejoin="round"/><path d="M240.807 332.413 251.415 327.193" stroke="#171717" stroke-width="2.718" stroke-linecap="round" stroke-linejoin="round"/><path d="M369.07 199.309C372.095 205.816 374.3 212.673 375.634 219.723 380.198 216.589 385.583 214.867 391.118 214.774 392.186 214.758 393.559 214.586 393.818 213.55 393.882 213.138 393.836 212.717 393.684 212.329L387.988 193" stroke="#171717" stroke-width="2.718" stroke-linecap="round" stroke-linejoin="round"/><path d="M386.899 193.706C390.454 183.366 394.017 172.029 390.289 161.75 389.161 158.652 387.41 155.818 385.145 153.422 382.88 151.027 380.149 149.12 377.119 147.82 374.089 146.52 370.826 145.854 367.529 145.863 364.232 145.872 360.972 146.556 357.949 147.873 354.927 149.19 352.206 151.111 349.954 153.519 347.702 155.928 345.967 158.771 344.856 161.875 343.745 164.979 343.281 168.278 343.493 171.568 343.705 174.858 344.589 178.07 346.089 181.006 350.757 190.106 360.55 195.255 369.983 199.215" stroke="#171717" stroke-width="2.718" stroke-linecap="round" stroke-linejoin="round"/><path d="M369.062 198.8C374.39 196.462 380 194.829 385.751 193.944" stroke="#171717" stroke-width="2.718" stroke-linecap="round" stroke-linejoin="round"/><path d="M374.279 206.3 385.728 201.875" stroke="#171717" stroke-width="2.718" stroke-linecap="round" stroke-linejoin="round"/><path d="M381.138 192.5 379.038 168.112C378.138 170.191 377.126 172.412 375.165 173.542 373.204 174.672 370.065 173.942 369.673 171.709 369.725 172.733 369.43 173.745 368.836 174.581 368.242 175.418 367.383 176.029 366.399 176.317 365.415 176.606 364.362 176.554 363.411 176.17 362.459 175.786 361.665 175.093 361.156 174.203L369.714 188.95" stroke="#171717" stroke-width="2.718" stroke-linecap="round" stroke-linejoin="round"/><path d="M332.011 175.722 324.771 175.182" stroke="#171717" stroke-width="2.718" stroke-linecap="round" stroke-linejoin="round"/><path d="M335.186 147.609 317.5 135.357" stroke="#171717" stroke-width="2.718" stroke-linecap="round" stroke-linejoin="round"/><path d="M366.4 135.318 365.719 127.667" stroke="#171717" stroke-width="2.718" stroke-linecap="round" stroke-linejoin="round"/><path d="M389.02 143.8 398.001 128.9" stroke="#171717" stroke-width="2.718" stroke-linecap="round" stroke-linejoin="round"/><path d="M398.943 166.539 405.766 166.148" stroke="#171717" stroke-width="2.718" stroke-linecap="round" stroke-linejoin="round"/><path d="M688.018 193.942 679.989 219.723 659.086 198.798 688.018 193.942Z" stroke="#171717" stroke-width="2.718" stroke-linecap="round" stroke-linejoin="round"/><path d="M747.699 232.868 766.885 251.075 766.885 219.723 747.699 232.868Z" stroke="#171717" stroke-width="2.718" stroke-linecap="round" stroke-linejoin="round"/><path d="M512.038 215.651 514.031 223.03C514.091 223.253 514.082 223.488 514.004 223.706 513.926 223.923 513.783 224.111 513.595 224.244 513.407 224.378 513.182 224.451 512.951 224.453 512.721 224.455 512.495 224.386 512.304 224.256L505.993 219.945C505.809 219.819 505.592 219.75 505.369 219.748 505.146 219.745 504.927 219.809 504.74 219.931L498.34 224.106C498.147 224.232 497.92 224.296 497.689 224.288 497.459 224.281 497.236 224.204 497.05 224.066 496.865 223.929 496.727 223.738 496.653 223.519 496.58 223.3 496.575 223.064 496.64 222.843L498.79 215.509C498.854 215.294 498.853 215.066 498.786 214.852 498.719 214.638 498.591 214.449 498.416 214.309L492.467 209.509C492.288 209.364 492.157 209.168 492.092 208.946 492.027 208.725 492.032 208.489 492.106 208.27 492.18 208.052 492.319 207.861 492.504 207.724 492.69 207.586 492.913 207.509 493.143 207.503L500.783 207.281C501.006 207.274 501.222 207.202 501.404 207.073 501.586 206.944 501.725 206.763 501.804 206.555L504.53 199.415C504.612 199.199 504.758 199.014 504.949 198.884 505.14 198.754 505.366 198.685 505.596 198.688 505.827 198.69 506.052 198.763 506.24 198.897 506.428 199.031 506.57 199.219 506.647 199.437L509.219 206.637C509.294 206.847 509.43 207.03 509.609 207.163 509.788 207.296 510.002 207.373 510.225 207.384L517.858 207.77C518.089 207.781 518.31 207.863 518.493 208.004 518.675 208.145 518.81 208.339 518.879 208.559 518.948 208.779 518.948 209.015 518.878 209.235 518.809 209.455 518.674 209.649 518.491 209.79L512.44 214.46C512.263 214.596 512.13 214.782 512.058 214.994 511.987 215.206 511.98 215.435 512.038 215.651L512.038 215.651Z" fill="#171717"/><path d="M460.729 177.992 462.215 183.492C462.26 183.658 462.253 183.834 462.194 183.996 462.136 184.158 462.03 184.299 461.889 184.399 461.749 184.498 461.582 184.553 461.409 184.554 461.237 184.556 461.069 184.504 460.927 184.407L456.22 181.192C456.082 181.098 455.92 181.047 455.754 181.045 455.588 181.044 455.425 181.091 455.286 181.182L450.511 184.3C450.367 184.394 450.197 184.442 450.025 184.437 449.853 184.432 449.687 184.374 449.548 184.271 449.41 184.169 449.307 184.026 449.252 183.863 449.198 183.699 449.195 183.523 449.244 183.358L450.844 177.888C450.89 177.729 450.889 177.559 450.839 177.4 450.789 177.241 450.694 177.101 450.565 176.996L446.128 173.418C445.993 173.311 445.894 173.164 445.845 172.999 445.796 172.834 445.799 172.657 445.854 172.494 445.908 172.33 446.012 172.187 446.15 172.084 446.289 171.981 446.455 171.923 446.628 171.918L452.328 171.753C452.494 171.748 452.655 171.694 452.79 171.598 452.926 171.502 453.03 171.367 453.09 171.212L455.122 165.886C455.183 165.726 455.292 165.588 455.435 165.491 455.577 165.394 455.745 165.343 455.917 165.345 456.089 165.347 456.256 165.402 456.396 165.501 456.536 165.601 456.643 165.741 456.701 165.903L458.619 171.271C458.675 171.428 458.776 171.564 458.91 171.663 459.043 171.762 459.203 171.82 459.37 171.828L465.063 172.116C465.234 172.125 465.399 172.186 465.535 172.292 465.671 172.397 465.771 172.542 465.822 172.706 465.874 172.87 465.873 173.046 465.822 173.21 465.77 173.374 465.67 173.518 465.534 173.623L461.022 177.106C460.891 177.208 460.793 177.347 460.741 177.505 460.689 177.662 460.684 177.832 460.729 177.992L460.729 177.992Z" fill="#171717"/><path d="M587.967 461.016 584.141 452.057" stroke="#171717" stroke-width="2.718" stroke-linecap="round" stroke-linejoin="round"/><path d="M542.408 439.976 549.442 433.576" stroke="#171717" stroke-width="2.718" stroke-linecap="round" stroke-linejoin="round"/><path d="M519.441 400.9C516.741 398.347 514.875 395.038 514.086 391.406" stroke="#171717" stroke-width="2.718" stroke-linecap="round" stroke-linejoin="round"/><path d="M488.631 366.324C490.16 365.471 491.489 364.302 492.53 362.894 493.571 361.487 494.3 359.873 494.667 358.161" stroke="#171717" stroke-width="2.718" stroke-linecap="round" stroke-linejoin="round"/><path d="M715.7 471.962 710.578 462.372" stroke="#171717" stroke-width="2.718" stroke-linecap="round" stroke-linejoin="round"/><path d="M674.369 501.62 681.904 495.066" stroke="#171717" stroke-width="2.718" stroke-linecap="round" stroke-linejoin="round"/><path d="M709.088 431.6C705.24 445.634 696.297 457.729 684.008 465.523 681.02 467.4 677.628 469.051 674.118 468.693 668.975 468.168 665.094 463.272 664.243 458.173 663.392 453.074 664.953 447.883 666.959 443.118" stroke="#171717" stroke-width="2.718" stroke-linecap="round" stroke-linejoin="round"/><path d="M654.327 546.778 649.211 539.104" stroke="#171717" stroke-width="2.718" stroke-linecap="round" stroke-linejoin="round"/><path d="M698.414 556.97 705.414 549.901" stroke="#171717" stroke-width="2.718" stroke-linecap="round" stroke-linejoin="round"/><path d="M669.335 600.886 664.049 594.634" stroke="#171717" stroke-width="2.718" stroke-linecap="round" stroke-linejoin="round"/><path d="M759.867 507.787 767.537 501.387" stroke="#171717" stroke-width="2.718" stroke-linecap="round" stroke-linejoin="round"/><path d="M768.8 558.29 761.125 549.336" stroke="#171717" stroke-width="2.718" stroke-linecap="round" stroke-linejoin="round"/><path d="M802.061 562.127 810.375 558.927" stroke="#171717" stroke-width="2.718" stroke-linecap="round" stroke-linejoin="round"/><path d="M816.699 614.62 809.66 605.669" stroke="#171717" stroke-width="2.718" stroke-linecap="round" stroke-linejoin="round"/><path d="M776.479 638.871 784.154 632.476" stroke="#171717" stroke-width="2.718" stroke-linecap="round" stroke-linejoin="round"/><path d="M822.845 671.973 818.875 663.723" stroke="#171717" stroke-width="2.718" stroke-linecap="round" stroke-linejoin="round"/><path d="M775.84 695.15C779.226 694.654 782.365 693.085 784.793 690.673" stroke="#171717" stroke-width="2.718" stroke-linecap="round" stroke-linejoin="round"/><path d="M741.407 714.293 738.174 706.633" stroke="#171717" stroke-width="2.718" stroke-linecap="round" stroke-linejoin="round"/><path d="M780.32 732.243 779.039 723.289" stroke="#171717" stroke-width="2.718" stroke-linecap="round" stroke-linejoin="round"/><g opacity="0.1"><path d="M435.435 265.263C431.984 263.04 428.107 263.672 424.179 263.702 419.643 263.736 415.096 263.586 410.568 263.322 401.491 262.794 392.468 260.15 383.413 260.071 375.967 260.007 368.697 262.689 364.246 268.886 362.04 271.958 360.951 275.454 359.746 278.997 358.891 281.802 357.106 284.233 354.685 285.888 349.011 290.331 355.185 299.688 361.557 297.693 368.37 295.559 371.588 289.217 373.575 282.81 374.519 279.763 374.775 275.841 377.7 274.01 380.723 272.11 384.939 272.62 388.28 272.879 396.697 273.531 405.024 274.367 413.485 274.243 420.207 274.143 430.923 275.123 436.061 270.123 436.388 269.785 436.636 269.377 436.784 268.931 436.933 268.484 436.978 268.01 436.918 267.543 436.858 267.076 436.694 266.628 436.437 266.234 436.18 265.839 435.837 265.508 435.435 265.264L435.435 265.263Z" fill="#171717"/></g><g opacity="0.1"><path d="M662.599 329.3C670.062 330.349 676.439 326.35 681.342 320.959L670.473 319.559C677.52 330.072 686.389 338.816 697.631 344.816 702.956 347.668 708.576 349.93 714.393 351.561 719.993 353.116 728.413 355.68 732.381 349.881 735.75 344.957 731.6 340.096 726.689 338.581 720.946 336.814 715.131 335.95 709.595 333.431 698.526 328.386 688.835 320.75 681.342 311.168 679.224 308.439 673.668 308.492 671.555 311.168 668.364 315.208 664.03 317.104 660.261 320.444 657.507 322.884 658.669 328.744 662.599 329.297L662.599 329.3Z" fill="#171717"/></g><g opacity="0.1"><path d="M476.328 334.229C469.378 336.399 469.876 345.839 469.552 351.855 469.184 359.659 469.378 367.479 470.131 375.255 471.499 390.298 474.279 406.169 479.785 420.289 483.339 429.403 497.529 426.024 494.785 416.153 490.662 401.311 486.922 386.906 485.339 371.521 484.569 364.033 484.439 356.558 484.212 349.042 484.082 344.647 484.599 331.642 476.327 334.228L476.328 334.229Z" fill="#171717"/></g><g opacity="0.1"><path d="M554.687 495.161C557.32 499.743 561.719 500.814 566.631 501.549 571.89 502.337 577.158 503.002 582.459 503.421 592.959 504.25 603.476 504.562 614.003 504.448 624.372 504.336 624.403 488.21 614.003 488.323 603.803 488.434 593.613 488.144 583.443 487.371 578.532 486.997 573.623 486.592 568.715 486.156 563.695 485.704 559.336 485.525 555.456 489.197 554.698 489.973 554.213 490.975 554.074 492.051 553.936 493.126 554.15 494.218 554.687 495.161L554.687 495.161Z" fill="#171717"/></g><g opacity="0.1"><path d="M680.09 435.738C673.275 435.796 666.32 442.747 661.59 447.138 656.005 452.567 651.059 458.616 646.848 465.169 637.922 478.518 631.932 493.611 629.276 509.449 626.086 528.777 627.399 547.96 626.648 567.429 626.33 575.661 625.866 583.829 624.102 591.9 623.249 595.941 622.086 599.91 620.622 603.772 619.054 607.82 616.629 611.398 614.93 615.362 612.081 622.009 619.712 629.498 625.605 623.599 631.369 617.829 634.723 609.175 637.234 601.533 639.751 593.422 641.408 585.069 642.177 576.612 644.155 558.23 642.507 539.559 643.296 521.103 644.067 505.285 648.552 489.871 656.387 476.108 660.181 469.447 664.643 463.19 669.704 457.433 672.07 454.697 674.453 452.039 676.979 449.443 679.624 446.724 682.6 444.262 683.755 440.551 683.904 439.987 683.922 439.396 683.808 438.824 683.694 438.252 683.451 437.713 683.097 437.249 682.744 436.785 682.289 436.407 681.767 436.146 681.246 435.884 680.672 435.744 680.088 435.738L680.09 435.738Z" fill="#171717"/></g><g opacity="0.1"><path d="M726.79 529.723C727.323 534.388 727.671 538.323 729.79 542.661 731.601 546.374 733.79 549.929 735.706 553.595 739.461 560.795 743.22 568.059 746.277 575.595 752.619 591.223 756.386 608.125 754.137 625.023 749.459 660.171 724.431 688.005 701.737 713.37 694.921 720.989 706.106 732.277 713.006 724.64 738.365 696.575 765.006 666.134 770.34 627.216 772.885 608.642 769.604 590.192 762.711 572.869 759.208 563.996 755.064 555.389 750.311 547.117 747.963 543.053 745.684 538.792 742.98 534.952 740.185 530.982 736.965 528.786 733.064 526.125 730.612 524.453 726.433 526.632 726.786 529.725L726.79 529.723Z" fill="#171717"/></g><g opacity="0.1"><path d="M636.825 754.252C642.015 758.615 648.875 757.389 655.135 756.98 662.547 756.495 669.945 755.968 677.378 756.011 692.293 756.097 706.967 758.788 721.659 761.085 746.394 764.952 776.111 768.576 797.459 752.461 802.313 748.797 798.281 741.473 792.632 744.204 768.14 756.049 742.28 751.311 716.708 746.365 702.718 743.659 688.749 741.965 674.473 742.425 667.392 742.652 660.327 743.237 653.305 744.178 647.119 745.009 640.343 745.5 636.397 750.958 636.094 751.477 635.971 752.081 636.048 752.677 636.125 753.274 636.398 753.827 636.823 754.252L636.825 754.252Z" fill="#171717"/></g></g></svg>