<svg width="157.17" height="155.78" viewBox="0 0 157.17 155.78" xmlns="http://www.w3.org/2000/svg" xmlns:xlink="http://www.w3.org/1999/xlink" overflow="hidden"><style>
.MsftOfcThm_Background1_Fill {
 fill:#FFFFFF; 
}
</style>
<defs></defs><path d="M89.21 155.78 8.68 16.28C7.38 14.06 4.56 13.3 2.34 14.56 0.12 15.86-0.67 18.68 0.62 20.9L78.48 155.78 89.21 155.78Z" class="MsftOfcThm_Background1_Fill" stroke-dashoffset="1" fill="#FFFFFF"/><path d="M110.43 155.78 55.37 60.4C54.1 58.18 51.25 57.42 49.03 58.69 46.81 59.96 46.05 62.81 47.32 65.03L99.74 155.79 110.43 155.79Z" class="MsftOfcThm_Background1_Fill" stroke-dashoffset="1" fill="#FFFFFF"/><path d="M134.55 155.78 45.94 2.33C44.67 0.12 41.84-0.65 39.63 0.62 37.38 1.89 36.62 4.74 37.91 6.96L123.83 155.79 134.55 155.79Z" class="MsftOfcThm_Background1_Fill" stroke-dashoffset="1" fill="#FFFFFF"/><path d="M157.17 155.78 102.32 60.77C101.05 58.55 98.19 57.78 95.98 59.05 93.76 60.35 92.99 63.18 94.26 65.39L146.44 155.78 157.17 155.78Z" class="MsftOfcThm_Background1_Fill" stroke-dashoffset="1" fill="#FFFFFF"/></svg>