<svg width="123.98" height="78.14" viewBox="0 0 123.98 78.14" xmlns="http://www.w3.org/2000/svg" xmlns:xlink="http://www.w3.org/1999/xlink" overflow="hidden"><style>
.MsftOfcThm_Text1_Fill {
 fill:#151D30; 
}
</style>
<defs></defs><g><g><path d="M76.43 53.67C57.24 56.8 33.7 58.29 15.88 49.09 0.87 41.34-4.83 21.29 11.01 11.32 24.55 2.81 42.88 1.89 58.4 1.49 72.27 1.13 87.09 1.09 100.73 4.02 106.7 5.3 113.06 7.43 117.39 11.94 122.64 17.41 123.56 25.31 122.13 32.5 118.89 48.8 101.71 50.83 88.21 52.71 88 52.74 87.83 52.96 87.77 53.15 86.02 59.04 84.53 66.44 79.97 70.88 75.93 74.81 69.93 75.64 64.68 76.92 64.84 77.3 65 77.68 65.16 78.06 74.6 73.54 77.6 64.18 77.22 54.27 77.19 53.47 75.94 53.46 75.97 54.27 76.33 63.74 73.58 72.64 64.53 76.98 63.87 77.29 64.35 78.28 65.01 78.12 71.13 76.63 77.96 75.58 82.13 70.36 83.89 68.15 85.03 65.41 86.02 62.78 86.72 60.93 87.04 58.74 87.92 57 88.82 55.23 89.36 54.19 91.56 53.51 92.62 53.19 94.14 53.22 95.25 53.09 107.48 51.63 120.57 46.19 123.33 32.84 125.77 21.01 121.17 10.45 109.98 5.58 101.45 1.87 91.85 1.27 82.68 0.71 62.85-0.51 41.58-0.77 22.38 5.04 15.12 7.24 7.22 10.68 2.9 17.26-1.5 23.97-0.55 32.96 3.45 39.64 9.99 50.59 23.92 54.46 35.75 56.03 49.33 57.83 63.28 57.07 76.77 54.87 77.56 54.74 77.22 53.54 76.43 53.67L76.43 53.67Z" class="st0 MsftOfcThm_Text1_Fill" stroke-dashoffset="1" fill="#151D30"/></g></g><g><g><path d="M76.43 53.67C57.24 56.8 33.7 58.29 15.88 49.09 0.87 41.34-4.83 21.29 11.01 11.32 24.55 2.81 42.88 1.89 58.4 1.49 72.27 1.13 87.09 1.09 100.73 4.02 106.7 5.3 113.06 7.43 117.39 11.94 122.64 17.41 123.56 25.31 122.13 32.5 118.89 48.8 101.71 50.83 88.21 52.71 88 52.74 87.83 52.96 87.77 53.15 86.02 59.04 84.53 66.44 79.97 70.88 75.93 74.81 69.93 75.64 64.68 76.92 64.84 77.3 65 77.68 65.16 78.06 74.6 73.54 77.6 64.18 77.22 54.27 77.19 53.47 75.94 53.46 75.97 54.27 76.33 63.74 73.58 72.64 64.53 76.98 63.87 77.29 64.35 78.28 65.01 78.12 71.13 76.63 77.96 75.58 82.13 70.36 83.89 68.15 85.03 65.41 86.02 62.78 86.72 60.93 87.04 58.74 87.92 57 88.82 55.23 89.36 54.19 91.56 53.51 92.62 53.19 94.14 53.22 95.25 53.09 107.48 51.63 120.57 46.19 123.33 32.84 125.77 21.01 121.17 10.45 109.98 5.58 101.45 1.87 91.85 1.27 82.68 0.71 62.85-0.51 41.58-0.77 22.38 5.04 15.12 7.24 7.22 10.68 2.9 17.26-1.5 23.97-0.55 32.96 3.45 39.64 9.99 50.59 23.92 54.46 35.75 56.03 49.33 57.83 63.28 57.07 76.77 54.87 77.56 54.74 77.22 53.54 76.43 53.67L76.43 53.67Z" class="st0 MsftOfcThm_Text1_Fill" stroke-dashoffset="1" fill="#151D30"/></g></g><g><g><path d="M86.31 1.45C85.52 2.49 84.6 3.41 83.81 4.45 83.32 5.09 84.41 5.71 84.89 5.08 85.68 4.04 86.6 3.12 87.39 2.08 87.88 1.45 86.79 0.82 86.31 1.45L86.31 1.45Z" class="st0 MsftOfcThm_Text1_Fill" stroke-dashoffset="1" fill="#151D30"/></g></g><g><g><path d="M99.16 3.33C97.45 5.3 95.87 7.36 94.16 9.33 93.63 9.93 94.52 10.82 95.04 10.21 96.75 8.24 98.33 6.18 100.04 4.21 100.57 3.61 99.68 2.72 99.16 3.33L99.16 3.33Z" class="st0 MsftOfcThm_Text1_Fill" stroke-dashoffset="1" fill="#151D30"/></g></g><g><g><path d="M109.66 6.33C108.46 7.3 107.36 8.36 106.16 9.33 105.53 9.84 106.42 10.72 107.04 10.21 108.24 9.24 109.34 8.18 110.54 7.21 111.17 6.71 110.28 5.83 109.66 6.33L109.66 6.33Z" class="st0 MsftOfcThm_Text1_Fill" stroke-dashoffset="1" fill="#151D30"/></g></g><g><g><path d="M111.41 15.56C113.41 14.55 115.36 13.46 117.41 12.56 118.15 12.24 117.51 11.16 116.78 11.48 114.73 12.38 112.78 13.47 110.78 14.48 110.06 14.84 110.7 15.92 111.41 15.56L111.41 15.56Z" class="st0 MsftOfcThm_Text1_Fill" stroke-dashoffset="1" fill="#151D30"/></g></g><g><g><path d="M119.1 18.64C120.02 18.64 120.93 18.64 121.85 18.64 122.65 18.64 122.66 17.39 121.85 17.39 120.93 17.39 120.02 17.39 119.1 17.39 118.29 17.39 118.29 18.64 119.1 18.64L119.1 18.64Z" class="st0 MsftOfcThm_Text1_Fill" stroke-dashoffset="1" fill="#151D30"/></g></g><g><g><path d="M116.35 25.89C118.44 26.08 120.63 25.62 122.68 26.12 123.46 26.31 123.79 25.1 123.01 24.91 120.83 24.38 118.56 24.84 116.34 24.64 115.55 24.57 115.55 25.82 116.35 25.89L116.35 25.89Z" class="st0 MsftOfcThm_Text1_Fill" stroke-dashoffset="1" fill="#151D30"/></g></g><g><g><path d="M118.85 31.89C119.97 31.89 121.08 31.91 122.18 32.12 122.97 32.27 123.3 31.06 122.51 30.91 121.29 30.68 120.08 30.64 118.84 30.64 118.04 30.64 118.04 31.89 118.85 31.89L118.85 31.89Z" class="st0 MsftOfcThm_Text1_Fill" stroke-dashoffset="1" fill="#151D30"/></g></g><g><g><path d="M115.16 36.96C116.31 38.08 117.67 38.98 119.04 39.81 119.73 40.23 120.36 39.15 119.67 38.73 118.39 37.96 117.12 37.13 116.05 36.08 115.46 35.52 114.58 36.4 115.16 36.96L115.16 36.96Z" class="st0 MsftOfcThm_Text1_Fill" stroke-dashoffset="1" fill="#151D30"/></g></g><g><g><path d="M112.06 43.83C112.51 44.73 112.86 45.68 113.31 46.58 113.67 47.3 114.74 46.67 114.39 45.95 113.94 45.05 113.59 44.1 113.14 43.2 112.78 42.48 111.7 43.11 112.06 43.83L112.06 43.83Z" class="st0 MsftOfcThm_Text1_Fill" stroke-dashoffset="1" fill="#151D30"/></g></g><g><g><path d="M10.5 23.6C4.58 50.27 45.32 50.13 61.98 50.14 62.78 50.14 62.79 48.89 61.98 48.89 46.21 48.87 6.06 49.34 11.7 23.93 11.88 23.15 10.68 22.82 10.5 23.6L10.5 23.6Z" class="st0 MsftOfcThm_Text1_Fill" stroke-dashoffset="1" fill="#151D30"/></g></g></svg>