<svg width="960" height="960" viewBox="0 0 960 960" xmlns="http://www.w3.org/2000/svg" xmlns:xlink="http://www.w3.org/1999/xlink" fill="none" overflow="hidden"><defs><linearGradient x1="553.068" y1="261.1" x2="553.068" y2="314.69" gradientUnits="userSpaceOnUse" id="paint0_linear_348_1263"><stop offset="0" stop-color="#FFB800"/><stop offset="1" stop-color="#FF7F0A"/></linearGradient><linearGradient x1="233.489" y1="160.394" x2="233.489" y2="208.9" gradientUnits="userSpaceOnUse" id="paint1_linear_348_1263"><stop offset="0" stop-color="#FFB800"/><stop offset="1" stop-color="#FF7F0A"/></linearGradient><linearGradient x1="421.258" y1="74.3604" x2="421.258" y2="230.957" gradientUnits="userSpaceOnUse" id="paint2_linear_348_1263"><stop offset="0" stop-color="#FFB800"/><stop offset="1" stop-color="#FF7F0A"/></linearGradient><linearGradient x1="609.238" y1="661.352" x2="609.238" y2="744.057" gradientUnits="userSpaceOnUse" id="paint3_linear_348_1263"><stop offset="0" stop-color="#FFB800"/><stop offset="1" stop-color="#FF7F0A"/></linearGradient><linearGradient x1="574.783" y1="507.148" x2="574.783" y2="588.435" gradientUnits="userSpaceOnUse" id="paint4_linear_348_1263"><stop offset="0" stop-color="#FFB800"/><stop offset="1" stop-color="#FF7F0A"/></linearGradient><linearGradient x1="577.135" y1="348.389" x2="577.135" y2="432.944" gradientUnits="userSpaceOnUse" id="paint5_linear_348_1263"><stop offset="0" stop-color="#FFB800"/><stop offset="1" stop-color="#FF7F0A"/></linearGradient><linearGradient x1="425.65" y1="480.323" x2="425.65" y2="582.782" gradientUnits="userSpaceOnUse" id="paint6_linear_348_1263"><stop offset="0" stop-color="#FFB800"/><stop offset="1" stop-color="#FF7F0A"/></linearGradient><linearGradient x1="430.895" y1="661.142" x2="430.895" y2="736.67" gradientUnits="userSpaceOnUse" id="paint7_linear_348_1263"><stop offset="0" stop-color="#FFB800"/><stop offset="1" stop-color="#FF7F0A"/></linearGradient><linearGradient x1="363.06" y1="387.914" x2="363.06" y2="456.3" gradientUnits="userSpaceOnUse" id="paint8_linear_348_1263"><stop offset="0" stop-color="#FFB800"/><stop offset="1" stop-color="#FF7F0A"/></linearGradient><linearGradient x1="338.187" y1="142.293" x2="338.187" y2="215.919" gradientUnits="userSpaceOnUse" id="paint9_linear_348_1263"><stop offset="0" stop-color="#FFB800"/><stop offset="1" stop-color="#FF7F0A"/></linearGradient><clipPath id="clip0_348_1263"><rect x="0" y="0" width="856" height="885" fill="#FFFFFF" transform="translate(52 38)"/></clipPath></defs><g clip-path="url(#clip0_348_1263)"><path d="M584.1 298.33 649.149 287.43 586.888 277.579 482.862 261.1C482.862 261.1 456.986 263.881 456.986 287.898 456.986 311.915 486.552 314.69 486.552 314.69L584.1 298.33ZM486.935 268.835C485.864 268.666 484.859 269.398 484.69 270.469 484.522 271.54 485.253 272.545 486.325 272.714L583.116 287.945C584.187 288.114 585.192 287.382 585.361 286.311 585.529 285.239 584.797 284.234 583.726 284.066L486.935 268.835Z" fill="url(#paint0_linear_348_1263)" fill-rule="evenodd" clip-rule="evenodd"/><path d="M279.913 200.131 278.526 160.394 273.448 160.447 272.06 160.46 192.064 161.271 187.065 161.324 195.834 208.9 206.2 207.814 272.453 200.903 279.913 200.131ZM270.415 171.245C270.278 170.17 269.296 169.408 268.22 169.544 267.144 169.681 266.383 170.663 266.519 171.739L269.212 192.998C269.348 194.074 270.331 194.835 271.407 194.699 272.482 194.563 273.244 193.58 273.108 192.504L270.415 171.245Z" fill="url(#paint1_linear_348_1263)" fill-rule="evenodd" clip-rule="evenodd"/><path d="M507.491 193.351 504.899 185.563 470.525 82.4746C359.056 49.8326 335.025 126.217 335.025 126.217L342.394 142.289 346.779 151.831 369.068 200.389 374.356 211.919 377.235 218.219 383.073 230.928C383.073 230.928 470.529 233.388 507.491 193.351ZM479.688 159.678C481.451 162.319 482.392 165.424 482.39 168.6 482.389 172.855 480.698 176.935 477.689 179.944 474.68 182.953 470.6 184.644 466.344 184.646 463.169 184.647 460.064 183.706 457.423 181.943 454.782 180.18 452.724 177.673 451.508 174.739 450.292 171.805 449.973 168.577 450.592 165.463 451.212 162.348 452.741 159.487 454.986 157.241 457.232 154.996 460.093 153.467 463.207 152.848 466.322 152.229 469.55 152.547 472.484 153.763 475.417 154.979 477.924 157.037 479.688 159.678ZM428.497 111.99C430.807 115.447 432.04 119.511 432.039 123.669 432.04 126.429 431.496 129.162 430.44 131.713 429.384 134.263 427.836 136.58 425.884 138.532 423.932 140.484 421.615 142.032 419.064 143.088 416.514 144.145 413.781 144.688 411.02 144.688 406.863 144.688 402.799 143.455 399.342 141.145 395.885 138.836 393.191 135.553 391.6 131.712 390.009 127.871 389.592 123.645 390.403 119.567 391.214 115.489 393.216 111.744 396.156 108.804 399.096 105.864 402.841 103.862 406.919 103.051 410.996 102.24 415.223 102.657 419.064 104.248 422.905 105.839 426.188 108.533 428.497 111.99ZM408.718 179.515C409.62 180.863 410.102 182.447 410.103 184.069L410.099 184.071C410.1 185.148 409.888 186.215 409.476 187.211 409.065 188.206 408.46 189.111 407.699 189.873 406.937 190.635 406.033 191.239 405.037 191.651 404.042 192.064 402.975 192.276 401.897 192.276 400.276 192.274 398.692 191.793 397.344 190.891 395.997 189.99 394.946 188.709 394.327 187.211 393.707 185.713 393.545 184.065 393.861 182.475 394.178 180.885 394.958 179.424 396.105 178.278 397.251 177.131 398.712 176.35 400.302 176.034 401.892 175.717 403.54 175.879 405.038 176.498 406.536 177.118 407.817 178.168 408.718 179.515ZM465.262 94.1074C464.873 93.0953 463.737 92.5906 462.725 92.98 461.713 93.3694 461.208 94.5055 461.597 95.5176 473.332 126.016 483.529 157.085 492.15 188.605 492.436 189.651 493.516 190.268 494.562 189.981 495.608 189.695 496.224 188.615 495.938 187.569 487.282 155.922 477.044 124.729 465.262 94.1074Z" fill="url(#paint2_linear_348_1263)" fill-rule="evenodd" clip-rule="evenodd"/><path d="M646.885 661.352C651.539 688.684 652.117 716.555 648.6 744.057L646.846 743.834 567.609 740.615C572.451 719.515 575.121 695.748 571.365 673.576L645.458 661.6 646.885 661.352Z" fill="url(#paint3_linear_348_1263)"/><path d="M646.846 743.834 648.6 744.057C645.864 765.784 641.101 787.207 634.372 808.046L545.072 804.346C554.914 784.001 562.472 762.628 567.61 740.619L646.846 743.834Z" fill="#171717"/><path d="M646.886 661.352 645.459 661.6 571.366 673.576C569.95 664.808 567.343 656.274 563.618 648.211 559.652 639.769 556.192 631.685 553.239 623.958 548.735 612.388 545.039 600.519 542.179 588.436L611.273 569.223 612.843 567.823C615.33 572.548 618.183 577.98 621.193 584.105 623.641 589.105 626.18 594.563 628.719 600.492 637.114 620.006 643.21 640.43 646.886 661.352L646.886 661.352Z" fill="#171717"/><path d="M611.273 569.222 542.179 588.435C536.224 562.978 535.753 541.553 537.873 522.418L589.101 507.318 590.619 507.148C593.355 532.526 601.875 546.962 612.202 566.608 612.411 567.001 612.621 567.408 612.843 567.825L611.273 569.222Z" fill="url(#paint4_linear_348_1263)"/><path d="M599.741 370.476C601.521 381.287 601.324 394.009 598.654 408.929 597.45 415.657 596.372 422.035 595.421 428.065L594.178 427.865 557.688 432.944 557.4 432.904C560.065 414.687 558.689 396.108 553.369 378.483L553.539 378.431 590.487 349.331 592.162 348.389C595.977 355.244 598.544 362.722 599.741 370.476L599.741 370.476Z" fill="url(#paint5_linear_348_1263)"/><path d="M594.179 427.868 595.422 428.068C589.716 464.401 588.63 488.68 590.622 507.148L589.104 507.318 537.876 522.418C541.619 488.61 553.438 461.949 557.404 432.906L557.692 432.946 594.179 427.868Z" fill="#171717"/><path d="M592.163 348.4 590.488 349.342 553.54 378.442 553.37 378.494C551.121 371.001 548.33 363.682 545.019 356.594L544.719 356.201C555.353 348.18 564.516 338.376 571.799 327.224L572.099 327.424C580.396 332.676 587.284 339.877 592.163 348.4Z" fill="#171717"/><path d="M483.084 636.091C482.731 644.284 482.273 652.713 481.736 661.247L480.087 661.147 402.015 662.076 401.19 661.867C404.855 646.881 407.59 632.484 408.742 619.827 409.619 610.142 409.58 601.477 408.323 594.318 407.614 590.393 406.572 586.535 405.208 582.787L405.708 582.617 480.999 557.666 482.229 557.417C483.326 562.669 483.949 568.009 484.088 573.372 484.419 590.112 484.131 612.1 483.084 636.091Z" fill="#171717"/><path d="M482.233 557.417 481.003 557.666 405.703 582.612 405.203 582.782C398.554 563.961 384.223 543.216 369.066 521.934L446.824 480.523 447.124 480.323C462.889 505.351 477.234 532.772 482.233 557.417Z" fill="url(#paint6_linear_348_1263)"/><path d="M480.088 661.142 481.737 661.242C480.127 686.607 477.693 712.902 474.303 736.67L472.693 736.435 380.773 731.356 380.053 731.095C387.736 709.302 395.563 684.866 401.191 661.857L402.016 662.066 480.088 661.142Z" fill="url(#paint7_linear_348_1263)"/><path d="M472.693 736.44 474.303 736.675C469.761 768.506 463.479 795.861 455.141 810.507L353.51 801.107 353.51 799.419C353.51 799.419 366.572 769.329 380.053 731.098L380.773 731.359 472.693 736.44Z" fill="#171717"/><path d="M447.13 480.326 446.83 480.526 369.072 521.937C353.55 500.145 337.15 477.764 327.242 456.299L407.565 424.638 408.165 424.193C418.82 438.876 433.505 458.7 447.13 480.326Z" fill="#171717"/><path d="M408.166 424.19 407.566 424.635 327.241 456.3C325.309 452.138 323.605 447.874 322.136 443.526 317.425 429.456 316.273 415.936 320.867 403.384 322.836 398.018 325.285 392.84 328.183 387.914L328.563 388.136 389.999 395.527 391.137 395.227C391.769 397.591 392.574 399.905 393.546 402.151 395.34 406.272 400.771 414 408.166 424.19Z" fill="url(#paint8_linear_348_1263)"/><path d="M392.553 365.816 392.134 366.497C388.05 376.811 388.993 387.334 391.134 395.226L389.996 395.526 328.559 388.131 328.179 387.909C337.917 371.273 352.419 357.557 369.133 346.589 375.971 354.094 383.859 360.57 392.553 365.816L392.553 365.816Z" fill="#171717"/><path d="M374.36 211.923 373.221 212.447C373.221 212.447 325.187 227.224 306.091 195.812 286.995 164.4 341.191 142.843 341.191 142.843L342.391 142.293 346.776 151.835 344.876 152.699C344.876 152.699 315.323 171.179 325.793 188.43 336.263 205.681 368.293 200.746 368.293 200.746L369.065 200.393 374.36 211.923Z" fill="url(#paint9_linear_348_1263)"/><path d="M297.007 49.9939 272.06 159.936 272.06 160.46 192.064 161.271 192.064 160.709 151.948 71.2499 185.206 85.5679 186.135 51.3819 208.307 72.1659 214.315 43.9869 234.183 65.6999 251.263 40.2959 267.898 69.8619 297.007 49.9939Z" fill="#171717"/><path d="M272.518 201.518C272.518 201.518 274.364 260.18 243.41 262.026 212.927 262.484 206.461 210.287 206.461 210.287L206.2 207.814 272.453 200.903 272.518 201.518Z" fill="#171717"/><path d="M630.094 599.954C695.182 637.845 737.694 700.368 737.694 771.084 737.694 820.231 717.158 865.425 682.788 901.13" stroke="#171717" stroke-width="3.927" stroke-linecap="round" stroke-linejoin="round"/><path d="M292.688 908.381C253.946 871.629 230.479 823.621 230.479 771.081 230.479 692.826 282.544 624.596 359.648 588.708" stroke="#171717" stroke-width="3.927" stroke-linecap="round" stroke-linejoin="round"/><path d="M408.246 619.783C390.485 612.122 374.142 601.525 359.9 588.436 331.067 561.723 313.79 525.9 313.79 486.53 313.79 483.69 313.882 480.868 314.065 478.062 314.83 466.413 317.173 454.922 321.028 443.902" stroke="#171717" stroke-width="3.927" stroke-linecap="round" stroke-linejoin="round"/><path d="M552.4 624.271C532.231 631.117 512.834 636.195 489.785 636.195 487.547 636.195 485.309 636.157 483.085 636.091L482.849 636.091" stroke="#171717" stroke-width="3.927" stroke-linecap="round" stroke-linejoin="round"/><path d="M600.735 370.332C618.646 382.537 633.86 398.288 645.435 416.612 658.665 437.538 665.72 461.773 665.788 486.53 665.788 524.748 650.252 557.011 622.517 583.463" stroke="#171717" stroke-width="3.927" stroke-linecap="round" stroke-linejoin="round"/><path d="M584.231 299.092C581.627 309.075 577.429 318.573 571.799 327.219 564.516 338.371 555.354 348.175 544.719 356.196 526.1 370.148 504.258 379.17 481.219 382.425 448.276 387.281 416.812 380.58 392.559 365.816 383.868 360.57 375.981 354.094 369.144 346.59 357.347 333.769 349.649 317.716 347.038 300.49 342.561 270.165 353.516 240.611 376.499 218.557" stroke="#171717" stroke-width="3.927" stroke-linecap="round" stroke-linejoin="round"/><path d="M505.648 185.314C548.448 195.3 580.174 225.495 586.037 265.244 586.621 269.188 586.927 273.169 586.953 277.155" stroke="#171717" stroke-width="3.927" stroke-linecap="round" stroke-linejoin="round"/><path d="M377.238 218.218 383.076 230.927C383.076 230.927 470.532 233.387 507.494 193.35L504.902 185.562 470.532 82.4785C359.059 49.8365 335.032 126.22 335.032 126.22L342.401 142.292 346.786 151.834 369.075 200.392 374.363 211.922 377.238 218.218Z" stroke="#171717" stroke-width="3.927" stroke-linecap="round" stroke-linejoin="round"/><path d="M341.193 142.843C341.193 142.843 286.993 164.4 306.093 195.812 325.193 227.224 373.223 212.447 373.223 212.447" stroke="#171717" stroke-width="3.927" stroke-linecap="round" stroke-linejoin="round"/><path d="M344.884 152.7C344.884 152.7 315.331 171.18 325.801 188.431 336.271 205.682 368.301 200.747 368.301 200.747" stroke="#171717" stroke-width="3.927" stroke-linecap="round" stroke-linejoin="round"/><path d="M584.099 298.333 486.551 314.693C486.551 314.693 456.985 311.918 456.985 287.901 456.985 263.884 482.862 261.1 482.862 261.1L586.888 277.579 649.149 287.434 584.099 298.333Z" stroke="#171717" stroke-width="3.927" stroke-linecap="round" stroke-linejoin="round"/><path d="M514.274 241.241 512.585 234.291 510.57 225.993" stroke="#171717" stroke-width="3.927" stroke-linecap="round" stroke-linejoin="round"/><path d="M503.646 235.692 512.586 234.291 521.198 232.93" stroke="#171717" stroke-width="3.927" stroke-linecap="round" stroke-linejoin="round"/><path d="M444.056 250.939 442.053 243.596 439.893 235.691" stroke="#171717" stroke-width="3.927" stroke-linecap="round" stroke-linejoin="round"/><path d="M433.886 246.778 442.053 243.597 450.521 240.312" stroke="#171717" stroke-width="3.927" stroke-linecap="round" stroke-linejoin="round"/><path d="M431.124 327.166C431.124 327.166 449.592 360.882 494.407 346.566" stroke="#171717" stroke-width="3.927" stroke-linecap="round" stroke-linejoin="round"/><path d="M545.019 356.589C548.33 363.677 551.121 370.996 553.37 378.489 558.69 396.114 560.066 414.694 557.401 432.91 553.435 461.953 541.616 488.61 537.873 522.422 535.753 541.557 536.224 562.982 542.179 588.439 545.039 600.521 548.735 612.39 553.239 623.961 556.21 631.694 559.67 639.779 563.618 648.214 567.344 656.277 569.95 664.81 571.366 673.579 575.122 695.751 572.452 719.519 567.61 740.618 562.472 762.627 554.913 783.999 545.072 804.345" stroke="#171717" stroke-width="3.927" stroke-linecap="round" stroke-linejoin="round"/><path d="M353.51 801.109 455.141 810.509C463.479 795.863 469.761 768.509 474.303 736.677 477.693 712.909 480.127 686.614 481.737 661.249 482.274 652.715 482.737 644.286 483.085 636.093 484.132 612.102 484.42 590.114 484.093 573.374 483.953 568.011 483.331 562.671 482.234 557.419 477.234 532.774 462.89 505.353 447.134 480.328 433.509 458.706 418.824 438.878 408.17 424.192 400.775 413.997 395.344 406.274 393.551 402.152 392.578 399.906 391.773 397.592 391.142 395.228 388.996 387.336 388.053 376.813 392.142 366.499" stroke="#171717" stroke-width="3.927" stroke-linecap="round" stroke-linejoin="round"/><path d="M369.529 346.328C369.399 346.419 369.268 346.498 369.137 346.59 352.423 357.558 337.921 371.274 328.183 387.91 325.285 392.836 322.836 398.014 320.867 403.38 316.273 415.932 317.425 429.452 322.136 443.522 323.605 447.87 325.309 452.134 327.241 456.296 337.149 477.761 353.549 500.142 369.071 521.934 384.228 543.216 398.559 563.961 405.208 582.782 406.572 586.531 407.614 590.388 408.323 594.313 409.58 601.472 409.623 610.137 408.742 619.822 407.59 632.479 404.855 646.876 401.19 661.862 395.562 684.871 387.735 709.307 380.052 731.1 366.571 769.331 353.509 799.421 353.509 799.421" stroke="#171717" stroke-width="3.927" stroke-linecap="round" stroke-linejoin="round"/><path d="M545.071 804.342 634.371 808.042C641.1 787.204 645.863 765.783 648.599 744.057 652.116 716.555 651.538 688.684 646.884 661.352 643.209 640.429 637.113 620.005 628.717 600.491 626.178 594.562 623.639 589.104 621.191 584.104 618.181 577.979 615.328 572.547 612.841 567.822 612.619 567.403 612.409 566.998 612.2 566.605 601.873 546.959 593.353 532.523 590.617 507.145 588.628 488.677 589.717 464.398 595.417 428.065 596.373 422.031 597.451 415.652 598.65 408.929 601.32 394.009 601.517 381.287 599.737 370.476 598.539 362.725 595.973 355.249 592.158 348.396 587.281 339.872 580.395 332.67 572.099 327.415" stroke="#171717" stroke-width="3.927" stroke-linecap="round" stroke-linejoin="round"/><path d="M128.089 920.292C128.089 920.292 153.651 918.041 195.429 915.017 222.064 913.08 255.282 910.842 292.702 908.696 406.714 902.112 559.534 896.248 682.735 902.096 723.099 903.996 760.297 907.174 791.892 911.978" stroke="#171717" stroke-width="3.927" stroke-linecap="round" stroke-linejoin="round"/><path d="M333.184 484.07 314.062 478.062 235.257 453.273 230.414 438.483 224.171 419.4" stroke="#171717" stroke-width="3.927" stroke-linecap="round" stroke-linejoin="round"/><path d="M198.295 434.177 229.55 450.328 235.257 453.273 228.831 460.079 203.23 487.145" stroke="#171717" stroke-width="3.927" stroke-linecap="round" stroke-linejoin="round"/><path d="M749.865 327.166 745.703 367.806 645.433 416.612 623.288 427.397" stroke="#171717" stroke-width="3.927" stroke-linecap="round" stroke-linejoin="round"/><path d="M775.728 341.485 745.703 367.806 778.961 383.983" stroke="#171717" stroke-width="3.927" stroke-linecap="round" stroke-linejoin="round"/><path d="M380.772 731.361 472.692 736.44" stroke="#171717" stroke-width="3.927" stroke-linecap="round" stroke-linejoin="round"/><path d="M402.016 662.071 480.088 661.142" stroke="#171717" stroke-width="3.927" stroke-linecap="round" stroke-linejoin="round"/><path d="M405.707 582.612 481.004 557.666" stroke="#171717" stroke-width="3.927" stroke-linecap="round" stroke-linejoin="round"/><path d="M368.758 522.104 369.072 521.933 446.83 480.522" stroke="#171717" stroke-width="3.927" stroke-linecap="round" stroke-linejoin="round"/><path d="M326.718 456.506 327.242 456.296 407.565 424.635" stroke="#171717" stroke-width="3.927" stroke-linecap="round" stroke-linejoin="round"/><path d="M328.563 388.132 390 395.527" stroke="#171717" stroke-width="3.927" stroke-linecap="round" stroke-linejoin="round"/><path d="M553.54 378.434 590.488 349.338" stroke="#171717" stroke-width="3.927" stroke-linecap="round" stroke-linejoin="round"/><path d="M557.688 432.947 594.178 427.868" stroke="#171717" stroke-width="3.927" stroke-linecap="round" stroke-linejoin="round"/><path d="M537.362 522.562 537.872 522.418 589.1 507.314" stroke="#171717" stroke-width="3.927" stroke-linecap="round" stroke-linejoin="round"/><path d="M541.524 588.62 542.178 588.436 611.272 569.223" stroke="#171717" stroke-width="3.927" stroke-linecap="round" stroke-linejoin="round"/><path d="M571.091 673.615 571.366 673.576 645.459 661.6" stroke="#171717" stroke-width="3.927" stroke-linecap="round" stroke-linejoin="round"/><path d="M567.387 740.602 567.61 740.615 646.847 743.834" stroke="#171717" stroke-width="3.927" stroke-linecap="round" stroke-linejoin="round"/><path d="M353.052 818.661 359.06 802.038" stroke="#171717" stroke-width="3.927" stroke-linecap="round" stroke-linejoin="round"/><path d="M377.541 826.905 383.077 804.734" stroke="#171717" stroke-width="3.927" stroke-linecap="round" stroke-linejoin="round"/><path d="M399.24 829.76 408.022 806.201" stroke="#171717" stroke-width="3.927" stroke-linecap="round" stroke-linejoin="round"/><path d="M424.658 834.838 431.123 809.433" stroke="#171717" stroke-width="3.927" stroke-linecap="round" stroke-linejoin="round"/><path d="M448.218 835.296 453.296 811.737" stroke="#171717" stroke-width="3.927" stroke-linecap="round" stroke-linejoin="round"/><path d="M542.912 819.59 549.378 805.729" stroke="#171717" stroke-width="3.927" stroke-linecap="round" stroke-linejoin="round"/><path d="M560.463 824.668 567.387 806.659" stroke="#171717" stroke-width="3.927" stroke-linecap="round" stroke-linejoin="round"/><path d="M580.332 822.823 587.255 806.659" stroke="#171717" stroke-width="3.927" stroke-linecap="round" stroke-linejoin="round"/><path d="M600.657 825.139 603.89 807.575" stroke="#171717" stroke-width="3.927" stroke-linecap="round" stroke-linejoin="round"/><path d="M621.441 825.598 625.59 808.046" stroke="#171717" stroke-width="3.927" stroke-linecap="round" stroke-linejoin="round"/><path d="M206.462 210.287C206.462 210.287 212.928 262.487 243.411 262.026L230.411 438.483 229.547 450.328 228.828 460.079 195.377 914.284" stroke="#171717" stroke-width="3.927" stroke-linecap="round" stroke-linejoin="round"/><path d="M272.518 201.518C272.518 201.518 274.364 260.18 243.41 262.026" stroke="#171717" stroke-width="3.927" stroke-linecap="round" stroke-linejoin="round"/><path d="M192.064 161.271 187.065 161.324 195.834 208.9 206.2 207.814 272.453 200.903 279.913 200.131 278.526 160.394 273.448 160.447 272.06 160.46 192.064 161.271Z" stroke="#171717" stroke-width="3.927" stroke-linecap="round" stroke-linejoin="round"/><path d="M192.064 160.709 151.948 71.2499 185.206 85.5679 186.135 51.3819 208.307 72.1659 214.315 43.9869 234.183 65.6999 251.263 40.2959 267.898 69.8619 297.007 49.9939 272.06 159.936" stroke="#171717" stroke-width="3.927" stroke-linecap="round" stroke-linejoin="round"/><path d="M432.04 123.669C432.043 127.827 430.812 131.892 428.504 135.351 426.196 138.809 422.914 141.506 419.073 143.098 415.232 144.691 411.005 145.109 406.927 144.3 402.848 143.49 399.102 141.489 396.161 138.55 393.22 135.61 391.217 131.865 390.405 127.787 389.593 123.709 390.008 119.482 391.599 115.64 393.19 111.799 395.884 108.515 399.341 106.205 402.798 103.895 406.863 102.662 411.021 102.662 416.594 102.662 421.938 104.875 425.88 108.814 429.821 112.753 432.037 118.097 432.04 123.669L432.04 123.669Z" stroke="#171717" stroke-width="3.927" stroke-linecap="round" stroke-linejoin="round"/><path d="M410.099 184.071C410.101 185.693 409.621 187.279 408.721 188.628 407.821 189.977 406.541 191.029 405.043 191.651 403.546 192.273 401.897 192.437 400.306 192.122 398.715 191.807 397.253 191.027 396.106 189.881 394.958 188.735 394.176 187.274 393.858 185.684 393.54 184.093 393.702 182.445 394.321 180.946 394.941 179.447 395.991 178.165 397.338 177.263 398.686 176.361 400.271 175.879 401.893 175.878 404.067 175.879 406.151 176.742 407.69 178.278 409.228 179.814 410.094 181.897 410.099 184.071Z" stroke="#171717" stroke-width="3.927" stroke-linecap="round" stroke-linejoin="round"/><path d="M482.39 168.6C482.389 171.775 481.446 174.878 479.681 177.517 477.916 180.157 475.408 182.213 472.474 183.427 469.54 184.64 466.312 184.957 463.199 184.336 460.085 183.715 457.225 182.185 454.981 179.939 452.737 177.693 451.209 174.832 450.591 171.718 449.973 168.604 450.293 165.376 451.509 162.443 452.725 159.511 454.784 157.004 457.424 155.242 460.065 153.479 463.169 152.539 466.344 152.54 468.453 152.54 470.54 152.956 472.488 153.763 474.435 154.57 476.205 155.754 477.695 157.245 479.185 158.737 480.367 160.507 481.172 162.455 481.978 164.404 482.392 166.492 482.39 168.6L482.39 168.6Z" stroke="#171717" stroke-width="3.927" stroke-linecap="round" stroke-linejoin="round"/><path d="M500.714 433.248C500.716 434.223 500.427 435.177 499.886 435.988 499.345 436.8 498.576 437.432 497.675 437.806 496.774 438.18 495.783 438.278 494.826 438.088 493.87 437.898 492.991 437.428 492.301 436.738 491.612 436.049 491.143 435.17 490.953 434.214 490.763 433.257 490.861 432.266 491.235 431.365 491.609 430.464 492.242 429.695 493.053 429.154 493.864 428.613 494.818 428.325 495.793 428.326 497.098 428.328 498.349 428.847 499.272 429.77 500.194 430.692 500.713 431.943 500.714 433.248L500.714 433.248Z" stroke="#171717" stroke-width="3.927" stroke-linecap="round" stroke-linejoin="round"/><path d="M513.659 493C513.66 493.975 513.372 494.928 512.832 495.739 512.292 496.55 511.523 497.183 510.623 497.557 509.723 497.932 508.732 498.031 507.776 497.842 506.82 497.653 505.941 497.185 505.251 496.496 504.561 495.808 504.09 494.93 503.899 493.975 503.707 493.019 503.804 492.028 504.175 491.127 504.547 490.226 505.178 489.456 505.988 488.913 506.798 488.37 507.75 488.08 508.725 488.079 510.031 488.08 511.283 488.598 512.208 489.521 513.133 490.443 513.655 491.694 513.659 493L513.659 493Z" stroke="#171717" stroke-width="3.927" stroke-linecap="round" stroke-linejoin="round"/><path d="M526.277 573.842C526.274 574.603 526.047 575.346 525.622 575.977 525.198 576.608 524.596 577.099 523.893 577.388 523.189 577.677 522.416 577.752 521.67 577.602 520.925 577.452 520.24 577.084 519.704 576.546 519.167 576.007 518.801 575.321 518.654 574.575 518.507 573.829 518.584 573.056 518.875 572.354 519.167 571.652 519.66 571.051 520.293 570.629 520.925 570.207 521.669 569.981 522.429 569.981 522.936 569.981 523.437 570.081 523.905 570.275 524.373 570.469 524.798 570.754 525.155 571.112 525.513 571.471 525.796 571.897 525.988 572.366 526.181 572.834 526.279 573.336 526.277 573.842L526.277 573.842Z" stroke="#171717" stroke-width="3.927" stroke-linecap="round" stroke-linejoin="round"/><path d="M525.975 707.959C525.974 709.177 525.612 710.367 524.935 711.379 524.258 712.391 523.296 713.179 522.171 713.645 521.046 714.111 519.808 714.232 518.614 713.994 517.42 713.757 516.323 713.17 515.461 712.309 514.6 711.448 514.014 710.352 513.776 709.157 513.538 707.963 513.659 706.725 514.125 705.6 514.59 704.475 515.379 703.513 516.391 702.836 517.403 702.158 518.593 701.796 519.81 701.795 520.62 701.794 521.422 701.952 522.171 702.262 522.919 702.571 523.599 703.025 524.172 703.598 524.745 704.17 525.199 704.85 525.508 705.599 525.818 706.347 525.976 707.149 525.975 707.959L525.975 707.959Z" stroke="#171717" stroke-width="3.927" stroke-linecap="round" stroke-linejoin="round"/><path d="M522.887 792.34C522.886 793.436 522.559 794.508 521.949 795.419 521.339 796.329 520.473 797.039 519.459 797.457 518.446 797.876 517.331 797.984 516.256 797.769 515.181 797.554 514.194 797.025 513.42 796.249 512.646 795.473 512.119 794.485 511.906 793.409 511.693 792.334 511.804 791.22 512.225 790.207 512.646 789.195 513.357 788.33 514.269 787.722 515.181 787.114 516.253 786.79 517.35 786.791 518.078 786.79 518.8 786.933 519.473 787.212 520.146 787.49 520.757 787.899 521.271 788.415 521.786 788.931 522.193 789.543 522.471 790.216 522.748 790.89 522.889 791.612 522.887 792.34L522.887 792.34Z" stroke="#171717" stroke-width="3.927" stroke-linecap="round" stroke-linejoin="round"/><path d="M507.495 877.021C510.725 877.021 513.344 874.402 513.344 871.171 513.344 867.94 510.725 865.321 507.495 865.321 504.264 865.321 501.645 867.94 501.645 871.171 501.645 874.402 504.264 877.021 507.495 877.021Z" stroke="#171717" stroke-width="3.927" stroke-linecap="round" stroke-linejoin="round"/><path d="M137.942 126.391C128.152 134.665 124.942 149.803 130.542 161.335 135.893 172.364 147.357 178.757 157.002 186.322 166.647 193.887 175.577 205.514 172.442 217.364 171.282 221.368 168.85 224.887 165.515 227.388 162.179 229.889 158.12 231.236 153.951 231.228 149.331 231.11 144.498 228.935 142.419 224.807 140.34 220.679 142.144 214.694 146.574 213.376 151.004 212.058 156.038 217.562 153.594 221.485" stroke="#171717" stroke-width="3.927" stroke-linecap="round" stroke-linejoin="round"/><path d="M331.764 240.937C316.916 242.813 301.382 233.468 296.083 219.472" stroke="#171717" stroke-width="3.927" stroke-linecap="round" stroke-linejoin="round"/><path d="M173.574 490.377C148.992 516.342 133.943 549.876 130.884 585.501 129.884 597.586 130.413 610.258 135.97 621.035 141.527 631.812 153.16 640.164 165.204 638.757 177.248 637.35 187.212 623.689 182.392 612.562 177.439 601.13 160.414 599.24 150.425 606.687 140.436 614.134 136.632 627.463 136.363 639.919 135.521 678.858 162.494 715.071 158.64 753.827 157.246 767.848 150.396 782.742 137.218 787.727 124.04 792.712 106.026 781.173 109.399 767.492" stroke="#171717" stroke-width="3.927" stroke-linecap="round" stroke-linejoin="round"/><path d="M734.323 65.7178C728.261 85.6178 722.128 106.27 724.901 126.884 727.674 147.498 741.976 168.112 762.546 171.193 768.975 172.156 776.188 171.093 780.679 166.393 785.17 161.693 785.218 152.773 779.631 149.451 773.9 146.043 765.816 150.831 764.443 157.356 763.07 163.881 766.965 170.617 772.367 174.525 777.769 178.433 784.439 180.082 790.943 181.552 799.595 183.507 808.41 185.333 816.281 189.424 824.152 193.515 831.111 200.279 833.224 208.895 835.337 217.511 831.341 227.845 823.059 231.023 814.777 234.201 803.806 227.301 804.705 218.476" stroke="#171717" stroke-width="3.927" stroke-linecap="round" stroke-linejoin="round"/><path d="M766.561 435.264C757.561 446.255 750.071 458.981 747.911 473.024 745.751 487.067 749.654 502.568 760.323 511.951 770.992 521.334 788.786 522.664 799.192 512.99 805.128 507.471 807.708 497.117 801.934 491.429 795.375 484.968 782.878 490.374 780.397 499.241 777.916 508.108 782.863 517.557 789.633 523.797 796.403 530.037 804.887 534.055 812.366 539.424 824.112 547.891 833.191 559.541 838.532 573 841.573 580.708 843.338 589.141 841.965 597.314 840.592 605.487 835.699 613.34 828.199 616.85 820.699 620.36 810.651 618.572 805.861 611.809 801.071 605.046 803.569 593.926 811.295 590.926" stroke="#171717" stroke-width="3.927" stroke-linecap="round" stroke-linejoin="round"/><path d="M668.1 568.785C677.49 555.606 683.948 540.569 687.04 524.685 690.133 508.801 689.787 492.439 686.027 476.7" stroke="#171717" stroke-width="3.927" stroke-linecap="round" stroke-linejoin="round"/><path d="M170.584 326.698 194.605 375.664" stroke="#171717" stroke-width="3.927" stroke-linecap="round" stroke-linejoin="round"/><path d="M159.497 370.12 208.463 341.479" stroke="#171717" stroke-width="3.927" stroke-linecap="round" stroke-linejoin="round"/><path d="M186.29 337.785 181.67 373.816" stroke="#171717" stroke-width="3.927" stroke-linecap="round" stroke-linejoin="round"/><path d="M160.421 350.719 204.768 360.882" stroke="#171717" stroke-width="3.927" stroke-linecap="round" stroke-linejoin="round"/><path d="M102.215 592.777 77.2715 613.103" stroke="#171717" stroke-width="3.927" stroke-linecap="round" stroke-linejoin="round"/><path d="M80.9668 591.853 98.5208 613.103" stroke="#171717" stroke-width="3.927" stroke-linecap="round" stroke-linejoin="round"/><path d="M169.659 700.872 182.593 718.425" stroke="#171717" stroke-width="3.927" stroke-linecap="round" stroke-linejoin="round"/><path d="M168.735 717.501 184.441 701.795" stroke="#171717" stroke-width="3.927" stroke-linecap="round" stroke-linejoin="round"/><path d="M647.308 195.507 631.602 224.147" stroke="#171717" stroke-width="3.927" stroke-linecap="round" stroke-linejoin="round"/><path d="M624.211 202.897 655.623 218.603" stroke="#171717" stroke-width="3.927" stroke-linecap="round" stroke-linejoin="round"/><path d="M595.57 110.509 596.494 68.0107" stroke="#171717" stroke-width="3.927" stroke-linecap="round" stroke-linejoin="round"/><path d="M579.864 89.2598 618.667 93.8788" stroke="#171717" stroke-width="3.927" stroke-linecap="round" stroke-linejoin="round"/><path d="M611.277 78.1729 582.636 103.118" stroke="#171717" stroke-width="3.927" stroke-linecap="round" stroke-linejoin="round"/><path d="M582.636 71.7061 606.657 104.042" stroke="#171717" stroke-width="3.927" stroke-linecap="round" stroke-linejoin="round"/><path d="M695.35 221.375 745.24 256.483" stroke="#171717" stroke-width="3.927" stroke-linecap="round" stroke-linejoin="round"/><path d="M707.36 257.407 733.229 213.984" stroke="#171717" stroke-width="3.927" stroke-linecap="round" stroke-linejoin="round"/><path d="M722.143 587.234C727.686 587.234 763.718 592.777 763.718 592.777" stroke="#171717" stroke-width="3.927" stroke-linecap="round" stroke-linejoin="round"/><path d="M739.696 608.483 746.163 567.832" stroke="#171717" stroke-width="3.927" stroke-linecap="round" stroke-linejoin="round"/><path d="M730.458 569.68 756.327 605.711" stroke="#171717" stroke-width="3.927" stroke-linecap="round" stroke-linejoin="round"/><path d="M726.762 601.092 757.251 577.071" stroke="#171717" stroke-width="3.927" stroke-linecap="round" stroke-linejoin="round"/><path d="M876.432 577.071 905.996 597.396" stroke="#171717" stroke-width="3.927" stroke-linecap="round" stroke-linejoin="round"/><path d="M884.747 600.168 897.681 577.995" stroke="#171717" stroke-width="3.927" stroke-linecap="round" stroke-linejoin="round"/><path d="M701.816 249.092 713.596 248.168C713.596 248.168 716.137 257.868 716.83 258.1" stroke="#171717" stroke-width="3.927" stroke-linecap="round" stroke-linejoin="round"/><path d="M708.516 213.061 709.901 232.231 692.81 229.459" stroke="#171717" stroke-width="3.927" stroke-linecap="round" stroke-linejoin="round"/><path d="M744.547 220.22 727.455 223.684 721.681 210.981" stroke="#171717" stroke-width="3.927" stroke-linecap="round" stroke-linejoin="round"/><path d="M735.769 260.641 732.074 246.32 748.011 244.704" stroke="#171717" stroke-width="3.927" stroke-linecap="round" stroke-linejoin="round"/><path d="M92.7871 400.424 81.2061 465.466" stroke="#171717" stroke-width="3.927" stroke-linecap="round" stroke-linejoin="round"/><path d="M54.1826 430.173 120.223 433.679" stroke="#171717" stroke-width="3.927" stroke-linecap="round" stroke-linejoin="round"/><path d="M67.2764 447.788 102.975 421.377" stroke="#171717" stroke-width="3.927" stroke-linecap="round" stroke-linejoin="round"/><path d="M71.5078 410.653 100.374 451.519" stroke="#171717" stroke-width="3.927" stroke-linecap="round" stroke-linejoin="round"/><path d="M75.8975 400.506 90.7625 410.945 104.086 400.697" stroke="#171717" stroke-width="3.927" stroke-linecap="round" stroke-linejoin="round"/><path d="M117.604 420.414 107.538 432.913 119.475 447.853" stroke="#171717" stroke-width="3.927" stroke-linecap="round" stroke-linejoin="round"/><path d="M57.0156 439.767 67.9906 430.635 57.3696 419.675" stroke="#171717" stroke-width="3.927" stroke-linecap="round" stroke-linejoin="round"/><path d="M71.0742 462.565 83.1502 454.292 95.0142 465.928" stroke="#171717" stroke-width="3.927" stroke-linecap="round" stroke-linejoin="round"/><g opacity="0.1"><path d="M334.729 123.681C334.529 128.081 336.881 132.775 338.77 136.69 340.808 140.913 343.01 145.071 345.154 149.24 349.154 157.026 352.995 164.892 356.678 172.84 364.26 189.22 371.096 205.91 377.184 222.911 378.684 227.069 382.851 230.126 387.446 228.737 388.129 228.505 388.795 228.224 389.438 227.896 392.518 226.434 394.448 221.696 393.272 218.475 386.805 200.774 379.605 183.363 371.672 166.241 367.718 157.736 363.579 149.322 359.253 141 357.243 137.132 355.2 133.222 352.904 129.516 350.486 125.616 347.655 120.852 343.546 118.622 342.652 118.123 341.644 117.864 340.621 117.87 339.598 117.876 338.593 118.147 337.705 118.657 336.818 119.166 336.077 119.897 335.555 120.777 335.034 121.658 334.749 122.658 334.729 123.682L334.729 123.681Z" fill="#171717"/></g><g opacity="0.1"><path d="M374.606 220.681C367.161 223.532 361.95 230.366 357.727 236.894 353.402 243.628 350.151 250.995 348.092 258.73 343.973 274.875 344.504 291.856 349.624 307.713 354.87 323.857 363.75 338.582 375.581 350.754 381.438 356.797 388.038 362.072 395.222 366.454 400.576 369.791 409.647 376.375 415.983 373.184 416.513 372.885 416.953 372.448 417.255 371.92 417.558 371.392 417.712 370.792 417.701 370.184 417.222 364.025 409.441 359.984 405.067 356.39 399.536 351.841 394.333 346.817 389.233 341.79 378.997 331.71 370.502 319.535 365.623 305.954 360.834 292.625 359.123 278.186 362.323 264.283 363.78 257.731 366.205 251.433 369.517 245.596 372.863 239.787 378.131 235.108 381.166 229.211 383.266 225.14 379.687 218.725 374.602 220.673L374.606 220.681Z" fill="#171717"/></g><g opacity="0.1"><path d="M319.029 449.422C313.464 455.534 313.181 467.506 312.869 475.396 312.608 484.331 313.191 493.27 314.609 502.096 317.314 520.405 323.271 538.084 332.2 554.296 340.252 568.501 350.335 581.453 362.131 592.743 368.034 598.432 374.34 603.688 381 608.469 384.38 610.911 387.854 613.214 391.423 615.377 394.935 617.504 398.799 620.255 402.923 620.825 409.341 621.712 414.438 614.894 409.49 609.544 406.611 606.43 402.49 604.744 398.914 602.561 395.799 600.66 392.754 598.65 389.781 596.531 371.683 583.561 356.857 566.551 346.481 546.851 338.558 532.078 333.064 516.127 330.208 499.609 328.896 491.6 328.137 483.51 327.937 475.396 327.801 471.269 327.578 467.209 327.647 463.072 327.719 458.749 327.901 454.28 326.023 450.323 324.818 447.783 320.845 447.423 319.029 449.423L319.029 449.422Z" fill="#171717"/></g><g opacity="0.1"><path d="M357.416 588.437C345.274 591.837 334.328 600.966 324.416 608.513 314.415 616.035 304.82 624.084 295.674 632.627 278.016 649.307 262.174 668.257 250.787 689.79 226.463 735.763 225.817 789.076 245.509 836.9 256.32 863.156 271.94 886.763 290.518 908.162 298.28 917.102 311.263 904.052 303.511 895.169 273.076 860.295 250.352 816.935 249.228 769.847 248.128 723.698 270.689 681.682 302.547 649.502 311.712 640.312 321.434 631.696 331.658 623.702 336.679 619.746 341.801 615.902 346.945 612.102 352.677 607.874 358.718 603.957 363.213 598.384 366.725 594.029 363.606 586.699 357.421 588.434L357.416 588.437Z" fill="#171717"/></g></g></svg>