<svg width="960" height="960" viewBox="0 0 960 960" xmlns="http://www.w3.org/2000/svg" xmlns:xlink="http://www.w3.org/1999/xlink" fill="none" overflow="hidden"><defs><linearGradient x1="477.151" y1="495.211" x2="477.151" y2="623.536" gradientUnits="userSpaceOnUse" id="paint0_linear_385_916"><stop offset="0" stop-color="#FFB800"/><stop offset="1" stop-color="#FF7F0A"/></linearGradient><linearGradient x1="601.426" y1="811.54" x2="601.426" y2="909.031" gradientUnits="userSpaceOnUse" id="paint1_linear_385_916"><stop offset="0" stop-color="#FFB800"/><stop offset="1" stop-color="#FF7F0A"/></linearGradient><linearGradient x1="564.05" y1="771.273" x2="564.05" y2="794.122" gradientUnits="userSpaceOnUse" id="paint2_linear_385_916"><stop offset="0" stop-color="#FFB800"/><stop offset="1" stop-color="#FF7F0A"/></linearGradient><linearGradient x1="484.023" y1="261.604" x2="484.023" y2="292.811" gradientUnits="userSpaceOnUse" id="paint3_linear_385_916"><stop offset="0" stop-color="#FFB800"/><stop offset="1" stop-color="#FF7F0A"/></linearGradient><linearGradient x1="363.462" y1="766.551" x2="363.462" y2="789.76" gradientUnits="userSpaceOnUse" id="paint4_linear_385_916"><stop offset="0" stop-color="#FFB800"/><stop offset="1" stop-color="#FF7F0A"/></linearGradient><linearGradient x1="325.096" y1="814.233" x2="325.096" y2="907.617" gradientUnits="userSpaceOnUse" id="paint5_linear_385_916"><stop offset="0" stop-color="#FFB800"/><stop offset="1" stop-color="#FF7F0A"/></linearGradient><linearGradient x1="648.641" y1="228.439" x2="648.641" y2="240.85" gradientUnits="userSpaceOnUse" id="paint6_linear_385_916"><stop offset="0" stop-color="#FFB800"/><stop offset="1" stop-color="#FF7F0A"/></linearGradient><linearGradient x1="611.881" y1="253.09" x2="611.881" y2="258.665" gradientUnits="userSpaceOnUse" id="paint7_linear_385_916"><stop offset="0" stop-color="#FFB800"/><stop offset="1" stop-color="#FF7F0A"/></linearGradient><linearGradient x1="609.261" y1="301" x2="609.261" y2="313.884" gradientUnits="userSpaceOnUse" id="paint8_linear_385_916"><stop offset="0" stop-color="#FFB800"/><stop offset="1" stop-color="#FF7F0A"/></linearGradient><linearGradient x1="572.47" y1="327.214" x2="572.47" y2="334.34" gradientUnits="userSpaceOnUse" id="paint9_linear_385_916"><stop offset="0" stop-color="#FFB800"/><stop offset="1" stop-color="#FF7F0A"/></linearGradient><linearGradient x1="572.266" y1="371.165" x2="572.266" y2="383.576" gradientUnits="userSpaceOnUse" id="paint10_linear_385_916"><stop offset="0" stop-color="#FFB800"/><stop offset="1" stop-color="#FF7F0A"/></linearGradient><linearGradient x1="531.698" y1="383.033" x2="531.698" y2="386.943" gradientUnits="userSpaceOnUse" id="paint11_linear_385_916"><stop offset="0" stop-color="#FFB800"/><stop offset="1" stop-color="#FF7F0A"/></linearGradient><linearGradient x1="540.83" y1="432.706" x2="540.83" y2="442.237" gradientUnits="userSpaceOnUse" id="paint12_linear_385_916"><stop offset="0" stop-color="#FFB800"/><stop offset="1" stop-color="#FF7F0A"/></linearGradient><linearGradient x1="497.899" y1="412.816" x2="497.899" y2="423.258" gradientUnits="userSpaceOnUse" id="paint13_linear_385_916"><stop offset="0" stop-color="#FFB800"/><stop offset="1" stop-color="#FF7F0A"/></linearGradient><linearGradient x1="477.968" y1="386.888" x2="477.968" y2="394.767" gradientUnits="userSpaceOnUse" id="paint14_linear_385_916"><stop offset="0" stop-color="#FFB800"/><stop offset="1" stop-color="#FF7F0A"/></linearGradient><linearGradient x1="510.474" y1="464.88" x2="510.474" y2="474.158" gradientUnits="userSpaceOnUse" id="paint15_linear_385_916"><stop offset="0" stop-color="#FFB800"/><stop offset="1" stop-color="#FF7F0A"/></linearGradient><linearGradient x1="458.667" y1="465.319" x2="458.667" y2="473.519" gradientUnits="userSpaceOnUse" id="paint16_linear_385_916"><stop offset="0" stop-color="#FFB800"/><stop offset="1" stop-color="#FF7F0A"/></linearGradient><linearGradient x1="447.318" y1="423.896" x2="447.318" y2="429.88" gradientUnits="userSpaceOnUse" id="paint17_linear_385_916"><stop offset="0" stop-color="#FFB800"/><stop offset="1" stop-color="#FF7F0A"/></linearGradient><linearGradient x1="415.905" y1="459.932" x2="415.905" y2="466.75" gradientUnits="userSpaceOnUse" id="paint18_linear_385_916"><stop offset="0" stop-color="#FFB800"/><stop offset="1" stop-color="#FF7F0A"/></linearGradient><linearGradient x1="414.419" y1="400.329" x2="414.419" y2="409.145" gradientUnits="userSpaceOnUse" id="paint19_linear_385_916"><stop offset="0" stop-color="#FFB800"/><stop offset="1" stop-color="#FF7F0A"/></linearGradient><linearGradient x1="390.088" y1="372.654" x2="390.088" y2="378.888" gradientUnits="userSpaceOnUse" id="paint20_linear_385_916"><stop offset="0" stop-color="#FFB800"/><stop offset="1" stop-color="#FF7F0A"/></linearGradient><linearGradient x1="379.644" y1="331.19" x2="379.644" y2="339.19" gradientUnits="userSpaceOnUse" id="paint21_linear_385_916"><stop offset="0" stop-color="#FFB800"/><stop offset="1" stop-color="#FF7F0A"/></linearGradient><linearGradient x1="345.017" y1="307.527" x2="345.017" y2="310.222" gradientUnits="userSpaceOnUse" id="paint22_linear_385_916"><stop offset="0" stop-color="#FFB800"/><stop offset="1" stop-color="#FF7F0A"/></linearGradient><linearGradient x1="346.198" y1="243.755" x2="346.198" y2="256.615" gradientUnits="userSpaceOnUse" id="paint23_linear_385_916"><stop offset="0" stop-color="#FFB800"/><stop offset="1" stop-color="#FF7F0A"/></linearGradient><linearGradient x1="313.639" y1="215.972" x2="313.639" y2="220.11" gradientUnits="userSpaceOnUse" id="paint24_linear_385_916"><stop offset="0" stop-color="#FFB800"/><stop offset="1" stop-color="#FF7F0A"/></linearGradient><clipPath id="clip0_385_916"><rect x="0" y="0" width="882" height="884" fill="#FFFFFF" transform="translate(39 38)"/></clipPath></defs><g clip-path="url(#clip0_385_916)"><path d="M478.551 549.917C473.783 572.294 469.009 594.674 464.228 617.057 448.526 616.732 432.821 616.41 417.111 616.093L388.02 615.493C387.377 615.472 386.732 615.462 386.09 615.452L386.072 615.452C396.611 588.652 410.812 527.152 416.614 499.045 433.077 495.739 450.139 495.221 466.977 495.211 495.227 495.201 523.429 496.52 551.584 499.167L551.503 500.05C554.012 522.796 561.5 568.173 566.218 596.767L566.218 596.768C566.934 601.11 567.587 605.064 568.148 608.494L568.229 610.208C562.67 611.708 557.081 613.028 551.452 614.225 541.308 616.365 531.074 618.059 520.788 619.53 510.441 621.014 500.058 622.266 489.693 623.517L489.536 623.536C485.874 599.001 482.213 574.461 478.551 549.917ZM542.18 504.893C542.997 504.754 543.772 505.303 543.911 506.12L560.837 605.287C560.977 606.103 560.428 606.878 559.611 607.018 558.794 607.157 558.019 606.608 557.88 605.791L540.954 506.624C540.815 505.808 541.364 505.033 542.18 504.893ZM532.928 503.107C532.773 502.293 531.987 501.759 531.174 501.914 530.36 502.069 529.826 502.854 529.981 503.668L549.423 605.819C549.577 606.633 550.363 607.167 551.177 607.012 551.99 606.857 552.525 606.072 552.37 605.258L532.928 503.107Z" fill="url(#paint0_linear_385_916)" fill-rule="evenodd" clip-rule="evenodd"/><path d="M762.193 200.239C760.593 200.242 759.039 199.7 757.788 198.703 756.536 197.706 755.661 196.313 755.306 194.752L755.174 85.4255C755.533 83.8702 756.409 82.4823 757.657 81.4879 758.906 80.4934 760.455 79.9508 762.051 79.9485L769.77 79.9385C771.641 79.9374 773.435 80.6794 774.759 82.0012 776.083 83.3231 776.828 85.1166 776.83 86.9875L776.881 130.777 776.901 145.789 776.962 193.159C776.963 194.087 776.782 195.005 776.429 195.862 776.075 196.719 775.556 197.499 774.902 198.155 774.247 198.812 773.469 199.333 772.613 199.689 771.757 200.045 770.839 200.228 769.912 200.229L762.193 200.239Z" fill="#171717"/><path d="M726.711 233.207 726.611 146.45 726.59 131.528 726.49 47.5507C726.49 46.6242 726.671 45.7067 727.025 44.8505 727.379 43.9943 727.898 43.2162 728.553 42.5606 729.208 41.905 729.985 41.3848 730.841 41.0297 731.697 40.6745 732.614 40.4914 733.54 40.4907L748.065 40.4697C749.937 40.4702 751.732 41.2125 753.057 42.534 754.382 43.8554 755.129 45.6483 755.135 47.5197L755.176 85.4257C755.053 85.9477 754.991 86.4824 754.993 87.0187L755.125 193.191C755.124 193.717 755.185 194.241 755.308 194.753L755.348 233.166C755.351 234.093 755.171 235.013 754.818 235.87 754.465 236.728 753.947 237.508 753.292 238.165 752.637 238.822 751.858 239.343 751.001 239.698 750.145 240.054 749.226 240.236 748.298 240.236L733.773 240.257C731.902 240.258 730.107 239.516 728.782 238.194 727.458 236.872 726.713 235.078 726.711 233.207L726.711 233.207Z" fill="#171717"/><path d="M642.571 878.16C648.91 882.816 653.911 890.221 654.702 897.798L653.019 897.981C646.943 905.852 636.434 909.281 626.503 909.017 616.572 908.753 607.018 905.284 597.803 901.541 581.214 894.795 565.052 887.041 549.408 878.323L548.15 878.181C548.313 876.457 549.049 874.838 550.24 873.581 552.573 871.181 555.91 870.72 559.359 870.365 562.392 870.041 565.506 869.787 568.072 868.326 571.429 866.409 573.357 862.626 574.072 858.832 574.787 855.038 574.478 851.123 574.427 847.268 574.326 840.193 575.065 833.132 576.627 826.231 577.905 820.611 580.512 814.343 585.756 812.375 586.111 812.24 586.474 812.128 586.842 812.04 607.707 806.948 600.383 842.197 602.128 852.513 604.969 869.336 630.936 869.62 642.571 878.16Z" fill="url(#paint1_linear_385_916)"/><path d="M585.412 810.879 585.767 812.379C580.523 814.347 577.916 820.615 576.638 826.235 575.075 833.136 574.337 840.197 574.438 847.272 574.489 851.127 574.803 855.032 574.083 858.836 573.363 862.64 571.435 866.413 568.083 868.33 565.517 869.791 562.403 870.045 559.37 870.369L559.37 870.075C556.164 844.726 552.752 819.408 549.135 794.121L549.196 794.11C553.641 790.716 558.782 788.349 564.25 787.177 569.718 786.006 575.378 786.06 580.823 787.335L581.341 787.243C582.695 795.126 584.052 803.004 585.412 810.879Z" fill="#171717"/><path d="M578.626 771.593C579.529 776.807 580.432 782.024 581.335 787.244L580.817 787.336C575.372 786.06 569.712 786.006 564.244 787.178 558.775 788.349 553.634 790.717 549.19 794.111L549.129 794.122C548.357 788.695 547.57 783.271 546.766 777.851L547.161 777.791C556.165 772.28 566.841 770.164 577.267 771.826L578.626 771.593Z" fill="url(#paint2_linear_385_916)"/><path d="M529.724 233.206C530.394 234.524 529.806 236.117 529.187 237.456 524.882 246.64 518.696 254.816 511.03 261.456L510.817 261.598C494.871 263.75 479.006 266.414 463.224 269.592 461.424 269.957 459.524 270.373 458.182 271.62 456.306 273.355 456.022 276.175 455.941 278.72 455.92 279.612 455.849 280.637 455.789 281.712L454.947 281.661C453.628 285.323 448.516 286.632 445.147 284.661 441.778 282.69 440.268 278.392 440.775 274.527 441.282 270.662 443.504 267.214 446.101 264.303 449.144 260.925 453.668 257.923 457.968 259.363 457.739 257.729 458.011 256.064 458.747 254.587 459.484 253.11 460.65 251.891 462.092 251.089 463.535 250.288 465.186 249.942 466.829 250.097 468.472 250.252 470.03 250.901 471.297 251.958 471.713 250.025 472.638 248.238 473.975 246.782 475.313 245.326 477.015 244.253 478.906 243.674 480.796 243.095 482.807 243.031 484.731 243.489 486.655 243.947 488.421 244.91 489.849 246.278 489.611 238.661 491.449 231.123 495.165 224.469 496.392 222.288 498.481 219.935 500.906 220.523 503.452 221.142 504.142 224.398 504.131 227.015 504.108 231.911 503.391 236.779 502 241.473 504.671 235.422 507.769 229.568 511.271 223.955 512.04 222.65 513.048 221.5 514.243 220.567 514.844 220.105 515.55 219.798 516.298 219.672 517.047 219.547 517.814 219.607 518.534 219.847 521.04 220.881 521.445 224.3 520.928 226.968 519.941 231.265 518.091 235.316 515.491 238.876 514.159 240.365 512.988 241.99 512 243.725 513.176 242.132 514.363 240.525 515.489 238.876 517.647 236.433 520.206 234.375 523.056 232.79 524.116 232.123 525.318 231.712 526.566 231.59 527.19 231.538 527.817 231.661 528.376 231.947 528.934 232.233 529.401 232.669 529.724 233.206L529.724 233.206Z" fill="#171717"/><path d="M512.359 277.6C512.45 279.284 512.491 281.109 511.497 282.469 510.361 284.041 508.251 284.477 506.344 284.802L491.463 287.297C482.649 288.778 473.835 290.262 465.019 291.75 463.954 291.922 462.519 292.389 461.114 292.643 459.146 292.998 457.229 292.927 456.448 291.06 455.423 288.595 455.596 284.902 455.789 281.717 455.849 280.642 455.92 279.618 455.941 278.726 456.022 276.18 456.306 273.36 458.182 271.626 459.521 270.379 461.428 269.963 463.224 269.598 478.998 266.422 494.862 263.758 510.817 261.604 511.527 266.916 512.041 272.248 512.359 277.6Z" fill="url(#paint3_linear_385_916)"/><path d="M380.159 770.9C380.473 770.829 380.777 770.768 381.092 770.7L381.447 770.781C379.985 777.115 378.521 783.441 377.055 789.76L376.477 789.628C372.21 786.138 367.121 783.799 361.695 782.833 356.268 781.867 350.685 782.307 345.477 784.11 346.835 779.11 348.178 774.106 349.504 769.098 354.437 767.15 359.735 766.302 365.03 766.614 370.325 766.925 375.488 768.388 380.159 770.9Z" fill="url(#paint4_linear_385_916)"/><path d="M676.065 208.983C675.872 221.5 671.237 233.49 666.419 245.043 641.142 305.793 554.363 441.33 560.571 499.087L560.449 500.04C557.497 499.736 554.542 499.446 551.584 499.168 523.466 496.511 495.264 495.192 466.977 495.212 450.139 495.222 433.077 495.74 416.614 499.046 411.099 500.131 405.66 501.578 400.334 503.378L400.182 503.368C404.462 419.359 304.64 301.948 284.343 216.936 282.243 208.131 280.722 198.262 285.378 190.492 287.829 186.692 291.246 183.611 295.278 181.565 297.689 180.258 300.183 179.109 302.744 178.127 310.838 174.927 319.906 172.477 328.153 175.297 328.822 175.53 329.472 175.784 330.111 176.068 339.605 180.368 345.072 190.868 349.13 200.686 368.149 246.646 377.136 297.029 403.03 339.479 407.453 346.742 412.43 353.802 418.966 359.229 425.502 364.656 448.26 368.388 456.75 368.064L457.65 367.79C459.141 364.371 456.301 359.624 458.95 356.99 460.127 355.803 461.963 355.641 463.637 355.56 464.037 355.539 464.428 355.519 464.823 355.509 473.057 355.164 481.304 355.286 489.523 355.874 492.323 356.074 495.116 356.328 497.901 356.635 496.887 360.581 496.101 365.409 499.078 368.188 499.867 368.906 500.806 369.436 501.827 369.74L502.811 369.974C527.155 371.174 534.905 354.312 542.036 342.18 563.205 306.13 579.567 267.443 594.122 228.239 599.712 213.175 605.362 197.504 616.612 186.031 618.515 184.099 620.59 182.344 622.811 180.787 633.969 172.967 648.829 169.964 660.352 176.77 660.92 177.105 661.468 177.46 662.006 177.846 671.662 184.537 676.247 197.125 676.065 208.983Z" fill="#171717"/><path d="M339.768 814.581C339.005 814.331 338.206 814.214 337.405 814.236L337.395 813.851C340.123 803.94 342.817 794.026 345.479 784.11 350.687 782.306 356.27 781.867 361.697 782.833 367.123 783.798 372.212 786.138 376.479 789.628L377.057 789.76C373.019 807.156 368.989 824.556 364.966 841.96L362.379 842.569C358.119 841.392 353.473 840.824 350.491 837.7 347.428 834.5 347.113 829.666 346.444 825.284 345.775 820.902 343.978 815.971 339.768 814.581Z" fill="#171717"/><path d="M286.615 881.609C293.361 875.584 302.015 872.216 309.641 867.368 315.93 863.368 323.541 856.808 324.248 848.846 324.958 840.822 323.862 833.746 326.418 825.658 327.392 822.574 328.67 819.49 330.953 817.198 332.654 815.434 334.958 814.377 337.404 814.236 338.206 814.214 339.005 814.331 339.767 814.581 343.977 815.971 345.767 820.9 346.442 825.281 347.117 829.662 347.426 834.492 350.489 837.697 353.471 840.821 358.117 841.389 362.377 842.566 364.91 843.109 367.255 844.308 369.177 846.045 370.995 848.022 372.102 850.55 372.322 853.227L370.422 853.298C367.095 861.27 363.768 869.264 359.447 876.739 355.126 884.214 349.76 891.194 342.923 896.468 333.809 903.328 322.801 907.21 311.4 907.587 300.03 907.92 288.753 905.447 278.565 900.387L277.916 900.437C277.4 893.6 281.3 886.356 286.615 881.609Z" fill="url(#paint5_linear_385_916)"/><path d="M245.808 152.576 246.417 238.258C246.425 239.185 246.249 240.105 245.901 240.964 245.553 241.824 245.039 242.606 244.387 243.267 243.736 243.928 242.961 244.453 242.107 244.814 241.252 245.174 240.335 245.363 239.408 245.368L224.882 245.469C223.955 245.476 223.036 245.301 222.177 244.952 221.318 244.604 220.536 244.089 219.877 243.438 219.217 242.787 218.693 242.012 218.333 241.158 217.974 240.303 217.786 239.386 217.782 238.46L217.518 200.534C217.629 200.02 217.683 199.497 217.68 198.972L216.93 92.7995C216.932 92.2767 216.87 91.7556 216.747 91.2475L216.473 52.8135C216.466 51.8869 216.642 50.9681 216.991 50.1097 217.34 49.2512 217.855 48.47 218.506 47.8105 219.156 47.1511 219.931 46.6265 220.785 46.2667 221.639 45.9069 222.555 45.7189 223.482 45.7135L238.008 45.6135C238.935 45.606 239.854 45.7815 240.713 46.13 241.572 46.4784 242.353 46.993 243.013 47.6441 243.672 48.2953 244.197 49.0702 244.557 49.9245 244.916 50.7788 245.103 51.6957 245.108 52.6225L245.717 138.569 245.808 152.576Z" fill="#171717"/><path d="M195.415 139.308 195.091 92.9524C195.081 91.0809 195.812 89.2816 197.126 87.9487 198.44 86.6158 200.228 85.858 202.1 85.8414L209.829 85.7904C211.432 85.7748 212.991 86.3075 214.25 87.3003 215.508 88.293 216.389 89.6861 216.747 91.2484L217.518 200.534C217.174 202.097 216.309 203.497 215.065 204.503 213.821 205.509 212.271 206.063 210.671 206.072L202.952 206.133C201.081 206.144 199.281 205.412 197.949 204.098 196.616 202.784 195.858 200.996 195.841 199.124L195.517 153.224 195.415 139.308Z" fill="#171717"/><path d="M482.983 321.617C483.957 321.039 485.183 321.252 486.32 321.317 487.457 321.382 488.806 321.135 489.282 320.1 489.486 319.486 489.508 318.826 489.343 318.2 488.156 311.14 486.976 304.084 485.803 297.031 485.57 295.6 485.408 293.917 486.452 292.923 487.259 292.311 488.251 291.994 489.262 292.023 492.64 291.729 496.007 291.423 499.385 291.13" stroke="#171717" stroke-width="3" stroke-linecap="round" stroke-linejoin="round"/><path d="M492.914 299.282C493.789 298.088 495.081 297.267 496.534 296.981 497.986 296.695 499.493 296.966 500.755 297.74" stroke="#171717" stroke-width="3" stroke-linecap="round" stroke-linejoin="round"/><path d="M478.429 299.869C478.03 299.304 477.488 298.853 476.86 298.563 476.231 298.273 475.537 298.153 474.848 298.215 474.158 298.278 473.497 298.521 472.931 298.92 472.365 299.319 471.914 299.86 471.623 300.488" stroke="#171717" stroke-width="3" stroke-linecap="round" stroke-linejoin="round"/><path d="M482.983 332.126C481.774 332.722 480.426 332.98 479.082 332.875 477.738 332.77 476.448 332.305 475.345 331.529 474.243 330.753 473.371 329.694 472.819 328.464 472.268 327.234 472.057 325.878 472.211 324.539" stroke="#171717" stroke-width="3" stroke-linecap="round" stroke-linejoin="round"/><path d="M489.6 354.878C489.321 352.238 489.372 349.574 489.752 346.946 490.137 344.293 491.479 341.871 493.525 340.139 496.173 338.111 499.906 337.806 502.401 335.585 504.977 333.293 505.596 329.56 506.001 326.131 507.634 312.464 508.477 298.714 508.527 284.949" stroke="#171717" stroke-width="3" stroke-linecap="round" stroke-linejoin="round"/><path d="M461.154 292.84C462.362 313.209 463.566 333.581 464.766 353.955" stroke="#171717" stroke-width="3" stroke-linecap="round" stroke-linejoin="round"/><path d="M506.344 284.8C508.251 284.475 510.361 284.039 511.497 282.467 512.491 281.107 512.45 279.282 512.359 277.598 512.044 272.252 511.53 266.918 510.817 261.598 494.871 263.749 479.007 266.414 463.224 269.592 461.424 269.957 459.524 270.373 458.182 271.62 456.306 273.355 456.022 276.175 455.941 278.72 455.92 279.612 455.849 280.637 455.789 281.712 455.596 284.897 455.423 288.589 456.448 291.054 457.229 292.921 459.148 292.992 461.114 292.637 462.514 292.383 463.954 291.916 465.019 291.744 473.834 290.263 482.649 288.779 491.463 287.291L506.344 284.8Z" stroke="#171717" stroke-width="3" stroke-linecap="round" stroke-linejoin="round"/><path d="M515.493 238.876C518.093 235.316 519.943 231.265 520.93 226.968 521.447 224.3 521.042 220.881 518.536 219.847 517.817 219.607 517.049 219.547 516.301 219.672 515.552 219.798 514.847 220.105 514.245 220.567 513.051 221.5 512.042 222.65 511.273 223.955 507.771 229.568 504.672 235.422 502 241.473 503.391 236.78 504.108 231.913 504.13 227.018 504.141 224.401 503.451 221.145 500.905 220.526 498.48 219.938 496.391 222.291 495.164 224.472 491.448 231.126 489.611 238.664 489.848 246.281 488.421 244.913 486.654 243.95 484.73 243.492 482.807 243.034 480.796 243.098 478.905 243.677 477.014 244.256 475.312 245.329 473.975 246.785 472.637 248.241 471.712 250.028 471.296 251.961 470.029 250.904 468.471 250.255 466.829 250.1 465.186 249.945 463.534 250.291 462.092 251.092 460.649 251.894 459.483 253.113 458.747 254.59 458.011 256.067 457.739 257.732 457.967 259.366 453.667 257.926 449.143 260.928 446.1 264.306 443.5 267.217 441.291 270.666 440.774 274.53 440.257 278.394 441.768 282.706 445.146 284.664 448.524 286.622 453.626 285.323 454.946 281.664" stroke="#171717" stroke-width="3" stroke-linecap="round" stroke-linejoin="round"/><path d="M515.493 238.877C514.16 240.365 512.989 241.991 512 243.726 513.18 242.133 514.367 240.53 515.493 238.877Z" stroke="#171717" stroke-width="3" stroke-linecap="round" stroke-linejoin="round"/><path d="M511.03 261.456C518.697 254.816 524.883 246.639 529.187 237.456 529.806 236.117 530.394 234.524 529.724 233.206 529.401 232.669 528.935 232.234 528.378 231.949 527.82 231.664 527.194 231.541 526.57 231.593 525.323 231.714 524.121 232.125 523.06 232.793 520.211 234.377 517.652 236.435 515.493 238.879" stroke="#171717" stroke-width="3" stroke-linecap="round" stroke-linejoin="round"/><path d="M502.814 369.971C527.158 371.171 534.908 354.309 542.039 342.177 563.208 306.127 579.57 267.44 594.125 228.236 599.715 213.172 605.364 197.501 616.614 186.028 618.518 184.096 620.593 182.341 622.814 180.784 633.972 172.964 648.832 169.961 660.355 176.767 660.923 177.102 661.471 177.457 662.009 177.843 671.665 184.537 676.25 197.125 676.068 208.983 675.875 221.5 671.239 233.49 666.421 245.043 641.144 305.793 554.366 441.33 560.574 499.087" stroke="#171717" stroke-width="3" stroke-linecap="round" stroke-linejoin="round"/><path d="M456.752 368.065C448.262 368.389 425.5 364.665 418.968 359.23 412.436 353.795 407.455 346.743 403.032 339.48 377.132 297.03 368.149 246.647 349.132 200.687 345.074 190.868 339.607 180.369 330.113 176.069 329.474 175.785 328.824 175.531 328.155 175.298 319.908 172.478 310.84 174.932 302.746 178.128 300.185 179.11 297.691 180.258 295.28 181.566 291.247 183.611 287.831 186.692 285.38 190.493 280.724 198.263 282.246 208.132 284.345 216.937 304.645 301.949 404.464 419.36 400.184 503.369L400.184 503.389" stroke="#171717" stroke-width="3" stroke-linecap="round" stroke-linejoin="round"/><path d="M400.334 503.379C405.66 501.579 411.098 500.132 416.614 499.047 433.077 495.741 450.139 495.223 466.977 495.213 495.226 495.203 523.429 496.522 551.584 499.169 554.546 499.443 557.501 499.734 560.449 500.041" stroke="#171717" stroke-width="3" stroke-linecap="round" stroke-linejoin="round"/><path d="M568.148 608.5C563.888 582.482 554.393 526.256 551.503 500.056" stroke="#171717" stroke-width="3" stroke-linecap="round" stroke-linejoin="round"/><path d="M385.951 615.757 386.072 615.457C396.611 588.657 410.812 527.157 416.614 499.05 416.625 498.979 416.645 498.919 416.655 498.858" stroke="#171717" stroke-width="3" stroke-linecap="round" stroke-linejoin="round"/><path d="M385.748 615.443C385.859 615.443 385.961 615.443 386.072 615.453 386.722 615.463 387.372 615.473 388.02 615.494 397.717 615.686 407.414 615.886 417.111 616.094 432.814 616.41 448.52 616.731 464.228 617.058 469.006 594.681 473.78 572.301 478.551 549.918L479.098 547.362" stroke="#171717" stroke-width="3" stroke-linecap="round" stroke-linejoin="round"/><path d="M478.125 547.046C478.267 548 478.409 548.964 478.551 549.917 482.212 574.464 485.874 599.005 489.536 623.538 499.953 622.281 510.391 621.023 520.788 619.532 531.074 618.061 541.308 616.367 551.452 614.227 557.081 613.027 562.67 611.711 568.229 610.21" stroke="#171717" stroke-width="3" stroke-linecap="round" stroke-linejoin="round"/><path d="M388.01 615.87C375.898 667.115 363.065 718.191 349.51 769.098 348.181 774.098 346.839 779.102 345.483 784.11 342.817 794.03 340.122 803.944 337.399 813.851" stroke="#171717" stroke-width="3" stroke-linecap="round" stroke-linejoin="round"/><path d="M417.1 616.822C405.223 668.14 393.338 719.46 381.447 770.78 379.986 777.114 378.522 783.44 377.055 789.759 373.018 807.155 368.987 824.555 364.964 841.959" stroke="#171717" stroke-width="3" stroke-linecap="round" stroke-linejoin="round"/><path d="M277.912 900.435C277.395 893.599 281.3 886.356 286.612 881.609 293.358 875.584 302.012 872.216 309.638 867.368 315.927 863.368 323.538 856.808 324.245 848.846 324.955 840.822 323.859 833.746 326.415 825.658 327.389 822.574 328.667 819.49 330.95 817.198 332.651 815.434 334.955 814.377 337.401 814.236 338.203 814.214 339.002 814.331 339.764 814.581 343.974 815.971 345.764 820.9 346.439 825.281 347.114 829.662 347.423 834.492 350.486 837.697 353.468 840.821 358.114 841.389 362.374 842.566 364.907 843.109 367.252 844.308 369.174 846.045 370.992 848.022 372.099 850.55 372.319 853.227 372.515 854.992 372.528 856.774 372.359 858.542 371.497 868.3 367.47 877.542 362.267 885.842 354.72 897.882 344.343 908.452 331.461 914.442 318.579 920.432 303.061 921.461 290.197 915.426 285.724 913.326 281.474 910.242 279.333 905.799 278.524 904.117 278.041 902.297 277.912 900.435L277.912 900.435Z" stroke="#171717" stroke-width="3" stroke-linecap="round" stroke-linejoin="round"/><path d="M654.7 897.8C653.909 890.223 648.908 882.818 642.569 878.162 630.934 869.622 604.969 869.338 602.137 852.52 600.392 842.204 607.716 806.955 586.851 812.047 586.482 812.135 586.119 812.247 585.765 812.382 580.521 814.35 577.914 820.618 576.636 826.238 575.073 833.138 574.335 840.2 574.436 847.275 574.487 851.13 574.801 855.035 574.081 858.839 573.361 862.643 571.433 866.416 568.081 868.333 565.515 869.794 562.401 870.048 559.368 870.372 555.919 870.727 552.582 871.184 550.249 873.588 549.058 874.844 548.322 876.464 548.159 878.188 547.859 881.216 548.726 884.245 550.583 886.657 553.483 890.421 557.948 892.581 562.238 894.6 573.438 899.885 584.633 905.163 595.823 910.434 608.123 916.234 621.395 922.19 634.823 920.019 642.755 918.731 650.576 914.065 653.558 906.61 654.658 903.812 655.051 900.786 654.7 897.8Z" stroke="#171717" stroke-width="3" stroke-linecap="round" stroke-linejoin="round"/><path d="M559.364 870.076C556.158 844.726 552.746 819.408 549.129 794.122 548.358 788.695 547.57 783.271 546.766 777.851 539.055 725.237 530.44 672.761 520.92 620.424" stroke="#171717" stroke-width="3" stroke-linecap="round" stroke-linejoin="round"/><path d="M551.391 613.841C551.411 613.973 551.432 614.095 551.452 614.227 560.51 666.679 569.568 719.134 578.626 771.593 579.529 776.807 580.432 782.024 581.335 787.244 582.693 795.126 584.052 803.004 585.412 810.879" stroke="#171717" stroke-width="3" stroke-linecap="round" stroke-linejoin="round"/><path d="M457.655 367.791C459.146 364.372 456.306 359.625 458.955 356.991 460.132 355.804 461.968 355.642 463.642 355.561 464.042 355.54 464.433 355.52 464.828 355.51 473.062 355.165 481.308 355.286 489.528 355.875 492.328 356.075 495.121 356.328 497.906 356.636 496.892 360.582 496.106 365.41 499.083 368.189 499.871 368.906 500.811 369.436 501.832 369.741" stroke="#171717" stroke-width="3" stroke-linecap="round" stroke-linejoin="round"/><path d="M332.242 175.967C335.765 168.019 338.619 159.79 340.773 151.367 341.979 146.671 342.963 141.927 343.723 137.136 344.261 133.768 344.688 130.38 345.002 126.992 345.337 123.32 345.062 118.746 341.735 117.163 337.85 115.297 333.336 119.253 329.118 118.363 325.518 117.602 323.072 113.494 319.39 113.515 317.016 113.525 315.028 115.3 312.726 115.888 309.126 116.811 305.32 114.742 301.658 115.422 298.169 116.071 295.532 119.195 294.477 122.583 294.087 123.938 293.855 125.333 293.787 126.742 293.675 129.227 293.767 131.717 294.062 134.187" stroke="#171717" stroke-width="3" stroke-linecap="round" stroke-linejoin="round"/><path d="M292.955 126.69C289.892 125.483 286.22 126.731 284.019 129.19 281.97 131.687 280.903 134.847 281.019 138.076L281.019 138.35C281.208 141.642 281.86 144.89 282.954 148 283.349 149.278 283.754 150.556 284.181 151.834 287.396 161.582 291.281 171.117 295.156 180.634" stroke="#171717" stroke-width="3" stroke-linecap="round" stroke-linejoin="round"/><path d="M662.006 177.854 662.006 177.844C665.776 167.841 668.833 157.583 671.155 147.149 672.261 142.179 673.198 137.179 673.965 132.149 674.239 130.303 674.502 128.449 674.736 126.591 675.105 124.581 675.098 122.521 674.715 120.515 674.505 119.514 674.035 118.586 673.354 117.824 672.672 117.062 671.802 116.493 670.831 116.173 666.956 115.21 663.385 119.734 659.45 119.064 656.599 118.587 654.75 115.564 651.933 114.936 649.225 114.327 646.577 116.092 643.818 116.376 639.487 116.833 635.511 113.627 631.149 113.576 626.199 113.525 622.081 117.724 620.539 122.476 620.439 122.791 620.346 123.116 620.265 123.43 618.987 128.552 620.052 133.939 621.107 139.112" stroke="#171717" stroke-width="3" stroke-linecap="round" stroke-linejoin="round"/><path d="M619.322 121.912C615.031 120.766 610.538 124.112 608.955 128.272 608.367 129.873 608.042 131.558 607.992 133.263 607.971 136.009 608.281 138.747 608.915 141.418 609.371 143.599 609.895 145.765 610.487 147.918 613.51 159.046 618.034 169.757 622.537 180.398" stroke="#171717" stroke-width="3" stroke-linecap="round" stroke-linejoin="round"/><path d="M245.808 152.576 246.417 238.258C246.425 239.185 246.249 240.105 245.901 240.964 245.553 241.824 245.039 242.606 244.387 243.267 243.736 243.928 242.961 244.453 242.107 244.814 241.252 245.174 240.335 245.363 239.408 245.368L224.882 245.469C223.955 245.476 223.036 245.301 222.177 244.952 221.318 244.604 220.536 244.089 219.877 243.438 219.217 242.787 218.693 242.012 218.333 241.158 217.974 240.303 217.786 239.386 217.782 238.46L217.518 200.534 216.747 91.2475 216.473 52.8135C216.466 51.8869 216.642 50.9681 216.991 50.1097 217.34 49.2512 217.855 48.47 218.506 47.8105 219.156 47.1511 219.931 46.6265 220.785 46.2667 221.639 45.9069 222.555 45.7189 223.482 45.7135L238.008 45.6135C238.935 45.606 239.854 45.7815 240.713 46.13 241.572 46.4784 242.353 46.993 243.013 47.6441 243.672 48.2953 244.197 49.0702 244.557 49.9245 244.916 50.7788 245.103 51.6957 245.108 52.6225L245.717 138.569 245.808 152.576Z" stroke="#171717" stroke-width="3" stroke-linecap="round" stroke-linejoin="round"/><path d="M217.518 200.534C217.174 202.097 216.309 203.497 215.065 204.503 213.821 205.509 212.271 206.063 210.671 206.072L202.952 206.133C201.08 206.144 199.281 205.412 197.948 204.098 196.616 202.784 195.858 200.996 195.841 199.124L195.517 153.224 195.417 139.308 195.093 92.9524C195.082 91.0809 195.814 89.2816 197.128 87.9487 198.442 86.6158 200.23 85.858 202.102 85.8414L209.831 85.7904C211.434 85.7748 212.993 86.3075 214.252 87.3003 215.51 88.293 216.391 89.6861 216.749 91.2484 216.872 91.7564 216.934 92.2776 216.932 92.8004L217.682 198.972C217.684 199.497 217.629 200.021 217.518 200.534Z" stroke="#171717" stroke-width="3" stroke-linecap="round" stroke-linejoin="round"/><path d="M279.89 138.07 245.717 138.567" stroke="#171717" stroke-width="3" stroke-linecap="round" stroke-linejoin="round"/><path d="M608.002 133.263 607.992 133.263 343.723 137.138" stroke="#171717" stroke-width="3" stroke-linecap="round" stroke-linejoin="round"/><path d="M726.113 131.527 675.01 132.298" stroke="#171717" stroke-width="3" stroke-linecap="round" stroke-linejoin="round"/><path d="M777.165 145.79 790.645 145.618 790.645 130.585 777.347 130.778" stroke="#171717" stroke-width="3" stroke-linecap="round" stroke-linejoin="round"/><path d="M671.155 147.149 726.113 146.45" stroke="#171717" stroke-width="3" stroke-linecap="round" stroke-linejoin="round"/><path d="M340.772 151.369 610.487 147.92" stroke="#171717" stroke-width="3" stroke-linecap="round" stroke-linejoin="round"/><path d="M246.214 152.575 283.359 152.109" stroke="#171717" stroke-width="3" stroke-linecap="round" stroke-linejoin="round"/><path d="M195.425 139.309 195.415 139.309 179.896 139.532 179.896 153.428 195.415 153.225" stroke="#171717" stroke-width="3" stroke-linecap="round" stroke-linejoin="round"/><path d="M726.589 131.528 726.489 47.5507C726.489 46.6242 726.67 45.7067 727.024 44.8505 727.378 43.9943 727.897 43.2162 728.552 42.5606 729.207 41.905 729.984 41.3848 730.84 41.0297 731.695 40.6745 732.613 40.4914 733.539 40.4907L748.064 40.4697C749.936 40.4702 751.731 41.2125 753.056 42.534 754.381 43.8554 755.128 45.6483 755.134 47.5197L755.175 85.4257 755.307 194.753 755.347 233.166C755.35 234.093 755.17 235.013 754.817 235.87 754.465 236.728 753.946 237.508 753.291 238.165 752.636 238.822 751.857 239.343 751 239.698 750.144 240.054 749.225 240.236 748.297 240.236L733.772 240.257C731.901 240.258 730.107 239.515 728.783 238.193 727.459 236.871 726.714 235.078 726.712 233.207L726.612 146.45 726.589 131.528Z" stroke="#171717" stroke-width="3" stroke-linecap="round" stroke-linejoin="round"/><path d="M755.174 85.4255C755.534 83.8702 756.409 82.4823 757.658 81.4879 758.906 80.4934 760.455 79.9508 762.051 79.9485L769.77 79.9385C771.641 79.9374 773.436 80.6794 774.76 82.0012 776.084 83.3231 776.828 85.1166 776.83 86.9875L776.881 130.777 776.901 145.789 776.962 193.159C776.964 194.087 776.783 195.005 776.429 195.862 776.076 196.719 775.557 197.499 774.902 198.155 774.247 198.812 773.47 199.333 772.614 199.689 771.757 200.045 770.839 200.228 769.912 200.229L762.193 200.239C760.593 200.242 759.04 199.7 757.788 198.703 756.537 197.706 755.661 196.313 755.306 194.752 755.183 194.241 755.121 193.717 755.123 193.19L754.991 87.0185C754.989 86.4821 755.051 85.9475 755.174 85.4255L755.174 85.4255Z" stroke="#171717" stroke-width="3" stroke-linecap="round" stroke-linejoin="round"/><path d="M580.817 787.336C575.372 786.061 569.713 786.007 564.245 787.178 558.776 788.35 553.635 790.717 549.19 794.111" stroke="#171717" stroke-width="3" stroke-linecap="round" stroke-linejoin="round"/><path d="M344.626 784.424C344.91 784.313 345.194 784.211 345.478 784.11 350.686 782.306 356.27 781.867 361.696 782.833 367.123 783.798 372.212 786.138 376.478 789.628" stroke="#171717" stroke-width="3" stroke-linecap="round" stroke-linejoin="round"/><path d="M349.079 769.27C349.221 769.209 349.363 769.148 349.505 769.098 354.438 767.15 359.737 766.303 365.031 766.615 370.326 766.927 375.489 768.39 380.159 770.903 380.473 770.832 380.777 770.771 381.092 770.703" stroke="#171717" stroke-width="3" stroke-linecap="round" stroke-linejoin="round"/><path d="M547.161 777.791C556.166 772.28 566.842 770.164 577.267 771.826" stroke="#171717" stroke-width="3" stroke-linecap="round" stroke-linejoin="round"/><path d="M629.192 873.1C618.842 877.15 609.263 882.945 600.871 890.232" stroke="#171717" stroke-width="3" stroke-linecap="round" stroke-linejoin="round"/><path d="M616.289 868.291C607.629 871.226 599.64 875.857 592.789 881.913" stroke="#171717" stroke-width="3" stroke-linecap="round" stroke-linejoin="round"/><path d="M606.267 861.971C598.492 864.265 591.432 868.508 585.757 874.296" stroke="#171717" stroke-width="3" stroke-linecap="round" stroke-linejoin="round"/><path d="M306.659 869.873C319.757 866.304 333.611 866.636 346.523 870.827" stroke="#171717" stroke-width="3" stroke-linecap="round" stroke-linejoin="round"/><path d="M318.588 860.267C327.876 856.723 338.007 856.01 347.7 858.218" stroke="#171717" stroke-width="3" stroke-linecap="round" stroke-linejoin="round"/><path d="M291.839 877.714C305.148 875.633 318.731 876.102 331.866 879.094" stroke="#171717" stroke-width="3" stroke-linecap="round" stroke-linejoin="round"/><path d="M278.562 900.385C288.749 905.445 300.026 907.918 311.397 907.585 322.798 907.209 333.807 903.327 342.923 896.467 349.76 891.193 355.123 884.204 359.447 876.738 363.771 869.272 367.095 861.269 370.422 853.297" stroke="#171717" stroke-width="3" stroke-linecap="round" stroke-linejoin="round"/><path d="M549.413 878.322C565.057 887.04 581.218 894.794 597.808 901.54 607.018 905.283 616.563 908.752 626.508 909.016 636.453 909.28 646.948 905.851 653.024 897.98" stroke="#171717" stroke-width="3" stroke-linecap="round" stroke-linejoin="round"/><path d="M163 375.042C186.88 392.732 193.817 425.307 195.01 455.001 195.386 464.343 195.347 473.863 192.651 482.814 189.955 491.765 184.251 500.19 175.82 504.236 167.389 508.282 156.137 506.941 150.189 499.729 144.241 492.517 146.05 479.746 154.533 475.817 163.421 471.7 173.667 478.124 180.08 485.528 187.656 494.275 193.218 505.528 192.232 517.059 191.315 527.782 184.898 537.31 177.322 544.959 169.746 552.608 160.878 558.868 153.242 566.452 145.606 574.036 139.049 583.434 137.876 594.133 136.703 604.832 142.328 616.772 152.568 620.085 162.808 623.398 175.768 614.36 173.935 603.754" stroke="#171717" stroke-width="3" stroke-linecap="round" stroke-linejoin="round"/><path d="M761.909 330C742.379 343 728.746 363.5 720.334 385.408 711.922 407.316 708.322 430.732 705.434 454.017 703.77 467.45 702.343 481.226 705.45 494.4 708.557 507.574 717.063 520.239 729.823 524.755 742.583 529.271 759.201 522.886 762.784 509.833 764.69 502.888 762.061 494.333 755.491 491.388 747.87 487.969 738.812 493.388 734.512 500.55 728.691 510.242 728.789 522.681 732.669 533.3 736.549 543.919 743.82 552.968 751.769 561.014 761.432 570.801 773.064 581.024 773.669 594.765 774.378 610.881 756.509 624.198 740.764 620.686 725.019 617.174 714.528 599.742 716.764 583.765" stroke="#171717" stroke-width="3" stroke-linecap="round" stroke-linejoin="round"/><path d="M138.445 108.127 108.731 82.1924" stroke="#171717" stroke-width="3" stroke-linecap="round" stroke-linejoin="round"/><path d="M148.844 186.263 114.801 207.289" stroke="#171717" stroke-width="3" stroke-linecap="round" stroke-linejoin="round"/><path d="M131.822 146.537 41.2471 146.537" stroke="#171717" stroke-width="3" stroke-linecap="round" stroke-linejoin="round"/><path d="M820.006 186.434 918.816 206.482" stroke="#171717" stroke-width="3" stroke-linecap="round" stroke-linejoin="round"/><path d="M826.45 152.58 864.399 140.361" stroke="#171717" stroke-width="3" stroke-linecap="round" stroke-linejoin="round"/><path d="M802.822 229.395 820.006 252.584" stroke="#171717" stroke-width="3" stroke-linecap="round" stroke-linejoin="round"/><path d="M814.994 404.101 851.511 385.185" stroke="#171717" stroke-width="3" stroke-linecap="round" stroke-linejoin="round"/><path d="M826.45 378.325 845.425 407.682" stroke="#171717" stroke-width="3" stroke-linecap="round" stroke-linejoin="round"/><path d="M685.396 554.27 700.565 536.563" stroke="#171717" stroke-width="3" stroke-linecap="round" stroke-linejoin="round"/><path d="M685.396 536.563 703.62 554.27" stroke="#171717" stroke-width="3" stroke-linecap="round" stroke-linejoin="round"/><path d="M259.37 488.71 240.753 506.372" stroke="#171717" stroke-width="3" stroke-linecap="round" stroke-linejoin="round"/><path d="M240.753 485.068 259.37 506.371" stroke="#171717" stroke-width="3" stroke-linecap="round" stroke-linejoin="round"/><path d="M101.847 449.091 88.2432 434.055" stroke="#171717" stroke-width="3" stroke-linecap="round" stroke-linejoin="round"/><path d="M88.2432 449.091 101.847 434.055" stroke="#171717" stroke-width="3" stroke-linecap="round" stroke-linejoin="round"/><path d="M340.774 662.223 326.591 642.891" stroke="#171717" stroke-width="3" stroke-linecap="round" stroke-linejoin="round"/><path d="M325.173 662.223 343.724 642.891" stroke="#171717" stroke-width="3" stroke-linecap="round" stroke-linejoin="round"/><path d="M355.848 120.917C355.875 118.849 355.476 116.797 354.673 114.891 353.871 112.985 352.683 111.265 351.185 109.839 349.686 108.414 347.909 107.313 345.966 106.606 344.022 105.9 341.953 105.602 339.889 105.733" stroke="#171717" stroke-width="3" stroke-linecap="round" stroke-linejoin="round"/><path d="M602.911 118.1C608.839 107.157 622.544 101.072 634.638 104.014" stroke="#171717" stroke-width="3" stroke-linecap="round" stroke-linejoin="round"/><path d="M675.158 170.745C677.699 169.755 679.946 168.132 681.685 166.031 683.424 163.929 684.598 161.419 685.096 158.737" stroke="#171717" stroke-width="3" stroke-linecap="round" stroke-linejoin="round"/><path d="M347.571 387.847C333.273 363.637 321.211 338.174 311.532 311.774" stroke="#171717" stroke-width="3" stroke-linecap="round" stroke-linejoin="round"/><path d="M620.552 367.01C629.961 346.19 640.357 325.857 651.741 306.01" stroke="#171717" stroke-width="3" stroke-linecap="round" stroke-linejoin="round"/><path d="M345.581 735.633C346.198 726.22 349.2 717.119 354.304 709.186" stroke="#171717" stroke-width="3" stroke-linecap="round" stroke-linejoin="round"/><path d="M398.538 739.984 407.538 707.677" stroke="#171717" stroke-width="3" stroke-linecap="round" stroke-linejoin="round"/><path d="M523.641 728.446 519.275 694.178" stroke="#171717" stroke-width="3" stroke-linecap="round" stroke-linejoin="round"/><path d="M580.982 719.847 577.402 689.774" stroke="#171717" stroke-width="3" stroke-linecap="round" stroke-linejoin="round"/><path d="M646.016 440.618C649.911 437.178 654.575 434.722 659.616 433.458" stroke="#171717" stroke-width="3" stroke-linecap="round" stroke-linejoin="round"/><path d="M654.548 444.221 648.831 429.18" stroke="#171717" stroke-width="3" stroke-linecap="round" stroke-linejoin="round"/><path d="M293.129 356.728 284.512 348.879" stroke="#171717" stroke-width="3" stroke-linecap="round" stroke-linejoin="round"/><path d="M283.388 359.366C288.107 354.843 291.355 349.004 292.709 342.608" stroke="#171717" stroke-width="3" stroke-linecap="round" stroke-linejoin="round"/><path d="M424.843 251.533 417.694 242.217" stroke="#171717" stroke-width="3" stroke-linecap="round" stroke-linejoin="round"/><path d="M416.054 250.776 425.01 239.612" stroke="#171717" stroke-width="3" stroke-linecap="round" stroke-linejoin="round"/><path d="M549.267 283.375C545.525 282.202 542.138 280.108 539.415 277.286" stroke="#171717" stroke-width="3" stroke-linecap="round" stroke-linejoin="round"/><path d="M539.229 286.607 547.841 273.732" stroke="#171717" stroke-width="3" stroke-linecap="round" stroke-linejoin="round"/><path d="M650.312 240.85 646.97 228.439" stroke="url(#paint6_linear_385_916)" stroke-width="3" stroke-linecap="round" stroke-linejoin="round"/><path d="M606.475 258.665 617.287 253.09" stroke="url(#paint7_linear_385_916)" stroke-width="3" stroke-linecap="round" stroke-linejoin="round"/><path d="M611.171 313.884C610.505 309.432 609.22 305.095 607.352 301" stroke="url(#paint8_linear_385_916)" stroke-width="3" stroke-linecap="round" stroke-linejoin="round"/><path d="M567.207 334.34 577.732 327.214" stroke="url(#paint9_linear_385_916)" stroke-width="3" stroke-linecap="round" stroke-linejoin="round"/><path d="M573.937 383.576C573.559 379.275 572.428 375.074 570.596 371.165" stroke="url(#paint10_linear_385_916)" stroke-width="3" stroke-linecap="round" stroke-linejoin="round"/><path d="M527.178 386.943C529.796 384.87 532.914 383.522 536.218 383.033" stroke="url(#paint11_linear_385_916)" stroke-width="3" stroke-linecap="round" stroke-linejoin="round"/><path d="M543.945 442.237 537.715 432.706" stroke="url(#paint12_linear_385_916)" stroke-width="3" stroke-linecap="round" stroke-linejoin="round"/><path d="M492.856 423.258 502.941 412.816" stroke="url(#paint13_linear_385_916)" stroke-width="3" stroke-linecap="round" stroke-linejoin="round"/><path d="M481.009 394.767 474.927 386.888" stroke="url(#paint14_linear_385_916)" stroke-width="3" stroke-linecap="round" stroke-linejoin="round"/><path d="M514.9 464.88 506.048 474.158 506.748 473.558" stroke="url(#paint15_linear_385_916)" stroke-width="3" stroke-linecap="round" stroke-linejoin="round"/><path d="M461.792 473.519C459.166 471.246 457.038 468.454 455.542 465.319" stroke="url(#paint16_linear_385_916)" stroke-width="3" stroke-linecap="round" stroke-linejoin="round"/><path d="M443.626 429.88 451.011 423.896" stroke="url(#paint17_linear_385_916)" stroke-width="3" stroke-linecap="round" stroke-linejoin="round"/><path d="M418.455 466.75C416.351 464.809 414.623 462.498 413.355 459.932" stroke="url(#paint18_linear_385_916)" stroke-width="3" stroke-linecap="round" stroke-linejoin="round"/><path d="M409.288 409.145C412.392 405.856 415.831 402.902 419.55 400.329" stroke="url(#paint19_linear_385_916)" stroke-width="3" stroke-linecap="round" stroke-linejoin="round"/><path d="M393.176 378.888 387 372.654" stroke="url(#paint20_linear_385_916)" stroke-width="3" stroke-linecap="round" stroke-linejoin="round"/><path d="M377.047 339.19 382.241 331.19" stroke="url(#paint21_linear_385_916)" stroke-width="3" stroke-linecap="round" stroke-linejoin="round"/><path d="M349.781 310.222 340.254 307.527" stroke="url(#paint22_linear_385_916)" stroke-width="3" stroke-linecap="round" stroke-linejoin="round"/><path d="M343.892 256.615 348.505 243.755" stroke="url(#paint23_linear_385_916)" stroke-width="3" stroke-linecap="round" stroke-linejoin="round"/><path d="M318.713 220.11C315.235 218.978 311.843 217.595 308.564 215.972" stroke="url(#paint24_linear_385_916)" stroke-width="3" stroke-linecap="round" stroke-linejoin="round"/><g opacity="0.1"><path d="M390.491 614.933C383.691 617.476 382.082 627.749 380.437 634.099 378.315 642.287 376.397 650.542 374.387 658.758 370.287 675.522 366.199 692.287 361.879 708.997 357.641 725.39 353.257 741.744 348.729 758.06 346.463 766.217 344.163 774.364 341.829 782.502 339.465 790.767 335.99 799.38 335.157 807.942 334.472 814.99 345.214 817.501 348.347 811.514 352.168 804.214 353.808 795.347 356.114 787.453 358.488 779.327 360.815 771.187 363.093 763.033 367.76 746.421 372.279 729.766 376.65 713.069 380.935 696.692 385.132 680.284 389.072 663.82 391.043 655.584 392.878 647.314 394.72 639.05 396.134 632.708 399.645 621.209 394.55 616.006 394.033 615.479 393.383 615.101 392.668 614.912 391.954 614.723 391.202 614.73 390.491 614.933L390.491 614.933Z" fill="#171717"/></g><g opacity="0.1"><path d="M523.339 621.061C520.939 626.046 523.012 632.095 524.087 637.28 525.405 643.63 526.72 649.974 527.912 656.349 530.296 669.104 532.889 681.786 534.895 694.61 538.895 720.19 543.064 745.61 545.579 771.398 545.985 775.555 548.844 779.132 553.314 779.132 557.158 779.132 561.486 775.578 561.048 771.398 558.286 745.053 554.886 718.539 549.532 692.581 546.932 679.965 544.057 667.272 540.711 654.832 538.947 648.278 537.054 641.751 535.151 635.232 533.611 629.962 532.408 623.177 527.636 619.932 526.916 619.515 526.06 619.399 525.254 619.61 524.449 619.821 523.76 620.341 523.336 621.058L523.339 621.061Z" fill="#171717"/></g><g opacity="0.1"><path d="M480.267 544.655C476.623 548.923 478.454 554.97 479.015 560.11 479.673 566.146 480.705 572.11 481.646 578.11 483.565 590.348 485.022 602.61 486.416 614.91 486.943 619.564 490.024 623.582 495.088 623.582 499.303 623.582 504.369 619.588 503.76 614.91 502.052 601.81 499.676 588.81 496.836 575.904 495.533 569.654 493.883 563.482 491.893 557.417 490.161 552.328 488.932 545.979 483.551 543.788 482.976 543.617 482.366 543.608 481.787 543.761 481.208 543.914 480.682 544.223 480.267 544.656L480.267 544.655Z" fill="#171717"/></g><g opacity="0.1"><path d="M414.813 502.68C411.586 510.768 410.768 520.033 409.064 528.572 407.264 537.606 405.07 546.493 402.884 555.435 400.773 564.069 398.733 572.705 396.384 581.28 395.21 585.565 393.993 589.837 392.732 594.096 391.35 598.761 389.37 603.396 389.348 608.308 389.308 617.068 400.457 619.143 404.984 612.543 407.695 608.591 408.615 603.405 409.94 598.843 411.265 594.281 412.545 589.688 413.769 585.088 416.049 576.52 418.34 567.888 420.082 559.193 421.827 550.477 423.282 541.665 424.72 532.893 426.22 523.708 428.563 513.7 427.62 504.417 426.857 496.954 417.585 495.746 414.82 502.684L414.813 502.68Z" fill="#171717"/></g><g opacity="0.1"><path d="M285.946 129.278C279.384 133.778 280.707 145.093 281.715 151.91 282.934 160.812 286.081 169.342 290.937 176.903 296.264 185.151 309.654 177.171 304.048 169.24 299.643 163.23 296.393 156.454 294.463 149.257 292.997 143.315 293.945 134.465 289.695 129.757 289.21 129.276 288.58 128.968 287.902 128.88 287.224 128.793 286.537 128.931 285.946 129.273L285.946 129.278Z" fill="#171717"/></g><g opacity="0.1"><path d="M611.028 126.151C609.858 127.53 608.512 128.488 607.899 130.267 607.224 132.224 607.29 134.667 607.145 136.711 606.939 141.475 607.376 146.246 608.445 150.894 610.363 159.965 613.916 168.611 618.929 176.41 623.746 184.018 636.016 176.799 630.991 169.36 626.585 162.914 623.311 155.763 621.31 148.216 620.4 144.428 619.683 140.597 619.162 136.736 618.533 132.736 618.079 130.136 615.883 126.777 614.877 125.235 612.383 124.552 611.024 126.151L611.028 126.151Z" fill="#171717"/></g></g></svg>