<svg width="960" height="960" viewBox="0 0 960 960" xmlns="http://www.w3.org/2000/svg" xmlns:xlink="http://www.w3.org/1999/xlink" fill="none" overflow="hidden"><defs><linearGradient x1="653.205" y1="398.395" x2="653.205" y2="723.255" gradientUnits="userSpaceOnUse" id="paint0_linear_46_107"><stop offset="0" stop-color="#FFB800"/><stop offset="1" stop-color="#FF7F0A"/></linearGradient><linearGradient x1="571.643" y1="706.209" x2="571.643" y2="821.569" gradientUnits="userSpaceOnUse" id="paint1_linear_46_107"><stop offset="0" stop-color="#FFB800"/><stop offset="1" stop-color="#FF7F0A"/></linearGradient><linearGradient x1="641.402" y1="672.186" x2="641.402" y2="757.693" gradientUnits="userSpaceOnUse" id="paint2_linear_46_107"><stop offset="0" stop-color="#FFB800"/><stop offset="1" stop-color="#FF7F0A"/></linearGradient><linearGradient x1="291.737" y1="353.049" x2="291.737" y2="723.254" gradientUnits="userSpaceOnUse" id="paint3_linear_46_107"><stop offset="0" stop-color="#FFB800"/><stop offset="1" stop-color="#FF7F0A"/></linearGradient><linearGradient x1="383.277" y1="703.299" x2="383.277" y2="822.874" gradientUnits="userSpaceOnUse" id="paint4_linear_46_107"><stop offset="0" stop-color="#FFB800"/><stop offset="1" stop-color="#FF7F0A"/></linearGradient><linearGradient x1="210.089" y1="96.29" x2="210.089" y2="162.336" gradientUnits="userSpaceOnUse" id="paint5_linear_46_107"><stop offset="0" stop-color="#FFB800"/><stop offset="1" stop-color="#FF7F0A"/></linearGradient><linearGradient x1="603.338" y1="122.81" x2="603.338" y2="164.22" gradientUnits="userSpaceOnUse" id="paint6_linear_46_107"><stop offset="0" stop-color="#FFB800"/><stop offset="1" stop-color="#FF7F0A"/></linearGradient><clipPath id="clip0_46_107"><rect x="0" y="0" width="960" height="960" fill="#FFFFFF"/></clipPath><clipPath id="clip1_46_107"><rect x="0" y="0" width="885" height="773" fill="#FFFFFF" transform="translate(38 94)"/></clipPath></defs><g clip-path="url(#clip0_46_107)"><g clip-path="url(#clip1_46_107)"><path d="M530.465 644.257C535.666 653.422 540.856 662.589 546.036 671.757 543.396 673.192 541.015 675.059 538.992 677.282 534.714 668.445 528.788 660.507 521.531 653.896L521.344 653.756C519.875 655.563 517.873 656.861 515.624 657.464 513.375 658.067 510.992 657.945 508.817 657.115 506.564 656.131 504.657 654.497 503.337 652.424 502.018 650.35 501.347 647.93 501.41 645.474 501.543 643.02 502.314 640.643 503.645 638.577 504.977 636.511 506.823 634.828 509.003 633.693 510.778 632.74 512.744 632.198 514.756 632.105 516.769 632.012 518.776 632.371 520.632 633.157 525.216 635.217 527.992 639.871 530.465 644.257ZM478 723.253C493.927 723.313 509.836 722.167 525.59 719.824 544.531 717.027 563.17 712.468 581.264 706.207 588.934 703.551 596.485 700.585 603.915 697.307 606.256 696.28 608.581 695.219 610.89 694.123L610.715 693.738C610.491 690.849 610.273 687.988 610.056 685.147 609.832 682.207 609.61 679.288 609.385 676.382 608.463 664.107 607.553 652.051 606.585 639.407L606.655 638.789C675.705 646.756 729.348 613.782 782.967 570.789 832.69 530.91 858.071 465.242 859.016 400.379L858.164 400.367C840.982 400.044 824.094 399.722 807.207 399.4 790.47 399.08 773.734 398.761 756.711 398.442L755.871 398.395C754.447 423.229 750.191 447.572 738.702 469.395 716.412 511.759 669.499 537.233 622.027 543.415 574.729 549.561 526.779 538.936 481.546 523.761L482.001 522.396C484.162 518.337 481.138 513.077 476.962 511.164 473.495 509.589 469.599 509.636 465.762 510.009 464.962 510.079 464.155 510.161 463.362 510.254 458.036 510.867 452.713 511.477 447.394 512.085L447.546 513.438C447.546 513.438 482.538 639.409 478.012 722.153L478 723.253ZM708.472 529.455C725.63 517.979 738.503 507.947 747.725 494.217 756.963 480.465 762.43 463.172 765.153 437.348L761.673 436.982C758.983 462.494 753.622 479.162 744.821 492.266 736.004 505.392 723.628 515.109 706.527 526.546 672.681 549.183 625.284 558.62 579.258 551.77L578.743 555.231C625.502 562.19 673.803 552.642 708.472 529.455Z" fill="url(#paint0_linear_46_107)" fill-rule="evenodd" clip-rule="evenodd"/><path d="M834.02 351.534 854.957 351.184C857.917 367.411 859.276 383.89 859.016 400.384L858.164 400.372C823.954 399.73 790.91 399.089 756.711 398.447L755.871 398.4C756.734 383.377 756.559 368.179 756.326 353.26L756.431 352.887C762.531 352.794 768.573 352.687 774.592 352.587 794.514 352.234 814.121 351.884 834.02 351.534Z" fill="#171717"/><path d="M652.552 710.353C665.359 721.737 673.325 740.633 671.506 757.697 662.396 775.928 646.137 790.097 627.929 799.397 622.498 802.156 616.895 804.563 611.156 806.605L610.956 805.485C623.81 780.069 616.846 749.813 604.284 726.73 599.199 717.399 591.664 708.208 581.258 706.213 588.924 703.565 596.475 700.598 603.91 697.313L603.98 697.465C620.861 693.335 639.57 698.817 652.552 710.353Z" fill="#171717"/><path d="M604.286 726.729C616.848 749.812 623.812 780.068 610.958 805.484L611.158 806.604C596.508 811.853 581.065 814.979 565.634 817.253 554.577 818.886 542.563 820.367 529.907 821.569L529.72 819.621C526.431 786.461 525.053 753.139 525.591 719.821 544.531 717.027 563.17 712.469 581.263 706.209 591.666 708.207 599.2 717.4 604.286 726.729Z" fill="url(#paint1_linear_46_107)"/><path d="M610.887 694.128 610.712 693.743C610.257 687.864 609.826 682.102 609.382 676.387L610.572 676.305C630.004 666.647 655.502 674.777 668.285 692.305 681.068 709.833 681.827 734.435 673.102 754.299 672.602 755.442 672.064 756.573 671.502 757.693 673.322 740.629 665.355 721.733 652.548 710.349 639.566 698.813 620.857 693.331 603.979 697.46L603.909 697.308C606.257 696.284 608.583 695.224 610.887 694.128Z" fill="url(#paint2_linear_46_107)"/><path d="M529.719 819.621 529.906 821.569C498.95 824.497 464.145 825.686 430.074 822.875L430.121 822.327C422.125 788.537 424.574 753.115 437.143 720.746L437.178 720.478C450.71 722.295 464.346 723.222 478 723.254 493.926 723.314 509.835 722.168 525.589 719.825 525.05 753.142 526.429 786.463 529.719 819.621L529.719 819.621Z" fill="#171717"/><path d="M356.917 652.815C319.779 655.894 295.879 655.615 255.65 649.115 225.767 644.274 192.035 630.744 167.26 613.353 137.272 592.323 117.793 558.381 109.815 522.631 101.837 486.881 104.625 449.416 112.766 413.713 117.64 393.139 123.759 372.881 131.09 353.049L131.662 353.259C152.198 362.627 173.577 370.027 195.511 375.359L196.841 375.686C193.062 390.721 190.962 406.281 189.434 421.724 187.734 438.847 186.67 456.156 188.792 473.232 190.914 490.308 196.362 507.256 206.685 521.032 220.938 540.079 243.345 551.592 266.323 557.75 318.671 571.77 380.385 560.293 422.842 526.619L422.609 526.082C420.183 523.446 421.478 518.874 424.3 516.669 426.106 515.352 428.202 514.488 430.412 514.15 431.742 513.882 433.106 513.718 434.448 513.567 438.764 513.065 443.079 512.571 447.395 512.086L447.547 513.439C447.547 513.439 482.539 639.41 478.013 722.154L478.001 723.254C464.347 723.222 450.709 722.295 437.177 720.478 413.877 717.396 391.012 711.631 369.036 703.3 365.199 701.842 361.397 700.302 357.629 698.681L358.341 697.048C358.364 689.186 358.271 681.827 358.026 674.455 357.804 667.667 357.466 660.855 356.976 653.623L356.917 652.815Z" fill="url(#paint3_linear_46_107)"/><path d="M437.177 720.477 437.142 720.745C424.574 753.114 422.125 788.535 430.12 822.326L430.073 822.874C393.845 819.874 358.445 812.365 329.378 797.61L332.691 797.132C332.209 779.904 335.166 762.752 341.391 746.681 347.616 730.61 356.982 715.941 368.943 703.532L369.036 703.299C391.012 711.632 413.877 717.396 437.177 720.477L437.177 720.477Z" fill="url(#paint4_linear_46_107)"/><path d="M357.628 698.677C361.395 700.299 365.198 701.838 369.035 703.296L368.942 703.529C356.981 715.938 347.615 730.607 341.39 746.678 335.166 762.75 332.208 779.901 332.69 797.129L329.377 797.607C312.534 789.057 297.814 778.081 286.302 764.143 274.685 750.088 281.263 719.062 292.502 704.703 307.693 685.32 322.67 674 356.985 674.485L358.023 674.45C358.268 681.822 358.361 689.182 358.338 697.043L357.628 698.677Z" fill="#171717"/><path d="M203.443 336.266C205.717 337.561 207.945 338.863 210.126 340.173 204.28 351.433 199.819 363.358 196.841 375.69L195.511 375.363C173.577 370.032 152.198 362.632 131.662 353.263L131.09 353.053C136.339 338.485 141.972 324.045 147.59 309.616 151.567 311.156 155.606 312.805 159.709 314.562 174.682 320.972 189.283 328.218 203.443 336.266L203.443 336.266Z" fill="#171717"/><path d="M465.699 509.173C461.325 495.13 464.008 479.92 467.729 465.69 471.45 451.46 476.185 437.19 475.847 422.49 475.439 404.714 467.601 388.221 456.52 374.038 451.994 368.293 447.021 362.915 441.648 357.953" stroke="#171717" stroke-width="3.499" stroke-linecap="round" stroke-linejoin="round"/><path d="M430.26 513.442C418.713 495.433 406.684 477.746 394.172 460.383 385.668 448.567 376.948 436.911 368.01 425.414" stroke="#171717" stroke-width="3.499" stroke-linecap="round" stroke-linejoin="round"/><path d="M358.83 427.653C360.796 427.022 362.71 426.242 364.557 425.32 373.603 420.884 380.79 413.392 384.845 404.169 388.901 394.945 389.564 384.585 386.718 374.92" stroke="#171717" stroke-width="3.499" stroke-linecap="round" stroke-linejoin="round"/><path d="M383.429 373.217C384.549 373.695 385.692 374.127 386.847 374.5 392.827 376.458 399.139 377.2 405.411 376.683 411.682 376.166 417.787 374.401 423.367 371.491 429.444 368.21 434.728 363.636 438.846 358.091 442.964 352.546 445.815 346.166 447.2 339.399" stroke="#171717" stroke-width="3.499" stroke-linecap="round" stroke-linejoin="round"/><path d="M457.389 373.358C472.004 372.588 485.336 360.878 487.96 346.484 490.584 332.09 482.268 316.414 468.866 310.536 476.004 301.753 475.466 287.698 467.7 279.487 459.934 271.276 445.923 269.958 436.756 276.587 441.69 265.623 434.516 251.008 422.806 248.22 411.096 245.432 398.106 255.22 397.554 267.232 394.591 258.857 384.945 253.865 376.162 255.113 367.379 256.361 359.902 263.068 356.473 271.244 353.044 279.42 353.289 288.833 355.843 297.336 349.779 295.51 343.304 295.563 337.27 297.488 331.236 299.412 325.926 303.118 322.039 308.117 318.151 313.117 315.868 319.176 315.489 325.498 315.111 331.82 316.655 338.108 319.918 343.536 307.053 346.674 294.642 354.558 289.393 366.712 284.144 378.866 288.273 395.289 300.229 400.992 285.719 406.999 278.429 426.209 285.299 440.346 292.169 454.483 311.776 460.618 325.481 452.908 320.011 462.974 324.921 477.239 335.43 481.8 345.939 486.361 359.714 480.2 363.33 469.331 365.786 471.499 368.739 473.028 371.928 473.781 375.116 474.533 378.441 474.488 381.607 473.647 387.894 471.909 391.988 466.812 393.912 460.572" stroke="#171717" stroke-width="3.499" stroke-linecap="round" stroke-linejoin="round"/><path d="M442.985 369.905C434.658 371.488 427.027 375.61 421.138 381.705 419.75 383.14 418.42 384.819 418.269 386.79 418.082 389.146 419.575 391.257 421.01 393.135 429.035 403.657 437.208 414.065 445.528 424.359 443.475 426.342 441.415 428.321 439.346 430.296" stroke="#171717" stroke-width="3.499" stroke-linecap="round" stroke-linejoin="round"/><path d="M440.278 391.449 435.694 383.716" stroke="#171717" stroke-width="3.499" stroke-linecap="round" stroke-linejoin="round"/><path d="M407.304 407.661C405.659 405.107 404.004 402.541 402.358 399.986" stroke="#171717" stroke-width="3.499" stroke-linecap="round" stroke-linejoin="round"/><path d="M445.773 437.043C443.517 437.713 441.217 438.228 438.891 438.583 435.613 439.143 432.291 439.528 429.023 440.228 423.471 441.418 417.802 443.728 414.455 448.334 413.503 449.678 412.749 451.15 412.216 452.708 411.395 455.203 410.943 457.804 410.875 460.43 410.53 466.27 411.888 472.084 414.782 477.168 417.147 480.864 420.455 483.864 424.364 485.859 428.273 487.853 432.643 488.771 437.025 488.517 438.672 488.418 440.303 488.136 441.889 487.677 446.872 486.096 451.22 482.966 454.302 478.743 457.383 474.521 459.037 469.425 459.023 464.197" stroke="#171717" stroke-width="3.499" stroke-linecap="round" stroke-linejoin="round"/><path d="M438.9 438.676 439.985 449.092C436.323 449.244 432.68 449.562 429.056 450.048 423.811 450.734 418.617 451.766 413.508 453.139" stroke="#171717" stroke-width="3.499" stroke-linecap="round" stroke-linejoin="round"/><path d="M429.152 450.7C428.295 463.716 431.013 476.718 437.014 488.3" stroke="#171717" stroke-width="3.499" stroke-linecap="round" stroke-linejoin="round"/><path d="M422.608 526.086C420.182 523.45 421.477 518.878 424.299 516.673 426.105 515.357 428.201 514.493 430.411 514.154 431.741 513.886 433.105 513.722 434.447 513.571 438.763 513.069 443.079 512.576 447.394 512.09 452.713 511.483 458.036 510.873 463.362 510.259 464.155 510.166 464.962 510.084 465.762 510.014 469.599 509.641 473.495 509.594 476.962 511.169 481.138 513.082 484.162 518.342 482.001 522.401" stroke="#171717" stroke-width="3.499" stroke-linecap="round" stroke-linejoin="round"/><path d="M481.057 523.6C481.22 523.658 481.384 523.705 481.547 523.763 526.78 538.938 574.73 549.563 622.028 543.417 669.5 537.235 716.413 511.761 738.703 469.397 750.192 447.574 754.449 423.231 755.872 398.397 756.735 383.374 756.56 368.176 756.327 353.257" stroke="#171717" stroke-width="3.499" stroke-linecap="round" stroke-linejoin="round"/><path d="M756.431 352.888C762.531 352.795 768.573 352.688 774.592 352.588 794.514 352.238 814.121 351.888 834.02 351.538L854.957 351.188" stroke="#171717" stroke-width="3.499" stroke-linecap="round" stroke-linejoin="round"/><path d="M587.922 635.7C594.291 637.065 600.535 638.095 606.654 638.791 675.705 646.757 729.347 613.783 782.966 570.791 832.69 530.912 858.066 465.244 859.015 400.381 859.275 383.887 857.915 367.408 854.956 351.181" stroke="#171717" stroke-width="3.499" stroke-linecap="round" stroke-linejoin="round"/><path d="M210.126 340.174C204.28 351.433 199.819 363.359 196.841 375.691 193.062 390.726 190.962 406.291 189.434 421.729 187.734 438.852 186.67 456.161 188.792 473.237 190.914 490.313 196.362 507.261 206.685 521.037 220.938 540.084 243.345 551.597 266.323 557.755 318.671 571.775 380.385 560.298 422.842 526.624" stroke="#171717" stroke-width="3.499" stroke-linecap="round" stroke-linejoin="round"/><path d="M210.126 340.174C207.944 338.868 205.717 337.566 203.443 336.267 189.285 328.218 174.686 320.971 159.715 314.56 155.621 312.799 151.581 311.15 147.596 309.614" stroke="#171717" stroke-width="3.499" stroke-linecap="round" stroke-linejoin="round"/><path d="M147.599 309.614C141.977 324.042 136.343 338.482 131.094 353.051 123.764 372.883 117.645 393.142 112.77 413.715 104.629 449.415 101.853 486.895 109.819 522.633 117.785 558.371 137.276 592.325 167.264 613.355 192.038 630.746 225.77 644.276 255.654 649.117 295.883 655.617 319.782 655.894 356.921 652.817 361.19 652.467 365.621 652.071 370.288 651.627" stroke="#171717" stroke-width="3.499" stroke-linecap="round" stroke-linejoin="round"/><path d="M356.975 653.619C357.465 660.851 357.803 667.662 358.025 674.451 358.27 681.823 358.363 689.183 358.34 697.044" stroke="#171717" stroke-width="3.499" stroke-linecap="round" stroke-linejoin="round"/><path d="M606.584 639.413C607.552 652.057 608.462 664.113 609.384 676.388 609.827 682.103 610.259 687.865 610.714 693.744" stroke="#171717" stroke-width="3.499" stroke-linecap="round" stroke-linejoin="round"/><path d="M351.072 695.773C353.241 696.764 355.434 697.744 357.627 698.673 361.395 700.295 365.197 701.834 369.034 703.292 391.01 711.625 413.876 717.39 437.175 720.473 450.708 722.291 464.345 723.22 477.999 723.253 493.926 723.313 509.835 722.167 525.588 719.824 544.529 717.03 563.167 712.473 581.26 706.212 588.924 703.564 596.474 700.598 603.911 697.312 606.255 696.286 608.58 695.225 610.886 694.128 612.846 693.207 614.805 692.25 616.741 691.282" stroke="#171717" stroke-width="3.499" stroke-linecap="round" stroke-linejoin="round"/><path d="M356.986 674.486C322.671 673.996 307.694 685.322 292.508 704.707 281.264 719.065 274.685 750.091 286.303 764.147 297.815 778.085 312.535 789.061 329.378 797.611 358.445 812.366 393.845 819.877 430.078 822.875 464.148 825.686 498.954 824.496 529.91 821.569 542.565 820.369 554.579 818.886 565.637 817.253 581.068 814.979 596.512 811.853 611.161 806.604 616.899 804.563 622.499 802.156 627.929 799.4 646.136 790.1 662.396 775.932 671.506 757.7 672.066 756.58 672.606 755.449 673.106 754.306 681.831 734.442 681.072 709.855 668.289 692.312 655.506 674.769 630.008 666.651 610.576 676.312" stroke="#171717" stroke-width="3.499" stroke-linecap="round" stroke-linejoin="round"/><path d="M447.546 513.441C447.546 513.441 482.538 639.412 478.012 722.156" stroke="#171717" stroke-width="3.499" stroke-linecap="round" stroke-linejoin="round"/><path d="M203.826 335.6C212.212 332.742 220.552 329.616 228.285 325.289 230.734 323.924 233.207 322.35 234.677 319.947 236.147 317.544 236.287 314.127 234.277 312.155 232.267 310.183 229.077 310.335 226.334 310.884 219.767 312.184 213.62 314.978 207.555 317.836 207.228 317.988 206.913 318.136 206.587 318.291" stroke="#171717" stroke-width="3.499" stroke-linecap="round" stroke-linejoin="round"/><path d="M207.28 317.231C217.358 303.887 226.969 289.786 231.751 273.783 232.463 271.415 232.777 268.254 230.643 267.03 228.882 266.015 226.677 267.077 225.033 268.266 212.191 277.566 204.248 293.472 196.071 305.696 203.839 292.376 212.109 280.096 217.859 266.155 218.554 264.658 218.961 263.044 219.059 261.396 219.094 260.571 218.927 259.75 218.574 259.004 218.22 258.258 217.69 257.61 217.029 257.115 214.475 255.447 211.115 257.278 208.864 259.331 197.048 270.12 190.657 285.657 182.783 300.085 190.108 286.205 193.283 272.371 195.007 257.92 195.357 254.969 195.182 251.248 192.476 250.02 191.768 249.751 191.007 249.651 190.254 249.728 189.5 249.805 188.775 250.057 188.137 250.463 186.859 251.276 185.737 252.311 184.824 253.519 170.824 270.093 166.372 290.867 160.353 313.087" stroke="#171717" stroke-width="3.499" stroke-linecap="round" stroke-linejoin="round"/><path d="M774.579 351.9C764.373 344.221 756.164 334.2 750.645 322.682 744.218 297.966 772.608 323.708 780.05 329.19" stroke="#171717" stroke-width="3.499" stroke-linecap="round" stroke-linejoin="round"/><path d="M801.199 317.599C799.904 297.84 797.21 264.199 810.599 264.33 820.735 264.435 819.079 310.788 817.971 323.7 819.277 308.432 829.927 270.442 838.22 273.02 850.759 276.939 835.969 321.764 834.02 351.53L834.02 351.577" stroke="#171717" stroke-width="3.499" stroke-linecap="round" stroke-linejoin="round"/><path d="M801.489 322.293C801.419 321.138 801.337 319.893 801.256 318.572" stroke="#171717" stroke-width="3.499" stroke-linecap="round" stroke-linejoin="round"/><path d="M801.641 326.049C801.641 325.816 801.629 325.594 801.618 325.349 801.607 325.104 801.606 324.859 801.595 324.603" stroke="#171717" stroke-width="3.499" stroke-linecap="round" stroke-linejoin="round"/><path d="M801.594 324.6C801.606 324.857 801.617 325.1 801.617 325.346" stroke="#171717" stroke-width="3.499" stroke-linecap="round" stroke-linejoin="round"/><path d="M801.593 324.6C801.571 323.867 801.536 323.097 801.488 322.291" stroke="#171717" stroke-width="3.499" stroke-linecap="round" stroke-linejoin="round"/><path d="M801.256 318.572C801.361 319.872 801.431 321.103 801.489 322.293" stroke="#171717" stroke-width="3.499" stroke-linecap="round" stroke-linejoin="round"/><path d="M801.255 318.572C801.243 318.257 801.22 317.93 801.197 317.604" stroke="#171717" stroke-width="3.499" stroke-linecap="round" stroke-linejoin="round"/><path d="M780.2 328.976C781.46 315.476 770.484 267.67 783.046 267.262 794.127 266.912 799.62 297.262 801.195 317.604" stroke="#171717" stroke-width="3.499" stroke-linecap="round" stroke-linejoin="round"/><path d="M489.104 423.828C491.74 417.331 494.374 410.831 497.004 404.328" stroke="#171717" stroke-width="3.499" stroke-linecap="round" stroke-linejoin="round"/><path d="M493.875 442.653 535.9 420.223" stroke="#171717" stroke-width="3.499" stroke-linecap="round" stroke-linejoin="round"/><path d="M492.824 457.035C501.63 461.736 510.441 466.44 519.255 471.148" stroke="#171717" stroke-width="3.499" stroke-linecap="round" stroke-linejoin="round"/><path d="M368.942 703.53C356.982 715.939 347.615 730.608 341.391 746.68 335.166 762.751 332.208 779.902 332.69 797.13" stroke="#171717" stroke-width="3.499" stroke-miterlimit="10"/><path d="M437.141 720.746C424.573 753.115 422.124 788.537 430.119 822.327" stroke="#171717" stroke-width="3.499" stroke-miterlimit="10"/><path d="M525.59 719.684 525.59 719.824C525.052 753.142 526.43 786.464 529.719 819.624" stroke="#171717" stroke-width="3.499" stroke-miterlimit="10"/><path d="M580.83 706.131C580.97 706.154 581.122 706.178 581.262 706.213 591.662 708.213 599.201 717.399 604.287 726.73 616.849 749.813 623.813 780.069 610.959 805.485" stroke="#171717" stroke-width="3.499" stroke-miterlimit="10"/><path d="M603.982 697.464C620.86 693.335 639.569 698.817 652.551 710.353 665.358 721.737 673.324 740.633 671.505 757.697 671.482 757.942 671.458 758.175 671.423 758.42" stroke="#171717" stroke-width="3.499" stroke-miterlimit="10"/><path d="M131.663 353.261C152.2 362.629 173.578 370.029 195.512 375.361" stroke="#171717" stroke-width="3.499" stroke-linecap="round" stroke-linejoin="round"/><path d="M756.711 398.447C790.911 399.089 823.954 399.73 858.164 400.372" stroke="#171717" stroke-width="3.499" stroke-linecap="round" stroke-linejoin="round"/><path d="M546.152 671.955C546.118 671.886 546.079 671.819 546.035 671.755 540.856 662.587 535.666 653.42 530.464 644.255 527.991 639.869 525.215 635.215 520.631 633.155 518.776 632.37 516.768 632.01 514.756 632.103 512.744 632.196 510.777 632.738 509.002 633.691 506.823 634.826 504.976 636.51 503.645 638.575 502.314 640.641 501.543 643.018 501.409 645.472 501.347 647.929 502.018 650.349 503.337 652.422 504.656 654.496 506.564 656.129 508.816 657.113 510.992 657.943 513.374 658.065 515.624 657.462 517.873 656.859 519.875 655.561 521.343 653.754 521.498 653.559 521.642 653.357 521.775 653.147" stroke="#171717" stroke-width="3.499" stroke-linecap="round" stroke-linejoin="round"/><path d="M546.099 671.722C546.076 671.734 546.064 671.745 546.041 671.757 543.401 673.19 541.02 675.055 538.996 677.274 534.719 668.437 528.792 660.5 521.535 653.888 521.792 653.853 522.06 653.806 522.316 653.76" stroke="#171717" stroke-width="3.499" stroke-linecap="round" stroke-linejoin="round"/><path d="M524.527 646.143C526.172 645.035 527.817 643.935 529.461 642.843" stroke="#171717" stroke-width="3.499" stroke-linecap="round" stroke-linejoin="round"/><path d="M488.935 523.877C493.645 520.159 500.67 520.452 505.898 523.398 511.126 526.344 514.784 531.48 517.413 536.874 523.261 548.874 524.728 562.634 523.758 575.949 522.788 589.264 519.494 602.286 516.214 615.227 514.526 621.888 512.676 628.854 507.987 633.878 503.578 638.601 497.209 640.973 490.912 642.419 478.125 645.355 464.812 645.098 452.148 641.67 439.484 638.241 427.858 631.748 418.299 622.762 408.739 613.776 401.54 602.575 397.335 590.147 393.131 577.719 392.051 564.447 394.192 551.503 395.367 544.396 397.6 537.275 402.081 531.634 406.562 525.993 413.598 522.034 420.781 522.634" stroke="#171717" stroke-width="3.499" stroke-linecap="round" stroke-linejoin="round"/><path d="M756.155 410.836 857.155 411.678" stroke="#171717" stroke-width="3.499" stroke-linecap="round" stroke-linejoin="round"/><path d="M754.53 421.742 856.33 426.226" stroke="#171717" stroke-width="3.499" stroke-linecap="round" stroke-linejoin="round"/><path d="M127.383 363.409 193.183 388.29" stroke="#171717" stroke-width="3.499" stroke-linecap="round" stroke-linejoin="round"/><path d="M123.241 373.963C144.827 384.946 167.475 393.704 190.835 400.1" stroke="#171717" stroke-width="3.499" stroke-linecap="round" stroke-linejoin="round"/><path d="M292.312 283.611C285.437 284.566 278.869 287.075 273.107 290.946 267.346 294.817 262.541 299.949 259.058 305.953 255.575 311.957 253.505 318.676 253.004 325.599 252.504 332.522 253.587 339.469 256.171 345.911 257.771 349.889 260.112 353.83 263.871 355.881 267.63 357.932 273.061 357.373 275.344 353.745 278 349.525 274.659 343.345 269.803 342.207 264.947 341.069 259.813 344.058 257.203 348.307 254.593 352.556 254.066 357.767 254.278 362.749 254.633 371.095 256.849 379.249 257.694 387.562 258.539 395.875 257.832 404.813 252.989 411.62 248.146 418.427 238.189 422.046 231.045 417.709" stroke="#171717" stroke-width="3.499" stroke-linecap="round" stroke-linejoin="round"/><path d="M53.3416 418.058C60.2226 419.736 65.9636 424.716 69.8216 430.658 73.6796 436.6 75.8516 443.465 77.5666 450.337 80.2186 460.963 81.8876 472.014 80.4266 482.869 78.9656 493.724 74.0866 504.43 65.5146 511.247 60.8936 514.922 54.8056 517.419 49.0926 515.931 43.3796 514.443 38.9776 507.77 41.4396 502.4 44.3026 496.161 54.1276 496.27 58.8806 501.223 63.6336 506.176 64.3926 513.708 63.9806 520.561 63.5686 527.414 62.2576 534.388 63.8616 541.061 66.6716 552.761 78.4196 560.937 90.4066 561.935" stroke="#171717" stroke-width="3.499" stroke-linecap="round" stroke-linejoin="round"/><path d="M167.562 639.048C151.4 630.5 138.106 617.39 129.335 601.348" stroke="#171717" stroke-width="3.499" stroke-linecap="round" stroke-linejoin="round"/><path d="M764.985 618.533C789.987 608.414 811.3 590.896 826.067 568.326" stroke="#171717" stroke-width="3.499" stroke-linecap="round" stroke-linejoin="round"/><path d="M903.527 374.647C913.322 382.168 915.114 398.117 907.227 407.624 903.24 412.433 897.377 415.537 893.901 420.724 888.314 429.068 891.286 441.875 899.978 446.904 903.178 448.757 908.084 449.16 909.865 445.918 911.384 443.153 909.16 439.407 906.104 438.625 903.048 437.843 899.785 439.386 897.61 441.672 892.555 446.985 892.469 455.342 894.174 462.472 895.879 469.602 899.053 476.452 899.474 483.772 900.327 498.449 888.188 512.684 873.56 514.159" stroke="#171717" stroke-width="3.499" stroke-linecap="round" stroke-linejoin="round"/><path d="M616.624 383.8C627.353 382.031 637.806 390.6 641.171 400.943 644.536 411.286 642.243 422.655 638.299 432.787 636.745 436.778 634.839 440.806 631.568 443.571 628.297 446.336 623.331 447.505 619.659 445.302 615.696 442.925 614.63 437.015 617.147 433.139 619.664 429.263 625.058 427.749 629.413 429.293 631.57 430.144 633.466 431.545 634.914 433.356 636.362 435.167 637.311 437.325 637.666 439.616 638.823 446.572 635.009 453.324 630.955 459.094 626.901 464.864 622.295 470.75 621.544 477.761 620.793 484.772 626.045 492.934 633.051 492.152" stroke="#171717" stroke-width="3.499" stroke-linecap="round" stroke-linejoin="round"/><path d="M865.078 329.208C871.262 320.248 875.071 309.867 876.149 299.034 877.228 288.202 875.539 277.273 871.243 267.271" stroke="#171717" stroke-width="3.499" stroke-linecap="round" stroke-linejoin="round"/><path d="M890.905 308.018C892.507 304.532 893.337 300.74 893.339 296.904 893.34 293.067 892.514 289.275 890.915 285.787" stroke="#171717" stroke-width="3.499" stroke-linecap="round" stroke-linejoin="round"/><path d="M148.662 278.306C145.262 259.862 156.794 239.806 174.439 233.454" stroke="#171717" stroke-width="3.499" stroke-linecap="round" stroke-linejoin="round"/><path d="M134.384 251.182C132.549 243.226 137.878 234.302 145.753 232.145" stroke="#171717" stroke-width="3.499" stroke-linecap="round" stroke-linejoin="round"/><path d="M380.061 220.648C374.481 195.419 368.902 170.19 363.322 144.961" stroke="#171717" stroke-width="3.499" stroke-linecap="round" stroke-linejoin="round"/><path d="M406.578 219.865 412.269 199.265" stroke="#171717" stroke-width="3.499" stroke-linecap="round" stroke-linejoin="round"/><path d="M355.69 232.329 335.838 214.308 336.75 215.043" stroke="#171717" stroke-width="3.499" stroke-linecap="round" stroke-linejoin="round"/><path d="M303.266 811.172C337.501 832.06 377.145 842.367 417.22 840.8" stroke="#171717" stroke-width="3.499" stroke-linecap="round" stroke-linejoin="round"/><path d="M325.683 846.252C338.983 853.752 354.243 857.051 369.454 855.713" stroke="#171717" stroke-width="3.499" stroke-linecap="round" stroke-linejoin="round"/><path d="M522.724 852.892C572.857 860.204 625.87 844.692 664.157 811.516" stroke="#171717" stroke-width="3.499" stroke-linecap="round" stroke-linejoin="round"/><path d="M589.582 865.139C607.19 863.34 624.107 857.332 638.905 847.621" stroke="#171717" stroke-width="3.499" stroke-linecap="round" stroke-linejoin="round"/><path d="M676.473 707.27C688.941 700.697 701.505 694.085 714.994 690.001 728.483 685.917 743.117 684.475 756.664 688.362 777.129 694.234 793.779 711.71 815.015 713.231 825.298 713.968 835.555 710.747 844.608 705.813 853.661 700.879 861.679 694.282 869.636 687.727" stroke="#171717" stroke-width="3.499" stroke-linecap="round" stroke-linejoin="round"/><path d="M674.436 751.016C681.176 744.839 689.122 740.124 697.774 737.167 706.426 734.211 715.595 733.077 724.707 733.837 750.657 736.156 773.382 753.664 799.327 756.037 816.171 757.496 832.937 752.469 846.2 741.984" stroke="#171717" stroke-width="3.499" stroke-linecap="round" stroke-linejoin="round"/><path d="M638.648 794C648.348 785.991 659.675 780.189 671.842 776.996 684.009 773.803 696.725 773.296 709.107 775.51 739.207 781.11 765.612 802.664 796.23 802.962 831.516 803.306 863.209 775.117 898.321 778.631" stroke="#171717" stroke-width="3.499" stroke-linecap="round" stroke-linejoin="round"/><path d="M290.189 706.115C280.173 697.774 268.24 692.053 255.465 689.467 242.689 686.881 229.471 687.511 217 691.3 199.808 696.718 184.668 708.094 166.956 711.439 154.212 713.845 140.95 711.872 128.638 707.797 116.326 703.722 104.8 697.6 93.3486 691.517" stroke="#171717" stroke-width="3.499" stroke-linecap="round" stroke-linejoin="round"/><path d="M280.773 729.581C266.456 722.698 250.937 715.631 235.29 718.374 225.118 720.157 216.161 725.919 206.621 729.874 188.123 737.463 167.536 738.264 148.504 732.137" stroke="#171717" stroke-width="3.499" stroke-linecap="round" stroke-linejoin="round"/><path d="M288.718 764.863C277.644 755.751 263.444 751.334 249.156 752.555 234.343 753.894 220.83 761.19 206.666 765.726 180.678 773.952 152.641 772.899 127.343 762.749" stroke="#171717" stroke-width="3.499" stroke-linecap="round" stroke-linejoin="round"/><path d="M252.137 157.889C265.406 157.545 279.803 156.789 289.937 148.219 293.477 145.224 296.26 141.436 298.059 137.163 299.858 132.89 300.622 128.253 300.29 123.628 299.958 119.004 298.539 114.523 296.148 110.55 293.757 106.578 290.461 103.227 286.53 100.769 282.599 98.3107 278.143 96.8158 273.524 96.4055 268.906 95.9953 264.256 96.6814 259.953 98.4079 255.65 100.134 251.816 102.853 248.762 106.341 245.708 109.83 243.521 113.99 242.379 118.484 240.232 113.336 236.449 109.038 231.616 106.254 226.782 103.47 221.167 102.354 215.636 103.079 210.106 103.804 204.968 106.329 201.015 110.265 197.063 114.201 194.516 119.328 193.767 124.856 186.147 117.101 174.71 113.786 163.873 114.661 153.036 115.536 142.781 120.253 133.946 126.589 126.489 131.937 118.288 140.257 120.054 150.304 121.574 158.946 127.698 163.096 135.822 162.222 159.556 159.67 183.508 159.67 207.422 159.049L252.137 157.889Z" stroke="url(#paint5_linear_46_107)" stroke-width="3.499" stroke-miterlimit="10"/><path d="M633.876 164.218C637.913 164.233 642.049 164.232 645.844 162.852 648.497 161.887 650.871 160.284 652.756 158.185 654.642 156.085 655.982 153.553 656.657 150.813 657.332 148.073 657.322 145.208 656.628 142.473 655.933 139.737 654.576 137.215 652.675 135.129 650.775 133.042 648.39 131.456 645.731 130.51 643.072 129.565 640.221 129.288 637.43 129.706 634.638 130.123 631.993 131.221 629.727 132.904 627.461 134.586 625.644 136.801 624.437 139.352 622.262 129.652 612.46 122.259 602.537 122.842 592.614 123.425 583.737 131.908 582.713 141.801 582.997 139.064 568.901 137.226 567.089 137.211 562.405 137.173 555.169 138.075 551.758 141.752 545.936 148.03 552.686 155.407 558.227 159.111 567.913 165.585 579.608 164.011 590.685 164.053L633.876 164.218Z" fill="url(#paint6_linear_46_107)"/><path d="M899.209 208.208C907.281 207.493 916.709 205.395 919.882 197.937 923.045 190.495 917.03 181.331 909.129 179.612 901.228 177.893 892.911 182.307 888.129 188.828 889.103 186.129 889.421 183.237 889.059 180.391 888.696 177.545 887.663 174.826 886.044 172.457 884.425 170.089 882.266 168.139 879.746 166.768 877.225 165.397 874.415 164.644 871.547 164.571 868.679 164.499 865.834 165.109 863.248 166.35 860.662 167.592 858.407 169.431 856.67 171.715 854.933 173.998 853.764 176.662 853.258 179.486 852.752 182.31 852.924 185.214 853.76 187.959 847.793 185.732 841.45 183.851 835.134 184.677 828.818 185.503 822.553 189.689 821.124 195.895 817.483 211.708 840.197 208.612 848.885 208.916 865.656 209.5 882.476 209.69 899.209 208.208Z" stroke="#171717" stroke-width="3.499" stroke-linecap="round" stroke-linejoin="round"/><path d="M423.363 371.491C429.837 368.019 435.4 363.067 439.599 357.039L441.642 357.947C447.015 362.909 451.988 368.288 456.514 374.032L457.389 373.355C472.004 372.581 485.324 360.886 487.96 346.481 490.596 332.076 482.266 316.412 468.866 310.533 476.005 301.75 475.468 287.703 467.7 279.484 459.932 271.265 445.924 269.959 436.756 276.584 441.69 265.617 434.504 251.017 422.806 248.217 411.108 245.417 398.102 255.215 397.554 267.229 394.591 258.854 384.945 253.862 376.162 255.11 367.379 256.358 359.914 263.049 356.473 271.241 353.032 279.433 353.289 288.833 355.843 297.333 349.779 295.508 343.304 295.561 337.27 297.485 331.236 299.409 325.926 303.115 322.039 308.115 318.151 313.114 315.868 319.174 315.489 325.495 315.111 331.817 316.655 338.106 319.918 343.533 307.052 346.67 294.642 354.544 289.393 366.709 284.144 378.874 288.273 395.289 300.229 400.989 285.719 406.996 278.429 426.206 285.299 440.343 292.169 454.48 311.776 460.615 325.481 452.905 320.01 462.971 324.921 477.237 335.43 481.797 345.939 486.357 359.714 480.199 363.33 469.328 365.786 471.497 368.739 473.026 371.928 473.779 375.116 474.532 378.441 474.486 381.607 473.644 387.893 471.906 391.987 466.809 393.912 460.569L394.169 460.382C385.661 448.571 376.941 436.915 368.007 425.413L364.554 425.32C373.601 420.884 380.787 413.392 384.843 404.169 388.898 394.946 389.561 384.586 386.715 374.92L386.843 374.5C392.824 376.458 399.136 377.2 405.407 376.683 411.679 376.167 417.784 374.401 423.363 371.491ZM432.281 275.67C434.097 270.637 433.208 265.1 430.665 260.626 428.123 256.152 423.821 252.553 418.567 251.537L417.903 254.973C421.98 255.761 425.492 258.604 427.623 262.354 429.754 266.105 430.399 270.577 428.99 274.482L432.281 275.67ZM467.248 289.491C469.202 294.567 469.275 300.477 466.647 305.464L463.551 303.833C465.63 299.889 465.639 295.053 463.983 290.748 462.326 286.442 459.077 282.86 454.891 281.326L456.095 278.041C461.388 279.98 465.295 284.415 467.248 289.491ZM482.947 335.531C481.098 329.257 477.322 323.724 472.152 319.716L470.008 322.481C474.597 326.039 477.95 330.951 479.59 336.52 481.231 342.09 481.077 348.035 479.15 353.512L482.45 354.673C484.622 348.503 484.795 341.806 482.947 335.531Z" fill="#171717" fill-rule="evenodd" clip-rule="evenodd"/><g opacity="0.1"><path d="M129.055 359.455C125.668 367.087 122.797 374.938 120.464 382.955 118.205 391.018 116.656 399.246 114.55 407.343 110.162 423.87 107.241 440.752 105.823 457.793 103.5 487.463 107.139 518.616 117.632 546.534 128.062 574.285 145.212 598.452 168.947 616.354 192.387 634.033 221.102 644.471 249.881 649.304 288.274 655.751 327.114 653.483 365.744 650.919 371.655 650.526 376.712 646.158 376.712 639.95 376.712 634.297 371.687 628.612 365.744 628.981 307.416 632.608 243.663 636.617 191.632 604.921 145.28 576.684 125.138 521.569 124.355 469.321 124.1 451.107 124.857 432.893 126.624 414.763 128.362 396.717 132.924 379.082 134.824 361.021 135.136 358.05 130.256 356.682 129.059 359.46L129.055 359.455Z" fill="#171717"/></g><g opacity="0.1"><path d="M370.568 695C370.735 689.693 370.668 684.342 371.156 679.054 371.628 673.932 371.203 667.993 372.866 663.096 377.028 650.841 354.08 651.396 358.492 663.096 360.337 667.99 360.16 673.888 360.813 679.054 361.479 684.332 361.596 689.691 361.943 695 362.303 700.5 370.392 700.595 370.568 695Z" fill="#171717"/></g><g opacity="0.1"><path d="M321.793 792.781C333.614 800.481 348.451 804.791 361.916 808.765 375.617 812.729 389.521 815.955 403.568 818.429 459.885 828.811 517.664 828.385 573.822 817.174 587.812 814.41 601.643 810.963 615.316 806.831 628.239 802.918 641.64 798.61 652.686 790.603 665.008 781.671 672.951 769.185 677.7 754.856 679.74 748.46 681.191 741.89 682.035 735.23 683.118 727.43 683.845 719.902 681.261 712.305 679.435 706.939 671.976 705.469 668.923 710.693 662.882 721.032 662.688 733.709 659.5 745.08 656.678 755.148 652.12 764.546 644.2 771.58 635.2 779.571 622.874 783.24 611.61 786.688 599.11 790.514 586.453 793.764 573.638 796.438 521.748 807.213 468.327 808.43 416 800.03 401.33 797.667 386.789 794.566 372.432 790.738 364.972 788.749 357.504 786.775 350.107 784.559 342.748 782.359 335.381 779.784 327.789 778.559 319.303 777.19 314.029 787.725 321.789 792.781L321.793 792.781Z" fill="#171717"/></g><g opacity="0.1"><path d="M586.028 637.341C598.536 641.948 613.649 641.641 626.819 641.224 666.516 639.984 705.29 628.945 739.688 609.09 784.929 583.055 819.9 542.044 840 494.024 851.268 466.876 857.217 437.816 857.523 408.424 857.694 398.076 841.911 398.143 841.492 408.424 839.557 455.84 821.562 504.024 791.892 541.062 761.168 579.173 718.701 606.052 671.108 617.509 657.647 620.825 643.911 622.898 630.071 623.703 623.028 624.098 615.99 624.119 608.941 623.91 601.969 623.703 594.829 623.029 587.887 623.62 586.229 623.676 584.644 624.316 583.413 625.428 582.183 626.54 581.385 628.052 581.163 629.696 580.941 631.34 581.307 633.01 582.199 634.409 583.09 635.808 584.447 636.847 586.031 637.34L586.028 637.341Z" fill="#171717"/></g><g opacity="0.1"><path d="M371.499 421.712C370.228 425.804 371.837 428.812 373.944 432.212 376.356 436.104 378.821 439.964 381.259 443.84 386.142 451.602 391.325 459.164 396.441 466.773 406.691 482.015 417.363 496.927 427.683 512.125 431.955 518.416 442.223 512.543 437.964 506.116 427.65 490.553 417.733 474.775 407.35 459.26 402.245 451.632 397.186 443.982 391.85 436.512 387.57 430.519 382.934 419.961 374.797 419.203 374.05 419.208 373.323 419.455 372.728 419.909 372.133 420.362 371.701 420.996 371.497 421.715L371.499 421.712Z" fill="#171717"/></g></g></g></svg>