<svg width="960" height="960" viewBox="0 0 960 960" xmlns="http://www.w3.org/2000/svg" xmlns:xlink="http://www.w3.org/1999/xlink" fill="none" overflow="hidden"><defs><linearGradient x1="833.02" y1="342.96" x2="833.02" y2="524.624" gradientUnits="userSpaceOnUse" id="paint0_linear_46_127"><stop offset="0" stop-color="#FFB800"/><stop offset="1" stop-color="#FF7F0A"/></linearGradient><linearGradient x1="239.497" y1="227.165" x2="239.497" y2="532.864" gradientUnits="userSpaceOnUse" id="paint1_linear_46_127"><stop offset="0" stop-color="#FFB800"/><stop offset="1" stop-color="#FF7F0A"/></linearGradient><linearGradient x1="234.504" y1="307.6" x2="234.504" y2="332.743" gradientUnits="userSpaceOnUse" id="paint2_linear_46_127"><stop offset="0" stop-color="#FFB800"/><stop offset="1" stop-color="#FF7F0A"/></linearGradient><clipPath id="clip0_46_127"><rect x="0" y="0" width="960" height="960" fill="#FFFFFF"/></clipPath><clipPath id="clip1_46_127"><rect x="0" y="0" width="864" height="884" fill="#FFFFFF" transform="translate(48 38)"/></clipPath></defs><g clip-path="url(#clip0_46_127)"><g clip-path="url(#clip1_46_127)"><path d="M763.667 342.96 910.345 522.054 755.694 524.624 763.667 342.96Z" fill="url(#paint0_linear_46_127)"/><path d="M520.518 329.027C520.041 328.826 519.604 328.541 519.228 328.185 513.358 323.158 508.046 317.516 503.381 311.354 502.455 310.262 501.753 308.999 501.314 307.636 501.106 306.948 501.09 306.216 501.27 305.52 501.449 304.823 501.816 304.19 502.331 303.688 503.288 303.043 504.414 302.694 505.568 302.682 510.599 302.19 515.629 301.774 520.668 301.512 523.568 301.37 527.492 301.085 529.439 303.787 531.604 306.795 529.122 311.202 528.083 314.177 526.55 318.552 524.906 322.876 523.151 327.148 522.932 327.835 522.518 328.443 521.959 328.898 521.796 329.014 521.609 329.092 521.412 329.128 521.11 329.175 520.802 329.14 520.518 329.027L520.518 329.027Z" fill="#171717"/><path d="M483.236 267.783C483.083 273.623 482.927 279.467 482.766 285.314L482.766 285.664C478.654 285.609 474.137 285.697 471.066 288.431 467.266 291.778 467.326 297.541 467.818 302.626L467.238 302.681C436.091 303.851 404.594 310.161 377.472 325.516 368.753 330.446 360.619 336.345 353.224 343.1L352.972 342.827C352.072 326.094 351.189 310.258 350.293 293.527 350.009 288.19 349.812 282.481 352.612 277.943 356.626 271.414 365.2 269.653 372.833 268.943 384.874 267.827 396.991 267.817 409.087 267.806 414.577 267.806 420.063 267.803 425.546 267.795L482.273 267.762 483.236 267.783Z" fill="#171717"/><path d="M217.853 363.783C227.904 363.477 237.955 363.546 248.005 363.991 251.876 364.155 255.743 364.377 259.605 364.658 262.962 364.899 266.812 365.008 269.142 362.58 271.034 360.601 271.242 357.604 271.351 354.87 271.657 346.886 271.971 338.906 272.292 330.93 272.588 323.154 272.89 315.378 273.2 307.603 273.473 300.79 273.74 293.97 274 287.141 274.153 283.341 274.3 279.551 274.448 275.756 274.601 272.049 274.623 267.969 272.294 265.093 269.352 261.473 264.015 261.243 259.356 261.309 246.656 261.484 192.808 258.892 178.556 259.056 174.674 259.1 170.365 259.318 167.641 262.074 164.601 265.169 164.798 270.09 165.213 274.41 165.771 280.272 166.325 286.13 166.875 291.985 167.455 298.077 168.035 304.172 168.614 310.271 169.49 319.567 170.368 328.863 171.25 338.159 172.184 347.914 173.11 357.665 174.028 367.414 179.573 366.648 185.129 366.003 190.695 365.478 199.731 364.603 208.783 364.038 217.853 363.783ZM425.546 267.3 425.546 267.792C420.056 267.792 414.57 267.796 409.087 267.803 396.987 267.814 384.874 267.825 372.833 268.94 365.199 269.651 356.625 271.412 352.612 277.94 349.812 282.479 350.012 288.187 350.293 293.524 351.193 310.257 352.076 326.093 352.972 342.824L353.224 343.097C337.508 357.478 325.446 375.676 320.152 396.204 312.529 425.743 319.725 458.399 337.792 482.984 344.574 492.163 352.709 500.26 361.918 507L361.831 507.12C362.365 515.125 362.901 523.134 363.439 531.147L260.339 532.864 53.4473 233.333 423.994 227.165 425.546 267.3Z" fill="url(#paint1_linear_46_127)"/><path d="M414.227 529.141 414.249 530.311 363.439 531.153C362.906 523.148 362.37 515.139 361.831 507.126L361.918 507.006C377.408 518.33 395.314 525.907 414.227 529.141L414.227 529.141Z" fill="#171717"/><path d="M272.3 265.093C274.629 267.969 274.608 272.049 274.454 275.756 274.301 279.556 274.154 283.346 274.006 287.141L272.694 287.086C264.928 286.802 257.16 286.66 249.389 286.659 239.503 286.659 229.62 286.892 219.74 287.359 210.094 287.796 200.46 288.463 190.84 289.359 183.106 290.07 175.393 290.92 167.699 291.907L166.89 291.984C166.332 286.122 165.778 280.264 165.228 274.409 164.812 270.089 164.616 265.168 167.656 262.073 170.379 259.317 174.688 259.098 178.571 259.055 192.821 258.891 246.671 261.483 259.371 261.308 264.016 261.243 269.353 261.473 272.3 265.093Z" fill="#171717"/><path d="M249.044 307.6C248.891 315.474 248.746 323.348 248.607 331.223 239.049 331.518 229.502 332.024 219.965 332.743 220.282 324.53 220.403 316.313 220.326 308.092 229.894 307.831 239.467 307.667 249.044 307.6Z" fill="url(#paint2_linear_46_127)"/><path d="M755.694 524.635 755.694 524.624 763.667 342.96 910.345 522.054 887.182 900.333 235.636 920.401 50.3633 568.381 53.4473 233.333 423.993 227.165 425.546 267.302" stroke="#171717" stroke-width="3.109" stroke-linecap="round" stroke-linejoin="round"/><path d="M910.345 522.054 755.694 524.624 734.86 524.974 537.732 528.255 472.901 529.338 414.249 530.311 363.439 531.153 260.341 532.87 53.4473 233.333" stroke="#171717" stroke-width="3.109" stroke-linecap="round" stroke-linejoin="round"/><path d="M260.342 532.87 235.637 920.401" stroke="#171717" stroke-width="3.109" stroke-linecap="round" stroke-linejoin="round"/><path d="M507.383 229.987C511.527 229.725 515.669 229.466 519.807 229.211L519.216 191.579C519.183 189.731 519.26 187.631 520.649 186.417 521.81 185.605 523.216 185.216 524.63 185.317 531.468 185.108 538.302 185.844 544.939 187.504" stroke="#171717" stroke-width="3.109" stroke-linecap="round" stroke-linejoin="round"/><path d="M532.964 202.985C532.811 200.754 532.669 198.523 532.516 196.292" stroke="#171717" stroke-width="3.109" stroke-linecap="round" stroke-linejoin="round"/><path d="M505.83 202.46 505.83 196.281" stroke="#171717" stroke-width="3.109" stroke-linecap="round" stroke-linejoin="round"/><path d="M510.369 245.528C507.778 246.849 504.817 247.255 501.966 246.681 499.116 246.107 496.542 244.587 494.664 242.367" stroke="#171717" stroke-width="3.109" stroke-linecap="round" stroke-linejoin="round"/><path d="M524.816 285.161C523.194 279.705 523.355 273.874 525.275 268.516 526.802 264.04 529.511 260.061 533.116 257 537.206 253.555 542.379 251.324 545.682 247.1 549.521 242.211 550.122 235.6 550.516 229.383 551.675 210.824 552.335 192.24 552.495 173.629" stroke="#171717" stroke-width="3.109" stroke-linecap="round" stroke-linejoin="round"/><path d="M468.865 234.591C468.603 237.959 470.921 241.579 474.3 242.279 478.368 243.132 482.7 239.49 482.7 235.379 482.7 235.248 482.7 235.117 482.689 234.985" stroke="#171717" stroke-width="3.109" stroke-linecap="round" stroke-linejoin="round"/><path d="M468.865 234.591C469.344 233.905 469.576 233.075 469.521 232.24 469.15 232.973 468.927 233.772 468.865 234.591L468.865 234.591Z" stroke="#171717" stroke-width="3.109" stroke-linecap="round" stroke-linejoin="round"/><path d="M550.288 145.635C550.833 144.736 551.136 143.712 551.169 142.661 551.201 141.61 550.961 140.569 550.473 139.638 549.984 138.707 549.263 137.918 548.38 137.348 547.497 136.777 546.481 136.445 545.432 136.383 541.55 136.142 538.509 139.423 535.425 141.783 526.501 148.596 514.325 148.52 503.108 148.924 491.891 149.328 479.354 151.243 472.617 160.224 467.652 166.862 467.171 175.743 467.217 184.033 467.272 194.39 467.764 205.206 463.378 214.6 461.727 218.143 459.397 221.413 458.314 225.176 457.231 228.939 457.745 233.564 460.895 235.894 462.147 236.709 463.658 237.027 465.133 236.787 466.607 236.547 467.939 235.765 468.868 234.594" stroke="#171717" stroke-width="3.109" stroke-linecap="round" stroke-linejoin="round"/><path d="M550.287 145.635C549.687 146.218 549.124 146.839 548.604 147.494 549.29 147.001 549.864 146.367 550.287 145.635L550.287 145.635Z" stroke="#171717" stroke-width="3.109" stroke-linecap="round" stroke-linejoin="round"/><path d="M564.132 154.712C565.612 154.016 566.782 152.799 567.42 151.293 568.058 149.788 568.118 148.1 567.588 146.553 566.221 142.953 561.967 141.008 558.139 141.5 555.14 141.982 552.382 143.435 550.287 145.634" stroke="#171717" stroke-width="3.109" stroke-linecap="round" stroke-linejoin="round"/><path d="M564.132 154.712C563.607 154.832 563.071 154.942 562.546 155.062 563.091 155.042 563.629 154.924 564.132 154.712L564.132 154.712Z" stroke="#171717" stroke-width="3.109" stroke-linecap="round" stroke-linejoin="round"/><path d="M482.766 285.314C482.919 279.474 483.076 273.631 483.236 267.783 483.53 256.989 483.822 246.199 484.111 235.411 484.505 220.745 484.898 206.075 485.292 191.403 485.456 185.366 485.861 178.717 490.049 174.375 494.599 169.65 501.959 169.322 508.499 169.76 521.655 170.66 534.67 173.402 547.848 173.566 549.39 173.588 550.948 173.566 552.496 173.5 564.22 173.008 576.064 169.946 584.835 162.3 587.777 159.73 590.335 155.049 587.624 152.239 585.743 150.27 582.539 150.708 579.881 151.288 574.621 152.426 569.371 153.567 564.133 154.711" stroke="#171717" stroke-width="3.109" stroke-linecap="round" stroke-linejoin="round"/><path d="M467.881 303.3C467.859 303.081 467.837 302.852 467.815 302.622 467.323 297.537 467.268 291.773 471.063 288.427 474.136 285.693 478.653 285.605 482.763 285.66L482.785 285.66C496.785 285.86 510.791 286.06 524.803 286.26 528.456 286.304 532.109 286.355 535.761 286.413 539.326 286.457 543.099 286.566 546.151 288.425 549.203 290.284 551.083 294.56 549.126 297.557" stroke="#171717" stroke-width="3.109" stroke-linecap="round" stroke-linejoin="round"/><path d="M467.236 302.681C436.089 303.851 404.593 310.161 377.471 325.516 368.752 330.446 360.619 336.345 353.224 343.1 337.508 357.481 325.447 375.679 320.153 396.207 312.53 425.746 319.725 458.402 337.792 482.987 344.574 492.166 352.709 500.263 361.918 507.003 377.409 518.327 395.314 525.904 414.227 529.138" stroke="#171717" stroke-width="3.109" stroke-linecap="round" stroke-linejoin="round"/><path d="M547.924 298.022C548.318 298.033 548.711 298.044 549.105 298.066 568.123 298.722 587.371 299.499 605.832 303.72 610.284 304.732 614.682 305.966 619.01 307.42 641.747 315.097 663.01 330.649 671.756 352.992" stroke="#171717" stroke-width="3.109" stroke-linecap="round" stroke-linejoin="round"/><path d="M472.891 528.747 474.433 364.57 497.596 394.426 500.68 440.228 537.733 514.847 537.733 528.233" stroke="#171717" stroke-width="3.109" stroke-linecap="round" stroke-linejoin="round"/><path d="M474.433 364.57 506.608 362.787 544.688 360.666 671.791 353.612 687.496 352.737 708.089 373.833 711.173 430.965 737.42 500.958 537.733 514.847" stroke="#171717" stroke-width="3.109" stroke-linecap="round" stroke-linejoin="round"/><path d="M734.85 524.635 737.42 500.958" stroke="#171717" stroke-width="3.109" stroke-linecap="round" stroke-linejoin="round"/><path d="M352.972 342.829C352.072 326.096 351.189 310.26 350.293 293.529 350.009 288.192 349.812 282.483 352.612 277.945 356.626 271.416 365.2 269.655 372.833 268.945 384.874 267.829 396.991 267.819 409.087 267.808 414.577 267.808 420.063 267.804 425.546 267.797L482.273 267.764" stroke="#171717" stroke-width="3.109" stroke-linecap="round" stroke-linejoin="round"/><path d="M525.122 268.516 525.275 268.516C546.492 268.188 567.741 268.855 588.903 270.495 592.184 270.757 595.629 271.086 598.352 272.934 602.912 276.007 604.006 282.208 604.006 287.709 604.006 293.144 603.406 298.886 605.832 303.72 605.857 303.784 605.886 303.846 605.919 303.906" stroke="#171717" stroke-width="3.109" stroke-linecap="round" stroke-linejoin="round"/><path d="M521.961 328.9C522.52 328.445 522.934 327.837 523.153 327.15 524.914 322.874 526.558 318.55 528.085 314.179 529.124 311.204 531.607 306.797 529.441 303.789 527.494 301.089 523.568 301.372 520.67 301.514 515.628 301.776 510.598 302.192 505.57 302.684 504.416 302.696 503.291 303.045 502.333 303.69 501.818 304.192 501.451 304.825 501.271 305.522 501.092 306.218 501.108 306.95 501.316 307.638 501.755 309.001 502.458 310.264 503.383 311.356 508.048 317.518 513.361 323.16 519.23 328.187 519.606 328.543 520.043 328.828 520.52 329.029 520.806 329.144 521.117 329.179 521.42 329.129 521.615 329.094 521.8 329.016 521.961 328.9L521.961 328.9Z" stroke="#171717" stroke-width="3.109" stroke-linecap="round" stroke-linejoin="round"/><path d="M520.7 328.9C520.634 328.944 520.58 328.987 520.514 329.031 516.041 332.148 511.568 335.265 507.095 338.382 505.247 339.662 503.344 341.018 502.327 343.019 500.796 346.037 501.704 349.701 503.071 352.796 504.438 355.891 506.253 358.896 506.571 362.256" stroke="#171717" stroke-width="3.109" stroke-linecap="round" stroke-linejoin="round"/><path d="M521.8 328.83 521.964 328.896C528.198 331.335 534.435 333.773 540.676 336.212 542.568 336.956 544.635 337.852 545.488 339.69 545.951 340.975 546.079 342.356 545.86 343.704 545.455 349.03 545.047 354.352 544.635 359.671" stroke="#171717" stroke-width="3.109" stroke-linecap="round" stroke-linejoin="round"/><path d="M325.545 48.7821C320.245 54.3491 317.518 62.0821 317.19 69.7691 316.851 77.7201 319.082 85.9221 324.178 92.0351 332.435 101.943 347.921 104.699 359.317 98.6521 370.713 92.6051 377.1 78.6171 374.683 65.9521 370.45 43.7511 342.464 31.0101 325.545 48.7821Z" stroke="#171717" stroke-width="3.109" stroke-linecap="round" stroke-linejoin="round"/><path d="M347.253 73.553C349.058 66.707 350.87 59.856 352.688 53" stroke="#171717" stroke-width="3.109" stroke-linecap="round" stroke-linejoin="round"/><path d="M343.031 72.5251C337.573 70.3802 331.993 68.558 326.32 67.0681" stroke="#171717" stroke-width="3.109" stroke-linecap="round" stroke-linejoin="round"/><path d="M274.001 287.14C274.154 283.345 274.301 279.55 274.449 275.755 274.602 272.048 274.624 267.968 272.295 265.092 269.353 261.472 264.016 261.242 259.357 261.308 246.657 261.483 192.809 258.891 178.557 259.055 174.675 259.099 170.366 259.317 167.642 262.073 164.602 265.173 164.799 270.089 165.214 274.409 165.772 280.271 166.326 286.129 166.876 291.984 167.456 298.076 168.035 304.171 168.615 310.27 169.49 319.566 170.369 328.862 171.251 338.158 172.184 347.913 173.11 357.664 174.029 367.413 179.573 366.647 185.129 366.002 190.696 365.477 199.728 364.602 208.78 364.037 217.851 363.782 227.901 363.476 237.952 363.545 248.003 363.99 251.873 364.154 255.74 364.376 259.603 364.657 262.96 364.898 266.81 365.007 269.14 362.579 271.032 360.6 271.24 357.603 271.349 354.869 271.655 346.885 271.968 338.905 272.29 330.929 272.585 323.153 272.888 315.377 273.198 307.602 273.474 300.789 273.742 293.969 274.001 287.14Z" stroke="#171717" stroke-width="3.109" stroke-linecap="round" stroke-linejoin="round"/><path d="M167.688 291.909C175.388 290.914 183.101 290.064 190.829 289.361 200.453 288.475 210.088 287.808 219.734 287.361 229.61 286.891 239.493 286.658 249.383 286.661 257.149 286.661 264.917 286.804 272.688 287.088" stroke="#171717" stroke-width="3.109" stroke-linecap="round" stroke-linejoin="round"/><path d="M248.017 363.794C248.217 352.934 248.414 342.078 248.608 331.225 248.75 323.351 248.895 315.477 249.045 307.602 249.154 301.117 249.271 294.632 249.395 288.146" stroke="#171717" stroke-width="3.109" stroke-linecap="round" stroke-linejoin="round"/><path d="M217.854 363.794 217.854 363.783C218.87 353.459 219.574 343.113 219.965 332.746 220.282 324.533 220.402 316.316 220.326 308.095 220.271 301.446 220.085 294.796 219.768 288.147" stroke="#171717" stroke-width="3.109" stroke-linecap="round" stroke-linejoin="round"/><path d="M190.7 365.729 190.7 365.477C190.733 355.503 190.762 345.533 190.787 335.566 190.821 326.751 190.85 317.936 190.874 309.122 190.896 302.899 190.915 296.68 190.929 290.465" stroke="#171717" stroke-width="3.109" stroke-linecap="round" stroke-linejoin="round"/><path d="M169.23 310.216C176.448 309.8 183.663 309.435 190.873 309.122 200.694 308.685 210.511 308.342 220.325 308.094 229.895 307.832 239.468 307.668 249.044 307.602 256.929 307.535 264.81 307.528 272.688 307.58" stroke="#171717" stroke-width="3.109" stroke-linecap="round" stroke-linejoin="round"/><path d="M171.91 338.093C178.187 337.16 184.479 336.318 190.786 335.567 200.487 334.408 210.213 333.468 219.964 332.745 229.501 332.023 239.048 331.516 248.606 331.225 256.119 330.973 263.633 330.86 271.146 330.886" stroke="#171717" stroke-width="3.109" stroke-linecap="round" stroke-linejoin="round"/><path d="M361.831 507.126C362.364 515.131 362.9 523.14 363.439 531.153" stroke="#171717" stroke-width="3.281" stroke-linecap="round" stroke-linejoin="round"/><path d="M612.378 149.956C611.004 146.183 609.63 142.409 608.255 138.636" stroke="#171717" stroke-width="3.281" stroke-linecap="round" stroke-linejoin="round"/><path d="M602.562 148.9 616.204 140.579" stroke="#171717" stroke-width="3.281" stroke-linecap="round" stroke-linejoin="round"/><path d="M594.935 105.618 583.067 95.3611" stroke="#171717" stroke-width="3.281" stroke-linecap="round" stroke-linejoin="round"/><path d="M583.005 108.264 592.8 91.8052" stroke="#171717" stroke-width="3.281" stroke-linecap="round" stroke-linejoin="round"/><path d="M681.872 332.657C680.81 328.364 678.89 324.331 676.228 320.8 673.566 317.269 670.216 314.313 666.381 312.111" stroke="#171717" stroke-width="3.281" stroke-linecap="round" stroke-linejoin="round"/><path d="M472.4 453.472C460.4 451.471 448.921 447.096 438.633 440.602 428.346 434.107 419.459 425.625 412.492 415.652" stroke="#171717" stroke-width="3.281" stroke-linecap="round" stroke-linejoin="round"/><path d="M198.124 359.221C203.196 353.347 207.968 347.232 212.441 340.875" stroke="#171717" stroke-width="3.281" stroke-linecap="round" stroke-linejoin="round"/><path d="M211.628 356.921 198.88 342.662" stroke="#171717" stroke-width="3.281" stroke-linecap="round" stroke-linejoin="round"/><path d="M603.974 290.418C603.991 289.51 604.007 288.606 604.007 287.709 604.007 282.208 602.914 276.007 598.352 272.937 595.629 271.089 592.184 270.76 588.903 270.498 567.741 268.858 546.492 268.191 525.275 268.519 523.355 273.877 523.194 279.708 524.816 285.164L524.805 286.269C528.458 286.317 532.11 286.368 535.763 286.422 539.329 286.465 543.101 286.575 546.153 288.434 549.205 290.293 551.086 294.566 549.128 297.566L549.106 298.066C568.124 298.72 587.372 299.499 605.833 303.72 603.807 299.684 603.891 295.014 603.974 290.418ZM588.098 274.677C587.216 274.472 586.334 275.021 586.129 275.903 585.923 276.786 586.472 277.668 587.355 277.873 590.302 278.559 592.762 280.81 594.129 283.707 595.495 286.604 595.669 289.934 594.324 292.647 593.921 293.458 594.253 294.443 595.065 294.845 595.877 295.248 596.861 294.916 597.263 294.104 599.137 290.325 598.804 285.927 597.096 282.307 595.389 278.687 592.206 275.633 588.098 274.677Z" fill="#171717" fill-rule="evenodd" clip-rule="evenodd"/><path d="M545.857 343.704C546.077 342.356 545.949 340.975 545.485 339.69 544.632 337.853 542.565 336.956 540.676 336.218 534.436 333.78 528.198 331.341 521.964 328.902 521.801 329.018 521.615 329.097 521.417 329.132 521.114 329.182 520.803 329.147 520.517 329.032 516.033 332.149 511.56 335.266 507.098 338.383 505.25 339.663 503.347 341.02 502.33 343.02 500.799 346.038 501.718 349.702 503.074 352.797 503.392 353.522 503.735 354.242 504.079 354.962 505.203 357.32 506.332 359.686 506.574 362.257L506.607 362.793 544.687 360.671 544.632 359.671C545.044 354.352 545.453 349.03 545.857 343.704ZM538.011 338.862C537.456 338.146 536.426 338.014 535.709 338.568 534.993 339.123 534.861 340.153 535.415 340.87 536.674 342.497 537.519 344.406 537.877 346.433 538.236 348.459 538.097 350.542 537.473 352.502 537.198 353.366 537.675 354.288 538.538 354.563 539.402 354.838 540.324 354.361 540.599 353.498 541.384 351.031 541.559 348.41 541.108 345.861 540.657 343.312 539.594 340.91 538.011 338.862Z" fill="#171717" fill-rule="evenodd" clip-rule="evenodd"/><path d="M474.3 242.279C478.369 243.133 482.7 239.491 482.7 235.379L484.108 235.41C484.501 220.738 484.895 206.069 485.289 191.402 485.453 185.365 485.857 178.716 490.046 174.374 494.596 169.65 501.956 169.322 508.496 169.759 513.99 170.134 519.46 170.831 524.928 171.527 532.552 172.499 540.171 173.47 547.845 173.565 549.387 173.586 550.94 173.565 552.493 173.499 564.217 173.006 576.061 169.944 584.832 162.299 587.774 159.729 590.333 155.049 587.621 152.238 585.74 150.27 582.536 150.707 579.878 151.287 577.065 151.895 574.259 152.506 571.455 153.118 569.013 153.649 566.573 154.181 564.13 154.71 565.609 154.014 566.78 152.797 567.418 151.291 568.055 149.786 568.115 148.098 567.586 146.551 566.219 142.953 561.965 141.006 558.137 141.498 555.138 141.981 552.38 143.433 550.285 145.632 550.83 144.733 551.133 143.709 551.166 142.658 551.198 141.607 550.959 140.566 550.47 139.635 549.981 138.704 549.26 137.915 548.377 137.345 547.494 136.774 546.478 136.442 545.429 136.38 542.263 136.182 539.657 138.327 537.131 140.406 536.559 140.877 535.991 141.344 535.422 141.78 527.113 148.124 515.979 148.492 505.435 148.842 504.655 148.867 503.877 148.893 503.105 148.921 491.895 149.328 479.351 151.242 472.614 160.221 467.651 166.86 467.17 175.74 467.214 184.03 467.218 184.879 467.226 185.73 467.233 186.584 467.316 196.15 467.401 205.973 463.375 214.597 462.792 215.848 462.124 217.066 461.456 218.282 460.234 220.512 459.011 222.739 458.311 225.173 457.228 228.935 457.742 233.562 460.892 235.891 462.144 236.706 463.655 237.024 465.13 236.784 466.604 236.544 467.936 235.762 468.865 234.591 468.6 237.959 470.921 241.579 474.3 242.279ZM469.521 232.24C469.148 232.973 468.925 233.772 468.865 234.591 469.344 233.905 469.575 233.076 469.521 232.24ZM548.601 147.491C549.288 146.998 549.862 146.365 550.285 145.632 549.684 146.215 549.121 146.836 548.601 147.491ZM564.13 154.71C563.627 154.922 563.089 155.04 562.544 155.06 562.806 155 563.072 154.943 563.337 154.885 563.602 154.828 563.867 154.77 564.13 154.71ZM537.62 148.849C538.443 148.469 538.802 147.494 538.422 146.672 538.042 145.849 537.068 145.49 536.245 145.87 525.355 150.895 513.328 152.945 501.388 151.809 500.486 151.723 499.685 152.385 499.599 153.287 499.514 154.189 500.175 154.989 501.077 155.075 513.594 156.266 526.203 154.117 537.62 148.849Z" fill="#171717" fill-rule="evenodd" clip-rule="evenodd"/><g opacity="0.1"><path d="M494.12 170.705C491.197 174.264 488.157 177.745 486.469 182.058 484.629 186.729 483.342 191.6 482.634 196.57 481.118 207.429 481.651 218.428 481.829 229.353 482.029 241.371 482.226 253.39 482.42 265.409 482.504 270.732 482.855 276.421 480.81 281.462 478.523 287.098 473.926 289.623 470.14 293.862 464.797 299.848 472.857 307.785 478.89 302.613 482.433 299.575 485.89 294.696 488.428 290.737 491.118 286.418 492.753 281.526 493.201 276.458 494.479 264.558 493.061 252.019 492.765 240.069 492.481 228.587 491.988 217.087 492.143 205.6 492.131 200.298 492.523 195.003 493.315 189.761 494.208 184.468 495.504 178.415 497.949 173.656 499.139 171.337 495.971 168.449 494.12 170.702L494.12 170.705Z" fill="#171717"/></g><g opacity="0.1"><path d="M388.643 322.61C385.913 323.843 383.158 324.029 380.464 325.426 377.937 326.737 375.481 328.119 373.072 329.637 368.31 332.637 363.546 335.687 359.024 339.037 350.424 345.502 342.76 353.126 336.25 361.691 329.293 370.652 323.65 380.076 320.361 391.005 317.26 401.581 316.133 412.639 317.037 423.623 320.726 470.784 353.82 508.361 397.445 524.165 409.888 528.568 422.87 531.264 436.036 532.179 448.536 533.144 463.892 533.584 475.255 527.72 481.4 524.549 480.092 514.209 473.296 512.727 462.875 510.454 451.484 511.932 440.822 511.166 431.168 510.435 421.615 508.709 412.314 506.017 393.539 500.657 376.063 490.871 362.749 476.463 350.357 462.933 342.063 446.161 338.831 428.1 335.654 410.293 339.544 391.951 347.185 375.795 351.944 365.735 359.148 357.043 366.616 348.883 370.408 344.681 374.511 340.77 378.889 337.183 380.875 335.578 382.875 333.987 384.889 332.408 387.194 330.6 388.634 328.284 390.967 326.584 391.464 326.262 391.817 325.762 391.954 325.186 392.091 324.61 392 324.004 391.702 323.493 391.403 322.983 390.919 322.607 390.351 322.444 389.782 322.28 389.172 322.342 388.648 322.617L388.643 322.61Z" fill="#171717"/></g></g></g></svg>