<svg viewBox="0 0 500 500" xmlns="http://www.w3.org/2000/svg" xmlns:xlink="http://www.w3.org/1999/xlink" overflow="hidden"><g id="freepik--background-simple--inject-246"><path d="M300.08 169.21C258.85 136.21 238.37 97.65 182.08 84.9 135 74.24 106.23 94 86 129.19 36.18 215.84 104.74 307.5 203.3 344.19 296.66 378.98 383.44 345.83 422.16 270.19 436.79 241.61 446.22 192.32 397.29 180.05 361.41 171.06 335.2 197.3 300.08 169.21Z" fill="#407BFF"/><path d="M300.08 169.21C258.85 136.21 238.37 97.65 182.08 84.9 135 74.24 106.23 94 86 129.19 36.18 215.84 104.74 307.5 203.3 344.19 296.66 378.98 383.44 345.83 422.16 270.19 436.79 241.61 446.22 192.32 397.29 180.05 361.41 171.06 335.2 197.3 300.08 169.21Z" fill="#FFFFFF" opacity="0.9"/></g><g id="freepik--Shadow--inject-246"><ellipse cx="250" cy="416.24" rx="193.89" ry="11.32" id="freepik--path--inject-246" fill="#F5F5F5"/></g><g id="freepik--Chart--inject-246"><path d="M384.87 269.6C365.065 288.134 338.915 298.382 311.79 298.24 297.14 298.245 282.638 295.314 269.14 289.62L269.14 304.7C282.636 310.402 297.139 313.337 311.79 313.33 338.917 313.474 365.068 303.221 384.87 284.68 402.07 268.52 412.52 247.84 414.87 225.68L414.87 210.56C412.52 232.76 402.07 253.43 384.87 269.6Z" fill="#407BFF"/><path d="M384.87 269.6C365.065 288.134 338.915 298.382 311.79 298.24 297.14 298.245 282.638 295.314 269.14 289.62L269.14 304.7C282.636 310.402 297.139 313.337 311.79 313.33 338.917 313.474 365.068 303.221 384.87 284.68 402.07 268.52 412.52 247.84 414.87 225.68L414.87 210.56C412.52 232.76 402.07 253.43 384.87 269.6Z" opacity="0.2"/><path d="M414.87 210.56C412.52 232.76 402.07 253.43 384.87 269.56 365.065 288.094 338.915 298.342 311.79 298.2 297.14 298.205 282.638 295.274 269.14 289.58L317.71 210.52Z" fill="#407BFF"/><rect x="333.79" y="185.36" width="81.06" height="15.09" fill="#407BFF"/><rect x="333.79" y="185.36" width="81.06" height="15.09" opacity="0.6"/><path d="M385.9 127C393.972 134.758 400.658 143.839 405.67 153.85 410.565 163.726 413.673 174.39 414.85 185.35L333.79 185.35Z" fill="#407BFF"/><path d="M405.67 153.86C400.659 143.845 393.973 134.761 385.9 127L333.79 185.35 414.85 185.35C413.672 174.394 410.564 163.733 405.67 153.86Z" opacity="0.4"/><path d="M370.19 113.14 370.19 128.22 322.05 182.13 322.05 167.04 370.19 113.14Z"/><path d="M322.05 96.67C330.623 97.4743 339.071 99.2868 347.22 102.07 355.305 104.815 363.028 108.529 370.22 113.13L322.05 167Z" fill="#232E33"/><path d="M251.37 276C224.53 257.85 208.21 228.37 208.21 196.95L208.21 212C208.21 243.42 224.53 272.9 251.37 291.05L301.54 209.41 301.54 194.33Z" fill="#407BFF"/><path d="M251.37 276C224.53 257.85 208.21 228.37 208.21 196.95L208.21 212C208.21 243.42 224.53 272.9 251.37 291.05L301.54 209.41 301.54 194.33Z" fill="#FFFFFF" opacity="0.3"/><path d="M301.54 100.06 301.54 194.33 251.37 276C224.53 257.85 208.21 228.37 208.21 196.95 208.21 171.14 219.04 146.75 238.71 128.28 255.918 112.126 278.035 102.192 301.54 100.06Z" fill="#407BFF"/><path d="M301.54 100.06 301.54 194.33 251.37 276C224.53 257.85 208.21 228.37 208.21 196.95 208.21 171.14 219.04 146.75 238.71 128.28 255.918 112.126 278.035 102.192 301.54 100.06Z" fill="#FFFFFF" opacity="0.5"/><g opacity="0.2"><path d="M336.85 111.64C338.899 111.64 340.56 109.979 340.56 107.93 340.56 105.881 338.899 104.22 336.85 104.22 334.801 104.22 333.14 105.881 333.14 107.93 333.14 109.979 334.801 111.64 336.85 111.64Z" fill="#407BFF"/><path d="M346.49 117.2 338.87 112.89C337.613 112.183 336.077 112.183 334.82 112.89L327.22 117.2C326.298 117.727 325.978 118.903 326.505 119.825 327.032 120.747 328.208 121.067 329.13 120.54L332.69 118.54 332.69 138.62C332.69 139.675 333.545 140.53 334.6 140.53 335.655 140.53 336.51 139.675 336.51 138.62L336.51 127.67 336.85 127.67 337.19 127.67 337.19 138.58C337.19 139.635 338.045 140.49 339.1 140.49 340.155 140.49 341.01 139.635 341.01 138.58L341.01 118.5 344.57 120.5C345.525 120.973 346.683 120.582 347.156 119.626 347.587 118.754 347.302 117.697 346.49 117.16Z" fill="#407BFF"/><g opacity="0.8"><path d="M336.85 111.64C338.899 111.64 340.56 109.979 340.56 107.93 340.56 105.881 338.899 104.22 336.85 104.22 334.801 104.22 333.14 105.881 333.14 107.93 333.14 109.979 334.801 111.64 336.85 111.64Z" fill="#FFFFFF"/><path d="M346.49 117.2 338.87 112.89C337.613 112.183 336.077 112.183 334.82 112.89L327.22 117.2C326.298 117.727 325.978 118.903 326.505 119.825 327.032 120.747 328.208 121.067 329.13 120.54L332.69 118.54 332.69 138.62C332.69 139.675 333.545 140.53 334.6 140.53 335.655 140.53 336.51 139.675 336.51 138.62L336.51 127.67 336.85 127.67 337.19 127.67 337.19 138.58C337.19 139.635 338.045 140.49 339.1 140.49 340.155 140.49 341.01 139.635 341.01 138.58L341.01 118.5 344.57 120.5C345.525 120.973 346.683 120.582 347.156 119.626 347.587 118.754 347.302 117.697 346.49 117.16Z" fill="#FFFFFF"/></g><path d="M375.21 157C376.867 157 378.21 155.657 378.21 154 378.21 152.343 376.867 151 375.21 151 373.553 151 372.21 152.343 372.21 154 372.21 155.657 373.553 157 375.21 157Z" fill="#407BFF"/><path d="M382.9 161.4 376.83 158C376.335 157.722 375.777 157.578 375.21 157.58 374.646 157.578 374.091 157.723 373.6 158L367.53 161.44C366.81 161.893 366.595 162.844 367.048 163.564 367.475 164.241 368.349 164.479 369.06 164.11L371.89 162.48 371.89 178.48C371.822 179.322 372.449 180.06 373.291 180.129 374.134 180.197 374.872 179.569 374.94 178.727 374.947 178.645 374.947 178.562 374.94 178.48L374.94 169.78 375.21 169.78 375.49 169.78 375.49 178.48C375.354 179.308 375.916 180.09 376.744 180.226 377.573 180.361 378.354 179.8 378.49 178.972 378.517 178.809 378.517 178.643 378.49 178.48L378.49 162.48 381.33 164.11C382.05 164.563 383 164.348 383.454 163.628 383.907 162.908 383.691 161.957 382.972 161.504 382.935 161.481 382.898 161.46 382.86 161.44Z" fill="#407BFF"/><g opacity="0.8"><path d="M375.21 157C376.867 157 378.21 155.657 378.21 154 378.21 152.343 376.867 151 375.21 151 373.553 151 372.21 152.343 372.21 154 372.21 155.657 373.553 157 375.21 157Z" fill="#FFFFFF"/><path d="M382.9 161.4 376.83 158C376.335 157.722 375.777 157.578 375.21 157.58 374.646 157.578 374.091 157.723 373.6 158L367.53 161.44C366.81 161.893 366.595 162.844 367.048 163.564 367.475 164.241 368.349 164.479 369.06 164.11L371.89 162.48 371.89 178.48C371.822 179.322 372.449 180.06 373.291 180.129 374.134 180.197 374.872 179.569 374.94 178.727 374.947 178.645 374.947 178.562 374.94 178.48L374.94 169.78 375.21 169.78 375.49 169.78 375.49 178.48C375.354 179.308 375.916 180.09 376.744 180.226 377.573 180.361 378.354 179.8 378.49 178.972 378.517 178.809 378.517 178.643 378.49 178.48L378.49 162.48 381.33 164.11C382.05 164.563 383 164.348 383.454 163.628 383.907 162.908 383.691 161.957 382.972 161.504 382.935 161.481 382.898 161.46 382.86 161.44Z" fill="#FFFFFF"/></g><path d="M394.12 157C395.777 157 397.12 155.657 397.12 154 397.12 152.343 395.777 151 394.12 151 392.463 151 391.12 152.343 391.12 154 391.12 155.657 392.463 157 394.12 157Z" fill="#407BFF"/><path d="M401.8 161.4 395.73 158C394.726 157.441 393.504 157.441 392.5 158L386.43 161.44C385.71 161.893 385.495 162.844 385.948 163.564 386.375 164.241 387.249 164.479 387.96 164.11L390.79 162.48 390.79 178.48C390.624 179.308 391.16 180.115 391.989 180.281 392.817 180.448 393.624 179.911 393.79 179.083 393.83 178.884 393.83 178.679 393.79 178.48L393.79 169.78 394.07 169.78 394.34 169.78 394.34 178.48C394.272 179.322 394.899 180.06 395.741 180.129 396.584 180.197 397.322 179.569 397.39 178.727 397.397 178.645 397.397 178.562 397.39 178.48L397.39 162.48 400.23 164.11C400.997 164.478 401.917 164.154 402.284 163.387 402.616 162.695 402.388 161.865 401.75 161.44Z" fill="#407BFF"/><g opacity="0.8"><path d="M394.12 157C395.777 157 397.12 155.657 397.12 154 397.12 152.343 395.777 151 394.12 151 392.463 151 391.12 152.343 391.12 154 391.12 155.657 392.463 157 394.12 157Z" fill="#FFFFFF"/><path d="M401.8 161.4 395.73 158C394.726 157.441 393.504 157.441 392.5 158L386.43 161.44C385.71 161.893 385.495 162.844 385.948 163.564 386.375 164.241 387.249 164.479 387.96 164.11L390.79 162.48 390.79 178.48C390.624 179.308 391.16 180.115 391.989 180.281 392.817 180.448 393.624 179.911 393.79 179.083 393.83 178.884 393.83 178.679 393.79 178.48L393.79 169.78 394.07 169.78 394.34 169.78 394.34 178.48C394.272 179.322 394.899 180.06 395.741 180.129 396.584 180.197 397.322 179.569 397.39 178.727 397.397 178.645 397.397 178.562 397.39 178.48L397.39 162.48 400.23 164.11C400.997 164.478 401.917 164.154 402.284 163.387 402.616 162.695 402.388 161.865 401.75 161.44Z" fill="#FFFFFF"/></g><circle cx="372.4" cy="217.62" r="2.4" fill="#407BFF"/><path d="M378.63 223.62 373.71 220.83C373.311 220.603 372.859 220.482 372.4 220.48 371.94 220.481 371.489 220.601 371.09 220.83L366.17 223.62C365.576 223.962 365.373 224.721 365.715 225.315 366.057 225.909 366.816 226.112 367.41 225.77L369.71 224.46 369.71 237.46C369.771 238.142 370.374 238.645 371.056 238.584 371.653 238.53 372.126 238.057 372.18 237.46L372.18 230.4 372.4 230.4 372.62 230.4 372.62 237.46C372.681 238.142 373.284 238.645 373.966 238.584 374.563 238.53 375.036 238.057 375.09 237.46L375.09 224.46 377.39 225.77C377.984 226.112 378.743 225.909 379.085 225.315 379.427 224.721 379.224 223.962 378.63 223.62Z" fill="#407BFF"/><g opacity="0.8"><circle cx="372.4" cy="217.62" r="2.4" fill="#FFFFFF"/><path d="M378.63 223.62 373.71 220.83C373.311 220.603 372.859 220.482 372.4 220.48 371.94 220.481 371.489 220.601 371.09 220.83L366.17 223.62C365.576 223.962 365.373 224.721 365.715 225.315 366.057 225.909 366.816 226.112 367.41 225.77L369.71 224.46 369.71 237.46C369.771 238.142 370.374 238.645 371.056 238.584 371.653 238.53 372.126 238.057 372.18 237.46L372.18 230.4 372.4 230.4 372.62 230.4 372.62 237.46C372.681 238.142 373.284 238.645 373.966 238.584 374.563 238.53 375.036 238.057 375.09 237.46L375.09 224.46 377.39 225.77C377.984 226.112 378.743 225.909 379.085 225.315 379.427 224.721 379.224 223.962 378.63 223.62Z" fill="#FFFFFF"/></g><circle cx="388.2" cy="217.62" r="2.4" fill="#407BFF"/><path d="M394.43 223.62 389.51 220.83C389.111 220.603 388.66 220.482 388.2 220.48 387.74 220.481 387.289 220.601 386.89 220.83L382 223.62C381.406 223.962 381.203 224.721 381.545 225.315 381.887 225.909 382.646 226.112 383.24 225.77L385.54 224.46 385.54 237.46C385.601 238.142 386.204 238.645 386.886 238.584 387.483 238.53 387.956 238.057 388.01 237.46L388.01 230.4 388.23 230.4 388.45 230.4 388.45 237.46C388.511 238.142 389.114 238.645 389.796 238.584 390.393 238.53 390.866 238.057 390.92 237.46L390.92 224.46 393.22 225.77C393.814 226.112 394.573 225.909 394.915 225.315 395.257 224.721 395.054 223.962 394.46 223.62Z" fill="#407BFF"/><g opacity="0.8"><circle cx="388.2" cy="217.62" r="2.4" fill="#FFFFFF"/><path d="M394.43 223.62 389.51 220.83C389.111 220.603 388.66 220.482 388.2 220.48 387.74 220.481 387.289 220.601 386.89 220.83L382 223.62C381.406 223.962 381.203 224.721 381.545 225.315 381.887 225.909 382.646 226.112 383.24 225.77L385.54 224.46 385.54 237.46C385.601 238.142 386.204 238.645 386.886 238.584 387.483 238.53 387.956 238.057 388.01 237.46L388.01 230.4 388.23 230.4 388.45 230.4 388.45 237.46C388.511 238.142 389.114 238.645 389.796 238.584 390.393 238.53 390.866 238.057 390.92 237.46L390.92 224.46 393.22 225.77C393.814 226.112 394.573 225.909 394.915 225.315 395.257 224.721 395.054 223.962 394.46 223.62Z" fill="#FFFFFF"/></g><circle cx="340.8" cy="217.62" r="2.4" fill="#407BFF"/><path d="M347 223.62 342.07 220.83C341.262 220.364 340.268 220.364 339.46 220.83L334.54 223.62C333.946 223.962 333.743 224.721 334.085 225.315 334.427 225.909 335.186 226.112 335.78 225.77L338.07 224.46 338.07 237.46C338.131 238.142 338.734 238.645 339.416 238.584 340.013 238.53 340.486 238.057 340.54 237.46L340.54 230.4 340.77 230.4 340.99 230.4 340.99 237.46C341.051 238.142 341.654 238.645 342.336 238.584 342.933 238.53 343.406 238.057 343.46 237.46L343.46 224.46 345.76 225.77C346.354 226.112 347.113 225.909 347.455 225.315 347.797 224.721 347.594 223.962 347 223.62Z" fill="#407BFF"/><g opacity="0.8"><circle cx="340.8" cy="217.62" r="2.4" fill="#FFFFFF"/><path d="M347 223.62 342.07 220.83C341.262 220.364 340.268 220.364 339.46 220.83L334.54 223.62C333.946 223.962 333.743 224.721 334.085 225.315 334.427 225.909 335.186 226.112 335.78 225.77L338.07 224.46 338.07 237.46C338.131 238.142 338.734 238.645 339.416 238.584 340.013 238.53 340.486 238.057 340.54 237.46L340.54 230.4 340.77 230.4 340.99 230.4 340.99 237.46C341.051 238.142 341.654 238.645 342.336 238.584 342.933 238.53 343.406 238.057 343.46 237.46L343.46 224.46 345.76 225.77C346.354 226.112 347.113 225.909 347.455 225.315 347.797 224.721 347.594 223.962 347 223.62Z" fill="#FFFFFF"/></g><path d="M325 220C326.325 220 327.4 218.925 327.4 217.6 327.4 216.275 326.325 215.2 325 215.2 323.675 215.2 322.6 216.275 322.6 217.6 322.6 218.925 323.675 220 325 220Z" fill="#407BFF"/><path d="M331.23 223.62 326.3 220.83C325.492 220.364 324.498 220.364 323.69 220.83L318.77 223.62C318.176 223.962 317.973 224.721 318.315 225.315 318.657 225.909 319.416 226.112 320.01 225.77L322.3 224.46 322.3 237.46C322.361 238.142 322.964 238.645 323.646 238.584 324.243 238.53 324.716 238.057 324.77 237.46L324.77 230.4 325 230.4 325.22 230.4 325.22 237.46C325.281 238.142 325.884 238.645 326.566 238.584 327.163 238.53 327.636 238.057 327.69 237.46L327.69 224.46 329.99 225.77C330.584 226.112 331.343 225.909 331.685 225.315 332.027 224.721 331.824 223.962 331.23 223.62Z" fill="#407BFF"/><g opacity="0.8"><path d="M325 220C326.325 220 327.4 218.925 327.4 217.6 327.4 216.275 326.325 215.2 325 215.2 323.675 215.2 322.6 216.275 322.6 217.6 322.6 218.925 323.675 220 325 220Z" fill="#FFFFFF"/><path d="M331.23 223.62 326.3 220.83C325.492 220.364 324.498 220.364 323.69 220.83L318.77 223.62C318.176 223.962 317.973 224.721 318.315 225.315 318.657 225.909 319.416 226.112 320.01 225.77L322.3 224.46 322.3 237.46C322.361 238.142 322.964 238.645 323.646 238.584 324.243 238.53 324.716 238.057 324.77 237.46L324.77 230.4 325 230.4 325.22 230.4 325.22 237.46C325.281 238.142 325.884 238.645 326.566 238.584 327.163 238.53 327.636 238.057 327.69 237.46L327.69 224.46 329.99 225.77C330.584 226.112 331.343 225.909 331.685 225.315 332.027 224.721 331.824 223.962 331.23 223.62Z" fill="#FFFFFF"/></g><circle cx="356.6" cy="217.62" r="2.4" fill="#407BFF"/><path d="M362.83 223.62 357.91 220.83C357.511 220.603 357.06 220.482 356.6 220.48 356.14 220.481 355.689 220.601 355.29 220.83L350.37 223.62C349.776 223.962 349.573 224.721 349.915 225.315 350.257 225.909 351.016 226.112 351.61 225.77L353.91 224.46 353.91 237.46C353.91 238.139 354.461 238.69 355.14 238.69 355.819 238.69 356.37 238.139 356.37 237.46L356.37 230.4 356.6 230.4 356.82 230.4 356.82 237.46C356.881 238.142 357.484 238.645 358.166 238.584 358.763 238.53 359.236 238.057 359.29 237.46L359.29 224.46 361.59 225.77C362.184 226.112 362.943 225.909 363.285 225.315 363.627 224.721 363.424 223.962 362.83 223.62Z" fill="#407BFF"/><g opacity="0.8"><circle cx="356.6" cy="217.62" r="2.4" fill="#FFFFFF"/><path d="M362.83 223.62 357.91 220.83C357.511 220.603 357.06 220.482 356.6 220.48 356.14 220.481 355.689 220.601 355.29 220.83L350.37 223.62C349.776 223.962 349.573 224.721 349.915 225.315 350.257 225.909 351.016 226.112 351.61 225.77L353.91 224.46 353.91 237.46C353.91 238.139 354.461 238.69 355.14 238.69 355.819 238.69 356.37 238.139 356.37 237.46L356.37 230.4 356.6 230.4 356.82 230.4 356.82 237.46C356.881 238.142 357.484 238.645 358.166 238.584 358.763 238.53 359.236 238.057 359.29 237.46L359.29 224.46 361.59 225.77C362.184 226.112 362.943 225.909 363.285 225.315 363.627 224.721 363.424 223.962 362.83 223.62Z" fill="#FFFFFF"/></g><circle cx="356.61" cy="244.03" r="2.4" fill="#407BFF"/><path d="M362.84 250 357.92 247.22C357.521 246.993 357.07 246.872 356.61 246.87 356.15 246.871 355.699 246.991 355.3 247.22L350.38 250C349.754 250.291 349.482 251.034 349.772 251.66 350.063 252.286 350.806 252.558 351.432 252.268 351.498 252.237 351.561 252.201 351.62 252.16L353.92 250.85 353.92 263.85C353.859 264.532 354.362 265.135 355.044 265.196 355.726 265.258 356.329 264.755 356.39 264.073 356.397 263.999 356.397 263.924 356.39 263.85L356.39 256.85 356.83 256.85 356.83 263.85C356.769 264.532 357.272 265.135 357.954 265.196 358.636 265.258 359.239 264.755 359.3 264.073 359.307 263.999 359.307 263.924 359.3 263.85L359.3 250.85 361.6 252.17C362.226 252.461 362.969 252.189 363.26 251.562 363.516 251.012 363.338 250.357 362.84 250.01Z" fill="#407BFF"/><g opacity="0.8"><circle cx="356.61" cy="244.03" r="2.4" fill="#FFFFFF"/><path d="M362.84 250 357.92 247.22C357.521 246.993 357.07 246.872 356.61 246.87 356.15 246.871 355.699 246.991 355.3 247.22L350.38 250C349.754 250.291 349.482 251.034 349.772 251.66 350.063 252.286 350.806 252.558 351.432 252.268 351.498 252.237 351.561 252.201 351.62 252.16L353.92 250.85 353.92 263.85C353.859 264.532 354.362 265.135 355.044 265.196 355.726 265.258 356.329 264.755 356.39 264.073 356.397 263.999 356.397 263.924 356.39 263.85L356.39 256.85 356.83 256.85 356.83 263.85C356.769 264.532 357.272 265.135 357.954 265.196 358.636 265.258 359.239 264.755 359.3 264.073 359.307 263.999 359.307 263.924 359.3 263.85L359.3 250.85 361.6 252.17C362.226 252.461 362.969 252.189 363.26 251.562 363.516 251.012 363.338 250.357 362.84 250.01Z" fill="#FFFFFF"/></g><circle cx="372.41" cy="244.03" r="2.4" fill="#407BFF"/><path d="M378.64 250 373.72 247.22C373.321 246.993 372.87 246.872 372.41 246.87 371.95 246.871 371.499 246.991 371.1 247.22L366.18 250C365.554 250.291 365.282 251.034 365.572 251.66 365.863 252.286 366.606 252.558 367.232 252.268 367.298 252.237 367.361 252.201 367.42 252.16L369.72 250.85 369.72 263.85C369.659 264.532 370.162 265.135 370.844 265.196 371.526 265.258 372.129 264.755 372.19 264.073 372.197 263.999 372.197 263.924 372.19 263.85L372.19 256.85 372.63 256.85 372.63 263.85C372.569 264.532 373.072 265.135 373.754 265.196 374.436 265.258 375.039 264.755 375.1 264.073 375.107 263.999 375.107 263.924 375.1 263.85L375.1 250.85 377.4 252.17C377.967 252.564 378.746 252.424 379.14 251.858 379.534 251.291 379.394 250.512 378.828 250.118 378.768 250.076 378.706 250.04 378.64 250.01Z" fill="#407BFF"/><g opacity="0.8"><circle cx="372.41" cy="244.03" r="2.4" fill="#FFFFFF"/><path d="M378.64 250 373.72 247.22C373.321 246.993 372.87 246.872 372.41 246.87 371.95 246.871 371.499 246.991 371.1 247.22L366.18 250C365.554 250.291 365.282 251.034 365.572 251.66 365.863 252.286 366.606 252.558 367.232 252.268 367.298 252.237 367.361 252.201 367.42 252.16L369.72 250.85 369.72 263.85C369.659 264.532 370.162 265.135 370.844 265.196 371.526 265.258 372.129 264.755 372.19 264.073 372.197 263.999 372.197 263.924 372.19 263.85L372.19 256.85 372.63 256.85 372.63 263.85C372.569 264.532 373.072 265.135 373.754 265.196 374.436 265.258 375.039 264.755 375.1 264.073 375.107 263.999 375.107 263.924 375.1 263.85L375.1 250.85 377.4 252.17C377.967 252.564 378.746 252.424 379.14 251.858 379.534 251.291 379.394 250.512 378.828 250.118 378.768 250.076 378.706 250.04 378.64 250.01Z" fill="#FFFFFF"/></g><path d="M325 246.43C326.325 246.43 327.4 245.355 327.4 244.03 327.4 242.705 326.325 241.63 325 241.63 323.675 241.63 322.6 242.705 322.6 244.03 322.6 245.355 323.675 246.43 325 246.43Z" fill="#407BFF"/><path d="M331.24 250 326.32 247.22C325.921 246.993 325.47 246.872 325.01 246.87 324.55 246.871 324.099 246.991 323.7 247.22L318.78 250C318.154 250.291 317.882 251.034 318.172 251.66 318.463 252.286 319.206 252.558 319.832 252.268 319.898 252.237 319.961 252.201 320.02 252.16L322.32 250.85 322.32 263.85C322.259 264.532 322.762 265.135 323.444 265.196 324.126 265.258 324.729 264.755 324.79 264.073 324.797 263.999 324.797 263.924 324.79 263.85L324.79 256.85 325.23 256.85 325.23 263.85C325.169 264.532 325.672 265.135 326.354 265.196 327.036 265.258 327.639 264.755 327.7 264.073 327.707 263.999 327.707 263.924 327.7 263.85L327.7 250.85 330 252.17C330.626 252.461 331.369 252.189 331.66 251.562 331.916 251.012 331.738 250.357 331.24 250.01Z" fill="#407BFF"/><g opacity="0.8"><path d="M325 246.43C326.325 246.43 327.4 245.355 327.4 244.03 327.4 242.705 326.325 241.63 325 241.63 323.675 241.63 322.6 242.705 322.6 244.03 322.6 245.355 323.675 246.43 325 246.43Z" fill="#FFFFFF"/><path d="M331.24 250 326.32 247.22C325.921 246.993 325.47 246.872 325.01 246.87 324.55 246.871 324.099 246.991 323.7 247.22L318.78 250C318.154 250.291 317.882 251.034 318.172 251.66 318.463 252.286 319.206 252.558 319.832 252.268 319.898 252.237 319.961 252.201 320.02 252.16L322.32 250.85 322.32 263.85C322.259 264.532 322.762 265.135 323.444 265.196 324.126 265.258 324.729 264.755 324.79 264.073 324.797 263.999 324.797 263.924 324.79 263.85L324.79 256.85 325.23 256.85 325.23 263.85C325.169 264.532 325.672 265.135 326.354 265.196 327.036 265.258 327.639 264.755 327.7 264.073 327.707 263.999 327.707 263.924 327.7 263.85L327.7 250.85 330 252.17C330.626 252.461 331.369 252.189 331.66 251.562 331.916 251.012 331.738 250.357 331.24 250.01Z" fill="#FFFFFF"/></g><path d="M309.21 246.43C310.535 246.43 311.61 245.355 311.61 244.03 311.61 242.705 310.535 241.63 309.21 241.63 307.885 241.63 306.81 242.705 306.81 244.03 306.81 245.355 307.885 246.43 309.21 246.43Z" fill="#407BFF"/><path d="M315.44 250 310.52 247.22C310.121 246.993 309.669 246.872 309.21 246.87 308.75 246.871 308.299 246.991 307.9 247.22L303 250C302.433 250.394 302.293 251.173 302.688 251.74 303.034 252.238 303.689 252.416 304.24 252.16L306.54 250.85 306.54 263.85C306.479 264.532 306.982 265.135 307.664 265.196 308.346 265.258 308.949 264.755 309.01 264.073 309.017 263.999 309.017 263.924 309.01 263.85L309.01 256.85 309.45 256.85 309.45 263.85C309.389 264.532 309.892 265.135 310.574 265.196 311.256 265.258 311.859 264.755 311.92 264.073 311.927 263.999 311.927 263.924 311.92 263.85L311.92 250.85 314.22 252.17C314.846 252.461 315.589 252.189 315.88 251.562 316.136 251.012 315.958 250.357 315.46 250.01Z" fill="#407BFF"/><g opacity="0.8"><path d="M309.21 246.43C310.535 246.43 311.61 245.355 311.61 244.03 311.61 242.705 310.535 241.63 309.21 241.63 307.885 241.63 306.81 242.705 306.81 244.03 306.81 245.355 307.885 246.43 309.21 246.43Z" fill="#FFFFFF"/><path d="M315.44 250 310.52 247.22C310.121 246.993 309.669 246.872 309.21 246.87 308.75 246.871 308.299 246.991 307.9 247.22L303 250C302.433 250.394 302.293 251.173 302.688 251.74 303.034 252.238 303.689 252.416 304.24 252.16L306.54 250.85 306.54 263.85C306.479 264.532 306.982 265.135 307.664 265.196 308.346 265.258 308.949 264.755 309.01 264.073 309.017 263.999 309.017 263.924 309.01 263.85L309.01 256.85 309.45 256.85 309.45 263.85C309.389 264.532 309.892 265.135 310.574 265.196 311.256 265.258 311.859 264.755 311.92 264.073 311.927 263.999 311.927 263.924 311.92 263.85L311.92 250.85 314.22 252.17C314.846 252.461 315.589 252.189 315.88 251.562 316.136 251.012 315.958 250.357 315.46 250.01Z" fill="#FFFFFF"/></g><circle cx="340.81" cy="244.03" r="2.4" fill="#407BFF"/><path d="M347 250 342.08 247.22C341.681 246.993 341.229 246.872 340.77 246.87 340.31 246.871 339.859 246.991 339.46 247.22L334.58 250C333.954 250.291 333.682 251.034 333.972 251.66 334.263 252.286 335.006 252.558 335.632 252.268 335.698 252.237 335.761 252.201 335.82 252.16L338.12 250.85 338.12 263.85C338.059 264.532 338.562 265.135 339.244 265.196 339.926 265.258 340.529 264.755 340.59 264.073 340.597 263.999 340.597 263.924 340.59 263.85L340.59 256.85 341 256.85 341 263.85C340.939 264.532 341.442 265.135 342.124 265.196 342.806 265.258 343.409 264.755 343.47 264.073 343.477 263.999 343.477 263.924 343.47 263.85L343.47 250.85 345.77 252.17C346.392 252.469 347.139 252.208 347.438 251.586 347.71 251.022 347.522 250.344 347 250Z" fill="#407BFF"/><g opacity="0.8"><circle cx="340.81" cy="244.03" r="2.4" fill="#FFFFFF"/><path d="M347 250 342.08 247.22C341.681 246.993 341.229 246.872 340.77 246.87 340.31 246.871 339.859 246.991 339.46 247.22L334.58 250C333.954 250.291 333.682 251.034 333.972 251.66 334.263 252.286 335.006 252.558 335.632 252.268 335.698 252.237 335.761 252.201 335.82 252.16L338.12 250.85 338.12 263.85C338.059 264.532 338.562 265.135 339.244 265.196 339.926 265.258 340.529 264.755 340.59 264.073 340.597 263.999 340.597 263.924 340.59 263.85L340.59 256.85 341 256.85 341 263.85C340.939 264.532 341.442 265.135 342.124 265.196 342.806 265.258 343.409 264.755 343.47 264.073 343.477 263.999 343.477 263.924 343.47 263.85L343.47 250.85 345.77 252.17C346.392 252.469 347.139 252.208 347.438 251.586 347.71 251.022 347.522 250.344 347 250Z" fill="#FFFFFF"/></g><path d="M325 272.84C326.325 272.84 327.4 271.765 327.4 270.44 327.4 269.115 326.325 268.04 325 268.04 323.675 268.04 322.6 269.115 322.6 270.44 322.6 271.765 323.675 272.84 325 272.84Z" fill="#407BFF"/><path d="M331.24 276.43 326.32 273.64C325.918 273.42 325.468 273.303 325.01 273.3 324.55 273.301 324.099 273.421 323.7 273.65L318.78 276.43C318.154 276.721 317.882 277.464 318.172 278.09 318.463 278.716 319.206 278.988 319.832 278.698 319.898 278.667 319.961 278.631 320.02 278.59L322.32 277.28 322.32 290.28C322.259 290.962 322.762 291.565 323.444 291.626 324.126 291.688 324.729 291.185 324.79 290.503 324.797 290.428 324.797 290.354 324.79 290.28L324.79 283.2 325.23 283.2 325.23 290.25C325.169 290.932 325.672 291.535 326.354 291.596 327.036 291.658 327.639 291.155 327.7 290.473 327.707 290.398 327.707 290.324 327.7 290.25L327.7 277.25 330 278.57C330.626 278.861 331.369 278.589 331.66 277.962 331.916 277.412 331.738 276.757 331.24 276.41Z" fill="#407BFF"/><g opacity="0.8"><path d="M325 272.84C326.325 272.84 327.4 271.765 327.4 270.44 327.4 269.115 326.325 268.04 325 268.04 323.675 268.04 322.6 269.115 322.6 270.44 322.6 271.765 323.675 272.84 325 272.84Z" fill="#FFFFFF"/><path d="M331.24 276.43 326.32 273.64C325.918 273.42 325.468 273.303 325.01 273.3 324.55 273.301 324.099 273.421 323.7 273.65L318.78 276.43C318.154 276.721 317.882 277.464 318.172 278.09 318.463 278.716 319.206 278.988 319.832 278.698 319.898 278.667 319.961 278.631 320.02 278.59L322.32 277.28 322.32 290.28C322.259 290.962 322.762 291.565 323.444 291.626 324.126 291.688 324.729 291.185 324.79 290.503 324.797 290.428 324.797 290.354 324.79 290.28L324.79 283.2 325.23 283.2 325.23 290.25C325.169 290.932 325.672 291.535 326.354 291.596 327.036 291.658 327.639 291.155 327.7 290.473 327.707 290.398 327.707 290.324 327.7 290.25L327.7 277.25 330 278.57C330.626 278.861 331.369 278.589 331.66 277.962 331.916 277.412 331.738 276.757 331.24 276.41Z" fill="#FFFFFF"/></g><path d="M309.21 272.84C310.535 272.84 311.61 271.765 311.61 270.44 311.61 269.115 310.535 268.04 309.21 268.04 307.885 268.04 306.81 269.115 306.81 270.44 306.81 271.765 307.885 272.84 309.21 272.84Z" fill="#407BFF"/><path d="M315.44 276.43 310.52 273.64C310.118 273.42 309.668 273.303 309.21 273.3 308.75 273.301 308.299 273.421 307.9 273.65L303 276.43C302.433 276.824 302.293 277.603 302.688 278.17 303.034 278.668 303.689 278.846 304.24 278.59L306.54 277.28 306.54 290.28C306.479 290.962 306.982 291.565 307.664 291.626 308.346 291.688 308.949 291.185 309.01 290.503 309.017 290.428 309.017 290.354 309.01 290.28L309.01 283.2 309.45 283.2 309.45 290.25C309.389 290.932 309.892 291.535 310.574 291.596 311.256 291.658 311.859 291.155 311.92 290.473 311.927 290.398 311.927 290.324 311.92 290.25L311.92 277.25 314.22 278.57C314.846 278.861 315.589 278.589 315.88 277.962 316.136 277.412 315.958 276.757 315.46 276.41Z" fill="#407BFF"/><g opacity="0.8"><path d="M309.21 272.84C310.535 272.84 311.61 271.765 311.61 270.44 311.61 269.115 310.535 268.04 309.21 268.04 307.885 268.04 306.81 269.115 306.81 270.44 306.81 271.765 307.885 272.84 309.21 272.84Z" fill="#FFFFFF"/><path d="M315.44 276.43 310.52 273.64C310.118 273.42 309.668 273.303 309.21 273.3 308.75 273.301 308.299 273.421 307.9 273.65L303 276.43C302.433 276.824 302.293 277.603 302.688 278.17 303.034 278.668 303.689 278.846 304.24 278.59L306.54 277.28 306.54 290.28C306.479 290.962 306.982 291.565 307.664 291.626 308.346 291.688 308.949 291.185 309.01 290.503 309.017 290.428 309.017 290.354 309.01 290.28L309.01 283.2 309.45 283.2 309.45 290.25C309.389 290.932 309.892 291.535 310.574 291.596 311.256 291.658 311.859 291.155 311.92 290.473 311.927 290.398 311.927 290.324 311.92 290.25L311.92 277.25 314.22 278.57C314.846 278.861 315.589 278.589 315.88 277.962 316.136 277.412 315.958 276.757 315.46 276.41Z" fill="#FFFFFF"/></g><circle cx="293.41" cy="270.44" r="2.4" fill="#407BFF"/><path d="M299.64 276.43 294.71 273.64C294.312 273.419 293.865 273.302 293.41 273.3 292.95 273.301 292.499 273.421 292.1 273.65L287.18 276.43C286.554 276.721 286.282 277.464 286.572 278.09 286.863 278.716 287.606 278.988 288.232 278.698 288.298 278.667 288.361 278.631 288.42 278.59L290.71 277.28 290.71 290.28C290.649 290.962 291.152 291.565 291.834 291.626 292.516 291.688 293.119 291.185 293.18 290.503 293.187 290.428 293.187 290.354 293.18 290.28L293.18 283.2 293.63 283.2 293.63 290.25C293.569 290.932 294.072 291.535 294.754 291.596 295.436 291.658 296.039 291.155 296.1 290.473 296.107 290.398 296.107 290.324 296.1 290.25L296.1 277.25 298.4 278.57C299.026 278.861 299.769 278.589 300.06 277.962 300.316 277.412 300.138 276.757 299.64 276.41Z" fill="#407BFF"/><g opacity="0.8"><circle cx="293.41" cy="270.44" r="2.4" fill="#FFFFFF"/><path d="M299.64 276.43 294.71 273.64C294.312 273.419 293.865 273.302 293.41 273.3 292.95 273.301 292.499 273.421 292.1 273.65L287.18 276.43C286.554 276.721 286.282 277.464 286.572 278.09 286.863 278.716 287.606 278.988 288.232 278.698 288.298 278.667 288.361 278.631 288.42 278.59L290.71 277.28 290.71 290.28C290.649 290.962 291.152 291.565 291.834 291.626 292.516 291.688 293.119 291.185 293.18 290.503 293.187 290.428 293.187 290.354 293.18 290.28L293.18 283.2 293.63 283.2 293.63 290.25C293.569 290.932 294.072 291.535 294.754 291.596 295.436 291.658 296.039 291.155 296.1 290.473 296.107 290.398 296.107 290.324 296.1 290.25L296.1 277.25 298.4 278.57C299.026 278.861 299.769 278.589 300.06 277.962 300.316 277.412 300.138 276.757 299.64 276.41Z" fill="#FFFFFF"/></g><circle cx="340.81" cy="270.44" r="2.4" fill="#407BFF"/><path d="M347 276.43 342.08 273.64C341.678 273.42 341.228 273.303 340.77 273.3 340.31 273.301 339.859 273.421 339.46 273.65L334.54 276.43C333.914 276.721 333.642 277.464 333.932 278.09 334.223 278.716 334.966 278.988 335.592 278.698 335.658 278.667 335.721 278.631 335.78 278.59L338.08 277.28 338.08 290.28C338.019 290.962 338.522 291.565 339.204 291.626 339.886 291.688 340.489 291.185 340.55 290.503 340.557 290.428 340.557 290.354 340.55 290.28L340.55 283.2 341 283.2 341 290.25C340.939 290.932 341.442 291.535 342.124 291.596 342.806 291.658 343.409 291.155 343.47 290.473 343.477 290.398 343.477 290.324 343.47 290.25L343.47 277.25 345.77 278.57C346.396 278.861 347.139 278.589 347.43 277.962 347.686 277.412 347.508 276.757 347.01 276.41Z" fill="#407BFF"/><g opacity="0.8"><circle cx="340.81" cy="270.44" r="2.4" fill="#FFFFFF"/><path d="M347 276.43 342.08 273.64C341.678 273.42 341.228 273.303 340.77 273.3 340.31 273.301 339.859 273.421 339.46 273.65L334.54 276.43C333.914 276.721 333.642 277.464 333.932 278.09 334.223 278.716 334.966 278.988 335.592 278.698 335.658 278.667 335.721 278.631 335.78 278.59L338.08 277.28 338.08 290.28C338.019 290.962 338.522 291.565 339.204 291.626 339.886 291.688 340.489 291.185 340.55 290.503 340.557 290.428 340.557 290.354 340.55 290.28L340.55 283.2 341 283.2 341 290.25C340.939 290.932 341.442 291.535 342.124 291.596 342.806 291.658 343.409 291.155 343.47 290.473 343.477 290.398 343.477 290.324 343.47 290.25L343.47 277.25 345.77 278.57C346.396 278.861 347.139 278.589 347.43 277.962 347.686 277.412 347.508 276.757 347.01 276.41Z" fill="#FFFFFF"/></g><path d="M277.06 177.52C278.225 177.526 279.174 176.585 279.18 175.42 279.185 174.255 278.245 173.306 277.08 173.3 275.915 173.295 274.966 174.235 274.96 175.4 274.96 175.407 274.96 175.413 274.96 175.42 274.96 176.58 275.9 177.52 277.06 177.52Z" fill="#407BFF"/><path d="M282.52 180.67 278.21 178.22C277.858 178.024 277.463 177.921 277.06 177.92 276.657 177.92 276.261 178.023 275.91 178.22L271.61 180.67C271.089 180.961 270.903 181.619 271.194 182.14 271.196 182.143 271.198 182.147 271.2 182.15 271.504 182.667 272.164 182.848 272.69 182.56L274.69 181.4 274.69 192.77C274.69 193.366 275.174 193.85 275.77 193.85 276.366 193.85 276.85 193.366 276.85 192.77L276.85 186.6 277.24 186.6 277.24 192.77C277.298 193.369 277.83 193.808 278.429 193.751 278.949 193.701 279.36 193.29 279.41 192.77L279.41 181.4 281.41 182.56C281.936 182.848 282.596 182.667 282.9 182.15 283.204 181.637 283.034 180.974 282.521 180.67 282.521 180.67 282.52 180.67 282.52 180.67Z" fill="#407BFF"/><g opacity="0.8"><path d="M277.06 177.52C278.225 177.526 279.174 176.585 279.18 175.42 279.185 174.255 278.245 173.306 277.08 173.3 275.915 173.295 274.966 174.235 274.96 175.4 274.96 175.407 274.96 175.413 274.96 175.42 274.96 176.58 275.9 177.52 277.06 177.52Z" fill="#FFFFFF"/><path d="M282.52 180.67 278.21 178.22C277.858 178.024 277.463 177.921 277.06 177.92 276.657 177.92 276.261 178.023 275.91 178.22L271.61 180.67C271.089 180.961 270.903 181.619 271.194 182.14 271.196 182.143 271.198 182.147 271.2 182.15 271.504 182.667 272.164 182.848 272.69 182.56L274.69 181.4 274.69 192.77C274.69 193.366 275.174 193.85 275.77 193.85 276.366 193.85 276.85 193.366 276.85 192.77L276.85 186.6 277.24 186.6 277.24 192.77C277.298 193.369 277.83 193.808 278.429 193.751 278.949 193.701 279.36 193.29 279.41 192.77L279.41 181.4 281.41 182.56C281.936 182.848 282.596 182.667 282.9 182.15 283.204 181.637 283.034 180.974 282.521 180.67 282.521 180.67 282.52 180.67 282.52 180.67Z" fill="#FFFFFF"/></g><path d="M263.13 177.52C264.295 177.526 265.244 176.585 265.25 175.42 265.255 174.255 264.315 173.306 263.15 173.3 261.985 173.295 261.036 174.235 261.03 175.4 261.03 175.407 261.03 175.413 261.03 175.42 261.03 176.58 261.97 177.52 263.13 177.52Z" fill="#407BFF"/><path d="M268.59 180.67 264.27 178.22C263.559 177.821 262.691 177.821 261.98 178.22L257.67 180.67C257.152 180.965 256.971 181.625 257.266 182.143 257.267 182.145 257.269 182.148 257.27 182.15 257.574 182.667 258.234 182.848 258.76 182.56L260.76 181.4 260.76 192.77C260.76 193.366 261.244 193.85 261.84 193.85 262.436 193.85 262.92 193.366 262.92 192.77L262.92 186.6 263.31 186.6 263.31 192.77C263.368 193.369 263.9 193.808 264.499 193.751 265.019 193.701 265.43 193.29 265.48 192.77L265.48 181.4 267.48 182.56C268.006 182.848 268.666 182.667 268.97 182.15 269.274 181.637 269.104 180.974 268.591 180.67 268.591 180.67 268.59 180.67 268.59 180.67Z" fill="#407BFF"/><g opacity="0.8"><path d="M263.13 177.52C264.295 177.526 265.244 176.585 265.25 175.42 265.255 174.255 264.315 173.306 263.15 173.3 261.985 173.295 261.036 174.235 261.03 175.4 261.03 175.407 261.03 175.413 261.03 175.42 261.03 176.58 261.97 177.52 263.13 177.52Z" fill="#FFFFFF"/><path d="M268.59 180.67 264.27 178.22C263.559 177.821 262.691 177.821 261.98 178.22L257.67 180.67C257.152 180.965 256.971 181.625 257.266 182.143 257.267 182.145 257.269 182.148 257.27 182.15 257.574 182.667 258.234 182.848 258.76 182.56L260.76 181.4 260.76 192.77C260.76 193.366 261.244 193.85 261.84 193.85 262.436 193.85 262.92 193.366 262.92 192.77L262.92 186.6 263.31 186.6 263.31 192.77C263.368 193.369 263.9 193.808 264.499 193.751 265.019 193.701 265.43 193.29 265.48 192.77L265.48 181.4 267.48 182.56C268.006 182.848 268.666 182.667 268.97 182.15 269.274 181.637 269.104 180.974 268.591 180.67 268.591 180.67 268.59 180.67 268.59 180.67Z" fill="#FFFFFF"/></g><path d="M249.2 177.52C250.365 177.52 251.31 176.575 251.31 175.41 251.31 174.245 250.365 173.3 249.2 173.3 248.035 173.3 247.09 174.245 247.09 175.41 247.09 175.413 247.09 175.417 247.09 175.42 247.09 176.58 248.03 177.52 249.19 177.52 249.193 177.52 249.197 177.52 249.2 177.52Z" fill="#407BFF"/><path d="M254.65 180.67 250.34 178.22C249.629 177.821 248.761 177.821 248.05 178.22L243.74 180.67C243.222 180.965 243.041 181.625 243.336 182.143 243.337 182.145 243.339 182.148 243.34 182.15 243.644 182.667 244.304 182.848 244.83 182.56L246.83 181.4 246.83 192.77C246.83 193.366 247.314 193.85 247.91 193.85 248.506 193.85 248.99 193.366 248.99 192.77L248.99 186.6 249.38 186.6 249.38 192.77C249.38 193.366 249.864 193.85 250.46 193.85 251.056 193.85 251.54 193.366 251.54 192.77L251.54 181.4 253.54 182.56C254.066 182.848 254.726 182.667 255.03 182.15 255.334 181.637 255.164 180.974 254.651 180.67 254.651 180.67 254.65 180.67 254.65 180.67Z" fill="#407BFF"/><g opacity="0.8"><path d="M249.2 177.52C250.365 177.52 251.31 176.575 251.31 175.41 251.31 174.245 250.365 173.3 249.2 173.3 248.035 173.3 247.09 174.245 247.09 175.41 247.09 175.413 247.09 175.417 247.09 175.42 247.09 176.58 248.03 177.52 249.19 177.52 249.193 177.52 249.197 177.52 249.2 177.52Z" fill="#FFFFFF"/><path d="M254.65 180.67 250.34 178.22C249.629 177.821 248.761 177.821 248.05 178.22L243.74 180.67C243.222 180.965 243.041 181.625 243.336 182.143 243.337 182.145 243.339 182.148 243.34 182.15 243.644 182.667 244.304 182.848 244.83 182.56L246.83 181.4 246.83 192.77C246.83 193.366 247.314 193.85 247.91 193.85 248.506 193.85 248.99 193.366 248.99 192.77L248.99 186.6 249.38 186.6 249.38 192.77C249.38 193.366 249.864 193.85 250.46 193.85 251.056 193.85 251.54 193.366 251.54 192.77L251.54 181.4 253.54 182.56C254.066 182.848 254.726 182.667 255.03 182.15 255.334 181.637 255.164 180.974 254.651 180.67 254.651 180.67 254.65 180.67 254.65 180.67Z" fill="#FFFFFF"/></g><path d="M235.26 177.52C236.425 177.526 237.374 176.585 237.38 175.42 237.385 174.255 236.445 173.306 235.28 173.3 234.115 173.295 233.165 174.235 233.16 175.4 233.16 175.407 233.16 175.413 233.16 175.42 233.16 176.58 234.1 177.52 235.26 177.52Z" fill="#407BFF"/><path d="M240.72 180.67 236.41 178.22C235.699 177.821 234.831 177.821 234.12 178.22L229.81 180.67C229.292 180.965 229.111 181.625 229.406 182.143 229.407 182.145 229.409 182.148 229.41 182.15 229.707 182.67 230.368 182.853 230.89 182.56L232.89 181.4 232.89 192.77C232.89 193.366 233.374 193.85 233.97 193.85 234.566 193.85 235.05 193.366 235.05 192.77L235.05 186.6 235.44 186.6 235.44 192.77C235.44 193.366 235.924 193.85 236.52 193.85 237.116 193.85 237.6 193.366 237.6 192.77L237.6 181.4 239.6 182.56C240.126 182.848 240.786 182.667 241.09 182.15 241.39 181.638 241.226 180.98 240.72 180.67Z" fill="#407BFF"/><g opacity="0.8"><path d="M235.26 177.52C236.425 177.526 237.374 176.585 237.38 175.42 237.385 174.255 236.445 173.306 235.28 173.3 234.115 173.295 233.165 174.235 233.16 175.4 233.16 175.407 233.16 175.413 233.16 175.42 233.16 176.58 234.1 177.52 235.26 177.52Z" fill="#FFFFFF"/><path d="M240.72 180.67 236.41 178.22C235.699 177.821 234.831 177.821 234.12 178.22L229.81 180.67C229.292 180.965 229.111 181.625 229.406 182.143 229.407 182.145 229.409 182.148 229.41 182.15 229.707 182.67 230.368 182.853 230.89 182.56L232.89 181.4 232.89 192.77C232.89 193.366 233.374 193.85 233.97 193.85 234.566 193.85 235.05 193.366 235.05 192.77L235.05 186.6 235.44 186.6 235.44 192.77C235.44 193.366 235.924 193.85 236.52 193.85 237.116 193.85 237.6 193.366 237.6 192.77L237.6 181.4 239.6 182.56C240.126 182.848 240.786 182.667 241.09 182.15 241.39 181.638 241.226 180.98 240.72 180.67Z" fill="#FFFFFF"/></g><path d="M221.33 177.52C222.495 177.526 223.444 176.585 223.45 175.42 223.455 174.255 222.515 173.306 221.35 173.3 220.185 173.295 219.236 174.235 219.23 175.4 219.23 175.407 219.23 175.413 219.23 175.42 219.235 176.578 220.172 177.515 221.33 177.52Z" fill="#407BFF"/><path d="M226.79 180.67 222.48 178.22C221.769 177.821 220.901 177.821 220.19 178.22L215.88 180.67C215.362 180.965 215.181 181.625 215.476 182.143 215.477 182.145 215.479 182.148 215.48 182.15 215.777 182.67 216.438 182.853 216.96 182.56L218.96 181.4 218.96 192.77C219.018 193.369 219.55 193.808 220.149 193.751 220.669 193.701 221.08 193.29 221.13 192.77L221.13 186.6 221.52 186.6 221.52 192.77C221.52 193.366 222.004 193.85 222.6 193.85 223.196 193.85 223.68 193.366 223.68 192.77L223.68 181.4 225.68 182.56C226.202 182.853 226.863 182.67 227.16 182.15 227.466 181.639 227.3 180.977 226.79 180.67Z" fill="#407BFF"/><g opacity="0.8"><path d="M221.33 177.52C222.495 177.526 223.444 176.585 223.45 175.42 223.455 174.255 222.515 173.306 221.35 173.3 220.185 173.295 219.236 174.235 219.23 175.4 219.23 175.407 219.23 175.413 219.23 175.42 219.235 176.578 220.172 177.515 221.33 177.52Z" fill="#FFFFFF"/><path d="M226.79 180.67 222.48 178.22C221.769 177.821 220.901 177.821 220.19 178.22L215.88 180.67C215.362 180.965 215.181 181.625 215.476 182.143 215.477 182.145 215.479 182.148 215.48 182.15 215.777 182.67 216.438 182.853 216.96 182.56L218.96 181.4 218.96 192.77C219.018 193.369 219.55 193.808 220.149 193.751 220.669 193.701 221.08 193.29 221.13 192.77L221.13 186.6 221.52 186.6 221.52 192.77C221.52 193.366 222.004 193.85 222.6 193.85 223.196 193.85 223.68 193.366 223.68 192.77L223.68 181.4 225.68 182.56C226.202 182.853 226.863 182.67 227.16 182.15 227.466 181.639 227.3 180.977 226.79 180.67Z" fill="#FFFFFF"/></g><path d="M277.06 200.3C278.225 200.306 279.174 199.365 279.18 198.2 279.185 197.035 278.245 196.086 277.08 196.08 275.915 196.075 274.966 197.015 274.96 198.18 274.96 198.183 274.96 198.187 274.96 198.19 274.96 199.351 275.899 200.294 277.06 200.3Z" fill="#407BFF"/><path d="M282.52 203.44 278.21 201C277.858 200.804 277.463 200.701 277.06 200.7 276.657 200.7 276.261 200.803 275.91 201L271.61 203.44C271.072 203.71 270.855 204.365 271.125 204.903 271.395 205.441 272.05 205.658 272.588 205.388 272.623 205.371 272.657 205.351 272.69 205.33L274.69 204.18 274.69 215.55C274.69 216.146 275.174 216.63 275.77 216.63 276.366 216.63 276.85 216.146 276.85 215.55L276.85 209.37 277.24 209.37 277.24 215.55C277.298 216.149 277.83 216.588 278.429 216.531 278.949 216.481 279.36 216.07 279.41 215.55L279.41 204.18 281.41 205.33C281.932 205.631 282.599 205.452 282.9 204.93 283.201 204.408 283.022 203.741 282.5 203.44Z" fill="#407BFF"/><g opacity="0.8"><path d="M277.06 200.3C278.225 200.306 279.174 199.365 279.18 198.2 279.185 197.035 278.245 196.086 277.08 196.08 275.915 196.075 274.966 197.015 274.96 198.18 274.96 198.183 274.96 198.187 274.96 198.19 274.96 199.351 275.899 200.294 277.06 200.3Z" fill="#FFFFFF"/><path d="M282.52 203.44 278.21 201C277.858 200.804 277.463 200.701 277.06 200.7 276.657 200.7 276.261 200.803 275.91 201L271.61 203.44C271.072 203.71 270.855 204.365 271.125 204.903 271.395 205.441 272.05 205.658 272.588 205.388 272.623 205.371 272.657 205.351 272.69 205.33L274.69 204.18 274.69 215.55C274.69 216.146 275.174 216.63 275.77 216.63 276.366 216.63 276.85 216.146 276.85 215.55L276.85 209.37 277.24 209.37 277.24 215.55C277.298 216.149 277.83 216.588 278.429 216.531 278.949 216.481 279.36 216.07 279.41 215.55L279.41 204.18 281.41 205.33C281.932 205.631 282.599 205.452 282.9 204.93 283.201 204.408 283.022 203.741 282.5 203.44Z" fill="#FFFFFF"/></g><path d="M263.13 200.3C264.295 200.306 265.244 199.365 265.25 198.2 265.255 197.035 264.315 196.086 263.15 196.08 261.985 196.075 261.036 197.015 261.03 198.18 261.03 198.183 261.03 198.187 261.03 198.19 261.03 199.351 261.969 200.294 263.13 200.3Z" fill="#407BFF"/><path d="M268.59 203.44 264.27 201C263.559 200.601 262.691 200.601 261.98 201L257.67 203.44C257.148 203.741 256.969 204.408 257.27 204.93 257.571 205.452 258.238 205.631 258.76 205.33L260.76 204.18 260.76 215.55C260.76 216.146 261.244 216.63 261.84 216.63 262.436 216.63 262.92 216.146 262.92 215.55L262.92 209.37 263.31 209.37 263.31 215.55C263.368 216.149 263.9 216.588 264.499 216.531 265.019 216.481 265.43 216.07 265.48 215.55L265.48 204.18 267.48 205.33C268.002 205.631 268.669 205.452 268.97 204.93 269.271 204.408 269.092 203.741 268.57 203.44Z" fill="#407BFF"/><g opacity="0.8"><path d="M263.13 200.3C264.295 200.306 265.244 199.365 265.25 198.2 265.255 197.035 264.315 196.086 263.15 196.08 261.985 196.075 261.036 197.015 261.03 198.18 261.03 198.183 261.03 198.187 261.03 198.19 261.03 199.351 261.969 200.294 263.13 200.3Z" fill="#FFFFFF"/><path d="M268.59 203.44 264.27 201C263.559 200.601 262.691 200.601 261.98 201L257.67 203.44C257.148 203.741 256.969 204.408 257.27 204.93 257.571 205.452 258.238 205.631 258.76 205.33L260.76 204.18 260.76 215.55C260.76 216.146 261.244 216.63 261.84 216.63 262.436 216.63 262.92 216.146 262.92 215.55L262.92 209.37 263.31 209.37 263.31 215.55C263.368 216.149 263.9 216.588 264.499 216.531 265.019 216.481 265.43 216.07 265.48 215.55L265.48 204.18 267.48 205.33C268.002 205.631 268.669 205.452 268.97 204.93 269.271 204.408 269.092 203.741 268.57 203.44Z" fill="#FFFFFF"/></g><path d="M249.2 200.3C250.365 200.3 251.31 199.355 251.31 198.19 251.31 197.025 250.365 196.08 249.2 196.08 248.035 196.08 247.09 197.025 247.09 198.19 247.09 199.355 248.035 200.3 249.2 200.3Z" fill="#407BFF"/><path d="M254.65 203.44 250.34 201C249.629 200.601 248.761 200.601 248.05 201L243.74 203.44C243.218 203.741 243.039 204.408 243.34 204.93 243.641 205.452 244.308 205.631 244.83 205.33L246.83 204.18 246.83 215.55C246.83 216.146 247.314 216.63 247.91 216.63 248.506 216.63 248.99 216.146 248.99 215.55L248.99 209.37 249.38 209.37 249.38 215.55C249.38 216.146 249.864 216.63 250.46 216.63 251.056 216.63 251.54 216.146 251.54 215.55L251.54 204.18 253.54 205.33C254.046 205.657 254.72 205.511 255.047 205.005 255.373 204.5 255.228 203.825 254.722 203.498 254.689 203.477 254.655 203.458 254.62 203.44Z" fill="#407BFF"/><g opacity="0.8"><path d="M249.2 200.3C250.365 200.3 251.31 199.355 251.31 198.19 251.31 197.025 250.365 196.08 249.2 196.08 248.035 196.08 247.09 197.025 247.09 198.19 247.09 199.355 248.035 200.3 249.2 200.3Z" fill="#FFFFFF"/><path d="M254.65 203.44 250.34 201C249.629 200.601 248.761 200.601 248.05 201L243.74 203.44C243.218 203.741 243.039 204.408 243.34 204.93 243.641 205.452 244.308 205.631 244.83 205.33L246.83 204.18 246.83 215.55C246.83 216.146 247.314 216.63 247.91 216.63 248.506 216.63 248.99 216.146 248.99 215.55L248.99 209.37 249.38 209.37 249.38 215.55C249.38 216.146 249.864 216.63 250.46 216.63 251.056 216.63 251.54 216.146 251.54 215.55L251.54 204.18 253.54 205.33C254.046 205.657 254.72 205.511 255.047 205.005 255.373 204.5 255.228 203.825 254.722 203.498 254.689 203.477 254.655 203.458 254.62 203.44Z" fill="#FFFFFF"/></g><path d="M235.26 200.3C236.425 200.306 237.374 199.365 237.38 198.2 237.385 197.035 236.445 196.086 235.28 196.08 234.115 196.075 233.166 197.015 233.16 198.18 233.16 198.183 233.16 198.187 233.16 198.19 233.16 199.351 234.099 200.294 235.26 200.3Z" fill="#407BFF"/><path d="M240.72 203.44 236.41 201C235.699 200.601 234.831 200.601 234.12 201L229.81 203.44C229.288 203.74 229.109 204.407 229.409 204.928 229.409 204.929 229.41 204.929 229.41 204.93 229.705 205.448 230.365 205.629 230.883 205.334 230.885 205.333 230.888 205.331 230.89 205.33L232.89 204.18 232.89 215.55C232.89 216.146 233.374 216.63 233.97 216.63 234.566 216.63 235.05 216.146 235.05 215.55L235.05 209.37 235.44 209.37 235.44 215.55C235.44 216.146 235.924 216.63 236.52 216.63 237.116 216.63 237.6 216.146 237.6 215.55L237.6 204.18 239.6 205.33C240.121 205.631 240.788 205.453 241.089 204.932 241.089 204.931 241.09 204.931 241.09 204.93 241.385 204.414 241.222 203.758 240.72 203.44Z" fill="#407BFF"/><g opacity="0.8"><path d="M235.26 200.3C236.425 200.306 237.374 199.365 237.38 198.2 237.385 197.035 236.445 196.086 235.28 196.08 234.115 196.075 233.166 197.015 233.16 198.18 233.16 198.183 233.16 198.187 233.16 198.19 233.16 199.351 234.099 200.294 235.26 200.3Z" fill="#FFFFFF"/><path d="M240.72 203.44 236.41 201C235.699 200.601 234.831 200.601 234.12 201L229.81 203.44C229.288 203.74 229.109 204.407 229.409 204.928 229.409 204.929 229.41 204.929 229.41 204.93 229.705 205.448 230.365 205.629 230.883 205.334 230.885 205.333 230.888 205.331 230.89 205.33L232.89 204.18 232.89 215.55C232.89 216.146 233.374 216.63 233.97 216.63 234.566 216.63 235.05 216.146 235.05 215.55L235.05 209.37 235.44 209.37 235.44 215.55C235.44 216.146 235.924 216.63 236.52 216.63 237.116 216.63 237.6 216.146 237.6 215.55L237.6 204.18 239.6 205.33C240.121 205.631 240.788 205.453 241.089 204.932 241.089 204.931 241.09 204.931 241.09 204.93 241.385 204.414 241.222 203.758 240.72 203.44Z" fill="#FFFFFF"/></g><path d="M263.13 223.07C264.29 223.053 265.216 222.1 265.2 220.94 265.183 219.78 264.229 218.854 263.07 218.87 261.91 218.887 260.984 219.84 261 221 261.016 222.16 261.97 223.086 263.13 223.07 263.13 223.07 263.13 223.07 263.13 223.07Z" fill="#407BFF"/><path d="M268.59 226.22 264.27 223.78C263.559 223.381 262.691 223.381 261.98 223.78L257.67 226.22C257.148 226.521 256.969 227.188 257.27 227.71 257.571 228.232 258.238 228.411 258.76 228.11L260.76 226.96 260.76 238.33C260.76 238.926 261.244 239.41 261.84 239.41 262.436 239.41 262.92 238.926 262.92 238.33L262.92 232.15 263.31 232.15 263.31 238.33C263.368 238.929 263.9 239.368 264.499 239.311 265.019 239.261 265.43 238.85 265.48 238.33L265.48 227 267.48 228.15C268.002 228.451 268.669 228.272 268.97 227.75 269.271 227.228 269.092 226.561 268.57 226.26Z" fill="#407BFF"/><g opacity="0.8"><path d="M263.13 223.07C264.29 223.053 265.216 222.1 265.2 220.94 265.183 219.78 264.229 218.854 263.07 218.87 261.91 218.887 260.984 219.84 261 221 261.016 222.16 261.97 223.086 263.13 223.07 263.13 223.07 263.13 223.07 263.13 223.07Z" fill="#FFFFFF"/><path d="M268.59 226.22 264.27 223.78C263.559 223.381 262.691 223.381 261.98 223.78L257.67 226.22C257.148 226.521 256.969 227.188 257.27 227.71 257.571 228.232 258.238 228.411 258.76 228.11L260.76 226.96 260.76 238.33C260.76 238.926 261.244 239.41 261.84 239.41 262.436 239.41 262.92 238.926 262.92 238.33L262.92 232.15 263.31 232.15 263.31 238.33C263.368 238.929 263.9 239.368 264.499 239.311 265.019 239.261 265.43 238.85 265.48 238.33L265.48 227 267.48 228.15C268.002 228.451 268.669 228.272 268.97 227.75 269.271 227.228 269.092 226.561 268.57 226.26Z" fill="#FFFFFF"/></g><path d="M249.2 223.07C250.36 223.064 251.296 222.12 251.29 220.96 251.284 219.8 250.34 218.865 249.18 218.87 248.024 218.876 247.09 219.814 247.09 220.97 247.09 222.13 248.03 223.07 249.19 223.07 249.193 223.07 249.197 223.07 249.2 223.07Z" fill="#407BFF"/><path d="M254.65 226.22 250.34 223.78C249.629 223.381 248.761 223.381 248.05 223.78L243.74 226.22C243.218 226.521 243.039 227.188 243.34 227.71 243.641 228.232 244.308 228.411 244.83 228.11L246.83 226.96 246.83 238.33C246.83 238.926 247.314 239.41 247.91 239.41 248.506 239.41 248.99 238.926 248.99 238.33L248.99 232.15 249.38 232.15 249.38 238.33C249.38 238.926 249.864 239.41 250.46 239.41 251.056 239.41 251.54 238.926 251.54 238.33L251.54 227 253.54 228.15C254.046 228.477 254.72 228.331 255.047 227.825 255.373 227.32 255.228 226.645 254.722 226.318 254.689 226.297 254.655 226.278 254.62 226.26Z" fill="#407BFF"/><g opacity="0.8"><path d="M249.2 223.07C250.36 223.064 251.296 222.12 251.29 220.96 251.284 219.8 250.34 218.865 249.18 218.87 248.024 218.876 247.09 219.814 247.09 220.97 247.09 222.13 248.03 223.07 249.19 223.07 249.193 223.07 249.197 223.07 249.2 223.07Z" fill="#FFFFFF"/><path d="M254.65 226.22 250.34 223.78C249.629 223.381 248.761 223.381 248.05 223.78L243.74 226.22C243.218 226.521 243.039 227.188 243.34 227.71 243.641 228.232 244.308 228.411 244.83 228.11L246.83 226.96 246.83 238.33C246.83 238.926 247.314 239.41 247.91 239.41 248.506 239.41 248.99 238.926 248.99 238.33L248.99 232.15 249.38 232.15 249.38 238.33C249.38 238.926 249.864 239.41 250.46 239.41 251.056 239.41 251.54 238.926 251.54 238.33L251.54 227 253.54 228.15C254.046 228.477 254.72 228.331 255.047 227.825 255.373 227.32 255.228 226.645 254.722 226.318 254.689 226.297 254.655 226.278 254.62 226.26Z" fill="#FFFFFF"/></g><path d="M249.2 245.85C250.36 245.844 251.296 244.9 251.29 243.74 251.284 242.58 250.34 241.645 249.18 241.65 248.024 241.656 247.09 242.594 247.09 243.75 247.09 244.91 248.03 245.85 249.19 245.85 249.193 245.85 249.197 245.85 249.2 245.85Z" fill="#407BFF"/><path d="M254.65 249 250.34 246.56C249.629 246.161 248.761 246.161 248.05 246.56L243.74 249C243.218 249.301 243.039 249.968 243.34 250.49 243.641 251.012 244.308 251.191 244.83 250.89L246.83 249.74 246.83 261.11C246.83 261.706 247.314 262.19 247.91 262.19 248.506 262.19 248.99 261.706 248.99 261.11L248.99 254.93 249.38 254.93 249.38 261.11C249.38 261.706 249.864 262.19 250.46 262.19 251.056 262.19 251.54 261.706 251.54 261.11L251.54 249.73 253.54 250.89C254.046 251.217 254.72 251.071 255.047 250.565 255.373 250.06 255.228 249.385 254.722 249.058 254.689 249.037 254.655 249.018 254.62 249Z" fill="#407BFF"/><g opacity="0.8"><path d="M249.2 245.85C250.36 245.844 251.296 244.9 251.29 243.74 251.284 242.58 250.34 241.645 249.18 241.65 248.024 241.656 247.09 242.594 247.09 243.75 247.09 244.91 248.03 245.85 249.19 245.85 249.193 245.85 249.197 245.85 249.2 245.85Z" fill="#FFFFFF"/><path d="M254.65 249 250.34 246.56C249.629 246.161 248.761 246.161 248.05 246.56L243.74 249C243.218 249.301 243.039 249.968 243.34 250.49 243.641 251.012 244.308 251.191 244.83 250.89L246.83 249.74 246.83 261.11C246.83 261.706 247.314 262.19 247.91 262.19 248.506 262.19 248.99 261.706 248.99 261.11L248.99 254.93 249.38 254.93 249.38 261.11C249.38 261.706 249.864 262.19 250.46 262.19 251.056 262.19 251.54 261.706 251.54 261.11L251.54 249.73 253.54 250.89C254.046 251.217 254.72 251.071 255.047 250.565 255.373 250.06 255.228 249.385 254.722 249.058 254.689 249.037 254.655 249.018 254.62 249Z" fill="#FFFFFF"/></g><path d="M235.26 223.07C236.42 223.07 237.36 222.13 237.36 220.97 237.36 219.81 236.42 218.87 235.26 218.87 234.1 218.87 233.16 219.81 233.16 220.97 233.16 222.13 234.1 223.07 235.26 223.07Z" fill="#407BFF"/><path d="M240.72 226.22 236.41 223.78C235.699 223.381 234.831 223.381 234.12 223.78L229.81 226.22C229.288 226.52 229.109 227.187 229.409 227.708 229.409 227.709 229.41 227.709 229.41 227.71 229.705 228.228 230.365 228.409 230.883 228.114 230.885 228.113 230.888 228.111 230.89 228.11L232.89 226.96 232.89 238.33C232.89 238.926 233.374 239.41 233.97 239.41 234.566 239.41 235.05 238.926 235.05 238.33L235.05 232.15 235.44 232.15 235.44 238.33C235.44 238.926 235.924 239.41 236.52 239.41 237.116 239.41 237.6 238.926 237.6 238.33L237.6 227 239.6 228.15C240.121 228.451 240.788 228.273 241.089 227.752 241.089 227.751 241.09 227.751 241.09 227.75 241.411 227.228 241.248 226.544 240.725 226.223 240.723 226.222 240.722 226.221 240.72 226.22Z" fill="#407BFF"/><g opacity="0.8"><path d="M235.26 223.07C236.42 223.07 237.36 222.13 237.36 220.97 237.36 219.81 236.42 218.87 235.26 218.87 234.1 218.87 233.16 219.81 233.16 220.97 233.16 222.13 234.1 223.07 235.26 223.07Z" fill="#FFFFFF"/><path d="M240.72 226.22 236.41 223.78C235.699 223.381 234.831 223.381 234.12 223.78L229.81 226.22C229.288 226.52 229.109 227.187 229.409 227.708 229.409 227.709 229.41 227.709 229.41 227.71 229.705 228.228 230.365 228.409 230.883 228.114 230.885 228.113 230.888 228.111 230.89 228.11L232.89 226.96 232.89 238.33C232.89 238.926 233.374 239.41 233.97 239.41 234.566 239.41 235.05 238.926 235.05 238.33L235.05 232.15 235.44 232.15 235.44 238.33C235.44 238.926 235.924 239.41 236.52 239.41 237.116 239.41 237.6 238.926 237.6 238.33L237.6 227 239.6 228.15C240.121 228.451 240.788 228.273 241.089 227.752 241.089 227.751 241.09 227.751 241.09 227.75 241.411 227.228 241.248 226.544 240.725 226.223 240.723 226.222 240.722 226.221 240.72 226.22Z" fill="#FFFFFF"/></g><path d="M221.33 200.3C222.495 200.306 223.444 199.365 223.45 198.2 223.456 197.035 222.515 196.086 221.35 196.08 220.185 196.075 219.236 197.015 219.23 198.18 219.23 198.183 219.23 198.187 219.23 198.19 219.235 199.349 220.171 200.289 221.33 200.3Z" fill="#407BFF"/><path d="M226.79 203.44 222.48 201C221.769 200.601 220.901 200.601 220.19 201L215.88 203.44C215.358 203.74 215.179 204.407 215.479 204.928 215.479 204.929 215.48 204.929 215.48 204.93 215.775 205.448 216.435 205.629 216.953 205.334 216.955 205.333 216.958 205.331 216.96 205.33L218.96 204.18 218.96 215.55C219.018 216.149 219.55 216.588 220.149 216.531 220.669 216.481 221.08 216.07 221.13 215.55L221.13 209.37 221.52 209.37 221.52 215.55C221.52 216.146 222.004 216.63 222.6 216.63 223.196 216.63 223.68 216.146 223.68 215.55L223.68 204.18 225.68 205.33C226.196 205.629 226.857 205.453 227.156 204.937 227.157 204.935 227.159 204.932 227.16 204.93 227.467 204.416 227.301 203.751 226.79 203.44Z" fill="#407BFF"/><g opacity="0.8"><path d="M221.33 200.3C222.495 200.306 223.444 199.365 223.45 198.2 223.456 197.035 222.515 196.086 221.35 196.08 220.185 196.075 219.236 197.015 219.23 198.18 219.23 198.183 219.23 198.187 219.23 198.19 219.235 199.349 220.171 200.289 221.33 200.3Z" fill="#FFFFFF"/><path d="M226.79 203.44 222.48 201C221.769 200.601 220.901 200.601 220.19 201L215.88 203.44C215.358 203.74 215.179 204.407 215.479 204.928 215.479 204.929 215.48 204.929 215.48 204.93 215.775 205.448 216.435 205.629 216.953 205.334 216.955 205.333 216.958 205.331 216.96 205.33L218.96 204.18 218.96 215.55C219.018 216.149 219.55 216.588 220.149 216.531 220.669 216.481 221.08 216.07 221.13 215.55L221.13 209.37 221.52 209.37 221.52 215.55C221.52 216.146 222.004 216.63 222.6 216.63 223.196 216.63 223.68 216.146 223.68 215.55L223.68 204.18 225.68 205.33C226.196 205.629 226.857 205.453 227.156 204.937 227.157 204.935 227.159 204.932 227.16 204.93 227.467 204.416 227.301 203.751 226.79 203.44Z" fill="#FFFFFF"/></g><path d="M291 177.52C292.165 177.526 293.114 176.585 293.12 175.42 293.125 174.255 292.185 173.306 291.02 173.3 289.855 173.295 288.906 174.235 288.9 175.4 288.9 175.407 288.9 175.413 288.9 175.42 288.9 176.58 289.84 177.52 291 177.52Z" fill="#407BFF"/><path d="M296.45 180.67 292.14 178.22C291.426 177.819 290.554 177.819 289.84 178.22L285.54 180.67C285.02 180.967 284.837 181.628 285.13 182.15 285.434 182.667 286.094 182.848 286.62 182.56L288.62 181.4 288.62 192.77C288.678 193.369 289.21 193.808 289.809 193.751 290.329 193.701 290.74 193.29 290.79 192.77L290.79 186.6 291.18 186.6 291.18 192.77C291.18 193.366 291.664 193.85 292.26 193.85 292.856 193.85 293.34 193.366 293.34 192.77L293.34 181.4 295.34 182.56C295.862 182.853 296.523 182.67 296.82 182.15 297.126 181.639 296.96 180.977 296.45 180.67Z" fill="#407BFF"/><g opacity="0.8"><path d="M291 177.52C292.165 177.526 293.114 176.585 293.12 175.42 293.125 174.255 292.185 173.306 291.02 173.3 289.855 173.295 288.906 174.235 288.9 175.4 288.9 175.407 288.9 175.413 288.9 175.42 288.9 176.58 289.84 177.52 291 177.52Z" fill="#FFFFFF"/><path d="M296.45 180.67 292.14 178.22C291.426 177.819 290.554 177.819 289.84 178.22L285.54 180.67C285.02 180.967 284.837 181.628 285.13 182.15 285.434 182.667 286.094 182.848 286.62 182.56L288.62 181.4 288.62 192.77C288.678 193.369 289.21 193.808 289.809 193.751 290.329 193.701 290.74 193.29 290.79 192.77L290.79 186.6 291.18 186.6 291.18 192.77C291.18 193.366 291.664 193.85 292.26 193.85 292.856 193.85 293.34 193.366 293.34 192.77L293.34 181.4 295.34 182.56C295.862 182.853 296.523 182.67 296.82 182.15 297.126 181.639 296.96 180.977 296.45 180.67Z" fill="#FFFFFF"/></g><path d="M277.06 154.74C278.22 154.74 279.16 153.8 279.16 152.64 279.16 151.48 278.22 150.54 277.06 150.54 275.9 150.54 274.96 151.48 274.96 152.64 274.96 153.8 275.9 154.74 277.06 154.74Z" fill="#407BFF"/><path d="M282.52 157.89 278.21 155.45C277.861 155.247 277.464 155.14 277.06 155.14 276.656 155.143 276.26 155.25 275.91 155.45L271.61 157.89C271.072 158.16 270.855 158.815 271.125 159.353 271.395 159.891 272.05 160.108 272.588 159.838 272.623 159.821 272.657 159.801 272.69 159.78L274.69 158.63 274.69 170C274.69 170.596 275.174 171.08 275.77 171.08 276.366 171.08 276.85 170.596 276.85 170L276.85 163.83 277.24 163.83 277.24 170C277.182 170.599 277.621 171.132 278.221 171.189 278.82 171.247 279.352 170.808 279.41 170.209 279.417 170.139 279.417 170.069 279.41 170L279.41 158.62 281.41 159.78C281.932 160.081 282.599 159.902 282.9 159.38 283.201 158.858 283.022 158.191 282.5 157.89Z" fill="#407BFF"/><g opacity="0.8"><path d="M277.06 154.74C278.22 154.74 279.16 153.8 279.16 152.64 279.16 151.48 278.22 150.54 277.06 150.54 275.9 150.54 274.96 151.48 274.96 152.64 274.96 153.8 275.9 154.74 277.06 154.74Z" fill="#FFFFFF"/><path d="M282.52 157.89 278.21 155.45C277.861 155.247 277.464 155.14 277.06 155.14 276.656 155.143 276.26 155.25 275.91 155.45L271.61 157.89C271.072 158.16 270.855 158.815 271.125 159.353 271.395 159.891 272.05 160.108 272.588 159.838 272.623 159.821 272.657 159.801 272.69 159.78L274.69 158.63 274.69 170C274.69 170.596 275.174 171.08 275.77 171.08 276.366 171.08 276.85 170.596 276.85 170L276.85 163.83 277.24 163.83 277.24 170C277.182 170.599 277.621 171.132 278.221 171.189 278.82 171.247 279.352 170.808 279.41 170.209 279.417 170.139 279.417 170.069 279.41 170L279.41 158.62 281.41 159.78C281.932 160.081 282.599 159.902 282.9 159.38 283.201 158.858 283.022 158.191 282.5 157.89Z" fill="#FFFFFF"/></g><path d="M263.13 154.74C264.29 154.74 265.23 153.8 265.23 152.64 265.23 151.48 264.29 150.54 263.13 150.54 261.97 150.54 261.03 151.48 261.03 152.64 261.03 153.8 261.97 154.74 263.13 154.74Z" fill="#407BFF"/><path d="M268.59 157.89 264.27 155.45C263.925 155.247 263.531 155.139 263.13 155.14 262.726 155.143 262.33 155.25 261.98 155.45L257.67 157.89C257.148 158.191 256.969 158.858 257.27 159.38 257.571 159.902 258.238 160.081 258.76 159.78L260.76 158.63 260.76 170C260.76 170.596 261.244 171.08 261.84 171.08 262.436 171.08 262.92 170.596 262.92 170L262.92 163.83 263.31 163.83 263.31 170C263.252 170.599 263.691 171.132 264.291 171.189 264.89 171.247 265.422 170.808 265.48 170.209 265.487 170.139 265.487 170.069 265.48 170L265.48 158.62 267.48 159.78C268.002 160.081 268.669 159.902 268.97 159.38 269.271 158.858 269.092 158.191 268.57 157.89Z" fill="#407BFF"/><g opacity="0.8"><path d="M263.13 154.74C264.29 154.74 265.23 153.8 265.23 152.64 265.23 151.48 264.29 150.54 263.13 150.54 261.97 150.54 261.03 151.48 261.03 152.64 261.03 153.8 261.97 154.74 263.13 154.74Z" fill="#FFFFFF"/><path d="M268.59 157.89 264.27 155.45C263.925 155.247 263.531 155.139 263.13 155.14 262.726 155.143 262.33 155.25 261.98 155.45L257.67 157.89C257.148 158.191 256.969 158.858 257.27 159.38 257.571 159.902 258.238 160.081 258.76 159.78L260.76 158.63 260.76 170C260.76 170.596 261.244 171.08 261.84 171.08 262.436 171.08 262.92 170.596 262.92 170L262.92 163.83 263.31 163.83 263.31 170C263.252 170.599 263.691 171.132 264.291 171.189 264.89 171.247 265.422 170.808 265.48 170.209 265.487 170.139 265.487 170.069 265.48 170L265.48 158.62 267.48 159.78C268.002 160.081 268.669 159.902 268.97 159.38 269.271 158.858 269.092 158.191 268.57 157.89Z" fill="#FFFFFF"/></g><path d="M249.2 154.74C250.36 154.734 251.296 153.79 251.29 152.63 251.284 151.47 250.34 150.535 249.18 150.54 248.024 150.546 247.09 151.484 247.09 152.64 247.09 153.8 248.03 154.74 249.19 154.74 249.193 154.74 249.197 154.74 249.2 154.74Z" fill="#407BFF"/><path d="M254.65 157.89 250.34 155.45C249.995 155.247 249.601 155.139 249.2 155.14 248.796 155.143 248.4 155.25 248.05 155.45L243.74 157.89C243.218 158.191 243.039 158.858 243.34 159.38 243.641 159.902 244.308 160.081 244.83 159.78L246.83 158.63 246.83 170C246.83 170.596 247.314 171.08 247.91 171.08 248.506 171.08 248.99 170.596 248.99 170L248.99 163.83 249.38 163.83 249.38 170C249.38 170.596 249.864 171.08 250.46 171.08 251.056 171.08 251.54 170.596 251.54 170L251.54 158.62 253.54 159.78C254.046 160.107 254.72 159.961 255.047 159.455 255.373 158.95 255.228 158.275 254.722 157.948 254.689 157.927 254.655 157.908 254.62 157.89Z" fill="#407BFF"/><g opacity="0.8"><path d="M249.2 154.74C250.36 154.734 251.296 153.79 251.29 152.63 251.284 151.47 250.34 150.535 249.18 150.54 248.024 150.546 247.09 151.484 247.09 152.64 247.09 153.8 248.03 154.74 249.19 154.74 249.193 154.74 249.197 154.74 249.2 154.74Z" fill="#FFFFFF"/><path d="M254.65 157.89 250.34 155.45C249.995 155.247 249.601 155.139 249.2 155.14 248.796 155.143 248.4 155.25 248.05 155.45L243.74 157.89C243.218 158.191 243.039 158.858 243.34 159.38 243.641 159.902 244.308 160.081 244.83 159.78L246.83 158.63 246.83 170C246.83 170.596 247.314 171.08 247.91 171.08 248.506 171.08 248.99 170.596 248.99 170L248.99 163.83 249.38 163.83 249.38 170C249.38 170.596 249.864 171.08 250.46 171.08 251.056 171.08 251.54 170.596 251.54 170L251.54 158.62 253.54 159.78C254.046 160.107 254.72 159.961 255.047 159.455 255.373 158.95 255.228 158.275 254.722 157.948 254.689 157.927 254.655 157.908 254.62 157.89Z" fill="#FFFFFF"/></g><path d="M235.26 154.74C236.42 154.74 237.36 153.8 237.36 152.64 237.36 151.48 236.42 150.54 235.26 150.54 234.1 150.54 233.16 151.48 233.16 152.64 233.16 153.8 234.1 154.74 235.26 154.74Z" fill="#407BFF"/><path d="M240.72 157.89 236.41 155.45C236.061 155.245 235.664 155.138 235.26 155.14 234.86 155.144 234.467 155.251 234.12 155.45L229.81 157.89C229.288 158.19 229.109 158.857 229.409 159.378 229.409 159.379 229.41 159.379 229.41 159.38 229.705 159.898 230.365 160.079 230.883 159.784 230.885 159.783 230.888 159.781 230.89 159.78L232.89 158.63 232.89 170C232.89 170.596 233.374 171.08 233.97 171.08 234.566 171.08 235.05 170.596 235.05 170L235.05 163.83 235.44 163.83 235.44 170C235.44 170.596 235.924 171.08 236.52 171.08 237.116 171.08 237.6 170.596 237.6 170L237.6 158.62 239.6 159.78C240.121 160.081 240.788 159.903 241.089 159.382 241.089 159.381 241.09 159.381 241.09 159.38 241.385 158.864 241.222 158.208 240.72 157.89Z" fill="#407BFF"/><g opacity="0.8"><path d="M235.26 154.74C236.42 154.74 237.36 153.8 237.36 152.64 237.36 151.48 236.42 150.54 235.26 150.54 234.1 150.54 233.16 151.48 233.16 152.64 233.16 153.8 234.1 154.74 235.26 154.74Z" fill="#FFFFFF"/><path d="M240.72 157.89 236.41 155.45C236.061 155.245 235.664 155.138 235.26 155.14 234.86 155.144 234.467 155.251 234.12 155.45L229.81 157.89C229.288 158.19 229.109 158.857 229.409 159.378 229.409 159.379 229.41 159.379 229.41 159.38 229.705 159.898 230.365 160.079 230.883 159.784 230.885 159.783 230.888 159.781 230.89 159.78L232.89 158.63 232.89 170C232.89 170.596 233.374 171.08 233.97 171.08 234.566 171.08 235.05 170.596 235.05 170L235.05 163.83 235.44 163.83 235.44 170C235.44 170.596 235.924 171.08 236.52 171.08 237.116 171.08 237.6 170.596 237.6 170L237.6 158.62 239.6 159.78C240.121 160.081 240.788 159.903 241.089 159.382 241.089 159.381 241.09 159.381 241.09 159.38 241.385 158.864 241.222 158.208 240.72 157.89Z" fill="#FFFFFF"/></g><path d="M291 154.74C292.16 154.74 293.1 153.8 293.1 152.64 293.1 151.48 292.16 150.54 291 150.54 289.84 150.54 288.9 151.48 288.9 152.64 288.9 153.8 289.84 154.74 291 154.74Z" fill="#407BFF"/><path d="M296.45 157.89 292.14 155.45C291.791 155.245 291.394 155.138 290.99 155.14 290.586 155.143 290.19 155.25 289.84 155.45L285.54 157.89C285.023 158.194 284.842 158.854 285.13 159.38 285.43 159.902 286.097 160.081 286.618 159.781 286.619 159.781 286.62 159.78 286.62 159.78L288.62 158.63 288.62 170C288.562 170.599 289.001 171.132 289.601 171.189 290.2 171.247 290.732 170.808 290.79 170.209 290.797 170.139 290.797 170.069 290.79 170L290.79 163.83 291.18 163.83 291.18 170C291.18 170.596 291.664 171.08 292.26 171.08 292.856 171.08 293.34 170.596 293.34 170L293.34 158.62 295.34 159.78C295.856 160.079 296.517 159.903 296.816 159.387 296.817 159.385 296.819 159.382 296.82 159.38 297.127 158.866 296.962 158.201 296.45 157.89Z" fill="#407BFF"/><g opacity="0.8"><path d="M291 154.74C292.16 154.74 293.1 153.8 293.1 152.64 293.1 151.48 292.16 150.54 291 150.54 289.84 150.54 288.9 151.48 288.9 152.64 288.9 153.8 289.84 154.74 291 154.74Z" fill="#FFFFFF"/><path d="M296.45 157.89 292.14 155.45C291.791 155.245 291.394 155.138 290.99 155.14 290.586 155.143 290.19 155.25 289.84 155.45L285.54 157.89C285.023 158.194 284.842 158.854 285.13 159.38 285.43 159.902 286.097 160.081 286.618 159.781 286.619 159.781 286.62 159.78 286.62 159.78L288.62 158.63 288.62 170C288.562 170.599 289.001 171.132 289.601 171.189 290.2 171.247 290.732 170.808 290.79 170.209 290.797 170.139 290.797 170.069 290.79 170L290.79 163.83 291.18 163.83 291.18 170C291.18 170.596 291.664 171.08 292.26 171.08 292.856 171.08 293.34 170.596 293.34 170L293.34 158.62 295.34 159.78C295.856 160.079 296.517 159.903 296.816 159.387 296.817 159.385 296.819 159.382 296.82 159.38 297.127 158.866 296.962 158.201 296.45 157.89Z" fill="#FFFFFF"/></g><path d="M277.06 132C278.22 132 279.16 131.06 279.16 129.9 279.16 128.74 278.22 127.8 277.06 127.8 275.9 127.8 274.96 128.74 274.96 129.9 274.96 131.06 275.9 132 277.06 132Z" fill="#407BFF"/><path d="M282.52 135.11 278.21 132.67C277.858 132.474 277.463 132.371 277.06 132.37 276.657 132.37 276.261 132.473 275.91 132.67L271.61 135.11C271.072 135.38 270.855 136.035 271.125 136.573 271.395 137.111 272.05 137.328 272.588 137.058 272.623 137.041 272.657 137.021 272.69 137L274.69 135.85 274.69 147.22C274.69 147.816 275.174 148.3 275.77 148.3 276.366 148.3 276.85 147.816 276.85 147.22L276.85 141 277.24 141 277.24 147.18C277.298 147.779 277.83 148.218 278.429 148.161 278.949 148.111 279.36 147.7 279.41 147.18L279.41 135.85 281.41 137C281.932 137.301 282.599 137.122 282.9 136.6 283.201 136.078 283.022 135.411 282.5 135.11Z" fill="#407BFF"/><g opacity="0.8"><path d="M277.06 132C278.22 132 279.16 131.06 279.16 129.9 279.16 128.74 278.22 127.8 277.06 127.8 275.9 127.8 274.96 128.74 274.96 129.9 274.96 131.06 275.9 132 277.06 132Z" fill="#FFFFFF"/><path d="M282.52 135.11 278.21 132.67C277.858 132.474 277.463 132.371 277.06 132.37 276.657 132.37 276.261 132.473 275.91 132.67L271.61 135.11C271.072 135.38 270.855 136.035 271.125 136.573 271.395 137.111 272.05 137.328 272.588 137.058 272.623 137.041 272.657 137.021 272.69 137L274.69 135.85 274.69 147.22C274.69 147.816 275.174 148.3 275.77 148.3 276.366 148.3 276.85 147.816 276.85 147.22L276.85 141 277.24 141 277.24 147.18C277.298 147.779 277.83 148.218 278.429 148.161 278.949 148.111 279.36 147.7 279.41 147.18L279.41 135.85 281.41 137C281.932 137.301 282.599 137.122 282.9 136.6 283.201 136.078 283.022 135.411 282.5 135.11Z" fill="#FFFFFF"/></g><path d="M263.13 132C264.29 132 265.23 131.06 265.23 129.9 265.23 128.74 264.29 127.8 263.13 127.8 261.97 127.8 261.03 128.74 261.03 129.9 261.03 131.06 261.97 132 263.13 132Z" fill="#407BFF"/><path d="M268.59 135.11 264.27 132.67C263.559 132.271 262.691 132.271 261.98 132.67L257.67 135.11C257.148 135.411 256.969 136.078 257.27 136.6 257.571 137.122 258.238 137.301 258.76 137L260.76 135.85 260.76 147.22C260.76 147.816 261.244 148.3 261.84 148.3 262.436 148.3 262.92 147.816 262.92 147.22L262.92 141 263.31 141 263.31 147.18C263.368 147.779 263.9 148.218 264.499 148.161 265.019 148.111 265.43 147.7 265.48 147.18L265.48 135.85 267.48 137C268.002 137.301 268.669 137.122 268.97 136.6 269.271 136.078 269.092 135.411 268.57 135.11Z" fill="#407BFF"/><g opacity="0.8"><path d="M263.13 132C264.29 132 265.23 131.06 265.23 129.9 265.23 128.74 264.29 127.8 263.13 127.8 261.97 127.8 261.03 128.74 261.03 129.9 261.03 131.06 261.97 132 263.13 132Z" fill="#FFFFFF"/><path d="M268.59 135.11 264.27 132.67C263.559 132.271 262.691 132.271 261.98 132.67L257.67 135.11C257.148 135.411 256.969 136.078 257.27 136.6 257.571 137.122 258.238 137.301 258.76 137L260.76 135.85 260.76 147.22C260.76 147.816 261.244 148.3 261.84 148.3 262.436 148.3 262.92 147.816 262.92 147.22L262.92 141 263.31 141 263.31 147.18C263.368 147.779 263.9 148.218 264.499 148.161 265.019 148.111 265.43 147.7 265.48 147.18L265.48 135.85 267.48 137C268.002 137.301 268.669 137.122 268.97 136.6 269.271 136.078 269.092 135.411 268.57 135.11Z" fill="#FFFFFF"/></g><path d="M249.2 132C250.36 131.994 251.296 131.05 251.29 129.89 251.284 128.73 250.34 127.795 249.18 127.8 248.024 127.806 247.09 128.744 247.09 129.9 247.09 131.06 248.03 132 249.19 132 249.193 132 249.197 132 249.2 132Z" fill="#407BFF"/><path d="M254.65 135.11 250.34 132.67C249.629 132.271 248.761 132.271 248.05 132.67L243.74 135.11C243.218 135.411 243.039 136.078 243.34 136.6 243.641 137.122 244.308 137.301 244.83 137L246.83 135.85 246.83 147.22C246.83 147.816 247.314 148.3 247.91 148.3 248.506 148.3 248.99 147.816 248.99 147.22L248.99 141 249.38 141 249.38 147.18C249.38 147.776 249.864 148.26 250.46 148.26 251.056 148.26 251.54 147.776 251.54 147.18L251.54 135.85 253.54 137C254.046 137.327 254.72 137.181 255.047 136.675 255.373 136.17 255.228 135.495 254.722 135.168 254.689 135.147 254.655 135.128 254.62 135.11Z" fill="#407BFF"/><g opacity="0.8"><path d="M249.2 132C250.36 131.994 251.296 131.05 251.29 129.89 251.284 128.73 250.34 127.795 249.18 127.8 248.024 127.806 247.09 128.744 247.09 129.9 247.09 131.06 248.03 132 249.19 132 249.193 132 249.197 132 249.2 132Z" fill="#FFFFFF"/><path d="M254.65 135.11 250.34 132.67C249.629 132.271 248.761 132.271 248.05 132.67L243.74 135.11C243.218 135.411 243.039 136.078 243.34 136.6 243.641 137.122 244.308 137.301 244.83 137L246.83 135.85 246.83 147.22C246.83 147.816 247.314 148.3 247.91 148.3 248.506 148.3 248.99 147.816 248.99 147.22L248.99 141 249.38 141 249.38 147.18C249.38 147.776 249.864 148.26 250.46 148.26 251.056 148.26 251.54 147.776 251.54 147.18L251.54 135.85 253.54 137C254.046 137.327 254.72 137.181 255.047 136.675 255.373 136.17 255.228 135.495 254.722 135.168 254.689 135.147 254.655 135.128 254.62 135.11Z" fill="#FFFFFF"/></g><path d="M291 132C292.16 132 293.1 131.06 293.1 129.9 293.1 128.74 292.16 127.8 291 127.8 289.84 127.8 288.9 128.74 288.9 129.9 288.9 131.06 289.84 132 291 132Z" fill="#407BFF"/><path d="M296.45 135.11 292.14 132.67C291.426 132.269 290.554 132.269 289.84 132.67L285.54 135.11C285.023 135.414 284.842 136.074 285.13 136.6 285.43 137.122 286.097 137.301 286.618 137.001 286.619 137.001 286.62 137 286.62 137L288.62 135.85 288.62 147.22C288.678 147.819 289.21 148.258 289.809 148.201 290.329 148.151 290.74 147.74 290.79 147.22L290.79 141 291.18 141 291.18 147.18C291.18 147.776 291.664 148.26 292.26 148.26 292.856 148.26 293.34 147.776 293.34 147.18L293.34 135.85 295.34 137C295.856 137.299 296.517 137.123 296.816 136.607 296.817 136.605 296.819 136.602 296.82 136.6 297.127 136.086 296.962 135.421 296.45 135.11Z" fill="#407BFF"/><g opacity="0.8"><path d="M291 132C292.16 132 293.1 131.06 293.1 129.9 293.1 128.74 292.16 127.8 291 127.8 289.84 127.8 288.9 128.74 288.9 129.9 288.9 131.06 289.84 132 291 132Z" fill="#FFFFFF"/><path d="M296.45 135.11 292.14 132.67C291.426 132.269 290.554 132.269 289.84 132.67L285.54 135.11C285.023 135.414 284.842 136.074 285.13 136.6 285.43 137.122 286.097 137.301 286.618 137.001 286.619 137.001 286.62 137 286.62 137L288.62 135.85 288.62 147.22C288.678 147.819 289.21 148.258 289.809 148.201 290.329 148.151 290.74 147.74 290.79 147.22L290.79 141 291.18 141 291.18 147.18C291.18 147.776 291.664 148.26 292.26 148.26 292.856 148.26 293.34 147.776 293.34 147.18L293.34 135.85 295.34 137C295.856 137.299 296.517 137.123 296.816 136.607 296.817 136.605 296.819 136.602 296.82 136.6 297.127 136.086 296.962 135.421 296.45 135.11Z" fill="#FFFFFF"/></g><path d="M291 109.18C292.16 109.18 293.1 108.24 293.1 107.08 293.1 105.92 292.16 104.98 291 104.98 289.84 104.98 288.9 105.92 288.9 107.08 288.9 108.24 289.84 109.18 291 109.18Z" fill="#407BFF"/><path d="M296.45 112.33 292.14 109.89C291.426 109.489 290.554 109.489 289.84 109.89L285.54 112.33C285.023 112.634 284.842 113.294 285.13 113.82 285.43 114.342 286.097 114.521 286.618 114.221 286.619 114.221 286.62 114.22 286.62 114.22L288.62 113.07 288.62 124.44C288.678 125.039 289.21 125.478 289.809 125.421 290.329 125.371 290.74 124.96 290.79 124.44L290.79 118.26 291.18 118.26 291.18 124.44C291.18 125.036 291.664 125.52 292.26 125.52 292.856 125.52 293.34 125.036 293.34 124.44L293.34 113.07 295.34 114.22C295.856 114.519 296.517 114.343 296.816 113.827 296.817 113.825 296.819 113.822 296.82 113.82 297.127 113.306 296.962 112.641 296.45 112.33Z" fill="#407BFF"/><g opacity="0.8"><path d="M291 109.18C292.16 109.18 293.1 108.24 293.1 107.08 293.1 105.92 292.16 104.98 291 104.98 289.84 104.98 288.9 105.92 288.9 107.08 288.9 108.24 289.84 109.18 291 109.18Z" fill="#FFFFFF"/><path d="M296.45 112.33 292.14 109.89C291.426 109.489 290.554 109.489 289.84 109.89L285.54 112.33C285.023 112.634 284.842 113.294 285.13 113.82 285.43 114.342 286.097 114.521 286.618 114.221 286.619 114.221 286.62 114.22 286.62 114.22L288.62 113.07 288.62 124.44C288.678 125.039 289.21 125.478 289.809 125.421 290.329 125.371 290.74 124.96 290.79 124.44L290.79 118.26 291.18 118.26 291.18 124.44C291.18 125.036 291.664 125.52 292.26 125.52 292.856 125.52 293.34 125.036 293.34 124.44L293.34 113.07 295.34 114.22C295.856 114.519 296.517 114.343 296.816 113.827 296.817 113.825 296.819 113.822 296.82 113.82 297.127 113.306 296.962 112.641 296.45 112.33Z" fill="#FFFFFF"/></g></g></g><g id="freepik--Character--inject-246"><path d="M179.47 401.78 187.16 399.82 184.67 381.5 176.98 383.46 179.47 401.78Z" fill="#FF8B7B"/><path d="M123.58 408.14 131.51 408.14 132.68 389.76 124.75 389.76 123.58 408.14Z" fill="#FF8B7B"/><path d="M132.49 407.22 122.82 407.22C122.517 407.203 122.257 407.436 122.241 407.739 122.24 407.746 122.24 407.753 122.24 407.76L121.9 414.81C121.905 415.586 122.534 416.215 123.31 416.22 126.41 416.17 128.65 415.99 132.57 415.99 134.98 415.99 141.18 416.24 144.51 416.24 147.84 416.24 147.7 412.95 146.29 412.65 139.94 411.31 136.13 409.47 133.87 407.71 133.477 407.398 132.992 407.226 132.49 407.22Z" fill="#263238"/><path d="M186.88 399 178.48 401.13C178.165 401.214 177.949 401.504 177.96 401.83L178.18 409.05C178.195 409.685 178.722 410.187 179.357 410.172 179.453 410.17 179.548 410.156 179.64 410.13 182.64 409.31 186.98 408.02 190.79 407.05 195.24 405.91 197.11 405.58 202.33 404.25 205.49 403.44 205.55 400.03 204.16 400.08 197.81 400.29 194.89 401 188.88 399.08 188.233 398.87 187.541 398.842 186.88 399Z" fill="#263238"/><path d="M163.05 163.08C166.15 167.64 169.05 172.26 171.93 176.97 173.36 179.32 174.75 181.69 176.12 184.08 176.81 185.28 177.5 186.47 178.12 187.68L179.12 189.5C179.41 190.04 179.91 190.92 179.87 190.88 179.87 191.01 179.87 190.79 179.11 190.5 178.71 190.343 178.278 190.282 177.85 190.32 177.571 190.33 177.298 190.401 177.05 190.53 176.79 190.69 177.05 190.64 177.24 190.46 177.569 190.198 177.873 189.907 178.15 189.59 179.701 187.767 181.062 185.79 182.21 183.69 184.78 179.23 187.21 174.34 189.46 169.53L195.13 171.34C194.015 176.904 192.402 182.356 190.31 187.63 189.77 188.98 189.16 190.31 188.48 191.63 187.771 193.07 186.948 194.451 186.02 195.76 185.469 196.531 184.857 197.257 184.19 197.93 183.275 198.859 182.197 199.612 181.01 200.15 180.125 200.532 179.182 200.758 178.22 200.82 177.106 200.862 175.996 200.672 174.96 200.26 173.451 199.608 172.138 198.574 171.15 197.26 170.32 196.1 170.15 195.79 169.73 195.17L168.6 193.48 166.35 190.1 161.83 183.33C158.83 178.82 155.83 174.25 152.96 169.68Z" fill="#FF8B7B"/><path d="M149.19 164.13C147.24 171.46 162.82 190.9 162.82 190.9L177.74 180.74C174.709 174.512 171.021 168.625 166.74 163.18 160.33 155.42 151.33 156.09 149.19 164.13Z" fill="#263238"/><path d="M160.18 175.61C163.89 174.52 166.35 181.43 168.34 187.14L162.81 190.9C159.094 186.188 155.731 181.208 152.75 176 154.87 171.9 155.51 177 160.18 175.61Z" opacity="0.2"/><path d="M184.67 381.5 185.95 390.95 178.26 392.91 176.97 383.46 184.67 381.5Z" opacity="0.2"/><path d="M124.75 389.77 132.69 389.77 132.08 399.24 124.14 399.24 124.75 389.77Z" opacity="0.2"/><path d="M113.75 161.84C116.345 170.324 118.297 178.992 119.59 187.77 120.53 193.89 121.16 199.77 121.59 205.05 122.59 217.5 122.65 227.05 123.12 230.22L165.36 226C169.73 180.71 158.01 157.81 158.01 157.81 154.646 157.288 151.253 156.974 147.85 156.87 147.13 156.87 146.4 156.87 145.66 156.87 139.63 157.127 133.62 157.732 127.66 158.68 126.53 158.85 125.39 159.05 124.28 159.26 118.7 160.31 113.75 161.84 113.75 161.84Z" fill="#263238"/><path d="M123 174.68 115.91 169.45C117.447 175.491 118.678 181.605 119.6 187.77 120.14 191.3 120.6 194.77 120.94 198.02 123.85 188 123 174.68 123 174.68Z" opacity="0.2"/><path d="M127.45 138.24C129.17 143.9 131.36 154.37 127.71 158.63 131.687 162.016 136.935 163.515 142.1 162.74 147.1 162.13 146.96 158.63 145.66 156.82 139.06 155.93 138.75 151.14 139.42 146.54Z" fill="#FF8B7B"/><path d="M127.74 156.73 125 158.35C124.726 158.51 124.591 158.833 124.67 159.14 125.24 161.29 127.95 169.43 136.99 171.67 136.683 168.483 137.703 165.311 139.81 162.9 136.7 162.41 130.51 159.61 128.73 156.96 128.535 156.626 128.106 156.515 127.772 156.71 127.761 156.716 127.751 156.723 127.74 156.73Z" fill="#407BFF"/><path d="M145.79 156.26 148.58 156.44C148.772 156.449 148.95 156.54 149.07 156.69 150.38 158.22 157.33 167.02 147.82 170.29 148.38 165.01 143.58 162.43 143.58 162.43 145.58 160.97 145.51 158.74 145.07 157.15 144.97 156.771 145.197 156.382 145.576 156.283 145.646 156.264 145.718 156.257 145.79 156.26Z" fill="#407BFF"/><path d="M132.33 141.63 139.41 146.53C139.24 147.601 139.163 148.685 139.18 149.77 136.69 149.67 133.03 147.31 132.51 144.77 132.259 143.743 132.198 142.679 132.33 141.63Z" opacity="0.2"/><path d="M145.06 119.06C150.39 121.55 151.25 129.79 145.78 133.15 140.31 136.51 137.88 115.7 145.06 119.06Z" fill="#263238"/><path d="M125.89 129.62C127.16 137.39 127.51 142 131.89 145.62 138.44 151.06 147.73 146.5 148.81 138.51 149.81 131.31 147.54 119.81 139.58 117.51 133.894 115.801 127.9 119.025 126.191 124.711 125.712 126.302 125.609 127.982 125.89 129.62Z" fill="#FF8B7B"/><path d="M127.11 136.18C129.62 134.48 131.24 130.33 129.32 124.18 132.32 125.1 147.32 127.08 147.39 119.24 147.51 111.74 136.47 115.42 131.21 111.97 130.05 113.28 131.56 114.77 131.56 114.77 131.56 114.77 124.02 118.16 119.56 116.64 119.706 117.763 120.284 118.785 121.17 119.49 121.17 119.49 116.53 120.06 116.87 127.04 117.19 133.7 125.67 137.16 127.11 136.18Z" fill="#263238"/><path d="M123.23 138.59C124.454 140.159 126.254 141.175 128.23 141.41 130.84 141.72 131.73 139.29 130.67 137.04 129.67 135.04 127.2 132.42 124.74 133.16 122.97 133.717 121.986 135.603 122.543 137.373 122.684 137.822 122.918 138.237 123.23 138.59Z" fill="#FF8B7B"/><path d="M188.38 388.44 175.38 391.75C175.38 391.75 165 344.24 161.92 319.75 160.98 312.29 158.68 301.93 155.85 290.85 152.28 276.9 147.85 261.85 144.28 250.02 140.49 237.59 137.63 228.8 137.63 228.8L165.36 226C165.36 226 182.29 289.22 183.85 313.38 185.48 338.48 188.38 388.44 188.38 388.44Z" fill="#407BFF"/><path d="M188.38 388.44 175.38 391.75C175.38 391.75 165 344.24 161.92 319.75 160.98 312.29 158.68 301.93 155.85 290.85 152.28 276.9 147.85 261.85 144.28 250.02 140.49 237.59 137.63 228.8 137.63 228.8L165.36 226C165.36 226 182.29 289.22 183.85 313.38 185.48 338.48 188.38 388.44 188.38 388.44Z" fill="#FFFFFF" opacity="0.6"/><path d="M155.83 290.81C152.26 276.86 147.83 261.81 144.26 249.98L146.95 243.68C154.11 251.66 156.74 277 155.83 290.81Z" opacity="0.2"/><path d="M150.39 227.48C150.39 227.48 149.47 295.48 146.83 318.56 143.94 343.85 135.46 397.41 135.46 397.41L120.93 397.41C120.93 397.41 121.41 347.52 125.21 322.99 129.53 295.05 123.14 230.22 123.14 230.22Z" fill="#407BFF"/><path d="M150.39 227.48C150.39 227.48 149.47 295.48 146.83 318.56 143.94 343.85 135.46 397.41 135.46 397.41L120.93 397.41C120.93 397.41 121.41 347.52 125.21 322.99 129.53 295.05 123.14 230.22 123.14 230.22Z" fill="#FFFFFF" opacity="0.6"/><path d="M137.26 397.72 120.15 397.72 119.26 392.61 138.33 392.28 137.26 397.72Z" fill="#263238"/><path d="M190.09 388.32 174.58 392.28 173.3 387.26 190.58 382.58 190.09 388.32Z" fill="#263238"/><path d="M138 130.61C138.07 131.25 138.45 131.73 138.87 131.69 139.29 131.65 139.57 131.09 139.51 130.46 139.45 129.83 139.05 129.34 138.64 129.38 138.23 129.42 137.91 130 138 130.61Z" fill="#263238"/><path d="M145.17 129.88C145.23 130.52 145.62 131 146.04 130.96 146.46 130.92 146.74 130.37 146.68 129.73 146.62 129.09 146.22 128.61 145.81 128.65 145.4 128.69 145.1 129.25 145.17 129.88Z" fill="#263238"/><path d="M142.91 130.43C143.866 132.299 145.074 134.029 146.5 135.57 145.678 136.291 144.581 136.613 143.5 136.45Z" fill="#FF5652"/><path d="M141 138.42C141.276 138.439 141.554 138.439 141.83 138.42 141.931 138.409 142.006 138.321 142 138.22 141.99 138.116 141.897 138.039 141.792 138.05 141.791 138.05 141.791 138.05 141.79 138.05 140.187 138.245 138.587 137.665 137.48 136.49 137.407 136.421 137.293 136.421 137.22 136.49 137.145 136.564 137.145 136.684 137.219 136.759 137.219 136.759 137.22 136.76 137.22 136.76 138.202 137.803 139.567 138.403 141 138.42Z" fill="#263238"/><path d="M135.52 128.51C135.654 128.512 135.779 128.444 135.85 128.33 136.326 127.5 137.169 126.946 138.12 126.84 138.328 126.829 138.49 126.658 138.49 126.45 138.485 126.246 138.315 126.084 138.111 126.09 138.107 126.09 138.104 126.09 138.1 126.09 136.892 126.197 135.813 126.888 135.21 127.94 135.105 128.115 135.161 128.342 135.336 128.448 135.338 128.449 135.339 128.449 135.34 128.45 135.392 128.489 135.455 128.51 135.52 128.51Z" fill="#263238"/><path d="M148 127.1C148.074 127.099 148.147 127.078 148.21 127.04 148.385 126.935 148.443 126.708 148.338 126.533 148.335 126.528 148.333 126.524 148.33 126.52 147.718 125.475 146.636 124.793 145.43 124.69 145.226 124.684 145.056 124.845 145.05 125.05 145.05 125.05 145.05 125.05 145.05 125.05 145.044 125.256 145.204 125.429 145.41 125.44 146.367 125.528 147.22 126.081 147.69 126.92 147.759 127.026 147.874 127.092 148 127.1Z" fill="#263238"/><path d="M135.36 408.6C135.876 408.651 136.393 408.509 136.81 408.2 137.061 407.932 137.146 407.548 137.03 407.2 136.986 406.968 136.833 406.771 136.62 406.67 135.62 406.21 133.37 407.79 133.12 407.97 133.061 408.014 133.037 408.09 133.06 408.16 133.093 408.232 133.155 408.286 133.23 408.31 133.928 408.481 134.642 408.578 135.36 408.6ZM136.25 406.96C136.336 406.959 136.421 406.976 136.5 407.01 136.587 407.052 136.646 407.135 136.66 407.23 136.748 407.465 136.694 407.729 136.52 407.91 136.15 408.28 135.12 408.33 133.73 408.06 134.483 407.528 135.343 407.166 136.25 407Z" fill="#407BFF"/><path d="M133.28 408.33C133.306 408.34 133.334 408.34 133.36 408.33 134.11 407.89 135.36 406.15 135.07 405.26 134.956 404.975 134.686 404.784 134.38 404.77 134.107 404.734 133.831 404.822 133.63 405.01 132.84 405.77 133.05 408.01 133.05 408.15 133.062 408.222 133.106 408.285 133.17 408.32 133.204 408.337 133.243 408.341 133.28 408.33ZM134.28 405.11 134.36 405.11C134.61 405.11 134.65 405.26 134.67 405.3 134.86 405.83 134.08 407.14 133.37 407.76 133.37 407.09 133.37 405.76 133.88 405.27 133.995 405.153 134.157 405.094 134.32 405.11Z" fill="#407BFF"/><path d="M187.9 399.82 187.9 399.82C189.2 399.75 191.48 399.49 192.13 398.53 192.336 398.238 192.381 397.862 192.25 397.53 192.19 397.329 192.025 397.176 191.82 397.13 190.75 396.84 188.07 399.2 187.76 399.47 187.712 399.532 187.712 399.618 187.76 399.68 187.772 399.752 187.828 399.808 187.9 399.82ZM191.68 397.5 191.76 397.5C191.841 397.521 191.904 397.587 191.92 397.67 192.006 397.882 191.979 398.122 191.85 398.31 191.49 398.85 190.24 399.24 188.47 399.39 189.54 398.51 191.05 397.44 191.68 397.5Z" fill="#407BFF"/><path d="M187.9 399.82C187.946 399.835 187.994 399.835 188.04 399.82 188.86 399.16 190.27 397.03 189.91 396.2 189.82 396 189.62 395.79 189.1 395.86 188.726 395.916 188.39 396.122 188.17 396.43 187.4 397.48 187.72 399.61 187.73 399.7 187.743 399.764 187.789 399.817 187.85 399.84ZM189.35 396.18C189.442 396.177 189.528 396.228 189.57 396.31 189.78 396.81 188.87 398.43 188.06 399.24 187.928 398.341 188.074 397.423 188.48 396.61 188.638 396.382 188.885 396.229 189.16 396.19Z" fill="#407BFF"/><path d="M121.17 171.66C120.5 174.19 119.75 176.91 119.11 179.56 118.47 182.21 117.83 184.91 117.24 187.56 116.65 190.21 116.14 192.9 115.68 195.56 115.48 196.89 115.27 198.22 115.1 199.56 115.01 200.22 114.92 200.88 114.87 201.56L114.77 202.56 114.77 203.05 114.77 203.26C114.775 203.213 114.775 203.167 114.77 203.12 114.77 202.74 114.58 202.57 114.59 202.65 114.687 202.88 114.826 203.091 115 203.27 115.687 204.034 116.47 204.706 117.33 205.27 119.471 206.689 121.722 207.937 124.06 209 128.92 211.28 134.17 213.35 139.34 215.24L138 220.94C132.155 220.259 126.384 219.044 120.76 217.31 117.778 216.4 114.886 215.218 112.12 213.78 110.514 212.924 109.014 211.884 107.65 210.68 106.777 209.903 106.016 209.007 105.39 208.02 104.533 206.673 104.027 205.133 103.92 203.54L103.92 202.86 103.92 202 103.92 200.86C103.92 200.09 103.92 199.34 104 198.58 104.06 197.07 104.21 195.58 104.35 194.1 104.663 191.14 105.073 188.213 105.58 185.32 106.09 182.43 106.69 179.56 107.36 176.72 108.03 173.88 108.76 171.11 109.7 168.2Z" fill="#FF8B7B"/><path d="M110.74 162.79C103.96 166.2 99.64 188.15 99.64 188.15L118.48 193.28C120.82 187.027 122.584 180.574 123.75 174 125.46 163.49 118.94 158.66 110.74 162.79Z" fill="#263238"/><path d="M128.82 226.37 226.25 186.87 226.63 187.79 129.73 228.58 128.82 226.37Z" fill="#407BFF"/><path d="M137.47 215 145.52 215.11 141.17 224.26C141.17 224.26 134.34 222.65 134.79 218.93Z" fill="#FF8B7B"/><path d="M150.71 219.26 146.76 226.66 141.18 224.29 145.52 215.14 150.71 219.26Z" fill="#FF8B7B"/><path d="M192.54 173.75 200.54 172.46 196.21 164.78C196.21 164.78 188.21 166.68 189.26 171.11Z" fill="#FF8B7B"/><path d="M205.02 167.62 203.05 162.91 196.16 164.78 200.49 172.46 205.02 167.62Z" fill="#FF8B7B"/><path d="M196.93 129.62C198.979 129.62 200.64 127.959 200.64 125.91 200.64 123.861 198.979 122.2 196.93 122.2 194.881 122.2 193.22 123.861 193.22 125.91 193.22 127.959 194.881 129.62 196.93 129.62Z" fill="#407BFF"/><path d="M206.57 135.18 199 130.87C197.756 130.181 196.244 130.181 195 130.87L187.4 135.18C186.478 135.707 186.158 136.883 186.685 137.805 187.212 138.727 188.388 139.047 189.31 138.52L192.86 136.52 192.86 156.6C192.86 157.655 193.715 158.51 194.77 158.51 195.825 158.51 196.68 157.655 196.68 156.6L196.68 145.65 197.03 145.65 197.37 145.65 197.37 156.56C197.37 157.615 198.225 158.47 199.28 158.47 200.335 158.47 201.19 157.615 201.19 156.56L201.19 136.48 204.75 138.48C205.705 138.953 206.863 138.561 207.336 137.606 207.767 136.734 207.482 135.677 206.67 135.14Z" fill="#407BFF"/></g></svg>