<svg viewBox="0 0 500 500" xmlns="http://www.w3.org/2000/svg" xmlns:xlink="http://www.w3.org/1999/xlink" overflow="hidden"><g id="freepik--Floor--inject-4"><ellipse cx="250" cy="326.47" rx="243.71" ry="147.16" id="freepik--floor--inject-4" fill="#F5F5F5"/></g><g id="freepik--Shadows--inject-4"><path d="M20.2 337.13 237 462.31C239.647 463.65 242.773 463.65 245.42 462.31L359.42 396.49C361.75 395.14 361.75 392.97 359.42 391.62L142.64 266.44C139.99 265.1 136.86 265.1 134.21 266.44L20.21 332.27C17.87 333.61 17.87 335.79 20.2 337.13Z" id="freepik--Shadow--inject-4" fill="#E0E0E0"/><path d="M247.51 206.84C256.23 211.93 256.23 220.18 247.51 225.27 238.79 230.36 224.66 230.36 215.94 225.27 207.22 220.18 207.22 211.93 215.94 206.84 224.66 201.75 238.79 201.75 247.51 206.84Z" id="freepik--shadow--inject-4" fill="#E0E0E0"/><path d="M458.34 274.11 321 194.8C319.427 193.939 317.53 193.909 315.93 194.72L239.52 239C238.11 239.82 238.11 241.13 239.52 241.95L272.58 261 244 280.28C234.84 286.45 232.87 294.61 239.6 298.49 246.33 302.37 262.13 302.65 272.03 297.75L304.8 279.57 318.52 287.49 376.62 321.07C378.227 321.879 380.123 321.879 381.73 321.07L458.35 277.07C459.71 276.31 459.73 275 458.34 274.11Z" id="freepik--shadow--inject-4" fill="#E0E0E0"/></g><g id="freepik--character-2--inject-4"><g id="freepik--Mobile--inject-4"><g id="freepik--mobile--inject-4"><path d="M347.63 394.21 246.83 452.4C243.595 454.275 239.621 454.347 236.32 452.59L33.39 335.42C30.19 333.58 27.6 329.42 27.6 326.2 27.6 322.98 30.19 318.83 33.38 316.98L133.81 258.98C137.447 257.141 141.743 257.141 145.38 258.98L347.63 375.77C350.83 377.62 353.42 381.77 353.42 384.99 353.42 388.21 350.83 392.37 347.63 394.21Z" fill="#407BFF"/><path d="M133.81 259 33.38 317C30.19 318.85 27.59 323 27.6 326.22 27.61 329.44 30.19 333.6 33.38 335.44L236.32 452.59C237.865 453.394 239.578 453.823 241.32 453.84L241.32 314.41 145.32 259C141.699 257.181 137.431 257.181 133.81 259Z" opacity="0.5"/><path d="M246.83 452.4 347.63 394.21C350.83 392.37 353.42 388.21 353.42 384.99 353.42 381.77 350.83 377.62 347.63 375.77L241.35 314.41 241.35 453.84C243.273 453.863 245.167 453.366 246.83 452.4Z" opacity="0.4"/><path d="M244.44 442C241.23 443.62 237.44 443.62 234.23 442L33.36 326C29.04 323.5 29.04 319.42 33.36 316.93L133.8 259C137.441 257.161 141.739 257.161 145.38 259L347.62 375.77C350.81 377.61 350.81 380.62 347.62 382.45Z" fill="#407BFF"/><path d="M244.44 442C241.23 443.62 237.44 443.62 234.23 442L33.36 326C29.04 323.5 29.04 319.42 33.36 316.93L133.8 259C137.441 257.161 141.739 257.161 145.38 259L347.62 375.77C350.81 377.61 350.81 380.62 347.62 382.45Z" opacity="0.3"/><path d="M234.68 430.35C231.224 432.11 227.136 432.11 223.68 430.35L50.84 330.56C47.84 328.81 47.84 325.96 50.84 324.21L145.32 269.66C148.781 267.923 152.859 267.923 156.32 269.66L329.16 369.45C332.16 371.2 332.16 374.06 329.16 375.81Z" fill="#37474F"/><path d="M150.49 268.37C148.688 268.378 146.914 268.82 145.32 269.66L50.84 324.21C47.84 325.96 47.84 328.81 50.84 330.56L69.57 341.37 150.49 289.7Z" fill="#263238"/><path d="M156.39 273.79C152.93 272.05 148.85 272.05 145.39 273.79L50.9 328.34C50.3645 328.644 49.8815 329.032 49.47 329.49 49.8668 329.917 50.3293 330.278 50.84 330.56L223.68 430.35C227.136 432.11 231.224 432.11 234.68 430.35L329.17 375.81C329.7 375.507 330.18 375.122 330.59 374.67 330.197 374.237 329.738 373.869 329.23 373.58Z" fill="#407BFF"/><path d="M156.39 273.79C152.93 272.05 148.85 272.05 145.39 273.79L50.9 328.34C50.3645 328.644 49.8815 329.032 49.47 329.49 49.8668 329.917 50.3293 330.278 50.84 330.56L223.68 430.35C227.136 432.11 231.224 432.11 234.68 430.35L329.17 375.81C329.7 375.507 330.18 375.122 330.59 374.67 330.197 374.237 329.738 373.869 329.23 373.58Z" fill="#FFFFFF" opacity="0.75"/><path d="M85.37 298.7 102.12 289C103.12 288.42 103.12 287.52 102.23 287 101.119 286.463 99.8184 286.489 98.73 287.07L82 296.74C81 297.31 81 298.22 81.89 298.74 82.9916 299.275 84.281 299.26 85.37 298.7Z" fill="#37474F"/><path d="M114.13 282.12C114.682 282.12 115.13 281.672 115.13 281.12 115.13 280.568 114.682 280.12 114.13 280.12 113.064 279.58 111.806 279.58 110.74 280.12 110.188 280.12 109.74 280.568 109.74 281.12 109.74 281.672 110.188 282.12 110.74 282.12 111.806 282.66 113.064 282.66 114.13 282.12Z" fill="#37474F"/><path d="M120.92 278.19C121.458 278.067 121.796 277.531 121.673 276.993 121.587 276.618 121.295 276.325 120.92 276.24 119.853 275.69 118.587 275.69 117.52 276.24 116.982 276.363 116.644 276.899 116.767 277.437 116.853 277.812 117.145 278.105 117.52 278.19 118.587 278.74 119.853 278.74 120.92 278.19Z" fill="#37474F"/><path d="M66.61 309.55C67.1623 309.55 67.61 309.102 67.61 308.55 67.61 307.998 67.1623 307.55 66.61 307.55 65.5445 307.01 64.2855 307.01 63.22 307.55 62.6677 307.55 62.22 307.998 62.22 308.55 62.22 309.102 62.6677 309.55 63.22 309.55 64.2855 310.09 65.5445 310.09 66.61 309.55Z" fill="#37474F"/><path d="M73.4 305.63C74.34 305.08 74.34 304.21 73.4 303.63 72.3345 303.09 71.0755 303.09 70.01 303.63 69.07 304.17 69.07 305.04 70.01 305.63 71.0755 306.17 72.3345 306.17 73.4 305.63Z" fill="#37474F"/><path d="M97 365.54C98.0486 366.193 98.7214 367.308 98.81 368.54 98.8516 368.959 98.6594 369.366 98.31 369.6 98.09 369.72 97.31 370.21 97.04 370.33 96.6116 370.52 96.1139 370.462 95.74 370.18L72.25 356.6C71.2038 355.945 70.5318 354.831 70.44 353.6 70.4112 353.212 70.5805 352.836 70.89 352.6L72.2 351.84C72.6328 351.657 73.1298 351.714 73.51 351.99Z" fill="#407BFF"/><path d="M97 365.54C98.0486 366.193 98.7214 367.308 98.81 368.54 98.8516 368.959 98.6594 369.366 98.31 369.6 98.09 369.72 97.31 370.21 97.04 370.33 96.6116 370.52 96.1139 370.462 95.74 370.18L72.25 356.6C71.2038 355.945 70.5318 354.831 70.44 353.6 70.4112 353.212 70.5805 352.836 70.89 352.6L72.2 351.84C72.6328 351.657 73.1298 351.714 73.51 351.99Z" opacity="0.4"/><path d="M95.78 366.27 72.25 352.68C71.25 352.1 70.44 352.51 70.44 353.59 70.5318 354.821 71.2038 355.935 72.25 356.59L95.78 370.17C96.78 370.75 97.59 370.34 97.59 369.26 97.4983 368.032 96.8259 366.921 95.78 366.27Z" fill="#407BFF"/><path d="M95.78 366.27 72.25 352.68C71.25 352.1 70.44 352.51 70.44 353.59 70.5318 354.821 71.2038 355.935 72.25 356.59L95.78 370.17C96.78 370.75 97.59 370.34 97.59 369.26 97.4983 368.032 96.8259 366.921 95.78 366.27Z" opacity="0.3"/><path d="M65.54 347.35C66.5862 348.005 67.2582 349.119 67.35 350.35 67.3963 350.769 67.203 351.179 66.85 351.41L65.58 352.15C65.1501 352.329 64.6578 352.273 64.28 352L53.18 345.59C52.1338 344.935 51.4618 343.821 51.37 342.59 51.3453 342.201 51.5182 341.825 51.83 341.59 52.06 341.45 52.91 340.95 53.14 340.83 53.5707 340.642 54.0687 340.695 54.45 340.97Z" fill="#407BFF"/><path d="M65.54 347.35C66.5862 348.005 67.2582 349.119 67.35 350.35 67.3963 350.769 67.203 351.179 66.85 351.41L65.58 352.15C65.1501 352.329 64.6578 352.273 64.28 352L53.18 345.59C52.1338 344.935 51.4618 343.821 51.37 342.59 51.3453 342.201 51.5182 341.825 51.83 341.59 52.06 341.45 52.91 340.95 53.14 340.83 53.5707 340.642 54.0687 340.695 54.45 340.97Z" opacity="0.4"/><path d="M64.28 348.08 53.18 341.67C52.18 341.1 51.37 341.51 51.37 342.59 51.4618 343.821 52.1338 344.935 53.18 345.59L64.28 352C65.28 352.57 66.09 352.16 66.09 351.08 66.0014 349.848 65.3286 348.733 64.28 348.08Z" fill="#407BFF"/><path d="M64.28 348.08 53.18 341.67C52.18 341.1 51.37 341.51 51.37 342.59 51.4618 343.821 52.1338 344.935 53.18 345.59L64.28 352C65.28 352.57 66.09 352.16 66.09 351.08 66.0014 349.848 65.3286 348.733 64.28 348.08Z" opacity="0.3"/></g></g><g id="freepik--Keyboard--inject-4"><path d="M154.4 375.62 180.55 390.78C181.445 391.239 182.506 391.239 183.4 390.78L258.46 347.51C258.916 347.357 259.161 346.864 259.009 346.409 258.922 346.15 258.719 345.947 258.46 345.86L232.31 330.7C231.414 330.246 230.356 330.246 229.46 330.7L154.4 374C153.953 374.175 153.732 374.68 153.907 375.128 153.996 375.353 154.174 375.532 154.4 375.62Z" id="freepik--shadow--inject-4" opacity="0.15"/><g id="freepik--keyboard--inject-4"><path d="M255.4 343.63C255.364 343.276 255.144 342.968 254.82 342.82L231.43 329.32C230.555 328.87 229.515 328.87 228.64 329.32L157.25 370.6C156.926 370.748 156.706 371.056 156.67 371.41L156.67 373.86C156.706 374.214 156.926 374.522 157.25 374.67L180.64 388.17C181.518 388.611 182.552 388.611 183.43 388.17L254.82 347C255.141 346.854 255.361 346.55 255.4 346.2Z" fill="#263238"/><path d="M180.64 385.65 157.25 372.21C156.805 372.059 156.567 371.577 156.718 371.132 156.803 370.882 156.999 370.685 157.25 370.6L228.64 329.32C229.515 328.87 230.555 328.87 231.43 329.32L254.82 342.82C255.265 342.971 255.503 343.453 255.352 343.898 255.267 344.148 255.071 344.345 254.82 344.43L183.43 385.65C182.555 386.1 181.515 386.1 180.64 385.65Z" fill="#37474F"/><path d="M181.94 386 181.94 388.51C181.484 388.511 181.034 388.401 180.63 388.19L157.26 374.69C156.936 374.542 156.715 374.234 156.68 373.88L156.68 371.4C156.715 371.754 156.936 372.062 157.26 372.21L180.63 385.66C181.035 385.872 181.483 385.988 181.94 386Z" fill="#263238"/><path d="M229.86 331.45 229.86 331.45 232.18 332.78 229.04 334.6 226.64 333.25 229.78 331.44ZM233.49 333.54 233.49 333.54 235.8 334.88 233.34 336.3 231 335 233.47 333.57ZM225.49 333.98 225.54 333.98 227.86 335.32 225.39 336.74 223 335.41 225.46 333.98ZM237.13 335.63 237.13 335.63 239.45 336.97 235.45 339.27 233.06 337.93 237.06 335.63ZM229.79 335.68 229.79 335.68 232.11 337.02 230.11 338.15 227.72 336.81 229.72 335.68ZM221.79 336.13 221.84 336.13 224.16 337.46 221.69 338.89 219.3 337.54 221.76 336.12ZM226.59 337.54 226.65 337.54 228.96 338.87 227 340 224.61 338.66 226.61 337.53ZM240.77 337.73 240.77 337.73 243.08 339.06 240 340.89 237.61 339.54 240.75 337.73ZM218.08 338.27 218.08 338.27 220.39 339.61 202.57 349.9 200.17 348.55 218 338.27ZM231.91 338.65 231.96 338.65 234.28 339.99 232.28 341.12 229.88 339.78 231.88 338.65ZM223.39 339.39 223.39 339.39 225.71 340.72 223.71 341.85 221.31 340.51 223.31 339.38ZM244.39 339.82 244.39 339.82 246.71 341.16 244.71 342.29 242.31 340.94 244.31 339.81ZM236.39 340.26 236.44 340.26 238.75 341.6 236.75 342.73 234.36 341.38 236.36 340.25ZM228.71 340.51 228.76 340.51 231.08 341.84 229.08 342.97 226.68 341.63 228.68 340.5ZM220.19 341.24 220.19 341.24 222.51 342.58 220.51 343.71 218.11 342.36 220.11 341.23ZM241.19 341.67 241.25 341.67 243.56 343.01 241.56 344.14 239.17 342.79 241.17 341.66ZM233.19 342.11 233.24 342.11 235.56 343.45 233.56 344.58 231.16 343.23 233.16 342.1ZM225.51 342.36 225.57 342.36 227.88 343.69 225.88 344.82 223.49 343.48 225.49 342.35ZM248.81 342.36 248.86 342.36 251.18 343.69 248.71 345.12 246.32 343.77 248.78 342.35ZM216.99 343.09 217 343.09 219.31 344.43 217.31 345.56 215 344.22 216.95 343.09ZM237.99 343.52 238 343.52 240.31 344.86 238.31 345.99 236 344.65 238 343.52ZM229.99 343.96 229.99 343.96 232.31 345.3 230.31 346.43 228 345.1 230 343.97ZM222.32 344.21 222.37 344.21 224.68 345.55 222.68 346.68 220.29 345.33 222.29 344.2ZM213.8 344.94 213.8 344.94 216.11 346.28 214.11 347.41 211.72 346.06 213.72 344.93ZM243.71 345.31 243.71 345.31 246.03 346.64 244.03 347.78 241.63 346.43 243.63 345.3ZM234.8 345.37 234.8 345.37 237.12 346.71 235.12 347.84 232.72 346.5 234.72 345.37ZM226.8 345.81 226.86 345.81 229.17 347.15 227.17 348.28 224.74 347 226.74 345.87ZM219.13 346.06 219.13 346.06 221.45 347.4 219.45 348.53 217.05 347.18 219.05 346.05ZM210.61 346.79 210.66 346.79 212.98 348.13 210.98 349.26 208.58 347.92 210.58 346.79ZM240.52 347.16 240.58 347.16 242.89 348.5 240.89 349.63 238.5 348.28 240.45 347.15ZM231.61 347.22 231.66 347.22 233.98 348.56 231.98 349.69 229.58 348.35 231.58 347.22ZM223.61 347.67 223.61 347.67 225.93 349 223.93 350.13 221.53 348.79 223.53 347.66ZM215.93 347.91 215.93 347.91 218.25 349.25 216.25 350.38 213.86 349 215.81 347.87ZM207.41 348.65C207.41 348.65 207.46 348.65 207.46 348.65L209.78 349.98 207.78 351.11 205.39 349.77 207.34 348.64ZM237.33 349.01 237.33 349.01 239.64 350.35 237.64 351.48 235.25 350.13 237.25 349ZM228.41 349.08 228.47 349.08 230.78 350.41 228.78 351.54 226.39 350.2 228.39 349.07ZM199.06 349.28 199 349.28 201.32 350.62 198.85 352.04 196.46 350.7 198.92 349.27ZM220.4 349.52 220.45 349.52 222.77 350.85 220.77 351.99 218.37 350.64 220.37 349.51ZM212.73 349.76 212.78 349.76 215.09 351.1 213.09 352.23 210.7 350.89 212.7 349.76ZM204.21 350.5 204.21 350.5 206.52 351.83 204.52 352.96 202.13 351.62 204.13 350.49ZM234.12 350.86 234.17 350.86 236.49 352.2 234.49 353.33 232 352 234 350.87ZM225.21 350.93 225.21 350.93 227.53 352.26 225.53 353.4 223.14 352.05 225.14 350.92ZM217.21 351.37 217.27 351.37 219.58 352.71 217.58 353.84 215.19 352.49 217.19 351.36ZM195.37 351.43 195.42 351.43 197.74 352.76 195.27 354.19 192.88 352.84 195.34 351.42ZM209.54 351.61C209.54 351.61 209.54 351.61 209.54 351.61L211.8 353 209.8 354.13 207.4 352.79 209.4 351.66ZM201.02 352.35 201 352.35 203.32 353.69 201.32 354.82 198.92 353.47 200.92 352.34ZM222.02 352.78 222 352.78 224.32 354.12 222.32 355.25 219.92 353.9 221.92 352.77ZM214.02 353.22 214.02 353.22 216.34 354.56 214.34 355.69 211.95 354.34 213.95 353.21ZM206.34 353.47 206.39 353.47 208.71 354.8 206.71 355.93 204.31 354.59 206.31 353.46ZM229.55 353.47 229.55 353.47 231.86 354.81 229.86 355.94 227.47 354.59 229.47 353.46ZM191.67 353.52 191.67 353.52 193.98 354.86 191.52 356.28 189.12 354.93 191.59 353.51ZM197.82 354.15 197.87 354.15 200.19 355.49 198.19 356.62 195.8 355.27 197.75 354.14ZM218.82 354.58 218.88 354.58 221.19 355.92 219.19 357.05 216.8 355.7 218.75 354.57ZM210.82 355.02 210.87 355.02 213.19 356.36 211.19 357.49 208.79 356.14 210.79 355.01ZM203.14 355.27 203.2 355.27 205.51 356.61 203.51 357.74 201 356.45 203 355.32ZM226.35 355.32 226.4 355.32 228.72 356.66 226.72 357.79 224.32 356.44 226.32 355.31ZM187.96 355.66 187.96 355.66 190.28 357 187.14 358.81 184.74 357.47 187.88 355.66ZM194.62 356 194.68 356 196.99 357.34 190.68 361 188.29 359.65 194.47 356.08ZM215.62 356.43 215.67 356.43 217.98 357.77 215.98 358.9 213.59 357.55 215.59 356.43ZM207.62 356.87 207.68 356.87 209.99 358.21 207.99 359.34 205.6 358 207.55 356.87ZM199.95 357.12 200 357.12 202.32 358.46 200.32 359.59 197.92 358.24 199.92 357.11ZM223.15 357.17 223.2 357.17 225.52 358.51 223.52 359.64 221 358.36 222.95 357.23ZM212.43 358.28 212.48 358.28 214.8 359.62 212.8 360.75 210.4 359.41 212.4 358.28ZM182.91 358.59 182.91 358.59 185.23 359.92 183.23 361.05 180.83 359.71 182.83 358.58ZM204.42 358.73 204.47 358.73 206.78 360.06 204.78 361.19 202.39 359.85 204.39 358.72ZM196.74 358.97 196.79 358.97 199.11 360.31 197.32 361.31C197.198 361.375 197.122 361.502 197.12 361.64 197.12 361.784 197.201 361.916 197.33 361.98L200.33 363.73 198.03 365.06 192.03 361.62 196.69 358.93ZM219.95 359.02 220 359.02 222.31 360.36 220.31 361.49 217.92 360.15 219.92 359.02ZM209.22 360.14 209.22 360.14 211.54 361.47 209.54 362.6 207.15 361.26 209.15 360.13ZM179.7 360.44 179.75 360.44 182.07 361.77 180 363 177.61 361.65 179.56 360.52ZM201.21 360.58 201.26 360.58 203.58 361.91 201.58 363.04 199.18 361.7 201.18 360.57ZM215.34 361.68 215.4 361.68 217.71 363.02 215.71 364.15 213.32 362.8 215.27 361.67ZM206.02 361.99 206.07 361.99 208.38 363.32 206.38 364.46 203.99 363.11 205.99 361.98ZM176.49 362.29 176.55 362.29 178.86 363.63 176.86 364.76 174.47 363.41 176.47 362.28ZM183.33 362.53 183.38 362.53 185.69 363.87 183.69 365 181.3 363.65 183.3 362.52ZM212.14 363.53 212.19 363.53 214.5 364.87 212.5 366 210 364.72 212 363.59ZM202.81 363.84 202.86 363.84 205.18 365.17 201.7 367.17 199.3 365.83 202.78 363.83ZM172.61 364.53 172.66 364.53 174.98 365.87 169.81 368.87 167.42 367.52 172.58 364.52ZM193.78 364.86 193.84 364.86 196.15 366.2 194.15 367.33 191.76 365.99 193.76 364.86ZM208.93 365.39 208.98 365.39 211.3 366.73 209.3 367.86 206.9 366.52 208.9 365.39ZM176.24 366.62 176.29 366.62 178.6 367.96 176.6 369.09 174.21 367.75 176.21 366.62ZM190.58 366.72 190.63 366.72 192.94 368.05 190.94 369.18 188.55 367.84 190.55 366.71ZM197.41 366.96 197.41 366.96 199.73 368.29 197.73 369.43 195.33 368.08 197.33 366.95ZM205.72 367.24 205.72 367.24 208.04 368.57 206.04 369.7 203.65 368.36 205.65 367.23ZM166.2 368.24 166.25 368.24 168.57 369.58 166.57 370.71 164.17 369.37 166.17 368.24ZM173.03 368.49C173.03 368.49 173.08 368.49 173.08 368.49L175.4 369.82 173.4 370.95 171 369.61 173 368.48ZM187.37 368.58 187.42 368.58 189.6 370 187.6 371.14 185.2 369.79 187.2 368.66ZM179.86 368.73 179.91 368.73 182.23 370.06 180.23 371.19 177.84 369.85 179.79 368.72ZM194.2 368.82 194.25 368.82 196.57 370.16 194.57 371.29 192.17 369.94 194.17 368.81ZM201.81 369.51 201.86 369.51 204.17 370.84 202.17 371.98 199.78 370.63 201.78 369.5ZM162.99 370.1 163.04 370.1 168.98 373.52 166.98 374.66 160.98 371.22 162.98 370.09ZM169.82 370.34 169.88 370.34 172.19 371.67 170.19 372.81 167.8 371.46 169.8 370.33ZM176.65 370.58 176.71 370.58 179.02 371.91 177.02 373.05 174.63 371.7 176.63 370.57ZM190.99 370.67 191.05 370.67 193.36 372.01 191.36 373.14 188.97 371.79 190.92 370.66ZM183.49 370.82 183.54 370.82 185.85 372.16 183.85 373.29 181.36 372 183.36 370.87ZM198.6 371.36 198.6 371.36 200.92 372.7 198.92 373.83 196.52 372.48 198.52 371.35ZM173.45 372.43 173.5 372.43 175.82 373.77 173.82 374.9 171.42 373.55 173.42 372.42ZM180.28 372.67 180.33 372.67 182.65 374.01 180.65 375.14 178.25 373.79 180.25 372.66ZM187 373 187 373 189.32 374.34 187.32 375.47 184.92 374.12 186.92 372.99ZM195.28 373.3 195.33 373.3 197.65 374.64 195.65 375.77 193.26 374.42 195.21 373.29ZM170.13 374.37 170.18 374.37 176.12 377.8 174.12 378.93 168.12 375.49 170.12 374.36ZM176.96 374.61 176.96 374.61 179.28 375.95 177.28 377.08 175 375.69 177 374.57ZM183.79 374.85 183.84 374.85 186.16 376.19 184.16 377.32 181.77 375.98 183.77 374.85ZM192.3 376 192.3 376 193.3 376.57 191.3 377.7 190.22 377.12 192.22 375.99ZM180.56 376.62 180.61 376.62 182.92 377.96 180.92 379.09 178.53 377.75 180.53 376.62ZM189.09 377.85 189.15 377.85 190.15 378.42 188.15 379.55 187.08 378.97 189.02 377.84ZM177.35 378.48 177.4 378.48 179.72 379.81 177.72 380.94 175.32 379.6 177.32 378.47ZM185.89 379.7 185.94 379.7 186.94 380.27 184.94 381.4 183.87 380.82 185.87 379.7ZM182.68 381.55 182.68 381.55 183.68 382.12 181.68 383.25 180.6 382.67 182.6 381.55Z" fill="#407BFF"/></g></g><g id="freepik--Character--inject-4"><path d="M96 347.28C97.08 350.01 99.41 351.43 102.86 352.97 112.96 357.52 137.17 362.97 150.76 365.39 158.67 366.8 166.76 369.39 174.84 369.74 182.07 370.03 189.57 368.74 195.57 364.66 196.429 364.187 197.111 363.446 197.51 362.55 197.849 361.063 197.159 359.531 195.82 358.8 194.496 358.116 193.039 357.73 191.55 357.67 175.445 355.733 159.689 351.556 144.74 345.26 151.45 344.55 158.27 343.82 164.51 341.26 170.75 338.7 176.51 334.03 178.67 327.65 179.11 326.37 179.47 324.95 180.53 324.1 181.738 323.292 183.273 323.149 184.61 323.72 189 325.29 190.74 330.43 192.04 334.91 193.34 339.39 195.5 344.5 200.04 345.53 198.39 344.53 199.04 341.67 200.78 340.98 202.52 340.29 204.65 341.37 205.71 342.98 206.77 344.59 207.04 346.42 207.92 348.05 208.8 349.68 210.69 351.05 212.4 350.38 213.3 349.928 214.009 349.169 214.4 348.24 216.82 343.51 216.4 337.68 214.26 332.81 212.12 327.94 208.53 323.86 204.69 320.19 199.34 315.08 193.32 310.49 186.39 307.89 171.89 302.44 155.58 306.41 141.21 312.21 130.37 316.581 119.961 321.954 110.12 328.26 106.386 330.489 102.946 333.177 99.88 336.26 97.69 338.6 95.39 341.92 95.62 345.26 95.6439 345.949 95.772 346.63 96 347.28Z" id="freepik--shadow--inject-4" opacity="0.1"/><g id="freepik--character--inject-4"><g id="freepik--Arm--inject-4"><path d="M218.9 331.71C216.78 328.43 212.98 321.71 211.79 320.33 208.54 316.63 201.84 310.78 201.84 310.78 195.52 305.63 176.11 288.49 176.11 288.49 176.11 288.49 173.11 250.49 169.75 244.41 165.87 237.33 158.49 237.04 150.85 236.58 150.85 236.58 148.85 244.83 148.07 251.58 148.07 251.58 154.94 294.2 155.76 298.16 156.58 302.12 158.59 303.86 162.68 306.49 168.93 310.49 191.54 322.64 191.54 322.64L192.65 323.41C193.412 323.947 193.986 324.709 194.29 325.59 194.583 326.466 194.781 327.371 194.88 328.29 195.24 331.44 194.88 332.29 195.15 335.73 195.42 339.17 196.15 339.06 197.5 342.01 198.71 344.74 199.07 346.45 200.07 346.55 201.07 346.65 202.35 344.43 202.35 342.18 202.35 339.93 200.98 337.45 200.93 336.5 200.88 335.55 201.38 334.37 203.52 335.63 205.66 336.89 207.66 340.72 209.25 343.37 210.84 346.02 211.69 349.52 213.3 351.43 214.91 353.34 215.51 351.22 216.25 349.43 216.99 347.64 220.6 344.72 221.55 341.86 222.5 339 221 335 218.9 331.71Z" fill="#FFA8A7"/><path d="M150.85 236.34C156.11 236.34 160.38 235.76 165.01 238.58 169.64 241.4 170.89 245.26 171.94 251.26 172.89 256.72 174.82 275.52 174.82 275.52 174.82 275.52 161.46 282.89 149.82 278.19Z" fill="#37474F"/><path d="M206.75 339.19 206.75 339.19 206.75 339.19Z" fill="#407BFF"/></g><path d="M161.91 210.56C164.132 211.287 166.26 212.274 168.25 213.5 170.848 215.081 171.706 218.449 170.18 221.08L167.77 220.6C167.77 220.6 169.01 217.77 167.56 216.26 166.11 214.75 161.87 213.44 161.87 213.44Z" fill="#263238"/><path d="M169.18 219.51C167.18 218.56 166.28 219.78 164.9 223.1 163.52 226.42 164.47 227.33 166.15 227.99 167.83 228.65 169.15 227.54 170.15 224.79 171.31 221.7 171.28 220.54 169.18 219.51Z" fill="#407BFF"/><path d="M169.34 219.54C167.34 218.59 166.44 219.81 165.06 223.13 163.68 226.45 164.63 227.36 166.31 228.02 167.99 228.68 169.31 227.57 170.31 224.82 171.48 221.73 171.45 220.57 169.34 219.54Z" opacity="0.1"/><path d="M129.15 238.76C118.15 241.23 106.33 244.76 97.47 248.61 97.47 248.61 96.76 286.52 102.9 304.61 109.04 322.7 107.27 343.31 107.27 343.31 137.27 348.16 173.66 334.22 172.76 319.1 171.312 315.94 169.62 312.897 167.7 310 167.7 310 166.95 297.85 167.28 292.44 189.28 271.85 158.73 245.44 150.85 236.38 146.05 237 139 236.55 129.15 238.76Z" id="freepik--Chest--inject-4" fill="#455A64"/><path d="M127.34 183.05C125.92 185.6 126.51 188.61 127.09 191.31 127.54 193.37 128.77 195.92 128.25 198.01 127.423 200.89 125.665 203.415 123.25 205.19 122.656 205.686 122.024 206.134 121.36 206.53 120.79 206.84 120.13 206.98 119.55 207.3 118.32 208.023 117.302 209.058 116.6 210.3 115.635 212.089 114.915 213.999 114.46 215.98 114.003 217.961 113.244 219.86 112.21 221.61 109.857 224.938 105.935 226.793 101.87 226.5 99.6645 226.335 97.5295 225.649 95.64 224.5 94.6848 223.925 93.7902 223.255 92.97 222.5 92.2197 221.858 91.619 221.059 91.21 220.16 90.9166 222.827 91.5831 225.511 93.09 227.73 85.8791 229.008 78.9973 224.199 77.719 216.988 77.4773 215.625 77.4506 214.232 77.64 212.86 78 210.3 79.09 207.86 79.64 205.37 81.16 198.57 75.06 194.85 74.06 188.65 73.4888 184.681 75.442 180.774 78.96 178.85 81.05 177.75 83.8 177.2 84.67 175.01 85.34 173.33 84.52 171.46 84.55 169.65 84.55 166.07 87.93 163.34 91.33 162.26 94.73 161.18 98.42 161.19 101.85 160.17 105.51 159.09 108.85 156.86 112.57 156.17 117.074 155.459 121.639 157.016 124.77 160.33 126.18 161.83 126.95 163.58 128.2 165.13 129.45 166.68 131.36 167.48 132.28 169.3 133.62 171.684 133.717 174.571 132.54 177.04 131.29 179.43 128.64 180.74 127.34 183.05Z" fill="#37474F"/><path d="M161.17 191.13C160.75 179.23 153.84 162.25 128.27 164.42 103.35 166.54 96.02 188.77 98.27 200.84 101.44 217.5 113.56 218.57 116.71 229.46Z" fill="#455A64"/><path d="M105.44 200.23C106.924 198.349 109.385 197.531 111.7 198.15 112.906 198.489 113.98 199.187 114.78 200.15 115.93 201.42 115.91 203.15 116.72 204.6 117.199 205.55 118.108 206.209 119.16 206.37 122.59 206.68 121.31 201.11 121.5 199.13 127.98 196.83 127.8 194.43 128.68 188.71 133.22 183.81 141.1 183.09 147.92 187.78 152.08 179.78 156.59 180.78 158.54 183.25 159.98 186.186 160.961 189.326 161.45 192.56 162.396 197.396 162.762 202.327 162.54 207.25 161.7 226.36 155.4 230.95 152.26 232.25 149.12 233.55 145.26 232.61 139.49 231.52L139.49 243C145.49 254.45 150.28 271.78 150.05 283.1 140.82 265.62 126.37 256.27 119.54 249.92 117.976 248.506 116.59 246.907 115.41 245.16L115.41 215C115.41 215 112.89 217.69 108.89 214.51 103.54 210.23 101.9 204.23 105.44 200.23Z" fill="#FFA8A7"/><path d="M139.49 231.54C134.49 230.24 129.14 228.35 125.49 225.54 123.019 223.549 121.144 220.916 120.07 217.93 120.07 217.93 120.5 225.3 124.21 228.62 127.92 231.94 139.53 235.77 139.53 235.77Z" fill="#F28F8F"/><path d="M140.27 204.9C140.411 206.357 139.344 207.652 137.887 207.793 136.431 207.934 135.136 206.867 134.995 205.41 134.858 203.995 135.862 202.724 137.27 202.53 138.751 202.354 140.094 203.412 140.269 204.893 140.269 204.895 140.27 204.898 140.27 204.9Z" fill="#263238"/><path d="M159.05 202.57C159.267 203.892 158.372 205.141 157.05 205.36 155.801 205.593 154.6 204.77 154.367 203.522 154.347 203.419 154.335 203.315 154.33 203.21 154.153 201.896 155.076 200.687 156.39 200.51 157.704 200.333 158.913 201.256 159.09 202.57Z" fill="#263238"/><path d="M145.82 199.26 147.7 215.18 155.88 212.06 145.82 199.26Z" fill="#F28F8F"/><path d="M138.85 196.87 132.85 199.61C132.115 197.913 132.852 195.939 134.52 195.14 136.137 194.399 138.048 195.11 138.788 196.727 138.81 196.774 138.831 196.822 138.85 196.87Z" fill="#263238"/><path d="M136.92 217.18 145.53 220.1C144.649 222.504 142.027 223.784 139.59 223 137.274 222.193 136.051 219.662 136.858 217.346 136.878 217.29 136.898 217.235 136.92 217.18Z" fill="#B16668"/><path d="M137.13 219.19C139.33 219.301 141.121 220.999 141.35 223.19 140.755 223.236 140.156 223.161 139.59 222.97 137.966 222.411 136.827 220.942 136.69 219.23 136.836 219.206 136.983 219.193 137.13 219.19Z" fill="#F28F8F"/><path d="M159.82 197.56 153.76 194.9C154.38 193.263 156.21 192.438 157.848 193.059 157.906 193.081 157.963 193.105 158.02 193.13 159.7 193.895 160.49 195.84 159.82 197.56Z" fill="#263238"/><path d="M139.49 235.21C143.35 236.33 154.63 251.59 158.29 257.09L154.15 267.65C156.628 270.213 158.818 273.04 160.68 276.08L152.25 300.63C152.25 300.63 153.01 267.92 139.49 243.03Z" fill="#263238"/><path d="M151.13 281.91C154.13 289.7 154.55 307.76 154.55 307.76 154.55 307.76 151.55 290.91 137.38 285.01 137.38 284.2 137.53 272.66 137.53 272.66 137.53 272.66 118.53 267.84 114.53 266.03L110.44 244.03C110.44 244.03 113.17 237.21 115.44 237.03L115.44 241.78C121.697 246.713 127.682 251.981 133.37 257.56 143.73 267.55 148.15 274.12 151.13 281.91Z" fill="#37474F"/><path d="M200.25 359.57C197.19 357 192.76 353.44 189.25 352.57 188.433 352.334 187.601 352.15 186.76 352.02 187.945 351.766 189.111 351.432 190.25 351.02 191.394 350.565 192.381 349.787 193.09 348.78 193.35 348.37 193.51 347.78 193.09 347.46 192.939 347.36 192.761 347.311 192.58 347.32 189.99 347.45 187.92 347.22 185.58 347.24 184.516 347.18 183.45 347.288 182.42 347.56 181.48 347.91 180.54 348.27 179.62 348.67 175.45 350.51 171.62 352.17 165.46 351.26L162.88 350.58 119.5 328.23 111.27 283.43C111.27 283.43 109.27 255.65 98.02 248.91 92.02 251.19 85.45 256.83 83.67 262.91 81.57 270.14 82.39 280.41 85.97 296.34 88.97 309.67 92.1 323.34 95.49 333.49 98.88 343.64 100.18 347.23 106.84 349.22 118.01 352.56 158.31 363.61 158.31 363.61 159.136 363.929 159.977 364.206 160.83 364.44 162.22 364.83 163.52 365.79 166.83 366.51 170.76 367.37 175.54 365.58 178.83 365.12 182.12 364.66 187.9 365.74 191.09 366.74 194.28 367.74 197.59 362.68 199.18 363.13 200.77 363.58 203.32 362.15 200.25 359.57Z" fill="#FFA8A7"/><path d="M185.14 350.32C183.527 350.38 181.945 350.771 180.49 351.47 182.582 351.404 184.674 351.592 186.72 352.03 187.905 351.776 189.071 351.442 190.21 351.03 191.214 350.619 192.103 349.971 192.8 349.14 191 350.56 187.4 350.36 185.14 350.32Z" fill="#F28F8F"/><path d="M97.47 248.61C89.7 251.93 84.55 255.99 82.47 264.54 80.39 273.09 81.86 280.6 83.61 289.65 85.36 298.7 89.46 313.41 89.46 313.41 89.46 313.41 106.09 314.41 115.68 307.76L110.43 273.64C110.43 273.64 107.66 253.38 98 248.92" fill="#37474F"/><path d="M110.84 168.39C105 173.8 99.4 181.47 103.55 199.22 100.885 201.809 99.9467 205.701 101.14 209.22 102.74 214.7 108 218.31 112.89 217.22 117.78 216.13 120.43 210.91 118.83 205.42 117.62 201.32 113.22 197.35 109.6 197.61 109.6 197.61 106.13 190.02 109.38 179.26 113.82 164.6 130.91 163.38 138.43 164.57 135.91 161 118.56 161.24 110.84 168.39Z" fill="#407BFF"/><path d="M110.84 168.39C105 173.8 99.4 181.47 103.55 199.22 100.885 201.809 99.9467 205.701 101.14 209.22 102.74 214.7 108 218.31 112.89 217.22 117.78 216.13 120.43 210.91 118.83 205.42 117.62 201.32 113.22 197.35 109.6 197.61 109.6 197.61 106.13 190.02 109.38 179.26 113.82 164.6 130.91 163.38 138.43 164.57 135.91 161 118.56 161.24 110.84 168.39Z" opacity="0.4"/><path d="M119.87 205.23C118.09 199.15 112.26 195.16 106.87 196.3 106.046 196.472 105.254 196.769 104.52 197.18 103.91 197.52 102.07 198.78 101.71 199.02 98.25 201.31 96.71 206.02 98.08 210.86 99.86 216.94 105.69 220.93 111.08 219.79 112.074 219.581 113.023 219.195 113.88 218.65 114.32 218.37 116.04 217.22 116.46 216.92 119.77 214.59 121.26 210 119.87 205.23Z" fill="#407BFF"/><path d="M119.87 205.23C118.09 199.15 112.26 195.16 106.87 196.3 106.046 196.472 105.254 196.769 104.52 197.18 103.91 197.52 102.07 198.78 101.71 199.02 98.25 201.31 96.71 206.02 98.08 210.86 99.86 216.94 105.69 220.93 111.08 219.79 112.074 219.581 113.023 219.195 113.88 218.65 114.32 218.37 116.04 217.22 116.46 216.92 119.77 214.59 121.26 210 119.87 205.23Z" opacity="0.3"/><path d="M117.66 206.71C115.88 200.64 110.05 196.64 104.66 197.79 99.27 198.94 96.3 204.79 98.08 210.86 99.86 216.93 105.69 220.93 111.08 219.79 116.47 218.65 119.44 212.79 117.66 206.71Z" fill="#407BFF"/><path d="M117.66 206.71C115.88 200.64 110.05 196.64 104.66 197.79 99.27 198.94 96.3 204.79 98.08 210.86 99.86 216.93 105.69 220.93 111.08 219.79 116.47 218.65 119.44 212.79 117.66 206.71Z" opacity="0.1"/><path d="M112.49 207.81C111.65 204.94 108.89 203.06 106.34 203.6 103.79 204.14 102.34 206.9 103.23 209.77 104.12 212.64 106.83 214.52 109.38 213.98 111.93 213.44 113.33 210.67 112.49 207.81Z" fill="#37474F"/></g></g><g id="freepik--Monitor--inject-4"><path d="M231.75 422.84 211.53 411C210.978 411 210.53 410.552 210.53 410 210.53 409.448 210.978 409 211.53 409L290.82 363.22C291.875 362.681 293.125 362.681 294.18 363.22L314.38 374.97C314.916 375.104 315.241 375.647 315.107 376.183 315.017 376.541 314.738 376.82 314.38 376.91L235.1 422.85C234.047 423.386 232.8 423.383 231.75 422.84Z" id="freepik--shadow--inject-4" opacity="0.1"/><g id="freepik--monitor--inject-4"><path d="M305.54 356.14 310.85 293.14C310.94 291.263 310.046 289.474 308.49 288.42 306.776 287.596 304.772 287.633 303.09 288.52L223.89 334.25C222.223 335.34 221.108 337.097 220.83 339.07L215.53 402.07C215.43 403.947 216.322 405.739 217.88 406.79 219.597 407.618 221.605 407.581 223.29 406.69L302.49 361C304.167 359.902 305.281 358.127 305.54 356.14Z" fill="#263238"/><path d="M310.84 293.13 305.54 356.13 309.39 293.59C309.53 291.82 308.89 291.15 307.39 292.03L229.16 337.24C228.345 337.761 227.661 338.462 227.16 339.29L221.93 336.29C222.431 335.476 223.116 334.791 223.93 334.29L303.12 288.56C304.81 287.674 306.819 287.637 308.54 288.46 310.059 289.517 310.928 291.281 310.84 293.13Z" fill="#37474F"/><path d="M220.76 405.09 226.07 342.09C226.34 340.117 227.453 338.359 229.12 337.27L307.35 292C308.89 291.11 309.53 291.79 309.35 293.56L305.5 356.1C305.233 358.076 304.12 359.839 302.45 360.93L223.25 406.65C221.75 407.58 220.62 406.87 220.76 405.09Z" fill="#455A64"/><path d="M259.67 367.01 259.06 385.99 281.06 373.34 275.7 357.8 259.67 367.01Z" fill="#263238"/><path d="M262.88 369.1 278.24 360.18 275.62 358.67 260.27 367.6 262.88 369.1Z" fill="#455A64"/><path d="M286.64 386.83 278.24 360.18 262.88 369.11 260.28 367.59 262 388.11 262.43 394.01 262.68 395.27 261.56 394.63 256.56 391.77C256.34 391.62 256.062 391.582 255.81 391.67L255.81 391.67C255.564 391.827 255.429 392.11 255.46 392.4L255.46 392.85C255.494 393.62 255.896 394.327 256.54 394.75L256.54 394.75 264.76 399.5 264.76 399.5C265.071 399.658 265.412 399.747 265.76 399.76 266.174 399.779 266.585 399.686 266.95 399.49L285.66 388.69C286.325 388.318 286.709 387.589 286.64 386.83ZM274.83 384.55C273.363 385.565 271.351 385.198 270.336 383.731 270.09 383.375 269.918 382.974 269.83 382.55 269.283 380.009 270.381 377.396 272.58 376.01 274.028 374.988 276.031 375.333 277.054 376.782 277.313 377.15 277.493 377.568 277.58 378.01 278.131 380.551 277.031 383.166 274.83 384.55Z" fill="#37474F"/><path d="M255.83 391.68 262.21 388 263.5 396.58 255.83 391.68Z"/><path d="M262.88 369.11 260.27 367.6 262.43 394C262.57 394.7 262.17 395 261.57 394.62L256.57 391.76C255.96 391.4 255.47 391.7 255.47 392.4L255.47 392.84C255.5 393.609 255.893 394.318 256.53 394.75 256.53 394.75 256.53 394.75 256.53 394.75L264.77 399.5 264.77 399.5C265.079 399.661 265.421 399.75 265.77 399.76Z" fill="#263238"/><path d="M274.83 384.55C273.519 385.46 271.738 385.268 270.65 384.1 271.465 384.187 272.286 383.997 272.98 383.56 275.182 382.181 276.282 379.569 275.73 377.03 275.583 376.442 275.299 375.897 274.9 375.44 276.238 375.658 277.301 376.682 277.57 378.01 278.123 380.549 277.028 383.163 274.83 384.55Z" fill="#263238"/><path d="M261.67 344.45 260.67 356.6C260.6 357.4 261.04 357.77 261.67 357.42 262.359 356.941 262.804 356.185 262.89 355.35L263.89 343.21C263.96 342.4 263.52 342.04 262.89 342.38 262.206 342.864 261.762 343.617 261.67 344.45Z" fill="#407BFF"/><path d="M265.61 342.18 264.61 354.32C264.54 355.12 264.98 355.49 265.61 355.15 266.297 354.665 266.742 353.907 266.83 353.07L267.83 340.93C267.9 340.13 267.46 339.76 266.83 340.11 266.144 340.592 265.699 341.346 265.61 342.18Z" fill="#407BFF"/><path d="M269.55 339.9 268.55 352.05C268.48 352.85 268.92 353.22 269.55 352.87 270.239 352.391 270.684 351.635 270.77 350.8L271.77 338.66C271.84 337.85 271.4 337.49 270.77 337.83 270.086 338.314 269.642 339.067 269.55 339.9Z" fill="#407BFF"/><path d="M273.49 337.63 272.49 349.77C272.43 350.57 272.86 350.94 273.49 350.6 274.177 350.115 274.622 349.357 274.71 348.52L275.71 336.38C275.78 335.58 275.34 335.21 274.71 335.56 274.024 336.042 273.579 336.796 273.49 337.63Z" fill="#407BFF"/></g></g></g><g id="freepik--Plant--inject-4"><g id="freepik--Pot--inject-4"><g id="freepik--pot--inject-4"><path d="M219.75 218.07C213.35 211.46 209.58 184.56 215.83 179.31L247.62 179.31C253.87 184.55 250.11 211.45 243.71 218.06L243.53 218.24 243.31 218.46C243.126 218.643 242.932 218.817 242.73 218.98L242.58 219.1C242.42 219.23 242.27 219.35 242.1 219.47 241.833 219.664 241.556 219.844 241.27 220.01 236 223.08 227.46 223.08 222.19 220.01L222.19 220.01C221.9 219.85 221.63 219.66 221.35 219.47 221.07 219.28 221.05 219.24 220.9 219.12 220.75 219 220.77 219.03 220.71 218.97 220.65 218.91 220.33 218.64 220.15 218.47L219.9 218.22Z" fill="#407BFF"/><path d="M219.75 218.07C213.35 211.46 209.58 184.56 215.83 179.31L247.62 179.31C253.87 184.55 250.11 211.45 243.71 218.06L243.53 218.24 243.31 218.46C243.126 218.643 242.932 218.817 242.73 218.98L242.58 219.1C242.42 219.23 242.27 219.35 242.1 219.47 241.833 219.664 241.556 219.844 241.27 220.01 236 223.08 227.46 223.08 222.19 220.01L222.19 220.01C221.9 219.85 221.63 219.66 221.35 219.47 221.07 219.28 221.05 219.24 220.9 219.12 220.75 219 220.77 219.03 220.71 218.97 220.65 218.91 220.33 218.64 220.15 218.47L219.9 218.22Z" opacity="0.3"/><path d="M244.86 177.2C252.11 181.44 252.11 188.3 244.86 192.54 237.61 196.78 225.86 196.77 218.59 192.54 211.32 188.31 211.34 181.44 218.59 177.2 225.84 172.96 237.61 173 244.86 177.2Z" fill="#407BFF"/><path d="M244.86 177.2C252.11 181.44 252.11 188.3 244.86 192.54 237.61 196.78 225.86 196.77 218.59 192.54 211.32 188.31 211.34 181.44 218.59 177.2 225.84 172.96 237.61 173 244.86 177.2Z" opacity="0.1"/><path d="M241.37 179.24C246.7 182.35 246.7 187.39 241.37 190.5 236.04 193.61 227.37 193.61 222.08 190.5 216.79 187.39 216.75 182.35 222.08 179.24 227.41 176.13 236.05 176.13 241.37 179.24Z" fill="#455A64"/><path d="M222.08 184.58C227.41 181.47 236.08 181.47 241.37 184.58 242.667 185.298 243.764 186.329 244.56 187.58 243.767 188.833 242.67 189.865 241.37 190.58 236.05 193.69 227.37 193.69 222.08 190.58 220.782 189.863 219.686 188.831 218.89 187.58 219.69 186.333 220.786 185.302 222.08 184.58Z" fill="#F5F5F5"/></g><g id="freepik--Plants--inject-4"><path d="M249.35 132.39 236.64 141.08 248.64 136.53C248.536 139.748 247.724 142.903 246.26 145.77 246.26 145.77 238.32 149.62 234.01 153.68L244.58 150.36C244.455 154.292 243.882 158.198 242.87 162 241.96 165.36 238.87 171.61 236.97 174.84 236.095 176.335 235.123 177.772 234.06 179.14 234 179.23 233.93 179.31 233.86 179.4 231.86 178.09 229.86 176.8 227.74 175.55 226.51 172.43 225.17 164.85 224.92 158.7 224 135.15 242.61 123.01 257.13 119.52 253.792 123.313 251.157 127.671 249.35 132.39Z" fill="#407BFF"/><path d="M249.35 132.39 236.64 141.08 248.64 136.53C248.536 139.748 247.724 142.903 246.26 145.77 246.26 145.77 238.32 149.62 234.01 153.68L244.58 150.36C244.455 154.292 243.882 158.198 242.87 162 241.96 165.36 238.87 171.61 236.97 174.84 236.095 176.335 235.123 177.772 234.06 179.14 234 179.23 233.93 179.31 233.86 179.4 231.86 178.09 229.86 176.8 227.74 175.55 226.51 172.43 225.17 164.85 224.92 158.7 224 135.15 242.61 123.01 257.13 119.52 253.792 123.313 251.157 127.671 249.35 132.39Z" opacity="0.2"/><path d="M239.21 132.65C237.918 133.813 236.806 135.161 235.91 136.65 235.019 138.136 234.24 139.687 233.58 141.29 232.274 144.494 231.318 147.83 230.73 151.24 229.486 158.056 229.87 165.07 231.85 171.71L231.85 171.71C231.875 171.896 231.745 172.067 231.559 172.093 231.416 172.112 231.276 172.039 231.21 171.91L231.21 171.91C229.313 165.16 229.039 158.056 230.41 151.18 231.044 147.748 232.05 144.395 233.41 141.18 234.093 139.58 234.899 138.036 235.82 136.56 236.755 135.099 237.897 133.782 239.21 132.65Z" fill="#FAFAFA"/><path d="M193 139.36 193 139.36C197.379 145.146 201.406 151.19 205.06 157.46L217.24 159.81 208.17 161.11 212.78 168.93 224.78 171.8 215.33 173.04C215.33 173.04 217.66 182.3 224.27 186.33 227.92 188.56 229.73 188.94 230.88 187.91 231.68 187.19 232 182.79 232.77 178.91 233.54 175.03 233.77 168.62 230.32 160.79 229.376 158.697 228.137 156.751 226.64 155.01 218.05 144.8 201.36 139.5 193 139.36Z" fill="#407BFF"/><path d="M193 139.36 193 139.36C197.379 145.146 201.406 151.19 205.06 157.46L217.24 159.81 208.17 161.11 212.78 168.93 224.78 171.8 215.33 173.04C215.33 173.04 217.66 182.3 224.27 186.33 227.92 188.56 229.73 188.94 230.88 187.91 231.68 187.19 232 182.79 232.77 178.91 233.54 175.03 233.77 168.62 230.32 160.79 229.376 158.697 228.137 156.751 226.64 155.01 218.05 144.8 201.36 139.5 193 139.36Z" fill="#FFFFFF" opacity="0.3"/><path d="M227.76 164.79 227.76 164.79 227.76 164.79C229.076 168.053 229.918 171.488 230.26 174.99L230.26 174.99C230.509 179.414 230.489 183.849 230.2 188.27 230.453 188.186 230.688 188.054 230.89 187.88 231.69 187.16 232.01 182.76 232.78 178.88 233.55 175 233.78 168.59 230.33 160.76 229.386 158.667 228.147 156.721 226.65 154.98 218.04 144.78 201.35 139.48 193.02 139.34 205.74 141.83 219.22 150.75 225.7 160.85 226.499 162.101 227.188 163.42 227.76 164.79Z" opacity="0.1"/><path d="M205.72 143.76C212.071 146.647 217.747 150.834 222.38 156.05 224.693 158.679 226.574 161.66 227.95 164.88 229.288 168.1 230.083 171.52 230.3 175 230.3 175 230.3 175 230.3 175 230.3 175 230.3 175 230.3 175 229.755 171.596 228.777 168.276 227.39 165.12 226.007 161.974 224.208 159.027 222.04 156.36 219.829 153.709 217.315 151.326 214.55 149.26 211.786 147.182 208.845 145.352 205.76 143.79 205.76 143.79 205.76 143.79 205.76 143.79 205.76 143.79 205.7 143.76 205.72 143.76Z" fill="#FAFAFA"/><path d="M269 148.05 269 148.05C267.974 147.989 266.946 147.989 265.92 148.05 261.872 148.283 257.868 149.015 254 150.23 252.56 150.68 251.12 151.23 249.7 151.78 248.98 152.07 248.28 152.38 247.58 152.71 244.119 154.283 240.943 156.418 238.18 159.03 236.897 160.283 235.775 161.69 234.84 163.22L234.47 163.81 234.47 163.81C234.18 164.33 233.92 164.81 233.66 165.35 231.314 169.76 230.126 174.695 230.21 179.69 230.14 183.21 231.11 187.28 231.76 187.98 231.847 188.071 231.945 188.151 232.05 188.22 233.05 188.92 234.63 188.63 237.69 187.13 243.84 184.13 246.69 175.82 246.69 175.82L238.49 173.95 249.24 172.42 253.93 165.92 246 164 256.86 163C260.586 157.791 264.62 152.809 268.94 148.08Z" fill="#407BFF"/><path d="M265.88 148C261.843 148.252 257.853 149.001 254 150.23 252.56 150.68 251.12 151.23 249.7 151.78 248.98 152.07 248.28 152.38 247.58 152.71 244.119 154.283 240.943 156.418 238.18 159.03 236.897 160.283 235.775 161.69 234.84 163.22L234.47 163.81 234.47 163.81C234.18 164.33 233.92 164.81 233.66 165.35 231.314 169.76 230.126 174.695 230.21 179.69 230.14 183.21 231.11 187.28 231.76 187.98 231.847 188.071 231.945 188.151 232.05 188.22 232.242 188.355 232.46 188.45 232.69 188.5 232.26 183.02 235.69 169.37 240.06 163.92 244.61 158.25 255.06 150.25 268.99 148.05L268.99 148.05C267.955 147.97 266.917 147.953 265.88 148Z" opacity="0.1"/><path d="M232.61 188.51C232.571 184.464 233.059 180.43 234.06 176.51 235.005 172.561 236.564 168.785 238.68 165.32 239.805 163.619 241.116 162.049 242.59 160.64 244.042 159.223 245.604 157.922 247.26 156.75 250.568 154.395 254.181 152.501 258 151.12 258 151.12 258 151.12 258 151.12 258 151.12 258 151.12 258 151.12 254.357 152.807 250.896 154.861 247.67 157.25 246.055 158.43 244.516 159.709 243.06 161.08 241.589 162.425 240.274 163.931 239.14 165.57 236.996 168.968 235.394 172.679 234.39 176.57 233.315 180.447 232.743 184.447 232.69 188.47 232.69 188.47 232.69 188.47 232.69 188.47L232.61 188.51Z" fill="#FAFAFA"/></g></g></g><g id="freepik--character-1--inject-4"><g id="freepik--character-on-the-couch--inject-4"><g id="freepik--Couch--inject-4"><path d="M326.27 272.3 336.42 272.3 334.79 282.2 334.79 282.2C334.661 282.741 334.293 283.193 333.79 283.43 332.246 284.211 330.424 284.211 328.88 283.43 328.379 283.191 328.012 282.739 327.88 282.2L327.88 282.2Z" fill="#FAFAFA"/><path d="M382 242.44 392.15 242.44 390.53 252.34 390.53 252.34C390.394 252.875 390.028 253.322 389.53 253.56 387.986 254.341 386.164 254.341 384.62 253.56 384.12 253.324 383.753 252.876 383.62 252.34L383.62 252.34Z" fill="#FAFAFA"/><path d="M251.08 230.19 261.23 230.19 259.61 240.09 259.61 240.09C259.483 240.63 259.114 241.08 258.61 241.31 257.069 242.1 255.241 242.1 253.7 241.31 253.196 241.08 252.826 240.63 252.7 240.09L252.7 240.09Z" fill="#FAFAFA"/><path d="M302.71 200.16 312.86 200.16 311.24 210.06 311.24 210.06C311.111 210.598 310.742 211.048 310.24 211.28 308.696 212.061 306.874 212.061 305.33 211.28 304.828 211.048 304.459 210.598 304.33 210.06L304.33 210.06Z" fill="#FAFAFA"/><path d="M243 178.16 243 225.44C243.18 228.91 244.999 232.088 247.9 234L251.9 236.32 251.97 236.32C253.878 237.25 256.012 237.614 258.12 237.37L318.37 269.25C318.666 272.573 320.454 275.581 323.23 277.43L323.28 277.43 327.28 279.73C327.397 279.808 327.521 279.875 327.65 279.93L327.86 280.03 327.92 280.03C330.343 281.04 333.045 281.164 335.55 280.38 335.842 280.293 336.129 280.19 336.41 280.07 336.451 280.046 336.495 280.026 336.54 280.01 336.74 279.924 336.934 279.824 337.12 279.71L395.12 246.33C398.019 244.432 399.845 241.27 400.04 237.81L400.12 177.96 400.12 155.25C399.915 151.79 398.092 148.63 395.2 146.72L330.36 109.36C327.362 107.84 323.806 107.9 320.86 109.52L316.86 111.83C313.901 113.774 311.855 116.833 311.19 120.31L307.33 145.64 303.76 143.58C300.448 141.661 296.362 141.661 293.05 143.58L247.9 169.64C245.01 171.544 243.192 174.704 243 178.16Z" fill="#37474F"/><path d="M316.85 111.83 320.85 109.52C323.796 107.9 327.352 107.84 330.35 109.36L395.18 146.72C395.47 146.89 395.78 147.11 395.69 147.04 398.061 148.827 399.629 151.481 400.05 154.42 399.69 151.9 397.64 150.99 395.19 152.42L391.19 154.74C388.098 156.31 384.442 156.31 381.35 154.74L316.86 117.54C314.13 116 314.13 113.4 316.85 111.83Z" fill="#455A64"/><path d="M243 178.16 243 225.44C243.18 228.91 244.999 232.088 247.9 234L251.9 236.32 251.97 236.32C253.752 237.222 255.752 237.599 257.74 237.41 259.139 237.325 260.503 236.94 261.74 236.28L307.32 210C310.22 208.098 312.046 204.933 312.24 201.47L312.24 154.17C312.049 150.706 310.223 147.539 307.32 145.64L303.75 143.58C300.438 141.661 296.352 141.661 293.04 143.58L247.9 169.64C245.01 171.544 243.192 174.704 243 178.16Z" fill="#263238"/><path d="M303.74 143.58 307.32 145.64C310.03 147.2 310.03 149.76 307.32 151.32L261.76 177.63C258.855 179.528 257.024 182.695 256.83 186.16L256.83 233.43C256.83 236.56 254.61 237.84 251.9 236.28L247.9 233.96C245.002 232.06 243.177 228.899 242.98 225.44L242.98 178.16C243.185 174.7 245.008 171.54 247.9 169.63L293.04 143.63C296.339 141.695 300.423 141.676 303.74 143.58Z" fill="#455A64"/><path d="M256.83 186.16 256.83 233.43C256.83 236.56 254.61 237.84 251.9 236.28L247.9 233.96C245.002 232.06 243.177 228.899 242.98 225.44L242.98 178.16C243.044 176.446 243.543 174.777 244.43 173.31L258.28 181.31C257.392 182.777 256.892 184.446 256.83 186.16Z" fill="#37474F"/><path d="M258.88 237.41C259.351 238.389 259.957 239.298 260.68 240.11 262.07 241.394 263.627 242.484 265.31 243.35 282.62 253.35 295.11 260.53 312.42 270.53 313.967 271.311 315.793 271.311 317.34 270.53L333.34 261.28 365.34 242.8C369.855 240.41 371.577 234.812 369.187 230.297 368.319 228.658 366.979 227.318 365.34 226.45L347.2 216 333.35 208 318.3 199.34C315.205 197.767 311.545 197.767 308.45 199.34L262.9 225.62C260.05 227.403 258.219 230.437 257.97 233.79 258.008 235.048 258.319 236.283 258.88 237.41Z" fill="#263238"/><path d="M312.42 259.87 260.42 229.87C259.07 229.09 257.96 229.73 257.96 231.3L257.96 236.3C258.061 238.029 258.973 239.609 260.42 240.56L312.42 270.56C313.78 271.34 314.88 270.7 314.88 269.14L314.88 264.14C314.792 262.405 313.877 260.817 312.42 259.87Z" fill="#37474F"/><path d="M318.3 174.93 365.37 202.07C368.276 203.966 370.104 207.135 370.29 210.6L370.29 220.6C370.098 224.061 368.271 227.224 365.37 229.12L319.8 255.39C316.708 256.96 313.052 256.96 309.96 255.39L262.89 228.24C259.989 226.344 258.162 223.181 257.97 219.72L257.97 209.72C258.161 206.256 259.987 203.089 262.89 201.19L308.46 174.89C311.559 173.333 315.214 173.348 318.3 174.93Z" fill="#37474F"/><path d="M314.88 235.23 314.88 256.57C316.595 256.602 318.289 256.192 319.8 255.38L365.37 229.08C368.271 227.184 370.098 224.021 370.29 220.56L370.29 210.56C370.107 207.303 368.488 204.296 365.87 202.35 368.07 203.93 367.87 206.25 365.37 207.72L319.8 234.02C318.291 234.839 316.597 235.256 314.88 235.23Z" fill="#263238"/><path d="M310 234.06 262.93 206.91C260.22 205.34 260.22 202.8 262.93 201.23L308.5 174.93C311.592 173.36 315.248 173.36 318.34 174.93L365.41 202.07C368.13 203.64 368.13 206.19 365.41 207.76L319.84 234.06C316.748 235.63 313.092 235.63 310 234.06Z" fill="#455A64"/></g><g id="freepik--character--inject-4"><path d="M276.35 236.65C276.35 236.65 280.15 248.81 280.01 253.47 279.85 258.33 280.89 260.03 279.62 265.22 279.35 266.35 278.55 268.59 278.33 269.51 278.073 270.222 278.443 271.007 279.154 271.263 279.24 271.294 279.329 271.317 279.42 271.33 281.48 271.94 285.3 268.33 287.32 264.14 289.43 259.336 291.243 254.406 292.75 249.38 292.928 248.22 292.797 247.033 292.37 245.94 292.159 245.301 291.885 244.684 291.55 244.1 291.03 241.94 291.04 237.91 290.69 235.1Z" fill="#B16668"/><path d="M296.48 254.13C296.715 254.645 296.86 255.196 296.91 255.76 296.91 256.76 294.43 259.76 293.48 260.81 292.156 262.277 291.441 264.194 291.48 266.17 291.189 269.326 289.79 272.277 287.53 274.5 284.512 277.579 280.631 279.671 276.4 280.5 271.18 281.64 269.6 278.94 269.6 278.94 269.6 278.94 268.22 276.35 269.26 275.42 270.3 274.49 296.48 254.13 296.48 254.13Z" fill="#263238"/><path d="M291.55 244.1C291.71 244.1 291.98 244.1 292.34 244.61 292.48 244.8 293.21 247.17 293.88 248.44 294.55 249.71 296.38 252.16 296.48 254.13 294.98 257.8 291.22 260.13 290.39 263.65 289.56 267.17 289.14 271.3 283.3 275.2 277.46 279.1 271.79 279.08 269.86 277.75 267.93 276.42 268.3 274.27 271.47 270.38 274.83 266.25 277.65 256.92 277.65 256.92 278.024 255.606 278.315 254.27 278.52 252.92 278.618 251.589 278.618 250.252 278.52 248.92 278.466 248.295 278.61 247.669 278.93 247.13 279.355 246.67 279.909 246.35 280.52 246.21 281.457 245.866 282.43 245.628 283.42 245.5 284.416 245.369 285.426 245.577 286.29 246.09 286.838 246.555 287.408 246.992 288 247.4 288.884 247.84 289.941 247.743 290.73 247.15 291.52 246.625 291.896 245.661 291.67 244.74 291.642 244.525 291.602 244.311 291.55 244.1Z" fill="#455A64"/><path d="M286.8 272C285.4 269.053 282.48 267.127 279.22 267 273.4 266.54 271.14 269.33 270.11 271 268.88 273 267.47 276.65 269.78 277.93 272.27 279.31 275.3 279.21 280.23 277.24 285.16 275.27 286.8 272 286.8 272Z" fill="#FAFAFA"/><path d="M287.21 254.37C287.035 254.434 286.84 254.416 286.68 254.32 285.82 253.79 281.15 252.39 278.17 254.73 277.83 254.41 277.95 253.89 278.47 253.19 281.89 251.4 286.31 252.7 287.35 253.35 287.611 253.516 287.687 253.862 287.521 254.123 287.518 254.129 287.514 254.134 287.51 254.14 287.437 254.247 287.332 254.327 287.21 254.37Z" fill="#FAFAFA"/><path d="M277.28 258.07C277.181 257.5 277.36 256.917 277.76 256.5 280.508 255.48 283.552 255.614 286.2 256.87 286.461 257.036 286.537 257.382 286.371 257.643 286.368 257.649 286.364 257.654 286.36 257.66 286.178 257.928 285.818 258.008 285.54 257.84 284.7 257.33 280.27 256 277.28 258.07Z" fill="#FAFAFA"/><path d="M274.25 265.73C274.313 264.962 274.638 264.238 275.17 263.68 278.56 262.01 282.88 263.28 283.91 263.91 284.174 264.081 284.249 264.434 284.078 264.698 284.075 264.702 284.073 264.706 284.07 264.71 283.994 264.813 283.89 264.893 283.77 264.94 283.595 265.004 283.4 264.986 283.24 264.89 282.34 264.33 277.19 262.81 274.25 265.73Z" fill="#FAFAFA"/><path d="M284.92 261.41C284.754 261.495 284.556 261.495 284.39 261.41 283.54 260.88 278.97 259.52 275.98 261.74 275.913 261.112 276.147 260.489 276.61 260.06 279.358 259.04 282.402 259.174 285.05 260.43 285.306 260.623 285.357 260.987 285.164 261.242 285.101 261.326 285.017 261.391 284.92 261.43Z" fill="#FAFAFA"/><path d="M270 250.65C270 250.65 266.41 264.8 263.3 270.14 260.19 275.48 258.6 278.06 254.6 281.96 253.73 282.81 251.78 284.36 251.07 285.05 250.457 285.557 250.371 286.464 250.877 287.077 250.935 287.147 251 287.212 251.07 287.27 252.56 288.96 259.4 289.9 263.49 287.34 267.58 284.78 271.61 278.93 274.1 276.8 275.04 276 275.92 275.18 276.78 274.3 277.64 273.42 277.47 272.56 277.62 271.55 277.69 271.05 277.73 269.7 277.73 269.7 278.46 267.33 280.21 263.7 281.16 261.37Z" fill="#B16668"/><path d="M278.1 280.65C278.089 281.245 277.978 281.833 277.77 282.39 277.31 283.29 273.66 285.03 272.27 285.63 270.371 286.431 268.846 287.921 268 289.8 266.315 292.656 263.672 294.821 260.54 295.91 256.309 297.488 251.697 297.74 247.32 296.63 241.87 295.37 241.59 292.11 241.59 292.11 241.59 292.11 241.44 289.05 242.84 288.63 244.24 288.21 278.1 280.65 278.1 280.65Z" fill="#263238"/><path d="M277.91 269C278.06 269.08 278.33 269.19 278.44 269.83 278.44 270.08 278.12 272.65 278.19 274.14 278.26 275.63 278.89 278.78 278.1 280.69 275.04 283.5 270.44 284.02 268.1 286.98 265.76 289.94 263.51 293.67 256.23 294.75 248.95 295.83 243.61 293.27 242.38 291.16 241.15 289.05 242.45 287.16 247.19 284.9 252.19 282.49 259.05 274.9 259.06 274.9 259.999 273.827 260.867 272.695 261.66 271.51 262.344 270.279 262.936 268.999 263.43 267.68 263.656 267.066 264.068 266.538 264.61 266.17 265.22 265.925 265.89 265.872 266.53 266.02 267.569 266.112 268.595 266.317 269.59 266.63 270.59 266.957 271.452 267.608 272.04 268.48 272.43 269.12 272.62 269.88 273.04 270.48 273.68 271.296 274.723 271.682 275.74 271.48 276.738 271.357 277.545 270.607 277.74 269.62 277.809 269.417 277.865 269.21 277.91 269Z" fill="#455A64"/><path d="M261 293.22C260.982 289.816 259.075 286.703 256.05 285.14 250.75 282.09 247.37 283.72 245.65 284.84 243.6 286.17 240.65 289 242.24 291.25 243.98 293.67 246.9 294.92 252.44 295.25 257.98 295.58 261 293.22 261 293.22Z" fill="#FAFAFA"/><path d="M269.22 276.74C269.026 276.725 268.849 276.622 268.74 276.46 268.17 275.57 264.37 272.16 260.5 273.04 260.33 272.59 260.67 272.15 261.5 271.72 265.5 271.56 269.13 274.72 269.83 275.83 270.002 276.1 269.923 276.459 269.652 276.631 269.642 276.638 269.631 276.644 269.62 276.65 269.5 276.722 269.36 276.754 269.22 276.74Z" fill="#FAFAFA"/><path d="M258.18 275.8C258.335 275.219 258.759 274.747 259.32 274.53 262.377 274.798 265.198 276.282 267.15 278.65 267.322 278.92 267.243 279.279 266.972 279.451 266.962 279.458 266.951 279.464 266.94 279.47 266.648 279.645 266.271 279.562 266.08 279.28 265.53 278.42 261.92 275.19 258.18 275.8Z" fill="#FAFAFA"/><path d="M251.88 281.7C252.286 281.002 252.917 280.462 253.67 280.17 257.67 280.11 261.15 283.24 261.83 284.3 262.004 284.569 261.928 284.928 261.659 285.102 261.65 285.108 261.64 285.114 261.63 285.12 261.515 285.185 261.382 285.213 261.25 285.2 261.054 285.189 260.876 285.085 260.77 284.92 260.16 284 256 280.24 251.88 281.7Z" fill="#FAFAFA"/><path d="M263.91 282.38C263.714 282.371 263.535 282.266 263.43 282.1 262.86 281.22 259.14 277.89 255.32 278.66 255.542 278.041 256.036 277.557 256.66 277.35 259.716 277.622 262.535 279.106 264.49 281.47 264.667 281.744 264.588 282.109 264.314 282.286 264.306 282.291 264.298 282.295 264.29 282.3 264.175 282.365 264.042 282.393 263.91 282.38Z" fill="#FAFAFA"/><path d="M308.5 171.64C302.25 175.45 280.77 185.55 271.81 192.55 269.22 194.55 268.18 197.43 268.23 203.86 268.3 212.59 272.62 242.67 272.62 242.67 273.42 244.42 275.33 241.39 275.33 241.39L311.26 202.93Z" fill="#407BFF"/><path d="M308.5 171.64C302.25 175.45 280.77 185.55 271.81 192.55 269.22 194.55 268.18 197.43 268.23 203.86 268.3 212.59 272.62 242.67 272.62 242.67 273.42 244.42 275.33 241.39 275.33 241.39L311.26 202.93Z" opacity="0.3"/><path d="M274.8 233.6C282.8 227.96 310.33 191.73 310.33 191.73L310.33 191.73C307.26 188.66 306.33 178.84 306.33 178.84 304.71 182.46 305.61 188.21 306.46 190.35 304.41 191.84 292.87 199.81 284.87 205.11 282.443 206.493 280.65 208.767 279.87 211.45 277.66 219.43 274.77 231.94 274.8 233.6Z" opacity="0.3"/><path d="M308.5 171.64 308.5 171.64 349.5 184.41C346.82 191.91 345.9 195.82 343.43 199.68 340.96 203.54 338.22 207.68 326.91 212.1 316.01 216.37 302.78 220.6 300.12 221.6 298.12 222.35 296.88 226.13 295.58 231.05 294.23 236.21 293.8 240.31 287.69 250.86 281.69 261.2 280.48 263.44 280.48 263.44 280.48 263.44 272.56 263.59 267.73 258.57 267.73 258.57 277.95 222.26 280.03 215.74 281.19 212.1 281.37 210.15 286.32 206.46 290.57 203.29 309.32 191.46 309.32 191.46 309.32 191.46 303.12 181.42 308.5 171.64Z" fill="#407BFF"/><path d="M308.5 171.64 308.5 171.64 349.5 184.41C346.82 191.91 345.9 195.82 343.43 199.68 340.96 203.54 338.22 207.68 326.91 212.1 316.01 216.37 302.78 220.6 300.12 221.6 298.12 222.35 296.88 226.13 295.58 231.05 294.23 236.21 293.8 240.31 287.69 250.86 281.69 261.2 280.48 263.44 280.48 263.44 280.48 263.44 272.56 263.59 267.73 258.57 267.73 258.57 277.95 222.26 280.03 215.74 281.19 212.1 281.37 210.15 286.32 206.46 290.57 203.29 309.32 191.46 309.32 191.46 309.32 191.46 303.12 181.42 308.5 171.64Z" opacity="0.3"/><path d="M310.63 115C309.84 114.53 309.49 109.26 310.33 105.5 311.17 101.74 309.43 100.82 308.57 102 308.075 102.652 307.714 103.397 307.51 104.19 305.672 104.604 303.979 105.505 302.61 106.8 300.5 108.89 298.02 111.44 298.75 117.01 298.981 118.864 298.852 120.745 298.37 122.55 295.37 130.73 284.71 140.97 282.31 151.88 280.09 161.88 287.92 162.88 294.76 159.88 302.62 156.35 317.68 142.98 317.68 142.98L324.21 121.07C320.06 121.07 316.97 121.74 311.46 127.07 310.54 127.96 306.71 131.23 306.71 131.23 307.768 128.55 309.081 125.979 310.63 123.55" fill="#B16668"/><path d="M301.15 145.61C300.03 148.138 298.691 150.564 297.15 152.86 299.389 151.381 301.167 149.302 302.28 146.86Z" fill="#9A4A4D"/><path d="M325.11 121.06C320.61 120.64 316.97 121.34 313.44 124.75 310.19 127.9 306.71 131.22 306.71 131.22 304.38 136.64 302.71 141.9 301.15 145.61 301.921 148.519 303.351 151.212 305.33 153.48L323.57 138.83Z" fill="#FAFAFA"/><path d="M308.25 121.07C309.51 119.07 307.66 117.13 307.66 117.13L310.66 115.13 310.66 115 310.66 115 298.66 114.46C298.62 115.318 298.657 116.178 298.77 117.03 298.86 117.894 298.89 118.762 298.86 119.63L300.42 120.56C300.769 120.75 301.191 120.75 301.54 120.56L306.59 117.95C308.32 118.68 308.25 121.07 308.25 121.07Z" fill="#9A4A4D"/><path d="M298.57 104.36 319.57 94.45C319.935 94.2371 320.385 94.2371 320.75 94.45 321.01 94.62 322.09 95.29 322.39 95.45 322.734 95.663 322.937 96.0454 322.92 96.45L323.6 107.32C323.604 108.32 323.048 109.239 322.16 109.7L301.16 119.61C300.811 119.785 300.399 119.785 300.05 119.61 299.75 119.44 298.58 118.72 298.27 118.52 297.984 118.3 297.815 117.961 297.81 117.6 297.64 114.87 297.3 109.46 297.13 106.73 297.128 105.732 297.684 104.818 298.57 104.36Z" fill="#37474F"/><path d="M322.15 107.57C322.125 108.062 321.854 108.509 321.43 108.76L301.56 118.15 301.56 118.63 300.75 107.06C300.773 106.575 301.04 106.134 301.46 105.89L321.78 96.26 321.78 96.26 321.34 96.47Z" fill="#407BFF"/><path d="M322.15 107.57C322.125 108.062 321.854 108.509 321.43 108.76L301.56 118.15 301.56 118.63 300.75 107.06C300.773 106.575 301.04 106.134 301.46 105.89L321.78 96.26 321.78 96.26 321.34 96.47Z" fill="#FFFFFF" opacity="0.75"/><path d="M322.64 107.84C322.61 108.328 322.34 108.77 321.92 109.02L301.59 118.63 301.59 118.15 321.46 108.76C321.884 108.509 322.155 108.062 322.18 107.57L321.4 96.48 321.84 96.27Z" fill="#263238"/><path d="M300.11 119.65 300.05 119.65C299.75 119.48 298.58 118.76 298.27 118.56 297.984 118.34 297.815 118.001 297.81 117.64 297.64 114.91 297.3 109.5 297.13 106.77 297.123 106.085 297.385 105.424 297.86 104.93L299.57 105.93C299.088 106.425 298.822 107.09 298.83 107.78L299.51 118.66C299.508 119.076 299.74 119.459 300.11 119.65Z" fill="#263238"/><path d="M322.4 95.45C322.059 95.2865 321.661 95.2865 321.32 95.45L300.32 105.37C300.051 105.495 299.81 105.671 299.61 105.89L297.89 104.89C298.095 104.667 298.339 104.484 298.61 104.35L319.61 94.44C319.974 94.2389 320.416 94.2389 320.78 94.44 321 94.62 322 95.24 322.4 95.45Z" fill="#455A64"/><path d="M300.28 112.3C300.02 112.44 299.861 112.715 299.87 113.01 299.857 113.175 299.98 113.32 300.146 113.333 300.215 113.338 300.283 113.319 300.34 113.28 300.597 113.137 300.754 112.864 300.75 112.57 300.763 112.405 300.64 112.26 300.474 112.247 300.405 112.242 300.337 112.261 300.28 112.3Z" opacity="0.35"/><path d="M311 115C311.63 114.48 311.86 112.85 312.93 111.38 314.17 109.69 317.03 110.13 316.14 111.5 315.25 112.87 314.94 114.11 314.29 117.6 313.64 121.09 312.24 121.6 310.68 123.6L310.68 115.19Z" fill="#B16668"/><path d="M339.91 122.73C343.36 123.64 354.51 128.04 354.51 128.04 356.91 129.92 355.9 134.04 355.86 138.77 354.93 173.07 348.99 188.35 348.99 188.35 335.57 191.29 311.06 182.76 306.5 172.52 310.6 166.29 313.36 156.98 313.94 138.7 314.37 125.13 320.54 121.03 324.54 121.06 329.711 121.011 334.87 121.572 339.91 122.73Z" fill="#EBEBEB"/><path d="M322.81 94.51C323.01 93.7225 323.01 92.8975 322.81 92.11 322.57 91.26 322.25 90.44 322.04 89.59 321.77 88.44 321.46 87.29 321.12 86.16 320.5 84.5998 320.123 82.9542 320 81.28 319.974 80.4746 320.273 79.6925 320.83 79.11 321.649 78.4443 322.758 78.2582 323.75 78.62 324.72 78.9909 325.617 79.529 326.4 80.21 326.34 78.9808 326.692 77.7667 327.4 76.76 328.146 75.7576 329.407 75.2811 330.63 75.54 331.75 75.85 332.52 76.86 333.42 77.6 335.06 78.95 337.22 79.43 339.28 79.96 341.428 80.3461 343.462 81.2108 345.23 82.49 347.375 84.1928 348.662 86.7528 348.75 89.49 348.75 90.49 348.33 92.96 348.17 94.28 347.92 96.28 347.71 98.28 347.39 100.21 345.75 110.21 342.48 117.47 332.39 116.73 328.55 116.44 323.19 114.06 322.19 109.88 322.072 109.156 322.008 108.424 322 107.69 321.9 106.22 321.86 104.69 321.89 103.27 321.953 100.329 322.26 97.3993 322.81 94.51Z" fill="#263238"/><path d="M348.79 89.52C348.79 89.52 350.73 89.59 351.79 92.12 352.68 94.32 353.09 97.79 350.93 103.12 348.65 108.77 346.86 110.54 345.62 112.64 344.73 114.15 343.31 116.99 343.31 116.99L343.94 110.35 344.51 105.74C344.51 105.74 341.67 105.09 340.85 100.48 339.92 95.3 340.9 94.65 340.9 94.65Z" fill="#455A64"/><path d="M344.27 105.2C344.624 105.359 345.033 105.329 345.36 105.12 346.28 104.58 346.71 103.42 347.49 102.72 348.49 101.81 351.65 100.72 352.94 104.02 354.23 107.32 350.99 111.66 348.63 112.56 345.16 113.88 343.9 110.39 343.9 110.39L342.56 124.39C338.56 130.51 334.27 131 330.17 130.71 326.07 130.42 326.38 126.61 329.01 123.99L329.36 119.43C327.488 119.587 325.604 119.547 323.74 119.31 320.74 118.61 319.29 116.2 318.61 112.82 317.926 108.902 317.765 104.91 318.13 100.95 318.494 97.2889 319.265 93.6799 320.43 90.19 320.43 90.19 322.17 88.61 327.22 88.53 330.79 88.53 335.29 88.23 337.16 90.47 337.426 92.5039 338.883 94.1814 340.86 94.73 339.78 101.89 343.67 104.94 344.27 105.2Z" fill="#B16668"/><path d="M337.29 91.05C336.55 89.69 333.92 89.05 332.4 89.27 330.293 89.715 328.231 90.351 326.24 91.17 324.752 91.6753 323.192 91.9354 321.62 91.94 320.114 91.969 318.627 91.5888 317.32 90.84 316.128 89.9179 315.415 88.507 315.38 87 315.345 85.5069 315.98 84.0764 317.11 83.1 317.139 83.7926 317.515 84.4239 318.11 84.78 318.696 85.1223 319.335 85.3656 320 85.5 318.987 84.6368 318.511 83.2992 318.75 81.99 319.14 80.5049 320.202 79.2876 321.62 78.7 322.82 78.36 324.21 78 326.87 80.2 329.53 82.4 338.57 83.72 337.29 91.05Z" fill="#263238"/><path d="M329.36 119.39C329.36 119.39 336.27 118.52 338.74 117.39 340.193 116.766 341.426 115.721 342.28 114.39 341.815 115.756 341.081 117.014 340.12 118.09 338.22 120.19 329.22 121.17 329.22 121.17Z" fill="#9A4A4D"/><path d="M332.21 101.71C332.184 102.466 332.777 103.1 333.533 103.126 334.289 103.151 334.923 102.559 334.948 101.803 334.973 101.068 334.413 100.444 333.68 100.39 332.91 100.35 332.253 100.94 332.21 101.71Z" fill="#263238"/><path d="M333.1 96.65 336 98.23C336.425 97.3915 336.111 96.3671 335.29 95.91 334.484 95.5085 333.506 95.8361 333.104 96.6418 333.103 96.6445 333.101 96.6473 333.1 96.65Z" fill="#263238"/><path d="M332.47 110.26 326.6 112C326.989 113.611 328.61 114.601 330.221 114.211 330.261 114.202 330.3 114.191 330.34 114.18 331.994 113.665 332.938 111.928 332.47 110.26Z" fill="#9A4A4D"/><path d="M330.34 114.16C329.82 114.303 329.27 114.303 328.75 114.16 328.913 112.681 330.215 111.594 331.7 111.7 331.964 111.715 332.224 111.772 332.47 111.87 332.216 112.957 331.406 113.828 330.34 114.16Z" fill="#F28F8F"/><path d="M320 97 323.24 96C323.03 95.1359 322.16 94.6056 321.296 94.8155 321.277 94.82 321.258 94.8248 321.24 94.83 320.299 95.0881 319.745 96.0586 320 97Z" fill="#263238"/><path d="M321 100.84C320.92 101.598 321.47 102.277 322.228 102.357 322.239 102.358 322.249 102.359 322.26 102.36 323.039 102.446 323.741 101.884 323.827 101.104 323.913 100.325 323.351 99.6232 322.572 99.5371 321.792 99.4511 321.09 100.013 321.004 100.793 321.003 100.808 321.001 100.824 321 100.84Z" fill="#263238"/><path d="M328.15 99.25 327.16 108.49 322.53 106.52 328.15 99.25Z" fill="#9A4A4D"/></g><path d="M332.21 276.93 332.21 229.65C332.415 226.19 334.238 223.03 337.13 221.12L382.76 194.79C384.312 193.888 384.839 191.899 383.937 190.347 383.654 189.859 383.248 189.454 382.76 189.17L381.64 188.53 385.51 163.2C386.176 159.723 388.221 156.664 391.18 154.72L395.18 152.41C397.89 150.84 400.1 152.12 400.1 155.25L400.1 178 400 237.86C399.808 241.321 397.981 244.484 395.08 246.38L337.08 279.77C334.43 281.33 332.21 280.05 332.21 276.93Z" fill="#263238"/><path d="M318.37 221.65 318.37 268.93C318.37 269.03 318.37 269.15 318.37 269.25 318.666 272.573 320.454 275.581 323.23 277.43L323.28 277.43 327.28 279.73C327.397 279.808 327.521 279.875 327.65 279.93L327.86 280.03 327.92 280.03C328.045 280.091 328.176 280.141 328.31 280.18 330.638 281.03 333.179 281.101 335.55 280.38 335.842 280.293 336.129 280.19 336.41 280.07 334.04 281.07 332.21 279.71 332.2 276.88L332.2 276.88 332.2 229.65C332.394 226.187 334.22 223.022 337.12 221.12L346.06 215.96 382.75 194.79C384.302 193.888 384.829 191.899 383.927 190.347 383.644 189.859 383.238 189.454 382.75 189.17L378.68 186.82C375.585 185.26 371.935 185.26 368.84 186.82L332.21 208 323.29 213.15C320.394 215.042 318.568 218.196 318.37 221.65Z" fill="#455A64"/><path d="M332.21 229.65 332.21 276.92 332.21 276.92C332.21 279.75 334.05 281.08 336.42 280.11 336.139 280.23 335.852 280.333 335.56 280.42 333.189 281.141 330.648 281.07 328.32 280.22 328.186 280.181 328.055 280.131 327.93 280.07L327.87 280.07 327.66 279.97C327.531 279.915 327.407 279.848 327.29 279.77L323.29 277.47 323.24 277.47C320.464 275.621 318.676 272.613 318.38 269.29 318.38 269.19 318.38 269.07 318.38 268.97L318.38 221.65C318.44 219.937 318.936 218.268 319.82 216.8L333.67 224.8C332.775 226.265 332.272 227.935 332.21 229.65Z" fill="#37474F"/><g id="freepik--arm--inject-4"><path d="M372.87 176C371.54 165.58 370.43 160.16 369.06 153.17 365.87 136.95 366.62 132.29 354.89 129.24 354.89 129.24 350.64 132.98 350.46 142.58 350.33 149.83 352.46 153.82 352.46 153.82L357.46 177.82C353.13 181.82 342.03 190.54 339.32 191.97 335.67 193.91 331.62 194.66 327.72 195.97 325.13 196.86 322.72 197.97 320.18 199.03 320.039 199.071 319.91 199.143 319.8 199.24 319.588 199.461 319.526 199.786 319.64 200.07 319.762 200.346 319.964 200.58 320.22 200.74 321.458 201.564 323.007 201.774 324.42 201.31 325.61 201.04 326.63 200.41 328.04 200.45 328.31 200.45 328.6 200.53 328.49 200.87 328.381 201.105 328.236 201.321 328.06 201.51 326.907 202.433 325.56 203.083 324.12 203.41 322.753 203.795 321.34 203.996 319.92 204.01 318.775 203.971 317.629 204.048 316.5 204.24 316.14 204.311 315.799 204.458 315.5 204.67 313.95 205.88 316.41 206.81 316.91 207.67 317.17 208.11 317.63 208.89 317.91 209.3 318.25 209.637 318.66 209.896 319.11 210.06 319.67 210.414 320.207 210.801 320.72 211.22 322.049 212.036 323.592 212.436 325.15 212.37 326.472 212.338 327.79 212.201 329.09 211.96 331.832 211.615 334.446 210.598 336.7 209 337.628 208.265 338.497 207.459 339.3 206.59 340 205.86 340.69 205.11 341.44 204.41 342.672 203.364 343.961 202.386 345.3 201.48 347.25 200.35 358.43 195.06 369.64 187.24 374.56 183.79 373.46 180.56 372.87 176Z" fill="#B16668"/><path d="M354.51 128C362.82 130.7 365.08 134.21 365.87 136.87 367.02 140.7 367.87 145.07 369.25 151.54 371.25 161.22 371.61 165.05 371.61 165.05 371.61 165.05 367.03 168.76 355.13 168.61L351.13 152.87C351.13 152.87 345.34 139.1 354.51 128Z" fill="#FAFAFA"/></g></g></g><g id="freepik--side-table--inject-4"><g id="freepik--side-table--inject-4"><g id="freepik--side-table--inject-4"><path d="M366.64 284.72 373.01 281.04 366.64 279.2 366.64 284.72Z" fill="#407BFF"/><path d="M366.64 284.72 373.01 281.04 366.64 279.2 366.64 284.72Z" fill="#FFFFFF" opacity="0.6"/><path d="M366.64 284.72 373.01 281.04 366.64 279.2 366.64 284.72Z" opacity="0.05"/><path d="M366.64 284.72 363.45 282.88 363.45 277.36 366.64 279.2 366.64 284.72Z" fill="#407BFF"/><path d="M366.64 284.72 363.45 282.88 363.45 277.36 366.64 279.2 366.64 284.72Z" fill="#FFFFFF" opacity="0.75"/><path d="M398.56 297.63 398.56 303.5 444.66 276.89 444.66 271.02 398.56 297.63Z" fill="#407BFF"/><path d="M398.56 297.63 398.56 303.5 444.66 276.89 444.66 271.02 398.56 297.63Z" fill="#FFFFFF" opacity="0.6"/><path d="M398.56 297.63 398.56 303.5 444.66 276.89 444.66 271.02 398.56 297.63Z" opacity="0.1"/><path d="M398.56 303.5 395.37 301.66 395.37 295.79 398.56 297.63 398.56 303.5Z" fill="#407BFF"/><path d="M398.56 303.5 395.37 301.66 395.37 295.79 398.56 297.63 398.56 303.5Z" fill="#FFFFFF" opacity="0.75"/><path d="M447.85 225.03 401.74 251.64 401.74 299.47 447.85 272.86 447.85 225.03Z" fill="#407BFF"/><path d="M447.85 225.03 401.74 251.64 401.74 299.47 447.85 272.86 447.85 225.03Z" fill="#FFFFFF" opacity="0.6"/><path d="M401.74 251.64 360.26 227.69 360.26 275.52 401.74 299.47 401.74 251.64Z" fill="#407BFF"/><path d="M401.74 251.64 360.26 227.69 360.26 275.52 401.74 299.47 401.74 251.64Z" fill="#FFFFFF" opacity="0.75"/><path d="M360.26 227.69 406.37 201.08 447.85 225.03 401.74 251.64 360.26 227.69Z" fill="#407BFF"/><path d="M360.26 227.69 406.37 201.08 447.85 225.03 401.74 251.64 360.26 227.69Z" fill="#FFFFFF" opacity="0.85"/><path d="M398.56 268.2 363.45 247.93 363.45 273.68 398.56 293.95 398.56 268.2Z" fill="#407BFF"/><path d="M398.56 268.2 363.45 247.93 363.45 273.68 398.56 293.95 398.56 268.2Z" fill="#FFFFFF" opacity="0.7"/><path d="M363.45 273.68 385.6 260.72 398.56 268.2 398.56 293.95 363.45 273.68Z" opacity="0.1"/><path d="M363.45 273.68 385.6 260.72 363.45 247.93 363.45 273.68Z" opacity="0.05"/><path d="M398.56 253.48 363.45 233.21 363.45 244.25 398.56 264.52 398.56 253.48Z" fill="#407BFF"/><path d="M398.56 253.48 363.45 233.21 363.45 244.25 398.56 264.52 398.56 253.48Z" fill="#FFFFFF" opacity="0.85"/><path d="M387.67 249.52C387.67 250.03 386.15 249.52 384.28 248.52L378.33 245C376.45 243.92 374.93 242.63 374.93 242.12L374.93 241.2 387.67 248.56Z" fill="#455A64"/></g><g id="freepik--shadow--inject-4" opacity="0.1"><path d="M424.83 231.29C427.884 231.356 430.892 230.536 433.49 228.93 435.49 227.59 436.62 225.93 436.62 224.2 436.62 222.47 435.51 220.81 433.49 219.47 428.142 216.324 421.508 216.324 416.16 219.47 414.16 220.81 413.03 222.47 413.03 224.2 413.03 225.93 414.14 227.59 416.16 228.93 418.761 230.538 421.773 231.357 424.83 231.29Z" id="freepik--shadow--inject-4"/></g><g id="freepik--Lamp--inject-4"><path d="M417.08 223.63C417.08 223.425 417.1 223.221 417.14 223.02 417.641 220.756 418.976 218.764 420.88 217.44L428.71 217.44C430.614 218.764 431.949 220.756 432.45 223.02 432.49 223.224 432.51 223.432 432.51 223.64 432.51 223.64 432.51 223.74 432.51 223.74 432.314 225.056 431.468 226.184 430.26 226.74 426.832 228.481 422.778 228.481 419.35 226.74 418.142 226.184 417.296 225.056 417.1 223.74 417.091 223.704 417.085 223.667 417.08 223.63Z" fill="#37474F"/><path d="M428.5 217.31C430.55 218.5 430.55 220.41 428.5 221.6 426.167 222.78 423.413 222.78 421.08 221.6 419.08 220.41 419.08 218.5 421.08 217.31 423.413 216.13 426.167 216.13 428.5 217.31Z" fill="#455A64"/><path d="M423.73 191.21 425.86 191.21 425.86 218.64 425.86 218.64C425.875 218.848 425.754 219.042 425.56 219.12 425.085 219.361 424.525 219.361 424.05 219.12 423.856 219.042 423.735 218.848 423.75 218.64L423.75 218.64Z" fill="#263238"/><path d="M409.06 187.1 409.06 187.1 416.47 168.21 433.13 168.21 440.54 187.1 440.54 187.1C441.59 190.1 440.14 193.25 436.17 195.55 429.89 199.17 419.72 199.17 413.44 195.55 409.46 193.25 408 190.06 409.06 187.1Z" fill="#407BFF"/><path d="M430.82 172.73C427.033 174.651 422.557 174.651 418.77 172.73 415.44 170.81 415.44 167.73 418.77 165.73 422.557 163.809 427.033 163.809 430.82 165.73 434.15 167.69 434.15 170.81 430.82 172.73Z" fill="#407BFF"/><path d="M430.82 172.73C427.033 174.651 422.557 174.651 418.77 172.73 415.44 170.81 415.44 167.73 418.77 165.73 422.557 163.809 427.033 163.809 430.82 165.73 434.15 167.69 434.15 170.81 430.82 172.73Z" fill="#FFFFFF" opacity="0.3"/><path d="M424.79 173.19C426.718 173.232 428.625 172.781 430.33 171.88 431.62 171.13 432.33 170.2 432.33 169.25 432.175 168.084 431.414 167.087 430.33 166.63 426.847 164.884 422.743 164.884 419.26 166.63 418.176 167.087 417.415 168.084 417.26 169.25 417.26 170.2 417.97 171.13 419.26 171.88 420.962 172.781 422.865 173.232 424.79 173.19Z" fill="#407BFF"/><path d="M424.79 173.19C426.718 173.232 428.625 172.781 430.33 171.88 431.62 171.13 432.33 170.2 432.33 169.25 432.175 168.084 431.414 167.087 430.33 166.63 426.847 164.884 422.743 164.884 419.26 166.63 418.176 167.087 417.415 168.084 417.26 169.25 417.26 170.2 417.97 171.13 419.26 171.88 420.962 172.781 422.865 173.232 424.79 173.19Z" opacity="0.15"/></g></g></g><g id="freepik--Icons--inject-4"><g id="freepik--call-icon--inject-4"><g id="freepik--Box--inject-4"><path d="M450.49 100.66 419.13 82.55C418.592 82.157 417.881 82.0917 417.28 82.38L413.28 84.71C412.734 85.0901 412.438 85.7382 412.51 86.4L412.51 132C412.609 133.829 413.575 135.501 415.11 136.5L446.47 154.61C447.01 154.999 447.718 155.064 448.32 154.78L452.37 152.44C452.909 152.059 453.2 151.416 453.13 150.76L453.13 105.16C453.024 103.323 452.041 101.649 450.49 100.66Z" fill="#455A64"/><path d="M453.09 105.16 453.09 150.75C453.157 151.409 452.868 152.053 452.33 152.44L448.4 154.7C448.852 154.297 449.086 153.703 449.03 153.1L449.03 107.5C448.997 106.596 448.736 105.715 448.27 104.94L452.33 102.6C452.798 103.374 453.06 104.256 453.09 105.16Z" fill="#263238"/><path d="M415.07 136.49 446.43 154.6C447.87 155.42 449.03 154.75 449.03 153.1L449.03 107.51C448.936 105.68 447.969 104.006 446.43 103.01L415.07 84.9C413.63 84.07 412.47 84.74 412.47 86.4L412.47 132C412.577 133.824 413.541 135.489 415.07 136.49Z" fill="#455A64"/><path d="M452.33 102.6 448.27 104.94C447.83 104.149 447.197 103.482 446.43 103L415.07 84.9C414.569 84.5471 413.93 84.4542 413.35 84.65 414.08 84.23 416.85 82.65 417.28 82.38 417.883 82.0968 418.593 82.1659 419.13 82.56L450.49 100.66C451.261 101.136 451.895 101.805 452.33 102.6Z" fill="#37474F"/></g><g id="freepik--call-icon--inject-4"><g id="freepik--g4780--inject-4"><g id="freepik--g15--inject-4"><path d="M439.34 132.2C438.65 130.95 437.91 129.75 437.18 128.55 435.74 126.15 434.41 125.26 433.33 127.16 432.694 128.063 431.446 128.279 430.543 127.643 430.356 127.511 430.192 127.348 430.06 127.16 427.453 123.817 425.595 119.953 424.61 115.83 424.12 113.83 425.05 111.83 426.19 111.28 427.039 110.964 427.534 110.079 427.36 109.19 427.3 107.34 424.45 99.65 423.36 98.37 423.03 97.9112 422.522 97.6133 421.96 97.55 419.32 97.4 416.16 100.68 417.21 105.24 420.33 118.85 422.91 126.01 431.62 137.38 435.33 142.26 440.09 139.58 440.94 137.67 441.5 135.55 440.32 133.9 439.38 132.19Z" id="freepik--path17-6--inject-4" fill="#FAFAFA"/><path d="M432.49 102.78C438.02 107.29 440.57 112.78 441.28 121.78 441.34 122.61 441.15 123.69 441.89 124.14 442.63 124.59 442.47 123.32 442.48 122.53 442.34 113.31 438.6 104.77 432.65 101.01 432.29 100.79 431.42 99.87 431.37 101.22 431.37 102.14 432.03 102.39 432.49 102.76Z" id="freepik--path19-1--inject-4" fill="#FAFAFA"/><path d="M432.77 106.2C432.24 105.8 431.53 105 431.41 106.07 431.29 107.14 432.06 107.52 432.57 107.98 435.98 111.13 437.17 113.73 437.74 119.28 437.82 120.09 437.65 121.18 438.49 121.46 439.12 121.68 438.89 120.53 438.94 119.97 438.94 114.97 436.18 108.8 432.77 106.2Z" id="freepik--path21-2--inject-4" fill="#FAFAFA"/><path d="M432.25 110.73C431.89 110.54 431.55 110.39 431.42 110.9 431.27 111.502 431.524 112.132 432.05 112.46 433.503 113.748 434.334 115.598 434.33 117.54 434.33 118.15 434.61 118.76 434.98 118.91 435.35 119.06 435.53 118.44 435.51 117.77 435.51 115.36 433.76 111.54 432.25 110.77Z" id="freepik--path23--inject-4" fill="#FAFAFA"/></g></g></g></g><g id="freepik--Gears--inject-4"><path d="M452.06 81.28 450.27 77.28C450.073 76.9314 449.757 76.6652 449.38 76.53 448.911 76.3761 448.453 76.189 448.01 75.97 447.93 75.9361 447.84 75.9361 447.76 75.97 447.69 75.9973 447.638 76.057 447.62 76.13L446.72 78.53C446.602 78.8756 446.322 79.1411 445.97 79.24 445.609 79.321 445.232 79.2116 444.97 78.95L441.87 76.16C441.369 75.677 441.116 74.9926 441.18 74.3L441.58 71.2C441.608 70.7788 441.496 70.3601 441.26 70.01 440.77 69.33 440.26 68.61 439.85 67.86 439.651 67.5667 439.333 67.3764 438.98 67.34L436.86 67.34C436.147 67.3065 435.518 66.8615 435.25 66.2L433.56 61.63C433.447 61.3027 433.465 60.9444 433.61 60.63 433.758 60.302 434.038 60.0515 434.38 59.94L436.13 59.33C436.359 59.2232 436.492 58.9805 436.46 58.73 436.35 57.99 436.27 57.25 436.23 56.54 436.195 56.1096 436.028 55.7007 435.75 55.37L433 52.36C432.534 51.8376 432.345 51.1247 432.49 50.44L433.24 47.31C433.323 46.7641 433.834 46.3891 434.38 46.4725 434.574 46.5021 434.755 46.5882 434.9 46.72L437.68 48.82C437.845 48.9305 438.069 48.8862 438.179 48.7209 438.18 48.7206 438.18 48.7203 438.18 48.72 438.379 48.4647 438.6 48.2271 438.84 48.01 439.069 47.7862 439.176 47.4666 439.13 47.15L438 43.06C437.898 42.7234 437.946 42.3594 438.13 42.06 438.327 41.7583 438.644 41.5547 439 41.5L441.22 41.16C441.938 41.0704 442.634 41.4484 442.95 42.1L444.74 46.1C444.935 46.4462 445.247 46.712 445.62 46.85 446.093 47.0021 446.555 47.1893 447 47.41 447.08 47.4439 447.17 47.4439 447.25 47.41 447.316 47.3771 447.366 47.3197 447.39 47.25L448.29 44.85C448.408 44.5044 448.688 44.2389 449.04 44.14 449.401 44.0609 449.777 44.1701 450.04 44.43L453.14 47.22C453.641 47.703 453.894 48.3874 453.83 49.08L453.43 52.18C453.401 52.6012 453.514 53.0199 453.75 53.37 454.24 54.05 454.75 54.77 455.16 55.52 455.357 55.8154 455.677 56.0064 456.03 56.04L458.15 56.04C458.863 56.0735 459.492 56.5185 459.76 57.18L461.45 61.75C461.579 62.0708 461.579 62.4292 461.45 62.75 461.299 63.0758 461.02 63.3253 460.68 63.44L458.93 64.05C458.699 64.1561 458.562 64.3977 458.59 64.65 458.709 65.3749 458.786 66.1062 458.82 66.84 458.864 67.2682 459.03 67.6745 459.3 68.01L461.93 71C462.386 71.5277 462.574 72.2356 462.44 72.92L461.69 76C461.629 76.3613 461.376 76.6605 461.03 76.78 460.686 76.8913 460.309 76.8197 460.03 76.59L457.26 74.49C457.093 74.3848 456.873 74.4288 456.76 74.59 456.558 74.8431 456.338 75.0804 456.1 75.3 455.871 75.5238 455.764 75.8434 455.81 76.16L457 80.29C457.102 80.6266 457.054 80.9906 456.87 81.29 456.673 81.5917 456.356 81.7953 456 81.85L453.78 82.19 453.56 82.19C452.931 82.1858 452.354 81.8363 452.06 81.28ZM457.84 73.75 460.62 75.85 460.7 75.9C460.7 75.9 460.7 75.9 460.7 75.8L461.46 72.68C461.512 72.3237 461.415 71.9615 461.19 71.68L458.46 68.82C458.025 68.3152 457.762 67.6846 457.71 67.02 457.679 66.3195 457.606 65.6216 457.49 64.93 457.385 64.2065 457.803 63.5087 458.49 63.26L460.24 62.64C460.33 62.6123 460.403 62.5465 460.44 62.46 460.48 62.371 460.48 62.269 460.44 62.18L458.76 57.61C458.623 57.3339 458.356 57.1457 458.05 57.11L455.94 57.11C455.242 57.0715 454.606 56.6992 454.23 56.11 453.825 55.3832 453.381 54.6789 452.9 54 452.525 53.4407 452.349 52.7715 452.4 52.1L452.8 49C452.822 48.6297 452.687 48.2671 452.43 48L449.33 45.21C449.27 45.16 449.24 45.15 449.23 45.15 449.204 45.1796 449.184 45.2135 449.17 45.25L448.27 47.65C448.155 47.9787 447.904 48.2415 447.58 48.37 447.247 48.5241 446.863 48.5241 446.53 48.37 446.123 48.1762 445.706 48.0059 445.28 47.86 444.638 47.6433 444.107 47.1838 443.8 46.58L442 42.47C441.866 42.2231 441.6 42.078 441.32 42.1L439.1 42.44C439.024 42.4548 438.956 42.4976 438.91 42.56 438.879 42.63 438.879 42.71 438.91 42.78L440.13 46.87C440.289 47.5474 440.071 48.2581 439.56 48.73 439.361 48.9177 439.173 49.1181 439 49.33 438.563 49.9203 437.73 50.0444 437.14 49.6072 437.136 49.6048 437.133 49.6024 437.13 49.6L434.36 47.5 434.28 47.5C434.274 47.5331 434.274 47.5669 434.28 47.6L433.52 50.72 433.52 50.72C433.468 51.0763 433.565 51.4385 433.79 51.72L436.52 54.58C436.955 55.0848 437.218 55.7154 437.27 56.38 437.3 57.0805 437.374 57.7785 437.49 58.47 437.591 59.1927 437.175 59.8881 436.49 60.14L434.74 60.76C434.65 60.7877 434.577 60.8535 434.54 60.94 434.5 61.029 434.5 61.131 434.54 61.22L436.22 65.78C436.35 66.0638 436.62 66.2579 436.93 66.29L439.04 66.29C439.737 66.3318 440.372 66.7032 440.75 67.29 441.166 68.0038 441.62 68.6948 442.11 69.36 442.485 69.9193 442.661 70.5885 442.61 71.26L442.21 74.36C442.188 74.7303 442.323 75.0929 442.58 75.36L445.68 78.15C445.705 78.1772 445.735 78.1978 445.77 78.21 445.77 78.21 445.77 78.21 445.83 78.11L446.74 75.71C446.851 75.3791 447.104 75.1151 447.43 74.99 447.755 74.8628 448.119 74.881 448.43 75.04 448.841 75.2322 449.261 75.4024 449.69 75.55 450.33 75.7695 450.86 76.2282 451.17 76.83L452.96 80.83C453.094 81.0769 453.36 81.222 453.64 81.2L455.86 80.86C455.997 80.8474 456.099 80.7257 456.086 80.5882 456.084 80.5648 456.079 80.5419 456.07 80.52L454.85 76.43C454.691 75.7526 454.909 75.0419 455.42 74.57 455.627 74.3948 455.821 74.2043 456 74 456.262 73.6698 456.659 73.4751 457.08 73.47 457.357 73.4779 457.624 73.5762 457.84 73.75ZM445.55 68.75 445.55 68.75C442.07 65.63 439.99 59.96 440.91 56.12 441.164 54.5778 442.231 53.2928 443.7 52.76 445.4 52.23 447.48 52.93 449.42 54.68 452.9 57.8 454.98 63.47 454.06 67.31 453.806 68.8522 452.739 70.1372 451.27 70.67 450.894 70.7823 450.503 70.8396 450.11 70.84 448.38 70.7134 446.757 69.9553 445.55 68.71ZM443.99 53.75C442.852 54.18 442.04 55.1958 441.87 56.4 441 59.83 443 65.07 446.2 68 447.88 69.51 449.62 70.13 450.98 69.71 452.135 69.27 452.951 68.2267 453.1 67 453.95 63.48 452 58.24 448.76 55.33 447.728 54.2675 446.346 53.614 444.87 53.49 444.573 53.5008 444.279 53.5581 444 53.66Z" fill="#407BFF"/><path d="M423.8 71 422.51 68.09C422.382 67.8624 422.176 67.6885 421.93 67.6 421.589 67.4831 421.255 67.3462 420.93 67.19 420.93 67.19 420.85 67.19 420.77 67.19L420.12 69C419.997 69.43 419.548 69.6785 419.118 69.5551 418.977 69.5147 418.85 69.4369 418.75 69.33L416.52 67.33C416.146 66.9644 415.956 66.4509 416 65.93L416.29 63.7C416.297 63.4207 416.22 63.1457 416.07 62.91 415.71 62.41 415.37 61.91 415.07 61.36 414.941 61.1761 414.742 61.0532 414.52 61.02L413 61C412.454 60.97 411.975 60.627 411.77 60.12L410.56 56.84C410.449 56.5849 410.449 56.2951 410.56 56.04 410.675 55.7837 410.893 55.5877 411.16 55.5L412.42 55.06C412.552 55.0021 412.626 54.8614 412.6 54.72 412.518 54.1966 412.465 53.6692 412.44 53.14 412.416 52.8533 412.304 52.5809 412.12 52.36L410.12 50.36C409.775 49.9578 409.635 49.4192 409.74 48.9L410.28 46.66C410.351 46.2239 410.762 45.9281 411.198 45.9993 411.348 46.0237 411.487 46.0898 411.6 46.19L413.6 47.69C413.679 47.7407 413.784 47.7176 413.835 47.6386 413.837 47.6358 413.838 47.6329 413.84 47.63 413.991 47.4481 414.154 47.2777 414.33 47.12 414.474 46.9839 414.541 46.7855 414.51 46.59L413.64 43.65C413.56 43.3767 413.6 43.082 413.75 42.84 413.904 42.604 414.151 42.4442 414.43 42.4L416.02 42.16C416.573 42.0844 417.111 42.3757 417.35 42.88L418.64 45.79C418.768 46.0176 418.974 46.1915 419.22 46.28 419.561 46.3934 419.895 46.527 420.22 46.68 420.22 46.68 420.3 46.68 420.38 46.63L421.03 44.91C421.122 44.6372 421.343 44.4276 421.62 44.35 421.904 44.2887 422.199 44.3709 422.41 44.57L424.63 46.57C425.009 46.9323 425.2 47.4483 425.15 47.97L424.87 50.2C424.855 50.4789 424.929 50.7552 425.08 50.99 425.44 51.48 425.78 51.99 426.08 52.54 426.209 52.7239 426.408 52.8468 426.63 52.88L428.15 52.88C428.696 52.91 429.175 53.253 429.38 53.76L430.65 57C430.867 57.5079 430.631 58.0955 430.123 58.3125 430.09 58.3269 430.055 58.3394 430.02 58.35L428.76 58.79C428.631 58.8462 428.554 58.9802 428.57 59.12 428.66 59.6459 428.717 60.1769 428.74 60.71 428.77 60.9951 428.881 61.2657 429.06 61.49L431.06 63.49C431.403 63.8895 431.546 64.4226 431.45 64.94L430.91 67.19C430.849 67.4726 430.65 67.7056 430.38 67.81 430.105 67.8992 429.804 67.8427 429.58 67.66L427.58 66.16C427.49 66.08 427.38 66.16 427.34 66.22 427.19 66.402 427.026 66.5724 426.85 66.73 426.706 66.8661 426.639 67.0645 426.67 67.26L427.54 70.2C427.623 70.4719 427.587 70.7665 427.44 71.01 427.281 71.2446 427.031 71.4008 426.75 71.44L425.16 71.69 425 71.69C424.502 71.705 424.038 71.4381 423.8 71ZM428.08 65.49 430 67.05 430.54 64.8C430.574 64.5707 430.509 64.3377 430.36 64.16L428.41 62.1C428.082 61.7263 427.886 61.2558 427.85 60.76 427.825 60.2607 427.771 59.7633 427.69 59.27 427.615 58.7161 427.929 58.1828 428.45 57.98L429.71 57.54C429.754 57.5241 429.79 57.4918 429.81 57.45 429.825 57.408 429.825 57.362 429.81 57.32L428.62 54C428.538 53.8311 428.376 53.7147 428.19 53.69L426.68 53.69C426.154 53.656 425.675 53.3739 425.39 52.93 425.082 52.4197 424.749 51.9257 424.39 51.45 424.107 51.0333 423.976 50.5318 424.02 50.03L424.31 47.8C424.313 47.5641 424.227 47.3357 424.07 47.16L421.87 45.16 421.22 46.88C421.13 47.1417 420.928 47.3503 420.67 47.45 420.412 47.5642 420.118 47.5642 419.86 47.45 419.57 47.3146 419.273 47.1945 418.97 47.09 418.481 46.9182 418.082 46.5582 417.86 46.09L416.57 43.19C416.492 43.0443 416.335 42.9581 416.17 42.97L414.58 43.22 414.52 42.79 414.52 43.35 415.39 46.29C415.514 46.8063 415.349 47.349 414.96 47.71 414.819 47.8426 414.686 47.9828 414.56 48.13 414.246 48.5843 413.623 48.698 413.169 48.3839 413.149 48.37 413.129 48.3553 413.11 48.34L411.17 46.81 410.63 49.06 410.63 49.06C410.598 49.2891 410.663 49.5211 410.81 49.7L412.76 51.7C413.084 52.0798 413.28 52.5522 413.32 53.05 413.32 53.53 413.4 54.05 413.48 54.54 413.559 55.0947 413.243 55.6301 412.72 55.83L411.46 56.27C411.416 56.2859 411.38 56.3182 411.36 56.36 411.345 56.402 411.345 56.448 411.36 56.49L412.57 59.77C412.65 59.9389 412.814 60.0529 413 60.07L414.51 60.07C415.038 60.1071 415.519 60.3881 415.81 60.83 416.116 61.3411 416.45 61.8352 416.81 62.31 417.093 62.7267 417.224 63.2282 417.18 63.73L416.86 66C416.857 66.2359 416.943 66.4643 417.1 66.64L419.31 68.64 420 67C420.097 66.7424 420.296 66.5362 420.55 66.43 420.811 66.3128 421.109 66.3128 421.37 66.43 421.656 66.567 421.95 66.6872 422.25 66.79 422.739 66.9618 423.138 67.3219 423.36 67.79L424.65 70.69C424.73 70.8339 424.886 70.9193 425.05 70.91L426.64 70.66 426.72 70.53 425.85 67.59C425.724 67.0737 425.889 66.5298 426.28 66.17 426.421 66.0374 426.554 65.8972 426.68 65.75 426.871 65.482 427.181 65.325 427.51 65.33 427.715 65.3334 427.914 65.3997 428.08 65.52ZM419.15 62 419.15 62C416.63 59.74 415.15 55.64 415.8 52.86 415.985 51.7227 416.774 50.7762 417.86 50.39 419.1 50 420.63 50.51 422.04 51.78 424.56 54.04 426.04 58.14 425.39 60.92 425.205 62.054 424.421 62.999 423.34 63.39 423.062 63.4779 422.772 63.5217 422.48 63.52 421.222 63.4355 420.038 62.8951 419.15 62ZM418.15 51.22C417.365 51.5217 416.805 52.2265 416.69 53.06 416.09 55.56 417.47 59.28 419.77 61.35L419.77 61.35C420.95 62.41 422.17 62.85 423.12 62.56 423.903 62.2548 424.461 61.5517 424.58 60.72 425.18 58.22 423.8 54.5 421.5 52.43 420.773 51.6813 419.8 51.2197 418.76 51.13 418.538 51.1386 418.318 51.1825 418.11 51.26Z" fill="#407BFF"/></g><g id="freepik--Wrench--inject-4"><path d="M396 122.58C395.221 122.562 394.461 122.334 393.8 121.92L393.53 121.75C393.214 121.521 393.116 121.094 393.3 120.75L395.8 115.75 394.52 111.53 392.23 110.18 390 114.72C389.915 114.899 389.726 115.003 389.53 114.98 389.08 114.98 388.74 114.22 388.63 113.79 388.277 112.459 388.098 111.087 388.1 109.71 388.1 106.34 389.35 104.02 391.34 103.53L391.34 78.53C389.266 75.6538 388.134 72.2057 388.1 68.66 388.1 65.81 389.01 63.66 390.55 62.8 391.751 62.1862 393.191 62.2822 394.3 63.05L394.57 63.22C394.875 63.4561 394.971 63.8744 394.8 64.22L392.3 69.22 393.58 73.44 395.87 74.79 398.14 70.23C398.225 70.0514 398.414 69.9467 398.61 69.97 399.06 69.97 399.4 70.73 399.51 71.17 399.858 72.4988 400.036 73.8664 400.04 75.24 400.04 78.61 398.79 80.93 396.8 81.42L396.8 106.42C398.87 109.298 400.001 112.745 400.04 116.29 400.04 119.14 399.13 121.29 397.59 122.15 397.108 122.433 396.559 122.582 396 122.58ZM392 109.11 395.23 111.02 396.69 115.8 394 121.08C394.052 121.161 394.125 121.226 394.21 121.27 395.085 121.906 396.242 122.003 397.21 121.52 398.49 120.79 399.21 118.84 399.28 116.3 399.241 112.882 398.137 109.561 396.12 106.8L396.04 106.69 396.04 80.83 396.36 80.83C398.12 80.58 399.26 78.42 399.28 75.32 399.272 74.0105 399.101 72.7071 398.77 71.44 398.734 71.2971 398.68 71.1594 398.61 71.03L396.17 75.93 392.94 74 391.49 69.22 394.12 63.93C394.071 63.8529 394.002 63.7906 393.92 63.75 393.045 63.1135 391.888 63.0171 390.92 63.5 389.64 64.23 388.86 66.18 388.85 68.72 388.881 72.132 389.982 75.4482 392 78.2L392.08 78.3 392.08 104.17 391.75 104.17C390 104.42 388.85 106.58 388.84 109.68L388.84 109.68C388.839 110.989 389.007 112.294 389.34 113.56 389.376 113.703 389.43 113.841 389.5 113.97Z" fill="#407BFF"/></g></g><g id="freepik--speech-bubbles--inject-4"><g id="freepik--speech-bubble--inject-4"><g id="freepik--speech-bubble--inject-4"><path d="M254.05 48.65 290.61 69.75C291.046 70.035 291.321 70.51 291.35 71.03L291.35 96.63C291.319 97.1468 291.044 97.6182 290.61 97.9L288 99.41C287.538 99.6451 286.992 99.6451 286.53 99.41L249.94 78.3C249.51 78.0106 249.24 77.5372 249.21 77.02L249.21 51.38C249.238 50.8648 249.514 50.3951 249.95 50.12L252.58 48.64C253.043 48.408 253.59 48.4117 254.05 48.65Z" fill="#407BFF"/><path d="M287.24 99 287.24 73.34C287.211 72.82 286.936 72.345 286.5 72.06L249.94 51C249.54 50.76 249.21 50.95 249.21 51.42L249.21 77C249.24 77.5172 249.51 77.9906 249.94 78.28L286.5 99.4C286.91 99.64 287.24 99.45 287.24 99Z" fill="#407BFF"/><path d="M287.24 99 287.24 73.34C287.211 72.82 286.936 72.345 286.5 72.06L249.94 51C249.54 50.76 249.21 50.95 249.21 51.42L249.21 77C249.24 77.5172 249.51 77.9906 249.94 78.28L286.5 99.4C286.91 99.64 287.24 99.45 287.24 99Z" fill="#407BFF"/><path d="M286.5 99.4C286.966 99.6305 287.514 99.6305 287.98 99.4L290.61 97.89C291.044 97.6082 291.319 97.1368 291.35 96.62L291.35 71C291.343 70.7323 291.26 70.4721 291.11 70.25L287 72.61C287.133 72.831 287.209 73.0821 287.22 73.34L287.22 99C287.24 99.41 286.93 99.65 286.5 99.4Z" opacity="0.2"/><path d="M249.22 51.25C249.28 50.88 249.58 50.75 249.94 50.96L286.5 72.06C286.717 72.1969 286.895 72.386 287.02 72.61L291.12 70.28C290.998 70.0624 290.823 69.8799 290.61 69.75L254.05 48.65C253.588 48.4149 253.042 48.4149 252.58 48.65L250 50.11C249.584 50.3556 249.298 50.7732 249.22 51.25Z" fill="#FFFFFF" opacity="0.4"/><path d="M293.36 89.68 297.36 87.4C297.681 87.2052 297.783 86.787 297.589 86.4659 297.563 86.4242 297.534 86.3853 297.5 86.35L291.25 78.55 287.25 80.85 293.49 88.65C293.743 88.935 293.717 89.3711 293.432 89.6241 293.409 89.6443 293.385 89.663 293.36 89.68Z" fill="#407BFF"/><path d="M293.36 89.68 297.36 87.4C297.681 87.2052 297.783 86.787 297.589 86.4659 297.563 86.4242 297.534 86.3853 297.5 86.35L291.25 78.55 287.25 80.85 293.49 88.65C293.743 88.935 293.717 89.3711 293.432 89.6241 293.409 89.6443 293.385 89.663 293.36 89.68Z" fill="#FFFFFF" opacity="0.4"/><path d="M287.24 80.85 293.49 88.65C293.75 88.9052 293.754 89.323 293.499 89.5833 293.385 89.6996 293.232 89.7696 293.07 89.78L287.24 90.41Z" fill="#407BFF"/></g><path d="M278.45 77C278.45 78 277.73 78.34 276.85 77.82L256.54 66.12C255.609 65.5155 255.016 64.5079 254.94 63.4 254.94 62.4 255.66 62.06 256.54 62.58L276.85 74.3C277.776 74.9004 278.368 75.8994 278.45 77Z" fill="#FAFAFA"/><path d="M283 87.5C283 88.5 282.28 88.84 281.4 88.32L256.54 74C255.609 73.3955 255.016 72.3879 254.94 71.28 254.94 70.28 255.66 69.94 256.54 70.46L281.38 84.79C282.316 85.388 282.917 86.3921 283 87.5Z" fill="#FAFAFA"/></g><g id="freepik--speech-bubble--inject-4"><g id="freepik--speech-bubble--inject-4"><path d="M127 127.17 123 119.79 126.16 110.67 126.16 105.08 116.49 110.67 116.49 116.25 120.64 123.45C120.706 123.563 120.808 123.651 120.93 123.7L120.93 123.7Z" fill="#407BFF"/><path d="M127 127.17 123 119.79 126.16 110.67 126.16 105.08 116.49 110.67 116.49 116.25 120.64 123.45C120.706 123.563 120.808 123.651 120.93 123.7L120.93 123.7Z" opacity="0.2"/><path d="M152 71.26C151.879 69.2283 150.804 67.3738 149.1 66.26L146.74 64.9C144.918 63.9704 142.762 63.9704 140.94 64.9L94.8 91.51C93.0929 92.6204 92.0161 94.4769 91.9 96.51L91.9 124.79C92.0161 126.823 93.0929 128.68 94.8 129.79L97.16 131.16C98.9839 132.08 101.136 132.08 102.96 131.16L122.6 119.73 126.75 126.91C126.921 127.206 127.301 127.308 127.597 127.136 127.724 127.063 127.82 126.948 127.87 126.81L132.25 114.15 149.08 104.53C150.784 103.416 151.859 101.562 151.98 99.53Z" fill="#407BFF"/><path d="M91.9 124.81C92.0161 126.843 93.0929 128.7 94.8 129.81L97.16 131.18C98.8139 132.006 100.741 132.089 102.46 131.41 101.1 131.93 100.06 131.16 100.06 129.5L100.06 101.24C100.092 100.232 100.385 99.2505 100.91 98.39L92.75 93.67C92.2263 94.5348 91.9336 95.5196 91.9 96.53Z" opacity="0.2"/><path d="M151.89 70.44C151.55 69.21 150.43 68.82 149.09 69.59L103 96.22C102.158 96.7591 101.469 97.5066 101 98.39L92.85 93.68C93.3183 92.7989 94.0075 92.0546 94.85 91.52L140.97 64.88C142.794 63.9601 144.946 63.9601 146.77 64.88L149.14 66.25C150.586 67.2164 151.579 68.7284 151.89 70.44Z" fill="#FFFFFF" opacity="0.4"/></g><path d="M111.84 104.12C109.553 105.606 108.115 108.096 107.97 110.82 107.97 113.29 109.7 114.29 111.84 113.05 114.127 111.564 115.565 109.074 115.71 106.35 115.71 103.88 114 102.88 111.84 104.12Z" fill="#FAFAFA"/><path d="M126.1 95.87C123.817 97.3596 122.379 99.8478 122.23 102.57 122.23 105.03 123.97 106.03 126.1 104.8 128.398 103.321 129.849 100.829 130 98.1 130 95.63 128.24 94.63 126.1 95.87Z" fill="#FAFAFA"/><path d="M140.37 87.61C138.087 89.0996 136.649 91.5878 136.5 94.31 136.5 96.78 138.23 97.78 140.37 96.55 142.653 95.0604 144.091 92.5722 144.24 89.85 144.24 87.38 142.51 86.38 140.37 87.61Z" fill="#FAFAFA"/></g></g></svg>