<svg viewBox="0 0 500 500" xmlns="http://www.w3.org/2000/svg" xmlns:xlink="http://www.w3.org/1999/xlink" overflow="hidden"><g id="freepik--Floor--inject-50"><path d="M419.12 236.43C325.12 182.15 173.18 182.15 79.78 236.43-13.62 290.71-13.13 378.71 80.88 433 174.89 487.29 326.82 487.28 420.23 433 513.64 378.72 513.13 290.71 419.12 236.43Z" fill="#F5F5F5"/></g><g id="freepik--Shadow--inject-50"><path d="M288 317.74C257.71 300.25 208.75 300.25 178.65 317.74 148.55 335.23 148.71 363.59 179.01 381.08 209.31 398.57 258.26 398.57 288.36 381.08 318.46 363.59 318.25 335.24 288 317.74Z" fill="#E0E0E0"/></g><g id="freepik--Plants--inject-50"><path d="M101.28 259.05 106.97 254.38C107.32 245.38 107.67 235.94 106.18 227.08 104.69 218.22 101.18 209.45 94.87 203.08 92.21 200.41 88.87 198.14 85.18 197.71 81.49 197.28 77.26 199.17 75.98 202.71 74.63 206.42 76.66 210.43 78.83 213.71 83.44 220.71 88.95 227.13 93.48 234.2 98.01 241.27 101.17 250.66 101.28 259.05Z" fill="#F0F0F0"/><path d="M101.28 260.28 95.58 265C91.37 256.11 85.58 247.88 77.58 242.18 74.84 240.18 71.9 238.49 69.58 236.03 67.26 233.57 65.67 230.16 66.34 226.87 67.2 222.63 71.69 219.87 76.01 219.81 80.33 219.75 84.38 221.98 87.73 224.71 98 233.05 103.86 247.27 101.28 260.28Z" fill="#F0F0F0"/><path d="M101.28 260.28 95.58 265C91.37 256.11 85.58 247.88 77.58 242.18 74.84 240.18 71.9 238.49 69.58 236.03 67.26 233.57 65.67 230.16 66.34 226.87 67.2 222.63 71.69 219.87 76.01 219.81 80.33 219.75 84.38 221.98 87.73 224.71 98 233.05 103.86 247.27 101.28 260.28Z" opacity="0.1"/><path d="M104.49 256.91 104.49 256.91C104.761 256.905 104.975 256.681 104.97 256.41 104.97 256.41 104.97 256.41 104.97 256.41 104.74 243.09 101.75 218.5 84.34 203.41 84.1357 203.231 83.8245 203.251 83.645 203.455 83.4655 203.659 83.4856 203.971 83.69 204.15 91.04 210.54 103.45 225.82 103.98 256.46 104.006 256.72 104.228 256.917 104.49 256.91Z" fill="#FFFFFF"/><path d="M98.52 263 98.52 263C98.7894 262.974 98.9866 262.734 98.9605 262.465 98.9604 262.463 98.9602 262.462 98.96 262.46 97.79 250.46 92.57 234 74.3 223.46 74.0646 223.33 73.7686 223.41 73.63 223.64 73.4904 223.872 73.5653 224.173 73.7971 224.313 73.8014 224.315 73.8057 224.318 73.81 224.32 91.71 234.67 96.81 250.83 97.98 262.57 98.0114 262.837 98.2525 263.029 98.52 263Z" fill="#FFFFFF"/><path d="M438.44 292.67C441.1 289.8 444.12 287.27 446.58 284.23 448.26 282.15 449.72 279.57 449.25 276.95 448.691 274.478 446.775 272.539 444.31 271.95 441.864 271.415 439.307 271.804 437.13 273.04 434.982 274.278 433.061 275.875 431.45 277.76 422.253 287.903 417.324 301.203 417.69 314.89 417.609 316.449 417.992 317.998 418.79 319.34 419.805 320.708 421.521 321.363 423.19 321.02 427.37 320.08 427.19 314.51 428.09 311.3 430.023 304.358 433.57 297.971 438.44 292.66Z" fill="#E6E6E6"/><path d="M421.89 316.8C422.057 316.781 422.187 316.647 422.2 316.48 422.94 309.93 426.61 287.63 442.94 275.95 443.103 275.834 443.141 275.608 443.025 275.445 442.909 275.282 442.683 275.244 442.52 275.36 425.95 287.22 422.23 309.77 421.52 316.36 421.497 316.557 421.638 316.736 421.836 316.759 421.837 316.76 421.839 316.76 421.84 316.76Z" fill="#F0F0F0"/><path d="M422.76 318.8C423.22 321.754 424.863 324.393 427.31 326.11 429.598 327.393 432.199 328.013 434.82 327.9 437.475 327.777 440.107 327.341 442.66 326.6 443.93 326.26 445.35 325.79 445.58 324.27 445.686 323.455 445.418 322.635 444.85 322.04 444.615 321.779 444.365 321.531 444.1 321.3 443.769 321.008 443.737 320.502 444.029 320.171 444.179 320.001 444.394 319.903 444.62 319.9 445.362 319.905 446.103 319.865 446.84 319.78 448.557 319.622 450.201 319.008 451.6 318 452.62 317.212 453.424 316.181 453.94 315 454.496 314.025 454.461 312.821 453.85 311.88 453.392 311.438 452.815 311.14 452.19 311.02 451.65 310.86 451.11 310.72 450.56 310.6 450.162 310.509 449.912 310.113 450.003 309.714 450.059 309.466 450.24 309.264 450.48 309.18L452.88 308.37C453.567 308.189 454.202 307.846 454.73 307.37 455.409 306.46 455.654 305.297 455.4 304.19 455.21 302.71 454.8 301.27 454.56 299.79 454.25 298.327 454.298 296.811 454.7 295.37 450.361 294.59 445.919 294.59 441.58 295.37 440.277 295.544 439.026 295.994 437.91 296.69 436.472 297.798 435.714 299.575 435.91 301.38 435.905 301.568 435.748 301.716 435.561 301.711 435.43 301.707 435.314 301.629 435.26 301.51L433.96 298.66C433.561 297.806 432.566 297.412 431.69 297.76 430.34 298.326 429.119 299.159 428.1 300.21 426.97 301.339 426.336 302.872 426.34 304.47 426.377 306.661 426.597 308.846 427 311 427.095 311.312 426.919 311.641 426.608 311.737 426.39 311.803 426.154 311.738 426 311.57L425.94 311.51C425.56 311.174 425.067 310.996 424.56 311.01 423.23 311.08 422.8 312.39 422.64 313.52 422.47 315.279 422.51 317.051 422.76 318.8Z" fill="#E6E6E6"/><path d="M422.76 318.8C423.22 321.754 424.863 324.393 427.31 326.11 429.598 327.393 432.199 328.013 434.82 327.9 437.475 327.777 440.107 327.341 442.66 326.6 443.93 326.26 445.35 325.79 445.58 324.27 445.686 323.455 445.418 322.635 444.85 322.04 444.615 321.779 444.365 321.531 444.1 321.3 443.769 321.008 443.737 320.502 444.029 320.171 444.179 320.001 444.394 319.903 444.62 319.9 445.362 319.905 446.103 319.865 446.84 319.78 448.557 319.622 450.201 319.008 451.6 318 452.62 317.212 453.424 316.181 453.94 315 454.496 314.025 454.461 312.821 453.85 311.88 453.392 311.438 452.815 311.14 452.19 311.02 451.65 310.86 451.11 310.72 450.56 310.6 450.162 310.509 449.912 310.113 450.003 309.714 450.059 309.466 450.24 309.264 450.48 309.18L452.88 308.37C453.567 308.189 454.202 307.846 454.73 307.37 455.409 306.46 455.654 305.297 455.4 304.19 455.21 302.71 454.8 301.27 454.56 299.79 454.25 298.327 454.298 296.811 454.7 295.37 450.361 294.59 445.919 294.59 441.58 295.37 440.277 295.544 439.026 295.994 437.91 296.69 436.472 297.798 435.714 299.575 435.91 301.38 435.905 301.568 435.748 301.716 435.561 301.711 435.43 301.707 435.314 301.629 435.26 301.51L433.96 298.66C433.561 297.806 432.566 297.412 431.69 297.76 430.34 298.326 429.119 299.159 428.1 300.21 426.97 301.339 426.336 302.872 426.34 304.47 426.377 306.661 426.597 308.846 427 311 427.095 311.312 426.919 311.641 426.608 311.737 426.39 311.803 426.154 311.738 426 311.57L425.94 311.51C425.56 311.174 425.067 310.996 424.56 311.01 423.23 311.08 422.8 312.39 422.64 313.52 422.47 315.279 422.51 317.051 422.76 318.8Z" opacity="0.1"/><path d="M429.24 325.88C430.307 322.431 431.718 319.098 433.45 315.93 433.462 315.829 433.512 315.736 433.59 315.67 433.69 315.5 433.78 315.33 433.87 315.16 433.724 311.061 432.815 307.026 431.19 303.26 431.076 303.097 431.117 302.872 431.28 302.759 431.443 302.645 431.667 302.685 431.781 302.849 431.802 302.88 431.819 302.914 431.83 302.95 433.362 306.457 434.275 310.202 434.53 314.02 438.454 307.088 444.047 301.245 450.8 297.02 450.974 296.921 451.196 296.978 451.3 297.15 451.399 297.321 451.341 297.54 451.17 297.64 443.26 302.38 437.99 309.35 434.68 315.2 438.699 313.701 443.068 313.409 447.25 314.36 447.446 314.393 447.578 314.579 447.545 314.775 447.52 314.926 447.401 315.045 447.25 315.07L447.11 315.07C447.04 315.07 440.29 313.34 434.11 316.24 432.388 319.377 430.987 322.681 429.93 326.1 429.894 326.24 429.774 326.344 429.63 326.36 429.584 326.37 429.536 326.37 429.49 326.36 429.297 326.313 429.179 326.118 429.226 325.925 429.23 325.91 429.234 325.895 429.24 325.88Z" fill="#F0F0F0"/></g><g id="freepik--Rocks--inject-50"><path d="M440.83 322.77 425.67 308.84 419.22 308.14 409.86 313.2 408.41 317.84 404.13 321.82 402.32 327.38 411.1 330.99 412 332.31 417.93 334.93 420.56 338.54 428.11 338.42 431.14 335.27 439.73 333.88 446 331.25 445.54 327.37 443.82 323.56 440.83 322.77Z" fill="#E0E0E0"/><path d="M440.83 322.77 443.82 323.56 445.54 327.37 438.9 330.48 426.62 332.19 424.1 331.56 421.54 324.44 425.13 330.49 438.08 328.8 442.83 326.6 443.05 323.99 440.83 322.77Z" opacity="0.1"/><path d="M434.55 317 436.95 322.47 430.46 322.28 422.44 324.67 430.28 320.14 433.92 321.05 433.88 318.7 431.07 313.81 434.55 317Z" opacity="0.1"/><path d="M433.45 326.27 429.75 325.35 430.46 322.28 436.95 322.47 433.45 326.27Z" opacity="0.3"/><path d="M424.24 328.99 429.75 325.35 430.46 322.28 422.44 324.67 424.24 328.99Z" opacity="0.4"/><path d="M425.67 308.84 424.86 314.96 421.62 317.99 418.78 313.99 419.22 308.14 425.67 308.84Z" opacity="0.2"/><path d="M420.34 319.59 417.27 314.28 419.22 308.14 418.78 313.99 421.62 317.99 420.34 319.59Z" opacity="0.1"/><path d="M421.54 324.44 420.34 319.59 417.27 314.28 419.22 308.14 409.86 313.2 412.95 316.98 418.6 319.54 421.54 324.44Z" opacity="0.3"/><path d="M420.56 338.54 424.1 331.56 421.54 324.44 418.6 319.54 412.95 316.98 409.86 313.2 408.41 317.84 412.73 317.34 417.28 320.62 419.52 324.32 420.56 338.54Z" opacity="0.4"/><path d="M417.93 334.93 419.93 329.89 420.56 338.54 417.93 334.93Z" opacity="0.3"/><path d="M412 332.31 411.79 327.64 409.99 320.14 404 328.07 411.1 330.99 412 332.31Z" opacity="0.4"/><path d="M412.73 317.34 409.99 320.14 404 328.07 402.32 327.38 404.13 321.82 408.41 317.84 412.73 317.34Z" opacity="0.3"/><path d="M417.93 334.93 412 332.31 411.79 327.64 409.99 320.14 412.73 317.34 417.28 320.62 419.52 324.32 419.93 329.89 417.93 334.93Z" opacity="0.2"/><path d="M426.62 332.19 428.11 338.42 420.56 338.54 424.1 331.56 426.62 332.19Z" opacity="0.3"/><path d="M431.14 335.27 429.3 331.82 426.62 332.19 428.11 338.42 431.14 335.27Z" opacity="0.4"/><path d="M436.5 334.4 434.97 331.03 429.3 331.82 431.14 335.27 436.5 334.4Z" opacity="0.3"/><path d="M439.73 333.88 438.9 330.48 434.97 331.03 436.5 334.4 439.73 333.88Z" opacity="0.4"/><path d="M445.54 327.37 438.9 330.48 439.73 333.88 446 331.25 445.54 327.37Z" opacity="0.3"/><path d="M433.88 318.7 433.92 321.05 430.28 320.14 422.44 324.67 424.24 328.99 421.54 324.44 420.34 319.59 421.62 317.99 424.86 314.96 425.67 308.84 431.07 313.81 433.88 318.7Z" opacity="0.05"/><path d="M445.54 327.37 443.82 323.56 440.83 322.77 434.55 317 434.55 317 431.07 313.81 425.67 308.84 419.22 308.14 409.86 313.2 408.41 317.84 404.13 321.82 402.32 327.38 404 328.07 411.1 330.99 412 332.31 417.93 334.93 420.56 338.54 428.11 338.42 431.14 335.27 439.73 333.88 446 331.25 445.54 327.37Z" fill="#FFFFFF" opacity="0.3"/><path d="M451.11 376 441.03 366.74 436.74 366.28 430.52 369.64 429.56 372.72 426.72 375.37 425.51 379.06 431.35 381.47 431.95 382.35 435.89 384.08 437.63 386.48 442.66 386.4 444.67 384.31 450.38 383.39 454.55 381.64 454.24 379.06 453.1 376.53 451.11 376Z" fill="#E0E0E0"/><path d="M451.11 376 453.1 376.53 454.24 379.06 449.83 381.13 441.66 382.26 439.99 381.85 438.29 377.11 440.68 381.13 449.29 380.01 452.44 378.55 452.59 376.81 451.11 376Z" opacity="0.1"/><path d="M446.94 372.17 448.53 375.8 444.22 375.68 438.89 377.26 444.1 374.25 446.52 374.86 446.49 373.3 444.62 370.04 446.94 372.17Z" opacity="0.1"/><path d="M446.21 378.32 443.75 377.71 444.22 375.68 448.53 375.8 446.21 378.32Z" opacity="0.3"/><path d="M440.09 380.13 443.75 377.71 444.22 375.68 438.89 377.26 440.09 380.13Z" opacity="0.4"/><path d="M441.03 366.74 440.49 370.81 438.35 372.82 436.45 370.16 436.74 366.28 441.03 366.74Z" opacity="0.2"/><path d="M437.49 373.88 435.45 370.36 436.74 366.28 436.45 370.16 438.35 372.82 437.49 373.88Z" opacity="0.1"/><path d="M438.29 377.11 437.49 373.88 435.45 370.36 436.74 366.28 430.52 369.64 432.58 372.15 436.34 373.85 438.29 377.11Z" opacity="0.3"/><path d="M437.63 386.48 439.99 381.85 438.29 377.11 436.34 373.85 432.58 372.15 430.52 369.64 429.56 372.72 432.43 372.39 435.45 374.57 436.95 377.03 437.63 386.48Z" opacity="0.4"/><path d="M435.89 384.08 437.22 380.74 437.63 386.48 435.89 384.08Z" opacity="0.3"/><path d="M431.95 382.35 431.81 379.24 430.61 374.25 426.63 379.52 431.35 381.47 431.95 382.35Z" opacity="0.4"/><path d="M432.43 372.39 430.61 374.25 426.63 379.52 425.51 379.06 426.72 375.37 429.56 372.72 432.43 372.39Z" opacity="0.3"/><path d="M435.89 384.08 431.95 382.35 431.81 379.24 430.61 374.25 432.43 372.39 435.45 374.57 436.95 377.03 437.22 380.74 435.89 384.08Z" opacity="0.2"/><path d="M441.66 382.26 442.66 386.4 437.63 386.48 439.99 381.85 441.66 382.26Z" opacity="0.3"/><path d="M444.67 384.31 443.45 382.01 441.66 382.26 442.66 386.4 444.67 384.31Z" opacity="0.4"/><path d="M448.23 383.73 447.22 381.49 443.45 382.01 444.67 384.31 448.23 383.73Z" opacity="0.3"/><path d="M450.38 383.39 449.83 381.13 447.22 381.49 448.23 383.73 450.38 383.39Z" opacity="0.4"/><path d="M454.24 379.06 449.83 381.13 450.38 383.39 454.55 381.64 454.24 379.06Z" opacity="0.3"/><path d="M446.49 373.3 446.52 374.86 444.1 374.25 438.89 377.26 440.09 380.13 438.29 377.11 437.49 373.88 438.35 372.82 440.49 370.81 441.03 366.74 444.62 370.04 446.49 373.3Z" opacity="0.05"/><path d="M431.83 379.37 424.59 372.72 421.51 372.39 417.04 374.8 416.36 377.02 414.31 378.92 413.45 381.57 417.63 383.3 418.07 383.93 420.9 385.18 422.15 386.9 425.76 386.85 427.21 385.34 431.31 384.68 434.31 383.42 434.09 381.57 433.26 379.75 431.83 379.37Z" fill="#E0E0E0"/><path d="M431.83 379.37 433.26 379.75 434.09 381.57 430.92 383.06 425.05 383.87 423.85 383.57 422.62 380.17 424.34 383.06 430.52 382.25 432.79 381.2 432.89 379.95 431.83 379.37Z" opacity="0.1"/><path d="M428.84 376.62 429.98 379.23 426.89 379.14 423.05 380.28 426.8 378.12 428.54 378.55 428.52 377.43 427.18 375.09 428.84 376.62Z" opacity="0.1"/><path d="M428.31 381.04 426.54 380.6 426.89 379.14 429.98 379.23 428.31 381.04Z" opacity="0.3"/><path d="M423.92 382.34 426.54 380.6 426.89 379.14 423.05 380.28 423.92 382.34Z" opacity="0.4"/><path d="M424.59 372.72 424.21 375.64 422.66 377.09 421.3 375.18 421.51 372.39 424.59 372.72Z" opacity="0.2"/><path d="M422.05 377.85 420.59 375.32 421.51 372.39 421.3 375.18 422.66 377.09 422.05 377.85Z" opacity="0.1"/><path d="M422.62 380.17 422.05 377.85 420.59 375.32 421.51 372.39 417.04 374.8 418.52 376.61 421.22 377.83 422.62 380.17Z" opacity="0.3"/><path d="M422.15 386.9 423.85 383.57 422.62 380.17 421.22 377.83 418.52 376.61 417.04 374.8 416.36 377.02 418.42 376.78 420.59 378.35 421.66 380.12 422.15 386.9Z" opacity="0.4"/><path d="M420.9 385.18 421.85 382.77 422.15 386.9 420.9 385.18Z" opacity="0.3"/><path d="M418.07 383.93 417.97 381.7 417.11 378.12 414.25 381.9 417.63 383.3 418.07 383.93Z" opacity="0.4"/><path d="M418.42 376.78 417.11 378.12 414.25 381.9 413.45 381.57 414.31 378.92 416.36 377.02 418.42 376.78Z" opacity="0.3"/><path d="M420.9 385.18 418.07 383.93 417.97 381.7 417.11 378.12 418.42 376.78 420.59 378.35 421.66 380.12 421.85 382.77 420.9 385.18Z" opacity="0.2"/><path d="M425.05 383.87 425.76 386.85 422.15 386.9 423.85 383.57 425.05 383.87Z" opacity="0.3"/><path d="M427.21 385.34 426.33 383.69 425.05 383.87 425.76 386.85 427.21 385.34Z" opacity="0.4"/><path d="M429.77 384.93 429.04 383.32 426.33 383.69 427.21 385.34 429.77 384.93Z" opacity="0.3"/><path d="M431.31 384.68 430.92 383.06 429.04 383.32 429.77 384.93 431.31 384.68Z" opacity="0.4"/><path d="M434.09 381.57 430.92 383.06 431.31 384.68 434.31 383.42 434.09 381.57Z" opacity="0.3"/><path d="M428.52 377.43 428.54 378.55 426.8 378.12 423.05 380.28 423.92 382.34 422.62 380.17 422.05 377.85 422.66 377.09 424.21 375.64 424.59 372.72 427.18 375.09 428.52 377.43Z" opacity="0.05"/><path d="M414.31 378.92 416.36 377.02 417.04 374.8 421.51 372.39 424.59 372.72 427.1 375.02 429.56 372.72 430.52 369.64 436.74 366.28 441.03 366.74 444.62 370.04 446.94 372.17 446.94 372.17 451.11 376 453.1 376.53 454.24 379.06 454.55 381.64 450.38 383.39 444.67 384.31 442.66 386.4 437.63 386.48 435.89 384.08 434.3 383.38 434.31 383.42 431.31 384.68 427.21 385.34 425.76 386.85 422.15 386.9 420.9 385.18 418.07 383.93 417.63 383.3 413.45 381.57 414.31 378.92Z" fill="#FFFFFF" opacity="0.3"/></g><g id="freepik--Wall--inject-50"><path d="M115.48 23.43 98.26 33.43 97.57 275.17 383.57 440.27 400.79 430.27 401.47 188.53ZM197.58 141.5 196.2 140.15 195.92 139.32ZM306.58 335.5 300.26 339.17 300.26 339.17 297.78 335 274.49 333.06 263.8 311.54 253.05 311.09 245.92 297.19 232.63 282.87 215.41 292.87 214.58 294.64 210.1 292.05 206.55 280.41 190.47 265.17 190.47 254.84 186.47 248.93 191.07 250.27 208.29 240.27 203.15 209.41 196 207.18 195 201.42 210.43 192.42 210.48 172.92 196.17 164.66 195.39 162.92 210.53 154.12 201.17 145 216.64 138.14 225.57 147.97 239.57 139.83 248.44 145.38 255.96 176.38 268.49 174.51 283.36 198 277.76 210.78 302 223.26 298.12 225.41 280.9 235.41 293.39 254.55 302.33 259.71 303.76 269.18 296.32 273.5 305.07 288.7 300.45 293.15 309.54 309.41 298.59 315.77Z" fill="#407BFF"/><path d="M115.48 23.43 98.26 33.43 97.57 275.17 383.57 440.27 400.79 430.27 401.47 188.53ZM197.58 141.5 196.2 140.15 195.92 139.32ZM306.58 335.5 300.26 339.17 300.26 339.17 297.78 335 274.49 333.06 263.8 311.54 253.05 311.09 245.92 297.19 232.63 282.87 215.41 292.87 214.58 294.64 210.1 292.05 206.55 280.41 190.47 265.17 190.47 254.84 186.47 248.93 191.07 250.27 208.29 240.27 203.15 209.41 196 207.18 195 201.42 210.43 192.42 210.48 172.92 196.17 164.66 195.39 162.92 210.53 154.12 201.17 145 216.64 138.14 225.57 147.97 239.57 139.83 248.44 145.38 255.96 176.38 268.49 174.51 283.36 198 277.76 210.78 302 223.26 298.12 225.41 280.9 235.41 293.39 254.55 302.33 259.71 303.76 269.18 296.32 273.5 305.07 288.7 300.45 293.15 309.54 309.41 298.59 315.77Z" opacity="0.1"/><path d="M190.5 254.84 173.28 264.84 173.25 275.18 190.47 265.17 190.5 254.84Z" opacity="0.2"/><path d="M186.49 248.93 183.33 248.01 167.93 256.96 173.28 264.84 190.5 254.84 186.49 248.93Z" opacity="0.3"/><path d="M206.55 280.41 189.34 290.42 192.88 302.06 210.1 292.05 206.55 280.41Z" opacity="0.2"/><path d="M190.47 265.17 173.25 275.18 189.34 290.42 206.55 280.41 190.47 265.17Z" opacity="0.3"/><path d="M167.97 243.55 167.93 256.96 183.33 248.01 167.97 243.55Z" opacity="0.4"/><path d="M192.88 302.06 207.2 310.32 214.58 294.64 210.1 292.05 192.88 302.06Z" opacity="0.1"/><path d="M232.63 282.87 215.41 292.87 228.71 307.19 245.92 297.19 232.63 282.87Z" opacity="0.1"/><path d="M245.92 297.19 228.71 307.19 235.83 321.1 253.05 311.09 245.92 297.19Z" opacity="0.2"/><path d="M196.01 207.18 178.79 217.19 185.95 219.4 203.17 209.4 196.01 207.18Z" opacity="0.3"/><path d="M203.17 209.4 185.95 219.4 191.09 250.27 208.31 240.26 203.17 209.4Z" opacity="0.2"/><path d="M263.8 311.54 246.58 321.55 257.27 343.07 274.49 333.06 263.8 311.54Z" opacity="0.2"/><path d="M253.05 311.09 235.83 321.1 246.58 321.55 263.8 311.54 253.05 311.09Z" opacity="0.1"/><path d="M194.96 201.43 193.17 202.47 175.27 197.89 178.79 217.19 196.01 207.18 194.96 201.43Z" opacity="0.4"/><path d="M195.35 162.96 193.28 164.16 173.57 162.76 178.91 174.71 196.13 164.7 195.35 162.96Z" opacity="0.4"/><path d="M274.49 333.06 257.27 343.07 280.56 345 297.78 335 274.49 333.06Z" opacity="0.1"/><path d="M300.29 339.15 297.78 335 280.56 345 285.91 353.85 301.15 344.99 300.29 339.15Z" opacity="0.2"/><path d="M210.39 192.46 210.44 172.96 193.22 182.97 193.17 202.47 194.96 201.43 210.39 192.46Z" opacity="0.2"/><path d="M196.13 164.7 178.91 174.71 193.22 182.97 210.44 172.96 196.13 164.7Z" opacity="0.3"/><path d="M195.92 139.32 191.44 133.45 173.65 134.61 178.98 150.16 196.2 140.15 195.92 139.32Z" opacity="0.2"/><path d="M210.49 154.16 201.17 145.02 200.5 145.32 197.58 141.5 196.2 140.15 178.98 150.16 193.28 164.16 195.35 162.96 210.49 154.16Z" opacity="0.1"/><path d="M285.91 353.85 301.79 349.39 301.15 344.99 285.91 353.85Z" opacity="0.3"/><path d="M307.46 337.51 306.61 335.45 300.29 339.13 307.46 337.51Z" opacity="0.3"/><path d="M313.58 316.7 309.51 309.42 298.56 315.78 313.58 316.7Z" opacity="0.3"/><path d="M305.07 278.04 303.73 269.19 296.29 273.51 305.07 278.04Z" opacity="0.3"/><path d="M229.2 133.34 225.57 147.99 239.58 139.85 229.2 133.34Z" opacity="0.4"/><path d="M280.87 235.42 302.4 223.48 301.97 223.26 298.09 225.41 280.87 235.42Z" opacity="0.3"/><path d="M384.22 198.54 383.54 440.28 400.76 430.27 401.44 188.53 384.22 198.54Z" fill="#FFFFFF" opacity="0.3"/><path d="M401.44 188.53 115.48 23.43 98.26 33.44 384.22 198.54 401.44 188.53Z" fill="#FFFFFF" opacity="0.4"/><g opacity="0.2"><path d="M157.86 170.75 168.83 176.35 157.09 172.22 149.83 163.77 137.33 157.58 130.04 159.25 118.19 148.14 129.41 156.97 136.82 155.81 150.47 162.82 157.86 170.75Z"/><path d="M165.68 202.32 178.18 208.95 165.5 203.19 159.82 197.56 153.1 194.96 149.79 191.29 126.24 177.69 116.34 168.89 126.41 176.62 142.22 185.74 142.26 172.55 144.64 164.39 143.19 172.89 143.59 186.33 149.2 189.38 153.19 193.64 160.08 195.96 165.68 202.32Z"/><path d="M298.14 177.83 306.43 180.88 297.66 178.96 292.31 171.54 283.08 165.45 277.7 165.49 269.05 158.53 277.14 163.75 282.61 164.21 292.69 170.67 298.14 177.83Z"/><path d="M321.83 217.66 329.27 220.55 321.95 218.59 304.56 208.56 302.11 208.44 297.15 204.64 292.94 203.94 283.59 197.39 292.81 203.15 296.97 203.24 302.05 207.4 305.01 207.66 309.15 210.2 309.49 200.64 308.46 193.14 310.18 201.18 310.15 210.92 321.83 217.66Z"/><path d="M255.11 356.66 265.9 360.85 255.3 358.02 230.08 343.46 226.52 343.3 219.33 337.79 213.22 336.77 199.66 327.27 213.04 335.62 219.07 335.75 226.44 341.78 230.72 342.16 236.73 345.84 237.22 331.98 235.72 321.1 238.22 332.76 238.18 346.88 255.11 356.66Z"/><path d="M161.7 111.86 170.3 118.42 180.22 124.79 171.05 119.72 162.14 112.76 156.55 111.13 157.1 116.36 156.22 119.9 156.7 124.65 169.07 130.21 174.02 134.65 168.83 130.84 156.72 125.64 155.74 124.59 152.53 124.2 148.58 121.65 146.89 118.93 136.43 111.14 147.29 118.35 149.23 121.13 152.37 123.23 155.57 123.71 155.58 119.31 156.24 115.64 155.61 110.16 161.7 111.86Z"/><path d="M344.43 338.43 357 348.02 371.51 357.34 358.1 349.92 345.07 339.75 336.89 337.36 337.69 345.01 336.42 350.19 337.11 357.14 355.2 365.27 362.45 371.77 354.86 366.2 337.15 358.59 335.7 357.04 331.01 356.47 325.23 352.74 322.76 348.77 307.46 337.38 323.34 347.92 326.18 351.99 330.77 355.06 335.45 355.76 335.47 349.32 336.43 343.96 335.51 335.92 344.43 338.43Z"/><path d="M137.15 232.89 140.03 233.78 135.14 224.5 126.4 211 112.19 199.43 126.99 210.52 135.81 224.27 140.92 233.76 146.18 234.18 157.72 237.47 167.93 243.37 157.81 238.63 146.42 234.97 141.67 234.84 145.27 241.9 145.5 246.02 152.04 259.21 144.89 246.09 144.43 241.64 140.54 234.77 137.93 234.32 137.15 232.89Z"/><path d="M359.25 272.24 345.06 267.69 339.14 267.52 343.62 276.31 343.91 281.45 352.06 297.89 343.16 281.53 342.58 276 337.74 267.44 333.66 266.74 325.13 261.47 335.92 275.64 337.56 275.22 340.49 276.65 338.18 276.17 336.31 276.8 341.52 281.09 335.8 277.37 323.39 260.44 318.19 253.84 306.22 244.88 318.65 253.25 324.07 259.63 333.51 265.09 337.09 266.2 331.01 254.64 320.11 237.81 302.4 223.4 320.85 237.22 331.84 254.35 338.21 266.17 344.77 266.7 359.14 270.8 371.87 278.15 359.25 272.24Z"/></g><g opacity="0.1"><path d="M354.37 382.26C353.83 381.95 353.37 382.2 353.37 382.82L353.37 388.82C353.413 389.514 353.785 390.145 354.37 390.52L370.27 399.69C370.8 400 371.27 399.76 371.27 399.13L371.27 393.13C371.227 392.439 370.855 391.81 370.27 391.44Z"/><path d="M354.37 403C353.83 402.69 353.37 402.93 353.37 403.56L353.37 409.56C353.413 410.251 353.785 410.88 354.37 411.25L370.27 420.43C370.8 420.74 371.27 420.49 371.27 419.87L371.27 413.87C371.227 413.176 370.855 412.545 370.27 412.17Z"/><path d="M343.81 386.4C343.27 386.09 342.81 386.34 342.81 386.96L342.81 392.96C342.853 393.651 343.225 394.28 343.81 394.65L359.7 403.83C360.24 404.14 360.7 403.89 360.7 403.27L360.7 397.27C360.657 396.579 360.285 395.95 359.7 395.58Z"/><g opacity="0.07"><path d="M354.37 382.26C353.83 381.95 353.37 382.2 353.37 382.82L353.37 388.82C353.413 389.514 353.785 390.145 354.37 390.52L370.27 399.69C370.8 400 371.27 399.76 371.27 399.13L371.27 393.13C371.227 392.439 370.855 391.81 370.27 391.44Z"/><path d="M354.37 403C353.83 402.69 353.37 402.93 353.37 403.56L353.37 409.56C353.413 410.251 353.785 410.88 354.37 411.25L370.27 420.43C370.8 420.74 371.27 420.49 371.27 419.87L371.27 413.87C371.227 413.176 370.855 412.545 370.27 412.17Z"/><path d="M343.81 386.4C343.27 386.09 342.81 386.34 342.81 386.96L342.81 392.96C342.853 393.651 343.225 394.28 343.81 394.65L359.7 403.83C360.24 404.14 360.7 403.89 360.7 403.27L360.7 397.27C360.657 396.579 360.285 395.95 359.7 395.58Z"/></g></g><g opacity="0.1"><path d="M125.29 231.44C124.75 231.13 124.29 231.37 124.29 232L124.29 238C124.333 238.691 124.705 239.32 125.29 239.69L141.18 248.87C141.72 249.18 142.18 248.93 142.18 248.31L142.18 242.31C142.142 241.617 141.769 240.987 141.18 240.62Z"/><path d="M125.29 252.15C124.75 251.83 124.29 252.08 124.29 252.71L124.29 258.71C124.333 259.401 124.705 260.03 125.29 260.4L141.18 269.58C141.72 269.89 142.18 269.64 142.18 269.02L142.18 263.02C142.143 262.324 141.77 261.69 141.18 261.32Z"/><path d="M114.73 235.58C114.19 235.27 113.73 235.51 113.73 236.14L113.73 242.14C113.773 242.831 114.145 243.46 114.73 243.83L130.6 253C131.14 253.31 131.6 253.06 131.6 252.44L131.6 246.44C131.557 245.746 131.185 245.115 130.6 244.74Z"/><g opacity="0.07"><path d="M125.29 231.44C124.75 231.13 124.29 231.37 124.29 232L124.29 238C124.333 238.691 124.705 239.32 125.29 239.69L141.18 248.87C141.72 249.18 142.18 248.93 142.18 248.31L142.18 242.31C142.142 241.617 141.769 240.987 141.18 240.62Z"/><path d="M125.29 252.15C124.75 251.83 124.29 252.08 124.29 252.71L124.29 258.71C124.333 259.401 124.705 260.03 125.29 260.4L141.18 269.58C141.72 269.89 142.18 269.64 142.18 269.02L142.18 263.02C142.143 262.324 141.77 261.69 141.18 261.32Z"/><path d="M114.73 235.58C114.19 235.27 113.73 235.51 113.73 236.14L113.73 242.14C113.773 242.831 114.145 243.46 114.73 243.83L130.6 253C131.14 253.31 131.6 253.06 131.6 252.44L131.6 246.44C131.557 245.746 131.185 245.115 130.6 244.74Z"/></g></g><g opacity="0.1"><path d="M104.58 241.79C104.04 241.48 103.58 241.73 103.58 242.35L103.58 248.35C103.62 249.045 103.992 249.677 104.58 250.05L120.47 259.22C121.01 259.54 121.47 259.29 121.47 258.66L121.47 252.66C121.427 251.969 121.055 251.34 120.47 250.97Z"/><path d="M104.58 262.5C104.04 262.19 103.58 262.44 103.58 263.06L103.58 269.06C103.623 269.754 103.995 270.385 104.58 270.76L120.45 280C120.99 280.31 121.45 280.07 121.45 279.44L121.45 273.44C121.407 272.749 121.035 272.12 120.45 271.75Z"/><g opacity="0.07"><path d="M104.58 241.79C104.04 241.48 103.58 241.73 103.58 242.35L103.58 248.35C103.62 249.045 103.992 249.677 104.58 250.05L120.47 259.22C121.01 259.54 121.47 259.29 121.47 258.66L121.47 252.66C121.427 251.969 121.055 251.34 120.47 250.97Z"/><path d="M104.58 262.5C104.04 262.19 103.58 262.44 103.58 263.06L103.58 269.06C103.623 269.754 103.995 270.385 104.58 270.76L120.45 280C120.99 280.31 121.45 280.07 121.45 279.44L121.45 273.44C121.407 272.749 121.035 272.12 120.45 271.75Z"/></g></g><g opacity="0.1"><path d="M122 179.4C121.46 179.09 121 179.34 121 179.96L121 185.96C121.038 186.655 121.411 187.289 122 187.66L137.9 196.84C138.44 197.15 138.9 196.9 138.9 196.27L138.9 190.27C138.86 189.575 138.488 188.943 137.9 188.57Z"/><path d="M111.46 183.54C110.92 183.23 110.46 183.48 110.46 184.1L110.46 190.1C110.5 190.795 110.872 191.427 111.46 191.8L127.33 201C127.87 201.32 128.33 201.07 128.33 200.44L128.33 194.44C128.287 193.749 127.915 193.12 127.33 192.75Z"/><g opacity="0.07"><path d="M122 179.4C121.46 179.09 121 179.34 121 179.96L121 185.96C121.038 186.655 121.411 187.289 122 187.66L137.9 196.84C138.44 197.15 138.9 196.9 138.9 196.27L138.9 190.27C138.86 189.575 138.488 188.943 137.9 188.57Z"/><path d="M111.46 183.54C110.92 183.23 110.46 183.48 110.46 184.1L110.46 190.1C110.5 190.795 110.872 191.427 111.46 191.8L127.33 201C127.87 201.32 128.33 201.07 128.33 200.44L128.33 194.44C128.287 193.749 127.915 193.12 127.33 192.75Z"/></g></g><g opacity="0.1"><path d="M115.33 65.13C114.79 64.82 114.33 65.07 114.33 65.7L114.33 71.7C114.37 72.3947 114.742 73.0275 115.33 73.4L131.23 82.58C131.77 82.89 132.23 82.64 132.23 82.01L132.23 76.01C132.19 75.3153 131.818 74.6825 131.23 74.31Z"/><path d="M115.33 85.84C114.79 85.53 114.33 85.78 114.33 86.4L114.33 92.4C114.37 93.0947 114.742 93.7275 115.33 94.1L131.23 103.27C131.77 103.58 132.23 103.34 132.23 102.71L132.23 96.71C132.187 96.019 131.815 95.3905 131.23 95.02Z"/><path d="M124.76 81C124.22 80.68 123.76 80.93 123.76 81.56L123.76 87.56C123.803 88.251 124.175 88.8795 124.76 89.25L140.65 98.43C141.19 98.74 141.65 98.49 141.65 97.87L141.65 91.87C141.61 91.1753 141.238 90.5425 140.65 90.17Z"/><path d="M104.76 69.27C104.22 68.96 103.76 69.21 103.76 69.83L103.76 75.83C103.8 76.5247 104.172 77.1575 104.76 77.53L120.65 86.7C121.19 87.02 121.65 86.77 121.65 86.14L121.65 80.14C121.607 79.449 121.235 78.8205 120.65 78.45Z"/><g opacity="0.07"><path d="M115.33 65.13C114.79 64.82 114.33 65.07 114.33 65.7L114.33 71.7C114.37 72.3947 114.742 73.0275 115.33 73.4L131.23 82.58C131.77 82.89 132.23 82.64 132.23 82.01L132.23 76.01C132.19 75.3153 131.818 74.6825 131.23 74.31Z"/><path d="M115.33 85.84C114.79 85.53 114.33 85.78 114.33 86.4L114.33 92.4C114.37 93.0947 114.742 93.7275 115.33 94.1L131.23 103.27C131.77 103.58 132.23 103.34 132.23 102.71L132.23 96.71C132.187 96.019 131.815 95.3905 131.23 95.02Z"/><path d="M124.76 81C124.22 80.68 123.76 80.93 123.76 81.56L123.76 87.56C123.803 88.251 124.175 88.8795 124.76 89.25L140.65 98.43C141.19 98.74 141.65 98.49 141.65 97.87L141.65 91.87C141.61 91.1753 141.238 90.5425 140.65 90.17Z"/><path d="M104.76 69.27C104.22 68.96 103.76 69.21 103.76 69.83L103.76 75.83C103.8 76.5247 104.172 77.1575 104.76 77.53L120.65 86.7C121.19 87.02 121.65 86.77 121.65 86.14L121.65 80.14C121.607 79.449 121.235 78.8205 120.65 78.45Z"/></g></g><g opacity="0.1"><path d="M145.76 72.46C145.22 72.15 144.76 72.4 144.76 73.02L144.76 79.02C144.803 79.7137 145.175 80.3451 145.76 80.72L161.65 89.89C162.19 90.2 162.65 89.96 162.65 89.33L162.65 83.33C162.607 82.639 162.235 82.0105 161.65 81.64Z"/><path d="M145.76 93.17C145.22 92.86 144.76 93.1 144.76 93.73L144.76 99.73C144.803 100.421 145.175 101.05 145.76 101.42L161.65 110.6C162.19 110.91 162.65 110.66 162.65 110.04L162.65 104.04C162.607 103.346 162.235 102.715 161.65 102.34Z"/><path d="M155.2 88.28C154.66 87.97 154.2 88.22 154.2 88.84L154.2 94.84C154.237 95.5357 154.61 96.1699 155.2 96.54L171.09 105.72C171.63 106.03 172.09 105.78 172.09 105.15L172.09 99.15C172.05 98.4553 171.678 97.8225 171.09 97.45Z"/><path d="M135.2 76.6C134.66 76.29 134.2 76.54 134.2 77.16L134.2 83.16C134.242 83.8515 134.614 84.4807 135.2 84.85L151.1 94.03C151.64 94.34 152.1 94.1 152.1 93.47L152.1 87.47C152.057 86.779 151.685 86.1505 151.1 85.78Z"/><g opacity="0.07"><path d="M145.76 72.46C145.22 72.15 144.76 72.4 144.76 73.02L144.76 79.02C144.803 79.7137 145.175 80.3451 145.76 80.72L161.65 89.89C162.19 90.2 162.65 89.96 162.65 89.33L162.65 83.33C162.607 82.639 162.235 82.0105 161.65 81.64Z"/><path d="M145.76 93.17C145.22 92.86 144.76 93.1 144.76 93.73L144.76 99.73C144.803 100.421 145.175 101.05 145.76 101.42L161.65 110.6C162.19 110.91 162.65 110.66 162.65 110.04L162.65 104.04C162.607 103.346 162.235 102.715 161.65 102.34Z"/><path d="M155.2 88.28C154.66 87.97 154.2 88.22 154.2 88.84L154.2 94.84C154.237 95.5357 154.61 96.1699 155.2 96.54L171.09 105.72C171.63 106.03 172.09 105.78 172.09 105.15L172.09 99.15C172.05 98.4553 171.678 97.8225 171.09 97.45Z"/><path d="M135.2 76.6C134.66 76.29 134.2 76.54 134.2 77.16L134.2 83.16C134.242 83.8515 134.614 84.4807 135.2 84.85L151.1 94.03C151.64 94.34 152.1 94.1 152.1 93.47L152.1 87.47C152.057 86.779 151.685 86.1505 151.1 85.78Z"/></g></g><g opacity="0.1"><path d="M329.34 291.57C328.8 291.26 328.34 291.51 328.34 292.13L328.34 298.13C328.38 298.825 328.752 299.457 329.34 299.83L345.21 309C345.75 309.32 346.21 309.07 346.21 308.44L346.21 302.44C346.167 301.749 345.795 301.12 345.21 300.75Z"/><path d="M329.34 312.28C328.8 311.97 328.34 312.22 328.34 312.84L328.34 318.84C328.383 319.534 328.755 320.165 329.34 320.54L345.23 329.71C345.77 330.02 346.23 329.78 346.23 329.15L346.23 323.15C346.187 322.459 345.815 321.83 345.23 321.46Z"/><path d="M338.78 307.39C338.24 307.08 337.78 307.33 337.78 307.96L337.78 313.96C337.817 314.656 338.19 315.29 338.78 315.66L354.67 324.84C355.21 325.15 355.67 324.9 355.67 324.28L355.67 318.28C355.63 317.585 355.258 316.953 354.67 316.58Z"/><path d="M318.78 295.71C318.24 295.4 317.78 295.65 317.78 296.27L317.78 302.27C317.822 302.964 318.194 303.596 318.78 303.97L334.68 313.14C335.22 313.45 335.68 313.21 335.68 312.58L335.68 306.58C335.637 305.889 335.265 305.26 334.68 304.89Z"/><g opacity="0.07"><path d="M329.34 291.57C328.8 291.26 328.34 291.51 328.34 292.13L328.34 298.13C328.38 298.825 328.752 299.457 329.34 299.83L345.21 309C345.75 309.32 346.21 309.07 346.21 308.44L346.21 302.44C346.167 301.749 345.795 301.12 345.21 300.75Z"/><path d="M329.34 312.28C328.8 311.97 328.34 312.22 328.34 312.84L328.34 318.84C328.383 319.534 328.755 320.165 329.34 320.54L345.23 329.71C345.77 330.02 346.23 329.78 346.23 329.15L346.23 323.15C346.187 322.459 345.815 321.83 345.23 321.46Z"/><path d="M338.78 307.39C338.24 307.08 337.78 307.33 337.78 307.96L337.78 313.96C337.817 314.656 338.19 315.29 338.78 315.66L354.67 324.84C355.21 325.15 355.67 324.9 355.67 324.28L355.67 318.28C355.63 317.585 355.258 316.953 354.67 316.58Z"/><path d="M318.78 295.71C318.24 295.4 317.78 295.65 317.78 296.27L317.78 302.27C317.822 302.964 318.194 303.596 318.78 303.97L334.68 313.14C335.22 313.45 335.68 313.21 335.68 312.58L335.68 306.58C335.637 305.889 335.265 305.26 334.68 304.89Z"/></g></g><g opacity="0.1"><path d="M340.77 188.19C340.23 187.88 339.77 188.12 339.77 188.75L339.77 194.75C339.813 195.441 340.185 196.07 340.77 196.44L356.66 205.62C357.2 205.93 357.66 205.68 357.66 205.06L357.66 199.06C357.623 198.364 357.25 197.73 356.66 197.36Z"/><path d="M330.21 192.33C329.67 192.01 329.21 192.26 329.21 192.89L329.21 198.89C329.253 199.581 329.625 200.21 330.21 200.58L346.11 209.76C346.65 210.07 347.11 209.82 347.11 209.2L347.11 203.2C347.07 202.505 346.698 201.873 346.11 201.5Z"/><g opacity="0.07"><path d="M340.77 188.19C340.23 187.88 339.77 188.12 339.77 188.75L339.77 194.75C339.813 195.441 340.185 196.07 340.77 196.44L356.66 205.62C357.2 205.93 357.66 205.68 357.66 205.06L357.66 199.06C357.623 198.364 357.25 197.73 356.66 197.36Z"/><path d="M330.21 192.33C329.67 192.01 329.21 192.26 329.21 192.89L329.21 198.89C329.253 199.581 329.625 200.21 330.21 200.58L346.11 209.76C346.65 210.07 347.11 209.82 347.11 209.2L347.11 203.2C347.07 202.505 346.698 201.873 346.11 201.5Z"/></g></g><g opacity="0.1"><path d="M310.41 352.7C309.87 352.39 309.41 352.64 309.41 353.26L309.41 359.26C309.45 359.955 309.822 360.587 310.41 360.96L326.31 370.14C326.85 370.45 327.31 370.2 327.31 369.57L327.31 363.57C327.27 362.875 326.898 362.243 326.31 361.87Z"/><path d="M310.41 373.41C309.87 373.1 309.41 373.35 309.41 373.97L309.41 379.97C309.453 380.664 309.825 381.295 310.41 381.67L326.31 390.84C326.85 391.15 327.31 390.91 327.31 390.28L327.31 384.28C327.267 383.589 326.895 382.96 326.31 382.59Z"/><path d="M319.84 368.53C319.3 368.21 318.84 368.46 318.84 369.09L318.84 375.09C318.883 375.781 319.255 376.41 319.84 376.78L335.71 386C336.25 386.31 336.71 386.06 336.71 385.44L336.71 379.44C336.673 378.744 336.3 378.11 335.71 377.74Z"/><path d="M299.84 356.84C299.3 356.53 298.84 356.78 298.84 357.4L298.84 363.4C298.88 364.095 299.252 364.727 299.84 365.1L315.73 374.27C316.27 374.59 316.73 374.34 316.73 373.71L316.73 367.71C316.687 367.019 316.315 366.39 315.73 366.02Z"/><g opacity="0.07"><path d="M310.41 352.7C309.87 352.39 309.41 352.64 309.41 353.26L309.41 359.26C309.45 359.955 309.822 360.587 310.41 360.96L326.31 370.14C326.85 370.45 327.31 370.2 327.31 369.57L327.31 363.57C327.27 362.875 326.898 362.243 326.31 361.87Z"/><path d="M310.41 373.41C309.87 373.1 309.41 373.35 309.41 373.97L309.41 379.97C309.453 380.664 309.825 381.295 310.41 381.67L326.31 390.84C326.85 391.15 327.31 390.91 327.31 390.28L327.31 384.28C327.267 383.589 326.895 382.96 326.31 382.59Z"/><path d="M319.84 368.53C319.3 368.21 318.84 368.46 318.84 369.09L318.84 375.09C318.883 375.781 319.255 376.41 319.84 376.78L335.71 386C336.25 386.31 336.71 386.06 336.71 385.44L336.71 379.44C336.673 378.744 336.3 378.11 335.71 377.74Z"/><path d="M299.84 356.84C299.3 356.53 298.84 356.78 298.84 357.4L298.84 363.4C298.88 364.095 299.252 364.727 299.84 365.1L315.73 374.27C316.27 374.59 316.73 374.34 316.73 373.71L316.73 367.71C316.687 367.019 316.315 366.39 315.73 366.02Z"/></g></g><g opacity="0.1"><path d="M356.65 212.76C356.11 212.45 355.65 212.7 355.65 213.32L355.65 219.32C355.693 220.011 356.065 220.64 356.65 221.01L372.54 230.19C373.08 230.5 373.54 230.25 373.54 229.63L373.54 223.63C373.497 222.939 373.125 222.311 372.54 221.94Z"/><path d="M356.65 233.47C356.11 233.16 355.65 233.4 355.65 234.03L355.65 240.03C355.693 240.721 356.065 241.35 356.65 241.72L372.54 250.9C373.08 251.21 373.54 250.96 373.54 250.34L373.54 244.34C373.5 243.645 373.128 243.013 372.54 242.64Z"/><path d="M346.09 216.9C345.55 216.59 345.09 216.83 345.09 217.46L345.09 223.46C345.128 224.153 345.501 224.783 346.09 225.15L362 234.36C362.54 234.67 363 234.42 363 233.8L363 227.8C362.957 227.106 362.585 226.475 362 226.1Z"/><g opacity="0.07"><path d="M356.65 212.76C356.11 212.45 355.65 212.7 355.65 213.32L355.65 219.32C355.693 220.011 356.065 220.64 356.65 221.01L372.54 230.19C373.08 230.5 373.54 230.25 373.54 229.63L373.54 223.63C373.497 222.939 373.125 222.311 372.54 221.94Z"/><path d="M356.65 233.47C356.11 233.16 355.65 233.4 355.65 234.03L355.65 240.03C355.693 240.721 356.065 241.35 356.65 241.72L372.54 250.9C373.08 251.21 373.54 250.96 373.54 250.34L373.54 244.34C373.5 243.645 373.128 243.013 372.54 242.64Z"/><path d="M346.09 216.9C345.55 216.59 345.09 216.83 345.09 217.46L345.09 223.46C345.128 224.153 345.501 224.783 346.09 225.15L362 234.36C362.54 234.67 363 234.42 363 233.8L363 227.8C362.957 227.106 362.585 226.475 362 226.1Z"/></g></g><path d="M91.05 275.68 102.28 269.15 102.3 263.45 98.7 260.46 87.47 266.98 84.28 269.51 87.45 275.4 91.05 275.68Z" fill="#407BFF"/><path d="M102.3 263.45 98.7 260.46 87.47 266.98 91.07 269.97 102.3 263.45Z" fill="#FFFFFF" opacity="0.3"/><path d="M91.05 275.68 102.28 269.15 102.3 263.45 91.07 269.97 91.05 275.68Z" fill="#FFFFFF" opacity="0.2"/><path d="M183.41 152.51 190.21 151.93 201.43 145.4 193.41 130.35 184.5 127.79 173.28 134.32 183.41 152.51Z" fill="#407BFF"/><path d="M190.21 151.93 201.43 145.4 193.41 130.35 182.18 136.87 190.21 151.93Z" fill="#FFFFFF" opacity="0.3"/><path d="M182.18 136.87 193.41 130.35 184.5 127.79 173.28 134.32 182.18 136.87Z" fill="#FFFFFF" opacity="0.4"/><path d="M100.33 309.73 100.34 307.59 97.95 306.21 95.89 297.44 88.49 296.13 77.26 302.65 75.55 308.42 73.84 311.59 78.9 322.74 82.3 322.53 89.82 325.19 101.05 318.66 100.33 309.73Z" fill="#407BFF"/><path d="M100.33 309.73 89.11 316.25 89.82 325.19 101.05 318.66 100.33 309.73Z" fill="#FFFFFF" opacity="0.4"/><path d="M89.11 314.12 100.34 307.59 97.95 306.21 86.72 312.73 89.11 314.12Z" fill="#FFFFFF" opacity="0.4"/><path d="M89.11 316.25 100.33 309.73 100.34 307.59 89.11 314.12 89.11 316.25Z" fill="#FFFFFF" opacity="0.3"/><path d="M86.72 312.73 97.95 306.21 95.89 297.44 84.67 303.96 86.72 312.73Z" fill="#FFFFFF" opacity="0.3"/><path d="M95.89 297.44 88.49 296.13 77.26 302.65 84.67 303.96 95.89 297.44Z" fill="#FFFFFF" opacity="0.4"/><path d="M308.52 440.78 304.4 430.52 298.94 427.36 296.69 423.11 285.46 429.63 282.06 432.88 282.79 440.55 286.56 441.48 290.5 449.01 297.3 447.3 308.52 440.78Z" fill="#407BFF"/><path d="M298.94 427.36 296.69 423.11 285.46 429.63 287.71 433.88 298.94 427.36Z" fill="#FFFFFF" opacity="0.4"/><path d="M293.18 437.04 304.4 430.52 298.94 427.36 287.71 433.88 293.18 437.04Z" fill="#FFFFFF" opacity="0.3"/><path d="M297.3 447.3 308.52 440.78 304.4 430.52 293.18 437.04 297.3 447.3Z" fill="#FFFFFF" opacity="0.4"/><path d="M189.28 298.55 186.56 292.64 183.16 291.42 171.94 297.94 171.92 303.7 175.3 308.04 175.29 313.39 182.07 317.31 193.29 310.78 192.19 301.42 189.28 298.55Z" fill="#407BFF"/><path d="M178.05 305.07 189.28 298.55 186.56 292.64 175.33 299.17 178.05 305.07Z" fill="#FFFFFF" opacity="0.3"/><path d="M186.56 292.64 183.16 291.42 171.94 297.94 175.33 299.17 186.56 292.64Z" fill="#FFFFFF" opacity="0.4"/><path d="M180.96 307.94 192.19 301.42 189.28 298.55 178.05 305.07 180.96 307.94Z" fill="#FFFFFF" opacity="0.4"/><path d="M180.96 307.94 182.07 317.31 193.29 310.78 192.19 301.42 180.96 307.94Z" fill="#FFFFFF" opacity="0.3"/><path d="M116.01 217.58 112.23 222.62 118.37 230.04 129.59 223.51 130.99 218.96 127.24 211.06 116.01 217.58Z" fill="#407BFF"/><path d="M118.37 230.04 129.59 223.51 130.99 218.96 119.77 225.48 118.37 230.04Z" fill="#FFFFFF" opacity="0.3"/><path d="M116.01 217.58 119.77 225.48 130.99 218.96 127.24 211.06 116.01 217.58Z" fill="#FFFFFF" opacity="0.4"/><path d="M61.89 327.58 59.29 331.87 51.45 335.14 51.42 343.8 57.76 351.23 66.85 349.72 66.86 346.08 76 344.4 76.03 335.74 75.86 327.48 61.89 327.58Z" fill="#407BFF"/><path d="M66.52 341.12 66.87 341.06 66.86 346.08 76 344.4 76.03 335.74 66.53 337.49 66.52 341.12Z" fill="#FFFFFF" opacity="0.2"/><path d="M66.52 341.12 57.78 342.57 57.76 351.23 66.85 349.72 66.86 346.08 66.87 341.06 66.52 341.12Z" fill="#FFFFFF" opacity="0.3"/><path d="M51.45 335.14 51.42 343.8 57.76 351.23 57.78 342.57 51.45 335.14Z" fill="#FFFFFF" opacity="0.2"/><path d="M217.07 414.3 217.09 405.65 205.97 401.81 205.49 413.87 205.47 422.52 216.13 424.18 217.07 414.3Z" fill="#407BFF"/><path d="M217.07 414.3 217.09 405.65 216.16 415.52 216.13 424.18 217.07 414.3Z" fill="#FFFFFF" opacity="0.3"/><path d="M216.16 415.52 205.49 413.87 205.47 422.52 216.13 424.18 216.16 415.52Z" fill="#FFFFFF" opacity="0.2"/><path d="M136.57 356.99 148.21 358.07 150.87 351.73 150.89 343.07 145.72 340.08 145.73 337.13 137.84 337.79 132.32 341.86 132.3 350.51 136.59 351.88 136.57 356.99Z" fill="#407BFF"/><path d="M136.59 348.33 137.16 348.38 137.18 343.4 132.32 341.86 132.3 350.51 136.59 351.88 136.59 348.33Z" fill="#FFFFFF" opacity="0.2"/><path d="M150.87 351.73 150.89 343.07 148.24 349.42 148.21 358.07 150.87 351.73Z" fill="#FFFFFF" opacity="0.2"/><path d="M136.59 351.88 136.57 356.99 148.21 358.07 148.24 349.42 137.16 348.38 136.59 348.33 136.59 351.88Z" fill="#FFFFFF" opacity="0.3"/><path d="M133.3 409.94 125.1 408.82 122.98 412.99 122.96 421.65 136.89 426.32 144.67 421.8 144.69 413.14 136.06 407.03 133.3 409.94Z" fill="#407BFF"/><path d="M136.89 426.32 144.67 421.8 144.69 413.14 136.91 417.66 136.89 426.32Z" fill="#FFFFFF" opacity="0.3"/><path d="M122.98 412.99 122.96 421.65 136.89 426.32 136.91 417.66 122.98 412.99Z" fill="#FFFFFF" opacity="0.2"/><path d="M230.41 406.65 230.86 402.22 230.88 393.56 229.07 389.7 223.38 390.31 223.09 392.44 219.13 392.78 219.12 396.71 214.75 399.26 214.72 407.92 219.4 409.12 223.05 408.97 230.41 406.65Z" fill="#407BFF"/><path d="M230.86 402.22 230.88 393.56 230.43 398 230.41 406.65 230.86 402.22Z" fill="#FFFFFF" opacity="0.3"/><path d="M230.41 406.65 230.43 398 223.07 400.31 223.05 408.97 230.41 406.65Z" fill="#FFFFFF" opacity="0.2"/><path d="M223.07 400.31 219.43 400.46 219.4 409.12 223.05 408.97 223.07 400.31Z" fill="#FFFFFF" opacity="0.3"/><path d="M219.4 400.46 219.11 400.38 214.75 399.26 214.72 407.92 219.4 409.12 219.43 400.46 219.4 400.46Z" fill="#FFFFFF" opacity="0.2"/><path d="M269.66 385.5 256.58 384.81 251.43 387.22 251.41 395.87 254.06 401.35 264.66 398.14 269.64 394.15 269.66 385.5Z" fill="#407BFF"/><path d="M269.66 385.5 264.69 389.48 264.66 398.14 269.64 394.15 269.66 385.5Z" fill="#FFFFFF" opacity="0.3"/><path d="M254.09 392.69 254.06 401.35 264.66 398.14 264.69 389.48 254.09 392.69Z" fill="#FFFFFF" opacity="0.2"/><path d="M251.43 387.22 251.41 395.87 254.06 401.35 254.09 392.69 251.43 387.22Z" fill="#FFFFFF" opacity="0.3"/><path d="M288.49 269.34 288.51 260.68 285.7 258.14 278.75 258.5 278.43 262.37 278.4 271.02 283.56 272.2 288.49 269.34Z" fill="#407BFF"/><path d="M288.49 269.34 288.51 260.68 283.58 263.55 283.56 272.2 288.49 269.34Z" fill="#FFFFFF" opacity="0.2"/><path d="M283.58 263.55 278.43 262.37 278.4 271.02 283.56 272.2 283.58 263.55Z" fill="#FFFFFF" opacity="0.3"/><path d="M293.68 319.72 282.59 314.81 277.58 315.67 274.54 328.73 279.66 333.78 282.24 343.09 293.61 341.74 298.62 340.88 298.69 331.5 293.83 329.63 293.68 319.72Z" fill="#407BFF"/><path d="M282.24 343.09 293.61 341.74 298.62 340.88 287.25 342.23 282.24 343.09Z" fill="#FFFFFF" opacity="0.3"/><path d="M284.68 332.92 279.66 333.78 282.24 343.09 287.25 342.23 284.68 332.92Z" fill="#FFFFFF" opacity="0.3"/><path d="M279.55 327.88 274.54 328.73 279.66 333.78 284.68 332.92 279.55 327.88Z" fill="#FFFFFF" opacity="0.2"/><path d="M282.59 314.81 277.58 315.67 274.54 328.73 279.55 327.88 282.59 314.81Z" fill="#FFFFFF" opacity="0.3"/><path d="M168.34 202.88 167.33 200.5 164.26 201.02 159.28 194.65 154.26 195.5 148.27 203.07 149.77 211.56 150.03 217.14 159.01 223.35 164.02 222.5 166.39 218.13 173.1 211.9 168.34 202.88Z" fill="#407BFF"/><path d="M153.28 202.22 148.27 203.07 149.77 211.56 154.78 210.7 153.28 202.22Z" fill="#FFFFFF" opacity="0.2"/><path d="M159.28 194.65 154.26 195.5 148.27 203.07 153.28 202.22 159.28 194.65Z" fill="#FFFFFF" opacity="0.3"/><path d="M150.03 217.14 159.01 223.35 164.02 222.5 155.04 216.28 150.03 217.14Z" fill="#FFFFFF" opacity="0.2"/><path d="M154.78 210.7 149.77 211.56 150.03 217.14 155.04 216.28 154.78 210.7Z" fill="#FFFFFF" opacity="0.3"/><path d="M148.25 257.24 143.24 258.1 136.17 262.18 136.52 270.87 145.13 273.1 150.14 272.25 152.45 267.12 147.8 263.81 148.25 257.24Z" fill="#407BFF"/><path d="M148.25 257.24 143.24 258.1 136.17 262.18 141.19 261.32 148.25 257.24Z" fill="#FFFFFF" opacity="0.2"/><path d="M136.52 270.87 145.13 273.1 150.14 272.25 141.53 270.02 136.52 270.87Z" fill="#FFFFFF" opacity="0.2"/><path d="M141.19 261.32 136.17 262.18 136.52 270.87 141.53 270.02 141.19 261.32Z" fill="#FFFFFF" opacity="0.3"/><path d="M261.87 320.21 266.52 311.29 253.55 304.36 248.53 305.22 240.85 313.23 256.86 321.06 261.87 320.21Z" fill="#407BFF"/><path d="M261.87 320.21 245.86 312.37 240.85 313.23 256.86 321.06 261.87 320.21Z" fill="#FFFFFF" opacity="0.3"/><path d="M253.55 304.36 248.53 305.22 240.85 313.23 245.86 312.37 253.55 304.36Z" fill="#FFFFFF" opacity="0.2"/><path d="M234.14 374.77 239.15 373.92 243.26 363.75 235.39 357.38 230.38 358.24 228.1 359.55 226.28 358.56 221.27 359.42 220.34 367.15 224.52 374.78 229.53 373.93 230.54 372.79 234.14 374.77Z" fill="#407BFF"/><path d="M228.01 371.17 225.35 366.3 220.34 367.15 224.52 374.78 229.53 373.93 228.2 371.5 228.01 371.17Z" fill="#FFFFFF" opacity="0.3"/><path d="M225.96 361.21 226.01 360.76 226.28 358.56 221.27 359.42 220.34 367.15 225.35 366.3 225.96 361.21Z" fill="#FFFFFF" opacity="0.2"/><path d="M154.33 160.26 149.32 161.11 148.74 174.7 153.75 173.84 160.41 171.57 161.35 164.96 154.33 160.26Z" fill="#407BFF"/><path d="M148.74 174.7 153.75 173.84 154.33 160.26 149.32 161.11 148.74 174.7Z" fill="#FFFFFF" opacity="0.2"/><path d="M263.94 347.64 258.94 348.49 258.36 362.08 263.37 361.23 270.02 358.95 270.96 352.34 263.94 347.64Z" fill="#407BFF"/><path d="M258.36 362.08 263.37 361.23 263.94 347.64 258.94 348.49 258.36 362.08Z" fill="#FFFFFF" opacity="0.2"/><path d="M165.32 372.72 155.18 377.02 158.44 381.36 155.06 388.3 160.16 392.84 165.17 391.99 174.59 381.87 170.33 371.86 165.32 372.72Z" fill="#407BFF"/><path d="M165.32 372.72 155.18 377.02 160.19 376.16 170.33 371.86 165.32 372.72Z" fill="#FFFFFF" opacity="0.3"/><path d="M158.44 381.36 163.46 380.51 160.19 376.16 155.18 377.02 158.44 381.36Z" fill="#FFFFFF" opacity="0.2"/><path d="M160.16 392.84 165.17 391.99 160.07 387.45 155.06 388.3 160.16 392.84Z" fill="#FFFFFF" opacity="0.2"/><path d="M155.06 388.3 160.07 387.45 163.46 380.51 158.44 381.36 155.06 388.3Z" fill="#FFFFFF" opacity="0.3"/><path d="M295.23 385.59 290.44 382.35 285.44 383.2 282.39 385.99 285.12 392.39 289.63 393.07 292.17 399.04 297.18 398.18 303.96 394.27 298.71 385.23 295.23 385.59Z" fill="#407BFF"/><path d="M289.63 393.07 292.17 399.04 297.18 398.18 294.64 392.22 289.63 393.07Z" fill="#FFFFFF" opacity="0.2"/><path d="M290.13 391.54 285.12 392.39 289.63 393.07 294.64 392.22 290.13 391.54Z" fill="#FFFFFF" opacity="0.3"/><path d="M287.41 385.13 282.39 385.99 285.12 392.39 290.13 391.54 287.41 385.13Z" fill="#FFFFFF" opacity="0.2"/><path d="M290.44 382.35 285.44 383.2 282.39 385.99 287.41 385.13 290.44 382.35Z" fill="#FFFFFF" opacity="0.3"/><path d="M133.04 133.06 128.26 129.82 123.25 130.67 120.21 133.45 122.94 139.86 127.45 140.54 129.99 146.5 135 145.65 141.78 141.74 136.52 132.7 133.04 133.06Z" fill="#407BFF"/><path d="M127.45 140.54 129.99 146.5 135 145.65 132.46 139.69 127.45 140.54Z" fill="#FFFFFF" opacity="0.2"/><path d="M127.95 139 122.94 139.86 127.45 140.54 132.46 139.69 127.95 139Z" fill="#FFFFFF" opacity="0.3"/><path d="M125.22 132.6 120.21 133.45 122.94 139.86 127.95 139 125.22 132.6Z" fill="#FFFFFF" opacity="0.2"/><path d="M128.26 129.82 123.25 130.67 120.21 133.45 125.22 132.6 128.26 129.82Z" fill="#FFFFFF" opacity="0.3"/><path d="M179.09 234.05 174.07 234.91 173.72 245.1 181.7 245.84 186.71 244.99 185.56 238.25 179.09 234.05Z" fill="#407BFF"/><path d="M173.72 245.1 181.7 245.84 186.71 244.99 178.74 244.25 173.72 245.1Z" fill="#FFFFFF" opacity="0.2"/><path d="M179.09 234.05 174.07 234.91 173.72 245.1 178.74 244.25 179.09 234.05Z" fill="#FFFFFF" opacity="0.3"/><path d="M150.68 318.27 153.23 324.28 158.24 323.43 160.92 319.8 161.56 316.32 160.15 308.06 154.32 304.91 148.75 304.24 143.74 305.1 143.26 310.77 146.04 312.34 145.58 316.22 150.68 318.27Z" fill="#407BFF"/><path d="M153.23 324.28 158.24 323.43 155.69 317.42 150.68 318.27 153.23 324.28Z" fill="#FFFFFF" opacity="0.3"/><path d="M150.68 318.27 155.69 317.42 150.59 315.37 145.58 316.22 150.68 318.27Z" fill="#FFFFFF" opacity="0.2"/><path d="M150.59 315.37 151.05 311.49 146.04 312.34 145.58 316.22 150.59 315.37Z" fill="#FFFFFF" opacity="0.3"/><path d="M148.27 309.92 143.26 310.77 146.04 312.34 151.05 311.49 148.27 309.92Z" fill="#FFFFFF" opacity="0.2"/><path d="M148.75 304.24 143.74 305.1 143.26 310.77 148.27 309.92 148.75 304.24Z" fill="#FFFFFF" opacity="0.3"/><path d="M270.46 203.87 275.47 203.01 273.62 191.19 269.43 184.11 264.42 184.97 260.5 196.72 262.54 202.98 270.46 203.87Z" fill="#407BFF"/><path d="M270.46 203.87 275.47 203.01 267.55 202.12 262.54 202.98 270.46 203.87Z" fill="#FFFFFF" opacity="0.2"/><path d="M267.55 202.12 265.51 195.86 260.5 196.72 262.54 202.98 267.55 202.12Z" fill="#FFFFFF" opacity="0.3"/><path d="M269.43 184.11 264.42 184.97 260.5 196.72 265.51 195.86 269.43 184.11Z" fill="#FFFFFF" opacity="0.2"/><path d="M253.53 167.03 256.28 162.95 253.58 156.61 248.57 157.46 244.54 158.54 243.42 165.22 248.52 167.89 253.53 167.03Z" fill="#407BFF"/><path d="M253.58 156.61 248.57 157.46 244.54 158.54 249.55 157.68 253.58 156.61Z" fill="#FFFFFF" opacity="0.3"/><path d="M253.53 167.03 248.43 164.36 243.42 165.22 248.52 167.89 253.53 167.03Z" fill="#FFFFFF" opacity="0.2"/><path d="M249.55 157.68 244.54 158.54 243.42 165.22 248.43 164.36 249.55 157.68Z" fill="#FFFFFF" opacity="0.3"/><path d="M182.93 355.95 182.73 350.33 186.69 345.31 177.71 342.03 172.7 342.89 171.8 355.66 177.92 356.8 182.93 355.95Z" fill="#407BFF"/><path d="M182.93 355.95 176.81 354.81 171.8 355.66 177.92 356.8 182.93 355.95Z" fill="#FFFFFF" opacity="0.3"/><path d="M177.71 342.03 172.7 342.89 171.8 355.66 176.81 354.81 177.71 342.03Z" fill="#FFFFFF" opacity="0.2"/><path d="M133.8 360.58 133.81 356.5 135.87 354.19 135.9 345.54 125.95 342.76 118.42 345.17 113.14 346.27 111.12 353.34 111.09 361.99 116.36 362.86 125.34 366.35 131.96 361.65 133.8 360.58Z" fill="#407BFF"/><path d="M133.82 351.92 133.81 356.5 135.87 354.19 135.9 345.54 131.43 350.54 131.42 353.39 131.98 353 133.82 351.92Z" fill="#FFFFFF" opacity="0.2"/><path d="M131.98 353 131.96 361.65 133.8 360.58 133.81 356.5 133.82 351.92 131.98 353Z" fill="#FFFFFF" opacity="0.3"/><path d="M111.12 353.34 111.09 361.99 116.36 362.86 116.38 354.21 111.12 353.34Z" fill="#FFFFFF" opacity="0.3"/><path d="M131.98 353 131.42 353.39 125.36 357.7 125.34 366.35 131.96 361.65 131.98 353Z" fill="#FFFFFF" opacity="0.3"/><path d="M116.38 354.21 116.36 362.86 125.34 366.35 125.36 357.7 116.38 354.21Z" fill="#FFFFFF" opacity="0.2"/></g><g id="freepik--Character--inject-50"><path d="M265.16 233.41 244.43 217.22 242.41 220.87 263.45 237.36 265.16 233.41Z" fill="#263238"/><path d="M227 248 215.37 246.93C216.84 254.32 219.43 264.55 219.43 264.55L233.43 260.47Z" fill="#455A64"/><path d="M193.08 358.45C195.697 358.917 198.395 358.513 200.76 357.3 202.423 356.299 204.032 355.211 205.58 354.04 206.751 353.201 208.105 352.653 209.53 352.44 211.119 352.27 212.673 351.862 214.14 351.23 215.839 350.554 217.214 349.251 217.98 347.59 218.27 346.934 218.27 346.186 217.98 345.53L218.35 345.94C219.009 346.703 219.173 347.776 218.77 348.7 217.982 350.39 216.58 351.716 214.85 352.41 213.356 353.058 211.77 353.473 210.15 353.64 208.706 353.865 207.336 354.426 206.15 355.28 204.49 356.37 202.98 357.69 201.22 358.61 198.805 359.846 196.051 360.257 193.38 359.78 192.252 359.67 191.216 359.107 190.51 358.22 190.209 357.725 190.069 357.148 190.11 356.57 190.17 356.69 190.23 356.81 190.3 356.93 190.988 357.786 191.988 358.333 193.08 358.45Z"/><path d="M217.57 344.89C217.729 345.086 217.863 345.301 217.97 345.53 218.26 346.186 218.26 346.934 217.97 347.59 217.204 349.251 215.829 350.554 214.13 351.23 212.663 351.862 211.109 352.27 209.52 352.44 208.095 352.653 206.741 353.201 205.57 354.04 204.022 355.211 202.413 356.299 200.75 357.3 198.385 358.513 195.687 358.917 193.07 358.45 191.964 358.343 190.947 357.796 190.25 356.93 190.18 356.81 190.12 356.69 190.06 356.57 189.72 355.665 189.805 354.656 190.29 353.82 190.861 352.885 191.677 352.124 192.65 351.62 193.65 351.08 194.65 350.62 195.55 350.12 197.071 349.171 198.483 348.058 199.76 346.8 200.98 345.68 202.203 344.563 203.43 343.45L216.71 343.98C216.71 343.98 217.13 344.39 217.57 344.89Z" fill="#263238"/><path d="M290.89 295.61C290.892 292.951 290.02 290.366 288.41 288.25 287.132 286.789 285.78 285.393 284.36 284.07 283.325 283.066 282.547 281.828 282.09 280.46 281.64 278.929 280.966 277.474 280.09 276.14 279.124 274.585 277.6 273.458 275.83 272.99 275.141 272.828 274.416 272.962 273.83 273.36L274.17 272.93C274.802 272.146 275.83 271.795 276.81 272.03 278.614 272.505 280.167 273.654 281.15 275.24 282.028 276.605 282.701 278.091 283.15 279.65 283.617 281.043 284.409 282.304 285.46 283.33 286.913 284.681 288.295 286.106 289.6 287.6 291.24 289.76 292.129 292.398 292.13 295.11 292.227 296.236 291.867 297.353 291.13 298.21 290.697 298.6 290.15 298.842 289.57 298.9 289.68 298.825 289.783 298.741 289.88 298.65 290.615 297.816 290.98 296.718 290.89 295.61Z"/><path d="M273.25 273.87C273.409 273.672 273.598 273.5 273.81 273.36 274.396 272.962 275.121 272.828 275.81 272.99 277.58 273.458 279.104 274.585 280.07 276.14 280.946 277.474 281.62 278.929 282.07 280.46 282.527 281.828 283.305 283.066 284.34 284.07 285.76 285.393 287.112 286.789 288.39 288.25 290 290.366 290.872 292.951 290.87 295.61 290.951 296.703 290.591 297.784 289.87 298.61 289.773 298.701 289.67 298.785 289.56 298.86 288.727 299.351 287.718 299.442 286.81 299.11 285.791 298.708 284.899 298.037 284.23 297.17 283.53 296.34 282.95 295.41 282.23 294.58 281.03 293.252 279.689 292.058 278.23 291.02L274.28 288.02 272.48 274.85C272.48 274.85 272.83 274.39 273.25 273.87Z" fill="#263238"/><path d="M245.09 271.65 245.7 287.93C253.08 280.45 272.3 273.47 272.3 273.47 279.58 278.83 277.96 285 275.23 287.93 260.16 296.13 242.97 307.15 239.02 306.24 235.07 305.33 229.87 299.35 226.02 288.08L229.44 269.19Z" fill="#37474F"/><path d="M252.88 245.76C255.31 257.7 254.39 262.95 245.09 271.65 235.79 280.35 220.52 292.59 220.52 292.59 224.26 304.72 218.7 320.7 218.52 326.87 218.34 333.04 217.47 344.38 217.47 344.38 208.97 348.93 203.47 343.45 203.47 343.45L203.76 289.86C203.758 285.164 205.46 280.626 208.55 277.09L227 255.87 227 248Z" fill="#455A64"/><path d="M187.43 214.28C185.821 214.823 184.1 214.946 182.43 214.64 182.43 211.41 182.43 207.81 182.17 203.12 181.56 193 184.29 187.44 186.55 185.42 188.81 183.4 192.68 183.36 194.13 184.64 195.58 185.92 192.04 190.58 191.54 194.64 193.54 192.28 194.54 191.47 196.49 192.92 195.381 194.213 194.544 195.716 194.03 197.34 193.63 199.34 191.47 200.78 190.86 202.46 190.4 203.75 190.86 207.93 191.63 211.51 190.491 212.779 189.045 213.733 187.43 214.28Z" fill="#FFA8A7"/><path d="M187.43 214.28C189.054 213.73 190.508 212.769 191.65 211.49 191.88 212.56 192.12 213.58 192.37 214.44 192.37 214.44 200.19 203.72 201.94 201.7 203.69 199.68 205.31 194.82 212.94 193.93L212.01 212.83C212.01 212.83 196.51 230.49 191.18 233.46 185.85 236.43 184.1 232.58 183.02 225.46 182.536 221.885 182.332 218.277 182.41 214.67 184.089 214.97 185.817 214.836 187.43 214.28Z" fill="#E0E0E0"/><path d="M193.56 225.89C194.78 221.49 192.96 216.03 192.37 214.44L193.7 212.62C195.661 216.837 195.609 221.715 193.56 225.89Z" opacity="0.1"/><path d="M235.89 193.53C240.34 192.92 245.09 193.68 249.95 194.53 251.06 207.67 250.57 221.35 249.95 226.28L253.79 246.91C238.72 256.02 219.5 251.97 215.66 249.34 209.59 225.68 208.08 203.34 212.98 193.97L224.98 191.97Z" fill="#F0F0F0"/><path d="M237.78 192.27C242.23 191.67 245.09 193.68 249.95 194.49 251.06 207.63 250.57 221.31 249.95 226.24L253.79 246.87C238.72 255.98 219.5 251.93 215.66 249.3 209.59 225.64 208.08 203.3 212.98 193.93L224.98 191.93Z" fill="#E6E6E6"/><path d="M226.28 202.73 229.8 199.94C228.696 199.396 227.545 198.954 226.36 198.62L224.96 199.31Z" fill="#407BFF"/><path d="M222.5 202.44 221.72 201.96 220.43 199.13 221.93 198.62 222.84 199.31 222.5 202.44Z" fill="#407BFF"/><path d="M225.34 204.67C227.99 215.22 240.34 222.11 250.57 221.37 252.016 221.23 253.464 221.606 254.66 222.43 256.181 223.503 257.53 224.801 258.66 226.28 259.198 226.995 259.056 228.01 258.341 228.549 258.233 228.63 258.115 228.698 257.99 228.75 255.722 229.661 253.38 230.377 250.99 230.89 248.508 231.466 245.92 231.401 243.47 230.7 224.94 225.33 222.37 213.46 222.87 204.7Z" fill="#407BFF"/><path d="M222.84 205.14C222.84 204.99 222.84 204.83 222.84 204.67L225.32 204.67C225.32 204.72 225.32 204.77 225.32 204.83 224.98 205.105 224.572 205.284 224.14 205.35 223.696 205.405 223.245 205.332 222.84 205.14Z" opacity="0.3"/><path d="M225 199.31C224.298 199.195 223.582 199.195 222.88 199.31 222.278 200.078 221.892 200.993 221.76 201.96 221.948 202.933 222.336 203.856 222.9 204.67 223.54 205.16 225.38 204.67 225.38 204.67 225.846 204.039 226.257 203.37 226.61 202.67 226.82 202.231 226.82 201.719 226.61 201.28 226.218 200.517 225.669 199.846 225 199.31Z" fill="#407BFF"/><path d="M218.26 253C220.155 255.29 222.803 256.832 225.73 257.35L219.47 264.52C220.133 262.252 221.193 260.119 222.6 258.22 220.618 257.006 219.092 255.171 218.26 253Z" opacity="0.3"/><path d="M224 199C221.15 198.24 219.33 201.4 219.33 201.4 219.15 194.4 222.79 191.72 222.79 191.72Z" fill="#E0E0E0"/><path d="M236.16 164.4 239.98 161.88C239.322 161.112 238.361 160.67 237.35 160.67 236.159 160.771 235.269 161.808 235.35 163 235.23 160.71 233.26 158.66 231.2 157.66 229.087 156.753 226.775 156.409 224.49 156.66 222.21 156.81 219.95 157.25 217.66 157.33 215.019 157.426 212.381 157.053 209.87 156.23 209.038 155.933 208.122 156.367 207.825 157.199 207.707 157.532 207.701 157.894 207.81 158.23 208.249 159.684 208.989 161.029 209.98 162.18 209.452 162.336 208.9 162.397 208.35 162.36 207.457 162.31 206.692 162.994 206.642 163.887 206.624 164.211 206.704 164.532 206.87 164.81 207.873 166.287 209.294 167.432 210.95 168.1 217.01 177.68 233.37 186.22 233.37 186.22 234.497 186.084 235.478 185.388 235.98 184.37 236.465 183.369 236.779 182.294 236.91 181.19 237.577 176.99 238.157 172.773 238.65 168.54 238.811 167.652 238.77 166.74 238.53 165.87 238.268 164.98 237.457 164.365 236.53 164.35" fill="#37474F"/><path d="M234.57 179.22C235.01 183.16 235.89 189.99 235.89 189.99 232.45 194.64 225.77 195.65 224 198.99 222.856 195.287 222.112 191.472 221.78 187.61L233.16 178.61Z" fill="#FFA8A7"/><path d="M233.16 178.66 233.45 178.77C233.755 185.384 228.912 191.116 222.34 191.92 222.077 190.494 221.89 189.056 221.78 187.61Z" fill="#F28F8F"/><path d="M210.94 168.08C210.081 174.659 210.808 181.349 213.06 187.59 213.649 189.179 215.175 190.225 216.87 190.2 225.51 190.2 232.32 187.25 233.51 179.57 234.401 180.71 235.941 181.119 237.28 180.57 239.122 179.587 240.407 177.808 240.76 175.75 240.985 174.321 240.008 172.98 238.578 172.755 238.04 172.67 237.488 172.756 237 173 235.908 173.51 235.053 174.419 234.61 175.54 234.42 175.96 234.18 176.47 233.72 176.48 233.26 176.49 232.98 175.96 232.84 175.48 232.29 173.677 232.049 171.793 232.13 169.91 229.352 170.519 226.606 168.76 225.997 165.982 225.987 165.938 225.978 165.894 225.97 165.85 225.24 167.239 223.892 168.197 222.34 168.43 220.81 168.647 219.269 168.115 218.2 167 217.31 167.903 216.153 168.496 214.9 168.69 213.549 168.888 212.169 168.675 210.94 168.08Z" fill="#FFA8A7"/><path d="M218.8 175.54 214.85 180.52 218.59 181.76 218.8 175.54Z" fill="#F28F8F"/><path d="M222 184.13 218.89 185.13C219.315 185.878 220.182 186.257 221.02 186.06 221.756 185.723 222.162 184.923 222 184.13Z" fill="#F28F8F"/><path d="M222 184.13 218.89 185.13C219.315 185.878 220.182 186.257 221.02 186.06 221.756 185.723 222.162 184.923 222 184.13Z" opacity="0.3"/><path d="M220 186C220.327 186.093 220.673 186.093 221 186 221.594 185.772 221.989 185.206 222 184.57 221.581 184.508 221.153 184.592 220.79 184.81 220.38 185.087 220.097 185.515 220 186Z" fill="#F28F8F"/><path d="M224.33 176.51C224.313 177.128 223.798 177.616 223.18 177.599 222.561 177.582 222.074 177.067 222.091 176.449 222.108 175.83 222.623 175.343 223.241 175.36 223.244 175.36 223.247 175.36 223.25 175.36 223.863 175.376 224.347 175.886 224.33 176.499 224.33 176.503 224.33 176.506 224.33 176.51Z" fill="#263238"/><path d="M215 175.83C214.983 176.448 214.468 176.936 213.85 176.919 213.231 176.902 212.744 176.387 212.761 175.769 212.778 175.15 213.293 174.663 213.911 174.68 213.914 174.68 213.917 174.68 213.92 174.68 214.533 174.696 215.017 175.206 215 175.819 215 175.823 215 175.826 215 175.83Z" fill="#263238"/><path d="M215.3 172.14 212.49 171.14C212.881 170.605 213.561 170.367 214.2 170.54 214.834 170.83 215.256 171.445 215.3 172.14Z" fill="#263238"/><path d="M221.74 172.72 224.69 172.17C224.399 171.575 223.77 171.221 223.11 171.28 222.419 171.464 221.889 172.02 221.74 172.72Z" fill="#263238"/><path d="M235.89 190 235.66 188.24C235.812 188.236 235.964 188.257 236.11 188.3 237.31 188.95 239.6 192.51 239.6 192.51 238.79 194.4 234.94 200.3 231.91 202.32 228.4 200.57 225.91 198.1 224 199 224.73 194.89 235.89 190 235.89 190Z" fill="#E0E0E0"/><path d="M242.69 254.79C234.27 242.97 215.69 215.62 216.81 193.29L212.98 193.93C211.39 215.93 228.83 244.65 240.98 259.54Z" fill="#263238"/><path d="M245.34 264.16 271.08 242.48 275.61 258.48C275.672 258.686 275.623 258.909 275.48 259.07L275.48 259.07 275.48 259.07 275.4 259.15 250 281.91C250.178 281.736 250.247 281.479 250.18 281.24Z" fill="#407BFF"/><path d="M245.34 264.16 271.08 242.48 275.61 258.48C275.672 258.686 275.623 258.909 275.48 259.07L275.48 259.07 275.48 259.07 275.4 259.15 250 281.91C250.178 281.736 250.247 281.479 250.18 281.24Z" opacity="0.15"/><path d="M246.44 268.07 242.41 253.82 246.44 268.07 246.44 268.07Z" fill="#407BFF"/><path d="M239.68 252.3 239.68 252.3Z" fill="#407BFF"/><path d="" fill="#407BFF"/><path d="M239.63 252.34 239.63 252.34Z" fill="#407BFF"/><path d="M250 281.92 250 281.92Z" fill="#407BFF"/><path d="M272.02 245.82 272.02 245.82 272.02 245.82 272.02 245.82Z" fill="#407BFF"/><path d="M239.39 253.1C239.352 252.822 239.444 252.541 239.64 252.34L239.64 252.34 239.64 252.34C239.854 252.153 240.138 252.065 240.42 252.1L240.42 252.1C241.358 252.255 242.12 252.942 242.37 253.86L246.37 268.11 250.1 281.28C250.167 281.519 250.098 281.776 249.92 281.95L249.92 281.95C249.746 282.121 249.493 282.183 249.26 282.11L244.26 280.59C243.486 280.371 242.918 279.709 242.82 278.91Z" fill="#407BFF"/><path d="M239.39 253.1C239.352 252.822 239.444 252.541 239.64 252.34L239.64 252.34 239.64 252.34C239.854 252.153 240.138 252.065 240.42 252.1L240.42 252.1C241.358 252.255 242.12 252.942 242.37 253.86L246.37 268.11 250.1 281.28C250.167 281.519 250.098 281.776 249.92 281.95L249.92 281.95C249.746 282.121 249.493 282.183 249.26 282.11L244.26 280.59C243.486 280.371 242.918 279.709 242.82 278.91Z" opacity="0.3"/><path d="M254.37 254.91 258.92 271.24 258.2 271.92 253.8 255.73 254.37 254.91Z" fill="#407BFF"/><path d="M264.02 246.28 268.57 262.61 267.85 263.29 263.45 247.1 264.02 246.28Z" fill="#407BFF"/><path d="M265.1 229.6 265.1 229.6C265.1 229.6 265.1 229.6 265.1 229.6 265.304 229.418 265.58 229.337 265.85 229.38 266.806 229.519 267.591 230.209 267.85 231.14L271.32 243.43C271.734 244.91 271.263 246.495 270.11 247.51L267.43 249.84 249.11 265.78C248.172 266.595 246.751 266.496 245.936 265.559 245.719 265.31 245.56 265.017 245.47 264.7L242.4 253.86C242.15 252.942 241.388 252.255 240.45 252.1L240.45 252.1C240.168 252.065 239.884 252.153 239.67 252.34Z" fill="#407BFF"/><path d="M265.1 229.6 265.1 229.6C265.1 229.6 265.1 229.6 265.1 229.6 265.304 229.418 265.58 229.337 265.85 229.38 266.806 229.519 267.591 230.209 267.85 231.14L271.32 243.43C271.734 244.91 271.263 246.495 270.11 247.51L267.43 249.84 249.11 265.78C248.172 266.595 246.751 266.496 245.936 265.559 245.719 265.31 245.56 265.017 245.47 264.7L242.4 253.86C242.15 252.942 241.388 252.255 240.45 252.1L240.45 252.1C240.168 252.065 239.884 252.153 239.67 252.34Z" fill="#FFFFFF" opacity="0.2"/><path d="M280.84 230.79 280 243.23C278.24 255.64 276 257.59 270.29 259.23 264.58 260.87 267.93 253.78 268.67 252.46 269.215 251.28 269.598 250.032 269.81 248.75 267.02 251.27 266.31 251 265.2 250.23 264.76 249.89 266.85 248.07 266.85 248.07 267.955 245.686 269.396 243.474 271.13 241.5L270.47 230.74Z" fill="#FFA8A7"/><path d="M244 193.6C252 192.26 257.24 196.29 260.88 198.6 263.51 200.29 273.17 207.6 278.32 211.49 280.398 213.047 281.591 215.515 281.52 218.11L281.24 231.26C277.781 233.073 273.618 232.902 270.32 230.81L269.37 221.17C269.37 221.17 258.15 215.71 250.61 212.27 243.07 208.83 242.12 199.22 244 193.6Z" fill="#E0E0E0"/></g><g id="freepik--Clouds--inject-50"><path d="M381.77 61.9C376.57 58.9 372.18 60.37 370.77 65.03 369.51 62.4698 367.565 60.3096 365.15 58.79 361.08 56.44 357.77 58.32 357.76 63L357.76 65.15 352.31 62C349.46 60.36 347.14 61.68 347.13 65 347.319 68.6214 349.23 71.9337 352.27 73.91L398.56 100.63C401.42 102.28 403.74 100.96 403.75 97.69 403.557 94.0645 401.643 90.7496 398.6 88.77L393.13 85.61 393.13 81.61C393.17 74.37 388.07 65.54 381.77 61.9Z" fill="#E6E6E6"/><path d="M336.4 79.41C332.67 77.26 329.52 78.31 328.52 81.66 327.63 79.8209 326.244 78.2661 324.52 77.17 321.6 75.49 319.22 76.84 319.22 80.17L319.22 81.71 315.3 79.45C313.25 78.26 311.59 79.22 311.58 81.57 311.721 84.1691 313.096 86.5441 315.28 87.96L348.5 107.15C350.55 108.33 352.21 107.38 352.22 105.03 352.084 102.427 350.708 100.047 348.52 98.63L344.6 96.36 344.6 93.56C344.58 88.36 340.93 82 336.4 79.41Z" fill="#E6E6E6"/></g></svg>