<svg viewBox="0 0 500 500" xmlns="http://www.w3.org/2000/svg" xmlns:xlink="http://www.w3.org/1999/xlink" overflow="hidden"><g id="freepik--Floor--inject-5"><path d="M418.39 236.3C510.57 290.3 510.57 377.9 418.39 431.92 326.21 485.94 176.76 485.92 84.58 431.92-7.6 377.92-19.06 290.32 73.12 236.3 165.3 182.28 326.21 182.28 418.39 236.3Z" id="freepik--floor--inject-5" fill="#F5F5F5"/></g><g id="freepik--Shadows--inject-5"><path d="M133.33 423C127.486 423.098 121.715 421.682 116.58 418.89 110.4 415.32 106.58 410.35 105.25 404.12 103.19 394.47 107.71 383.79 112.25 377.57L113.53 375.8C121.46 364.87 125.82 358.8 124.27 352.6 122.42 345.12 97.8 346.13 71.92 348.13L64.92 348.67C48.26 349.92 23.56 346.99 21.2 339.36 20.31 336.45 22.52 333.43 27.79 330.36 48.1 318.63 84.66 297.47 84.66 297.47L85.66 299.2C85.66 299.2 49.1 320.36 28.79 332.09 25.79 333.82 22.38 336.37 23.11 338.74 24.76 344.09 45.79 348.07 64.77 346.64L71.77 346.11C98.77 344.02 123.95 342.97 126.22 352.11 127.99 359.26 123.43 365.55 115.15 376.96L113.87 378.73C109.61 384.62 105.33 394.68 107.25 403.73 108.46 409.39 111.95 413.91 117.62 417.19 127.82 423.08 141.91 421.25 148.17 417.67 157.17 412.52 193.09 392.01 193.09 392.01L194.09 393.74C194.09 393.74 158.15 414.26 149.17 419.4 145.19 421.58 139.41 423 133.33 423Z" id="freepik--Shadow--inject-5" fill="#E0E0E0"/><path d="M99.25 307.42 42.38 274.58 91.12 246.44 147.99 279.27 99.25 307.42Z" id="freepik--shadow--inject-5" fill="#E0E0E0"/><path d="M321.11 414.85 461.2 334C473.5 326.89 473.5 315.27 461.2 308.17L394.43 269.62C356.32 247.62 293.97 247.62 255.86 269.62L163 323.23C115.17 350.85 127.19 382.51 170.86 407.81 214.53 433.11 273.28 442.46 321.11 414.85Z" id="freepik--shadow--inject-5" fill="#E0E0E0"/></g><g id="freepik--Plants--inject-5"><g id="freepik--plants--inject-5"><path d="M77.8 262C77.8 262 76.43 248 69.66 237.1 62.89 226.2 53.47 219.25 44.58 218.41 35.69 217.57 28.38 225.64 37.81 231.41 47.24 237.18 64.06 243.18 71.51 264.32Z" fill="#407BFF"/><g opacity="0.15"><path d="M77.8 262C77.8 262 76.43 248 69.66 237.1 62.89 226.2 53.47 219.25 44.58 218.41 35.69 217.57 28.38 225.64 37.81 231.41 47.24 237.18 64.06 243.18 71.51 264.32Z"/></g><path d="M75.25 258.35 75.34 258.35C75.5825 258.257 75.7039 257.986 75.6112 257.743 75.6108 257.742 75.6104 257.741 75.61 257.74 66.61 234.47 48.87 224.54 40.76 222.54 40.5059 222.476 40.2485 222.631 40.185 222.885 40.1215 223.139 40.2759 223.396 40.53 223.46 48.47 225.46 65.84 235.18 74.73 258.08 74.8162 258.283 75.0344 258.396 75.25 258.35Z" fill="#FFFFFF"/><path d="M31.38 253.35C32.09 255.09 33.94 256.03 35.66 256.77 37.38 257.51 39.25 258.32 40.15 259.97 41.95 263.29 38.72 267.8 40.67 271.04 41.595 272.356 43.0192 273.234 44.61 273.47 45.9 273.74 47.22 273.78 48.53 273.92 49.1547 273.922 49.7791 273.889 50.4 273.82 52.2304 273.467 54.126 273.72 55.8 274.54 58.36 276.07 59.07 279.38 60.59 281.95 62.4847 285.025 65.6312 287.115 69.2 287.67 72.14 288.14 76.57 287.59 77.37 286.31 77.97 285.31 76.37 282.31 76.32 281.15 76.3027 278.202 76.008 275.263 75.44 272.37 75.1218 271.061 74.9673 269.717 74.98 268.37 74.98 266.86 75.07 265.37 75.1 263.85 75.13 262.33 75.55 260.95 75 259.29 74.4087 257.747 73.5897 256.301 72.57 255 71.62 253.66 70.66 252.34 69.68 251 68.5976 249.396 67.3138 247.937 65.86 246.66 63.2235 244.515 59.8191 243.553 56.45 244 53.69 244.39 50.97 245.86 48.15 245.65 45.33 245.44 42.73 244.65 39.92 244.77 36.9071 244.775 34.0638 246.165 32.21 248.54 31.1445 249.903 30.8329 251.709 31.38 253.35Z" fill="#407BFF"/><path d="M75.14 278.94 75.14 278.94C75.3615 278.893 75.5029 278.675 75.4558 278.454 75.4541 278.446 75.4522 278.438 75.45 278.43 69.3 252.63 42.4 248.22 36.08 248.51 35.8464 248.521 35.6643 248.716 35.67 248.95 35.6808 249.182 35.8773 249.361 36.1091 249.35 36.1094 249.35 36.1097 249.35 36.11 249.35 42.3 249.07 68.61 253.35 74.63 278.63 74.6932 278.85 74.9152 278.985 75.14 278.94Z" fill="#FFFFFF"/><path d="M45.49 265.17C45.5743 265.155 45.6514 265.113 45.71 265.05 50.8778 260.816 57.6597 259.098 64.22 260.36 64.4481 260.402 64.6672 260.251 64.7094 260.023 64.7096 260.022 64.7098 260.021 64.71 260.02 64.7468 259.792 64.5966 259.575 64.37 259.53 57.5439 258.219 50.489 260.023 45.13 264.45 44.9671 264.607 44.9625 264.867 45.1197 265.03 45.1231 265.033 45.1265 265.037 45.13 265.04 45.2239 265.136 45.3565 265.184 45.49 265.17Z" fill="#FFFFFF"/></g></g><g id="freepik--charger-station--inject-5"><g id="freepik--charger-station--inject-5"><path d="M97.73 157.39 89.6 133.94 74.13 125.01 74.14 143.77 74.14 143.77 74.14 289.17 97.73 302.79 97.73 157.39 97.73 157.39Z" fill="#407BFF"/><g opacity="0.5"><path d="M97.73 157.39 89.6 133.94 74.13 125.01 74.14 143.77 74.14 143.77 74.14 289.17 97.73 302.79 97.73 157.39 97.73 157.39Z"/></g><path d="M134.29 108.14 142.41 131.59 97.73 157.39 89.61 133.94 134.29 108.14Z" fill="#407BFF"/><path d="M134.29 108.14 142.41 131.59 97.73 157.39 89.61 133.94 134.29 108.14Z" opacity="0.2"/><path d="M134.29 108.14 118.82 99.21 74.14 125.01 89.61 133.94 134.29 108.14Z" fill="#407BFF"/><path d="M134.29 108.14 118.82 99.21 74.14 125.01 89.61 133.94 134.29 108.14Z" opacity="0.1"/><path d="M97.73 157.39C97.94 169.51 98.03 181.62 98.11 193.74L98.23 230.09 98.11 266.44 98 284.61 97.76 302.79 97.51 284.61 97.37 266.44 97.26 230.09 97.38 193.74C97.43 181.62 97.52 169.51 97.73 157.39Z" fill="#FFFFFF"/><path d="M142.41 131.59C138.98 133.81 135.49 135.94 132 138.05 128.51 140.16 125 142.2 121.45 144.27 117.9 146.34 114.36 148.33 110.78 150.27L105.41 153.21C103.6 154.16 101.81 155.14 99.98 156.06 101.7 154.94 103.44 153.88 105.17 152.78L110.4 149.6C113.89 147.49 117.4 145.45 120.95 143.38 124.5 141.31 128.04 139.32 131.61 137.38 135.18 135.44 138.77 133.45 142.41 131.59Z" fill="#FFFFFF"/><path d="M134 108.29C130.57 110.51 127.08 112.63 123.59 114.74 120.1 116.85 116.59 118.89 113.04 120.97 109.49 123.05 105.95 124.97 102.38 126.97L97 129.93C95.19 130.88 93.4 131.86 91.58 132.78 93.29 131.66 95.03 130.6 96.76 129.51L101.99 126.32C105.49 124.21 108.99 122.18 112.54 120.1 116.09 118.02 119.63 116.1 123.21 114.1 126.79 112.1 130.4 110.15 134 108.29Z" fill="#FFFFFF"/><path d="M97.73 157.39 142.41 131.59 142.42 277 97.73 302.79 97.73 157.39Z" fill="#407BFF"/><path d="M97.73 157.39 142.41 131.59 142.42 277 97.73 302.79 97.73 157.39Z" opacity="0.3"/><path d="M101.73 159.7 138.41 138.52 138.42 274.69 101.73 295.87 101.73 159.7Z" fill="#455A64"/><path d="M134.29 145.66 134.29 201.95 105.85 218.36 105.85 162.08 132.26 146.83 134.29 145.66Z" fill="#37474F"/><path d="M134.29 145.66 132.26 146.83 132.27 200.78 134.29 201.95 134.29 145.66Z" fill="#263238"/><path d="M132.27 200.78 105.85 216.02 105.85 162.08 132.26 146.83 132.27 200.78Z" fill="#407BFF"/><path d="M122.11 158.58 114.53 172.65 119.78 173.99 117.17 185.8 124.11 171.01 118.81 169.86 122.11 158.58Z" fill="#FAFAFA"/><path d="M111 194.43 128.13 184.54C128.73 184.19 129.22 184.44 129.22 185.09 129.164 185.827 128.759 186.492 128.13 186.88L111 196.78C110.41 197.12 109.92 196.88 109.92 196.23 109.972 195.492 110.374 194.824 111 194.43Z" opacity="0.15"/><path d="M111 199.13 128.13 189.23C128.73 188.89 129.22 189.13 129.22 189.78 129.165 190.517 128.76 191.183 128.13 191.57L111 201.47C110.41 201.81 109.92 201.57 109.92 200.92 109.972 200.185 110.374 199.519 111 199.13Z" opacity="0.15"/><path d="M111 203.82 128.13 193.93C128.73 193.58 129.22 193.82 129.22 194.47 129.164 195.209 128.759 195.878 128.13 196.27L111 206.16C110.41 206.51 109.92 206.26 109.92 205.62 109.971 204.882 110.372 204.212 111 203.82Z" opacity="0.15"/><path d="M76.94 183C76.94 180.47 77.84 178.71 79.25 178 79.44 177.9 80.25 177.46 80.4 177.34 81.65 176.62 83.34 176.7 85.19 177.77 89.05 180 92.19 185.66 92.19 190.41L92.19 201.46C92.19 203.85 91.4 205.54 90.12 206.36 89.86 206.53 88.91 207.06 88.69 207.18 87.45 207.88 85.78 207.79 83.95 206.73 80.08 204.5 76.95 198.84 76.95 194.09Z" fill="#407BFF"/><path d="M83.94 178.38C80.07 176.15 76.94 178.2 76.94 182.95L76.94 194C76.94 198.75 80.07 204.41 83.94 206.64 87.81 208.87 90.94 206.82 90.94 202.07L90.94 191C90.93 186.27 87.8 180.61 83.94 178.38Z" fill="#407BFF"/><path d="M83.94 178.38C80.07 176.15 76.94 178.2 76.94 182.95L76.94 194C76.94 198.75 80.07 204.41 83.94 206.64 87.81 208.87 90.94 206.82 90.94 202.07L90.94 191C90.93 186.27 87.8 180.61 83.94 178.38Z" fill="#FFFFFF" opacity="0.7"/><path d="M88.8 207C89.12 206.81 89.89 206.4 90.1 206.25 91.39 205.44 92.18 203.73 92.18 201.35L92.18 190.32C92.1179 188.016 91.5332 185.755 90.47 183.71L89.23 184.42C90.2903 186.462 90.8716 188.719 90.93 191.02L90.93 202.02C90.93 204.49 90.11 206.21 88.8 207Z" fill="#FFFFFF" opacity="0.5"/><path d="M86.49 207.51C86.7853 207.55 87.0847 207.55 87.38 207.51 87.0841 207.54 86.7859 207.54 86.49 207.51Z" fill="#FFFFFF" opacity="0.7"/><path d="M79.48 177.78C80.9731 177.249 82.631 177.472 83.93 178.38 86.2258 179.842 88.0628 181.921 89.23 184.38L90.47 183.67C89.3175 181.208 87.4856 179.126 85.19 177.67 83.34 176.6 81.65 176.52 80.4 177.24Z" fill="#FFFFFF" opacity="0.9"/><path d="M83.94 185C82.01 183.88 80.44 184.79 80.44 187 80.5699 189.464 81.871 191.716 83.94 193.06 85.87 194.17 87.43 193.27 87.43 191.06 87.3023 188.598 86.0052 186.346 83.94 185Z" fill="#37474F"/><path d="M81.28 186.56C81.2253 185.834 81.4589 185.115 81.93 184.56 82.627 184.449 83.3403 184.602 83.93 184.99 85.9787 186.324 87.2736 188.55 87.42 190.99 87.4736 191.716 87.2402 192.434 86.77 192.99 86.0743 193.105 85.3607 192.955 84.77 192.57 82.7185 191.234 81.4233 189.004 81.28 186.56Z" fill="#455A64"/></g></g><g id="freepik--Car--inject-5"><g id="freepik--car--inject-5"><path d="M205.77 236.73 205.77 236.73 204.87 240.48C202.8 244.36 198.22 249.26 196.58 248.85 195.11 248.49 194.21 246.35 193.75 243.71L193.75 243.71C193.53 242.448 193.403 241.171 193.37 239.89 193.23 235.73 195.08 226.05 200.84 223.47 202.027 222.965 203.404 223.275 204.26 224.24 205.03 225.009 205.603 225.952 205.93 226.99 206.89 229.87 205.9 236.58 205.77 236.73Z" fill="#407BFF"/><path d="M205.77 236.73 205.77 236.73C205.47 238.28 204.87 240.48 204.87 240.48 202.8 244.36 198.22 249.26 196.58 248.85 195.11 248.49 194.21 246.35 193.75 243.71L193.75 243.71C193.53 242.448 193.403 241.171 193.37 239.89 193.23 235.73 195.08 226.05 200.84 223.47 202.027 222.965 203.404 223.275 204.26 224.24 205.03 225.009 205.603 225.952 205.93 226.99 206.89 229.87 205.9 236.58 205.77 236.73Z" opacity="0.3"/><path d="M204.87 240.48C202.8 244.36 198.22 249.26 196.58 248.85 195.11 248.49 194.21 246.35 193.75 243.71L193.75 243.71C193.53 242.448 193.403 241.171 193.37 239.89 193.23 235.73 195.08 226.05 200.84 223.47 202.027 222.965 203.404 223.275 204.26 224.24L203.47 226.02C199.47 227.75 198.36 233.97 198.73 238.7 199.1 243.43 202.56 242.92 204.87 240.48Z" fill="#407BFF"/><path d="M204.87 240.48C202.8 244.36 198.22 249.26 196.58 248.85 195.11 248.49 194.21 246.35 193.75 243.71L193.75 243.71C193.53 242.448 193.403 241.171 193.37 239.89 193.23 235.73 195.08 226.05 200.84 223.47 202.027 222.965 203.404 223.275 204.26 224.24L203.47 226.02C199.47 227.75 198.36 233.97 198.73 238.7 199.1 243.43 202.56 242.92 204.87 240.48Z" opacity="0.35"/><path d="M205.92 227C204.46 225.46 200.84 225.38 197.8 229.57 194.76 233.76 193.8 240.93 193.75 243.72 193.531 242.454 193.401 241.174 193.36 239.89 193.22 235.74 195.07 226.05 200.83 223.48 203.24 222.37 205.23 224.83 205.92 227Z" fill="#37474F"/><path d="M396.38 224.89 339 193.24C336.581 191.539 333.869 190.299 331 189.58 333.48 175.51 313 159.22 294 164.64 294 164.64 251 182.64 240.4 193.99 224.56 210.99 205.4 229.71 199.68 244.34 198.68 246.99 295.39 343.27 295.39 343.27L335.4 366.4 438.91 248.34C430.73 231.87 420.12 218.92 396.38 224.89ZM293.91 170.69C301.86 168.57 307.45 168.51 315.01 175.5 320.11 180.23 321.78 194.32 317.31 196.66L285.06 213.56 285.01 213.56 284.66 213.74 284.66 213.74C281.78 215.25 282.14 212.08 282.66 209.35 283.88 202.44 286.46 187.93 287.9 179.76 288.43 175.49 290.29 171.65 293.91 170.69ZM206.47 246C209.9 234.44 232.08 212 237.11 207.35 249.7 195.78 260.11 188.05 263.52 186.18 272.03 181.52 276.44 179.26 279.41 177.8 283.11 175.98 284.17 176.85 284.08 177.91 284.03 178.43 283.95 179.07 283.82 179.82L279.82 201.44C279.15 204.58 278.29 205.25 273.06 208.1 253.69 218.62 206.6 245.94 206.47 246Z" fill="#407BFF"/><path d="M396.38 224.89 339 193.24C336.581 191.539 333.869 190.299 331 189.58 333.48 175.51 313 159.22 294 164.64 294 164.64 254.09 182.5 243.47 193.9 227.63 210.9 207.38 231.36 201.68 245.99 200.68 248.64 295.39 343.27 295.39 343.27L335.4 366.4 438.91 248.34C430.73 231.87 420.12 218.92 396.38 224.89ZM293.91 170.69C301.86 168.57 307.45 168.51 315.01 175.5 320.11 180.23 321.78 194.32 317.31 196.66L285.06 213.56 285.01 213.56 284.66 213.74 284.66 213.74C281.78 215.25 282.14 212.08 282.66 209.35 283.88 202.44 286.46 187.93 287.9 179.76 288.43 175.49 290.29 171.65 293.91 170.69ZM206.47 246C209.9 234.44 232.08 212 237.11 207.35 249.7 195.78 260.11 188.05 263.52 186.18 272.03 181.52 276.44 179.26 279.41 177.8 283.11 175.98 284.17 176.85 284.08 177.91 284.03 178.43 283.95 179.07 283.82 179.82L279.82 201.44C279.15 204.58 278.29 205.25 273.06 208.1 253.69 218.62 206.6 245.94 206.47 246Z" opacity="0.2"/><g id="freepik--codriver-seat--inject-5"><path d="M324.54 275.79 312.82 275.56 295 265.34C291.635 263.65 287.712 263.461 284.2 264.82L262.57 274.57 247.75 274.28 247.75 282.93 247.75 282.93C247.75 283.93 248.44 284.93 249.84 285.71L288.66 308.12C291.872 309.781 295.749 309.475 298.66 307.33L322.77 287.76C323.836 286.982 324.488 285.759 324.54 284.44L324.54 284.44Z" fill="#37474F"/><path d="M249.83 277.06 288.65 299.48C291.863 301.137 295.737 300.831 298.65 298.69L322.76 279.11C325.36 277 325.11 273.93 322.2 272.27L295 256.68C291.633 254.995 287.713 254.806 284.2 256.16L250.13 271.53C247.05 272.91 246.93 275.39 249.83 277.06Z" fill="#455A64"/><path d="M324.55 275.8 324.55 284.43 324.55 284.43C324.501 285.747 323.848 286.968 322.78 287.74L298.67 307.31C297.303 308.353 295.664 308.978 293.95 309.11L293.95 300.46C295.664 300.328 297.303 299.703 298.67 298.66L322.78 279.08C323.833 278.309 324.483 277.104 324.55 275.8Z" fill="#263238"/><path d="M328.29 273.23C328.41 274.017 328.092 274.806 327.46 275.29L317.57 280.99 317.57 280.99C318.231 280.532 318.563 279.731 318.42 278.94L316.27 230.64C316.05 228.41 314.834 226.399 312.96 225.17L289.66 211.73C288.938 211.231 288.004 211.155 287.21 211.53L287.21 211.53 297.02 205.87 297.02 205.87C297.826 205.46 298.792 205.521 299.54 206.03L322.82 219.47C324.7 220.695 325.921 222.707 326.14 224.94Z" fill="#263238"/><path d="M289.67 211.71 313 225.16C314.871 226.387 316.088 228.394 316.31 230.62L318.46 278.93C318.55 280.93 317.21 281.76 315.46 280.75L282.31 261.61C280.483 260.438 279.471 258.339 279.69 256.18L286 213.49C286.048 212.215 287.12 211.22 288.394 211.268 288.854 211.285 289.298 211.439 289.67 211.71Z" fill="#37474F"/><path d="M325.12 221.83 315.25 227.53C314.691 226.566 313.905 225.752 312.96 225.16L289.66 211.72C288.938 211.221 288.004 211.145 287.21 211.52L287.21 211.52 297.02 205.86 297.02 205.86C297.826 205.45 298.792 205.511 299.54 206.02L322.82 219.46C323.763 220.057 324.551 220.87 325.12 221.83Z" fill="#455A64"/><path d="M321.05 214.81 321.05 202.81C321.05 194.16 315.52 183.96 308.71 180.03 305.59 178.22 302.71 178.03 300.57 179.25L300.57 179.25 293 183.57 296.34 189.95 296.34 200.56C296.462 202.78 297.631 204.81 299.49 206.03L307 210.36 312.65 221.17 320.08 216.85 320.08 216.85C320.754 216.401 321.127 215.617 321.05 214.81Z" fill="#263238"/><path d="M308.71 197.12 318.38 191.54C316.12 186.61 312.63 182.26 308.71 180 305.59 178.19 302.71 178 300.57 179.22L300.57 179.22 293 183.57 296.34 189.95 296.34 192Z" fill="#455A64"/><path d="M313.65 219.11 313.65 207.11C313.65 198.46 308.12 188.26 301.31 184.32 294.5 180.38 289 184.2 289 192.85L289 204.85C289.122 207.07 290.291 209.1 292.15 210.32L310.51 220.91C312.23 221.94 313.65 221.13 313.65 219.11Z" fill="#37474F"/><path d="M290.37 222C287.501 232.658 286.128 243.664 286.29 254.7 286.446 256.984 287.53 259.105 289.29 260.57 295.046 264.834 301.273 268.421 307.85 271.26 308.996 271.904 310.447 271.497 311.091 270.351 311.318 269.946 311.422 269.483 311.39 269.02 312.049 257.21 312.086 245.374 311.5 233.56 311.222 231.277 310.085 229.185 308.32 227.71 304.098 224.621 299.555 221.996 294.77 219.88 293.195 219.142 291.319 219.821 290.581 221.396 290.49 221.59 290.42 221.792 290.37 222Z" fill="#407BFF"/><path d="M311.1 270.08C311.253 269.729 311.341 269.353 311.36 268.97 312.02 257.16 312.056 245.324 311.47 233.51 311.36 232.383 311.02 231.29 310.47 230.3 309.18 228.46 308.72 243.93 308.73 253.36 308.74 262.79 308.86 272.11 310.4 271.03L310.58 270.88C310.779 270.631 310.953 270.363 311.1 270.08Z" opacity="0.15"/><g opacity="0.15"><path d="M288.45 253.85 289.2 254.33C289.67 254.65 290.35 255.07 291.15 255.6 292.76 256.6 294.91 258 297.15 259.26 299.39 260.52 301.6 261.7 303.32 262.56 304.18 262.98 304.89 263.37 305.4 263.56 305.91 263.75 306.19 263.97 306.19 263.97L305.32 263.79C304.77 263.65 303.98 263.47 303.06 263.16 302.004 262.822 300.966 262.432 299.95 261.99 299.4 261.73 298.81 261.49 298.25 261.19 297.69 260.89 297.11 260.58 296.54 260.27 295.42 259.61 294.33 258.92 293.34 258.2 292.444 257.549 291.582 256.852 290.76 256.11 290.03 255.47 289.47 254.87 289.08 254.47 288.69 254.07 288.45 253.85 288.45 253.85Z"/><path d="M288.45 247.75C288.45 247.75 288.73 247.91 289.2 248.22 289.67 248.53 290.35 248.97 291.15 249.49 292.76 250.49 294.91 251.9 297.15 253.15 299.39 254.4 301.6 255.59 303.32 256.45 304.18 256.88 304.89 257.26 305.4 257.5L306.19 257.9C306.19 257.9 305.87 257.9 305.32 257.72 304.77 257.54 303.98 257.4 303.06 257.1 302.14 256.8 301.06 256.4 299.95 255.92 299.4 255.66 298.81 255.42 298.25 255.12 297.69 254.82 297.11 254.52 296.54 254.21 295.42 253.55 294.33 252.85 293.34 252.13 292.444 251.479 291.582 250.782 290.76 250.04 290.03 249.4 289.47 248.8 289.08 248.4 288.69 248 288.45 247.75 288.45 247.75Z"/><path d="M289.71 242.7 290.41 243.13C290.84 243.43 291.48 243.8 292.22 244.29 293.7 245.29 295.69 246.47 297.74 247.57 299.79 248.67 301.91 249.69 303.51 250.46L305.43 251.46C305.9 251.69 306.16 251.84 306.16 251.84L305.35 251.68C304.85 251.56 304.11 251.41 303.26 251.16 302.41 250.91 301.4 250.58 300.36 250.16 299.84 249.94 299.3 249.73 298.77 249.47 298.24 249.21 297.7 248.95 297.17 248.67 296.64 248.39 296.12 248.08 295.62 247.76 295.12 247.44 294.62 247.11 294.18 246.76 293.347 246.163 292.549 245.519 291.79 244.83 291.13 244.23 290.62 243.67 290.26 243.3 289.9 242.93 289.71 242.7 289.71 242.7Z"/><path d="M290.22 237C290.22 237 290.47 237.14 290.9 237.42 291.33 237.7 291.9 238.06 292.65 238.53 294.09 239.45 296.01 240.63 298 241.67 299.99 242.71 302 243.67 303.59 244.4L305.46 245.32 306.16 245.69C306.16 245.69 305.87 245.69 305.38 245.55 304.89 245.41 304.18 245.29 303.38 245.06 302.58 244.83 301.58 244.52 300.57 244.14 300.07 243.93 299.57 243.75 299.02 243.5 298.47 243.25 298.02 243 297.46 242.74 296.9 242.48 296.46 242.18 295.96 241.88 295.46 241.58 295.01 241.25 294.56 240.95 293.756 240.374 292.988 239.749 292.26 239.08 291.61 238.5 291.12 237.96 290.78 237.6 290.44 237.24 290.22 237 290.22 237Z"/><path d="M291.09 231.57 291.73 231.95 293.38 232.95C295.011 234.008 296.697 234.979 298.43 235.86 300.31 236.81 302.28 237.64 303.74 238.33 305.2 239.02 306.16 239.55 306.16 239.55 305.264 239.41 304.376 239.223 303.5 238.99 301.56 238.506 299.676 237.818 297.88 236.94 297.4 236.68 296.88 236.43 296.45 236.15 296.02 235.87 295.55 235.56 295.13 235.28 294.369 234.734 293.644 234.14 292.96 233.5 292.291 232.903 291.666 232.258 291.09 231.57Z"/><path d="M293.11 226.34C293.11 226.34 293.95 226.81 295.11 227.56 296.27 228.31 297.87 229.24 299.5 230.09 301.13 230.94 302.8 231.73 304.06 232.36 305.32 232.99 306.14 233.48 306.14 233.48 305.354 233.38 304.575 233.226 303.81 233.02 302.124 232.579 300.491 231.955 298.94 231.16 298.52 230.93 298.1 230.7 297.7 230.45 297.3 230.2 296.92 229.94 296.55 229.68 295.889 229.2 295.264 228.672 294.68 228.1 294.111 227.556 293.586 226.967 293.11 226.34Z"/></g><path d="M280.43 265.89C274.31 266.99 268.25 270.11 262.24 274.62 261 275.438 260.658 277.107 261.477 278.347 261.677 278.65 261.937 278.91 262.24 279.11 269.505 284.447 277.347 288.949 285.62 292.53 287.763 293.353 290.145 293.288 292.24 292.35 297.379 289.734 302.098 286.363 306.24 282.35 307.47 281.151 307.494 279.182 306.295 277.952 306.145 277.798 305.979 277.66 305.8 277.54 300.09 273.301 293.937 269.693 287.45 266.78 285.217 265.916 282.808 265.611 280.43 265.89Z" fill="#407BFF"/><g opacity="0.2"><path d="M265.51 276.88C265.51 276.88 265.9 276.98 266.51 277.18 267.12 277.38 268.11 277.68 269.22 278.1 271.923 279.133 274.547 280.363 277.07 281.78 279.586 283.209 281.984 284.837 284.24 286.65 286.07 288.16 287.17 289.29 287.17 289.29L283.83 287.22C281.83 285.98 279.18 284.37 276.47 282.84 273.76 281.31 271.01 279.84 268.93 278.74L266.42 277.4Z"/><path d="M271.35 273.52 272.35 273.82C273 274.03 273.95 274.32 275.05 274.75 277.756 275.773 280.38 277 282.9 278.42 285.419 279.844 287.818 281.473 290.07 283.29 291.9 284.8 293 285.93 293 285.93L289.67 283.86C287.67 282.62 285.01 281.01 282.3 279.48 279.59 277.95 276.84 276.48 274.77 275.38L272.3 274C271.69 273.72 271.35 273.52 271.35 273.52Z"/><path d="M276.36 270.67 277.36 270.97C278.01 271.19 278.96 271.47 280.07 271.9 282.774 272.925 285.395 274.155 287.91 275.58 290.435 277 292.837 278.629 295.09 280.45 296.111 281.277 297.088 282.154 298.02 283.08 298.02 283.08 296.68 282.26 294.68 281.01 292.68 279.76 290.03 278.16 287.31 276.63 284.59 275.1 281.86 273.63 279.78 272.53L277.27 271.19C276.7 270.87 276.36 270.67 276.36 270.67Z"/><path d="M281.83 268.33 282.83 268.6C283.43 268.79 284.3 269.05 285.31 269.43 287.8 270.362 290.214 271.485 292.53 272.79 294.843 274.099 297.04 275.601 299.1 277.28 300.77 278.67 301.78 279.72 301.78 279.72 301.78 279.72 301.46 279.55 300.92 279.21L298.7 277.85C296.86 276.72 294.42 275.25 291.93 273.85 289.44 272.45 286.93 271.09 285.03 270.07L282.74 268.82C282.14 268.52 281.83 268.33 281.83 268.33Z"/></g></g><g id="freepik--codriver-seat--inject-5"><path d="M378.06 307.17 366.34 306.94 348.5 296.72C345.134 295.034 341.213 294.845 337.7 296.2L316.08 306 301.26 305.71 301.26 314.36 301.26 314.36C301.26 315.36 301.95 316.36 303.36 317.14L342.18 339.56C345.393 341.223 349.272 340.913 352.18 338.76L376.29 319.19C377.356 318.415 378.011 317.197 378.07 315.88L378.07 315.88Z" fill="#37474F"/><path d="M303.36 308.45 342.18 330.86C345.391 332.526 349.27 332.22 352.18 330.07L376.29 310.5C378.89 308.38 378.65 305.32 375.74 303.65L348.5 288.07C345.135 286.379 341.212 286.19 337.7 287.55L303.63 302.91C300.58 304.29 300.45 306.77 303.36 308.45Z" fill="#455A64"/><path d="M378.07 307.18 378.07 315.82 378.07 315.82C378.021 317.137 377.368 318.358 376.3 319.13L352.19 338.7C350.828 339.745 349.191 340.37 347.48 340.5L347.48 331.85C349.191 331.72 350.828 331.095 352.19 330.05L376.3 310.48C377.355 309.701 378.005 308.49 378.07 307.18Z" fill="#263238"/><path d="M381.81 304.62C381.933 305.404 381.614 306.192 380.98 306.67L371.1 312.38 371.1 312.38C371.76 311.917 372.092 311.114 371.95 310.32L369.8 262C369.577 259.769 368.356 257.758 366.48 256.53L343.19 243.1C342.462 242.607 341.528 242.531 340.73 242.9L340.73 242.9 350.55 237.24 350.55 237.24C351.355 236.84 352.312 236.901 353.06 237.4L376.34 250.85C378.217 252.073 379.438 254.081 379.66 256.31Z" fill="#263238"/><path d="M343.19 243.1 366.48 256.54C368.354 257.766 369.574 259.772 369.8 262L371.94 310.32C372.03 312.32 370.69 313.14 368.94 312.14L335.79 293C333.965 291.831 332.952 289.736 333.17 287.58L339.5 244.89C339.523 243.62 340.572 242.609 341.842 242.633 342.329 242.641 342.802 242.805 343.19 243.1Z" fill="#37474F"/><path d="M378.64 253.22 368.78 258.91C368.213 257.948 367.425 257.135 366.48 256.54L343.19 243.1C342.462 242.607 341.528 242.531 340.73 242.9L340.73 242.9 350.55 237.24 350.55 237.24C351.355 236.84 352.312 236.901 353.06 237.4L376.34 250.85C377.287 251.442 378.077 252.255 378.64 253.22Z" fill="#455A64"/><path d="M374.57 246.19 374.57 234.19C374.57 225.53 369.05 215.33 362.23 211.4 359.11 209.59 356.23 209.4 354.09 210.62L354.09 210.62 346.57 215 349.9 221.39 349.9 232C350.017 234.221 351.193 236.252 353.06 237.46L360.56 241.8 366.21 252.61 373.64 248.28 373.64 248.28C374.313 247.809 374.67 247.005 374.57 246.19Z" fill="#263238"/><path d="M362.23 228.5 371.9 222.92C369.64 217.99 366.16 213.64 362.23 211.38 359.11 209.57 356.23 209.38 354.09 210.6L354.09 210.6 346.57 215 349.9 221.39 349.9 223.47Z" fill="#455A64"/><path d="M367.17 250.5 367.17 238.5C367.17 229.85 361.65 219.65 354.83 215.72 348.01 211.79 342.5 215.61 342.5 224.26L342.5 236.26C342.624 238.482 343.797 240.513 345.66 241.73L364 252.32C365.76 253.32 367.17 252.51 367.17 250.5Z" fill="#37474F"/><path d="M343.89 253.33C341.027 263.989 339.654 274.994 339.81 286.03 339.973 288.315 341.055 290.437 342.81 291.91 348.568 296.171 354.795 299.758 361.37 302.6 362.526 303.238 363.979 302.818 364.617 301.663 364.839 301.262 364.94 300.807 364.91 300.35 365.569 288.54 365.606 276.704 365.02 264.89 364.747 262.605 363.609 260.512 361.84 259.04 357.62 255.956 353.08 253.334 348.3 251.22 346.728 250.476 344.849 251.147 344.105 252.72 344.013 252.915 343.941 253.12 343.89 253.33Z" fill="#407BFF"/><path d="M364.62 301.46C364.773 301.109 364.861 300.733 364.88 300.35 365.539 288.54 365.576 276.704 364.99 264.89 364.877 263.763 364.537 262.671 363.99 261.68 362.7 259.85 362.25 275.31 362.26 284.74 362.27 294.17 362.38 303.5 363.93 302.41 363.991 302.365 364.048 302.315 364.1 302.26 364.301 302.012 364.475 301.744 364.62 301.46Z" opacity="0.15"/><g opacity="0.15"><path d="M342 285.23 342.75 285.71C343.22 286.04 343.9 286.46 344.75 286.98 346.35 287.98 348.5 289.39 350.75 290.64 353 291.89 355.21 293.08 356.92 293.94 357.78 294.37 358.49 294.75 359 294.99L359.79 295.39C359.79 295.39 359.47 295.34 358.92 295.21 358.37 295.08 357.58 294.89 356.66 294.59 355.74 294.29 354.66 293.89 353.55 293.41 353 293.15 352.42 292.91 351.86 292.61 351.3 292.31 350.72 292.01 350.15 291.7 349.03 291.04 347.93 290.34 346.95 289.62 346.051 288.969 345.186 288.272 344.36 287.53 343.63 286.89 343.08 286.29 342.68 285.89 342.28 285.49 342 285.23 342 285.23Z"/><path d="M342 279.13C342 279.13 342.28 279.29 342.75 279.61 343.22 279.93 343.9 280.35 344.75 280.88 346.35 281.93 348.5 283.28 350.75 284.54 353 285.8 355.21 286.97 356.92 287.83 357.78 288.26 358.49 288.64 359 288.88 359.51 289.12 359.79 289.29 359.79 289.29L358.92 289.1C358.37 288.96 357.58 288.79 356.66 288.48 355.74 288.17 354.66 287.78 353.55 287.3 353 287.05 352.42 286.81 351.86 286.5 351.3 286.19 350.72 285.9 350.15 285.59 349.03 284.93 347.93 284.24 346.95 283.52 345.97 282.8 345.08 282.08 344.36 281.43 343.64 280.78 343.08 280.19 342.68 279.79 342.28 279.39 342 279.13 342 279.13Z"/><path d="M343.23 274.08 343.93 274.51C344.36 274.81 345 275.19 345.74 275.67 347.23 276.67 349.21 277.85 351.27 278.96 353.33 280.07 355.43 281.08 357.03 281.85L358.96 282.8C359.42 283.03 359.68 283.18 359.68 283.18 359.68 283.18 359.39 283.18 358.88 283.02 358.37 282.86 357.64 282.76 356.78 282.5 355.92 282.24 354.93 281.92 353.88 281.5 353.37 281.28 352.82 281.08 352.29 280.81 351.76 280.54 351.22 280.29 350.69 280.01 350.16 279.73 349.69 279.42 349.15 279.11 348.61 278.8 348.15 278.46 347.7 278.11 346.87 277.513 346.075 276.869 345.32 276.18 344.65 275.58 344.14 275.03 343.78 274.65Z"/><path d="M343.74 268.38C343.74 268.38 344 268.53 344.42 268.8 344.84 269.07 345.42 269.45 346.17 269.91 347.61 270.83 349.53 272.01 351.52 273.05 353.51 274.09 355.57 275.05 357.11 275.79L358.98 276.71C359.43 276.93 359.68 277.08 359.68 277.08L358.9 276.93C358.41 276.82 357.7 276.68 356.9 276.44 356.1 276.2 355.1 275.91 354.09 275.52 353.59 275.32 353.09 275.13 352.54 274.88 351.99 274.63 351.54 274.39 350.98 274.13 350.42 273.87 349.98 273.56 349.48 273.26 348.98 272.96 348.53 272.64 348.08 272.33 347.274 271.757 346.506 271.132 345.78 270.46 345.13 269.88 344.64 269.34 344.3 268.98 343.96 268.62 343.74 268.38 343.74 268.38Z"/><path d="M344.61 263 345.26 263.39 346.91 264.39C348.526 265.441 350.195 266.409 351.91 267.29 353.79 268.29 355.76 269.08 357.22 269.77 358.68 270.46 359.64 270.98 359.64 270.98 358.747 270.84 357.863 270.653 356.99 270.42 355.052 269.951 353.169 269.281 351.37 268.42 350.88 268.16 350.37 267.9 349.94 267.62 349.51 267.34 349.03 267.04 348.61 266.75 347.849 266.208 347.124 265.616 346.44 264.98 345.784 264.364 345.172 263.702 344.61 263Z"/><path d="M346.63 257.72C346.63 257.72 347.47 258.2 348.63 258.94 349.79 259.68 351.39 260.63 353.02 261.47 354.65 262.31 356.33 263.11 357.58 263.75 358.83 264.39 359.66 264.86 359.66 264.86 358.877 264.76 358.102 264.606 357.34 264.4 355.65 263.961 354.014 263.337 352.46 262.54 352.04 262.31 351.62 262.08 351.22 261.83 350.82 261.58 350.44 261.32 350.07 261.06 349.413 260.578 348.789 260.053 348.2 259.49 347.632 258.941 347.107 258.349 346.63 257.72Z"/></g><path d="M334 297.27C327.88 298.37 321.82 301.49 315.81 306.01 314.57 306.828 314.228 308.497 315.047 309.737 315.247 310.04 315.507 310.3 315.81 310.5 323.077 315.831 330.92 320.329 339.19 323.91 341.332 324.73 343.712 324.669 345.81 323.74 350.948 321.122 355.667 317.752 359.81 313.74 361.04 312.55 361.073 310.587 359.882 309.357 359.727 309.196 359.556 309.053 359.37 308.93 353.651 304.703 347.492 301.105 341 298.2 338.776 297.327 336.374 297.008 334 297.27Z" fill="#407BFF"/><g opacity="0.2"><path d="M319 308.26 320 308.56C320.65 308.78 321.6 309.07 322.7 309.49 325.408 310.512 328.032 311.743 330.55 313.17 333.1 314.57 335.526 316.186 337.8 318 338.822 318.828 339.8 319.709 340.73 320.64L337.4 318.57C335.4 317.32 332.74 315.71 330.03 314.18 327.32 312.65 324.57 311.18 322.5 310.08L320 308.78C319.38 308.46 319 308.26 319 308.26Z"/><path d="M324.87 304.9C324.87 304.9 325.25 305 325.87 305.21 326.49 305.42 327.47 305.71 328.57 306.13 331.278 307.152 333.902 308.383 336.42 309.81 338.944 311.227 341.343 312.856 343.59 314.68 344.614 315.51 345.595 316.391 346.53 317.32L343.19 315.25C341.19 314 338.54 312.39 335.82 310.86 333.1 309.33 330.36 307.86 328.29 306.76L325.78 305.42C325.21 305.1 324.87 304.9 324.87 304.9Z"/><path d="M329.88 302.05C329.88 302.05 330.27 302.15 330.88 302.36 331.49 302.57 332.49 302.86 333.59 303.28 336.297 304.304 338.921 305.535 341.44 306.96 343.959 308.385 346.357 310.014 348.61 311.83 349.632 312.658 350.61 313.539 351.54 314.47L348.2 312.4C346.2 311.16 343.55 309.54 340.84 308.01 338.13 306.48 335.38 305.01 333.3 303.91L330.79 302.57Z"/><path d="M335.35 299.72C335.35 299.72 335.7 299.8 336.35 299.99 337 300.18 337.82 300.43 338.84 300.82 341.327 301.746 343.738 302.866 346.05 304.17 348.366 305.479 350.567 306.981 352.63 308.66 353.561 309.431 354.452 310.249 355.3 311.11 355.3 311.11 354.98 310.93 354.45 310.59L352.22 309.23C350.39 308.1 347.94 306.63 345.45 305.23 342.96 303.83 340.45 302.47 338.55 301.45L336.26 300.2Z"/></g></g><g id="freepik--back-car--inject-5"><path d="M453.82 297.99 413.76 274.86 436.01 262.01 457.68 275.69 453.82 297.99Z" fill="#407BFF"/><path d="M453.82 297.99 413.76 274.86 436.01 262.01 457.68 275.69 453.82 297.99Z" opacity="0.35"/><path d="M436.93 292.49 442.68 281.07 429 273.14 429 273.14C424.65 270.63 418.85 270.92 412.49 274.59 398.97 282.4 396.13 297.84 396.13 314.87 396.13 323.79 391.02 334.77 395.82 337.63L395.82 337.63 396.01 337.74 396.01 337.74 410.01 345.84 416.08 333.79C427.61 325 436.49 307.69 436.93 292.49Z" fill="#37474F"/><path d="M436.93 292.49 442.68 281.07 429 273.14 429 273.14C424.65 270.63 418.85 270.92 412.49 274.59 398.97 282.4 396.13 297.84 396.13 314.87 396.13 323.79 391.02 334.77 395.82 337.63L395.82 337.63 396.01 337.74 396.01 337.74 410.01 345.84 416.08 333.79C427.61 325 436.49 307.69 436.93 292.49Z" fill="#263238"/><path d="M451.2 299.52C451.2 314.21 443.05 331.2 432.13 340.6 430.459 342.039 428.662 343.324 426.76 344.44 413.24 352.25 402.27 344.77 402.28 327.74 402.28 314.88 408.54 300.23 417.43 290.48L417.5 290.4C420.182 287.402 423.304 284.829 426.76 282.77 440.24 275 451.2 282.5 451.2 299.52Z" fill="#37474F"/><path d="M426.72 293.1C435.32 288.1 442.3 293.31 442.3 304.66 442.3 316.01 435.3 329.25 426.72 334.22 418.14 339.19 411.14 334.01 411.14 322.65 411.14 311.29 418.12 298.07 426.72 293.1Z" fill="#455A64"/><path d="M433.74 310.46C433.19 316.11 429.6 322.13 425.74 323.89 424.393 324.661 422.712 324.53 421.5 323.56 420.12 322.41 419.41 320.03 419.72 316.85 420.26 311.2 423.84 305.19 427.72 303.43 428.598 302.98 429.602 302.839 430.57 303.03L430.57 303.03C432.81 303.57 434.13 306.35 433.74 310.46Z" fill="#FAFAFA"/><path d="M432.34 309.74C431.79 315.39 428.2 321.41 424.34 323.17 423.465 323.618 422.464 323.755 421.5 323.56 420.12 322.41 419.41 320.03 419.72 316.85 420.26 311.2 423.84 305.19 427.72 303.43 428.598 302.98 429.602 302.839 430.57 303.03L430.57 303.03C431.93 304.2 432.65 306.58 432.34 309.74Z" fill="#E0E0E0"/><path d="M451.2 299.52C451.2 314.21 443.05 331.2 432.13 340.6 439.7 332.033 445.035 321.727 447.66 310.6 449.73 300.78 448.95 286.69 440.53 283.13 432.11 279.57 421 287 417.46 290.45 420.142 287.452 423.264 284.879 426.72 282.82 440.24 275 451.2 282.5 451.2 299.52Z" fill="#455A64"/><path d="M377.2 283.88 376.69 284.17Z" fill="#407BFF"/><path d="M373.8 285.85 373.8 285.85 373.8 285.85ZM438.91 248.34C438.91 234.27 413.32 213.16 394.23 222.54 394.23 222.54 357.67 241.35 349.06 252.75 336.22 269.75 324.78 299.75 321.66 314.41 321.09 317.06 330.24 312.41 333.38 311.66 334.154 311.526 334.943 311.797 335.47 312.38L335.4 366.38 394.45 332.38C394.45 330.8 394.534 329.221 394.7 327.65 396.51 308.92 410.24 287.19 424.96 278.7 440.96 269.47 453.89 278.09 453.89 297.96 456.56 296.72 457.89 295.46 458.55 292.15 459.21 288.84 459.22 283.49 459.22 274.1 459.22 263.29 453.27 251.94 438.91 248.34ZM424 249.72 397.25 265.17 397.2 265.17 396.89 265.35 396.89 265.35C394.28 266.86 394.08 263.69 394.08 260.96 394.08 254.05 394.08 246.69 394.08 238.52 393.93 234.2 395.08 230.36 398.56 229.4 406.14 227.28 411.72 227.22 420.51 234.21 426.39 239 428 247.38 424 249.72ZM335.5 300.72C336.89 289.16 346.02 272.6 348.81 266.92 355.16 253.97 367.81 246.76 370.88 244.92 378.57 240.26 382.58 238 385.29 236.54 388.67 234.72 389.88 235.54 389.98 236.65 389.98 237.17 390.06 237.81 390.06 238.56L390.06 265.4C390.291 267.876 389.003 270.246 386.8 271.4 386.8 271.4 335.62 300.7 335.47 300.76Z" fill="#407BFF"/><path d="M394 274C394.796 275.208 395.324 276.571 395.55 278 395.55 278 422.65 261 430.77 257 439.48 252.628 450.086 255.673 455.15 264 455.15 264 452.7 256.87 445.81 253.68 437.81 249.97 433.36 252.28 418.21 260.24 403.06 268.2 394 274 394 274Z" fill="#FFFFFF" opacity="0.5"/><path d="M341.32 303.32 383.69 279.11C384.819 279.957 385.438 281.322 385.33 282.73Z" fill="#FFFFFF" opacity="0.5"/><path d="M376.52 294.79C376.364 294.884 376.161 294.833 376.067 294.677 376.037 294.627 376.021 294.569 376.02 294.51L376.02 293C376.02 291.82 377.79 289.84 379.96 288.59L383.17 286.73C385.35 285.48 387.12 285.41 387.12 286.59L387.12 287.87C387.117 288.403 386.831 288.894 386.37 289.16Z" fill="#37474F"/><path d="M343.67 351.73C341.27 353.01 340.78 347.86 339.41 337.83 338.04 327.8 338.17 311 338.17 311 336.52 318.52 337.17 336.72 338.17 348.38 339.17 360.04 341.33 358.96 343.67 357.22L385.54 331.07Z" opacity="0.15"/><path d="M387.21 276.92C387.21 276.92 390.32 280.57 390.32 288.48 390.32 297.99 390.42 329.35 390.42 329.35 390.42 329.35 392.18 295.44 393.25 287.55 394.32 279.66 390.32 275.21 390.32 275.21Z" opacity="0.15"/><path d="M426.25 236.8C422.693 231.22 417.024 227.323 410.54 226 399.96 223.92 391.85 228.8 386.74 231.51 386.4 231.69 386.05 231.87 385.74 232.08 381.62 234.53 368.81 241.8 362.74 246.5 356.92 251.01 349.54 259.98 346.36 266.44 339.12 281.17 334.84 293.29 333.88 298.32 333.62 299.7 332.29 304.58 334.24 303.81 334.57 303.68 336.12 302.93 336.48 302.73 344.48 298.35 355.59 292.06 355.59 292.06 355.59 292.06 376.66 279.55 385.72 274.32 387.25 273.44 387.67 273.17 389.52 272.01 391.37 270.85 415.99 256.88 424.08 252.18 429.16 249.25 429.53 242.54 426.25 236.8ZM390 264.3C390.21 266.759 388.925 269.104 386.74 270.25L386.59 270.34 386.39 270.46C383.44 272.28 377.81 275.55 373.39 277.97L373.28 278.03 373.04 278.17 373.04 278.17 373.04 278.17 372.71 278.36C357.46 286.68 336.84 299.04 336.71 299.1 339.752 288.283 343.813 277.779 348.84 267.73 355.19 254.78 367.84 246.73 370.93 244.88 378.62 240.22 382.63 237.96 385.34 236.5 388.72 234.68 389.93 235.5 390.03 236.61 390.03 237.13 390.11 237.77 390.11 238.52ZM422.63 249.53 397.19 264.22 397.14 264.22 396.83 264.4 396.83 264.4C394.22 265.91 394.02 262.74 394.02 260.01 394.02 253.1 394.02 246.69 394.02 238.52 393.87 234.2 395.02 230.36 398.5 229.4 406.08 227.28 411.66 227.22 420.45 234.21 426.39 239 426.72 247.19 422.66 249.53Z" fill="#263238"/><path d="M373.28 278 373.47 277.9C373.27 278.06 373.24 278.07 373.28 278Z" fill="#263238"/><path d="M376.58 276.14 375.47 276.78 375.95 276.5Z" fill="#263238"/><path d="" fill="#263238"/><path d="M373.33 278 373.7 277.78 373.83 277.71 373.31 278.01Z" fill="#263238"/><path d="M374.64 277.26 374.98 277.06 375.25 276.91 374.2 277.51 373.76 277.77 374.1 277.57 374.2 277.51Z" fill="#263238"/><path d="M390 264.3C390.21 266.759 388.925 269.104 386.74 270.25L386.59 270.34 386.39 270.46C383.44 272.28 377.81 275.55 373.39 277.97L373.28 278.03 373.04 278.17 373.04 278.17 373.04 278.17 372.71 278.36C357.46 286.68 336.84 299.04 336.71 299.1 339.752 288.283 343.813 277.779 348.84 267.73 355.19 254.78 367.84 246.73 370.93 244.88 378.62 240.22 382.63 237.96 385.34 236.5 388.72 234.68 389.93 235.5 390.03 236.61 390.03 237.13 390.11 237.77 390.11 238.52Z" opacity="0.5"/><path d="M422.66 249.53 397.22 264.22 397.17 264.22 396.86 264.4 396.86 264.4C394.25 265.91 394.05 262.74 394.05 260.01 394.05 253.1 394.05 246.69 394.05 238.52 393.9 234.2 395.05 230.36 398.53 229.4 406.11 227.28 411.69 227.22 420.48 234.21 426.39 239 426.72 247.19 422.66 249.53Z" opacity="0.5"/><path d="M431.59 233.33C420.72 219.04 405.13 202.1 361.73 180.33 318.33 158.56 310.52 156.44 287.21 167.56L287.21 167.56C274.66 173.12 248.39 185.39 240.4 193.96 241.413 193.773 242.448 193.743 243.47 193.87 258.56 197.97 335.66 245.21 348.38 253.69 348.602 253.341 348.845 253.007 349.11 252.69 357.72 241.29 394.28 222.48 394.28 222.48 405.34 216.96 420.77 221.71 431.69 233.34Z" fill="#407BFF"/><path d="M431.59 233.33C420.72 219.04 405.13 202.1 361.73 180.33 318.33 158.56 310.52 156.44 287.21 167.56L287.21 167.56C274.66 173.12 248.39 185.39 240.4 193.96 241.413 193.773 242.448 193.743 243.47 193.87 258.56 197.97 335.66 245.21 348.38 253.69 348.602 253.341 348.845 253.007 349.11 252.69 357.72 241.29 394.28 222.48 394.28 222.48 405.34 216.96 420.77 221.71 431.69 233.34Z" fill="#FFFFFF" opacity="0.5"/></g><g id="freepik--front-car--inject-5"><path d="M264.76 267.64C235.44 250.53 204.44 240.49 204.38 240.48 205.22 243.65 205.75 250.17 210.99 257.08 214.99 262.43 220.1 268.25 226.32 272.42 241 282.67 255.83 289.69 260.87 292.7 286.12 306.39 317.87 310.84 322.12 305.8 322.12 305.8 288.1 281.25 264.76 267.64Z" fill="#455A64"/><path d="M322.12 305.8C320.92 305.05 281 280.44 262.55 269.35 244.99 258.79 208.78 242.47 204.38 240.48 225.386 247.435 245.62 256.536 264.76 267.64 284.51 279.387 303.654 292.124 322.12 305.8Z" fill="#37474F"/><path d="M335.39 366.4 295.34 343.27 317.59 330.42 335.39 340.74 335.39 366.4Z" fill="#407BFF"/><path d="M335.39 366.4 295.34 343.27 317.59 330.42 335.39 340.74 335.39 366.4Z" opacity="0.35"/><path d="M318.9 360.65 324.66 349.23 311 341.3 311 341.3C306.64 338.8 300.85 339.08 294.48 342.76 280.96 350.57 270 370.7 270 387.76 270 396.68 273 402.97 277.81 405.82L277.81 405.82 278 405.93 278 405.93 292 414.03 298.07 402.03C309.59 393.18 318.46 375.84 318.9 360.65Z" fill="#37474F"/><path d="M318.9 360.65 324.66 349.23 311 341.3 311 341.3C306.64 338.8 300.85 339.08 294.48 342.76 280.96 350.57 270 370.7 270 387.76 270 396.68 273 402.97 277.81 405.82L277.81 405.82 278 405.93 278 405.93 292 414.03 298.07 402.03C309.59 393.18 318.46 375.84 318.9 360.65Z" fill="#263238"/><path d="M333.17 367.68C333.17 382.36 325.02 399.36 314.11 408.76 314.094 408.756 314.076 408.756 314.06 408.76 312.392 410.205 310.594 411.494 308.69 412.61 295.17 420.42 284.2 412.94 284.22 395.91 284.22 383.05 290.47 368.4 299.36 358.65L299.43 358.57C302.114 355.574 305.236 353.001 308.69 350.94 322.21 343.18 333.17 350.65 333.17 367.68Z" fill="#37474F"/><path d="M308.69 361.26C317.3 356.26 324.27 361.47 324.27 372.82 324.27 384.17 317.27 397.41 308.69 402.37 300.11 407.33 293.11 402.16 293.11 390.81 293.11 379.46 300.09 366.23 308.69 361.26Z" fill="#455A64"/><path d="M315.73 378.68C315.14 384.32 311.5 390.31 307.62 392.04 306.266 392.8 304.586 392.657 303.38 391.68 302.02 390.51 301.32 388.13 301.65 384.96 302.25 379.31 305.87 373.32 309.76 371.59 310.641 371.149 311.645 371.018 312.61 371.22 312.61 371.22 312.61 371.22 312.61 371.22 314.86 371.77 316.16 374.57 315.73 378.68Z" fill="#FAFAFA"/><path d="M314.34 378C313.75 383.64 310.12 389.63 306.23 391.36 305.348 391.798 304.345 391.928 303.38 391.73 302.02 390.56 301.32 388.18 301.65 385.01 302.25 379.36 305.87 373.37 309.76 371.64 310.641 371.199 311.645 371.069 312.61 371.27 312.61 371.27 312.61 371.27 312.61 371.27 314 372.4 314.67 374.79 314.34 378Z" fill="#E0E0E0"/><path d="M333.17 367.68C333.17 382.36 325.02 399.36 314.11 408.76 320.57 401.76 327.27 389.95 329.63 378.71 331.7 368.9 330.93 354.81 322.5 351.25 314.07 347.69 302.95 355.19 299.43 358.61 302.114 355.614 305.236 353.041 308.69 350.98 322.21 343.18 333.17 350.65 333.17 367.68Z" fill="#455A64"/><path d="M333.68 306.33C333.68 306.33 326.2 306.87 323.34 307.81 320.78 308.65 293.69 307.81 266.89 296.05 250.89 289.05 238.66 283.24 225.02 271.51 207.23 256.23 204.87 245.99 203.08 241.85 195.72 247.08 185.78 254.3 180.08 258.71 166.96 269.62 150.99 285.71 144.67 303.58 144.24 304.79 143.85 306.01 143.52 307.23 134.17 341.3 142.18 353.85 150.2 364.23 153.61 368.66 163.08 377.28 174.89 384.32 184.587 390.015 194.603 395.147 204.89 399.69 210.936 402.366 217.216 404.478 223.65 406 256.11 413.16 277.89 399.52 277.89 399.52 277.723 397.716 277.743 395.9 277.95 394.1 278.226 391.685 278.657 389.29 279.24 386.93 280.749 380.829 283.052 374.952 286.09 369.45 290.72 361.02 296.91 353.63 303.8 348.85 304.7 348.21 305.62 347.63 306.54 347.1 321.44 338.49 333.72 345.42 335.3 362.51 335.42 363.75 335.4 365.02 335.4 366.36L336.17 350.65 335.47 308.76C335.47 308.76 333.14 308.35 333.68 306.33Z" fill="#407BFF"/><path d="M203.16 254.19C222.98 284.26 262.33 305.65 306.97 314.19 309.68 314.71 310.76 317.12 308.45 318.63 304.34 321.31 297.4 322.75 288.61 321.06 248.43 309.3 220.61 294.06 201.68 272.25 199.87 270.16 197.41 266.4 196.68 263.73 195.68 259.98 195.82 256.35 197.16 253.59 198.4 251.08 201.64 251.88 203.16 254.19Z" opacity="0.2"/><path d="M184.15 342.53C188.7 344.92 197 336.89 201.15 333.67 205.3 330.45 195.78 321.93 190.5 323.19 183.1 325 180.13 340.41 184.15 342.53Z" fill="#455A64"/><path d="M204.88 399.73C208.721 401.438 212.662 402.914 216.68 404.15 211.83 402.22 215.92 392.62 212.28 389.05 208.47 385.32 196.28 379.64 181.52 371.12 166.76 362.6 156.81 353.36 154.52 356.22 150.52 361.35 147.31 360.4 147.29 360.39 148.23 361.74 149.19 363.02 150.15 364.27 153.56 368.7 163.03 377.32 174.84 384.36 184.55 390.056 194.58 395.188 204.88 399.73Z" fill="#455A64"/><path d="M217.4 404.37 217.4 404.37 217.4 404.37 217.4 404.37Z" fill="#455A64"/><g opacity="0.2"><path d="M199.63 244.34C191.39 252.73 183.9 261.94 178.28 272.25 172.595 282.503 168.747 293.671 166.91 305.25 165.907 311.001 165.438 316.833 165.51 322.67 165.549 328.463 166.682 334.197 168.85 339.57 169.1 340.24 169.397 340.892 169.74 341.52 170.08 342.16 170.39 342.8 170.74 343.42 171.473 344.648 172.284 345.827 173.17 346.95 174.045 348.091 174.99 349.177 176 350.2 177.046 351.176 178.144 352.094 179.29 352.95 181.635 354.641 184.117 356.133 186.71 357.41 189.31 358.733 191.981 359.911 194.71 360.94 196.05 361.49 197.44 361.88 198.82 362.32 199.51 362.52 200.21 362.68 200.91 362.86L201.96 363.12 203.02 363.3C205.845 363.846 208.725 364.064 211.6 363.95 217.392 363.637 223.095 362.391 228.49 360.26 231.21 359.26 233.9 358.08 236.62 356.91L244.76 353.47C250.2 351.19 255.7 349.03 261.28 347.09 266.86 345.15 272.47 343.33 278.1 341.6 283.73 339.87 289.37 338.25 294.79 335.99 300.247 333.845 305.406 331.009 310.14 327.55 314.89 324.06 318.822 319.576 321.66 314.41 318.993 319.72 315.169 324.363 310.47 328 305.771 331.614 300.63 334.611 295.17 336.92 289.71 339.172 284.14 341.144 278.48 342.83 272.88 344.65 267.31 346.52 261.8 348.56 256.29 350.6 250.8 352.81 245.43 355.09L237.32 358.57C234.63 359.74 231.91 360.93 229.13 361.99 223.558 364.223 217.662 365.54 211.67 365.89 208.656 366.021 205.637 365.809 202.67 365.26L201.56 365.07 200.46 364.8C199.73 364.62 199 364.46 198.27 364.26 196.84 363.8 195.39 363.4 194.01 362.84 191.223 361.772 188.498 360.547 185.85 359.17 183.164 357.836 180.598 356.273 178.18 354.5 176.969 353.593 175.811 352.618 174.71 351.58 173.642 350.505 172.64 349.366 171.71 348.17 170.783 346.974 169.931 345.722 169.16 344.42 168.79 343.76 168.46 343.08 168.16 342.42 167.802 341.755 167.488 341.066 167.22 340.36 165 334.767 163.85 328.807 163.83 322.79 163.756 316.822 164.282 310.862 165.4 305 167.424 293.297 171.485 282.039 177.4 271.74 183.457 261.588 190.944 252.36 199.63 244.34Z"/></g><path d="M242.71 286.91C242.71 286.91 212.71 270.14 201.62 243.68 201.62 243.68 188.78 255.77 180.81 271.79 175.388 282.723 171.453 294.333 169.11 306.31 169.11 306.31 175.75 280.57 187.06 264.74 197.67 249.88 200.25 246.23 206.34 255.96 211 263.43 226.08 281.49 242.71 286.91Z" fill="#FFFFFF" opacity="0.5"/><path d="M289.27 336.1C281.83 337.93 267.78 341.42 256.11 346.1 244.44 350.78 229.71 359.91 214.48 361.59 199.25 363.27 184 354.15 184 354.15 184 354.15 199.62 361.35 214.06 359.37 228.5 357.39 242.42 348.59 256.79 343.49 271.16 338.39 289.27 336.1 289.27 336.1Z" fill="#FFFFFF" opacity="0.5"/><path d="M268.89 385.18C267.47 384.98 263.89 385.93 257.89 387.66 251.89 389.39 250.42 389.55 248.19 391.09 246.3 392.39 241.26 396.5 238.83 397.75 234.97 399.75 238.83 401.18 249.62 401.19 260.41 401.2 264.06 397.97 266.54 394.66 269.02 391.35 272.13 385.63 268.89 385.18Z" fill="#455A64"/><path d="M142.31 326.55C141.989 328.506 141.788 330.48 141.71 332.46 141.645 336.366 142.398 340.242 143.92 343.84 144.39 344.94 145.21 346.19 146.41 346.08 146.88 346.03 145.89 329.65 145.66 328.08 145.43 326.51 145.25 325.14 145.04 323.67 144.96 323.13 144.76 322.46 144.22 322.41 143.32 322.29 142.71 324.29 142.31 326.55Z" fill="#455A64"/><path d="M159.42 312.11C160.5 307.53 160.42 299.92 160.62 295.24 160.685 290.823 161.198 286.424 162.15 282.11 162.72 279.19 163.15 276.79 162.25 275.75 154.82 284.07 148.25 293.56 144.66 303.58 144.23 304.79 143.84 306.01 143.51 307.23 143.18 308.45 142.89 309.55 142.6 310.68 143.29 314.18 146.4 318.99 150.5 319.42 155.24 319.9 158.33 316.7 159.42 312.11Z" fill="#455A64"/><path d="M157.61 278C158.4 277.352 159.413 277.043 160.43 277.14 161.43 277.28 161 278.8 160.78 279.44 160.39 280.58 160.01 281.73 159.62 282.88 159.33 283.72 159.16 284.79 158.05 284.88 156.68 284.94 155.96 283.3 155.72 282.19 155.519 280.55 156.248 278.935 157.61 278Z" fill="#407BFF"/><path d="M157.61 278C158.4 277.352 159.413 277.043 160.43 277.14 161.43 277.28 161 278.8 160.78 279.44 160.39 280.58 160.01 281.73 159.62 282.88 159.33 283.72 159.16 284.79 158.05 284.88 156.68 284.94 155.96 283.3 155.72 282.19 155.519 280.55 156.248 278.935 157.61 278Z" fill="#FFFFFF" opacity="0.65"/><path d="M148.16 316.35C150.113 317.695 152.764 317.359 154.32 315.57 155.541 314.292 156.437 312.738 156.93 311.04 159.36 303.81 158.2 295.93 156.93 288.41 156.864 287.533 156.54 286.694 156 286 154.16 284.07 150.94 287.54 149.77 288.77 147.876 290.766 146.355 293.086 145.28 295.62 143.81 299.09 142.43 304.15 143.2 307.95 143.83 310.92 145.49 314.67 148.16 316.35Z" fill="#407BFF"/><path d="M148.16 316.35C150.113 317.695 152.764 317.359 154.32 315.57 155.541 314.292 156.437 312.738 156.93 311.04 159.36 303.81 158.2 295.93 156.93 288.41 156.864 287.533 156.54 286.694 156 286 154.16 284.07 150.94 287.54 149.77 288.77 147.876 290.766 146.355 293.086 145.28 295.62 143.81 299.09 142.43 304.15 143.2 307.95 143.83 310.92 145.49 314.67 148.16 316.35Z" fill="#FFFFFF" opacity="0.65"/><path d="M150.45 291.55C147.583 295.021 147.339 299.964 149.85 303.7 150.298 304.475 151.054 305.024 151.93 305.21 152.866 305.252 153.746 304.76 154.2 303.94 154.638 303.131 154.898 302.238 154.96 301.32 155.25 298.513 155.31 295.687 155.14 292.87 155 289.4 152.48 289.21 150.45 291.55Z" fill="#FFFFFF" opacity="0.45"/><path d="M245 358.94C250 354.71 257.72 351.11 270.61 349.84 282.08 348.72 292.3 343.45 292.61 349.18 292.92 354.91 283.82 372.12 267.13 377.9 252.74 382.9 243.58 378.99 240.51 374.15 237.44 369.31 240.07 363.17 245 358.94Z" fill="#455A64"/><path d="M284.64 356.42C286.8 357.01 288.27 356.02 289.17 354.1 289.81 352.71 290.36 350.66 288.61 349.92 286.18 348.92 282.89 349.72 280.61 350.82 276.08 353 282.52 355.85 284.64 356.42Z" fill="#407BFF"/><path d="M284.64 356.42C286.8 357.01 288.27 356.02 289.17 354.1 289.81 352.71 290.36 350.66 288.61 349.92 286.18 348.92 282.89 349.72 280.61 350.82 276.08 353 282.52 355.85 284.64 356.42Z" fill="#FFFFFF" opacity="0.65"/><path d="M279 364.23C280.45 361.62 281.24 358.63 279.21 356.53 277.18 354.43 273.21 353.76 270.4 353.53 261.756 352.753 253.154 355.424 246.47 360.96 244.906 362.178 243.594 363.689 242.61 365.41 241.624 367.147 241.372 369.206 241.91 371.13 244.76 379.9 258.32 378.55 264.91 376.06 269.214 374.429 273.047 371.76 276.07 368.29 277.186 367.043 278.168 365.682 279 364.23Z" fill="#407BFF"/><path d="M279 364.23C280.45 361.62 281.24 358.63 279.21 356.53 277.18 354.43 273.21 353.76 270.4 353.53 261.756 352.753 253.154 355.424 246.47 360.96 244.906 362.178 243.594 363.689 242.61 365.41 241.624 367.147 241.372 369.206 241.91 371.13 244.76 379.9 258.32 378.55 264.91 376.06 269.214 374.429 273.047 371.76 276.07 368.29 277.186 367.043 278.168 365.682 279 364.23Z" fill="#FFFFFF" opacity="0.65"/><path d="M263.59 355.52C261.709 355.892 259.87 356.451 258.1 357.19 256.1 358.01 254.1 359.66 254.3 361.79 254.72 366.37 263.38 368.52 267.09 368.35 270.986 368.251 274.539 366.098 276.43 362.69 280.56 354.35 267.86 354.81 263.59 355.52Z" fill="#FFFFFF" opacity="0.45"/><path d="M243.42 193.9C225.94 208.9 216.55 219.9 203.47 238.22 200.85 242.75 208.8 259.98 224.52 272.71 267.06 307.19 320.14 313.86 325.52 308.3 333.09 281.4 340.93 265.48 348.35 253.72 335.61 245.24 258.51 198 243.42 193.9ZM322.26 305.29C322.084 305.927 321.478 306.348 320.82 306.29 307.47 306.29 266.82 300.84 228.28 271.48 208 256.05 207 240.62 206.66 239.41 216.94 223.6 225.98 213.87 241.37 199.9 242.943 198.481 245.201 198.117 247.14 198.97 268.25 208.19 314.14 234.53 338.6 252.18 340.822 253.778 341.496 256.786 340.17 259.18 330.65 276.37 327.17 288.16 322.26 305.29Z" fill="#37474F"/><path d="M322.26 305.29C322.084 305.927 321.478 306.348 320.82 306.29 307.47 306.29 266.82 300.84 228.28 271.48 208 256.05 207 240.62 206.66 239.41 216.94 223.6 225.98 213.87 241.37 199.9 242.943 198.481 245.201 198.117 247.14 198.97 268.25 208.19 314.14 234.53 338.6 252.18 340.822 253.778 341.496 256.786 340.17 259.18 330.65 276.37 327.17 288.16 322.26 305.29Z" opacity="0.5"/><path d="M349.19 309.49C347.33 318.32 337.56 320.18 330.24 319.96 326.36 319.85 323.17 319.14 322.24 318.58 319.41 316.95 320.72 313.58 322.24 311.58 324.8 308.26 336.31 301.58 343.53 301.37 347.71 301.24 350.48 303.3 349.19 309.49Z" fill="#407BFF"/><path d="M349.19 309.49C347.33 318.32 337.56 320.18 330.24 319.96 326.36 319.85 323.17 319.14 322.24 318.58 319.41 316.95 320.72 313.58 322.24 311.58 324.8 308.26 336.31 301.58 343.53 301.37 347.71 301.24 350.48 303.3 349.19 309.49Z" opacity="0.3"/><path d="M349.19 309.49C347.33 318.32 337.56 320.18 330.24 319.96 326.36 319.85 323.17 319.14 322.24 318.58 319.41 316.95 320.72 313.58 322.24 311.58 320.81 314.27 328.35 315.94 335.07 313.53 341.79 311.12 346.79 305.92 343.53 301.37 347.71 301.24 350.48 303.3 349.19 309.49Z" fill="#407BFF"/><path d="M349.19 309.49C347.33 318.32 337.56 320.18 330.24 319.96 326.36 319.85 323.17 319.14 322.24 318.58 319.41 316.95 320.72 313.58 322.24 311.58 320.81 314.27 328.35 315.94 335.07 313.53 341.79 311.12 346.79 305.92 343.53 301.37 347.71 301.24 350.48 303.3 349.19 309.49Z" opacity="0.35"/><path d="M349.19 309.49C347.33 318.32 337.56 320.18 330.24 319.96 337.53 319.75 343.33 315.55 345.53 310.96 347.73 306.37 346.05 301.96 343.53 301.38 347.71 301.24 350.48 303.3 349.19 309.49Z" fill="#37474F"/></g></g></g><g id="freepik--Cable--inject-5"><g id="freepik--cable--inject-5"><path d="M82.81 185.42C82.1778 185.008 81.4053 184.871 80.67 185.04 80.67 185.04 80.18 185.31 79.89 185.51 77.6248 187.193 77.1532 190.394 78.8365 192.659 79.8263 193.991 81.4011 194.76 83.06 194.72 83.8063 194.705 84.5389 194.517 85.2 194.17L85.89 193.77 85.89 193.77C86.4043 193.19 86.651 192.421 86.57 191.65 86.3663 189.098 84.9734 186.79 82.81 185.42Z" fill="#407BFF"/><path d="M191.36 335.47C190.07 337.25 188.08 338.12 187.2 337.47 185.352 336.259 184.835 333.78 186.046 331.932 187.257 330.084 189.736 329.568 191.584 330.778 191.689 330.847 191.792 330.921 191.89 331 192.64 331.71 192.66 333.68 191.36 335.47Z" fill="#263238"/><path d="M134.11 420.43C128.257 420.351 122.529 418.722 117.51 415.71 111.32 412.14 107.51 407.17 106.18 400.94 104.12 391.29 108.64 380.61 113.13 374.39L114.41 372.63C122.34 361.69 126.71 355.63 125.16 349.42 123.31 341.94 98.68 342.95 72.81 344.95L65.81 345.49C49.13 346.74 24.44 343.81 22.09 336.18 21.19 333.27 23.4 330.25 28.67 327.18 49 315.47 66.57 305.34 66.57 283.52 66.57 257.2 66.39 243.16 66.25 232.92 66.18 227.17 66.12 218.92 66.12 214.12 66.12 200.56 79.24 190.71 79.8 190.3 80.2446 189.969 80.8736 190.06 81.205 190.505 81.5364 190.95 81.4446 191.579 81 191.91 80.88 192 68.14 201.58 68.14 214.12 68.14 218.88 68.2 227.12 68.27 232.89 68.41 243.14 68.59 257.18 68.59 283.52 68.59 306.52 49.71 317.4 29.71 328.94 26.71 330.67 23.31 333.22 24.04 335.59 25.69 340.94 46.71 344.92 65.7 343.49L72.7 342.96C99.7 340.87 124.89 339.82 127.15 348.96 128.92 356.11 124.36 362.4 116.08 373.82L114.8 375.59C110.55 381.47 106.26 391.53 108.18 400.54 109.39 406.2 112.88 410.73 118.56 414 131.29 421.35 143.46 418.65 149.87 412.71 155.27 407.71 157.68 399.71 157.68 386.71 157.68 384.71 157.68 382.58 157.68 380.43 157.61 371.81 157.54 362.9 158.47 355.06 159.47 346.34 163.1 339.27 168.56 335.14 173.5 331.41 179.81 330.14 187.31 331.32 187.862 331.408 188.238 331.928 188.15 332.48 188.062 333.032 187.542 333.408 186.99 333.32 180.05 332.21 174.26 333.37 169.77 336.77 162.98 341.89 161.02 350.59 160.46 355.32 159.54 363.04 159.61 371.89 159.68 380.45 159.68 382.6 159.68 384.71 159.68 386.74 159.68 400.32 157.07 408.79 151.23 414.2 146.503 418.344 140.395 420.567 134.11 420.43Z" fill="#37474F"/></g></g><g id="freepik--speach-bubble--inject-5"><g id="freepik--speach-bubble--inject-5"><path d="M290.06 144.56 284.42 134 288.96 120.9 288.96 112.9 275.07 120.9 275.07 128.9 281.07 139.24C281.162 139.403 281.307 139.53 281.48 139.6L281.48 139.6Z" fill="#407BFF"/><path d="M290.06 144.56 284.42 134 288.96 120.9 288.96 112.9 275.07 120.9 275.07 128.9 281.07 139.24C281.162 139.403 281.307 139.53 281.48 139.6L281.48 139.6Z" opacity="0.2"/><path d="M323.23 49.08C323.074 46.1478 321.528 43.4659 319.07 41.86L315.68 39.86C313.06 38.5406 309.97 38.5406 307.35 39.86L255.35 70C252.889 71.6048 251.34 74.2864 251.18 77.22L251.18 134.43C251.34 137.364 252.889 140.045 255.35 141.65L258.74 143.65C261.357 144.981 264.453 144.981 267.07 143.65L283.79 133.99 289.79 144.31C290.036 144.736 290.58 144.881 291.006 144.635 291.19 144.529 291.33 144.36 291.4 144.16L297.7 125.98 319.11 113.58C321.571 111.975 323.12 109.294 323.28 106.36Z" fill="#407BFF"/><path d="M251.18 134.41C251.34 137.344 252.889 140.025 255.35 141.63L258.74 143.63C261.115 144.826 263.888 144.95 266.36 143.97 264.36 144.71 262.9 143.6 262.9 141.23L262.9 84C262.951 82.5518 263.371 81.1405 264.12 79.9L252.4 73.09C251.652 74.3347 251.232 75.7488 251.18 77.2Z" opacity="0.2"/><path d="M323.1 47.89C322.61 46.12 321 45.56 319.1 46.67L267.1 76.75C265.864 77.5104 264.85 78.583 264.16 79.86L252.42 73.1C253.11 71.8293 254.12 70.7608 255.35 70L307.35 39.92C309.973 38.6004 313.067 38.6004 315.69 39.92L319.09 41.92C321.181 43.2835 322.629 45.4383 323.1 47.89Z" fill="#FFFFFF" opacity="0.5"/><path d="M315.82 65.3C312.4 73.3 316.62 85.62 313.61 95.45 310.6 105.28 305.15 109.6 299.26 108.84 298.57 97.84 302.02 86.58 307.72 77.33 302.29 82.84 295 92 296.56 108.51 292.08 106.57 287.98 97.84 292.76 87.11 299.32 72.36 315.82 65.3 315.82 65.3Z" fill="#FFFFFF"/><path d="M279.85 77.73 269.45 105.31 278.38 106.84 275.6 129.04 286.43 100.49 277.52 98.55 279.85 77.73Z" fill="#FFFFFF"/></g></g></svg>