<svg viewBox="0 0 500 500" xmlns="http://www.w3.org/2000/svg" xmlns:xlink="http://www.w3.org/1999/xlink" overflow="hidden"><g id="freepik--Floor--inject-34"><g id="freepik--floor--inject-34"><ellipse cx="250.18" cy="339.43" rx="242.49" ry="137.64" fill="#F5F5F5"/></g></g><g id="freepik--Shadow--inject-34"><path d="M30.57 306.21 304.92 464.61C308.27 466.31 312.23 466.31 315.58 464.61L464.93 378.38C467.87 376.68 467.87 373.93 464.93 372.23L190.58 213.83C187.23 212.13 183.27 212.13 179.92 213.83L30.57 300.06C27.63 301.76 27.63 304.51 30.57 306.21Z" fill="#E0E0E0"/></g><g id="freepik--Plants--inject-34"><g id="freepik--plants--inject-34"><path d="M438.77 354.62 431.26 349.55C431.26 349.55 427.96 329.89 431.03 312.61 435.35 288.32 452.1 280.24 458.03 282.78 463.96 285.32 465.29 292.56 454.14 306.43 447.6 314.61 439 332 438.77 354.62Z" fill="#407BFF"/><g opacity="0.15"><path d="M438.77 354.62 431.26 349.55C431.26 349.55 427.96 329.89 431.03 312.61 435.35 288.32 452.1 280.24 458.03 282.78 463.96 285.32 465.29 292.56 454.14 306.43 447.6 314.61 439 332 438.77 354.62Z"/></g><path d="M436.19 344.89 436.27 344.89C436.566 344.854 436.777 344.585 436.741 344.289 436.741 344.286 436.74 344.283 436.74 344.28 434.03 321.41 443.69 296.6 454.19 286.73 454.403 286.521 454.405 286.179 454.196 285.966 454.194 285.964 454.192 285.962 454.19 285.96 453.976 285.75 453.634 285.75 453.42 285.96 442.73 296.01 432.89 321.23 435.64 344.43 435.684 344.698 435.918 344.894 436.19 344.89Z" fill="#FFFFFF"/><path d="M458.29 368C461.091 366.994 463.43 365.004 464.87 362.4 466.34 359.588 467.135 356.472 467.19 353.3 467.34 350.36 466.56 347.3 466.99 344.43 467.33 342.15 469.38 340.59 471.25 339.24 473.32 337.76 475.49 335.78 475.53 333.03 475.421 330.89 474.605 328.846 473.21 327.22 471.21 324.53 469.09 322.41 469.66 318.74 470.171 316.529 470.929 314.382 471.92 312.34 472.318 311.456 472.587 310.52 472.72 309.56 473.023 306.26 470.594 303.339 467.294 303.036 467.003 303.01 466.711 303.004 466.42 303.02 464.856 303.183 463.345 303.681 461.99 304.48 457.73 306.74 455.14 312.64 450.21 313.25 448.6 313.45 446.97 313.38 445.36 313.59 443.728 313.712 442.187 314.393 441 315.52 437.24 319.52 441.6 324.83 440 329.26 438.88 332.44 435.75 333.6 434 336.44 433.264 337.695 432.949 339.153 433.1 340.6 433.204 343.047 433.757 345.453 434.73 347.7 435.57 349.47 436.546 351.172 437.65 352.79 438.8 354.7 439.17 356.79 440.65 358.56 442.596 360.664 444.702 362.613 446.95 364.39 449.08 366.27 451.51 368.06 454.41 368.39 455.716 368.552 457.042 368.419 458.29 368Z" fill="#407BFF"/><g opacity="0.2"><path d="M458.29 368C461.091 366.994 463.43 365.004 464.87 362.4 466.34 359.588 467.135 356.472 467.19 353.3 467.34 350.36 466.56 347.3 466.99 344.43 467.33 342.15 469.38 340.59 471.25 339.24 473.32 337.76 475.49 335.78 475.53 333.03 475.421 330.89 474.605 328.846 473.21 327.22 471.21 324.53 469.09 322.41 469.66 318.74 470.171 316.529 470.929 314.382 471.92 312.34 472.318 311.456 472.587 310.52 472.72 309.56 473.023 306.26 470.594 303.339 467.294 303.036 467.003 303.01 466.711 303.004 466.42 303.02 464.856 303.183 463.345 303.681 461.99 304.48 457.73 306.74 455.14 312.64 450.21 313.25 448.6 313.45 446.97 313.38 445.36 313.59 443.728 313.712 442.187 314.393 441 315.52 437.24 319.52 441.6 324.83 440 329.26 438.88 332.44 435.75 333.6 434 336.44 433.264 337.695 432.949 339.153 433.1 340.6 433.204 343.047 433.757 345.453 434.73 347.7 435.57 349.47 436.546 351.172 437.65 352.79 438.8 354.7 439.17 356.79 440.65 358.56 442.596 360.664 444.702 362.613 446.95 364.39 449.08 366.27 451.51 368.06 454.41 368.39 455.716 368.552 457.042 368.419 458.29 368Z" fill="#FFFFFF"/></g><path d="M446.9 360.81 446.9 360.81C447.204 360.805 447.445 360.554 447.44 360.25 447.44 360.25 447.44 360.25 447.44 360.25 446.96 338.65 457.59 315.01 465.12 308.25 465.317 308.019 465.289 307.672 465.058 307.475 464.868 307.314 464.595 307.299 464.39 307.44 456.71 314.36 445.86 338.39 446.39 360.29 446.409 360.565 446.625 360.786 446.9 360.81Z" fill="#FFFFFF"/><path d="M450.88 334.49 451.04 334.49C456.179 333.173 461.447 332.426 466.75 332.26 467.051 332.219 467.262 331.942 467.221 331.641 467.188 331.396 466.995 331.203 466.75 331.17 461.35 331.347 455.986 332.108 450.75 333.44 450.462 333.517 450.291 333.813 450.368 334.101 450.368 334.104 450.369 334.107 450.37 334.11 450.445 334.33 450.648 334.481 450.88 334.49Z" fill="#FFFFFF"/></g><g id="freepik--plants--inject-34"><path d="M43.83 285.53 52.52 281.62C52.52 281.62 56.3 264.23 56.34 250.48 56.4 231.15 46.34 206.88 31.07 210.79 15.8 214.7 35.32 236.38 38.46 253.09 41.6 269.8 43.83 285.53 43.83 285.53Z" fill="#407BFF"/><g opacity="0.15"><path d="M43.83 285.53 52.52 281.62C52.52 281.62 56.3 264.23 56.34 250.48 56.4 231.15 46.34 206.88 31.07 210.79 15.8 214.7 35.32 236.38 38.46 253.09 41.6 269.8 43.83 285.53 43.83 285.53Z"/></g><path d="M48.35 284 48.35 284C48.0754 283.959 47.8842 283.705 47.92 283.43 53.66 241.06 34.65 217.53 34.46 217.3 34.2917 217.082 34.3224 216.771 34.53 216.59 34.7431 216.417 35.0553 216.449 35.23 216.66 35.43 216.89 54.71 240.76 48.91 283.57 48.8737 283.843 48.6233 284.035 48.35 284Z" fill="#FFFFFF"/><path d="M38.36 288 44.55 285.22C44.55 285.22 46.76 273.22 42.33 257.99 38.47 244.71 26.76 232.83 20.1 234.41 13.44 235.99 13.1 240.56 15.8 245.66 18.5 250.76 36.37 264 38.36 288Z" fill="#407BFF"/><g opacity="0.2"><path d="M38.36 288 44.55 285.22C44.55 285.22 46.76 273.22 42.33 257.99 38.47 244.71 26.76 232.83 20.1 234.41 13.44 235.99 13.1 240.56 15.8 245.66 18.5 250.76 36.37 264 38.36 288Z" fill="#FFFFFF"/></g><path d="M41.58 287 41.58 287C41.3072 286.969 41.1107 286.723 41.14 286.45 43.97 259.58 20.56 238.85 20.33 238.65 20.1236 238.466 20.1015 238.151 20.28 237.94 20.4694 237.747 20.7796 237.744 20.9729 237.933 20.9753 237.935 20.9777 237.938 20.98 237.94 21.22 238.14 44.98 259.21 42.13 286.6 42.0841 286.86 41.8411 287.036 41.58 287Z" fill="#FFFFFF"/></g></g><g id="freepik--Device--inject-34"><g id="freepik--Mobile--inject-34"><g id="freepik--mobile--inject-34"><path d="M447.89 375.16 317.08 450.67C312.877 453.097 307.722 453.195 303.43 450.93L40.08 298.87C35.93 296.48 32.57 291.12 32.57 286.87 32.57 282.62 35.93 277.3 40.08 274.87L170.4 199.7C175.117 197.32 180.683 197.32 185.4 199.7L447.89 351.23C452.04 353.63 455.4 358.98 455.4 363.23 455.4 367.48 452 372.77 447.89 375.16Z" fill="#407BFF"/><g opacity="0.5"><path d="M170.4 199.7 40.08 274.94C35.93 277.33 32.57 282.69 32.57 286.94 32.57 291.19 35.93 296.52 40.08 298.94L303.43 450.93C305.453 451.964 307.688 452.515 309.96 452.54L309.96 271.6 185.43 199.7C180.705 197.31 175.125 197.31 170.4 199.7Z"/></g><g opacity="0.4"><path d="M317.08 450.67 447.89 375.16C452.04 372.77 455.4 367.41 455.4 363.16 455.4 358.91 452.04 353.59 447.89 351.16L310 271.6 310 452.54C312.485 452.561 314.93 451.915 317.08 450.67Z"/></g><path d="M314 437.21C309.835 439.32 304.915 439.32 300.75 437.21L40.05 286.72C34.44 283.48 34.44 278.19 40.05 274.95L170.39 199.7C175.107 197.32 180.673 197.32 185.39 199.7L447.88 351.23C452.01 353.62 452.01 357.52 447.88 359.9Z" fill="#407BFF"/><g opacity="0.3"><path d="M314 437.21C309.835 439.32 304.915 439.32 300.75 437.21L40.05 286.72C34.44 283.48 34.44 278.19 40.05 274.95L170.39 199.7C175.107 197.32 180.673 197.32 185.39 199.7L447.88 351.23C452.01 353.62 452.01 357.52 447.88 359.9Z"/></g><path d="M301.31 422.06C296.823 424.34 291.517 424.34 287.03 422.06L62.73 292.56C58.79 290.28 58.79 286.56 62.73 284.32L185.35 213.53C189.842 211.271 195.138 211.271 199.63 213.53L423.93 343C427.85 345.27 427.85 349 423.93 351.25Z" fill="#37474F"/><path d="M192.05 211.86C189.714 211.863 187.414 212.436 185.35 213.53L62.73 284.32C58.79 286.59 58.79 290.32 62.73 292.56L87.04 306.56 192.04 239.5Z" fill="#263238"/><path d="M199.71 218.89C195.221 216.619 189.919 216.619 185.43 218.89L62.82 289.68C62.1364 290.074 61.5216 290.578 61 291.17 61.5191 291.721 62.1194 292.19 62.78 292.56L287 422.06C291.487 424.34 296.793 424.34 301.28 422.06L423.9 351.28C424.591 350.888 425.216 350.388 425.75 349.8 425.236 349.242 424.639 348.767 423.98 348.39Z" fill="#455A64"/><path d="M107.55 251.21 129.28 238.66C130.58 237.91 130.64 236.74 129.43 236.04 127.988 235.335 126.296 235.365 124.88 236.12L103.15 248.67C101.85 249.42 101.78 250.59 103 251.29 104.442 251.995 106.134 251.965 107.55 251.21Z" fill="#37474F"/><path d="M144.87 229.7C145.574 229.455 145.946 228.685 145.701 227.981 145.566 227.592 145.26 227.286 144.87 227.15 143.483 226.45 141.847 226.45 140.46 227.15 139.756 227.395 139.384 228.165 139.629 228.869 139.764 229.258 140.07 229.564 140.46 229.7 141.847 230.4 143.483 230.4 144.87 229.7Z" fill="#37474F"/><path d="M153.68 224.6C154.381 224.364 154.759 223.604 154.523 222.903 154.389 222.505 154.077 222.194 153.68 222.06 152.293 221.36 150.657 221.36 149.27 222.06 148.569 222.296 148.191 223.056 148.427 223.757 148.561 224.155 148.873 224.466 149.27 224.6 150.654 225.31 152.296 225.31 153.68 224.6Z" fill="#37474F"/><path d="M83.2 265.29C83.9014 265.054 84.2786 264.294 84.0426 263.593 83.9089 263.195 83.5971 262.884 83.2 262.75 81.8169 262.05 80.1831 262.05 78.8 262.75 78.0986 262.986 77.7214 263.746 77.9574 264.447 78.0911 264.845 78.4028 265.156 78.8 265.29 80.1807 266 81.8193 266 83.2 265.29Z" fill="#37474F"/><path d="M92 260.2C92.7014 259.964 93.0786 259.204 92.8426 258.503 92.7089 258.105 92.3971 257.794 92 257.66 90.6169 256.96 88.9831 256.96 87.6 257.66 86.8986 257.896 86.5214 258.656 86.7574 259.357 86.8911 259.755 87.2029 260.066 87.6 260.2 88.9831 260.9 90.6169 260.9 92 260.2Z" fill="#37474F"/><path d="M122.69 338C124.054 338.847 124.928 340.298 125.04 341.9 125.092 342.441 124.842 342.967 124.39 343.27 124.11 343.42 123.04 344.06 122.75 344.22 122.19 344.465 121.542 344.393 121.05 344.03L90.51 326.35C89.1568 325.494 88.2889 324.047 88.17 322.45 88.1205 321.931 88.3439 321.424 88.76 321.11 89.05 320.93 90.16 320.29 90.45 320.11 91.0128 319.876 91.6568 319.952 92.15 320.31Z" fill="#407BFF"/><g opacity="0.4"><path d="M122.69 338C124.054 338.847 124.928 340.298 125.04 341.9 125.092 342.441 124.842 342.967 124.39 343.27 124.11 343.42 123.04 344.06 122.75 344.22 122.19 344.465 121.542 344.393 121.05 344.03L90.51 326.35C89.1568 325.494 88.2889 324.047 88.17 322.45 88.1205 321.931 88.3439 321.424 88.76 321.11 89.05 320.93 90.16 320.29 90.45 320.11 91.0128 319.876 91.6568 319.952 92.15 320.31Z"/></g><path d="M121.05 338.89 90.51 321.26C89.22 320.51 88.17 321.05 88.17 322.45 88.2889 324.047 89.1568 325.494 90.51 326.35L121.05 344C122.35 344.75 123.4 344.22 123.4 342.81 123.295 341.201 122.42 339.741 121.05 338.89Z" fill="#407BFF"/><g opacity="0.3"><path d="M121.05 338.89 90.51 321.26C89.22 320.51 88.17 321.05 88.17 322.45 88.2889 324.047 89.1568 325.494 90.51 326.35L121.05 344C122.35 344.75 123.4 344.22 123.4 342.81 123.295 341.201 122.42 339.741 121.05 338.89Z"/></g><path d="M81.81 314.35C83.1714 315.195 84.0453 316.642 84.16 318.24 84.2161 318.782 83.9654 319.31 83.51 319.61L81.87 320.61C81.3092 320.849 80.6643 320.777 80.17 320.42L65.78 312.11C64.4158 311.263 63.5416 309.812 63.43 308.21 63.3765 307.691 63.6007 307.181 64.02 306.87 64.31 306.69 65.42 306.05 65.72 305.87 66.2774 305.631 66.9196 305.703 67.41 306.06Z" fill="#407BFF"/><g opacity="0.4"><path d="M81.81 314.35C83.1714 315.195 84.0453 316.642 84.16 318.24 84.2161 318.782 83.9654 319.31 83.51 319.61L81.87 320.61C81.3092 320.849 80.6643 320.777 80.17 320.42L65.78 312.11C64.4158 311.263 63.5416 309.812 63.43 308.21 63.3765 307.691 63.6007 307.181 64.02 306.87 64.31 306.69 65.42 306.05 65.72 305.87 66.2774 305.631 66.9196 305.703 67.41 306.06Z"/></g><path d="M80.17 315.29 65.78 307C64.48 306.25 63.43 306.78 63.43 308.19 63.5416 309.792 64.4158 311.243 65.78 312.09L80.17 320.4C81.47 321.15 82.52 320.62 82.52 319.21 82.4146 317.601 81.5396 316.141 80.17 315.29Z" fill="#407BFF"/><g opacity="0.3"><path d="M80.17 315.29 65.78 307C64.48 306.25 63.43 306.78 63.43 308.19 63.5416 309.792 64.4158 311.243 65.78 312.09L80.17 320.4C81.47 321.15 82.52 320.62 82.52 319.21 82.4146 317.601 81.5396 316.141 80.17 315.29Z"/></g></g></g></g><g id="freepik--Window--inject-34"><g id="freepik--window--inject-34"><path d="M422.94 321.23 297.88 393.53C296.111 394.43 294.019 394.43 292.25 393.53L63 261.17C61.3398 260.085 60.2991 258.271 60.2 256.29L60.2 254.29C60.3024 252.302 61.3413 250.48 63 249.38L188.16 177.14C189.929 176.24 192.021 176.24 193.79 177.14L423 309.45C424.663 310.534 425.707 312.348 425.81 314.33L425.81 316.33C425.695 318.329 424.628 320.152 422.94 321.23Z" fill="#E0E0E0"/><path d="M193.64 177C191.49 175.76 189.25 176.48 187.1 177.73L64.1 248.73C62 250 62 252 64.11 253.27L291.22 384.39 291.22 384.39C293.616 385.781 296.574 385.781 298.97 384.39L421.97 313.39C423.213 312.67 423.637 311.08 422.917 309.837 422.69 309.444 422.363 309.118 421.97 308.89L421.97 308.89Z" fill="#FAFAFA"/><path d="M191.26 177.48C191.904 177.477 192.537 177.649 193.09 177.98L421.47 309.83C422.193 310.256 422.435 311.187 422.009 311.911 421.878 312.133 421.693 312.319 421.47 312.45L298.47 383.45C296.405 384.637 293.865 384.637 291.8 383.45L64.65 252.33C63.97 251.94 63.58 251.46 63.58 251.02 63.58 250.58 63.97 250.1 64.65 249.71L187.65 178.71C188.726 177.995 189.971 177.574 191.26 177.49M191.26 176.41C189.777 176.495 188.343 176.967 187.1 177.78L64.1 248.78C62 250 62 252 64.11 253.27L291.22 384.39C293.617 385.776 296.573 385.776 298.97 384.39L421.97 313.39C423.213 312.67 423.637 311.08 422.917 309.837 422.69 309.444 422.363 309.118 421.97 308.89L193.64 177C192.918 176.579 192.096 176.358 191.26 176.36Z" fill="#E0E0E0"/><path d="M423 309.44 422 308.89C423.245 309.616 423.667 311.214 422.941 312.459 422.714 312.849 422.39 313.173 422 313.4L299 384.4C297.822 385.072 296.486 385.417 295.13 385.4L295 385.4 295 394.19C296.002 394.212 296.993 393.978 297.88 393.51L422.94 321.21C424.6 320.126 425.65 318.32 425.77 316.34L425.77 314.34C425.686 312.357 424.655 310.535 423 309.44Z" fill="#EBEBEB"/><path d="M95.75 271.57 268.67 371.37 399.52 295.91 226.53 196.06 95.75 271.57Z" fill="#407BFF"/><path d="M97.19 244.63C97.1133 244.614 97.0393 244.587 96.97 244.55L96.18 244.09 94.76 244.91C94.6754 244.967 94.5646 244.967 94.48 244.91L94.2 244.75 94.06 244.66 93.98 244.55 92.68 242C92.6749 241.967 92.6749 241.933 92.68 241.9 92.68 241.9 92.68 241.85 92.75 241.82L92.95 241.71C93.0111 241.686 93.0789 241.686 93.14 241.71 93.2215 241.726 93.2995 241.756 93.37 241.8L96.12 243.38 96.43 243.2C96.4886 243.182 96.5514 243.182 96.61 243.2 96.6915 243.216 96.7695 243.246 96.84 243.29L97.03 243.4C97.11 243.45 97.16 243.49 97.17 243.52 97.18 243.55 97.17 243.59 97.1 243.63L96.79 243.81 97.57 244.26C97.66 244.26 97.7 244.35 97.71 244.39 97.72 244.43 97.71 244.46 97.64 244.5L97.4 244.63C97.3321 244.654 97.2579 244.654 97.19 244.63ZM95.61 243.63 93.61 242.5 94.54 244.23Z" fill="#455A64"/><path d="M98.4 243.38C97.6106 243.259 96.8528 242.984 96.17 242.57 95.5757 242.303 95.0842 241.851 94.77 241.28 94.63 240.88 94.77 240.53 95.31 240.28 95.5277 240.159 95.7595 240.065 96 240 96.2321 239.941 96.4706 239.911 96.71 239.91 96.7524 239.898 96.7976 239.898 96.84 239.91 96.8699 239.921 96.8948 239.942 96.91 239.97L97.12 240.24C97.12 240.24 97.12 240.3 97.12 240.31L97 240.31C96.6499 240.319 96.3071 240.412 96 240.58 95.66 240.767 95.54 241.007 95.64 241.3 95.8872 241.716 96.2577 242.044 96.7 242.24 97.1984 242.557 97.7566 242.768 98.34 242.86 98.7532 242.933 99.1789 242.866 99.55 242.67 99.663 242.607 99.7672 242.53 99.86 242.44 99.9283 242.377 99.9799 242.298 100.01 242.21L98.73 241.47 98.14 241.81C98.0823 241.833 98.0177 241.833 97.96 241.81 97.8785 241.794 97.8005 241.764 97.73 241.72L97.55 241.62C97.46 241.62 97.41 241.53 97.4 241.49 97.39 241.45 97.4 241.43 97.48 241.39L98.42 240.84C98.4912 240.815 98.5688 240.815 98.64 240.84 98.7324 240.856 98.8207 240.89 98.9 240.94L100.72 241.99 100.87 242.09C100.882 242.119 100.882 242.151 100.87 242.18 100.87 242.493 100.63 242.783 100.15 243.05 99.6171 243.345 99.0036 243.46 98.4 243.38Z" fill="#455A64"/><path d="M110.08 236.3C110.68 236.65 110.81 237.15 110.35 237.41 109.72 237.658 109.01 237.599 108.43 237.25 107.82 236.9 107.7 236.41 108.15 236.14 108.783 235.892 109.496 235.951 110.08 236.3Z" fill="#455A64"/><path d="M106.35 235.1C105.723 235.389 105.449 236.131 105.737 236.758 105.795 236.884 105.874 237 105.97 237.1 106.134 237.272 106.363 237.366 106.6 237.36L106.6 237.36C106.91 237.36 107.09 237.2 106.94 237.01 106.604 236.659 106.615 236.102 106.966 235.766 107.037 235.697 107.12 235.641 107.21 235.6 107.975 235.255 108.839 235.202 109.64 235.45 109.97 235.53 110.26 235.45 110.25 235.25L110.25 235.25C110.25 235.1 110.05 234.95 109.8 234.88 108.66 234.549 107.439 234.626 106.35 235.1Z" fill="#455A64"/><path d="M104.6 234.09C103.602 234.564 103.177 235.757 103.651 236.755 103.697 236.85 103.75 236.943 103.81 237.03 103.968 237.226 104.208 237.336 104.46 237.33L104.46 237.33C104.77 237.33 104.94 237.18 104.82 236.99 104.299 236.283 104.449 235.288 105.155 234.767 105.25 234.697 105.352 234.637 105.46 234.59 106.766 233.991 108.239 233.86 109.63 234.22 109.95 234.28 110.22 234.22 110.21 234.01L110.21 234.01C110.21 233.85 109.98 233.69 109.7 233.64 107.999 233.196 106.197 233.355 104.6 234.09Z" fill="#455A64"/><path d="M128.73 223.16C128.67 223.152 128.612 223.132 128.56 223.1 128.51 223.1 128.48 223.03 128.48 222.99L128.42 221.59C128.42 221.59 128.42 221.52 128.42 221.49 128.42 221.46 128.42 221.43 128.48 221.41L128.91 221.16C128.963 221.148 129.017 221.148 129.07 221.16 129.133 221.168 129.195 221.188 129.25 221.22L133.95 223.93C133.991 223.952 134.022 223.987 134.04 224.03 134.04 224.03 134.04 224.1 133.99 224.13L133.55 224.38C133.498 224.397 133.442 224.397 133.39 224.38 133.326 224.375 133.264 224.355 133.21 224.32L129.62 222.25 129.62 223.16C129.621 223.203 129.592 223.24 129.55 223.25 129.494 223.266 129.436 223.266 129.38 223.25Z" fill="#455A64"/><path d="M131.49 221.57C131.427 221.566 131.368 221.541 131.32 221.5 131.279 221.482 131.249 221.444 131.24 221.4L131.18 219.99C131.176 219.957 131.176 219.923 131.18 219.89 131.182 219.854 131.206 219.822 131.24 219.81L131.66 219.57C131.715 219.553 131.775 219.553 131.83 219.57 131.894 219.575 131.956 219.595 132.01 219.63L136.7 222.34C136.76 222.34 136.79 222.4 136.8 222.44 136.81 222.48 136.8 222.51 136.75 222.54L136.31 222.79C136.257 222.802 136.203 222.802 136.15 222.79 136.087 222.782 136.025 222.762 135.97 222.73L132.38 220.66 132.38 221.57C132.381 221.613 132.352 221.65 132.31 221.66 132.254 221.671 132.196 221.671 132.14 221.66Z" fill="#455A64"/><path d="M134.91 219.36C134.962 219.343 135.018 219.343 135.07 219.36 135.129 219.344 135.191 219.344 135.25 219.36L135.96 219.77C136.008 219.789 136.045 219.83 136.06 219.88 136.067 219.918 136.046 219.956 136.01 219.97L135.51 220.26C135.455 220.282 135.395 220.282 135.34 220.26 135.28 220.27 135.22 220.27 135.16 220.26L134.45 219.84C134.407 219.817 134.373 219.783 134.35 219.74 134.346 219.702 134.366 219.667 134.4 219.65ZM137.45 220.83C137.502 220.814 137.558 220.814 137.61 220.83 137.676 220.831 137.742 220.848 137.8 220.88L138.51 221.29C138.553 221.314 138.585 221.353 138.6 221.4 138.622 221.426 138.622 221.464 138.6 221.49L138.09 221.78C138.038 221.797 137.982 221.797 137.93 221.78 137.867 221.772 137.805 221.752 137.75 221.72L137.03 221.31C136.988 221.29 136.955 221.254 136.94 221.21 136.94 221.21 136.94 221.14 136.94 221.11Z" fill="#455A64"/><path d="M141.47 219.79C141.418 219.807 141.362 219.807 141.31 219.79 141.247 219.79 141.184 219.773 141.13 219.74L140.25 219.23 138.55 220.23C138.498 220.247 138.442 220.247 138.39 220.23 138.327 220.229 138.265 220.212 138.21 220.18L137.7 219.88C137.643 219.85 137.592 219.81 137.55 219.76L137.47 219.62 136.37 217.05C136.32 216.94 136.37 216.86 136.37 216.82L136.78 216.58C136.831 216.559 136.889 216.559 136.94 216.58 137.003 216.585 137.064 216.602 137.12 216.63L140.03 218.31 140.5 218.04C140.552 218.024 140.608 218.024 140.66 218.04 140.723 218.04 140.786 218.057 140.84 218.09L141.36 218.39C141.36 218.39 141.45 218.45 141.46 218.49 141.47 218.53 141.46 218.56 141.41 218.59L140.94 218.86 141.82 219.37C141.82 219.37 141.91 219.43 141.92 219.47 141.927 219.508 141.906 219.546 141.87 219.56ZM139.34 218.73 137.78 217.83 138.4 219.27Z" fill="#455A64"/><path d="M138.77 215.7C138.722 215.681 138.685 215.64 138.67 215.59 138.663 215.552 138.684 215.514 138.72 215.5L140.77 214.32C140.822 214.303 140.878 214.303 140.93 214.32 140.994 214.323 141.057 214.344 141.11 214.38L141.63 214.67C141.673 214.694 141.705 214.733 141.72 214.78 141.742 214.806 141.742 214.844 141.72 214.87L140.18 215.76 141.06 216.33C141.103 216.241 141.169 216.166 141.25 216.11 141.323 216.054 141.4 216.004 141.48 215.96 141.687 215.835 141.913 215.747 142.15 215.7 142.405 215.638 142.668 215.611 142.93 215.62 143.208 215.63 143.483 215.673 143.75 215.75 144.039 215.835 144.317 215.952 144.58 216.1 144.836 216.24 145.069 216.418 145.27 216.63 145.394 216.768 145.477 216.938 145.51 217.12 145.519 217.281 145.465 217.438 145.36 217.56 145.236 217.714 145.083 217.843 144.91 217.94 144.67 218.082 144.411 218.186 144.14 218.25 143.891 218.308 143.635 218.331 143.38 218.32 143.136 218.314 142.894 218.277 142.66 218.21 142.435 218.151 142.217 218.067 142.01 217.96 141.962 217.941 141.925 217.9 141.91 217.85 141.894 217.822 141.894 217.788 141.91 217.76L142.36 217.5C142.406 217.487 142.454 217.487 142.5 217.5L142.69 217.5C142.807 217.554 142.932 217.588 143.06 217.6 143.169 217.615 143.281 217.615 143.39 217.6 143.493 217.592 143.594 217.569 143.69 217.53 143.78 217.53 143.86 217.45 143.95 217.41 144.04 217.37 144.25 217.15 144.22 216.99 144.19 216.83 144.06 216.67 143.8 216.52 143.574 216.392 143.32 216.323 143.06 216.32 142.807 216.302 142.555 216.354 142.33 216.47 142.249 216.515 142.174 216.573 142.11 216.64 142.074 216.681 142.047 216.729 142.03 216.78L142.03 216.88C142.01 216.922 141.974 216.954 141.93 216.97L141.43 217.26C141.379 217.282 141.321 217.282 141.27 217.26 141.207 217.26 141.144 217.243 141.09 217.21Z" fill="#455A64"/><path d="M82.08 254.02 80.57 253.15 82.08 252.27 83.6 253.15 82.08 254.02Z" fill="#455A64"/><path d="M84.36 252.71 81.33 250.96 82.84 250.08 85.87 251.83 84.36 252.71Z" fill="#455A64"/><path d="M86.63 251.4 82.09 248.77 83.6 247.9 88.15 250.52 86.63 251.4Z" fill="#455A64"/><path d="M88.9 250.08 82.84 246.58 84.36 245.71 90.42 249.21 88.9 250.08Z" fill="#455A64"/><path d="M190.41 185.8C190.077 185.722 189.729 185.747 189.41 185.87L183.74 189.13C183.37 189.35 183.59 189.81 184.24 190.18L187 191.77C187.386 191.992 187.81 192.141 188.25 192.21 188.423 192.224 188.597 192.224 188.77 192.21 188.936 192.207 189.099 192.169 189.25 192.1L194.92 188.84C195.28 188.62 195.06 188.16 194.41 187.84L191.66 186.25C191.273 186.028 190.85 185.875 190.41 185.8ZM188.13 192C187.939 191.964 187.756 191.892 187.59 191.79L184.83 190.2C184.35 189.92 184.17 189.56 184.44 189.4L190.12 186.14C190.193 186.098 190.276 186.077 190.36 186.08L190.53 186.08C190.721 186.118 190.904 186.189 191.07 186.29L193.82 187.88C194.3 188.15 194.48 188.52 194.21 188.68L188.54 191.94C188.415 192.008 188.269 192.029 188.13 192Z" fill="#455A64"/><path d="M186 189 189.26 190.88 188.36 191.39C188.252 191.441 188.128 191.441 188.02 191.39L185.6 190C185.25 189.8 185.11 189.53 185.3 189.41Z" fill="#455A64"/><path d="M186.42 188.79 187.48 188.17 190.74 190.05 189.67 190.66 186.42 188.79Z" fill="#455A64"/><path d="M187.9 187.94 188.96 187.32 192.22 189.21 191.16 189.82 187.9 187.94Z" fill="#455A64"/><path d="M190.65 186.6 193 188C193.43 188.25 193.43 188.56 193 188.81L192.65 189.02 189.39 187.14 190.23 186.65C190.359 186.581 190.509 186.563 190.65 186.6Z" fill="#455A64"/><path d="M191.89 186.13C192.04 186.03 192.62 186.22 193.19 186.55L193.7 186.85C194.27 187.17 194.61 187.52 194.46 187.62L194.2 187.8 191.61 186.29Z" fill="#455A64"/><path d="M176.32 195.53 180.35 191.5 184 195.57 180.22 194.31 176.32 195.53Z" fill="#455A64"/><path d="M308.58 368.55C307.405 368.567 306.245 368.285 305.21 367.73L301.76 365.73C300.479 365.231 299.845 363.787 300.344 362.506 300.597 361.857 301.111 361.343 301.76 361.09L378.87 316.44C380.992 315.351 383.508 315.351 385.63 316.44L389.07 318.44C390.351 318.939 390.985 320.383 390.486 321.664 390.233 322.313 389.719 322.827 389.07 323.08L312 367.73C310.948 368.29 309.771 368.572 308.58 368.55ZM382.25 316.92C381.297 316.897 380.354 317.117 379.51 317.56L302.4 362.21C301.895 362.422 301.536 362.879 301.45 363.42 301.45 363.84 301.8 364.28 302.4 364.63L305.85 366.63C307.572 367.49 309.598 367.49 311.32 366.63L388.43 322C388.935 321.788 389.294 321.331 389.38 320.79 389.38 320.37 389.03 319.93 388.43 319.58L384.99 317.58C384.147 317.131 383.204 316.904 382.25 316.92Z" fill="#E0E0E0"/><path d="M395.33 316.7 388.83 312.95C387.99 312.46 388.12 311.84 389.95 311.56L400.63 309.81C402.09 309.52 402.84 309.93 402.26 310.81L397.44 316.58C396.853 317.113 395.974 317.163 395.33 316.7Z" fill="#407BFF"/><path d="M298.88 374.38 294.64 371.93 298.88 369.49C299.187 369.313 299.292 368.922 299.115 368.615 298.938 368.308 298.547 368.203 298.24 368.38L293.37 371.19 288.49 368.38C288.186 368.205 287.798 368.308 287.62 368.61 287.444 368.917 287.547 369.308 287.85 369.49L292.09 371.93 287.85 374.38C287.548 374.552 287.442 374.937 287.614 375.239 287.616 375.243 287.618 375.246 287.62 375.25 287.735 375.445 287.943 375.566 288.17 375.57 288.283 375.57 288.393 375.539 288.49 375.48L293.37 372.67 298.24 375.48C298.336 375.539 298.447 375.57 298.56 375.57 298.788 375.571 298.998 375.448 299.11 375.25 299.288 374.951 299.19 374.564 298.891 374.386 298.887 374.384 298.884 374.382 298.88 374.38Z" fill="#E0E0E0"/><path d="M96.14 261.37C95.9486 261.366 95.7676 261.283 95.64 261.14 95.5074 260.974 95.4627 260.755 95.52 260.55L97.24 254.66C97.3457 254.323 97.7008 254.132 98.04 254.23 98.3746 254.325 98.5687 254.674 98.4734 255.008 98.4723 255.012 98.4712 255.016 98.47 255.02L97 260 106.34 259.14C106.686 259.1 106.998 259.348 107.038 259.693 107.039 259.699 107.04 259.704 107.04 259.71 107.075 260.062 106.817 260.375 106.466 260.409 106.464 260.41 106.462 260.41 106.46 260.41L96.18 261.36Z" fill="#455A64"/><path d="M104.18 254.14C104.063 254.125 103.95 254.084 103.85 254.02 103.77 253.95 103.72 253.89 103.72 253.82L103.61 251.22C103.605 251.16 103.605 251.1 103.61 251.04 103.62 250.975 103.661 250.919 103.72 250.89L104.51 250.43C104.603 250.384 104.707 250.366 104.81 250.38 104.926 250.395 105.038 250.433 105.14 250.49L113.84 255.49C113.919 255.529 113.98 255.597 114.01 255.68 114.031 255.749 113.996 255.822 113.93 255.85L113.11 256.32C113.018 256.369 112.913 256.387 112.81 256.37 112.691 256.363 112.574 256.329 112.47 256.27L105.83 252.43 105.89 254.12C105.888 254.197 105.834 254.262 105.76 254.28 105.651 254.303 105.539 254.303 105.43 254.28Z" fill="#455A64"/><path d="M208.73 198C208.32 198.09 206.3 198.48 205.96 198.58 205.62 198.68 205.38 198.75 205.47 199.02 205.565 199.388 205.632 199.762 205.67 200.14 205.67 200.34 205.55 200.44 205.14 200.52 203.968 200.813 202.768 200.98 201.56 201.02 200.416 201.049 199.272 200.979 198.14 200.81 197.71 200.75 197.71 200.58 197.71 200.42 197.71 200.26 197.66 200.08 197.64 199.9L197.64 199.77C197.598 199.669 197.548 199.572 197.49 199.48 197.367 199.327 197.186 199.233 196.99 199.22L194.1 198.54C193.33 198.35 193.19 198.54 193.03 198.63L192.48 198.92C192.24 199.034 192.085 199.274 192.08 199.54 192.08 199.85 192.08 200.64 193.4 201.42 193.745 201.607 194.106 201.761 194.48 201.88 195.42 202.152 196.385 202.326 197.36 202.4 200.302 202.773 203.285 202.662 206.19 202.07 210.09 201.07 209.72 200.87 210.19 200.55 210.66 200.23 211.19 199.23 210.75 198.73 210.457 198.345 210.062 198.051 209.61 197.88 209.313 197.888 209.018 197.929 208.73 198Z" fill="#455A64" fill-rule="evenodd"/><ellipse cx="129.61" cy="241.4" rx="7.34" ry="4.24" fill="#407BFF"/><path d="M138.24 234.77C137.901 234.574 137.611 234.304 137.39 233.98 137.215 233.722 137.151 233.406 137.21 233.1 137.298 232.739 137.485 232.41 137.75 232.15 138.13 231.748 138.572 231.41 139.06 231.15 139.655 230.792 140.293 230.513 140.96 230.32 141.477 230.161 142.01 230.064 142.55 230.03 142.954 229.996 143.361 230.017 143.76 230.09 144.017 230.136 144.269 230.21 144.51 230.31 144.59 230.36 144.63 230.41 144.61 230.48 144.589 230.557 144.533 230.619 144.46 230.65L143.52 231.2C143.44 231.245 143.351 231.272 143.26 231.28 143.184 231.29 143.106 231.29 143.03 231.28L142.73 231.28C142.534 231.256 142.336 231.256 142.14 231.28 141.858 231.31 141.581 231.367 141.31 231.45 140.96 231.557 140.625 231.704 140.31 231.89 139.73 232.23 139.4 232.57 139.31 232.89 139.22 233.21 139.41 233.57 139.85 233.89L140.64 234.38 141.49 234.84C142.033 235.139 142.652 235.271 143.27 235.22 144.191 235.108 145.057 234.725 145.76 234.12 145.919 233.981 146.042 233.806 146.12 233.61 146.172 233.438 146.146 233.252 146.05 233.1 145.895 232.887 145.693 232.713 145.46 232.59L145.38 232.59 143.96 233.41C143.864 233.459 143.758 233.486 143.65 233.49 143.553 233.498 143.455 233.477 143.37 233.43L142.65 233.02C142.584 232.99 142.544 232.922 142.55 232.85 142.571 232.777 142.622 232.715 142.69 232.68L145.37 231.13C145.466 231.081 145.572 231.054 145.68 231.05 145.777 231.042 145.875 231.063 145.96 231.11L147.07 231.75C147.423 231.937 147.731 232.2 147.97 232.52 148.155 232.777 148.23 233.097 148.18 233.41 148.103 233.787 147.919 234.135 147.65 234.41 147.255 234.811 146.799 235.149 146.3 235.41 145.752 235.727 145.172 235.985 144.57 236.18 144.033 236.343 143.48 236.444 142.92 236.48 142.403 236.503 141.886 236.459 141.38 236.35 140.906 236.252 140.448 236.087 140.02 235.86L139.58 235.62 139.1 235.35C138.93 235.26 138.78 235.16 138.63 235.07Z" fill="#455A64"/><path d="M149.64 228.67C149.17 228.94 148.92 229.18 148.89 229.4 148.86 229.62 149.05 229.85 149.46 230.09L152.08 231.6C152.148 231.627 152.19 231.697 152.18 231.77 152.162 231.845 152.11 231.908 152.04 231.94L151.15 232.45C151.06 232.504 150.956 232.532 150.85 232.53 150.754 232.541 150.656 232.524 150.57 232.48L145.86 229.76C145.799 229.731 145.763 229.667 145.77 229.6 145.77 229.53 145.77 229.47 145.91 229.42L146.79 228.91C146.881 228.858 146.985 228.83 147.09 228.83 147.191 228.817 147.293 228.838 147.38 228.89L147.61 229.02C147.652 228.805 147.744 228.602 147.88 228.43 148.104 228.187 148.368 227.984 148.66 227.83L149.18 227.53C149.271 227.478 149.375 227.45 149.48 227.45 149.581 227.437 149.683 227.458 149.77 227.51L150.44 227.89C150.505 227.92 150.541 227.99 150.53 228.06 150.53 228.12 150.48 228.18 150.39 228.23Z" fill="#455A64"/><path d="M152.65 225.41C153.475 224.934 154.399 224.657 155.35 224.6 155.788 224.569 156.227 224.589 156.66 224.66 157.054 224.713 157.435 224.831 157.79 225.01L158.04 225.13 158.32 225.3 158.6 225.46 158.81 225.59C159.061 225.757 159.267 225.984 159.41 226.25 159.532 226.48 159.567 226.746 159.51 227 159.443 227.296 159.298 227.569 159.09 227.79 158.8 228.098 158.462 228.358 158.09 228.56 157.673 228.805 157.226 228.997 156.76 229.13 156.313 229.261 155.854 229.344 155.39 229.38 154.956 229.411 154.52 229.391 154.09 229.32 153.714 229.262 153.348 229.154 153 229L152.76 228.88 152.47 228.72 152.2 228.56 151.98 228.41C151.725 228.252 151.518 228.027 151.38 227.76 151.257 227.527 151.222 227.257 151.28 227 151.349 226.705 151.494 226.433 151.7 226.21 151.973 225.896 152.294 225.626 152.65 225.41ZM156.33 225.91C156.112 225.807 155.879 225.739 155.64 225.71 155.421 225.68 155.199 225.68 154.98 225.71 154.775 225.739 154.574 225.789 154.38 225.86 154.2 225.929 154.026 226.013 153.86 226.11 153.707 226.201 153.56 226.301 153.42 226.41 153.309 226.506 153.22 226.626 153.16 226.76 153.11 226.882 153.11 227.018 153.16 227.14 153.233 227.306 153.355 227.445 153.51 227.54L153.69 227.66 153.94 227.81 154.2 227.96 154.42 228.06C154.637 228.166 154.87 228.237 155.11 228.27 155.329 228.295 155.551 228.295 155.77 228.27 155.972 228.243 156.17 228.192 156.36 228.12 156.542 228.049 156.719 227.965 156.89 227.87 157.043 227.784 157.187 227.684 157.32 227.57 157.433 227.475 157.522 227.355 157.58 227.22 157.63 227.098 157.63 226.962 157.58 226.84 157.502 226.678 157.381 226.539 157.23 226.44L157.04 226.32 156.78 226.18 156.53 226.03Z" fill="#455A64"/><path d="M156.94 223.37C156.86 223.32 156.83 223.27 156.84 223.2 156.853 223.109 156.914 223.032 157 223L157.88 222.49C157.975 222.437 158.081 222.409 158.19 222.41 158.286 222.399 158.384 222.416 158.47 222.46L161 224C161.382 224.23 161.815 224.363 162.26 224.39 162.732 224.411 163.199 224.289 163.6 224.04 164.01 223.8 164.2 223.55 164.18 223.28 164.16 223.01 163.94 222.77 163.54 222.54L161 221C160.937 220.973 160.9 220.908 160.91 220.84 160.91 220.77 160.91 220.72 161.05 220.67L161.93 220.15C162.025 220.108 162.126 220.081 162.23 220.07 162.33 220.066 162.43 220.087 162.52 220.13L167.22 222.85C167.3 222.85 167.33 222.94 167.32 223.01 167.309 223.089 167.255 223.154 167.18 223.18L166.29 223.7C166.198 223.75 166.095 223.778 165.99 223.78 165.893 223.784 165.797 223.763 165.71 223.72L165.47 223.59C165.438 223.812 165.356 224.024 165.23 224.21 165.032 224.49 164.767 224.717 164.46 224.87 164.036 225.13 163.574 225.323 163.09 225.44 162.679 225.545 162.254 225.589 161.83 225.57 161.439 225.56 161.051 225.493 160.68 225.37 160.333 225.252 159.998 225.101 159.68 224.92Z" fill="#455A64"/><path d="M172.18 220.43C171.952 220.562 171.715 220.675 171.47 220.77 171.258 220.851 171.041 220.917 170.82 220.97 170.632 221.015 170.442 221.049 170.25 221.07L169.81 221.07 171.96 222.31C172.027 222.333 172.069 222.4 172.06 222.47 172.047 222.55 171.994 222.617 171.92 222.65L171.04 223.16C170.944 223.209 170.838 223.236 170.73 223.24 170.633 223.248 170.535 223.227 170.45 223.18L163.82 219.36C163.759 219.331 163.723 219.267 163.73 219.2 163.73 219.13 163.78 219.07 163.87 219.02L164.75 218.51C164.845 218.457 164.951 218.429 165.06 218.43 165.157 218.417 165.257 218.438 165.34 218.49L165.57 218.62C165.575 218.531 165.592 218.444 165.62 218.36 165.663 218.247 165.72 218.139 165.79 218.04 165.89 217.899 166.007 217.771 166.14 217.66 166.324 217.506 166.521 217.369 166.73 217.25 167.12 217.025 167.541 216.86 167.98 216.76 168.415 216.653 168.862 216.6 169.31 216.6 169.74 216.597 170.169 216.641 170.59 216.73 170.975 216.811 171.348 216.942 171.7 217.12L172.06 217.32 172.41 217.53C172.675 217.695 172.903 217.913 173.08 218.17 173.232 218.387 173.316 218.645 173.32 218.91 173.302 219.188 173.205 219.455 173.04 219.68 172.811 219.989 172.518 220.245 172.18 220.43ZM170.82 218.43C170.643 218.302 170.452 218.194 170.25 218.11 169.814 217.89 169.327 217.794 168.84 217.83 168.4 217.866 167.973 218 167.59 218.22 167.28 218.366 167.039 218.628 166.92 218.95 166.86 219.21 166.98 219.46 167.31 219.69 167.425 219.777 167.545 219.857 167.67 219.93 167.801 220.007 167.938 220.074 168.08 220.13 168.476 220.315 168.915 220.391 169.35 220.35 169.797 220.323 170.232 220.193 170.62 219.97 170.929 219.824 171.172 219.567 171.3 219.25 171.37 218.94 171.21 218.67 170.82 218.39Z" fill="#455A64"/><path d="M174.35 213.21C174.441 213.158 174.545 213.13 174.65 213.13 174.749 213.118 174.85 213.135 174.94 213.18L175.94 213.75C176.01 213.8 176.05 213.85 176.04 213.92 176.022 213.995 175.97 214.058 175.9 214.09L174.81 214.72C174.72 214.774 174.616 214.802 174.51 214.8 174.413 214.81 174.315 214.789 174.23 214.74L173.23 214.17C173.163 214.147 173.121 214.08 173.13 214.01 173.143 213.93 173.196 213.863 173.27 213.83ZM177.89 215.21C177.98 215.156 178.084 215.128 178.19 215.13 178.286 215.119 178.384 215.136 178.47 215.18L179.47 215.75C179.55 215.8 179.58 215.85 179.57 215.92 179.555 215.997 179.503 216.061 179.43 216.09L178.35 216.72C178.254 216.769 178.148 216.796 178.04 216.8 177.943 216.804 177.847 216.783 177.76 216.74L176.76 216.17C176.695 216.144 176.655 216.079 176.66 216.01 176.678 215.932 176.729 215.866 176.8 215.83Z" fill="#455A64"/><path d="M181.21 215.55C181.449 215.422 181.626 215.201 181.7 214.94 181.73 214.697 181.653 214.453 181.49 214.27 181.25 213.976 180.966 213.72 180.65 213.51 180.202 213.19 179.738 212.893 179.26 212.62 178.71 212.3 178.2 212.04 177.73 211.82 177.307 211.617 176.865 211.456 176.41 211.34 176.031 211.244 175.64 211.203 175.25 211.22 174.885 211.243 174.528 211.339 174.2 211.5 174.103 211.548 173.998 211.575 173.89 211.58 173.794 211.591 173.696 211.574 173.61 211.53L172.94 211.14C172.879 211.11 172.84 211.048 172.84 210.98 172.859 210.9 172.914 210.833 172.99 210.8 173.539 210.482 174.137 210.259 174.76 210.14 175.376 210.04 176.004 210.04 176.62 210.14 177.307 210.24 177.979 210.425 178.62 210.69 179.367 210.999 180.093 211.36 180.79 211.77 181.443 212.135 182.066 212.553 182.65 213.02 183.07 213.318 183.413 213.713 183.65 214.17 183.824 214.509 183.824 214.911 183.65 215.25 183.363 215.681 182.966 216.026 182.5 216.25 182.41 216.304 182.306 216.332 182.2 216.33 182.104 216.341 182.006 216.324 181.92 216.28L181.25 215.89C181.189 215.861 181.153 215.797 181.16 215.73 181.155 215.666 181.172 215.602 181.21 215.55Z" fill="#455A64"/><path d="M230.21 207.11C225.846 204.891 220.684 204.891 216.32 207.11 212.48 209.32 212.48 212.91 216.32 215.11 220.686 217.32 225.844 217.32 230.21 215.11 234.05 212.91 234.05 209.32 230.21 207.11Z" fill="#F5F5F5"/><path d="M142.86 254.87C141.22 255.81 141.22 257.34 142.86 258.29L160.09 268.24C161.955 269.18 164.155 269.18 166.02 268.24L220.3 236.9C221.94 235.9 221.94 234.42 220.3 233.47L204.74 224.47 209.37 216.47Z" fill="#FAFAFA"/><path d="M199.53 228.7 151.53 256.41C150.71 256.88 150.53 257.56 151.2 257.93 152.06 258.289 153.04 258.218 153.84 257.74L201.84 230.04C202.66 229.57 202.84 228.89 202.16 228.52 201.303 228.171 200.332 228.237 199.53 228.7Z" fill="#E6E6E6"/><path d="M204.17 231.39 156.17 259.1C155.35 259.57 155.17 260.25 155.85 260.62 156.707 260.969 157.678 260.903 158.48 260.44L206.48 232.73C207.3 232.26 207.48 231.58 206.8 231.21 205.943 230.861 204.972 230.927 204.17 231.39Z" fill="#E6E6E6"/><path d="M208.82 234.08 160.82 261.79C160 262.26 159.82 262.94 160.5 263.31 161.36 263.662 162.335 263.596 163.14 263.13L211.14 235.42C211.96 234.95 212.14 234.27 211.47 233.9 210.607 233.544 209.627 233.611 208.82 234.08Z" fill="#E6E6E6"/><path d="M215.36 314.11C210.99 311.9 205.83 311.9 201.46 314.11 197.62 316.33 197.62 319.92 201.46 322.11 205.827 324.33 210.993 324.33 215.36 322.11 219.19 319.92 219.19 316.33 215.36 314.11Z" fill="#F5F5F5"/><path d="M231.57 307.43 247.14 316.43C249.003 317.379 251.207 317.379 253.07 316.43L307.38 285.07C309.02 284.13 309.02 282.6 307.38 281.65L290.14 271.65C288.275 270.71 286.075 270.71 284.21 271.65L217.67 310.1Z" fill="#FAFAFA"/><path d="M286.81 276.85 238.81 304.56C237.99 305.03 237.81 305.71 238.49 306.08 239.35 306.439 240.33 306.368 241.13 305.89L289.13 278.19C289.95 277.72 290.13 277.03 289.45 276.66 288.588 276.311 287.613 276.381 286.81 276.85Z" fill="#E6E6E6"/><path d="M291.45 279.54 243.45 307.25C242.64 307.72 242.45 308.4 243.13 308.77 243.99 309.129 244.97 309.058 245.77 308.58L293.77 280.88C294.59 280.41 294.77 279.72 294.1 279.36 293.237 279.004 292.257 279.071 291.45 279.54Z" fill="#E6E6E6"/><path d="M296.09 282.23 248.09 309.94C247.27 310.41 247.09 311.09 247.76 311.46 248.62 311.819 249.6 311.748 250.4 311.27L298.4 283.57C299.22 283.1 299.4 282.41 298.72 282.05 297.863 281.701 296.892 281.767 296.09 282.23Z" fill="#E6E6E6"/><path d="M348.19 274.94C343.82 272.73 338.66 272.73 334.29 274.94 330.46 277.16 330.46 280.75 334.29 282.94 338.66 285.15 343.82 285.15 348.19 282.94 352 280.75 352 277.16 348.19 274.94Z" fill="#F5F5F5"/><path d="M274.69 314.7C273.06 315.65 273.06 317.18 274.69 318.12L287.38 325.39C289.245 326.33 291.445 326.33 293.31 325.39L333.73 302.05C335.37 301.11 335.37 299.58 333.73 298.63L322.73 292.33 327.37 284.33Z" fill="#FAFAFA"/><path d="M315.81 295 281 315C280.18 315.48 280 316.16 280.67 316.53 281.532 316.879 282.507 316.809 283.31 316.34L318.11 296.25C318.93 295.78 319.11 295.1 318.43 294.73 317.563 294.402 316.592 294.502 315.81 295Z" fill="#E6E6E6"/><path d="M320.46 297.65 285.66 317.74C284.84 318.21 284.66 318.89 285.34 319.26 286.202 319.609 287.177 319.539 287.98 319.07L322.77 299C323.59 298.53 323.77 297.85 323.1 297.48 322.243 297.115 321.263 297.178 320.46 297.65Z" fill="#E6E6E6"/><path d="M325.1 300.34 290.3 320.43C289.49 320.9 289.3 321.58 289.98 321.95 290.842 322.299 291.817 322.229 292.62 321.76L327.42 301.67C328.24 301.2 328.42 300.52 327.74 300.15 326.88 299.791 325.9 299.862 325.1 300.34Z" fill="#E6E6E6"/><path d="M376.45 291.53C372.08 289.32 366.92 289.32 362.55 291.53 358.71 293.75 358.71 297.34 362.55 299.53 366.92 301.74 372.08 301.74 376.45 299.53 380.28 297.34 380.28 293.75 376.45 291.53Z" fill="#F5F5F5"/><path d="M323.79 319.26C322.16 320.2 322.16 321.74 323.79 322.68L330.06 326.27C331.922 327.209 334.118 327.209 335.98 326.27L355.56 315C357.2 314.06 357.2 312.53 355.56 311.58L351 308.92 355.63 300.92Z" fill="#FAFAFA"/><path d="M335.55 319.54C334.291 318.91 332.809 318.91 331.55 319.54 330.907 319.758 330.562 320.456 330.78 321.1 330.902 321.462 331.187 321.747 331.55 321.87 332.809 322.5 334.291 322.5 335.55 321.87 336.193 321.652 336.538 320.954 336.32 320.31 336.198 319.948 335.913 319.663 335.55 319.54Z" fill="#E6E6E6"/><path d="M342.06 315.8C340.803 315.161 339.317 315.161 338.06 315.8 337.419 316.009 337.069 316.697 337.278 317.338 337.399 317.709 337.689 317.999 338.06 318.12 339.319 318.75 340.801 318.75 342.06 318.12 342.701 317.911 343.051 317.223 342.842 316.582 342.721 316.211 342.431 315.921 342.06 315.8Z" fill="#E6E6E6"/><path d="M348.56 312.05C347.302 311.415 345.818 311.415 344.56 312.05 343.919 312.259 343.569 312.947 343.778 313.588 343.899 313.959 344.189 314.249 344.56 314.37 345.817 315.009 347.303 315.009 348.56 314.37 349.201 314.161 349.551 313.473 349.342 312.832 349.221 312.461 348.931 312.171 348.56 312.05Z" fill="#E6E6E6"/><path d="M166.61 286C162.243 283.78 157.077 283.78 152.71 286 148.88 288.21 148.88 291.81 152.71 294 157.074 296.219 162.236 296.219 166.6 294 170.45 291.78 170.45 288.18 166.61 286Z" fill="#F5F5F5"/><path d="M182.82 279.28 189.12 282.92C190.983 283.869 193.187 283.869 195.05 282.92L221.54 267.62C223.18 266.68 223.18 265.15 221.54 264.2L213.54 259.6C211.678 258.661 209.482 258.661 207.62 259.6L168.93 282Z" fill="#FAFAFA"/><path d="M209.54 262.42 186.32 275.83C185.5 276.3 185.32 276.98 186 277.35 186.86 277.709 187.84 277.638 188.64 277.16L211.85 263.76C212.67 263.29 212.85 262.6 212.18 262.24 211.32 261.888 210.345 261.954 209.54 262.42Z" fill="#E6E6E6"/><path d="M214.18 265.11 191 278.52C190.18 278.99 190 279.67 190.67 280.04 191.53 280.399 192.51 280.328 193.31 279.85L216.53 266.45C217.35 265.98 217.53 265.29 216.85 264.93 215.981 264.568 214.992 264.634 214.18 265.11Z" fill="#E6E6E6"/><path d="M191 300C186.636 297.781 181.474 297.781 177.11 300 173.27 302.22 173.27 305.81 177.11 308 181.474 310.219 186.636 310.219 191 308 194.82 305.85 194.82 302.26 191 300Z" fill="#F5F5F5"/><path d="M207.19 293.36 213.49 296.99C215.353 297.939 217.557 297.939 219.42 296.99L245.91 281.69C247.55 280.75 247.55 279.22 245.91 278.27L237.91 273.67C236.048 272.731 233.852 272.731 231.99 273.67L193.3 296Z" fill="#FAFAFA"/><path d="M233.91 276.49 210.69 289.9C209.88 290.37 209.69 291.05 210.37 291.42 211.23 291.772 212.205 291.706 213.01 291.24L236.23 277.83C237.04 277.36 237.23 276.68 236.55 276.31 235.69 275.958 234.715 276.024 233.91 276.49Z" fill="#E6E6E6"/><path d="M238.55 279.18 215.34 292.59C214.52 293.06 214.34 293.74 215.01 294.11 215.87 294.462 216.845 294.396 217.65 293.93L240.87 280.52C241.69 280.05 241.87 279.37 241.19 279 240.33 278.648 239.355 278.714 238.55 279.18Z" fill="#E6E6E6"/></g></g><g id="freepik--character-4--inject-34"><ellipse cx="347.64" cy="295.94" rx="31.34" ry="18.09" id="freepik--shadow--inject-34" opacity="0.1"/><g id="freepik--Character--inject-34"><path d="M353.23 158.99 354.27 168.79 363.48 168.64 362.46 157.54 353.23 158.99Z" fill="#F28F8F"/><path d="M346.25 147.45C346.25 147.45 343.76 151.45 344.06 151.8 344.36 152.15 346.27 152.48 346.27 152.48Z" fill="#B16668"/><path d="M352.34 137.78C347.71 138.86 346.41 140.94 346.14 148.34 345.86 156.08 346.7 158.49 347.74 159.5 348.44 160.19 352.25 160.23 354.16 159.66 356.55 158.94 361.94 156.9 364.39 152.95 367.28 148.31 367.93 142.1 364.67 139.63 360.08 136.15 354.23 137.33 352.34 137.78Z" fill="#F28F8F"/><path d="M345.77 140.93C346.572 141.586 347.597 141.905 348.63 141.82 348.43 141.82 348.5 142.68 348.52 142.82 348.607 143.175 348.802 143.493 349.08 143.73 349.62 144.3 350.471 144.447 351.17 144.09 350.54 144.61 351.02 146.18 351.24 146.83 351.46 147.48 351.61 148.4 352.46 148.75 352.46 148.75 353.14 145.87 355.55 146.18 357.96 146.49 358.38 149.57 356.89 151.48 355.4 153.39 353.97 152.7 353.97 152.7 353.97 152.7 354.14 156.78 355.97 159.05 358.159 159.385 360.392 159.279 362.54 158.74 364.03 157.07 365.68 155.02 367.85 152.08 372.1 146.34 371.51 139.69 367.31 138.03 367.33 137.151 367.287 136.272 367.18 135.4 366.976 134.569 366.501 133.831 365.83 133.3 364.344 132.202 362.557 131.587 360.71 131.54 358.59 131.41 356.47 131.72 354.35 131.7 352.031 131.689 349.73 131.293 347.54 130.53 346.6 130.2 345.46 129.85 344.72 130.53 344.256 131.057 344.077 131.777 344.24 132.46 344.455 133.886 345.215 135.173 346.36 136.05 345.871 136.104 345.38 135.975 344.98 135.69 344.651 135.243 344.022 135.146 343.575 135.475 343.128 135.804 343.031 136.433 343.36 136.88 343.663 138.471 344.516 139.905 345.77 140.93Z" fill="#263238"/><path d="M367.44 139 370.18 137.3C369.711 136.543 368.717 136.311 367.96 136.78 367.203 137.249 366.971 138.243 367.44 139Z" fill="#263238"/><path d="M329 304.51C328.8 304.58 328.76 305.76 329 306.14 329.97 307.423 331.408 308.272 333 308.5 335.61 309.02 339.22 308.5 340.76 308.41 343.438 308.502 346.108 308.739 348.76 309.12 351.19 309.45 353.06 308.92 353.96 308.04 354.265 307.684 354.4 307.213 354.33 306.75 354.33 305.75 354.19 305.52 354.07 305.53Z" fill="#263238"/><path d="M353.66 302.48C353.66 302.68 353.75 302.88 353.79 303.09 354.027 304.122 354.102 305.185 354.01 306.24 353.621 306.955 352.943 307.468 352.15 307.65 350.441 308.173 348.62 308.211 346.89 307.76 344.851 307.462 342.79 307.335 340.73 307.38 338.942 307.595 337.141 307.685 335.34 307.65 333.972 307.592 332.622 307.319 331.34 306.84 330.27 306.38 329.18 305.84 328.92 304.7 328.767 303.2 329.565 301.763 330.92 301.1 332.157 300.473 333.534 300.174 334.92 300.23 336.43 300.23 337.57 300.43 338.92 300.33 340.079 300.275 341.23 300.114 342.36 299.85 343.36 299.53 344.87 298.55 345.3 298.5 345.3 298.5 351.62 298.34 352.3 298.4 352.98 298.46 353.17 300.04 353.3 300.54 353.43 301.04 353.39 301.35 353.49 301.72 353.59 302.09 353.6 302.23 353.66 302.48Z" fill="#37474F"/><path d="M341.27 300.09C340.392 300.802 339.808 301.814 339.63 302.93 339.63 303.7 338.31 303.77 338.27 303 338.453 302.014 338.86 301.083 339.46 300.28 340.034 300.05 340.661 299.984 341.27 300.09Z" fill="#FAFAFA"/><path d="M338.25 300.36C337.498 301.053 336.987 301.967 336.79 302.97 336.79 303.54 335.58 303.49 335.6 302.92 335.697 301.886 336.227 300.941 337.06 300.32 337.44 300.06 338.12 300.13 338.25 300.36Z" fill="#FAFAFA"/><path d="M358.31 284.11C358.11 286.27 358.05 286.85 358.59 288.27 359.214 289.785 360.254 291.092 361.59 292.04 362.621 292.96 363.525 294.013 364.28 295.17 365.024 296.435 365.97 297.57 367.08 298.53 367.95 299.25 370.35 299.27 371.5 298.76 372.65 298.25 373.03 297.81 372.93 295.96 372.83 294.11 367.19 293.59 367.19 293.59Z" fill="#263238"/><path d="M372.12 290.45C372.6 290.62 372.74 291.53 372.85 293.34 372.93 294.71 373.55 296.71 371.68 297.61 369.964 298.313 367.994 297.919 366.68 296.61 365.36 295.03 364.46 293.61 362.59 291.69 360.96 290.01 359.29 289.47 358.52 286.06 358.02 283.88 358.36 282.96 359.82 282.3 361.82 281.39 365.09 284.16 366.69 284.57 368.05 285 371.64 290.28 372.12 290.45Z" fill="#37474F"/><path d="M366.67 284.61 366.4 284.53C364.516 284.674 362.854 285.82 362.05 287.53 361.8 288.13 362.64 288.58 363.13 288.11 363.984 286.447 365.613 285.321 367.47 285.11 367.238 284.893 366.966 284.724 366.67 284.61Z" fill="#FAFAFA"/><path d="M368 285.62C366.257 285.864 364.754 286.969 364 288.56 363.74 289.17 364.59 289.62 365.08 289.14 365.797 287.706 367.124 286.674 368.69 286.33 368.44 286.08 368.22 285.84 368 285.62Z" fill="#FAFAFA"/><path d="M374.72 255.6 363.34 257.07C363.34 257.07 363.64 264.07 364.34 271.73 364.92 278.11 365.63 287.19 365.99 290.09 366.01 290.396 366.05 290.7 366.11 291 366.3 292.71 372.11 293.23 372.11 291.25L372.22 288.94C372.71 282.05 375.29 265.91 374.72 255.6Z" fill="#F28F8F"/><path d="M354 257.75 344.54 259.07 345.32 297.75 345.32 298.43C345.38 300.15 346.32 300.72 348.69 300.81 351.57 300.92 352.69 299.67 352.69 298.73 352.69 298.64 352.69 298.54 352.69 298.44 353.69 289.44 355.23 274.59 355.44 269.69 355.597 265.659 355.111 261.628 354 257.75Z" fill="#F28F8F"/><path d="M383.89 194.94C381.89 171.12 377.48 162.46 367.54 163.22L370.7 176.65C370.7 176.65 375.39 192.54 375.7 197.98 375.96 202.75 376.16 208.74 375.46 212.7 375.33 213.4 374.95 214.03 374.39 214.47 373.179 215.545 372.131 216.792 371.28 218.17 370.44 219.27 369.66 219.6 369.82 219.91 370.281 220.589 371.188 220.798 371.9 220.39 372.659 219.982 373.364 219.482 374 218.9 373.605 220.419 372.967 221.865 372.11 223.18 370.16 226.18 370.25 227.91 374.81 227.44 377.67 227.15 380.11 225.19 381.56 218.65 381.98 216.77 382.64 214.04 383.14 211.13 384.139 205.794 384.392 200.345 383.89 194.94Z" fill="#F28F8F"/><path d="M367.6 163.09C371.72 162.98 375.21 163.69 378.54 168.97 381.87 174.25 383.91 190.12 384.07 193.92 384.23 197.72 384.21 200.19 384.21 200.19L375.82 200.85C375.638 198.643 375.321 196.449 374.87 194.28 374.32 192.28 371.98 180.28 369.34 174.48Z" fill="#407BFF"/><g opacity="0.35"><path d="M367.6 163.09C371.72 162.98 375.21 163.69 378.54 168.97 381.87 174.25 383.91 190.12 384.07 193.92 384.23 197.72 384.21 200.19 384.21 200.19L375.82 200.85C375.638 198.643 375.321 196.449 374.87 194.28 374.32 192.28 371.98 180.28 369.34 174.48Z"/></g><path d="M375.82 200.85C377.003 200.245 378.295 199.885 379.62 199.79 381.162 199.649 382.716 199.784 384.21 200.19 384.21 200.19 384.21 202.76 383.98 204.85 383.98 204.85 381.1 203.32 375.92 204.85Z" fill="#455A64"/><path d="M375.13 256.69C374.85 250.08 374.13 249.94 373.13 244.77 373.66 238.47 374.13 233.17 374.39 226.35 374.63 218.97 374.45 210.48 373.92 202.29 365.86 201.75 346.08 195.06 343.55 207.74 342.81 217.98 343.84 238.25 343.95 252.2 344.06 266.15 344.46 282.26 344.95 297.61 347.27 298.46 351.16 299 353.42 297.48 355.01 287.01 356.42 273.48 357.03 267.7 357.83 260.6 357.03 257.75 357.03 254.52 357.42 248.95 359.43 230.08 359.43 230.08 359.43 230.08 360.08 237.25 360.53 243.89 360.98 250.53 361.77 254.35 362.47 261.95 363.12 268.95 364.35 281.03 365.03 289.14 366.94 290.04 370.03 290.82 372.65 289.34 373 281.36 375.4 263.29 375.13 256.69Z" fill="#37474F"/><g opacity="0.2"><path d="M360.43 220.74C363.77 220.45 365.2 219.2 367.56 216.57 366.921 219.368 364.784 221.582 362.01 222.32 361.95 222.71 360.62 230.44 360.62 230.44L360.42 242.06 359.42 230.06Z"/></g><path d="M343.6 210.49C347.367 211.579 351.312 211.919 355.21 211.49L354.59 198.71 343.59 200.36Z" fill="#455A64"/><path d="M373.36 167.67C372.46 164.93 369.95 162.54 366.46 163.18 360.06 164.37 354.01 165.05 350.22 166.4 349.89 166.52 347.47 167.15 347.13 167.31 344.28 168.68 343.66 171.31 343.42 180.66 343.42 180.66 342.59 205.76 342.72 213.04 343.867 213.503 345.047 213.881 346.25 214.17L347.58 205.55 349.25 214.7C354.54 215.49 360.77 215.57 363.77 214.91 373.36 212.82 374.63 209.81 374.63 209.81 374.63 209.81 374.14 200.04 373.63 191.03 373.63 191.03 375.31 180.49 375.21 177.88 374.94 171.42 374 169.56 373.36 167.67Z" fill="#407BFF"/><g opacity="0.2"><path d="M373.36 167.67C372.46 164.93 369.95 162.54 366.46 163.18 360.06 164.37 354.01 165.05 350.22 166.4 349.89 166.52 347.47 167.15 347.13 167.31 344.28 168.68 343.66 171.31 343.42 180.66 343.42 180.66 342.59 205.76 342.72 213.04 343.867 213.503 345.047 213.881 346.25 214.17L347.58 205.55 349.25 214.7C354.54 215.49 360.77 215.57 363.77 214.91 373.36 212.82 374.63 209.81 374.63 209.81 374.63 209.81 374.14 200.04 373.63 191.03 373.63 191.03 375.31 180.49 375.21 177.88 374.94 171.42 374 169.56 373.36 167.67Z"/></g><path d="M353.67 163.08 353.67 163.51C355.526 164.078 357.491 164.192 359.4 163.84 362.29 163.2 362.82 161.9 362.82 161.9L362.76 161.21C362.76 161.21 363.36 161.01 363.96 162.04 364.526 162.933 365.155 163.785 365.84 164.59 365.84 164.59 365.19 168.23 360.6 168.79 353.01 169.72 350.34 166.36 350.34 166.36 351.56 164.87 352.89 163 353.67 163.08Z" fill="#407BFF"/><g opacity="0.35"><path d="M353.67 163.08 353.67 163.51C355.526 164.078 357.491 164.192 359.4 163.84 362.29 163.2 362.82 161.9 362.82 161.9L362.76 161.21C362.76 161.21 363.36 161.01 363.96 162.04 364.526 162.933 365.155 163.785 365.84 164.59 365.84 164.59 365.19 168.23 360.6 168.79 353.01 169.72 350.34 166.36 350.34 166.36 351.56 164.87 352.89 163 353.67 163.08Z"/></g><path d="M307.45 186.09C309.02 186.79 327.56 200.49 330.45 198.9 333.34 197.31 347.52 179.81 347.52 179.81 351.83 172.67 348.17 166.98 348.17 166.98 344.787 166.94 341.61 168.6 339.71 171.4 337.07 175.06 327.57 187.68 327.57 187.68 324.23 186.68 315.72 182.09 313.57 180.88 312.973 180.618 312.412 180.282 311.9 179.88 310.85 178.88 310.72 176.81 310.74 175.45 310.738 174.812 310.772 174.174 310.84 173.54 310.93 172.76 311.07 170.85 309.67 171.46 309.402 171.586 309.171 171.779 309 172.02 308.775 172.321 308.605 172.659 308.5 173.02 308.24 173.84 308.32 174.74 308.08 175.57 308.052 175.696 307.994 175.812 307.91 175.91 307.784 176.013 307.621 176.059 307.46 176.04 305.46 175.98 303.46 173.12 302.55 171.6 302.213 170.874 301.675 170.26 301 169.83 299.88 169.31 298.54 170.06 297.82 171.06 296.945 172.386 296.59 173.988 296.82 175.56 297.007 177.702 297.954 179.706 299.49 181.21 301.847 183.277 304.539 184.927 307.45 186.09Z" fill="#F28F8F"/><path d="M348.78 166.81C345.6 166.53 343.18 165.58 338.84 171.48 334.5 177.38 327.47 187.48 327.47 187.48L324.19 186.34C324.19 186.34 320.27 189.66 320.12 194.42 320.12 194.42 324.12 197.34 326.12 198.42 328.12 199.5 330.23 200.42 331.96 198.89 333.69 197.36 348.46 179.77 348.46 179.77 350.971 175.847 351.095 170.853 348.78 166.81Z" fill="#407BFF"/><g opacity="0.35"><path d="M348.78 166.81C345.6 166.53 343.18 165.58 338.84 171.48 334.5 177.38 327.47 187.48 327.47 187.48L324.19 186.34C324.19 186.34 320.27 189.66 320.12 194.42 320.12 194.42 324.12 197.34 326.12 198.42 328.12 199.5 330.23 200.42 331.96 198.89 333.69 197.36 348.46 179.77 348.46 179.77 350.971 175.847 351.095 170.853 348.78 166.81Z"/></g><path d="M324.19 186.32 320.3 184.44C318.034 186.277 316.489 188.855 315.94 191.72L320.12 194.4C320.591 191.345 322.015 188.517 324.19 186.32Z" fill="#455A64"/><g opacity="0.1"><path d="M327.47 187.46C326.689 188.78 326.15 190.23 325.88 191.74 325.842 190.182 326.114 188.632 326.68 187.18"/></g><path d="M347.74 159.5C348.35 160.1 351.31 160.21 353.33 159.85L353.23 158.62C351.557 159.541 349.617 159.852 347.74 159.5Z" fill="#B16668"/></g></g><g id="freepik--character-3--inject-34"><ellipse cx="271.26" cy="337.89" rx="32.77" ry="18.92" id="freepik--shadow--inject-34" opacity="0.1"/><g id="freepik--character--inject-34"><path d="M281.77 205.54C287.18 204.93 289.25 206.54 291.27 211 293.2 215.28 299.08 228.18 298.78 231.19 298.48 234.2 286.18 247 286.18 247L282.67 242.73 290.28 229.94 284.28 217.03Z" fill="#B16668"/><g id="freepik--character--inject-34"><path d="M270.89 201.3 271.91 211.92 281.4 211.33 280.64 199.56 270.89 201.3Z" fill="#B16668"/><path d="M258.74 180.88C258.66 180.383 258.66 179.877 258.74 179.38 259.179 176.923 261.528 175.287 263.985 175.726 264.242 175.772 264.495 175.84 264.74 175.93 264.366 173.924 265.405 171.921 267.26 171.07 268.68 170.535 270.256 170.597 271.63 171.24 272.446 171.525 273.124 172.107 273.53 172.87 274.878 170.6 277.811 169.854 280.081 171.202 281.146 171.835 281.923 172.856 282.25 174.05 283.7 173.73 285.74 174.37 286.38 175.8 287.12 177.44 286.22 179.46 286.56 181.17 286.77 182.27 287.25 183.32 287.45 184.44 287.66 185.693 287.78 186.96 287.81 188.23 288.01 193.47 275.81 196.88 276.08 200.47L269.6 192.58C269.6 192.25 268.68 191.43 268.47 191.16 268.09 190.64 267.74 190.08 267.38 189.53 266.262 187.937 264.711 186.698 262.91 185.96 261.641 185.372 260.543 184.47 259.72 183.34 259.204 182.609 258.868 181.766 258.74 180.88Z" fill="#263238"/><path d="M263.85 189.65C263.85 189.65 261.75 192.77 262.02 193.1 262.514 193.42 263.058 193.653 263.63 193.79Z" fill="#9A4A4D"/><path d="M270.27 179.76C268.27 180.76 264.7 182.76 263.79 190.11 262.86 197.7 264.58 200.34 265.63 201.34 266.34 202.01 270.01 202.25 271.93 201.67 274.32 200.94 279.51 198.42 281.93 194.5 284.79 189.89 285.38 183.74 282.08 181.33 278.661 178.847 274.219 178.257 270.27 179.76Z" fill="#B16668"/><path d="M265.83 201.47C267.48 202.013 269.235 202.153 270.95 201.88L270.89 200.51C270.11 200.85 269.3 201.115 268.47 201.3 267.604 201.493 266.714 201.55 265.83 201.47Z" fill="#9A4A4D"/><path d="M269.38 179.53C268.514 179.846 267.708 180.31 267 180.9 266.647 181.197 266.36 181.565 266.16 181.98 265.999 182.365 265.94 182.785 265.99 183.2 266.104 184.36 266.834 185.369 267.9 185.84 267.345 186.604 267.155 187.573 267.38 188.49 267.756 189.535 268.401 190.463 269.25 191.18 269.294 191.231 269.348 191.273 269.41 191.3 269.532 191.312 269.654 191.276 269.75 191.2 271.03 190.34 271.82 188.86 273.64 189.45 276.02 190.23 275.9 193.17 274.03 195 273.368 195.674 272.49 196.092 271.55 196.18 271.072 196.194 270.605 196.03 270.24 195.72 270.24 195.72 270.3 199.55 273.63 201.07 275.951 201.747 278.414 201.775 280.75 201.15 282 199.56 284.11 197.52 285.84 195.69 291.56 189.69 291.84 180.97 283.46 178.21L282.58 177.95C279.872 177.241 277.036 177.179 274.3 177.77 272.937 178.061 271.611 178.507 270.35 179.1 270 179.26 269.7 179.39 269.38 179.53Z" fill="#263238"/><path d="M269.11 193.86C268.19 193.564 267.684 192.578 267.98 191.658 267.986 191.639 267.993 191.619 268 191.6 268.346 190.676 269.372 190.203 270.3 190.54Z" fill="#263238"/><path d="M270.05 339.51C270.05 339.51 270.6 341.2 270.91 342.68 271.14 343.86 271.49 345.83 271.07 346.68 270.65 347.53 269.07 348.14 266.56 348.12 264.95 348.12 262.44 349.2 260.71 350.12 258.392 351.103 255.869 351.504 253.36 351.29 251.14 351.03 248.84 349.74 248.48 348.83 248.12 347.92 247.82 346.65 253.83 344.73 253.83 344.73 261.09 342.36 263.62 339.57Z" fill="#263238"/><path d="M270.05 339.68 268.9 339.53 263.62 339.64C261.09 342.43 253.88 344.78 253.83 344.8 253.48 344.91 253.17 345.01 252.83 345.12 251.78 345.96 252.67 347.39 255.14 347.61 257.61 347.83 265.34 345.24 267.04 344.41 268.9 343.578 270.084 341.717 270.05 339.68Z" fill="#B16668"/><path d="M270.05 337.41C270.05 337.41 270.05 338.85 270.05 339.68 270.05 340.51 269.05 341.73 266.56 341.68 264.78 341.62 263.56 341.14 263.62 339.68L263.62 337.58Z" fill="#B16668"/><path d="M287 330C287.45 330.19 287.55 331.06 287.57 332.8 287.57 334.12 287.81 336.42 286.25 336.8 284.69 337.18 282.45 336.92 281.5 335.65 280.31 334.07 279.5 332.65 277.81 330.76 276.33 329.08 274.72 327.5 274.16 325.19 273.66 323.1 274.16 322.19 275.58 321.65 277 321.11 278.31 321.55 280.29 323.2 280.839 323.576 281.43 323.888 282.05 324.13 283.34 324.6 286.54 329.83 287 330Z" fill="#263238"/><path d="M287 328.41 287 330.55C287 330.55 285.57 333.34 281.6 330.55 281.51 330.34 281.16 326.21 281.16 326.21Z" fill="#B16668"/><path d="M282 324.19C281.38 323.948 280.789 323.636 280.24 323.26L280.24 323.26C278.64 322.75 275.24 323.34 276.79 325.67 278.051 327.582 279.662 329.238 281.54 330.55 283.34 331.43 283.97 330.33 283.97 330.33L283.33 325.33C282.976 324.856 282.522 324.467 282 324.19Z" fill="#B16668"/><path d="M289.93 298.9C289.57 295.159 288.796 291.47 287.62 287.9 287.62 287.9 288.97 278.49 290.02 269.45 292.51 248.24 290.85 247.89 287.85 240.52 287.85 240.52 260.66 237.02 259.52 248.33 258.11 262.42 258.75 289.72 258.99 294.72 259.23 299.72 259.63 301.97 261.11 312.44 262.24 320.44 263.31 337.81 263.31 337.81 265.531 338.984 268.217 338.85 270.31 337.46 270.31 337.46 273.71 316.04 273.64 310.28 273.574 306.014 272.952 301.775 271.79 297.67 271.79 297.67 274.1 274.72 274.7 271.07 274.7 271.07 275.35 278.39 275.59 283.38 275.83 288.37 277.18 293.18 278.37 302.48 279.37 310.55 281.13 327.39 281.13 327.39 284.69 329.44 287.18 328.51 287.18 328.51 287.18 328.51 290.72 305.89 289.93 298.9Z" fill="#407BFF"/><g opacity="0.4"><path d="M289.93 298.9C289.57 295.159 288.796 291.47 287.62 287.9 287.62 287.9 288.97 278.49 290.02 269.45 292.51 248.24 290.85 247.89 287.85 240.52 287.85 240.52 260.66 237.02 259.52 248.33 258.11 262.42 258.75 289.72 258.99 294.72 259.23 299.72 259.63 301.97 261.11 312.44 262.24 320.44 263.31 337.81 263.31 337.81 265.531 338.984 268.217 338.85 270.31 337.46 270.31 337.46 273.71 316.04 273.64 310.28 273.574 306.014 272.952 301.775 271.79 297.67 271.79 297.67 274.1 274.72 274.7 271.07 274.7 271.07 275.35 278.39 275.59 283.38 275.83 288.37 277.18 293.18 278.37 302.48 279.37 310.55 281.13 327.39 281.13 327.39 284.69 329.44 287.18 328.51 287.18 328.51 287.18 328.51 290.72 305.89 289.93 298.9Z"/></g><g opacity="0.15"><path d="M274.7 271 276 261.08C279.833 261.074 283.553 259.778 286.56 257.4 286.56 257.4 284.78 261.03 277.56 262.61L276.16 272.82 275.64 284.06C275.4 279.687 275.087 275.333 274.7 271Z"/></g><path d="M288.74 209.93C287.81 207.19 285.93 205.58 281.74 205.54L281 205.54C280.71 207.07 275.83 208.46 271.4 206.89 270.79 207.01 268.68 207.24 267.71 207.37L265.6 207.68C262.38 208.74 260.95 214.33 260.6 223.2 260.25 232.07 259 251.05 259 251.05 259 251.05 265.93 254.76 276.86 253.33 286.64 252.04 290.98 246.28 290.65 247.02 289.169 242.132 287.3 237.37 285.06 232.78 290.25 220.13 290.11 214 288.74 209.93Z" fill="#455A64"/><path d="M271.48 253.65C273.292 253.67 275.103 253.563 276.9 253.33 282.06 252.777 286.899 250.555 290.68 247 289.212 242.125 287.346 237.379 285.1 232.81 287.7 226.42 288.95 221.69 289.38 218.05 289 220.67 285 231 279.9 234 282.109 234.57 284.025 235.947 285.27 237.86 287.74 241.28 285.71 252.92 271.48 253.65Z" fill="#37474F"/><path d="M267.74 207.39C263.48 207.93 260.1 208.82 258.24 212.89 255.08 219.79 251.67 225.45 249.18 228.11 246.53 230.95 235.65 235.96 233.18 235.56 230.71 235.16 228.28 232.34 227.02 233.07 225.76 233.8 228.09 236.53 227.94 237.15 227.79 237.77 223.34 237.44 221.24 235.95 219.14 234.46 218.36 237.53 221.08 240.72 223.8 243.91 228.91 244.16 234.45 243.04 239.99 241.92 250.45 239.04 254.73 235.5 259.89 231.25 261.65 228.03 263.84 224.22 271.81 216 267.74 207.39 267.74 207.39Z" fill="#B16668"/></g></g></g><g id="freepik--character-2--inject-34"><ellipse cx="224.31" cy="230.38" rx="30.67" ry="17.7" id="freepik--shadow--inject-34" opacity="0.1"/><g id="freepik--character--inject-34"><path d="M227.44 95.29C232.06 95.19 232.99 96.2 236.17 102.57 238.73 107.7 241.82 113.76 243.8 116.04 248.15 116.66 257.09 117.33 260.5 116.78 261.122 116.683 261.687 116.363 262.09 115.88 263.067 114.857 264.185 113.978 265.41 113.27 266.41 112.57 266.71 111.91 266.98 112.04 267.568 112.431 267.744 113.215 267.38 113.82 266.999 114.477 266.543 115.088 266.02 115.64 267.595 115.368 269.14 114.939 270.63 114.36 273.55 113.15 275.12 113.94 274.19 117.74 273.66 119.9 271.8 121.52 265.98 122.67 264.207 123.041 262.409 123.275 260.6 123.37 260.6 123.37 246.02 123.37 241.54 123.37L241.21 123.37 241.21 123.37C239.84 123.131 238.596 122.424 237.69 121.37 231.24 113.88 228.1 107.27 225.29 102.43Z" fill="#FFBDA7"/><path d="M227.44 95.29C231 95.06 232.8 95.39 233.95 97.29 236.65 101.87 242.54 114.83 243.95 115.59 245.06 116.19 259.87 116.84 259.87 116.84 259.14 117.61 258.82 121.95 260.2 123.34 260.2 123.34 244.44 124.09 241.43 123.97 239.82 123.91 238.49 122.87 237.09 121.22 235.69 119.57 227.87 110.12 227.87 110.12Z" fill="#407BFF"/><g id="freepik--character--inject-34"><path d="M211.72 124C210.56 125.61 206.72 128.53 204.9 135.53 201.9 147.2 205.99 173.31 205.99 173.31 205.83 175 205.64 177.62 204.85 185.08 203.91 193.89 206.9 217.2 206.9 217.2 208.743 218.356 211.05 218.484 213.01 217.54 213.01 217.54 217.31 183.79 218.5 175.03 219.5 167.39 221.11 150.43 221.11 150.43L225.31 173.98C225.31 173.98 224.65 178.27 224.31 181.53 223.76 186.68 228.54 212.62 228.54 212.62 230.362 213.394 232.425 213.372 234.23 212.56 234.23 212.56 235.94 179.56 236.46 173.34 237 166.95 236.31 151.61 235.19 139.74 234.86 136.16 233.75 126.68 233.14 123.61Z" fill="#37474F"/><path d="M235.62 215.12C235.83 216.43 237.06 219.04 241.38 222.22 242.17 222.8 243.54 223.84 244.18 224.22 247 226.08 248.32 226.73 247.46 228.1 246.6 229.47 244.67 229.88 242.19 229.87 239.774 229.71 237.472 228.781 235.62 227.22 234.268 225.942 232.659 224.967 230.9 224.36 229.14 223.9 227.06 222.82 226.9 221.87 226.736 220.646 226.794 219.403 227.07 218.2 227.301 217.31 227.442 216.398 227.49 215.48 227.49 214.4 227.34 212.01 227.09 209.72 226.84 207.43 226.22 204.82 227.09 204.6L227.25 205.6C227.25 205.6 228 206.45 230.7 206.32 232.031 206.342 233.349 206.054 234.55 205.48L234.6 204.66C234.6 204.66 235.34 204.51 235.3 205.35 235.26 206.19 235.41 213.81 235.62 215.12Z" fill="#263238"/><path d="M213.55 219.74C213.49 221.05 213.55 221.74 213.55 223.74 213.561 226.233 213.772 228.721 214.18 231.18 214.6 234.18 214.75 235.8 213.32 238.76 211.89 241.72 208.32 239.9 207.09 238.16 205.86 236.42 205.32 235.25 205.44 232.16 205.55 229.46 206.17 228.29 206.26 225 206.35 221.92 206.58 220.67 206.55 219.57 206.52 218.47 206.1 214.44 206 213.57 205.9 212.7 206.36 212.41 206.36 212.41L206.47 213.35C206.47 213.35 207.05 214.4 209.85 214.35 212.65 214.3 213.57 213.47 213.57 213.47L213.69 212.54C213.69 212.54 214.18 212.78 214.07 213.62 213.96 214.46 213.62 218.43 213.55 219.74Z" fill="#263238"/><path d="M221.11 150.47 222.23 143.24C225.257 143.08 228.194 142.158 230.77 140.56 228.983 142.754 226.411 144.164 223.6 144.49L222.88 150.96 224.8 171.18Z" fill="#263238"/><path d="M232.81 114.76C232.68 116.88 233.14 123.65 233.14 123.65 224.4 129.45 211.72 124.04 211.72 124.04L209.05 112.31C209.05 112.31 207.05 101.92 212.05 96.09L216.98 95.75 225.08 95.16 227.48 95.29C230.12 97.29 233.83 102.58 234.67 104.77 235.51 106.96 236.71 110.25 232.81 114.76Z" fill="#455A64"/></g><path d="M225 92.31 225 92.31C219.49 92.31 209.75 86.6 209.83 77.65L209.83 77.65C209.9 70.52 214.83 64.88 221.95 64.95L223.45 64.95C226.28 64.9092 229.054 65.7363 231.4 67.32 237.86 66.82 241.77 76 234.09 79.16 229.59 82.4 225.13 81.84 225 92.31Z" fill="#263238"/><path d="M212.84 69.78C212.053 69.167 211.031 68.9427 210.06 69.17 208.82 69.327 207.649 69.8295 206.68 70.62 204.623 72.3342 203.232 74.7158 202.75 77.35 202.381 79.7785 202.147 82.2256 202.05 84.68 201.959 87.1406 201.272 89.5425 200.05 91.68 199.68 92.25 199.23 92.96 199.57 93.56 199.777 93.8488 200.077 94.0573 200.42 94.15 202.318 94.8125 204.418 94.546 206.09 93.43 207.865 92.2912 208.982 90.3662 209.09 88.26 209.194 87.0152 209.143 85.7624 208.94 84.53 208.67 81.62 208.28 78.53 208.94 75.62 209.26 74.2 210 72.62 211.66 72.56Z" fill="#263238"/><path d="M214 66.11 212.86 69.41C211.958 69.1505 211.437 68.2087 211.696 67.3064 211.703 67.2807 211.711 67.2553 211.72 67.23 212.059 66.3078 213.063 65.8147 214 66.11Z" fill="#263238"/><path d="M210.91 66.54 212.84 69.45C212.084 70.0072 211.02 69.8464 210.463 69.0908 210.448 69.0709 210.434 69.0506 210.42 69.03 209.893 68.2021 210.109 67.1066 210.91 66.54Z" fill="#263238"/><path d="M231.27 71.17C232.71 72.03 234.46 75.68 234.21 83.28 234 89.73 231.9 91.28 230.84 91.75 229.78 92.22 227.77 91.9 225.84 91.55L225.84 95.42C225.84 95.42 228.53 98.6 228.34 100.42 228.15 102.24 224.4 102.57 221.87 100.82 220.231 99.6168 218.827 98.1218 217.73 96.41L217.83 86.41C217.83 86.41 216.74 87.54 214.83 86.22 213.201 85.1598 212.739 82.9793 213.799 81.3499 213.853 81.2676 213.91 81.1875 213.97 81.11 215.019 80.1212 216.671 80.1699 217.66 81.2188 217.776 81.3421 217.88 81.4765 217.97 81.62 220.385 81.2338 222.705 80.3958 224.81 79.15 227.935 77.4506 230.259 74.5806 231.27 71.17Z" fill="#FFBDA7"/><path d="M226.31 81.59C226.333 82.0449 225.985 82.4331 225.53 82.46 225.066 82.4793 224.674 82.1189 224.655 81.655 224.636 81.1911 224.996 80.7993 225.46 80.78 225.918 80.7688 226.299 81.1313 226.31 81.5895 226.31 81.5897 226.31 81.5898 226.31 81.59Z" fill="#263238"/><path d="M226.62 86.54 229.06 87.34C228.878 88.0116 228.186 88.4082 227.514 88.2259 227.496 88.221 227.478 88.2157 227.46 88.21 226.778 87.9686 226.407 87.2318 226.62 86.54Z" fill="#F0997A"/><path d="M233.52 79.17 231.89 78C232.2 77.5627 232.8 77.4481 233.25 77.74 233.709 78.0669 233.828 78.6981 233.52 79.17Z" fill="#263238"/><path d="M233.12 81.07C233.143 81.5249 232.795 81.9131 232.34 81.94 231.872 81.9785 231.462 81.6304 231.423 81.1626 231.385 80.6947 231.733 80.2842 232.201 80.2457 232.668 80.2072 233.079 80.5553 233.117 81.0232 233.119 81.0388 233.12 81.0544 233.12 81.07Z" fill="#263238"/><path d="M228.62 80.56 228.71 85.44 231.28 84.67 228.62 80.56Z" fill="#F0997A"/><path d="M225.81 91.55C223.73 91.26 219.48 90 218.81 88.31 219.069 89.1655 219.586 89.92 220.29 90.47 221.55 91.57 225.77 92.84 225.77 92.84Z" fill="#F0997A"/><path d="M193.11 123.47C194.5 118.25 200.3 106.85 201.96 102.66 203.85 97.88 207.04 96.21 210.47 96.2 211.72 97.84 212.17 106.02 208.24 110.67 206.55 114.14 201.5 123.85 201.5 123.85 201.62 124.79 204.97 136.97 206.42 140.18 206.686 140.744 207.148 141.192 207.72 141.44 209.342 142.388 210.858 143.508 212.24 144.78 213.19 145.53 213.92 145.65 213.85 145.94 213.605 146.615 212.883 146.989 212.19 146.8 211.161 146.457 210.158 146.039 209.19 145.55 210.093 147.01 211.095 148.407 212.19 149.73 214.19 152.12 214.19 154.16 210.13 154.19 207.13 154.19 205.51 152.48 202.86 147.25 202.1 145.75 200.94 143.52 200.03 141.58 197.73 136.69 196.6 134.58 195.35 131.5 193.34 126.57 192.58 125.49 193.11 123.47Z" fill="#FFBDA7"/><path d="M201.92 123.9 208.69 111.08C211.473 106.604 212.644 101.312 212.01 96.08 208.21 96 205.4 96.32 203.18 99.52 200.96 102.72 193.74 120.43 192.97 122.61 192.2 124.79 192.35 125.28 193.09 127.21 194.72 131.15 200.24 142.07 200.24 142.07 200.59 139.69 203.76 137.67 205.57 137.93Z" fill="#407BFF"/></g></g><g id="freepik--character-1--inject-34"><ellipse cx="147.77" cy="270.95" rx="31.79" ry="18.36" id="freepik--shadow--inject-34" opacity="0.1"/><g id="freepik--character--inject-34"><path d="M180.66 127.82C179.66 120.01 174.5 120.34 173.16 120.52 171.63 120.74 170.93 121.83 171.9 126.01 172.111 126.949 172.228 127.907 172.25 128.87 172.25 129.28 172.45 130.14 172.11 130.46 171.59 130.94 170.77 129.52 170.53 129.16 170.233 128.559 169.701 128.107 169.06 127.91 168.818 127.839 168.557 127.922 168.4 128.12 168.315 128.321 168.315 128.549 168.4 128.75 168.859 130.668 169.569 132.517 170.51 134.25 170.903 134.906 171.238 135.595 171.51 136.31 171.802 137.312 171.691 138.389 171.2 139.31 171.01 139.77 170.81 140.22 170.62 140.67L166.37 149.78C166.37 149.78 158.37 140.37 156.25 138.03 153.48 135.03 151.57 134.46 147.39 134.46L152.6 153.23C152.6 153.23 156.18 156.62 160.3 160.23 166.7 165.88 168.82 165.36 170.37 164.84 171.92 164.32 173.49 161.57 174.73 157.22 176.56 150.85 178.42 142.28 178.42 142.28L178.42 142.28C178.66 141.5 178.87 140.77 179.03 140.13 179.73 137.2 181.08 131 180.66 127.82Z" fill="#FFA8A7"/><path d="M166.35 149.74C164.79 152.53 164.06 153.38 163.99 157.74 163.655 156.214 163.571 154.643 163.74 153.09 163.822 151.454 164.413 149.884 165.43 148.6Z" fill="#F28F8F"/><path d="M146.64 134.38C149.26 134.25 152.3 134.38 154.01 135.73 156.073 137.544 157.979 139.527 159.71 141.66 161.24 143.39 165.65 148.77 165.65 148.77 162.443 151.828 160.423 155.924 159.95 160.33L147.37 148Z" fill="#37474F"/><path d="M124.19 267.35 130.61 267.18 132.09 253.2 123.98 253.09 124.19 267.35Z" fill="#FFA8A7"/><path d="M148.52 259.74C149.66 261.61 153.16 261.36 156.07 260.61L156.07 246.91 147.48 246.79Z" fill="#FFA8A7"/><path d="M125.51 179.21C125.44 185.14 125.2 219.72 125.2 219.72 125.03 221.43 123.35 224.44 123.14 230.59 122.84 239.5 123.9 259.03 123.9 259.03 126.321 260.101 129.064 260.191 131.55 259.28 131.55 259.28 136.12 231.1 137.35 222.28 138.42 214.59 141.45 194.47 141.45 194.47L145.31 220.71C144.814 223.841 144.657 227.016 144.84 230.18 145.08 234.26 147.94 254.07 147.94 254.07 150.617 254.878 153.473 254.878 156.15 254.07 156.15 254.07 157.26 223.18 157.38 219.43 157.51 215.16 156.38 177.54 156.38 177.54Z" fill="#407BFF"/><g opacity="0.4"><path d="M125.51 179.21C125.44 185.14 125.2 219.72 125.2 219.72 125.03 221.43 123.35 224.44 123.14 230.59 122.84 239.5 123.9 259.03 123.9 259.03 126.321 260.101 129.064 260.191 131.55 259.28 131.55 259.28 136.12 231.1 137.35 222.28 138.42 214.59 141.45 194.47 141.45 194.47L145.31 220.71C144.814 223.841 144.657 227.016 144.84 230.18 145.08 234.26 147.94 254.07 147.94 254.07 150.617 254.878 153.473 254.878 156.15 254.07 156.15 254.07 157.26 223.18 157.38 219.43 157.51 215.16 156.38 177.54 156.38 177.54Z"/></g><g opacity="0.2"><path d="M141.45 194.48C144.864 193.357 148.025 191.573 150.75 189.23 150.75 189.23 149.04 192.34 144.04 195.23L144.93 218.23Z"/></g><path d="M138.25 278.61C138.449 279.269 138.41 279.977 138.14 280.61 136.971 281.763 135.392 282.403 133.75 282.39 131.592 282.645 129.407 282.233 127.49 281.21 126.19 280.517 125.326 279.217 125.19 277.75 125.06 276.31 125.19 274.92 124.57 273.8 123.95 272.68 122.95 271.6 122.74 271.04 122.482 270.077 122.482 269.063 122.74 268.1Z" fill="#263238"/><path d="M131.49 265.93C131.5 266.477 131.591 267.02 131.76 267.54 132.134 268.66 132.641 269.731 133.27 270.73 133.565 271.255 133.899 271.756 134.27 272.23 135.02 273.15 135.96 273.91 136.76 274.8 137.614 275.636 138.151 276.742 138.28 277.93 138.36 279.93 136.2 280.56 134.54 280.83 132.741 281.124 130.898 281.007 129.15 280.49 127.281 279.965 125.886 278.405 125.57 276.49 125.49 275.94 125.57 275.37 125.47 274.82 125.269 273.55 124.754 272.35 123.97 271.33 123.518 270.736 123.129 270.095 122.81 269.42 122.31 268.19 122.74 266.81 123.09 265.59 123.39 264.53 123.72 263.34 124.09 263.45 124.09 264 124.09 264.05 124.48 264.45 124.87 264.85 124.98 265.63 125.48 266.05 125.315 265.593 125.197 265.121 125.13 264.64 125.098 264.445 125.14 264.245 125.25 264.08 125.427 263.929 125.635 263.819 125.86 263.76 126.648 263.508 127.458 263.333 128.28 263.24 129.058 263.11 129.852 263.11 130.63 263.24 130.862 263.283 131.071 263.407 131.22 263.59 131.359 263.789 131.429 264.028 131.42 264.27 131.51 264.58 131.48 265.4 131.49 265.93Z" fill="#455A64"/><path d="M133.53 271.15C132.508 270.658 131.363 270.481 130.24 270.64 129.318 270.713 128.429 271.012 127.65 271.51 127.415 271.68 127.09 271.65 126.89 271.44L126.89 271.44C126.674 271.226 126.673 270.878 126.887 270.662 126.909 270.639 126.934 270.619 126.96 270.6 127.816 269.999 128.825 269.652 129.87 269.6 130.837 269.442 131.827 269.532 132.75 269.86 132.75 269.86 133.76 270.49 133.53 271.15Z" fill="#F5F5F5"/><path d="M135.2 273.21C134.042 272.747 132.782 272.603 131.55 272.79 130.645 272.863 129.778 273.181 129.04 273.71 128.803 273.872 128.484 273.842 128.28 273.64L128.28 273.64C128.062 273.421 128.062 273.066 128.282 272.848 128.303 272.827 128.326 272.807 128.35 272.79 129.225 272.142 130.265 271.754 131.35 271.67 133.58 271.54 134.16 272.01 134.16 272.01 134.673 272.228 135.057 272.671 135.2 273.21Z" fill="#F5F5F5"/><path d="M129 267.42C129.941 267.268 130.905 267.361 131.8 267.69 132.19 267.92 132.44 268.54 132.19 268.69 131.405 268.369 130.554 268.242 129.71 268.32 128.874 268.394 128.056 268.607 127.29 268.95L126.67 269.26C126.413 269.361 126.121 269.248 126 269L126 269C125.894 268.77 125.98 268.497 126.2 268.37 127.055 267.858 128.01 267.534 129 267.42Z" fill="#F5F5F5"/><path d="M170.92 267.7C171.147 268.275 171.147 268.915 170.92 269.49 170.71 270.02 168.1 271.76 164.42 271.78 161.686 271.792 158.999 271.07 156.64 269.69 155.165 268.964 153.515 268.67 151.88 268.84 150.06 268.84 147.61 268.14 147.15 267.32 146.888 266.574 146.849 265.767 147.04 265Z" fill="#263238"/><path d="M155.27 257.35 155.56 257.27C155.714 257.216 155.878 257.195 156.04 257.21 156.224 257.249 156.391 257.344 156.52 257.48 156.895 257.916 157.229 258.384 157.52 258.88 158.718 260.205 160.226 261.212 161.91 261.81 163.15 262.37 164.36 262.81 165.64 263.25 167.002 263.584 168.339 264.016 169.64 264.54 170.903 265.28 171.326 266.904 170.586 268.166 170.421 268.448 170.206 268.697 169.95 268.9 167.204 270.403 164.009 270.864 160.95 270.2 158.78 269.75 156.25 267.65 153.44 267.64 151.66 267.64 148.27 267.38 147.02 266.12 146.56 265.56 147.02 263.62 147.32 261.95 147.62 260.28 147.43 257.42 148.24 257.43L148.32 258.34C148.4 258.61 149.04 258.85 149.25 259.06L149.99 259.8C150.292 260.145 150.659 260.427 151.07 260.63 151.833 260.847 152.646 260.801 153.38 260.5 153.38 260.5 152.96 259.12 152.92 258.99 152.886 258.879 152.886 258.761 152.92 258.65 152.952 258.539 153.023 258.443 153.12 258.38 153.757 257.891 154.489 257.54 155.27 257.35Z" fill="#455A64"/><path d="M160.22 261C159.921 260.524 159.402 260.231 158.84 260.22 157.703 260.315 156.639 260.816 155.84 261.63 155.575 261.881 155.564 262.298 155.814 262.563 155.873 262.625 155.943 262.675 156.02 262.71L156.02 262.71C156.274 262.827 156.575 262.771 156.77 262.57 157.669 261.614 158.909 261.05 160.22 261Z" fill="#F5F5F5"/><path d="M162.82 262.19C162.428 261.712 161.827 261.454 161.21 261.5 159.971 261.652 158.811 262.187 157.89 263.03 157.633 263.281 157.628 263.692 157.879 263.949 157.931 264.003 157.992 264.047 158.06 264.08L158.06 264.08C158.304 264.199 158.598 264.142 158.78 263.94 159.795 262.779 161.279 262.136 162.82 262.19Z" fill="#F5F5F5"/><path d="M165.68 263.25C165.238 262.814 164.629 262.592 164.01 262.64 162.818 262.801 161.708 263.337 160.84 264.17 160.581 264.426 160.579 264.844 160.835 265.103 160.886 265.155 160.945 265.198 161.01 265.23L161.01 265.23C161.256 265.336 161.542 265.281 161.73 265.09 162.678 263.883 164.145 263.199 165.68 263.25Z" fill="#F5F5F5"/><path d="M137.69 134.61C135.32 134.83 132.52 134.93 130.26 135.19 127.35 135.52 125.03 138.48 124.26 143.12 123.39 148.23 126.39 162.98 126.39 162.98L125 180.29C129.21 183.5 147.31 185.47 156.47 179.11 156.47 179.11 156.78 149.62 156.16 145.11 155.29 138.87 153.85 134.97 146.83 134.4Z" fill="#455A64"/><path d="M109.73 171.22C109.73 171.22 114.79 178.7 117.73 182.03 119.79 184.34 124.29 189.11 127.21 190.58 134.45 194.23 137.15 189.7 137.77 188.45 138.48 187.02 137.95 185.8 133.84 184.19 132.919 183.824 132.038 183.365 131.21 182.82 130.79 182.55 129.42 181.89 130.11 181.3 130.339 181.138 130.61 181.045 130.89 181.03L132.83 180.75C133.26 180.718 133.676 180.581 134.04 180.35 134.407 180.104 134.532 179.623 134.33 179.23 134.074 178.952 133.708 178.802 133.33 178.82 131.08 178.62 128.82 178.52 126.56 178.5 126.1 178.5 125.31 178.69 124.93 178.44 124.708 178.267 124.507 178.069 124.33 177.85 124.01 177.4 123.71 176.94 123.4 176.47 122.58 175.23 121.78 173.97 120.98 172.71 119.88 170.98 117.98 167.35 116.92 165.61L127.32 150.61C127.32 150.61 131.68 144.84 129.75 135.61 129.75 135.61 125.17 135.61 122.43 138.29 119.69 140.97 107.69 160.39 107.11 162.62 106.53 164.85 106.94 167 109.73 171.22Z" fill="#FFA8A7"/><path d="M120.54 161.78 126.32 153.5C128.426 151.556 129.921 149.04 130.62 146.26 131.62 141.26 131.04 136.32 130.26 135.19 121.79 135.53 122.33 137.09 116.68 145.82 114.5 149.19 112.94 151.87 110.82 155.33 112.84 158.913 116.454 161.311 120.54 161.78Z" fill="#37474F"/><path d="M132.19 120.62C132.19 120.62 134.19 126.71 134.87 127.97 135.232 128.746 135.97 129.28 136.82 129.38L136.82 125Z" fill="#263238"/><path d="M135.33 110.8C133.853 110.341 132.252 110.926 131.42 112.23 130.54 113.54 130.28 116.52 133.42 123.74L136 121Z" fill="#263238"/><path d="M136.52 121C136.321 120.352 135.947 119.77 135.44 119.32 134.282 118.355 132.56 118.512 131.595 119.67 131.474 119.815 131.368 119.973 131.28 120.14 130.19 122.29 132.17 124.94 133.64 125.75 134.591 126.391 135.876 126.186 136.58 125.28L136.8 135.17 136.8 135.17C137.71 137.17 141.67 138.83 143.98 138.47 145.83 138.19 147.5 136.68 145.79 134.61L145.85 131.78C147.073 132.006 148.317 132.1 149.56 132.06 151.56 131.79 152.9 130.23 153.56 128.06 154.63 124.55 155.07 121.72 154.39 114.77 153.65 107.15 144.82 106.87 139.98 109.77 135.14 112.67 136.52 121 136.52 121Z" fill="#FFA8A7"/><path d="M157.14 106.9C157.347 105.872 157.002 104.81 156.23 104.1 155.23 103.21 153.6 103.44 152.04 103.96 149.768 104.975 147.297 105.464 144.81 105.39 142.66 105.39 139.81 104.99 137.7 106.04 135.27 107.24 134.37 108.66 134.24 110.36 134.19 110.9 134.71 111.36 134.85 111.87 135.036 112.317 135.138 112.796 135.15 113.28 135.06 114.13 134.9 114.97 134.81 115.81 134.709 116.629 134.662 117.454 134.67 118.28 134.712 118.693 134.945 119.063 135.3 119.28 135.782 119.682 136.156 120.197 136.39 120.78 136.58 121.13 136.77 122.02 137.13 122.25 138.21 122.97 138.26 120.55 138.3 120.09 138.334 119.019 138.301 117.947 138.2 116.88 139.286 116.836 140.303 116.335 141 115.5 141.357 115.038 141.585 114.489 141.66 113.91 141.711 113.579 141.731 113.244 141.72 112.91 142.704 113.775 143.992 114.214 145.3 114.13 146.504 114.185 147.66 113.652 148.4 112.7 148.82 113.289 149.362 113.781 149.99 114.14 151.077 114.63 152.288 114.776 153.46 114.56 154.591 114.352 155.55 113.606 156.03 112.56 156.55 111.435 156.403 110.114 155.65 109.13 156.409 108.6 156.941 107.804 157.14 106.9Z" fill="#263238"/><path d="M134.36 111.29 131.36 109.58C131.783 108.748 132.8 108.416 133.632 108.839 133.652 108.849 133.671 108.859 133.69 108.87 134.519 109.372 134.813 110.433 134.36 111.29Z" fill="#263238"/><path d="M145.85 131.82C143.773 131.379 141.741 130.746 139.78 129.93 138.865 129.42 138.121 128.651 137.64 127.72 137.862 128.65 138.267 129.527 138.83 130.3 139.95 131.8 145.83 133.03 145.83 133.03Z" fill="#F28F8F"/><path d="M145.3 120.48C145.3 121.032 144.852 121.48 144.3 121.48 143.767 121.453 143.349 121.013 143.35 120.48 143.216 119.944 143.541 119.401 144.077 119.267 144.613 119.133 145.156 119.458 145.29 119.994 145.33 120.153 145.33 120.32 145.29 120.48Z" fill="#263238"/><path d="M144.4 117.17 142.4 118.23C142.114 117.652 142.34 116.952 142.91 116.65 143.453 116.378 144.114 116.598 144.386 117.141 144.391 117.151 144.395 117.16 144.4 117.17Z" fill="#263238"/><path d="M145.27 126 148.18 127.17C147.901 127.968 147.028 128.388 146.23 128.109 146.214 128.103 146.197 128.097 146.18 128.09 145.359 127.757 144.955 126.828 145.27 126Z" fill="#F28F8F"/><path d="M153.39 117.8 151.6 116.35C151.954 115.856 152.642 115.744 153.135 116.098 153.154 116.111 153.172 116.125 153.19 116.14 153.69 116.551 153.778 117.282 153.39 117.8Z" fill="#263238"/><path d="M152.93 120.09C152.93 120.642 152.482 121.09 151.93 121.09 151.409 121.048 151.008 120.612 151.01 120.09 151.01 119.538 151.458 119.09 152.01 119.09 152.531 119.132 152.932 119.568 152.93 120.09Z" fill="#263238"/><path d="M148.26 119.1 148.44 125.02 151.55 124.03 148.26 119.1Z" fill="#F28F8F"/></g></g><g id="freepik--speech-bubbles--inject-34"><g id="freepik--speech-bubble--inject-34"><path d="M105.29 109.57 103.93 108.79C103.64 108.597 103.458 108.278 103.44 107.93L103.44 81.63C103.458 81.2819 103.64 80.9628 103.93 80.77L140.53 59.61C140.843 59.4464 141.217 59.4464 141.53 59.61L142.88 60.39C143.174 60.5806 143.36 60.9 143.38 61.25L143.38 87.55C143.365 87.9014 143.178 88.2229 142.88 88.41L106.29 109.57C105.977 109.734 105.603 109.734 105.29 109.57Z" fill="#407BFF"/><g opacity="0.4"><path d="M105.29 109.57 103.93 108.79C103.64 108.597 103.458 108.278 103.44 107.93L103.44 81.63C103.458 81.2819 103.64 80.9628 103.93 80.77L140.53 59.61C140.843 59.4464 141.217 59.4464 141.53 59.61L142.88 60.39C143.174 60.5806 143.36 60.9 143.38 61.25L143.38 87.55C143.365 87.9014 143.178 88.2229 142.88 88.41L106.29 109.57C105.977 109.734 105.603 109.734 105.29 109.57Z" fill="#FFFFFF"/></g><path d="M106.28 82.12 142.87 61C143.15 60.84 143.37 61 143.37 61.28L143.37 87.58C143.355 87.9314 143.168 88.2529 142.87 88.44L106.28 109.6C106.01 109.76 105.78 109.6 105.78 109.31L105.78 83C105.799 82.6442 105.984 82.3181 106.28 82.12Z" fill="#407BFF"/><path d="M106.17 109.62C105.88 109.73 105.556 109.712 105.28 109.57L103.94 108.79C103.646 108.599 103.46 108.28 103.44 107.93L103.44 81.63C103.444 81.4573 103.492 81.2885 103.58 81.14L105.93 82.49C105.841 82.6388 105.79 82.8069 105.78 82.98L105.78 109.28C105.78 109.55 105.94 109.69 106.17 109.62Z" fill="#407BFF"/><g opacity="0.15"><path d="M106.17 109.62C105.88 109.73 105.556 109.712 105.28 109.57L103.94 108.79C103.646 108.599 103.46 108.28 103.44 107.93L103.44 81.63C103.444 81.4573 103.492 81.2885 103.58 81.14L105.93 82.49C105.841 82.6388 105.79 82.8069 105.78 82.98L105.78 109.28C105.78 109.55 105.94 109.69 106.17 109.62Z"/></g><path d="M111.15 86.89 138 71.36C138.46 71.09 138.83 71.28 138.83 71.78 138.786 72.345 138.478 72.8563 138 73.16L111.15 88.69C110.69 88.96 110.32 88.77 110.32 88.27 110.364 87.705 110.672 87.1937 111.15 86.89Z" fill="#F5F5F5"/><path d="M111.15 92.72 138 77.18C138.46 76.91 138.83 77.1 138.83 77.6 138.795 78.1732 138.486 78.6945 138 79L111.15 94.51C110.69 94.78 110.32 94.59 110.32 94.09 110.361 93.5266 110.67 93.017 111.15 92.72Z" fill="#F5F5F5"/><path d="M133.6 93.1 134.15 97.71C134.186 98.0227 133.962 98.3056 133.649 98.3419 133.528 98.3559 133.406 98.3307 133.3 98.27L128.9 95.75Z" fill="#407BFF"/><g id="freepik--Check--inject-34"><path d="M135.24 84.43C134.955 84.2967 134.616 84.4199 134.482 84.7051 134.482 84.7067 134.481 84.7084 134.48 84.71L132.15 89.8 131.65 89.28C131.403 89.0756 131.038 89.1098 130.833 89.3564 130.66 89.5649 130.655 89.8653 130.82 90.08L131.9 91.2C132.007 91.3067 132.149 91.3707 132.3 91.38L132.41 91.38C132.601 91.3513 132.763 91.2267 132.84 91.05L135.52 85.2C135.661 84.9245 135.551 84.5872 135.276 84.4467 135.264 84.4407 135.252 84.4351 135.24 84.43Z" fill="#455A64"/></g><g id="freepik--check--inject-34"><path d="M140.19 81.76C139.903 81.6317 139.565 81.756 139.43 82.04L137.1 87.13 136.6 86.61C136.371 86.389 136.009 86.389 135.78 86.61 135.56 86.8353 135.56 87.1947 135.78 87.42L136.86 88.55C136.967 88.6547 137.11 88.7153 137.26 88.72L137.37 88.72C137.558 88.6916 137.719 88.5716 137.8 88.4L140.48 82.54C140.623 82.2659 140.517 81.9276 140.243 81.7843 140.226 81.7753 140.208 81.7672 140.19 81.76Z" fill="#455A64"/></g></g><g id="freepik--speech-bubble--inject-34"><path d="M369.36 125.16 368 124.37C367.707 124.179 367.525 123.859 367.51 123.51L367.51 97.21C367.531 96.8628 367.712 96.545 368 96.35L404.6 75.2C404.913 75.0364 405.287 75.0364 405.6 75.2L406.95 75.98C407.248 76.1671 407.435 76.4886 407.45 76.84L407.45 103.14C407.43 103.49 407.244 103.809 406.95 104L370.36 125.16C370.044 125.313 369.676 125.313 369.36 125.16Z" fill="#407BFF"/><g opacity="0.4"><path d="M369.36 125.16 368 124.37C367.707 124.179 367.525 123.859 367.51 123.51L367.51 97.21C367.531 96.8628 367.712 96.545 368 96.35L404.6 75.2C404.913 75.0364 405.287 75.0364 405.6 75.2L406.95 75.98C407.248 76.1671 407.435 76.4886 407.45 76.84L407.45 103.14C407.43 103.49 407.244 103.809 406.95 104L370.36 125.16C370.044 125.313 369.676 125.313 369.36 125.16Z" fill="#FFFFFF"/></g><path d="M370.35 97.71 406.94 76.55C407.22 76.39 407.44 76.55 407.44 76.84L407.44 103.14C407.42 103.49 407.234 103.809 406.94 104L370.35 125.16C370.08 125.31 369.85 125.16 369.85 124.87L369.85 98.57C369.872 98.2205 370.057 97.9018 370.35 97.71Z" fill="#407BFF"/><path d="M377 119.91 377 124.52C377.003 124.934 377.342 125.267 377.756 125.264 377.996 125.262 378.22 125.145 378.36 124.95L385.09 115.24Z" fill="#407BFF"/><path d="M370.24 125.21C369.948 125.317 369.625 125.295 369.35 125.15L368.01 124.38C367.713 124.187 367.527 123.864 367.51 123.51L367.51 97.22C367.514 97.0442 367.562 96.8723 367.65 96.72L370 98.08C369.908 98.2275 369.857 98.3964 369.85 98.57L369.85 124.87C369.85 125.14 370 125.27 370.24 125.21Z" fill="#407BFF"/><g opacity="0.15"><path d="M370.24 125.21C369.948 125.317 369.625 125.295 369.35 125.15L368.01 124.38C367.713 124.187 367.527 123.864 367.51 123.51L367.51 97.22C367.514 97.0442 367.562 96.8723 367.65 96.72L370 98.08C369.908 98.2275 369.857 98.3964 369.85 98.57L369.85 124.87C369.85 125.14 370 125.27 370.24 125.21Z"/></g><path d="M375.22 102.48 402.08 86.94C402.54 86.68 402.91 86.87 402.91 87.36 402.871 87.9265 402.562 88.4398 402.08 88.74L375.22 104.28C374.76 104.54 374.39 104.35 374.39 103.86 374.429 103.293 374.738 102.78 375.22 102.48Z" fill="#F5F5F5"/><path d="M375.22 108.3 402.08 92.76C402.54 92.5 402.91 92.69 402.91 93.18 402.871 93.7465 402.562 94.2598 402.08 94.56L375.22 110.1C374.76 110.36 374.39 110.18 374.39 109.68 374.431 109.114 374.739 108.601 375.22 108.3Z" fill="#F5F5F5"/><g id="freepik--check--inject-34"><path d="M399.31 100C399.02 99.873 398.682 100.002 398.55 100.29L396.22 105.38 395.71 104.86C395.488 104.636 395.128 104.635 394.904 104.856 394.903 104.857 394.901 104.859 394.9 104.86 394.68 105.085 394.68 105.445 394.9 105.67L395.98 106.8C396.085 106.908 396.229 106.969 396.38 106.97L396.49 106.97C396.677 106.933 396.836 106.811 396.92 106.64L399.6 100.78C399.74 100.498 399.626 100.156 399.344 100.016 399.333 100.01 399.322 100.005 399.31 100Z" fill="#455A64"/></g><g id="freepik--check--inject-34"><path d="M404.26 97.35C403.982 97.214 403.647 97.3289 403.511 97.6066 403.507 97.6143 403.503 97.6221 403.5 97.63L401.17 102.72 400.66 102.2C400.438 101.976 400.078 101.975 399.854 102.196 399.853 102.197 399.851 102.199 399.85 102.2 399.63 102.425 399.63 102.785 399.85 103.01L400.93 104.13C401.037 104.237 401.179 104.301 401.33 104.31L401.44 104.31C401.629 104.278 401.79 104.154 401.87 103.98L404.55 98.13C404.693 97.8559 404.587 97.5176 404.313 97.3743 404.296 97.3653 404.278 97.3572 404.26 97.35Z" fill="#455A64"/></g></g><g id="freepik--speech-bubble--inject-34"><path d="M269.36 163.55 268.01 162.77C267.716 162.579 267.53 162.26 267.51 161.91L267.51 149C267.527 148.649 267.713 148.328 268.01 148.14L293.93 133.14C294.246 132.987 294.614 132.987 294.93 133.14L296.28 133.92C296.577 134.113 296.763 134.436 296.78 134.79L296.78 147.73C296.763 148.084 296.577 148.407 296.28 148.6L270.37 163.6C270.045 163.748 269.669 163.73 269.36 163.55Z" fill="#407BFF"/><g opacity="0.4"><path d="M269.36 163.55 268.01 162.77C267.716 162.579 267.53 162.26 267.51 161.91L267.51 149C267.527 148.649 267.713 148.328 268.01 148.14L293.93 133.14C294.246 132.987 294.614 132.987 294.93 133.14L296.28 133.92C296.577 134.113 296.763 134.436 296.78 134.79L296.78 147.73C296.763 148.084 296.577 148.407 296.28 148.6L270.37 163.6C270.045 163.748 269.669 163.73 269.36 163.55Z" fill="#FFFFFF"/></g><path d="M270.36 149.45 296.27 134.45C296.55 134.29 296.77 134.45 296.77 134.74L296.77 147.68C296.753 148.034 296.567 148.357 296.27 148.55L270.36 163.55C270.08 163.71 269.86 163.55 269.86 163.26L269.86 150.31C269.88 149.96 270.066 149.641 270.36 149.45Z" fill="#407BFF"/><path d="M277 158.3 277 162.92C276.991 163.329 277.315 163.667 277.724 163.676 277.98 163.682 278.22 163.555 278.36 163.34L285.09 153.63Z" fill="#407BFF"/><path d="M270.24 163.6C269.959 163.72 269.641 163.72 269.36 163.6L268.01 162.82C267.716 162.629 267.53 162.31 267.51 161.96L267.51 149C267.513 148.826 267.565 148.656 267.66 148.51L270 149.86C269.912 150.008 269.864 150.177 269.86 150.35L269.86 163.3C269.86 163.53 270 163.67 270.24 163.6Z" fill="#407BFF"/><g opacity="0.15"><path d="M270.24 163.6C269.959 163.72 269.641 163.72 269.36 163.6L268.01 162.82C267.716 162.629 267.53 162.31 267.51 161.96L267.51 149C267.513 148.826 267.565 148.656 267.66 148.51L270 149.86C269.912 150.008 269.864 150.177 269.86 150.35L269.86 163.3C269.86 163.53 270 163.67 270.24 163.6Z"/></g><path d="M276.85 150.77C277.79 150.23 278.54 150.67 278.54 151.77 278.479 152.961 277.85 154.051 276.85 154.7 275.92 155.24 275.16 154.8 275.16 153.7 275.226 152.51 275.853 151.423 276.85 150.77Z" fill="#FAFAFA"/><path d="M283.31 147.06C284.25 146.52 285 146.96 285 148.06 284.939 149.251 284.31 150.341 283.31 150.99 282.38 151.52 281.63 151.09 281.63 149.99 281.692 148.802 282.316 147.714 283.31 147.06Z" fill="#FAFAFA"/><path d="M289.78 143.36C290.71 142.82 291.47 143.26 291.47 144.36 291.404 145.55 290.777 146.637 289.78 147.29 288.84 147.83 288.09 147.39 288.09 146.29 288.151 145.099 288.78 144.009 289.78 143.36Z" fill="#FAFAFA"/></g><g id="freepik--speech-bubble--inject-34"><path d="M255.39 82.56 254 81.78C253.703 81.5873 253.517 81.2636 253.5 80.91L253.5 54.62C253.517 54.2664 253.703 53.9427 254 53.75L290.63 32.6C290.944 32.4397 291.316 32.4397 291.63 32.6L292.98 33.38C293.273 33.5718 293.458 33.8905 293.48 34.24L293.48 60.54C293.458 60.8895 293.273 61.2082 292.98 61.4L256.39 82.56C256.076 82.7203 255.704 82.7203 255.39 82.56Z" fill="#407BFF"/><g opacity="0.4"><path d="M255.39 82.56 254 81.78C253.703 81.5873 253.517 81.2636 253.5 80.91L253.5 54.62C253.517 54.2664 253.703 53.9427 254 53.75L290.63 32.6C290.944 32.4397 291.316 32.4397 291.63 32.6L292.98 33.38C293.273 33.5718 293.458 33.8905 293.48 34.24L293.48 60.54C293.458 60.8895 293.273 61.2082 292.98 61.4L256.39 82.56C256.076 82.7203 255.704 82.7203 255.39 82.56Z" fill="#FFFFFF"/></g><path d="M256.39 55.11 293 34C293.27 33.84 293.5 34 293.5 34.29L293.5 60.59C293.478 60.9395 293.293 61.2582 293 61.45L256.39 82.56C256.11 82.72 255.89 82.56 255.89 82.27L255.89 56C255.897 55.6383 256.085 55.3042 256.39 55.11Z" fill="#407BFF"/><path d="M263 77.31 263 81.93C263.001 82.3442 263.338 82.6791 263.752 82.678 264 82.6773 264.231 82.5546 264.37 82.35L271.1 72.64Z" fill="#407BFF"/><path d="M256.27 82.61C255.989 82.7301 255.671 82.7301 255.39 82.61L254 81.78C253.706 81.5894 253.52 81.27 253.5 80.92L253.5 54.62C253.507 54.4464 253.558 54.2775 253.65 54.13L256 55.48C255.912 55.6285 255.864 55.7973 255.86 55.97L255.86 82.27C255.89 82.54 256.05 82.68 256.27 82.61Z" fill="#407BFF"/><g opacity="0.15"><path d="M256.27 82.61C255.989 82.7301 255.671 82.7301 255.39 82.61L254 81.78C253.706 81.5894 253.52 81.27 253.5 80.92L253.5 54.62C253.507 54.4464 253.558 54.2775 253.65 54.13L256 55.48C255.912 55.6285 255.864 55.7973 255.86 55.97L255.86 82.27C255.89 82.54 256.05 82.68 256.27 82.61Z"/></g><path d="M261.25 59.88 288.11 44.34C288.57 44.08 288.94 44.27 288.94 44.76 288.901 45.3265 288.592 45.8398 288.11 46.14L261.25 61.68C260.79 61.94 260.42 61.76 260.42 61.26 260.461 60.694 260.769 60.1814 261.25 59.88Z" fill="#F5F5F5"/><path d="M261.25 65.7 288.11 50.17C288.57 49.9 288.94 50.09 288.94 50.59 288.899 51.1534 288.59 51.663 288.11 51.96L261.25 67.5C260.79 67.76 260.42 67.58 260.42 67.08 260.461 66.514 260.769 66.0014 261.25 65.7Z" fill="#F5F5F5"/><g id="freepik--check--inject-34"><path d="M285.35 57.41C285.06 57.283 284.722 57.4121 284.59 57.7L282.25 62.79 281.75 62.27C281.528 62.0463 281.168 62.0446 280.944 62.2661 280.943 62.2674 280.941 62.2687 280.94 62.27 280.714 62.4965 280.714 62.8635 280.94 63.09L282 64.19C282.1 64.2997 282.242 64.3615 282.39 64.36 282.43 64.365 282.47 64.365 282.51 64.36 282.696 64.3265 282.853 64.2029 282.93 64.03L285.62 58.18C285.751 57.8924 285.632 57.553 285.35 57.41Z" fill="#455A64"/></g><g id="freepik--check--inject-34"><path d="M290.3 54.75C290.015 54.6167 289.676 54.7399 289.542 55.0251 289.542 55.0267 289.541 55.0284 289.54 55.03L287.2 60.12 286.7 59.6C286.453 59.3956 286.088 59.4298 285.883 59.6764 285.71 59.8849 285.705 60.1853 285.87 60.4L287 61.52C287.102 61.6286 287.242 61.6932 287.39 61.7L287.51 61.7C287.698 61.6699 287.856 61.5452 287.93 61.37L290.62 55.52C290.747 55.226 290.612 54.8846 290.318 54.7574 290.312 54.7548 290.306 54.7524 290.3 54.75Z" fill="#455A64"/></g></g></g></svg>