<svg viewBox="0 0 500 500" xmlns="http://www.w3.org/2000/svg" xmlns:xlink="http://www.w3.org/1999/xlink" overflow="hidden"><g id="freepik--Floor--inject-26"><ellipse cx="252" cy="350.28" rx="229.93" ry="132.75" fill="#F5F5F5"/></g><g id="freepik--Shadows--inject-26"><ellipse cx="116.98" cy="339.07" rx="56.61" ry="32.68" fill="#E0E0E0"/><ellipse cx="388.65" cy="339.07" rx="56.61" ry="32.68" fill="#E0E0E0"/><ellipse cx="247.84" cy="401.82" rx="56.61" ry="32.68" fill="#E0E0E0"/></g><g id="freepik--Characters--inject-26"><path d="M374 78.89C374 78.89 370.81 80.51 373.4 88.03 375.99 95.55 370.12 99.31 368.6 96.35 368.6 96.35 368.7 101.12 374.49 101.12 380.28 101.12 381.31 96.33 381.31 96.33 381.31 96.33 383.39 98.61 383.39 105.03 383.39 111.45 377.27 135.56 398.7 135.56 420.13 135.56 419.75 117.3 419.75 117.3 419.75 117.3 425.24 117.4 425.24 109.18 425.24 109.18 416.89 114.37 416.89 102.78 416.89 91.19 418.8 76.51 410 76.51 410 76.51 413.05 70.22 407 66.19 400.95 62.16 382.78 67.64 382.78 67.64 382.78 67.64 377.32 64.36 373.41 68.24 368.6 73 374 78.89 374 78.89Z" fill="#263238"/><path d="M379.3 327.57 375.76 325.28 375.76 320.71 379.17 321.01 379.3 327.57Z" fill="#263238"/><path d="M384.13 315.92 384 324.73 379.3 327.57 378.76 320.05C378.76 320.05 382.43 315.86 384.13 315.92Z" fill="#263238"/><path d="M371.3 305.58C371.3 305.58 371.05 305.77 368.07 313.77 365.09 321.77 361.99 324.71 360.19 326.21 358.39 327.71 354.29 330.47 354.29 332.61 354.29 334.75 357.74 336.43 362.79 335.99 367.84 335.55 374.95 334.32 376.79 328.26 377.38 326.26 377.49 322.72 379.79 320.26 382.09 317.8 384.14 315.92 384.14 315.92 384.14 315.92 384.37 307.84 382.14 305.67Z" fill="#37474F"/><path d="M371.07 295.75 371.32 306.39C371.32 306.39 371.7 309.63 376.69 308.97 381.68 308.31 382 306 382 306L384.25 295.72Z" fill="#FFA8A7"/><path d="M374.14 172.52C374.14 172.52 370.79 216.61 370.66 240.28 370.53 263.95 371.07 295.75 371.07 295.75 375.201 297.926 380.139 297.926 384.27 295.75L391 263.51C391.8 259.627 391.8 255.623 391 251.74L391 251.74C390.49 249.213 390.51 246.608 391.06 244.09L399.16 207 399.16 172.52Z" fill="#455A64"/><path d="M380.73 181.55C380.73 181.55 381.73 192.2 389.73 197.55L395.65 223.18 395.65 223.18 399.15 207 399.15 181.55Z" fill="#37474F"/><path d="M415.24 316.38C415.24 316.38 413.96 316.7 414.32 319.64 414.68 322.58 415.13 326.34 415.13 326.34 415.13 326.34 415.55 332.43 415.52 336.41 415.49 340.39 415.26 345.73 416.07 348.57 416.88 351.41 418.56 354.43 421.16 354.34 423.76 354.25 429.84 350.44 429.25 340.34 429.09 337.6 426.25 328.34 426.25 328.34 426.25 328.34 426.71 319.34 426.64 317.11 426.681 316.386 426.288 315.706 425.64 315.38Z" fill="#37474F"/><path d="M413.79 308.21 415.38 317.21C415.38 317.21 416.15 319.92 420.99 319.92 423.266 319.974 425.24 318.353 425.63 316.11L425.92 307.51Z" fill="#FFA8A7"/><path d="M374.14 172.52C374.14 172.52 380.02 191.23 392.23 194.52L402.3 243.69 413.79 308.21C417.544 310.694 422.487 310.401 425.92 307.49L427.62 258.49C427.748 254.859 427.09 251.243 425.69 247.89L425.69 247.89C424.545 245.147 423.963 242.202 423.98 239.23 424.04 228.34 424.18 200.93 424.19 194.14 424.19 185.62 421.81 172.96 419.95 168.56Z" fill="#455A64"/><path d="M360.89 148.29 346.34 142 341.22 151.88 356.31 160C356.31 160 362.54 155 360.89 148.29Z" fill="#FFA8A7"/><path d="M382.79 113.88 381.15 114.13C377.425 114.688 374.319 117.27 373.09 120.83L363.27 149.4 360.89 148.29C360.89 148.29 360.63 155.29 356.31 160.03L362.55 163.03C366.319 164.888 370.883 163.576 373.09 160L378.25 151.54Z" fill="#407BFF"/><path d="M382.79 113.88 381.15 114.13C377.425 114.688 374.319 117.27 373.09 120.83L363.27 149.4 360.89 148.29C360.89 148.29 360.63 155.29 356.31 160.03L362.55 163.03C366.319 164.888 370.883 163.576 373.09 160L378.25 151.54Z" opacity="0.2"/><path d="M363.27 149.4 368.92 152.03 364.13 146.9 363.27 149.4Z" fill="#407BFF"/><path d="M363.27 149.4 368.92 152.03 364.13 146.9 363.27 149.4Z" opacity="0.4"/><path d="M384.19 113.81C392.786 113.322 401.407 113.476 409.98 114.27 405.747 119.991 398.764 122.993 391.7 122.13 385.23 121.46 383.19 116.05 384.19 113.81Z" fill="#FFAAA8"/><path d="M403.54 114.54 390.3 114.42 390.3 94.94 403.54 94.94 403.54 114.54Z" fill="#FFAAA8"/><path d="M390.3 111C395.77 108.973 400.169 104.79 402.47 99.43L402.47 94.94 390.3 94.94Z" fill="#FF9090"/><path d="M387.21 73.23C387.21 73.23 375.1 73.94 376.6 94.64 377.29 104.22 379.54 109.18 386.91 108.82 395.26 108.4 407.12 102.66 406.34 86.28 405.56 69.9 387.21 73.23 387.21 73.23Z" fill="#FFAAA8"/><path d="M403.54 94.94C403.54 94.94 400.22 95.81 400.22 91.06 400.22 91.06 385.47 90.06 382.22 75.42 382.22 75.42 383.68 71.03 392.89 71.03 402.1 71.03 409.84 79.18 407.44 90.37Z" fill="#263238"/><path d="M385.48 90.49 385.48 97.61 381.31 96.33 385.48 90.49Z" fill="#FF9090"/><path d="M391.75 91.25C391.75 92.0508 391.101 92.7 390.3 92.7 389.499 92.7 388.85 92.0508 388.85 91.25 388.85 90.4492 389.499 89.8 390.3 89.8 391.101 89.8 391.75 90.4492 391.75 91.25Z" fill="#263238"/><path d="M382.21 90.24C382.21 91.0408 381.561 91.69 380.76 91.69 379.959 91.69 379.31 91.0408 379.31 90.24 379.31 89.4392 379.959 88.79 380.76 88.79 381.561 88.79 382.21 89.4392 382.21 90.24Z" fill="#263238"/><path d="M379 87.22 381.84 85.53C381.84 85.53 380.75 84.4 379.67 85.08 379.03 85.5893 378.765 86.4368 379 87.22Z" fill="#263238"/><path d="M385.84 100C387.493 100.116 389.137 99.6763 390.51 98.75 390.51 98.75 390.83 101.21 388.77 101.68 386.71 102.15 385.84 100 385.84 100Z" fill="#FF9090"/><path d="M402.37 95.48C402.322 94.2878 402.538 93.0998 403 92 403.474 90.5925 404.74 89.6019 406.22 89.48 409.94 89.38 410.45 92.96 410.4 94.23 410.26 97.58 407.55 101.23 402.51 101.34Z" fill="#FFAAA8"/><path d="M384.19 113.81C384.19 113.81 386.14 119.43 393.92 120.1 401.7 120.77 408.69 115.77 409.98 114.27L414.98 114.85 416.75 138.38 413.93 148.22C412.991 151.532 413.405 155.082 415.08 158.09 416.952 161.453 418.595 164.937 420 168.52 420 168.52 410.79 176.67 392.28 176.67 380.93 176.67 374.19 172.52 374.19 172.52 374.19 172.52 376.59 157.52 376.88 154.07 377.187 151.081 377.291 148.074 377.19 145.07 377.19 145.07 371.38 142.8 371.38 133.97 371.38 126.35 382.84 113.92 382.84 113.92Z" fill="#407BFF"/><path d="M420.2 178.29 418.55 191.51 428.63 193.38 431.81 181.55C429.585 177.467 424.471 175.96 420.388 178.185 420.325 178.219 420.262 178.254 420.2 178.29Z" fill="#FFA8A7"/><path d="M410.94 114.38C410.94 114.38 407.13 118.3 412.47 132.71 417.81 147.12 422.39 160.71 422.39 160.71L420.2 178.32C420.2 178.32 427.6 176.58 431.81 181.58L435.23 167.23C436.04 163.844 435.96 160.306 435 156.96L425.55 123.87C424.215 119.048 420.114 115.499 415.15 114.87L415 114.87Z" fill="#407BFF"/><path d="M410.94 114.38C410.94 114.38 407.13 118.3 412.47 132.71 417.81 147.12 422.39 160.71 422.39 160.71L420.2 178.32C420.2 178.32 427.6 176.58 431.81 181.58L435.23 167.23C436.04 163.844 435.96 160.306 435 156.96L425.55 123.87C424.215 119.048 420.114 115.499 415.15 114.87L415 114.87Z" opacity="0.2"/><path d="M422.39 160.68C424.293 160.168 426.297 160.168 428.2 160.68 426.363 159.455 424.122 158.992 421.95 159.39Z" fill="#407BFF"/><path d="M422.39 160.68C424.293 160.168 426.297 160.168 428.2 160.68 426.363 159.455 424.122 158.992 421.95 159.39Z" opacity="0.4"/><path d="M418.55 191.51C416.818 193.775 415.887 196.549 415.9 199.4 415.9 201 413.9 203.83 415.59 204.53 416.3 204.83 418.45 202.88 419.18 200.47 419.662 202.56 419.628 204.736 419.08 206.81 418.16 210.3 417.7 211.1 419.86 211.22 422.02 211.34 428.43 209.46 429.32 205.13 430.21 200.8 428.63 193.38 428.63 193.38Z" fill="#FFA8A7"/><path d="M346.64 143.83C346.64 143.83 346.27 140.22 345 138.47 343.809 136.986 342.774 135.385 341.91 133.69 341.5 132.55 340.81 131.12 339.67 133.13 338.53 135.14 340.26 137.87 341.12 139.26L332.5 139.26 332.5 146.26C332.5 146.26 333.78 151.76 341.22 151.91Z" fill="#FFA8A7"/><path d="M122.65 308.85 122.79 318.33 128.24 321.8 135.1 318.02 135.1 309.38 122.65 308.85Z" fill="#FFA8A7"/><path d="M85.01 315.47 84.87 326.15 86.91 329.62 96.21 329.62 97.71 314.94 85.01 315.47Z" fill="#FFA8A7"/><path d="M136.7 189.05 137.46 255.37 135.9 312C135.9 312 132.04 316.63 121.53 312.67 121.53 312.67 115.95 273.74 116.82 258.72 116.959 256.023 116.851 253.318 116.5 250.64L108.5 188.47Z" fill="#455A64"/><path d="M126.94 200.47C125.85 205.455 123.06 209.905 119.05 213.06L114.28 233.31 110.06 200.4Z" fill="#37474F"/><path d="M88.28 188.49C88.28 188.49 87.81 212.86 87.77 229.9 87.77 239.4 87.83 246.22 87.9 250.4 87.9477 253.373 87.5809 256.338 86.81 259.21 85.58 263.86 83.81 272.83 83.81 286.56 83.81 307.92 84.01 317.18 84.01 317.18 84.01 317.18 92.76 322.44 98.66 317.18L107.66 257.62 116.02 210.62C116.02 210.62 133.15 204.84 133.15 188.88Z" fill="#455A64"/><path d="M145.52 143.48 149.13 153.48C149.13 153.48 160.21 147.34 166.53 143.82L171.95 151.82C171.95 151.82 155.26 165.04 147.38 166.82 139.5 168.6 133.21 149.35 133.21 149.35 133.21 149.35 136.55 142.38 145.52 143.48Z" fill="#FFA8A7"/><path d="M126.54 116.73 128.61 116.73C133.454 116.813 137.719 119.943 139.25 124.54L145.52 143.45C140.302 143.984 135.607 146.852 132.75 151.25Z" fill="#407BFF"/><path d="M77.64 200C77.64 200 79.64 202.62 78.4 208.62 77.93 210.93 78.88 213.18 77.85 213.96 76.82 214.74 75 212.2 75 209 74.0008 210.805 73.3846 212.796 73.19 214.85 72.93 218.15 74.14 220.8 69.75 218.65 65.36 216.5 63.96 214.65 63.96 212.18 63.96 208.92 66.75 202.61 68.36 199.55Z" fill="#FFA8A7"/><path d="M111 116.23 94.31 117.48 87.31 149.73C87.31 149.73 90.2 164.29 90.31 166.78 90.3529 170.538 90.0685 174.292 89.46 178 88.98 181.32 88.28 188.5 88.28 188.5 88.28 188.5 91.28 195.89 115.44 195.89 126.17 195.89 133.61 192.14 136.7 189.06 136.7 189.06 134.05 135.99 133.87 131.46 133.69 126.93 131.72 119.59 126.54 116.74Z" fill="#407BFF"/><path d="M111 116.23 94.31 117.48 87.31 149.73C87.31 149.73 90.2 164.29 90.31 166.78 90.3529 170.538 90.0685 174.292 89.46 178 88.98 181.32 88.28 188.5 88.28 188.5 88.28 188.5 91.28 195.89 115.44 195.89 126.17 195.89 133.61 192.14 136.7 189.06 136.7 189.06 134.05 135.99 133.87 131.46 133.69 126.93 131.72 119.59 126.54 116.74Z" opacity="0.2"/><path d="M99.69 76.43C99.69 76.43 93.37 76.91 93.37 88.28 93.152 96.7108 97.5856 104.579 104.91 108.76L115.91 106.76C115.91 106.76 133.68 100.32 132.78 83.69 132.41 76.87 127.56 74.33 127.56 74.33Z" fill="#263238"/><path d="M103.67 117.56C103.67 117.56 112.8 123.75 115.79 125.34L115.79 125.34C118.71 120.4 117.23 117.44 117.23 117.44L117.23 97.5 103.67 97.5Z" fill="#FFAAA8"/><path d="M117.23 113.9C111.631 111.825 107.127 107.546 104.77 102.06L104.77 97.5 117.23 97.5Z" fill="#FF9090"/><path d="M120.38 75.27C120.38 75.27 133.29 75.76 130.96 96.53 129.86 106.3 129.06 111.7 120.7 111.7 112.34 111.7 100 105.4 100.8 88.63 101.6 71.86 120.38 75.27 120.38 75.27Z" fill="#FFAAA8"/><path d="M121.97 93.55 121.97 100.84 126.24 99.53 121.97 93.55Z" fill="#FF9090"/><path d="M115.74 94.81C115.74 95.6384 116.412 96.31 117.24 96.31 118.068 96.31 118.74 95.6384 118.74 94.81 118.74 93.9816 118.068 93.31 117.24 93.31 116.412 93.31 115.74 93.9816 115.74 94.81Z" fill="#263238"/><path d="M125.51 93.78C125.51 94.6084 126.182 95.28 127.01 95.28 127.838 95.28 128.51 94.6084 128.51 93.78 128.51 92.9516 127.838 92.28 127.01 92.28 126.182 92.28 125.51 92.9516 125.51 93.78Z" fill="#263238"/><path d="M128.8 90.68 125.9 89C125.9 89 127.01 87.84 128.12 88.54 128.763 89.0468 129.033 89.8947 128.8 90.68Z" fill="#263238"/><path d="M116.45 90.18 113.83 92.31C113.83 92.31 113.13 90.87 114.16 90.07 114.871 89.6221 115.786 89.666 116.45 90.18Z" fill="#263238"/><path d="M124 103.79C122.584 103.893 121.175 103.516 120 102.72 120 102.72 119.73 104.83 121.49 105.23 122.562 105.406 123.611 104.805 124 103.79Z" fill="#FF9090"/><path d="M103.36 95.26C103.36 95.26 107.6 94.09 106.6 81.85 106.6 81.85 121.12 86.05 128.48 80.27 135.84 74.49 134.11 71.27 132.48 72.21L129.77 73.8C129.77 73.8 133.07 66.32 130.32 64.91 127.57 63.5 125.32 68.26 119.95 68.34 114.58 68.42 99.8 66.57 99.55 76.43L99.55 95.26Z" fill="#263238"/><path d="M104.9 97C104.9 97 104.37 92 100.9 91.91 97.09 91.8 96.58 95.47 96.63 96.77 96.77 100.2 99.54 103.9 104.71 104.05Z" fill="#FFAAA8"/><path d="M103.62 113.9C103.62 113.9 106.37 119.9 115.79 125.34 115.79 125.34 112.5 124.11 108.17 126.96 103.64 129.96 102.72 130.12 101.11 123.15 99.5 116.18 101.77 115.28 103.62 113.9Z" fill="#407BFF"/><path d="M115.79 125.34C116.507 122.501 116.989 119.608 117.23 116.69L117.23 113.9C117.23 113.9 120.12 113.58 124.12 124.27 124.91 126.4 119.97 124.83 118.7 124.46 117.643 124.225 116.54 124.559 115.79 125.34Z" fill="#407BFF"/><path d="M75.32 146.05 70.16 166.05C69.6745 167.907 69.3962 169.812 69.33 171.73L68.33 199.61 77.62 200.01C77.62 200.01 82.18 177.86 83.21 170.2L89.21 149.88Z" fill="#FFA8A7"/><path d="M95.58 117.38C95.58 117.38 99.29 121.9 94.98 133.83 90.67 145.76 89.26 149.83 89.26 149.83 89.26 149.83 80.64 151.73 75.32 146.04L81.32 125.69C82.5354 121.584 86.0235 118.556 90.26 117.93 92.06 117.69 94 117.47 95.58 117.38Z" fill="#407BFF"/><path d="M166.53 143.83C166.53 143.83 166.9 140.22 168.17 138.47 169.364 136.989 170.4 135.387 171.26 133.69 171.67 132.55 172.36 131.12 173.5 133.13 174.64 135.14 172.91 137.87 172.05 139.26L180.67 139.26 180.67 146.26C180.67 146.26 179.39 151.76 171.95 151.91Z" fill="#FFA8A7"/><path d="M84.88 325.48C85.4566 326.902 86.1246 328.285 86.88 329.62 86.88 329.62 86.09 324.73 90.34 324.3 94.59 323.87 96.85 323.96 96.9 326.3 96.95 328.64 96.85 330.85 96.85 330.85 96.85 330.85 98.03 336.26 100.03 339.11 102.03 341.96 103.35 343.41 104.41 344.81 105.47 346.21 107.7 348.9 105.29 353.13 104.12 355.13 91.02 356.13 87.77 350.89 84.52 345.65 87.15 343.97 84.51 339.95 81.87 335.93 81.65 335.06 82.08 332.73 82.51 330.4 83.46 326.64 83.57 325.89 83.82 324.33 84.84 324.76 84.84 324.76Z" fill="#37474F"/><path d="M105.32 353.1C105.512 352.779 105.683 352.444 105.83 352.1L105.83 352.1C105.83 352.1 92.02 352.71 89.65 351.41 87.28 350.11 86.96 345.64 86.79 343.88 86.62 342.12 86.51 340.57 83.95 336.61 83.1214 335.437 82.4991 334.132 82.11 332.75L82.11 332.75C81.68 335.08 81.89 335.95 84.54 339.97 87.19 343.99 84.54 345.63 87.8 350.91 91.06 356.19 104.15 355.15 105.32 353.1Z" fill="#263238"/><path d="M88.82 334.09C88.6837 334.086 88.5544 334.028 88.46 333.93 88.2639 333.736 88.2626 333.419 88.4571 333.223 88.4581 333.222 88.459 333.221 88.46 333.22 88.46 333.22 92.81 329.22 97.54 332.07 97.7775 332.213 97.8575 332.519 97.72 332.76 97.5738 332.994 97.2681 333.069 97.03 332.93 92.94 330.49 89.18 333.93 89.14 333.93 89.0573 334.022 88.943 334.079 88.82 334.09Z" fill="#EBEBEB"/><path d="M89.93 337.64C89.7894 337.642 89.6547 337.584 89.56 337.48 89.3667 337.291 89.3635 336.98 89.5529 336.787 89.5553 336.785 89.5576 336.782 89.56 336.78 89.56 336.78 93.92 332.78 98.65 335.63 98.8875 335.774 98.9636 336.083 98.82 336.32 98.6764 336.557 98.3675 336.634 98.13 336.49 94.05 334.05 90.4 337.37 90.25 337.49 90.1651 337.577 90.0514 337.631 89.93 337.64Z" fill="#EBEBEB"/><path d="M92 340.94C91.8614 340.942 91.7278 340.888 91.63 340.79 91.4339 340.596 91.4326 340.279 91.6271 340.083 91.6281 340.082 91.629 340.081 91.63 340.08 91.63 340.08 95.98 336.08 100.71 338.93 100.945 339.075 101.018 339.383 100.873 339.618 100.732 339.847 100.434 339.923 100.2 339.79 96.12 337.36 92.46 340.67 92.31 340.79 92.2277 340.875 92.1178 340.928 92 340.94Z" fill="#EBEBEB"/><path d="M104.44 344.78C103.9 344.07 103.3 343.35 102.57 342.43 97.0972 340.94 91.4528 344.169 89.9629 349.642 89.8105 350.201 89.7059 350.773 89.65 351.35 89.65 351.35 92.85 353.48 98.76 353.48 101.184 353.43 103.579 352.942 105.83 352.04L105.83 351.95C107.31 348.38 105.4 346 104.44 344.78Z" fill="#EBEBEB"/><path d="M122.76 316.76C124.245 318.766 126.106 320.465 128.24 321.76 128.24 321.76 128.12 319.21 128.87 318.31 129.62 317.41 135.25 315.62 135.87 316.72 136.379 318.036 136.758 319.4 137 320.79 137 320.79 144.4 326.35 146.94 327.58 149.48 328.81 156.05 330.79 156.68 334.05 157.253 336.717 155.846 339.415 153.33 340.47 147.41 342.6 138.74 340.11 133.87 336.68 131.488 334.839 128.589 333.79 125.58 333.68 124.15 333.43 120.14 332.63 119.86 329.37 119.58 326.11 120.8 323.37 120.86 321.79 120.92 320.21 120.5 315.95 122.8 315.95Z" fill="#37474F"/><path d="M146.52 340C141.912 339.652 137.49 338.04 133.74 335.34 130.33 332.73 128.92 333.18 124.46 332.28 122.38 331.902 120.63 330.504 119.8 328.56 119.8 328.83 119.8 329.1 119.8 329.37 120.08 332.63 124.09 333.43 125.52 333.68 128.529 333.79 131.428 334.839 133.81 336.68 138.68 340.11 147.35 342.6 153.27 340.47 154.04 340.187 154.727 339.716 155.27 339.1 152.415 339.835 149.465 340.138 146.52 340Z" fill="#263238"/><path d="M156.64 334.09C156.16 331.63 152.3 329.9 149.34 328.67 141.13 331.67 142.08 339.11 142.1 339.26 143.547 339.646 145.027 339.897 146.52 340.01 149.457 340.156 152.4 339.863 155.25 339.14 155.022 339.393 154.771 339.624 154.5 339.83 156.256 338.486 157.088 336.255 156.64 334.09Z" fill="#EBEBEB"/><path d="M133.88 325.61C133.804 325.608 133.729 325.591 133.66 325.56 133.429 325.432 133.341 325.145 133.46 324.91 134.449 323.089 136.14 321.752 138.14 321.21 138.399 321.155 138.654 321.32 138.71 321.579 138.71 321.579 138.71 321.58 138.71 321.58 138.76 321.839 138.596 322.09 138.34 322.15 136.636 322.647 135.199 323.797 134.34 325.35 134.255 325.523 134.072 325.626 133.88 325.61Z" fill="#EBEBEB"/><path d="M137.24 328.2C137.163 328.199 137.087 328.178 137.02 328.14 136.791 328.016 136.702 327.732 136.82 327.5 137.809 325.679 139.5 324.342 141.5 323.8 141.76 323.745 142.015 323.91 142.07 324.17 142.125 324.43 141.96 324.685 141.7 324.74 139.993 325.23 138.553 326.382 137.7 327.94 137.607 328.106 137.43 328.206 137.24 328.2Z" fill="#EBEBEB"/><path d="M140.74 330.48C140.663 330.479 140.587 330.458 140.52 330.42 140.291 330.296 140.202 330.012 140.32 329.78 141.302 327.953 142.996 326.614 145 326.08 145.259 326.025 145.514 326.19 145.57 326.449 145.57 326.449 145.57 326.45 145.57 326.45 145.624 326.704 145.463 326.954 145.209 327.008 145.206 327.009 145.203 327.009 145.2 327.01 143.493 327.505 142.053 328.66 141.2 330.22 141.107 330.385 140.93 330.486 140.74 330.48Z" fill="#EBEBEB"/><rect x="152.91" y="139.26" rx="2.81" width="199.91" height="112.34" fill="#407BFF"/><rect x="152.91" y="139.26" rx="2.81" width="199.91" height="112.34" fill="#FFFFFF" opacity="0.7"/><path d="M345.62 248.41 160.11 248.41C158.159 248.41 156.576 246.831 156.57 244.88L156.57 146C156.576 144.049 158.159 142.47 160.11 142.47L345.62 142.47C347.57 142.47 349.15 144.05 349.15 146L349.15 244.9C349.139 246.842 347.562 248.41 345.62 248.41ZM160.11 143.5C158.739 143.5 157.626 144.609 157.62 145.98L157.62 244.88C157.626 246.251 158.739 247.36 160.11 247.36L345.62 247.36C346.99 247.36 348.1 246.25 348.1 244.88L348.1 146C348.1 144.63 346.99 143.52 345.62 143.52Z" fill="#407BFF"/><g opacity="0.5"><path d="M345.62 248.41 160.11 248.41C158.159 248.41 156.576 246.831 156.57 244.88L156.57 146C156.576 144.049 158.159 142.47 160.11 142.47L345.62 142.47C347.57 142.47 349.15 144.05 349.15 146L349.15 244.9C349.139 246.842 347.562 248.41 345.62 248.41ZM160.11 143.5C158.739 143.5 157.626 144.609 157.62 145.98L157.62 244.88C157.626 246.251 158.739 247.36 160.11 247.36L345.62 247.36C346.99 247.36 348.1 246.25 348.1 244.88L348.1 146C348.1 144.63 346.99 143.52 345.62 143.52Z" fill="#FFFFFF"/></g><rect x="171.49" y="191.33" rx="2.2" width="162.76" height="38.89" fill="#FFFFFF"/><path d="M190.57 201.46 190.57 217.41 186.41 217.41 186.41 204.88 183.33 204.88 183.33 201.46Z" fill="#407BFF"/><path d="M208.54 209.43C208.54 214.64 206.31 217.53 202.31 217.53 198.31 217.53 196.05 214.64 196.05 209.43 196.05 204.22 198.26 201.35 202.31 201.35 206.36 201.35 208.54 204.22 208.54 209.43ZM200.03 209.43C200.03 213.07 200.69 214.59 202.31 214.59 203.93 214.59 204.56 213.07 204.56 209.43 204.56 205.79 203.9 204.26 202.31 204.26 200.72 204.26 200 205.76 200 209.43Z" fill="#407BFF"/><path d="M222.58 209.43C222.58 214.64 220.35 217.53 216.35 217.53 212.35 217.53 210.09 214.64 210.09 209.43 210.09 204.22 212.3 201.35 216.35 201.35 220.4 201.35 222.58 204.22 222.58 209.43ZM214.07 209.43C214.07 213.07 214.73 214.59 216.35 214.59 217.97 214.59 218.6 213.07 218.6 209.43 218.6 205.79 217.94 204.26 216.35 204.26 214.76 204.26 214.07 205.76 214.07 209.43Z" fill="#407BFF"/><path d="M228.09 215.62C228.147 216.668 227.343 217.563 226.296 217.62 226.227 217.624 226.158 217.624 226.09 217.62 224.985 217.62 224.09 216.725 224.09 215.62 224.09 214.515 224.985 213.62 226.09 213.62 227.195 213.62 228.09 214.515 228.09 215.62Z" fill="#407BFF"/><path d="M242.19 209.43C242.19 214.64 239.96 217.53 235.96 217.53 231.96 217.53 229.7 214.64 229.7 209.43 229.7 204.22 231.91 201.35 235.96 201.35 240.01 201.35 242.19 204.22 242.19 209.43ZM233.68 209.43C233.68 213.07 234.34 214.59 235.96 214.59 237.58 214.59 238.21 213.07 238.21 209.43 238.21 205.79 237.55 204.26 235.96 204.26 234.37 204.26 233.68 205.76 233.68 209.43Z" fill="#407BFF"/><path d="M256.23 209.43C256.23 214.64 254 217.53 250 217.53 246 217.53 243.74 214.64 243.74 209.43 243.74 204.22 245.95 201.35 250 201.35 254.05 201.35 256.23 204.22 256.23 209.43ZM247.72 209.43C247.72 213.07 248.38 214.59 250 214.59 251.62 214.59 252.25 213.07 252.25 209.43 252.25 205.79 251.59 204.26 250 204.26 248.41 204.26 247.72 205.76 247.72 209.43Z" fill="#407BFF"/><path d="M270.27 209.43C270.27 214.64 268.04 217.53 264.03 217.53 260.02 217.53 257.78 214.64 257.78 209.43 257.78 204.22 259.98 201.35 264.03 201.35 268.08 201.35 270.27 204.22 270.27 209.43ZM261.76 209.43C261.76 213.07 262.42 214.59 264.03 214.59 265.64 214.59 266.29 213.07 266.29 209.43 266.29 205.79 265.63 204.26 264.03 204.26 262.43 204.26 261.76 205.76 261.76 209.43Z" fill="#407BFF"/><path d="M275.77 215.62C275.847 216.694 275.039 217.627 273.965 217.705 272.89 217.782 271.957 216.973 271.88 215.899 271.873 215.806 271.873 215.713 271.88 215.62 271.803 214.546 272.611 213.613 273.685 213.535 274.76 213.458 275.693 214.267 275.77 215.341 275.777 215.434 275.777 215.527 275.77 215.62Z" fill="#407BFF"/><path d="M289.88 209.43C289.88 214.64 287.65 217.53 283.65 217.53 279.65 217.53 277.39 214.64 277.39 209.43 277.39 204.22 279.6 201.35 283.65 201.35 287.7 201.35 289.88 204.22 289.88 209.43ZM281.37 209.43C281.37 213.07 282.03 214.59 283.65 214.59 285.27 214.59 285.9 213.07 285.9 209.43 285.9 205.79 285.24 204.26 283.65 204.26 282.06 204.26 281.37 205.76 281.37 209.43Z" fill="#407BFF"/><path d="M303.92 209.43C303.92 214.64 301.69 217.53 297.68 217.53 293.67 217.53 291.43 214.64 291.43 209.43 291.43 204.22 293.63 201.35 297.68 201.35 301.73 201.35 303.92 204.22 303.92 209.43ZM295.41 209.43C295.41 213.07 296.07 214.59 297.68 214.59 299.29 214.59 299.94 213.07 299.94 209.43 299.94 205.79 299.28 204.26 297.68 204.26 296.08 204.26 295.41 205.76 295.41 209.43Z" fill="#407BFF"/><path d="M318 209.43C318 214.64 315.77 217.53 311.76 217.53 307.75 217.53 305.5 214.64 305.5 209.43 305.5 204.22 307.71 201.35 311.76 201.35 315.81 201.35 318 204.22 318 209.43ZM309.49 209.43C309.49 213.07 310.15 214.59 311.76 214.59 313.37 214.59 314.01 213.07 314.01 209.43 314.01 205.79 313.35 204.26 311.76 204.26 310.17 204.26 309.45 205.76 309.45 209.43Z" fill="#407BFF"/><path d="M212.93 168 206 168 204.89 170.82 200.61 170.82 207.46 154.82 211.74 154.82 218.43 170.82 214 170.82ZM211.7 164.81 209.52 159.12 207.29 164.81Z" fill="#407BFF"/><path d="M221.53 154.89 224.53 166.42 227.53 154.89 231.6 154.89 234.6 166.42 237.6 154.89 241.88 154.89 236.62 170.89 232.32 170.89 229.45 160.13 226.5 170.89 222.22 170.89 216.99 154.89Z" fill="#407BFF"/><path d="M252.7 168 245.81 168 244.69 170.82 240.41 170.82 247.26 154.82 251.54 154.82 258.23 170.82 253.79 170.82ZM251.47 164.81 249.29 159.12 247.06 164.81Z" fill="#407BFF"/><path d="M269.24 170.84 266.92 166.42 263.83 166.42 263.83 170.84 259.66 170.84 259.66 154.84 266.83 154.84C271.06 154.84 273.47 156.89 273.47 160.44 273.619 162.563 272.507 164.576 270.63 165.58L273.95 170.79ZM263.83 163.1 266.83 163.1C268.51 163.1 269.49 162.24 269.49 160.62 269.49 159 268.49 158.21 266.83 158.21L263.83 158.21Z" fill="#407BFF"/><path d="M291.49 162.85C291.49 167.61 288.01 170.85 282.85 170.85L276.13 170.85 276.13 154.85 283 154.85C288.06 154.89 291.49 158.12 291.49 162.85ZM287.24 162.9C287.428 160.544 285.67 158.481 283.314 158.293 283.18 158.282 283.045 158.278 282.91 158.28L280.3 158.28 280.3 167.47 283.12 167.47C285.53 167.47 287.24 165.63 287.24 162.9Z" fill="#407BFF"/><path d="M299.41 158.1C298.41 158.1 297.75 158.46 297.75 159.19 297.75 161.83 306.14 160.33 306.14 166.06 306.14 169.31 303.28 170.97 299.73 170.97 297.066 170.963 294.48 170.069 292.38 168.43L293.99 165.17C295.616 166.56 297.638 167.403 299.77 167.58 301 167.58 301.77 167.13 301.77 166.29 301.77 163.58 293.38 165.22 293.38 159.58 293.38 156.58 295.91 154.71 299.75 154.71 301.997 154.715 304.2 155.334 306.12 156.5L304.55 159.8C302.982 158.863 301.227 158.282 299.41 158.1Z" fill="#407BFF"/><path d="M230 179.27C229.274 179.333 228.736 179.974 228.8 180.7 228.856 181.338 229.362 181.844 230 181.9 230.444 181.876 230.861 181.679 231.16 181.35L231.87 182.12C231.366 182.651 230.672 182.961 229.94 182.98 228.628 183.065 227.496 182.071 227.411 180.759 227.326 179.448 228.32 178.315 229.632 178.23 229.734 178.223 229.837 178.223 229.94 178.23 230.651 178.237 231.33 178.525 231.83 179.03L231.12 179.88C230.849 179.528 230.442 179.307 230 179.27Z" fill="#407BFF"/><path d="M235.92 181.13C236.008 182.231 235.187 183.195 234.086 183.284 232.985 183.372 232.021 182.551 231.933 181.45 231.844 180.349 232.665 179.385 233.766 179.296 233.818 179.292 233.869 179.29 233.92 179.29 234.908 179.179 235.799 179.89 235.91 180.878 235.919 180.962 235.922 181.046 235.92 181.13ZM233.18 181.13C233.241 181.556 233.636 181.853 234.062 181.792 234.489 181.731 234.785 181.336 234.724 180.91 234.67 180.525 234.339 180.239 233.95 180.24 233.508 180.253 233.161 180.622 233.174 181.063 233.175 181.089 233.177 181.115 233.18 181.14Z" fill="#407BFF"/><path d="M240.2 180.66 240.2 182.93 239 182.93 239 181C239.033 180.67 238.793 180.376 238.464 180.343 238.436 180.34 238.408 180.339 238.38 180.34 237.999 180.345 237.691 180.65 237.68 181.03L237.68 182.93 236.5 182.93 236.5 179.33 237.68 179.33 237.68 179.92C237.932 179.508 238.388 179.267 238.87 179.29 239.559 179.242 240.156 179.762 240.203 180.451 240.208 180.521 240.207 180.591 240.2 180.66Z" fill="#407BFF"/><path d="M244.46 179.33 244.46 182.61C244.46 183.61 243.67 184.27 242.46 184.27 241.89 184.27 241.331 184.107 240.85 183.8L241.27 182.98C241.594 183.212 241.982 183.337 242.38 183.34 242.92 183.34 243.24 183.06 243.24 182.65L243.24 182.26C243.002 182.569 242.63 182.744 242.24 182.73 241.378 182.724 240.685 182.021 240.691 181.159 240.691 181.106 240.694 181.053 240.7 181 240.606 180.155 241.215 179.393 242.06 179.299 242.11 179.294 242.16 179.291 242.21 179.29 242.616 179.277 243.004 179.455 243.26 179.77L243.26 179.33ZM243.28 181.03C243.335 180.62 243.048 180.242 242.637 180.186 242.612 180.183 242.586 180.181 242.56 180.18 242.093 180.231 241.756 180.65 241.807 181.117 241.85 181.514 242.163 181.827 242.56 181.87 242.974 181.859 243.301 181.514 243.289 181.1 243.289 181.066 243.285 181.033 243.28 181Z" fill="#407BFF"/><path d="M247.67 179.29 247.67 180.37C247.01 180.3 246.57 180.6 246.51 181.1L246.51 182.93 245.33 182.93 245.33 179.33 246.51 179.33 246.51 179.93C246.751 179.521 247.195 179.276 247.67 179.29Z" fill="#407BFF"/><path d="M251.29 180.59 251.29 182.93 250.13 182.93 250.13 182.53C249.854 182.864 249.431 183.04 249 183 248.397 183.072 247.849 182.641 247.777 182.038 247.771 181.986 247.769 181.933 247.77 181.88 247.77 181.2 248.26 180.8 249.15 180.79L250.09 180.79 250.09 180.79C250.09 180.45 249.85 180.25 249.4 180.25 249.023 180.268 248.655 180.366 248.32 180.54L248 179.74C248.522 179.491 249.092 179.358 249.67 179.35 250.71 179.29 251.29 179.76 251.29 180.59ZM250.13 181.71 250.13 181.4 249.42 181.4C249.09 181.4 248.92 181.52 248.92 181.77 248.92 182.02 249.1 182.18 249.41 182.18 249.728 182.203 250.023 182.011 250.13 181.71Z" fill="#407BFF"/><path d="M254.43 182.75C254.122 182.912 253.778 182.992 253.43 182.98 252.831 183.042 252.296 182.607 252.234 182.008 252.228 181.949 252.226 181.889 252.23 181.83L252.23 180.29 251.73 180.29 251.73 179.51 252.23 179.51 252.23 178.51 253.41 178.51 253.41 179.51 254.34 179.51 254.34 180.29 253.41 180.29 253.41 181.65C253.41 181.91 253.53 182.03 253.73 182.03 253.886 182.017 254.038 181.976 254.18 181.91Z" fill="#407BFF"/><path d="M258.52 179.33 258.52 182.93 257.33 182.93 257.33 182.35C256.956 182.969 256.151 183.168 255.531 182.795 255.119 182.546 254.877 182.091 254.9 181.61L254.9 179.33 256.08 179.33 256.08 181.27C256.041 181.588 256.268 181.877 256.586 181.916 256.61 181.919 256.635 181.92 256.66 181.92 257.08 181.92 257.33 181.58 257.33 181.11L257.33 179.33Z" fill="#407BFF"/><path d="M260.64 178 260.64 182.93 259.46 182.93 259.46 178Z" fill="#407BFF"/><path d="M264.78 180.59 264.78 182.93 263.62 182.93 263.62 182.53C263.349 182.844 262.944 183.011 262.53 182.98 261.927 183.052 261.379 182.621 261.307 182.018 261.301 181.966 261.299 181.913 261.3 181.86 261.3 181.18 261.79 180.78 262.68 180.77L263.62 180.77 263.62 180.77C263.62 180.43 263.38 180.23 262.93 180.23 262.553 180.247 262.185 180.346 261.85 180.52L261.53 179.72C262.055 179.469 262.628 179.336 263.21 179.33 264.2 179.29 264.77 179.76 264.78 180.59ZM263.62 181.71 263.62 181.4 262.91 181.4C262.58 181.4 262.41 181.52 262.41 181.77 262.41 182.02 262.59 182.18 262.9 182.18 263.218 182.203 263.513 182.011 263.62 181.71Z" fill="#407BFF"/><path d="M267.92 182.75C267.612 182.912 267.268 182.992 266.92 182.98 266.321 183.042 265.786 182.607 265.724 182.008 265.718 181.949 265.716 181.889 265.72 181.83L265.72 180.29 265.22 180.29 265.22 179.51 265.72 179.51 265.72 178.51 266.9 178.51 266.9 179.51 267.83 179.51 267.83 180.29 266.9 180.29 266.9 181.65C266.9 181.91 267.02 182.03 267.22 182.03 267.376 182.017 267.528 181.976 267.67 181.91Z" fill="#407BFF"/><path d="M269.67 179.33 269.67 182.93 268.49 182.93 268.49 179.33ZM269.62 178.33C269.62 178.628 269.378 178.87 269.08 178.87 268.782 178.87 268.54 178.628 268.54 178.33 268.54 178.032 268.782 177.79 269.08 177.79 269.083 177.79 269.087 177.79 269.09 177.79 269.371 177.779 269.609 177.998 269.62 178.279 269.621 178.293 269.621 178.306 269.62 178.32Z" fill="#407BFF"/><path d="M274.22 181.13C274.308 182.231 273.487 183.195 272.386 183.284 271.285 183.372 270.321 182.551 270.233 181.45 270.144 180.349 270.965 179.385 272.066 179.296 272.117 179.292 272.169 179.29 272.22 179.29 273.208 179.179 274.099 179.89 274.21 180.878 274.219 180.962 274.222 181.046 274.22 181.13ZM271.48 181.13C271.541 181.556 271.936 181.853 272.362 181.792 272.789 181.731 273.085 181.336 273.024 180.91 272.97 180.525 272.639 180.239 272.25 180.24 271.808 180.253 271.461 180.622 271.474 181.063 271.475 181.089 271.477 181.115 271.48 181.14Z" fill="#407BFF"/><path d="M278.5 180.66 278.5 182.93 277.33 182.93 277.33 181C277.363 180.67 277.123 180.376 276.793 180.343 276.766 180.34 276.738 180.339 276.71 180.34 276.329 180.345 276.021 180.65 276.01 181.03L276.01 182.93 274.83 182.93 274.83 179.33 276 179.33 276 179.92C276.252 179.508 276.708 179.267 277.19 179.29 277.879 179.254 278.468 179.783 278.504 180.472 278.508 180.535 278.506 180.598 278.5 180.66Z" fill="#407BFF"/><path d="M280.57 180.1C280.37 180.1 280.23 180.18 280.23 180.33 280.23 180.8 282.12 180.58 282.11 181.83 282.11 182.57 281.47 182.98 280.59 182.98 280.009 182.992 279.439 182.813 278.97 182.47L279.34 181.71C279.715 181.977 280.16 182.13 280.62 182.15 280.84 182.15 281 182.08 281 181.93 281 181.44 279.14 181.69 279.14 180.44 279.14 179.69 279.77 179.28 280.62 179.28 281.145 179.283 281.66 179.428 282.11 179.7L281.72 180.47C281.368 180.266 280.975 180.139 280.57 180.1Z" fill="#407BFF"/><path d="M175 139.26 175.81 137.9C175.81 137.9 177.98 136.38 179.36 136.9 180.74 137.42 180.97 138.44 180.81 140.41 180.64 142.59 178.59 146.85 176.7 145.2 175.52 144.2 177.51 140.81 177.23 139.27Z" fill="#FFA8A7"/><path d="M177.9 139.26 178.7 137.9C178.7 137.9 180.87 136.38 182.25 136.9 183.63 137.42 183.87 138.44 183.71 140.41 183.53 142.59 181.48 146.85 179.6 145.2 178.42 144.2 180.4 140.81 180.12 139.27Z" fill="#FFA8A7"/><path d="M172.05 139.26 172.85 137.9C172.85 137.9 175.03 136.38 176.41 136.9 177.79 137.42 178.02 138.44 177.86 140.41 177.69 142.59 175.64 146.85 173.75 145.2 172.57 144.2 174.56 140.81 174.28 139.27Z" fill="#FFA8A7"/><path d="M338.2 139.26 337.39 137.9C337.39 137.9 335.22 136.38 333.84 136.9 332.46 137.42 332.23 138.44 332.39 140.41 332.56 142.59 334.61 146.85 336.5 145.2 337.68 144.2 335.69 140.81 335.97 139.27Z" fill="#FFA8A7"/><path d="M335.27 139.26 334.47 137.9C334.47 137.9 332.3 136.38 330.92 136.9 329.54 137.42 329.3 138.44 329.46 140.41 329.64 142.59 331.69 146.85 333.58 145.2 334.75 144.2 332.77 140.81 333.05 139.27Z" fill="#FFA8A7"/><path d="M341.12 139.26 340.32 137.9C340.32 137.9 338.14 136.38 336.76 136.9 335.38 137.42 335.15 138.44 335.31 140.41 335.49 142.59 337.54 146.85 339.42 145.2 340.6 144.2 338.61 140.81 338.89 139.27Z" fill="#FFA8A7"/></g><g id="freepik--Trophy--inject-26"><path d="M249.86 427.66 249.86 408.93 295.34 382.67 295.34 401.41 249.86 427.66Z" fill="#37474F"/><path d="M249.86 427.66 204.39 401.41 204.39 382.67 249.86 408.93 249.86 427.66Z" fill="#263238"/><path d="M249.86 408.93 204.39 382.67 249.86 356.41 295.34 382.67 249.86 408.93Z" fill="#455A64"/><path d="M249.86 405.37 249.86 400.43 289.89 377.32 289.89 382.26 249.86 405.37Z" fill="#37474F"/><path d="M249.86 405.37 209.84 382.26 209.84 377.32 249.86 400.43 249.86 405.37Z" fill="#263238"/><path d="M249.86 400.43 209.84 377.32 249.86 354.21 289.89 377.32 249.86 400.43Z" fill="#455A64"/><path d="M210.88 327.68C208.75 327.68 206.52 327.59 204.24 327.39 186.77 325.81 175.24 317.85 170.93 304.39 168.774 297.433 169.495 289.902 172.93 283.48 176.146 277.217 181.764 272.527 188.5 270.48 203.5 266.03 216.67 272.18 220.6 285.42L220.6 285.42 232.36 325 228.49 325.9C222.698 327.105 216.796 327.702 210.88 327.68ZM198.15 276.42C195.602 276.448 193.072 276.849 190.64 277.61 185.824 279.104 181.824 282.494 179.56 287 177.052 291.638 176.508 297.088 178.05 302.13 184.71 322.88 212.49 320.83 222.87 319.29L213.44 287.54 213.44 287.54C211.77 281.89 206.86 276.42 198.15 276.42Z" fill="#407BFF"/><path d="M271.23 325.85 267.37 324.95 279.11 285.38 279.11 285.38C283.05 272.14 296.25 265.99 311.22 270.44 317.956 272.487 323.574 277.177 326.79 283.44 330.225 289.862 330.946 297.393 328.79 304.35 324.46 317.81 312.94 325.77 295.47 327.35 293.2 327.55 290.97 327.64 288.84 327.64 282.924 327.656 277.022 327.056 271.23 325.85ZM286.23 287.51 286.23 287.51 276.81 319.26C287.18 320.8 314.96 322.85 321.63 302.1 323.179 297.074 322.653 291.637 320.17 287 317.897 282.508 313.899 279.13 309.09 277.64 306.655 276.879 304.121 276.478 301.57 276.45 292.86 276.42 288 281.89 286.28 287.51Z" fill="#407BFF"/><path d="M270.51 374.3C269.269 371.828 267.282 369.81 264.83 368.53 256.31 363.62 242.49 363.62 233.97 368.53 231.518 369.81 229.531 371.828 228.29 374.3L227.58 374.3 227.58 377.44C227.58 380.66 229.71 383.89 233.97 386.35 242.49 391.27 256.31 391.27 264.83 386.35 269.09 383.89 271.22 380.66 271.22 377.44L271.22 374.3Z" fill="#407BFF"/><path d="M270.51 374.3C269.269 371.828 267.282 369.81 264.83 368.53 256.31 363.62 242.49 363.62 233.97 368.53 231.518 369.81 229.531 371.828 228.29 374.3L227.58 374.3 227.58 377.44C227.58 380.66 229.71 383.89 233.97 386.35 242.49 391.27 256.31 391.27 264.83 386.35 269.09 383.89 271.22 380.66 271.22 377.44L271.22 374.3Z" opacity="0.3"/><path d="M264.83 365C264.43 364.77 264.01 364.56 263.58 364.35 261.3 362.81 255.94 358.64 255.94 353.28 255.94 344.99 271.22 336.34 271.22 336.34L227.22 336C227.22 336 242.62 345 242.62 353.28 242.62 360.09 233.95 365 233.95 365 225.43 369.92 225.43 377.89 233.95 382.81 242.47 387.73 256.29 387.73 264.81 382.81 273.33 377.89 273.35 369.9 264.83 365Z" fill="#407BFF"/><path d="M196.86 259.42 196.86 277.81C196.851 299.43 206.667 319.883 223.54 333.4L223.63 333.49 224.63 334.25C225.44 334.84 226.32 335.42 227.27 335.98 233.283 339.217 239.965 341.014 246.79 341.23 248.639 341.33 250.491 341.33 252.34 341.23 259.46 340.87 266.4 339.12 271.85 335.98L272.77 335.42C272.77 335.42 275.11 333.82 276.04 332.98 276.075 332.941 276.116 332.908 276.16 332.88 293.067 319.358 302.907 298.88 302.9 277.23L302.9 259.42Z" fill="#407BFF"/><path d="M221 259.42 221 277.81C220.928 290.431 222.858 302.984 226.72 315 228.806 321.517 231.774 327.717 235.54 333.43L235.6 333.52C235.77 333.77 235.94 334.03 236.12 334.28 236.569 334.882 237.049 335.46 237.56 336.01 237.56 336.01 245.93 345.01 245.93 353.29 245.771 357.623 244.105 361.764 241.22 365 236.588 370.033 236.588 377.777 241.22 382.81 245.466 387.444 252.665 387.758 257.298 383.512 257.542 383.288 257.776 383.054 258 382.81 262.642 377.781 262.642 370.029 258 365 257.78 364.77 257.56 364.56 257.33 364.35 254.758 361.221 253.295 357.328 253.17 353.28 253.17 344.99 261.48 336.34 261.48 336.34L261.48 336.34 261.83 336.01 262.33 335.45C262.33 335.45 263.6 333.85 264.1 333.01 264.121 332.975 264.144 332.942 264.17 332.91 273.25 319.56 278.71 299.18 278.71 277.26L278.71 259.42Z" fill="#407BFF"/><path d="M221 259.42 221 277.81C220.928 290.431 222.858 302.984 226.72 315 228.806 321.517 231.774 327.717 235.54 333.43L235.6 333.52C235.77 333.77 235.94 334.03 236.12 334.28 236.569 334.882 237.049 335.46 237.56 336.01 237.56 336.01 245.93 345.01 245.93 353.29 245.771 357.623 244.105 361.764 241.22 365 236.588 370.033 236.588 377.777 241.22 382.81 245.466 387.444 252.665 387.758 257.298 383.512 257.542 383.288 257.776 383.054 258 382.81 262.642 377.781 262.642 370.029 258 365 257.78 364.77 257.56 364.56 257.33 364.35 254.758 361.221 253.295 357.328 253.17 353.28 253.17 344.99 261.48 336.34 261.48 336.34L261.48 336.34 261.83 336.01 262.33 335.45C262.33 335.45 263.6 333.85 264.1 333.01 264.121 332.975 264.144 332.942 264.17 332.91 273.25 319.56 278.71 299.18 278.71 277.26L278.71 259.42Z" fill="#FFFFFF" opacity="0.1"/><ellipse cx="249.86" cy="259.42" rx="53.01" ry="30.6" fill="#407BFF"/><ellipse cx="249.86" cy="259.42" rx="53.01" ry="30.6" opacity="0.1"/><path d="M249.86 282.54C237.18 282.54 224.86 279.64 216.12 274.54 208.63 270.22 204.34 264.69 204.34 259.38 204.34 254.07 208.63 248.54 216.12 244.22 224.89 239.16 237.18 236.22 249.86 236.22 262.54 236.22 274.86 239.12 283.6 244.22 291.09 248.54 295.39 254.07 295.39 259.38 295.39 264.69 291.09 270.22 283.6 274.54 274.84 279.64 262.54 282.54 249.86 282.54Z" fill="#407BFF"/><path d="M249.86 282.54C237.18 282.54 224.86 279.64 216.12 274.54 208.63 270.22 204.34 264.69 204.34 259.38 204.34 254.07 208.63 248.54 216.12 244.22 224.89 239.16 237.18 236.22 249.86 236.22 262.54 236.22 274.86 239.12 283.6 244.22 291.09 248.54 295.39 254.07 295.39 259.38 295.39 264.69 291.09 270.22 283.6 274.54 274.84 279.64 262.54 282.54 249.86 282.54Z" opacity="0.3"/></g><g id="freepik--Confetti--inject-26"><path d="M71.2 70.73C71.2744 71.1862 71.5873 71.5676 72.02 71.73L76.48 73.57C77.5625 74.0162 78.8017 73.5003 79.2479 72.4178 79.4672 71.8857 79.4607 71.2873 79.23 70.76L78 68C76.18 64 71 67.75 71.2 70.73Z" fill="#407BFF"/><path d="M431.41 87.76C431.484 88.2162 431.797 88.5976 432.23 88.76L436.69 90.6C437.765 91.05 439.001 90.5435 439.451 89.4686 439.677 88.9302 439.669 88.3225 439.43 87.79L438.19 85.01C436.39 81 431.21 84.78 431.41 87.76Z" fill="#407BFF"/><path d="M225.1 43.91C225.135 44.1973 225.328 44.4406 225.6 44.54L228.3 45.65C228.937 45.9433 229.691 45.6645 229.985 45.0273 230.134 44.7023 230.14 44.3293 230 44L229.25 42.32C228.11 39.82 225 42.11 225.1 43.91Z" fill="#407BFF"/><path d="M229.88 93.13C229.915 93.4173 230.108 93.6606 230.38 93.76L233.07 94.87C233.723 95.1401 234.472 94.8295 234.742 94.1763 234.876 93.8533 234.871 93.4897 234.73 93.17L234 91.49C232.89 89 229.76 91.32 229.88 93.13Z" fill="#407BFF"/><path d="M342 95.43C341.616 96.7578 340.932 97.9794 340 99 341.062 99.674 342.042 100.469 342.92 101.37L347 98.21Z" fill="#407BFF"/><path d="M277.23 78.31C276.83 79.632 276.124 80.8413 275.17 81.84 276.237 82.5112 277.221 83.3068 278.1 84.21L282.22 81.09Z" fill="#407BFF"/><path d="M345.18 46.41C344.777 47.728 344.072 48.9335 343.12 49.93 344.183 50.607 345.166 51.402 346.05 52.3L350.16 49.19Z" fill="#407BFF"/><path d="M345.18 46.41C344.777 47.728 344.072 48.9335 343.12 49.93 344.183 50.607 345.166 51.402 346.05 52.3L350.16 49.19Z" fill="#FFFFFF" opacity="0.7"/><path d="M162.81 46.72C164.212 47.7772 165.349 49.1468 166.13 50.72 167.407 49.7397 168.792 48.9109 170.26 48.25 169.61 46.15 165.6 45.51 164.95 43.41Z" fill="#407BFF"/><path d="M185.76 81.26C185.56 83.0106 184.958 84.6912 184 86.17 185.491 86.7655 186.908 87.5341 188.22 88.46 189.7 86.84 188.22 83.06 189.7 81.46Z" fill="#407BFF"/><path d="M64.47 92.86C65.8751 93.9171 67.0151 95.2865 67.8 96.86 69.073 95.8799 70.4556 95.051 71.92 94.39 71.3067 92.2967 70.6667 90.2 70 88.1Z" fill="#407BFF"/><path d="M64.47 92.86C65.8751 93.9171 67.0151 95.2865 67.8 96.86 69.073 95.8799 70.4556 95.051 71.92 94.39 71.3067 92.2967 70.6667 90.2 70 88.1Z" fill="#FFFFFF" opacity="0.5"/><path d="M156.79 77.23C156.387 78.548 155.682 79.7535 154.73 80.75 155.795 81.4244 156.778 82.2197 157.66 83.12L161.77 80Z" fill="#407BFF"/><path d="M156.79 77.23C156.387 78.548 155.682 79.7535 154.73 80.75 155.795 81.4244 156.778 82.2197 157.66 83.12L161.77 80Z" fill="#FFFFFF" opacity="0.5"/><path d="M204.8 62.17C204.397 63.488 203.692 64.6935 202.74 65.69 203.803 66.367 204.786 67.162 205.67 68.06L209.78 65Z" fill="#407BFF"/><path d="M204.8 62.17C204.397 63.488 203.692 64.6935 202.74 65.69 203.803 66.367 204.786 67.162 205.67 68.06L209.78 65Z" fill="#FFFFFF" opacity="0.5"/><path d="M321.09 110.58C320.69 111.902 319.984 113.111 319.03 114.11 320.095 114.784 321.078 115.579 321.96 116.48L326.07 113.36Z" fill="#407BFF"/><path d="M321.09 110.58C320.69 111.902 319.984 113.111 319.03 114.11 320.095 114.784 321.078 115.579 321.96 116.48L326.07 113.36Z" fill="#FFFFFF" opacity="0.5"/><path d="M267.17 107.36C266.967 109.111 266.361 110.792 265.4 112.27 266.891 112.865 268.308 113.634 269.62 114.56 271.1 112.94 269.62 109.16 271.1 107.56Z" fill="#407BFF"/><path d="M267.17 107.36C266.967 109.111 266.361 110.792 265.4 112.27 266.891 112.865 268.308 113.634 269.62 114.56 271.1 112.94 269.62 109.16 271.1 107.56Z" fill="#FFFFFF" opacity="0.5"/><path d="M445.66 52C445.457 53.7514 444.851 55.4321 443.89 56.91 445.381 57.5055 446.798 58.2741 448.11 59.2 449.6 57.58 448.11 53.8 449.59 52.2Z" fill="#407BFF"/><path d="M445.66 52C445.457 53.7514 444.851 55.4321 443.89 56.91 445.381 57.5055 446.798 58.2741 448.11 59.2 449.6 57.58 448.11 53.8 449.59 52.2Z" fill="#FFFFFF" opacity="0.5"/><path d="M305.07 43.48C304.866 45.2265 304.264 46.9029 303.31 48.38 304.802 48.979 306.218 49.7509 307.53 50.68 309.01 49.06 307.53 45.27 309.01 43.68Z" fill="#407BFF"/><path d="M322 75.69C322.068 76.1489 322.383 76.5331 322.82 76.69L327.28 78.54C328.375 78.9552 329.599 78.4043 330.014 77.3096 330.202 76.8128 330.197 76.2633 330 75.77L328.75 73C327 68.93 321.77 72.71 322 75.69Z" fill="#407BFF"/><path d="M322 75.69C322.068 76.1489 322.383 76.5331 322.82 76.69L327.28 78.54C328.375 78.9552 329.599 78.4043 330.014 77.3096 330.202 76.8128 330.197 76.2633 330 75.77L328.75 73C327 68.93 321.77 72.71 322 75.69Z" fill="#FFFFFF" opacity="0.2"/><path d="M254.18 65.54C254.209 65.8267 254.399 66.0716 254.67 66.17L257.37 67.29C258.023 67.5601 258.772 67.2495 259.042 66.5963 259.176 66.2733 259.171 65.9097 259.03 65.59L258.28 63.91C257.18 61.45 254.06 63.74 254.18 65.54Z" fill="#407BFF"/><path d="M254.18 65.54C254.209 65.8267 254.399 66.0716 254.67 66.17L257.37 67.29C258.023 67.5601 258.772 67.2495 259.042 66.5963 259.176 66.2733 259.171 65.9097 259.03 65.59L258.28 63.91C257.18 61.45 254.06 63.74 254.18 65.54Z" fill="#FFFFFF" opacity="0.2"/><path d="M194.38 112.13C194.409 112.417 194.599 112.662 194.87 112.76L197.57 113.88C198.226 114.143 198.971 113.825 199.235 113.169 199.363 112.851 199.357 112.494 199.22 112.18L198.48 110.5C197.38 108 194.26 110.33 194.38 112.13Z" fill="#407BFF"/><path d="M194.38 112.13C194.409 112.417 194.599 112.662 194.87 112.76L197.57 113.88C198.226 114.143 198.971 113.825 199.235 113.169 199.363 112.851 199.357 112.494 199.22 112.18L198.48 110.5C197.38 108 194.26 110.33 194.38 112.13Z" fill="#FFFFFF" opacity="0.2"/><path d="M48 54C49.4051 55.0571 50.5451 56.4265 51.33 58 52.6027 57.0167 53.9853 56.1844 55.45 55.52 54.81 53.42 50.8 52.78 50.15 50.68Z" fill="#407BFF"/><path d="M48 54C49.4051 55.0571 50.5451 56.4265 51.33 58 52.6027 57.0167 53.9853 56.1844 55.45 55.52 54.81 53.42 50.8 52.78 50.15 50.68Z" fill="#FFFFFF" opacity="0.2"/><path d="M448.5 94.11C448.307 95.8591 447.704 97.5379 446.74 99.01 448.232 99.609 449.648 100.381 450.96 101.31 452.44 99.69 450.96 95.9 452.44 94.31Z" fill="#407BFF"/><path d="M448.5 94.11C448.307 95.8591 447.704 97.5379 446.74 99.01 448.232 99.609 449.648 100.381 450.96 101.31 452.44 99.69 450.96 95.9 452.44 94.31Z" fill="#FFFFFF" opacity="0.2"/></g></svg>