<svg viewBox="0 0 500 500" xmlns="http://www.w3.org/2000/svg" xmlns:xlink="http://www.w3.org/1999/xlink" overflow="hidden"><g id="freepik--background-simple--inject-440"><path d="M157.18 303.49C87.7 270.28 83.4 136.36 169.18 121.26 212.62 113.61 243.66 161.26 288.86 162.99 321.92 164.3 356.23 122.82 389.99 143.45 459.08 185.68 363.12 238.45 344.69 262.56 319.89 295.04 323.28 329.56 283.55 341.44 246.29 352.61 189.23 318.81 157.18 303.49Z" fill="#407BFF"/><path d="M157.18 303.49C87.7 270.28 83.4 136.36 169.18 121.26 212.62 113.61 243.66 161.26 288.86 162.99 321.92 164.3 356.23 122.82 389.99 143.45 459.08 185.68 363.12 238.45 344.69 262.56 319.89 295.04 323.28 329.56 283.55 341.44 246.29 352.61 189.23 318.81 157.18 303.49Z" fill="#FFFFFF" opacity="0.9"/></g><g id="freepik--Shadow--inject-440"><ellipse cx="250" cy="416.24" rx="193.89" ry="11.32" fill="#F5F5F5"/></g><g id="freepik--Charts--inject-440"><path d="M202 211.52C193.309 180.424 210.226 147.916 240.68 137.19L244.45 149.13C220.621 157.802 207.393 183.268 214 207.75Z" fill="#407BFF"/><path d="M232.59 249.24C227.876 246.806 223.505 243.76 219.59 240.18 212.162 233.37 206.526 224.836 203.18 215.33L215.12 211.56C224.261 236.89 252.206 250.014 277.536 240.873 284.319 238.425 290.475 234.503 295.56 229.39L304.79 237.85C285.838 257.094 256.546 261.715 232.59 249.24Z" fill="#407BFF"/><path d="M232.59 249.24C227.876 246.806 223.505 243.76 219.59 240.18 212.162 233.37 206.526 224.836 203.18 215.33L215.12 211.56C224.261 236.89 252.206 250.014 277.536 240.873 284.319 238.425 290.475 234.503 295.56 229.39L304.79 237.85C285.838 257.094 256.546 261.715 232.59 249.24Z" fill="#FFFFFF" opacity="0.7"/><path d="M298.31 226.44C315.675 205.857 313.065 175.094 292.482 157.73 280.257 147.416 263.75 143.754 248.31 147.93L244.54 135.93C276.394 127.009 309.581 144.965 319.54 176.51 325.872 196.715 321.361 218.757 307.6 234.85Z" fill="#407BFF"/><path d="M298.31 226.44C315.675 205.857 313.065 175.094 292.482 157.73 280.257 147.416 263.75 143.754 248.31 147.93L244.54 135.93C276.394 127.009 309.581 144.965 319.54 176.51 325.872 196.715 321.361 218.757 307.6 234.85Z" opacity="0.3"/><path d="M272.45 180.2C266.507 174.255 256.87 174.252 250.925 180.195 244.98 186.138 244.977 195.775 250.92 201.72L261.68 212.48 272.45 201.72C278.391 195.777 278.391 186.143 272.45 180.2Z" fill="#407BFF"/><path d="M272.45 180.2C266.507 174.255 256.87 174.252 250.925 180.195 244.98 186.138 244.977 195.775 250.92 201.72L261.68 212.48 272.45 201.72C278.391 195.777 278.391 186.143 272.45 180.2Z" opacity="0.3"/><rect x="261.09" y="215.67" width="1.2" height="4.8" fill="#407BFF"/><rect x="261.09" y="215.67" width="1.2" height="4.8" opacity="0.3"/><rect x="261.09" y="224.18" width="1.2" height="4.8" fill="#407BFF"/><rect x="261.09" y="224.18" width="1.2" height="4.8" opacity="0.3"/><rect x="179.42" y="263.02" width="40.73" height="147.48" fill="#407BFF"/><rect x="179.42" y="263.02" width="40.73" height="147.48" fill="#FFFFFF" opacity="0.7"/><rect x="220.15" y="263.02" width="19.55" height="147.48" fill="#407BFF"/><rect x="220.15" y="263.02" width="19.55" height="147.48" fill="#FFFFFF" opacity="0.5"/><rect x="294.42" y="317.3" width="1.04" height="22.96" fill="#263238"/><rect x="294.42" y="303.8" width="1.04" height="9.23" fill="#263238"/><rect x="283.66" y="354.5" width="40.73" height="56" fill="#407BFF"/><rect x="283.66" y="354.5" width="40.73" height="56" opacity="0.5"/><rect x="324.39" y="354.5" width="19.55" height="56" fill="#407BFF"/><rect x="324.39" y="354.5" width="19.55" height="56" opacity="0.6"/><rect x="231.54" y="231.84" width="40.73" height="178.66" fill="#407BFF"/><rect x="231.54" y="231.84" width="40.73" height="178.66" opacity="0.7"/><rect x="272.27" y="231.84" width="19.55" height="178.66" fill="#407BFF"/><rect x="272.27" y="231.84" width="19.55" height="178.66" opacity="0.8"/></g><g id="freepik--character-2--inject-440"><path d="M352.23 190.63C350.83 201.69 349.07 212.78 347.5 223.75 347.305 225.353 347.015 226.942 346.63 228.51 346.18 230.116 345.605 231.684 344.91 233.2 343.584 236.052 341.925 238.737 339.97 241.2 338.107 243.567 336.053 245.778 333.83 247.81 332.75 248.81 331.6 249.81 330.44 250.68 329.28 251.55 328.13 252.45 326.8 253.32L323.25 248.89C324.08 247.97 325.02 246.89 325.87 245.89 326.72 244.89 327.56 243.81 328.38 242.75 329.983 240.678 331.449 238.503 332.77 236.24 334.042 234.117 335.091 231.869 335.9 229.53 336.272 228.448 336.556 227.338 336.75 226.21 336.925 225.027 337.039 223.835 337.09 222.64 337.46 216.96 338.02 211.34 338.64 205.73 339.26 200.12 340 194.58 340.88 189Z" fill="#E58A7B"/><path d="M354.72 186.83C357.27 193.6 344.36 213.53 344.36 213.53L329.23 205.32C331.506 199.118 334.447 193.18 338 187.61 343.32 179.63 351.93 179.4 354.72 186.83Z" fill="#407BFF"/><path d="M354.72 186.83C357.27 193.6 344.36 213.53 344.36 213.53L329.23 205.32C331.506 199.118 334.447 193.18 338 187.61 343.32 179.63 351.93 179.4 354.72 186.83Z" opacity="0.2"/><path d="M345.74 181.65C345.74 181.65 336.81 204.5 345.29 247.04L385.76 247.04C386.04 240.83 382.13 210.53 388.12 181.27 383.649 180.403 379.126 179.828 374.58 179.55 368.851 179.22 363.109 179.22 357.38 179.55 353.451 179.946 349.559 180.648 345.74 181.65Z" fill="#407BFF"/><path d="M345.74 181.65C345.74 181.65 336.81 204.5 345.29 247.04L385.76 247.04C386.04 240.83 382.13 210.53 388.12 181.27 383.649 180.403 379.126 179.828 374.58 179.55 368.851 179.22 363.109 179.22 357.38 179.55 353.451 179.946 349.559 180.648 345.74 181.65Z" opacity="0.2"/><path d="M351.11 406.92 343.55 406.92 341.53 389.4 349.1 389.4 351.11 406.92Z" fill="#E58A7B"/><path d="M404.35 406.92 396.79 406.92 390.89 389.4 398.46 389.4 404.35 406.92Z" fill="#E58A7B"/><path d="M395.78 406 405 406C405.31 405.999 405.578 406.216 405.64 406.52L407.14 413.25C407.262 413.857 406.868 414.447 406.262 414.568 406.186 414.584 406.108 414.591 406.03 414.59 403.03 414.54 400.9 414.37 397.16 414.37 394.86 414.37 390.16 414.61 386.95 414.61 383.74 414.61 383.36 411.47 384.66 411.18 390.49 409.91 392.66 408.18 394.55 406.47 394.887 406.166 395.326 405.999 395.78 406Z" fill="#263238"/><path d="M343.6 406 351.86 406C352.171 406.001 352.44 406.217 352.51 406.52L354 413.25C354.133 413.843 353.76 414.431 353.167 414.564 353.082 414.582 352.996 414.591 352.91 414.59 349.91 414.54 345.62 414.37 341.91 414.37 337.53 414.37 333.75 414.61 328.61 414.61 325.5 414.61 324.61 411.47 325.94 411.18 331.86 409.89 336.69 409.75 341.81 406.59 342.342 406.234 342.961 406.03 343.6 406Z" fill="#263238"/><path d="M326 246 319.66 251.3 327.99 256.19C330.51 254.244 331.471 250.884 330.36 247.9Z" fill="#E58A7B"/><path d="M341.54 389.41 342.57 398.44 350.14 398.44 349.1 389.41 341.54 389.41Z" fill="#CF6F64"/><path d="M398.46 389.41 390.89 389.41 393.93 398.44 401.5 398.44 398.46 389.41Z" fill="#CF6F64"/><path d="M379.88 195.25C381.2 188.57 383.77 189.73 386.21 193.02 385.167 201.874 384.686 210.785 384.77 219.7 383.11 216.87 377.67 206.44 379.88 195.25Z" opacity="0.2"/><path d="M372.87 160.19C371.79 165.72 370.71 175.86 374.58 179.55 374.58 179.55 373.07 185.17 362.78 185.17 351.47 185.17 357.38 179.56 357.38 179.56 363.55 178.08 363.38 173.5 362.31 169.2Z" fill="#E58A7B"/><path d="M368.57 163.87 362.32 169.2C362.587 170.199 362.764 171.22 362.85 172.25 365.21 171.91 368.45 169.32 368.7 166.85 368.836 165.857 368.792 164.848 368.57 163.87Z" fill="#CF6F64"/><path d="M355.28 143.16C351.56 144.74 349.54 155.16 354.28 157.57 359.02 159.98 362.33 140.18 355.28 143.16Z" fill="#263238"/><path d="M373.53 151.86C373.07 159.35 373.18 163.76 369.4 167.61 363.71 173.39 354.45 169.96 352.67 162.48 351.06 155.75 352.08 144.62 359.42 141.64 364.65 139.487 370.634 141.982 372.787 147.212 373.392 148.682 373.647 150.274 373.53 151.86Z" fill="#E58A7B"/><path d="M350.42 138.46C354.95 131.59 355.66 134.9 355.59 138.17 359.59 134.39 366.98 129.57 370.59 133.97 371.466 134.9 371.669 136.277 371.1 137.42 375.75 136.18 380.44 135.83 379.59 140.85 378.84 145.29 375.67 146.92 371.23 146.95 363.27 148.05 344 148.16 350.42 138.46Z" fill="#263238"/><path d="M373 159.2C369 160.83 360.95 146.14 373.06 144.41 385.17 142.68 379.41 156.57 373 159.2Z" fill="#263238"/><path d="M376.92 160.12C375.908 161.713 374.309 162.845 372.47 163.27 370.03 163.81 368.94 161.59 369.74 159.35 370.46 157.35 372.59 154.64 374.99 155.1 376.724 155.471 377.829 157.177 377.458 158.91 377.365 159.346 377.181 159.758 376.92 160.12Z" fill="#E58A7B"/><path d="M380.87 146.68C379.74 145.422 378.051 144.82 376.38 145.08 376.38 145.08 380.29 142 380.87 146.68Z" fill="#263238"/><path d="M345.29 247C345.29 247 324 301.1 324.78 324.18 325.63 348.18 339.78 396.69 339.78 396.69L352.6 396.69C352.6 396.69 347.35 349.57 347.92 326.01 348.54 300.31 371.92 247.01 371.92 247.01Z" fill="#407BFF"/><path d="M362.29 264.91 363.52 267.7C359.033 279.262 355.134 291.044 351.84 303 351.49 289.36 354.31 274.32 362.29 264.91Z" opacity="0.2"/><path d="M359.65 247C359.65 247 355.34 302.32 360.05 324 365.21 347.72 390.37 396.67 390.37 396.67L404.23 396.67C404.23 396.67 385.69 349.67 382.74 326.15 379.55 300.66 385.74 247.02 385.74 247.02Z" fill="#407BFF"/><path d="M362.17 154C362.17 154.61 361.84 155.11 361.44 155.11 361.04 155.11 360.72 154.61 360.72 154 360.72 153.39 361.04 152.9 361.44 152.9 361.84 152.9 362.17 153.34 362.17 154Z" fill="#263238"/><path d="M355.27 154C355.27 154.61 354.94 155.11 354.55 155.11 354.16 155.11 353.82 154.61 353.82 154 353.82 153.39 354.15 152.9 354.55 152.9 354.95 152.9 355.27 153.34 355.27 154Z" fill="#263238"/><path d="M357.46 154.26C356.732 156.121 355.753 157.874 354.55 159.47 355.391 160.075 356.456 160.276 357.46 160.02Z" fill="#DF5753"/><path d="M359.24 161.71C359.141 161.71 359.06 161.629 359.06 161.53 359.06 161.431 359.141 161.35 359.24 161.35 360.78 161.384 362.243 160.682 363.18 159.46 363.235 159.377 363.347 159.355 363.43 159.41 363.43 159.41 363.43 159.41 363.43 159.41 363.507 159.465 363.529 159.569 363.48 159.65 362.49 160.991 360.906 161.76 359.24 161.71Z" fill="#263238"/><path d="M364.24 151.73C364.131 151.727 364.028 151.676 363.96 151.59 363.43 150.844 362.575 150.398 361.66 150.39 361.467 150.407 361.298 150.264 361.281 150.071 361.281 150.064 361.28 150.057 361.28 150.05 361.268 149.855 361.415 149.686 361.61 149.67 362.765 149.663 363.852 150.214 364.53 151.15 364.648 151.311 364.617 151.537 364.46 151.66 364.394 151.702 364.318 151.727 364.24 151.73Z" fill="#263238"/><path d="M352.25 151.58C352.197 151.59 352.143 151.59 352.09 151.58 351.915 151.497 351.84 151.289 351.923 151.114 351.925 151.109 351.928 151.105 351.93 151.1 352.41 150.054 353.369 149.308 354.5 149.1 354.699 149.097 354.863 149.255 354.866 149.454 354.869 149.623 354.754 149.771 354.59 149.81L354.59 149.81C353.704 150.003 352.962 150.604 352.59 151.43 352.515 151.541 352.383 151.599 352.25 151.58Z" fill="#263238"/><path d="M391 187.15C391.65 188.55 392.2 189.8 392.72 191.15 393.24 192.5 393.72 193.78 394.25 195.15 395.25 197.81 396.08 200.51 396.84 203.26 397.6 206.01 398.23 208.82 398.75 211.68L399.11 213.83 399.37 216.03C399.47 216.76 399.51 217.51 399.57 218.26L399.64 219.38 399.64 219.66 399.64 220.13C399.64 220.48 399.64 220.8 399.64 221.13 399.442 223.099 398.872 225.013 397.96 226.77 397.249 228.183 396.444 229.546 395.55 230.85 393.893 233.235 392.079 235.507 390.12 237.65 386.351 241.801 382.262 245.649 377.89 249.16L373.89 245.16C377.16 240.98 380.42 236.66 383.39 232.37 384.836 230.281 386.171 228.119 387.39 225.89 387.948 224.89 388.432 223.85 388.84 222.78 389.137 222.096 389.306 221.364 389.34 220.62 389.34 220.62 389.34 220.62 389.34 220.62 389.34 220.62 389.34 220.68 389.34 220.62L389.34 220.39 389.2 219.49C389.11 218.88 389.03 218.28 388.89 217.67L388.53 215.84 388.1 214C387.49 211.54 386.8 209.07 386 206.61 385.2 204.15 384.35 201.7 383.44 199.25 382.53 196.8 381.53 194.33 380.6 192.07Z" fill="#E58A7B"/><path d="M393.27 407.37C392.756 407.409 392.245 407.271 391.82 406.98 391.529 406.735 391.389 406.355 391.45 405.98 391.448 405.77 391.564 405.577 391.75 405.48 392.6 405.05 395.03 406.55 395.31 406.72 395.37 406.759 395.401 406.829 395.39 406.9 395.377 406.973 395.322 407.032 395.25 407.05 394.603 407.228 393.94 407.335 393.27 407.37ZM392.15 405.8C392.07 405.794 391.99 405.811 391.92 405.85 391.87 405.85 391.81 405.92 391.8 406.06 391.775 406.304 391.868 406.546 392.05 406.71 392.895 407.09 393.852 407.136 394.73 406.84 393.945 406.33 393.069 405.977 392.15 405.8Z" fill="#407BFF"/><path d="M395.21 407.1 395.13 407.1C394.34 406.67 392.83 405.02 392.99 404.17 393.046 403.899 393.283 403.704 393.56 403.7 393.834 403.669 394.109 403.752 394.32 403.93 395.2 404.65 395.38 406.83 395.39 406.93 395.392 406.993 395.362 407.053 395.31 407.09 395.278 407.103 395.244 407.107 395.21 407.1ZM393.69 404 393.6 404C393.37 404 393.35 404.13 393.34 404.18 393.25 404.68 394.21 405.93 394.99 406.52 394.935 405.659 394.626 404.834 394.1 404.15 393.986 404.053 393.84 404 393.69 404Z" fill="#407BFF"/><path d="M340.45 407.37C339.804 407.428 339.158 407.262 338.62 406.9 338.37 406.684 338.243 406.358 338.28 406.03 338.291 405.832 338.4 405.652 338.57 405.55 339.5 405.04 342.57 406.55 342.88 406.76 342.97 406.803 343.007 406.911 342.964 407 342.939 407.053 342.888 407.091 342.83 407.1 342.046 407.26 341.25 407.351 340.45 407.37ZM339.08 405.8C338.966 405.792 338.851 405.817 338.75 405.87 338.677 405.904 338.633 405.98 338.64 406.06 338.61 406.273 338.689 406.487 338.85 406.63 339.32 407.05 340.57 407.12 342.23 406.84 341.247 406.316 340.182 405.964 339.08 405.8Z" fill="#407BFF"/><path d="M342.8 407.1C342.774 407.109 342.746 407.109 342.72 407.1 341.81 406.69 340 405.1 340.14 404.2 340.14 404 340.31 403.75 340.81 403.7 341.172 403.663 341.533 403.775 341.81 404.01 342.81 404.8 342.98 406.84 342.98 406.92 342.99 406.985 342.963 407.05 342.91 407.09 342.875 407.104 342.837 407.108 342.8 407.1ZM341 404 340.89 404C340.57 404 340.55 404.16 340.54 404.2 340.46 404.71 341.69 406 342.62 406.56 342.535 405.699 342.186 404.885 341.62 404.23 341.448 404.08 341.228 403.998 341 404Z" fill="#407BFF"/><path d="M375.64 244.05 368.22 246.05 374.37 253.51C374.37 253.51 380.32 250.42 379.04 247.09Z" fill="#E58A7B"/><path d="M364.38 251.04 369.75 256.96 374.37 253.48 368.22 246.02 364.38 251.04Z" fill="#E58A7B"/><path d="M387.92 396.99 406.04 396.99 406.04 392.11 385.79 391.8 387.92 396.99Z" fill="#407BFF"/><path d="M387.92 396.99 406.04 396.99 406.04 392.11 385.79 391.8 387.92 396.99Z" opacity="0.4"/><path d="M336.87 396.99 354.99 396.99 354.99 392.06 334.74 391.8 336.87 396.99Z" fill="#407BFF"/><path d="M336.87 396.99 354.99 396.99 354.99 392.06 334.74 391.8 336.87 396.99Z" opacity="0.4"/><path d="M389.7 181.76C396.45 184.36 403.2 208.3 403.2 208.3L385.2 215.38C385.2 215.38 379.83 203 378 193.8 376.12 184.15 382.05 178.82 389.7 181.76Z" fill="#407BFF"/><path d="M389.7 181.76C396.45 184.36 403.2 208.3 403.2 208.3L385.2 215.38C385.2 215.38 379.83 203 378 193.8 376.12 184.15 382.05 178.82 389.7 181.76Z" opacity="0.2"/><path d="M316.73 219.75C314.813 226.435 315.005 233.548 317.28 240.12 319.361 246.236 323.159 251.624 328.22 255.64 342.908 267.268 364.241 264.789 375.869 250.101 386.398 236.802 385.485 217.769 373.73 205.54L373.73 205.54C369.637 201.278 364.49 198.173 358.81 196.54 348.151 193.457 336.659 195.759 328.01 202.71 327.234 203.336 326.493 204.003 325.79 204.71 321.498 208.838 318.373 214.026 316.73 219.75Z" fill="#407BFF"/><path d="M316.73 219.75C314.813 226.435 315.005 233.548 317.28 240.12 319.361 246.236 323.159 251.624 328.22 255.64 342.908 267.268 364.241 264.789 375.869 250.101 386.398 236.802 385.485 217.769 373.73 205.54L373.73 205.54C369.637 201.278 364.49 198.173 358.81 196.54 348.151 193.457 336.659 195.759 328.01 202.71 327.234 203.336 326.493 204.003 325.79 204.71 321.498 208.838 318.373 214.026 316.73 219.75Z" opacity="0.6"/><path d="M369.47 204.21 345.07 227.76 335.72 260.36C353.721 265.528 372.503 255.126 377.671 237.125 381.016 225.476 377.889 212.928 369.47 204.21Z" fill="#407BFF"/><path d="M369.47 204.21 345.07 227.76 335.72 260.36C353.721 265.528 372.503 255.126 377.671 237.125 381.016 225.476 377.889 212.928 369.47 204.21Z" fill="#FFFFFF" opacity="0.9"/><g opacity="0.7"><path d="M345.07 227.76 369.47 204.2C356.464 190.725 334.997 190.345 321.522 203.351 317.232 207.491 314.11 212.689 312.47 218.42Z" fill="#407BFF"/><path d="M345.07 227.76 369.47 204.2C356.464 190.725 334.997 190.345 321.522 203.351 317.232 207.491 314.11 212.689 312.47 218.42Z" fill="#FFFFFF" opacity="0.44"/></g><path d="M319.14 255.8 326.49 258.12 327.96 256.22 319.63 251.33 319.14 255.8Z" fill="#E58A7B"/><path d="M345.07 227.76 312.48 218.42C307.326 236.421 317.733 255.193 335.73 260.36Z" fill="#407BFF"/><path d="M345.07 227.76 312.48 218.42C307.326 236.421 317.733 255.193 335.73 260.36Z" opacity="0.6"/></g><g id="freepik--character-1--inject-440"><path d="M158.24 181.86C156.49 183.65 154.61 185.63 152.88 187.61 151.15 189.59 149.41 191.61 147.78 193.68 146.15 195.75 144.61 197.88 143.13 200.03L142.05 201.66 141.05 203.31C140.71 203.86 140.39 204.42 140.05 204.98L139.22 206.51C138.883 207.383 138.69 208.305 138.65 209.24 138.57 210.445 138.57 211.655 138.65 212.86 138.837 215.453 139.171 218.034 139.65 220.59 140.1 223.21 140.65 225.84 141.3 228.45 141.95 231.06 142.59 233.72 143.3 236.3L139.45 237.74C137.118 232.646 135.169 227.384 133.62 222 132.822 219.234 132.21 216.418 131.79 213.57 131.579 212.049 131.472 210.515 131.47 208.98 131.442 207.17 131.748 205.37 132.37 203.67 132.61 203.09 132.74 202.85 132.9 202.51L133.37 201.51C133.68 200.85 134.01 200.2 134.37 199.57L135.37 197.66 136.47 195.8C137.94 193.354 139.539 190.987 141.26 188.71 142.96 186.44 144.72 184.22 146.58 182.09 148.44 179.96 150.33 177.92 152.48 175.87Z" fill="#E58A7B"/><path d="M142.24 234.67 149.08 236.67 144.53 241.29C144.53 241.29 139.6 239.77 138.91 236.41Z" fill="#E58A7B"/><path d="M153.23 241.97 152.07 246.38 144.53 241.32 149.08 236.71 153.23 241.97Z" fill="#E58A7B"/><path d="M92 365.95 97.6 371.96 112.8 361.08 107.19 355.07 92 365.95Z" fill="#E58A7B"/><path d="M166.31 387.97 164.97 398.31 156.96 396.97 158.2 387.37 166.31 387.97Z" fill="#CF6F64"/><path d="M107.19 355.07 112.79 361.09 106.5 365.59 100.7 359.71 107.19 355.07Z" fill="#CF6F64"/><path d="M180.34 223.37C180.34 223.37 164.5 276.42 156.76 307 148.6 339.23 109.63 365.51 109.63 365.51L101.31 357.24C101.31 357.24 127.36 335.24 135.31 305.17 151.37 244.1 143.65 231.17 156.45 218.75Z" fill="#407BFF"/><path d="M180.34 223.37C180.34 223.37 164.5 276.42 156.76 307 148.6 339.23 109.63 365.51 109.63 365.51L101.31 357.24C101.31 357.24 127.36 335.24 135.31 305.17 151.37 244.1 143.65 231.17 156.45 218.75Z" opacity="0.6"/><path d="M100.05 371 95.38 363C95.2218 362.713 94.8745 362.589 94.57 362.71L87.91 365.39C87.2564 365.7 86.9781 366.482 87.2883 367.135 87.307 367.174 87.3276 367.213 87.35 367.25 89.03 370 89.97 371.25 92.03 374.76 93.3 376.92 94.93 380.2 96.67 383.18 98.41 386.16 101.38 384.64 100.91 383.25 98.81 377 99.91 375.19 100.32 372.41 100.394 371.923 100.299 371.425 100.05 371Z" fill="#263238"/><path d="M110.34 366.69 99.96 356.36 102.78 353.23 115.42 363.99 110.34 366.69Z" fill="#F5F5F5"/><path d="M172.9 234.67C162.51 242.67 161.81 273.23 162.05 287.03 167.34 267.74 173.59 246.27 177.24 233.86 176.24 233 174.81 233.19 172.9 234.67Z" opacity="0.3"/><path d="M101.73 375.36C101.631 375.358 101.534 375.341 101.44 375.31 100.44 375.01 99.75 373.2 99.44 372.15 99.4166 372.074 99.4402 371.992 99.5 371.94 99.5627 371.895 99.6473 371.895 99.71 371.94 100.01 372.09 102.64 373.46 102.71 374.5 102.732 374.728 102.633 374.952 102.45 375.09 102.247 375.259 101.994 375.354 101.73 375.36ZM99.94 372.49C100.43 373.88 101.02 374.78 101.55 374.95 101.789 375.011 102.043 374.942 102.22 374.77 102.307 374.719 102.354 374.62 102.34 374.52 102.28 374 101 373.07 99.94 372.49Z" fill="#407BFF"/><path d="M102 372.83C101.135 372.828 100.281 372.633 99.5 372.26 99.4061 372.192 99.3852 372.061 99.4533 371.967 99.4663 371.949 99.4821 371.933 99.5 371.92 99.59 371.92 101.56 370.73 102.68 371.1 102.974 371.184 103.213 371.397 103.33 371.68 103.489 371.956 103.435 372.305 103.2 372.52 102.847 372.757 102.424 372.866 102 372.83ZM100 372.08C100.92 372.45 102.51 372.6 102.93 372.23 103 372.17 103.06 372.07 102.93 371.84 102.854 371.657 102.7 371.517 102.51 371.46 101.63 371.41 100.755 371.626 100 372.08Z" fill="#407BFF"/><path d="M155.8 405.98 163.91 406.58 166.31 387.96 158.21 387.36 155.8 405.98Z" fill="#E58A7B"/><path d="M188.44 225C188.44 225 190.44 289.19 185.93 313.37 181.21 338.52 166.84 395.72 166.84 395.72L155.15 394.21C155.15 394.21 162.55 336.42 165.68 311.44 169.11 284.2 164.62 220.39 164.62 220.39Z" fill="#407BFF"/><path d="M188.44 225C188.44 225 190.44 289.19 185.93 313.37 181.21 338.52 166.84 395.72 166.84 395.72L155.15 394.21C155.15 394.21 162.55 336.42 165.68 311.44 169.11 284.2 164.62 220.39 164.62 220.39Z" opacity="0.6"/><path d="M197.44 148.64C197.33 149.29 197.59 149.87 198.01 149.96 198.43 150.05 198.86 149.58 199.01 148.96 199.16 148.34 198.86 147.73 198.44 147.65 198.02 147.57 197.55 148 197.44 148.64Z" fill="#263238"/><path d="M198.2 147.63 199.83 147.48C199.83 147.48 198.83 148.54 198.2 147.63Z" fill="#263238"/><path d="M197.88 149.37C198.215 150.953 198.763 152.484 199.51 153.92 198.754 154.266 197.886 154.266 197.13 153.92Z" fill="#DF5753"/><path d="M199 146C198.848 146 198.71 145.91 198.65 145.77 198.267 144.851 197.481 144.161 196.52 143.9 196.313 143.864 196.174 143.668 196.21 143.461 196.21 143.461 196.21 143.46 196.21 143.46 196.25 143.251 196.451 143.113 196.66 143.15 197.873 143.449 198.871 144.306 199.35 145.46 199.435 145.653 199.351 145.88 199.16 145.97Z" fill="#263238"/><path d="M176.92 154C177.07 158.9 176.57 167.74 172.73 170.25 172.73 170.25 173.23 175.25 182.06 177 191.77 178.88 187.5 173.11 187.5 173.11 182.4 170.82 183.19 166.94 184.72 163.45Z" fill="#E58A7B"/><path d="M201.92 180.22C203.92 181.74 206.12 183.35 208.29 184.82 210.46 186.29 212.68 187.82 214.94 189.15 217.2 190.48 219.49 191.79 221.79 193.02 224.082 194.205 226.435 195.266 228.84 196.2 229.05 196.28 228.98 196.2 229.03 196.27L229.16 196.27C229.289 196.289 229.421 196.289 229.55 196.27 229.95 196.272 230.349 196.232 230.74 196.15 231.801 195.891 232.831 195.515 233.81 195.03 236.075 193.881 238.239 192.542 240.28 191.03 242.42 189.52 244.51 187.87 246.56 186.15 248.61 184.43 250.65 182.64 252.61 180.86L255.61 183.61C252.181 188.079 248.352 192.226 244.17 196 241.977 197.96 239.603 199.708 237.08 201.22 235.66 202.054 234.15 202.725 232.58 203.22 231.654 203.497 230.696 203.659 229.73 203.7 229.176 203.73 228.62 203.707 228.07 203.63 227.774 203.595 227.48 203.542 227.19 203.47 226.93 203.4 226.52 203.29 226.41 203.24 220.963 201.443 215.721 199.077 210.77 196.18 208.33 194.76 205.92 193.29 203.58 191.71 201.24 190.13 199 188.52 196.71 186.65Z" fill="#E58A7B"/><path d="M252 181.62 254.38 175.49 259.38 180.49C259.38 180.49 257.01 185.05 253.61 185.06Z" fill="#E58A7B"/><path d="M259.31 173.72 264.06 175.21 259.42 180.48 254.4 175.49 259.31 173.72Z" fill="#E58A7B"/><path d="M164.41 405.42 155.3 405.42C154.971 405.416 154.69 405.655 154.64 405.98L153.41 413.19C153.316 413.885 153.803 414.525 154.499 414.619 154.559 414.627 154.619 414.631 154.68 414.63 157.86 414.58 159.39 414.39 163.4 414.39 165.86 414.39 170.96 414.65 174.4 414.65 177.84 414.65 178.07 411.28 176.66 410.97 170.34 409.61 167.89 407.72 165.79 405.92 165.407 405.59 164.916 405.412 164.41 405.42Z" fill="#263238"/><path d="M176.12 142.7C175.31 150.7 174.79 154.03 178.12 158.86 183.12 166.11 193.12 165.66 196.35 158.15 199.22 151.4 200.08 139.48 192.83 134.84 187.928 131.511 181.255 132.786 177.925 137.688 176.912 139.181 176.291 140.904 176.12 142.7Z" fill="#E58A7B"/><path d="M177 160.1C173.2 158.55 169.65 152.43 169.79 142.86 169.93 133.29 177.06 127.74 189.79 131.77 202.52 135.8 189.42 165.18 177 160.1Z" fill="#263238"/><path d="M187.78 132.65C191.53 131.18 199.83 133 199.83 140.81L191.76 147.36Z" fill="#263238"/><path d="M186.73 132.58C191.73 132.29 193.67 132.31 198.2 133.58 195.22 130 189.64 131.18 186.73 132.58Z" fill="#263238"/><path d="M191.06 146.86C190.905 148.345 191.209 149.842 191.93 151.15 192.93 152.99 194.44 152.74 195 151.25 195.51 149.91 195.6 147.34 194.2 145.96 192.8 144.58 191.3 145.21 191.06 146.86Z" fill="#E58A7B"/><path d="M170.58 135.79C173.48 137.57 183.34 136.1 185.47 132.31 187.6 128.52 180.24 122.18 173.57 122.41 166.9 122.64 164.12 131.81 170.58 135.79Z" fill="#407BFF"/><path d="M169.33 396.42 152.66 394.27 152.87 390.31 171 391.1 169.33 396.42Z" fill="#F5F5F5"/><path d="M167.43 406.84C166.573 406.825 165.719 406.728 164.88 406.55 164.8 406.537 164.738 406.471 164.73 406.39 164.719 406.309 164.759 406.23 164.83 406.19 165.2 406 168.48 404.34 169.46 404.9 169.648 405.001 169.767 405.196 169.77 405.41 169.81 405.762 169.671 406.111 169.4 406.34 168.822 406.731 168.125 406.908 167.43 406.84ZM165.52 406.28C167.31 406.58 168.64 406.5 169.15 406.06 169.325 405.904 169.414 405.673 169.39 405.44 169.391 405.353 169.345 405.273 169.27 405.23 168.74 404.93 166.87 405.64 165.52 406.28Z" fill="#407BFF"/><path d="M164.92 406.55C164.881 406.559 164.839 406.559 164.8 406.55 164.747 406.506 164.721 406.438 164.73 406.37 164.73 406.23 165.12 402.91 166.93 402.91L167.09 402.91C167.61 402.96 167.76 403.23 167.8 403.44 167.95 404.36 165.98 406.12 165 406.56ZM166.92 403.27C165.75 403.27 165.29 405.19 165.14 406.02 166.14 405.41 167.49 404.02 167.4 403.48 167.4 403.48 167.4 403.31 167.03 403.27Z" fill="#407BFF"/><path d="M158.69 169.34C153.06 169.6 147.69 178.93 147.69 178.93L155.12 194.11C155.12 194.11 165.19 185.72 165.32 177.47 165.43 172.11 164.22 169.09 158.69 169.34Z" fill="#407BFF"/><path d="M158.69 169.34C153.06 169.6 147.69 178.93 147.69 178.93L155.12 194.11C155.12 194.11 165.19 185.72 165.32 177.47 165.43 172.11 164.22 169.09 158.69 169.34Z" fill="#FFFFFF" opacity="0.8"/><path d="M156.41 218.73 188.93 225.03C204.29 179.79 200.62 178.33 200.62 178.33 198.231 177.04 195.766 175.895 193.24 174.9L192.79 174.73C190.72 173.98 190.28 173.86 187.49 173.05 182.7 171.92 178.24 171 172.72 170.2L171.67 170.05C170.67 169.93 169.67 169.82 168.72 169.73 168.08 169.66 167.43 169.62 166.82 169.57L164.72 169.46C161.16 169.28 158.62 169.34 158.62 169.34 160.48 197.57 159.12 205.68 156.41 218.73Z" fill="#407BFF"/><path d="M156.41 218.73 188.93 225.03C204.29 179.79 200.62 178.33 200.62 178.33 198.231 177.04 195.766 175.895 193.24 174.9L192.79 174.73C190.72 173.98 190.28 173.86 187.49 173.05 182.7 171.92 178.24 171 172.72 170.2L171.67 170.05C170.67 169.93 169.67 169.82 168.72 169.73 168.08 169.66 167.43 169.62 166.82 169.57L164.72 169.46C161.16 169.28 158.62 169.34 158.62 169.34 160.48 197.57 159.12 205.68 156.41 218.73Z" fill="#FFFFFF" opacity="0.6"/><path d="M192.69 189.21C193.98 191.75 195.51 195.12 197.56 197.45 198.15 195.31 198.64 193.45 199.06 191.72Z" fill="#407BFF" opacity="0.2"/><path d="M166.62 196C174.73 189.59 176.44 183.63 175.31 178.42 174.18 173.21 172.88 164.12 173.81 161.08 174.74 158.04 177.98 151.73 177.32 146.34 176.66 140.95 175.12 133.46 176.6 130.22 178.08 126.98 182.78 125.06 178.97 120.46 177.12 118.23 169.28 117.89 167.23 124.11 165.18 130.33 156.76 133.02 153.45 133.64 150.14 134.26 144.31 137.98 143.3 144.04 142.29 150.1 138.22 152.49 132.63 155.6 127.04 158.71 119 170.9 122.2 181.72 126.52 196.53 154.54 205.58 166.62 196Z" fill="#263238"/><path d="M191 175.59C193.52 173.59 204.37 180.17 207.69 182.92L205.75 197.18C205.75 197.18 190.25 190.76 189.19 186.37 188.05 181.8 189 177.12 191 175.59Z" fill="#407BFF"/><path d="M191 175.59C193.52 173.59 204.37 180.17 207.69 182.92L205.75 197.18C205.75 197.18 190.25 190.76 189.19 186.37 188.05 181.8 189 177.12 191 175.59Z" fill="#FFFFFF" opacity="0.6"/><path d="M156.23 216.74 154.29 219.35C154.14 219.55 154.37 219.83 154.74 219.91L188.85 226.51C189.14 226.57 189.41 226.51 189.46 226.29L190.23 223.45C190.28 223.26 190.06 223.04 189.74 222.98L156.8 216.6C156.599 216.54 156.381 216.594 156.23 216.74Z" fill="#407BFF"/><path d="M160.05 221.26 159.17 221.09C159 221.09 158.88 220.94 158.91 220.83L159.91 217.15C159.91 217.04 160.11 216.98 160.29 217.01L161.17 217.18C161.34 217.18 161.46 217.33 161.43 217.44L160.43 221.12C160.4 221.23 160.23 221.29 160.05 221.26Z" fill="#407BFF"/><path d="M182.33 225.62 181.44 225.45C181.27 225.45 181.15 225.3 181.18 225.19L182.18 221.51C182.18 221.41 182.38 221.35 182.56 221.38L183.44 221.55C183.62 221.55 183.74 221.7 183.71 221.81L182.71 225.49C182.67 225.6 182.5 225.66 182.33 225.62Z" fill="#407BFF"/><path d="M160.05 221.26 159.17 221.09C159 221.09 158.88 220.94 158.91 220.83L159.91 217.15C159.91 217.04 160.11 216.98 160.29 217.01L161.17 217.18C161.34 217.18 161.46 217.33 161.43 217.44L160.43 221.12C160.4 221.23 160.23 221.29 160.05 221.26Z" opacity="0.6"/><path d="M182.33 225.62 181.44 225.45C181.27 225.45 181.15 225.3 181.18 225.19L182.18 221.51C182.18 221.41 182.38 221.35 182.56 221.38L183.44 221.55C183.62 221.55 183.74 221.7 183.71 221.81L182.71 225.49C182.67 225.6 182.5 225.66 182.33 225.62Z" opacity="0.6"/></g></svg>