<svg width="512" height="512" viewBox="0 0 24 24" xmlns="http://www.w3.org/2000/svg" xmlns:xlink="http://www.w3.org/1999/xlink" id="Layer_1" overflow="hidden"><style>
.MsftOfcThm_Background1_Fill_v2 {
 fill:#FFFFFF; 
}
</style>
<path d="M20 11 20 19C20 21.757 17.757 24 15 24L5 24C2.243 24 0 21.757 0 19L0 9C0 6.243 2.243 4 5 4L13 4C13.552 4 14 4.448 14 5 14 5.552 13.552 6 13 6L5 6C3.346 6 2 7.346 2 9L2 19C2 20.654 3.346 22 5 22L15 22C16.654 22 18 20.654 18 19L18 11C18 10.448 18.448 10 19 10 19.552 10 20 10.448 20 11ZM21 0 14 0C13.448 0 13 0.448 13 1 13 1.552 13.448 2 14 2L20.586 2 8.293 14.293C7.902 14.684 7.902 15.316 8.293 15.707 8.488 15.902 8.744 16 9 16 9.256 16 9.512 15.902 9.707 15.707L22 3.414 22 10C22 10.552 22.448 11 23 11 23.552 11 24 10.552 24 10L24 3C24 1.346 22.654 0 21 0Z" class="MsftOfcThm_Background1_Fill_v2" fill="#FFFFFF"/></svg>