<svg viewBox="0 0 779.067 522.424" xmlns="http://www.w3.org/2000/svg" xmlns:xlink="http://www.w3.org/1999/xlink" id="Layer_2" overflow="hidden"><g id="Layer_2-2"><g><g><rect x="459.893" y="0" width="155.191" height="201.999" fill="#F4F4F4"/><rect x="615.083" y="0" width="5.034" height="201.999" fill="#F4F4F4" transform="matrix(-1 1.22465e-16 -1.22465e-16 -1 1235.2 201.999)"/><rect x="615.083" y="0" width="5.034" height="201.999" fill="#292A2E" opacity="0.05" transform="matrix(-1 1.22465e-16 -1.22465e-16 -1 1235.2 201.999)"/><rect x="488.163" y="36.797" width="98.651" height="128.406" fill="#292A2E" opacity="0.05"/><rect x="581.672" y="36.797" width="5.141" height="128.406" fill="#292A2E" opacity="0.03"/><rect x="615.083" y="251.674" width="126.921" height="128.086" fill="#F4F4F4"/><rect x="638.204" y="275.007" width="80.68" height="81.421" fill="#292A2E" opacity="0.05"/><rect x="742.004" y="251.674" width="5.034" height="128.086" fill="#F4F4F4" transform="matrix(-1 1.22465e-16 -1.22465e-16 -1 1489.04 631.434)"/><rect x="742.004" y="251.674" width="5.034" height="128.086" fill="#292A2E" opacity="0.05" transform="matrix(-1 1.22465e-16 -1.22465e-16 -1 1489.04 631.434)"/><rect x="713.742" y="275.007" width="5.141" height="81.421" fill="#292A2E" opacity="0.03"/></g><g><rect x="18.026" y="18.753" width="325.24" height="325.24" id="c_3_c" fill="#F4F4F4"/><rect x="14.299" y="18.753" width="3.728" height="325.24" id="c_3_c-2" fill="#F4F4F4"/><rect x="14.299" y="18.753" width="3.728" height="325.24" id="c_3_c-3" fill="#292A2E" opacity="0.05"/><path d="M96.817 242.87 96.817 157.777 166.521 157.777 166.521 207.214 274.493 207.214 274.493 294.749 320.383 294.749 320.383 343.993 274.493 343.993 265.653 343.993 33.672 343.993 33.672 242.87 96.817 242.87Z" id="c_3_c-4" fill="#292A2E" opacity="0.05"/><g id="c_3_wh"><rect x="106.815" y="167.016" width="50.759" height="9.239" id="c_3_wh-2" fill="#FFFFFA" opacity="0.34"/><rect x="106.815" y="186.162" width="50.759" height="9.239" id="c_3_wh-3" fill="#FFFFFA" opacity="0.34"/><rect x="106.815" y="205.307" width="50.759" height="9.239" id="c_3_wh-4" fill="#FFFFFA" opacity="0.34"/></g><g id="c_3_wh-5"><rect x="42.673" y="251.839" width="9.356" height="9.239" id="c_3_wh-6" fill="#FFFFFA" opacity="0.34"/><rect x="42.673" y="270.984" width="9.356" height="9.239" id="c_3_wh-7" fill="#FFFFFA" opacity="0.34"/><rect x="42.673" y="290.13" width="9.356" height="9.239" id="c_3_wh-8" fill="#FFFFFA" opacity="0.34"/><rect x="59.981" y="251.839" width="9.356" height="9.239" id="c_3_wh-9" fill="#FFFFFA" opacity="0.34"/><rect x="59.981" y="270.984" width="9.356" height="9.239" id="c_3_wh-10" fill="#FFFFFA" opacity="0.34"/><rect x="59.981" y="290.13" width="9.356" height="9.239" id="c_3_wh-11" fill="#FFFFFA" opacity="0.34"/><rect x="76.821" y="251.839" width="9.356" height="9.239" id="c_3_wh-12" fill="#FFFFFA" opacity="0.34"/><rect x="76.821" y="270.984" width="9.356" height="9.239" id="c_3_wh-13" fill="#FFFFFA" opacity="0.34"/><rect x="76.821" y="290.13" width="9.356" height="9.239" id="c_3_wh-14" fill="#FFFFFA" opacity="0.34"/></g><path d="M18.026 179.549 83.47 179.549 83.47 18.753 88.882 18.753 88.882 179.549 265.653 179.549 265.653 18.753 271.065 18.753 271.065 179.549 343.267 179.549 343.267 184.961 271.065 184.961 271.065 343.993 265.653 343.993 265.653 184.961 88.882 184.961 88.882 343.993 83.47 343.993 83.47 184.961 18.026 184.961 18.026 179.549Z" fill="#FFFFFF"/><rect x="5.07" y="343.601" width="351.153" height="10.816" id="c_3_c-5" fill="#F4F4F4"/><rect x="5.07" y="343.601" width="351.153" height="10.816" id="c_3_c-6" fill="#292A2E" opacity="0.1"/><rect x="0" y="343.601" width="5.07" height="10.816" id="c_3_c-7" fill="#292A2E" opacity="0.1"/><rect x="0" y="343.601" width="5.07" height="10.816" id="c_3_c-8" fill="#292A2E" opacity="0.1"/></g><g><g><path d="M231.009 278.479C230.782 278.449 228.264 320.225 179.733 316.583 146.135 314.066 134.156 278.42 133.386 278.42 137.008 277.65 141.485 276.482 143.264 276.081 149.175 274.749 156.554 269.872 158.259 259.598 159.242 253.676 157.575 223.382 158.088 217.391L209.661 228.902C208.941 241.555 203.897 270.889 221.574 276.081 224.515 276.94 227.684 277.729 231.01 278.479Z" id="sk" fill="#FF9E85"/><path d="M210.383 264.092C209.652 261.76 209.218 259.733 208.832 256.088 208.141 249.57 208.509 243.577 209.169 237.471 198.75 236.084 188.748 231.702 180.665 224.983 179.707 228.52 174.441 243.973 175.899 247.334 178.655 253.688 191.608 264.092 210.383 264.092Z" id="sh" fill="#0C0C0C" opacity="0.22"/><g><path d="M241.051 184.335C241.051 184.335 255.85 173.337 259.688 147.796 262.659 128.02 244.302 140.709 244.302 140.709 244.302 140.709 246.303 126.449 235.896 127.787 225.489 129.126 219.549 144.077 219.549 144.077" fill="#0C0C0C"/><path d="M182.127 129.057C182.127 129.057 130.483 134.204 148.614 204.268L153.178 204.608 162.442 205.298" fill="#0C0C0C"/><path d="M200.607 255.031C180.275 253.054 156.02 240.017 155.875 212.397L155.744 187.475C155.599 159.855 169.989 137.388 195.994 137.252L195.994 137.252C222 137.116 241.555 159.404 241.7 187.024L241.758 198.057C241.77 200.328 241.553 204.405 240.847 209.374 239.439 219.288 237.259 234.362 230.446 244.52 224.014 254.109 213.596 256.293 200.606 255.03Z" fill="#FF9E85"/><g><g><circle cx="231.508" cy="200.732" r="2.836" id="e1_eye" fill="#0A0A0A" transform="matrix(0.143113 -0.989706 0.989706 0.143113 -0.289 401.129)"/><g id="e1_n"><path d="M209.735 219.777C209.167 219.695 208.742 219.196 208.766 218.61 208.79 217.984 209.318 217.496 209.944 217.521L215.979 217.759 214.037 205.354C213.941 204.735 214.364 204.155 214.983 204.058 215.601 203.962 216.182 204.384 216.279 205.003L218.434 218.771C218.486 219.106 218.385 219.447 218.16 219.701 217.935 219.955 217.607 220.093 217.268 220.08L209.854 219.787C209.814 219.785 209.774 219.782 209.736 219.776Z" fill="#0A0A0A"/></g><g id="e1_m"><path d="M206.577 232.299C196.401 230.828 194.262 224.241 194.168 223.933 193.985 223.334 194.322 222.7 194.92 222.516 195.515 222.332 196.147 222.667 196.334 223.261 196.423 223.541 198.657 230.029 210.048 230.31 210.687 230.323 211.17 230.846 211.155 231.472 211.139 232.098 210.619 232.593 209.993 232.578 208.764 232.548 207.626 232.45 206.576 232.299Z" fill="#0A0A0A"/></g><path d="M204.55 186.359C204.699 187.234 201.476 188.045 197.032 188.572 192.588 189.099 188.598 189.366 188.459 188.27 188.284 186.885 191.925 184.21 196.368 183.682 200.811 183.154 204.315 184.983 204.549 186.359Z" id="e1_eb" fill="#0A0A0A"/><circle cx="203.106" cy="198.451" r="2.836" id="e1_eye-2" fill="#0A0A0A" transform="matrix(0.143113 -0.989706 0.989706 0.143113 -22.37 371.066)"/></g><path d="M238.552 191.875C238.333 192.735 235.058 192.168 230.783 190.848 226.508 189.528 222.752 188.152 223.07 187.093 223.472 185.756 227.444 184.626 231.719 185.946 235.994 187.266 238.897 190.522 238.552 191.875Z" id="e1_eb-2" fill="#0A0A0A"/></g><path d="M157.535 220.803C149.632 220.844 143.181 212.423 143.14 204.52 143.099 196.617 149.482 192.225 157.385 192.184L161.485 197.458 164.33 220.768 157.535 220.804Z" fill="#FF9E85"/><path d="M163.085 207.929C164.402 208.057 165.576 207.103 165.711 205.787 166.579 197.282 170.231 168.756 180.32 166.78 188.224 165.232 207.278 176.569 225.031 173.321 232.797 171.9 240.145 173.874 240.867 177.543 241.153 178.996 246.14 158.188 234.113 142.278 224.538 129.611 192.921 125.818 178.494 129.84 138.547 140.977 155.742 193.892 155.742 193.892L157.181 205.466C157.32 206.584 158.215 207.455 159.336 207.564L163.084 207.928Z" fill="#0C0C0C"/><ellipse cx="217.307" cy="140.119" rx="10.82" ry="15.926" fill="#0C0C0C" transform="matrix(0.980364 -0.197195 0.197195 0.980364 -23.364 45.603)"/></g></g><path d="M179.193 306.594C145.101 304.987 143.666 276.05 143.666 276.05 143.666 276.05 126.774 277.142 115.545 278.661 97.161 281.148 85.033 287.382 75.382 297.033 66.404 306.011 60.938 315.725 66.722 377.744 70.91 422.65 67.962 521.423 67.962 521.423L273.712 521.423C273.712 521.423 286.05 391.958 287.77 371.744 291.053 333.155 293.718 299.538 285.706 291.526 269.235 275.055 236.909 276.05 222.748 276.052 222.517 276.052 225.621 308.782 179.193 306.593Z" id="b_1_b" fill="#367CFF"/><path d="M479.471 520.092 330.875 520.826C316.319 519.774 303.696 510.373 298.518 496.729L225.226 334.126C217.877 314.763 227.618 293.109 246.981 285.761 266.347 278.412 285.464 283.353 292.813 302.715L360.148 447.746 482.484 449.731C482.484 449.731 480.392 520.158 479.471 520.091Z" id="b_4_b" fill="#367CFF"/><path d="M284.861 380.766C284.879 380.491 285.116 380.28 285.391 380.298 285.667 380.316 285.876 380.553 285.859 380.828L281.676 447.656C281.66 447.907 281.461 448.104 281.217 448.123 281.194 448.125 281.17 448.125 281.146 448.123 280.87 448.105 280.661 447.868 280.678 447.593" fill="#0C0C0C"/><g id="b_4_ha"><path d="M310.204 452.432 280.069 441.869 284.395 441.57C287.26 441.256 289.592 438.83 289.428 435.953 289.253 432.885 286.55 430.627 283.535 430.957L230.221 436.622 231.606 453.755C232.486 464.64 239.883 473.903 250.304 477.17L273.392 484.362C275.848 485.132 278.62 484.177 279.838 481.91 281.015 479.72 280.527 477.246 279.002 475.658 279.068 475.604 279.129 475.542 279.161 475.457 279.222 475.296 279.187 475.127 279.095 474.996L283.351 476.33C286.101 477.192 289.211 475.905 290.215 473.204 291.141 470.715 290.092 468.026 287.923 466.755 287.975 466.729 288.013 466.693 288.054 466.65L289.803 467.198C292.259 467.968 295.031 467.012 296.249 464.746 297.675 462.094 296.664 459.02 294.318 457.616 294.327 457.58 294.334 457.544 294.334 457.508L306.883 461.907C309.499 462.824 312.364 461.447 313.281 458.83 314.198 456.214 312.821 453.349 310.204 452.432Z" fill="#FF9E85"/><path d="M293.84 457.998C293.783 457.998 293.726 457.988 293.669 457.968L281.53 453.554C281.271 453.46 281.136 453.173 281.231 452.913 281.325 452.654 281.612 452.521 281.872 452.614L294.011 457.028C294.27 457.122 294.405 457.409 294.31 457.669 294.236 457.872 294.044 457.998 293.84 457.998Z" id="b_4_ha_sh" fill="#0A0A0A" opacity="0.2"/><path d="M287.703 466.824C287.647 466.824 287.591 466.815 287.536 466.795L277.968 463.4C277.708 463.308 277.572 463.022 277.664 462.762 277.756 462.501 278.042 462.365 278.302 462.458L287.87 465.853C288.13 465.945 288.266 466.231 288.174 466.491 288.101 466.696 287.908 466.824 287.703 466.824Z" id="b_4_ha_sh-2" fill="#0A0A0A" opacity="0.2"/><path d="M278.694 475.779C278.635 475.779 278.574 475.768 278.516 475.746L274.035 474.037C273.777 473.939 273.648 473.65 273.746 473.392 273.844 473.132 274.132 473.002 274.392 473.103L278.873 474.812C279.131 474.91 279.26 475.199 279.162 475.457 279.086 475.657 278.896 475.779 278.695 475.779Z" id="b_4_ha_sh-3" fill="#0A0A0A" opacity="0.2"/></g><path d="M252.557 489.729 65.719 520.704C64.363 520.851 63.007 520.924 61.658 520.924 51.394 520.924 41.508 516.708 34.384 509.157 26.323 500.612 22.732 488.785 24.681 477.202L64.523 317.599C67.96 297.176 87.298 283.409 107.725 286.84 128.148 290.276 141.92 309.618 138.484 330.042L107.929 441.277 243.693 422.731 252.558 489.728Z" id="b_4_b-2" fill="#367CFF"/><g id="b_4_st"><path d="M83.573 444.769C83.329 444.769 83.116 444.591 83.079 444.343 83.038 444.07 83.226 443.816 83.499 443.775L106.787 440.288C107.07 440.245 107.315 440.435 107.356 440.708 107.397 440.981 107.209 441.235 106.936 441.276L83.648 444.763C83.623 444.767 83.598 444.769 83.573 444.769Z" fill="#0C0C0C"/></g><g id="b_4_st-2"><path d="M70.92 521.424C70.672 521.424 70.458 521.24 70.425 520.988 70.389 520.715 70.582 520.464 70.856 520.427L251.51 489.35 242.753 423.349 107.928 441.278C107.77 441.297 107.613 441.243 107.503 441.13 107.393 441.016 107.343 440.856 107.369 440.699L121.958 377.758C122.003 377.486 122.256 377.297 122.534 377.348 122.806 377.394 122.99 377.652 122.944 377.924L108.467 440.197 243.128 422.29C243.261 422.271 243.397 422.31 243.503 422.393 243.609 422.476 243.677 422.599 243.691 422.733L252.556 489.73C252.585 490 252.393 490.245 252.124 490.28L70.985 521.421C70.963 521.424 70.941 521.425 70.92 521.425Z" fill="#0C0C0C"/></g></g><g><path d="M396.161 503.145 445.085 352.756C446.849 347.335 451.902 343.665 457.603 343.665L656.921 343.665C665.866 343.665 672.206 352.395 669.439 360.901L620.515 511.29C618.751 516.711 613.698 520.381 607.997 520.381L408.679 520.381C399.734 520.381 393.394 511.651 396.161 503.145Z" fill="#292A2E"/><rect x="296.628" y="508.186" rx="6.02" ry="6.02" width="145.462" height="12.194" fill="#292A2E"/><circle cx="532.8" cy="439.359" r="20.905" fill="#FFFFFF"/></g><g><path d="M760.178 287.874 540.112 287.874 511.896 309.008 511.896 199.767C511.896 189.611 520.129 181.378 530.285 181.378L760.179 181.378C770.335 181.378 778.568 189.611 778.568 199.767L778.568 269.486C778.568 279.642 770.335 287.875 760.179 287.875Z" fill="#FFFFFF"/><path d="M511.895 309.508C511.819 309.508 511.742 309.49 511.671 309.455 511.502 309.37 511.395 309.197 511.395 309.008L511.395 199.767C511.395 189.352 519.869 180.878 530.284 180.878L760.179 180.878C770.594 180.878 779.068 189.352 779.068 199.767L779.068 269.486C779.068 279.901 770.594 288.375 760.179 288.375L540.28 288.375 512.196 309.409C512.108 309.475 512.003 309.509 511.896 309.509ZM530.284 181.878C520.42 181.878 512.395 189.903 512.395 199.767L512.395 308.009 539.812 287.474C539.899 287.41 540.003 287.374 540.112 287.374L760.178 287.374C770.042 287.374 778.067 279.349 778.067 269.485L778.067 199.766C778.067 189.902 770.043 181.877 760.178 181.877L530.283 181.877Z" fill="#292A2E"/></g><path d="M759.479 233.406 615.354 233.406C614.963 233.406 614.647 233.089 614.647 232.699 614.647 232.309 614.963 231.992 615.354 231.992L759.479 231.992C759.87 231.992 760.186 232.309 760.186 232.699 760.186 233.089 759.87 233.406 759.479 233.406Z" fill="#367CFF"/><path d="M759.479 251.08 615.354 251.08C614.963 251.08 614.647 250.763 614.647 250.373 614.647 249.983 614.963 249.666 615.354 249.666L759.479 249.666C759.87 249.666 760.186 249.983 760.186 250.373 760.186 250.763 759.87 251.08 759.479 251.08Z" fill="#367CFF"/><path d="M693.734 268.753 615.355 268.753C614.964 268.753 614.648 268.436 614.648 268.046 614.648 267.656 614.964 267.339 615.355 267.339L693.734 267.339C694.125 267.339 694.441 267.656 694.441 268.046 694.441 268.436 694.125 268.753 693.734 268.753Z" fill="#367CFF"/><circle cx="563.689" cy="237.714" r="35.486" fill="#292A2E"/><g><path d="M625.54 199.278 628.43 206.754 636.433 207.191 630.215 212.25 632.272 219.997 625.54 215.646 618.808 219.997 620.865 212.25 614.648 207.191 622.651 206.754 625.54 199.278Z" fill="#367CFF"/><path d="M654.15 199.278 657.04 206.754 665.043 207.191 658.825 212.25 660.882 219.997 654.15 215.646 647.418 219.997 649.475 212.25 643.258 207.191 651.261 206.754 654.15 199.278Z" fill="#367CFF"/><path d="M682.76 199.278 685.65 206.754 693.653 207.191 687.435 212.25 689.492 219.997 682.76 215.646 676.028 219.997 678.085 212.25 671.868 207.191 679.871 206.754 682.76 199.278Z" fill="#367CFF"/><path d="M711.37 199.278 714.26 206.754 722.263 207.191 716.046 212.25 718.102 219.997 711.37 215.646 704.638 219.997 706.695 212.25 700.478 207.191 708.481 206.754 711.37 199.278Z" fill="#367CFF"/><path d="M739.98 199.278 742.87 206.754 750.873 207.191 744.656 212.25 746.712 219.997 739.98 215.646 733.248 219.997 735.305 212.25 729.088 207.191 737.091 206.754 739.98 199.278Z" fill="#367CFF"/></g><g><rect x="369.359" y="122.122" rx="10.111" ry="10.111" width="99.682" height="78.376" fill="#292A2E"/><g><path d="M444.306 167.039 443.947 167.039C446.203 167.518 447.892 169.524 447.875 171.924 447.858 174.672 445.544 176.853 442.796 176.85L441.965 176.85C443.992 177.544 445.428 179.509 445.311 181.8 445.174 184.456 442.891 186.5 440.232 186.497L438.701 186.497 408.098 186.47 408.142 147.338C411.14 142.72 416.417 134.916 416.417 134.916 417.514 133.176 419.387 132.219 421.305 132.219 422.358 132.219 423.424 132.51 424.381 133.111 427.078 134.81 427.888 138.375 426.186 141.072L422.272 147.286 426.887 147.293 430.168 147.296 445.328 147.313C448.015 147.316 450.302 149.405 450.397 152.092 450.496 154.909 448.247 157.223 445.454 157.23 447.71 157.709 449.399 159.715 449.385 162.115 449.365 164.863 447.05 167.044 444.306 167.041Z" fill="#FFFFFF"/><path d="M408.141 147.152 408.141 147.336 408.111 186.468 408.111 186.502 391.765 186.475 391.796 147.124 408.141 147.152Z" fill="#367CFF"/><circle cx="399.953" cy="154.081" r="3.377" fill="#FFFFFF" opacity="0.65"/></g></g><g><circle cx="563.693" cy="99" r="41.858" fill="#367CFF"/><path d="M585.107 98.928C585.107 110.755 575.519 120.342 563.693 120.342 551.867 120.342 542.279 110.754 542.279 98.928L585.108 98.928Z" fill="#FFFFFF"/><g><circle cx="548.577" cy="82.201" r="3.647" fill="#0C0C0C"/><circle cx="578.808" cy="82.201" r="3.647" fill="#0C0C0C"/></g></g><circle cx="563.689" cy="224.479" r="14.842" fill="#FFFFFF"/><path d="M591.848 259.318C585.358 267.758 575.158 273.198 563.688 273.198 552.218 273.198 542.018 267.758 535.538 259.318 542.368 251.458 552.448 246.478 563.688 246.478 574.928 246.478 585.008 251.458 591.848 259.318Z" fill="#FFFFFF"/><path d="M563.689 273.7C543.846 273.7 527.703 257.557 527.703 237.714 527.703 217.871 543.847 201.728 563.689 201.728 583.531 201.728 599.674 217.871 599.674 237.714 599.674 257.557 583.531 273.7 563.689 273.7ZM563.689 202.728C544.397 202.728 528.703 218.422 528.703 237.714 528.703 257.006 544.397 272.7 563.689 272.7 582.981 272.7 598.674 257.006 598.674 237.714 598.674 218.422 582.98 202.728 563.689 202.728Z" fill="#292A2E"/><g><path d="M646.335 505.274C646.055 505.274 645.787 505.118 645.656 504.85L625.748 464.018C625.565 463.643 625.721 463.191 626.096 463.009 626.471 462.827 626.923 462.982 627.105 463.357L647.013 504.189C647.196 504.564 647.04 505.016 646.665 505.198 646.558 505.25 646.446 505.274 646.335 505.274Z" fill="#292A2E"/><path d="M679.987 502.904C679.652 502.904 679.346 502.68 679.257 502.341L656.22 414.39C656.114 413.987 656.356 413.574 656.759 413.469 657.164 413.364 657.575 413.605 657.68 414.008L680.717 501.959C680.823 502.362 680.581 502.775 680.178 502.88 680.114 502.897 680.049 502.905 679.986 502.905Z" fill="#292A2E"/><path d="M723.932 506.797C723.834 506.797 723.734 506.777 723.638 506.737 723.254 506.574 723.075 506.131 723.238 505.747L747.052 449.663C747.215 449.279 747.659 449.1 748.042 449.263 748.426 449.426 748.605 449.869 748.442 450.253L724.628 506.337C724.506 506.624 724.227 506.797 723.933 506.797Z" fill="#292A2E"/><path d="M680.842 519.792C680.781 519.792 680.72 519.785 680.658 519.77 680.254 519.669 680.008 519.259 680.109 518.855L707.781 408.155C707.883 407.751 708.293 407.506 708.696 407.606 709.1 407.707 709.346 408.117 709.245 408.521L681.573 519.221C681.487 519.564 681.179 519.793 680.841 519.793Z" fill="#292A2E"/><ellipse cx="715.192" cy="419.162" rx="27.171" ry="31.646" fill="#0CBC8B" transform="matrix(0.903036 -0.429566 0.429566 0.903036 -110.709 347.859)"/><ellipse cx="715.192" cy="419.162" rx="27.171" ry="31.646" fill="#FFFFFF" opacity="0.4" transform="matrix(0.903036 -0.429566 0.429566 0.903036 -110.709 347.859)"/><ellipse cx="751.981" cy="461.33" rx="15.905" ry="18.98" fill="#0CBC8B" transform="matrix(0.927595 -0.373587 0.373587 0.927595 -117.899 314.327)"/><ellipse cx="649.373" cy="427.903" rx="28.107" ry="22.901" fill="#0CBC8B" transform="matrix(0.290251 -0.95695 0.95695 0.290251 51.41 925.121)"/><ellipse cx="623.283" cy="469.193" rx="17.458" ry="12.404" fill="#0CBC8B" transform="matrix(0.165185 -0.986263 0.986263 0.165185 57.578 1006.41)"/><rect x="628.599" y="491.538" width="117.544" height="29.292" fill="#292A2E"/><rect x="628.599" y="491.538" width="117.544" height="29.292" fill="#FFFFFF" opacity="0.3"/><ellipse cx="708.512" cy="476.891" rx="19.492" ry="23.154" fill="#0CBC8B" transform="matrix(0.927595 -0.373587 0.373587 0.927595 -126.859 299.214)"/><circle cx="664.342" cy="477.425" r="18.008" fill="#0CBC8B"/><ellipse cx="751.981" cy="461.33" rx="15.905" ry="18.98" fill="#FFFFFF" opacity="0.68" transform="matrix(0.927595 -0.373587 0.373587 0.927595 -117.899 314.327)"/><ellipse cx="649.373" cy="427.903" rx="28.107" ry="22.901" fill="#FFFFFF" opacity="0.68" transform="matrix(0.290251 -0.95695 0.95695 0.290251 51.41 925.121)"/><ellipse cx="623.283" cy="469.193" rx="17.458" ry="12.404" fill="#FFFFFF" opacity="0.68" transform="matrix(0.165185 -0.986263 0.986263 0.165185 57.578 1006.41)"/><ellipse cx="708.512" cy="476.891" rx="19.492" ry="23.154" fill="#FFFFFF" opacity="0.68" transform="matrix(0.927595 -0.373587 0.373587 0.927595 -126.859 299.214)"/><circle cx="664.342" cy="477.425" r="18.008" fill="#FFFFFF" opacity="0.4"/><path d="M722.184 462.264C708.515 466.083 701.323 454.913 701.323 454.913L701.331 454.898C708.622 452.724 716.705 455.781 722.185 462.264Z" fill="#292A2E"/><path d="M635.848 466.838C629.108 464.362 623.734 459.404 620.142 452.996 622.052 452.022 624.112 451.63 626.165 451.977 631.856 452.928 635.72 459.2 635.848 466.838Z" fill="#292A2E"/><path d="M667.556 459.706C661.986 464.551 655.465 467.616 648.77 468.378 651.895 463.019 657.699 459.419 664.341 459.419 665.443 459.419 666.515 459.517 667.556 459.706Z" fill="#292A2E"/></g><path d="M767.616 522.424 1.487 522.424C0.935 522.424 0.487 521.976 0.487 521.424 0.487 520.872 0.935 520.424 1.487 520.424L767.616 520.424C768.168 520.424 768.616 520.872 768.616 521.424 768.616 521.976 768.168 522.424 767.616 522.424Z" fill="#292A2E"/></g></g></svg>