<svg viewBox="0 0 978.258 916.556" xmlns="http://www.w3.org/2000/svg" xmlns:xlink="http://www.w3.org/1999/xlink" id="Layer_3" overflow="hidden"><g><g opacity="0.7"><rect x="659.897" y="7.983" width="172.061" height="203.958" fill="#F4F4F4"/><rect x="831.958" y="7.983" width="5.582" height="203.958" fill="#F4F4F4" transform="matrix(-1 1.22465e-16 -1.22465e-16 -1 1669.5 219.924)"/><rect x="831.958" y="7.983" width="5.582" height="203.958" fill="#292A2E" opacity="0.05" transform="matrix(-1 1.22465e-16 -1.22465e-16 -1 1669.5 219.924)"/><rect x="691.24" y="48.78" width="109.375" height="122.365" fill="#292A2E" opacity="0.05"/><rect x="794.915" y="48.78" width="5.7" height="122.365" fill="#292A2E" opacity="0.03"/><rect x="831.958" y="267.016" width="140.718" height="142.01" fill="#F4F4F4"/><rect x="857.592" y="292.885" width="89.451" height="90.272" fill="#292A2E" opacity="0.05"/><rect x="972.676" y="267.016" width="5.582" height="142.01" fill="#F4F4F4" transform="matrix(-1 -1.22465e-16 1.22465e-16 -1 1950.93 676.042)"/><rect x="972.676" y="267.016" width="5.582" height="142.01" fill="#292A2E" opacity="0.05" transform="matrix(-1 -1.22465e-16 1.22465e-16 -1 1950.93 676.042)"/><rect x="941.342" y="292.885" width="5.7" height="90.272" fill="#292A2E" opacity="0.03"/></g><g opacity="0.7"><rect x="74.579" y="0" width="405.081" height="405.081" id="c_3_c" fill="#F4F4F4"/><rect x="69.936" y="0" width="4.643" height="405.081" id="c_3_c-2" fill="#F4F4F4"/><rect x="69.936" y="0" width="4.643" height="405.081" id="c_3_c-3" fill="#292A2E" opacity="0.05"/><path d="M172.712 279.134 172.712 173.152 259.527 173.152 259.527 234.725 394.004 234.725 394.004 343.749 451.159 343.749 451.159 405.081 394.004 405.081 382.994 405.081 94.065 405.081 94.065 279.134 172.712 279.134Z" id="c_3_c-4" fill="#292A2E" opacity="0.05"/><g id="c_3_wh"><rect x="185.164" y="184.659" width="63.22" height="11.507" id="c_3_wh-2" fill="#FFFFFA" opacity="0.34"/><rect x="185.164" y="208.505" width="63.22" height="11.507" id="c_3_wh-3" fill="#FFFFFA" opacity="0.34"/><rect x="185.164" y="232.35" width="63.22" height="11.507" id="c_3_wh-4" fill="#FFFFFA" opacity="0.34"/></g><g id="c_3_wh-5"><rect x="105.276" y="290.304" width="11.652" height="11.507" id="c_3_wh-6" fill="#FFFFFA" opacity="0.34"/><rect x="105.276" y="314.15" width="11.652" height="11.507" id="c_3_wh-7" fill="#FFFFFA" opacity="0.34"/><rect x="105.276" y="337.995" width="11.652" height="11.507" id="c_3_wh-8" fill="#FFFFFA" opacity="0.34"/><rect x="126.833" y="290.304" width="11.652" height="11.507" id="c_3_wh-9" fill="#FFFFFA" opacity="0.34"/><rect x="126.833" y="314.15" width="11.652" height="11.507" id="c_3_wh-10" fill="#FFFFFA" opacity="0.34"/><rect x="126.833" y="337.995" width="11.652" height="11.507" id="c_3_wh-11" fill="#FFFFFA" opacity="0.34"/><rect x="147.807" y="290.304" width="11.652" height="11.507" id="c_3_wh-12" fill="#FFFFFA" opacity="0.34"/><rect x="147.807" y="314.15" width="11.652" height="11.507" id="c_3_wh-13" fill="#FFFFFA" opacity="0.34"/><rect x="147.807" y="337.995" width="11.652" height="11.507" id="c_3_wh-14" fill="#FFFFFA" opacity="0.34"/></g><path d="M74.579 200.268 156.088 200.268 156.088 0 162.829 0 162.829 200.268 382.994 200.268 382.994 0 389.735 0 389.735 200.268 479.66 200.268 479.66 207.009 389.735 207.009 389.735 405.081 382.994 405.081 382.994 207.009 162.829 207.009 162.829 405.081 156.088 405.081 156.088 207.009 74.579 207.009 74.579 200.268Z" fill="#FFFFFF"/><rect x="58.442" y="404.592" width="437.355" height="13.471" id="c_3_c-5" fill="#F4F4F4"/><rect x="58.442" y="404.592" width="437.355" height="13.471" id="c_3_c-6" fill="#292A2E" opacity="0.1"/><rect x="52.128" y="404.592" width="6.314" height="13.471" id="c_3_c-7" fill="#292A2E" opacity="0.1"/><rect x="52.128" y="404.592" width="6.314" height="13.471" id="c_3_c-8" fill="#292A2E" opacity="0.1"/></g><g><g><path d="M308.373 50.3 782.51 50.3C796.732 50.3 808.262 61.8296 808.262 76.052L808.262 643.932C808.262 658.464 796.482 670.244 781.95 670.244L308.934 670.244C294.402 670.244 282.622 658.464 282.622 643.932L282.622 76.049C282.624 61.8281 294.152 50.3006 308.373 50.3Z" fill="#FFFFFF"/><path d="M781.95 671.243 308.934 671.243C293.85 671.243 281.622 659.015 281.622 643.931L281.622 75.049C281.623 60.8279 293.152 49.3 307.373 49.3L783.51 49.3C797.732 49.3 809.261 60.829 809.262 75.051L809.262 643.931C809.262 659.015 797.034 671.243 781.95 671.243ZM283.622 76.006 283.622 643.931C283.621 657.91 294.953 669.242 308.932 669.243 308.933 669.243 308.933 669.243 308.934 669.243L781.95 669.243C795.929 669.243 807.262 657.91 807.262 643.931L807.262 75.756C807.26 62.2477 796.308 51.2983 782.8 51.3L308.33 51.3C294.685 51.3 283.623 62.3609 283.622 76.006Z" fill="#292A2E"/></g><path d="M384.588 173.577 327.129 173.577C320.462 173.569 315.059 168.167 315.05 161.5L315.05 104.04C315.058 97.3722 320.461 91.9687 327.129 91.961L384.588 91.961C391.256 91.9682 396.66 97.3718 396.668 104.04L396.668 161.5C396.659 168.167 391.255 173.57 384.588 173.577ZM327.129 93.959C321.565 93.9656 317.057 98.4743 317.05 104.038L317.05 161.5C317.057 167.064 321.565 171.572 327.129 171.579L384.588 171.579C390.152 171.573 394.661 167.064 394.668 161.5L394.668 104.04C394.661 98.4759 390.152 93.9671 384.588 93.961Z" fill="#292A2E"/><path d="M384.588 287.415 327.129 287.415C320.461 287.407 315.058 282.004 315.05 275.336L315.05 217.877C315.057 211.209 320.461 205.805 327.129 205.797L384.588 205.797C391.256 205.805 396.66 211.209 396.668 217.877L396.668 275.336C396.66 282.004 391.256 287.408 384.588 287.415ZM327.129 207.8C321.565 207.807 317.056 212.316 317.05 217.88L317.05 275.339C317.056 280.903 321.565 285.412 327.129 285.418L384.588 285.418C390.152 285.412 394.661 280.903 394.668 275.339L394.668 217.877C394.661 212.313 390.152 207.804 384.588 207.797Z" fill="#292A2E"/><path d="M384.588 401.253 327.129 401.253C320.461 401.245 315.058 395.842 315.05 389.174L315.05 331.715C315.058 325.047 320.461 319.644 327.129 319.636L384.588 319.636C391.256 319.643 396.66 325.047 396.668 331.715L396.668 389.174C396.66 395.842 391.256 401.246 384.588 401.253ZM327.129 321.636C321.565 321.642 317.056 326.151 317.05 331.715L317.05 389.174C317.056 394.738 321.565 399.247 327.129 399.253L384.588 399.253C390.152 399.247 394.661 394.738 394.668 389.174L394.668 331.715C394.661 326.151 390.152 321.642 384.588 321.636Z" fill="#292A2E"/><path d="M384.588 513.527 327.129 513.527C320.461 513.519 315.058 508.116 315.05 501.448L315.05 443.989C315.057 437.321 320.461 431.917 327.129 431.909L384.588 431.909C391.256 431.917 396.66 437.321 396.668 443.989L396.668 501.448C396.66 508.116 391.256 513.52 384.588 513.527ZM327.129 433.909C321.565 433.915 317.056 438.425 317.05 443.989L317.05 501.448C317.057 507.012 321.565 511.52 327.129 511.527L384.588 511.527C390.152 511.521 394.661 507.012 394.668 501.448L394.668 443.989C394.662 438.424 390.153 433.915 384.588 433.909Z" fill="#292A2E"/><path d="M384.588 625.8 327.129 625.8C320.461 625.792 315.057 620.388 315.05 613.72L315.05 556.262C315.057 549.594 320.461 544.19 327.129 544.182L384.588 544.182C391.256 544.19 396.66 549.594 396.668 556.262L396.668 613.721C396.66 620.389 391.256 625.792 384.588 625.8ZM327.129 546.181C321.565 546.188 317.056 550.697 317.05 556.261L317.05 613.72C317.056 619.284 321.565 623.793 327.129 623.8L384.588 623.8C390.152 623.793 394.661 619.284 394.668 613.72L394.668 556.262C394.661 550.698 390.152 546.189 384.588 546.182Z" fill="#292A2E"/><path d="M345.638 269.594C344.604 269.595 343.61 269.194 342.866 268.477L326.118 252.377C324.525 250.846 324.475 248.314 326.006 246.721 327.537 245.128 330.069 245.078 331.662 246.609L345.57 259.98 380.431 224.8C382.002 223.246 384.534 223.26 386.088 224.831 387.619 226.379 387.631 228.868 386.114 230.43L348.479 268.405C347.73 269.166 346.706 269.594 345.638 269.594Z" fill="#0CBC8B"/><path d="M345.638 383.432C344.604 383.433 343.611 383.033 342.866 382.316L326.118 366.216C324.525 364.685 324.475 362.153 326.006 360.56 327.537 358.967 330.069 358.917 331.662 360.448L345.57 373.815 380.431 338.638C381.986 337.069 384.519 337.057 386.088 338.612 387.657 340.167 387.669 342.7 386.114 344.269L348.479 382.244C347.729 383.005 346.706 383.433 345.638 383.432Z" fill="#0CBC8B"/><rect x="425.281" y="114.977" rx="2.791" width="342.57" height="5.582" fill="#262626" opacity="0.5"/><rect x="425.281" y="144.977" rx="2.791" width="222.57" height="5.582" fill="#262626" opacity="0.5"/><rect x="425.281" y="228.815" rx="2.791" width="342.57" height="5.582" fill="#262626" opacity="0.5"/><rect x="425.281" y="258.815" rx="2.791" width="222.57" height="5.582" fill="#262626" opacity="0.5"/><rect x="425.281" y="342.653" rx="2.791" width="342.57" height="5.582" fill="#262626" opacity="0.5"/><rect x="425.281" y="372.653" rx="2.791" width="222.57" height="5.582" fill="#262626" opacity="0.5"/><rect x="425.281" y="454.927" rx="2.791" width="342.57" height="5.582" fill="#262626" opacity="0.5"/><rect x="425.281" y="484.927" rx="2.791" width="222.57" height="5.582" fill="#262626" opacity="0.5"/><rect x="425.281" y="567.2" rx="2.791" width="342.57" height="5.582" fill="#262626" opacity="0.5"/><rect x="425.281" y="597.2" rx="2.791" width="222.57" height="5.582" fill="#262626" opacity="0.5"/></g><g><g><path d="M342.752 153.226C343.351 151.754 344.856 150.859 346.435 151.037 346.435 150.975 346.381 150.825 346.489 150.826L343.989 149.246C342.443 148.316 341.821 146.388 342.531 144.73 343.286 143.111 345.145 142.329 346.831 142.919 346.823 142.885 346.844 142.851 346.847 142.819L345.819 142.17C344.37 141.291 343.741 139.513 344.313 137.918 345.001 136.121 347.016 135.222 348.813 135.911 349.027 135.993 349.232 136.096 349.426 136.218L351.8 137.718C351.806 137.704 351.8 137.689 351.806 137.676 351.812 137.663 351.839 137.657 351.851 137.642 350.703 136.493 350.503 134.703 351.368 133.329 352.342 131.536 354.844 131.744 356.379 132.713L360.979 136.142C362.42 137.217 363.227 138.941 363.129 140.736 362.72 148.384 361.173 168.336 356.274 165.236L344.215 157.622C342.779 156.664 342.176 154.853 342.752 153.226Z" fill="#E98862"/><path d="M345.638 154.616C344.604 154.617 343.61 154.216 342.866 153.499L326.118 137.399C324.511 135.883 324.437 133.352 325.953 131.745 327.469 130.138 330 130.064 331.607 131.579 331.626 131.597 331.644 131.614 331.662 131.632L345.57 145 380.431 109.823C381.986 108.254 384.519 108.242 386.088 109.797 387.657 111.352 387.669 113.885 386.114 115.454L348.479 153.429C347.729 154.189 346.706 154.617 345.638 154.616Z" fill="#0CBC8B"/><path d="M334.113 144.852C334.454 142.484 336.65 140.841 339.018 141.182 339.095 141.193 339.172 141.206 339.248 141.221 341.549 141.765 343.037 143.996 342.654 146.329L342.534 152.47C342.481 155.158 344.443 157.463 347.105 157.84L347.105 157.84C349.71 158.209 352.194 156.618 352.948 154.097L356.081 143.614 352.674 138.527C353.866 136.607 354.866 131.642 356.931 133.121 358.678 134.207 362.645 136.833 363.731 139.321 363.752 139.331 365.783 160.678 364.678 162.458L354.9 188.614C350.209 196.166 327.571 190.322 327.571 190.322Z" fill="#E98862"/><path d="M345.57 145 380.431 109.823C381.986 108.254 384.519 108.242 386.088 109.797 387.657 111.352 387.669 113.885 386.114 115.454L348.479 153.429" fill="#0CBC8B"/></g><path d="M167.648 326.809 308.735 314.936C319.123 315.209 328.168 306.572 331.978 296.88L368.942 181.022 320.588 162.014 287.959 261.257 163.878 269.941Z" fill="#367CFF"/><g><path d="M85.728 872.3C85.728 872.3 90.243 895.7 112.156 897.008 134.069 898.316 129.317 915.769 129.317 915.769L45.578 915.769 45.578 873.931Z" fill="#367CFF"/><path d="M59.9 445.368C59.9 445.368 60.163 438.333 60.107 454.292 59.9 513.821 58.867 581.817 56.343 621.607 52.286 685.571 41.883 887.235 41.883 887.235L96.909 886.773 150.241 442.95Z" fill="#262626"/><path d="M122.039 515.567C122.039 515.567 124.319 558.767 124.739 568.908 125.717 592.363 126.057 616.647 126.057 644.181L134.733 572C134.733 572 128.386 549.38 122.039 515.567Z" fill="#0A0A0A"/><path d="M183.689 872.3C183.689 872.3 188.204 895.7 210.117 897.008 232.03 898.316 227.278 915.769 227.278 915.769L143.539 915.769 143.539 873.931Z" fill="#367CFF"/><path d="M210.332 449.991C210.332 449.991 215.206 653.447 214.492 663.391L194.029 885.691 139.912 886.691 145.186 655.348C145.186 655.348 141.466 591.532 126.047 532.274 118.158 501.861 113.41 470.719 111.878 439.337L111.878 439.337Z" fill="#262626"/><path d="M59.3 445.362 59.12 445.372C59.12 445.372 59.251 441.9 59.3 445.362Z" fill="#333333"/><path d="M218.078 343.06C216.944 356.392 211.423 433.569 210.332 449.991L59.96 449.991C59.111 435.18 55.296 370.415 52.075 341.452 49 313.814 42.967 299.977 47.389 291.806 54.615 278.452 74.361 270.736 87.825 268.913 96.047 267.8 166.141 267 166.309 267 171.815 267 203.875 269.588 210.962 275.046 223.785 284.922 220.06 319.811 218.078 343.06Z" fill="#367CFF"/><path d="M220.155 322.783C220.42 322.783 220.64 322.577 220.655 322.312L221.868 303.141C221.884 302.865 221.674 302.629 221.398 302.613 221.124 302.6 220.889 302.809 220.87 303.083L219.657 322.254C219.641 322.53 219.851 322.766 220.127 322.782Z" fill="#0C0C0C"/></g><g><path d="M27.45 449.119C12.2876 449.114 0.000222905 436.818 0.00542918 421.656 0.00654079 418.418 0.580234 415.207 1.7 412.169 3.249 407.956 39.669 311.513 46.6 293.643L97.939 314.443C94.039 324.49 79.916 362.574 68.568 393.254L87.42 391.205 93.354 445.79 30.419 448.957C29.433 449.065 28.4419 449.119 27.45 449.119Z" fill="#367CFF"/><path d="M184.224 265.176C184.056 265.154 179.443 282.512 143.446 279.81 118.526 277.943 112.446 260.981 111.878 260.981 114.565 260.41 118.929 259.817 120.122 259.181 124.046 257.072 126.905 254.506 128.343 248.997 129.468 244.69 130.043 228.107 130.043 219.787L168.39 228.404C167.855 237.789 164.114 259.547 177.226 263.398 179.407 264.034 181.757 264.619 184.224 265.176Z" id="h_3_sk" fill="#E98862"/><path d="M167.062 246.854C151.945 248.047 132.525 241.664 128.836 221.495L125.508 203.295C121.819 183.126 129.422 164.838 148.413 161.365L148.413 161.365C167.403 157.892 184.588 171.647 188.276 191.816L189.75 199.873C191.165 207.613 194.034 244.726 167.062 246.854Z" fill="#E98862"/><path d="M181.079 228.336C178.366 214.702 177.121 205.605 177.266 196.009 181.088 189.309 180.083 181.609 179.214 178.285 181.846 179.957 184.941 180.75 188.053 180.551 188.053 180.551 181.732 155.183 160.248 148.357 156.297 146.82 146.21 144.878 132.817 146.715 121.426 148.277 93.346 156.794 89.334 188.407L89.334 188.407 89.334 188.425C89.202 189.474 86.506 218.601 81.134 232.576 73.909 251.362 63.764 257.199 64.021 278.876 64.352 306.757 115.609 310.469 146.521 308.383 177.433 306.297 194.695 296.132 194.921 276.039 195.167 253.524 186.509 255.615 181.079 228.336Z" fill="#0A0A0A"/></g><rect x="57.603" y="341.995" width="1" height="108.028" fill="#0C0C0C" transform="matrix(0.999415 -0.0342018 0.0342018 0.999415 -13.507 2.218)"/></g><path d="M955.491 916.47 15.072 916.47C14.6854 916.47 14.372 916.157 14.372 915.77 14.372 915.383 14.6854 915.07 15.072 915.07L955.491 915.07C955.878 915.07 956.191 915.383 956.191 915.77 956.191 916.157 955.878 916.47 955.491 916.47Z" fill="#292A2E"/><g><path d="M858.421 785.415C858.156 785.415 857.901 785.31 857.714 785.122 856.305 783.713 854.009 757.863 847.823 680.898 845.292 649.406 842.9 619.661 841.156 601.583 841.031 600.292 840.531 600.142 840.366 600.093 837.978 599.372 830.714 605.1 826.659 610.115 826.312 610.544 825.682 610.611 825.253 610.263 824.823 609.916 824.757 609.286 825.104 608.857 827.786 605.541 836.525 596.848 840.941 598.177 841.832 598.445 842.941 599.219 843.147 601.391 844.893 619.484 847.284 649.238 849.816 680.738 853.576 727.508 857.834 780.494 859.233 783.831 859.555 784.279 859.454 784.904 859.005 785.227 858.835 785.349 858.631 785.415 858.421 785.415Z" fill="#494949"/><ellipse cx="820.825" cy="612.601" rx="38.507" ry="28.398" fill="#0CBC8B" transform="matrix(0.780267 -0.625447 0.625447 0.780267 -202.787 647.987)"/><ellipse cx="820.825" cy="612.601" rx="38.507" ry="28.398" fill="#FFFFFF" opacity="0.2" transform="matrix(0.780267 -0.625447 0.625447 0.780267 -202.787 647.987)"/><path d="M795.431 639.793C795.155 639.792 794.931 639.568 794.932 639.292 794.932 639.176 794.973 639.063 795.047 638.974L842.338 581.945C842.511 581.729 842.825 581.695 843.041 581.867 843.256 582.04 843.291 582.355 843.118 582.57 843.115 582.575 843.111 582.579 843.107 582.584L795.816 639.613C795.721 639.727 795.58 639.793 795.431 639.793Z" fill="#FFFFFF"/><path d="M868.736 773.189C868.184 773.189 867.736 772.741 867.736 772.189 867.736 772.077 867.755 771.966 867.792 771.86L885.555 720.773C887.281 715.818 892.697 713.201 897.652 714.927 898.932 715.374 900.103 716.089 901.084 717.025L910.475 726C910.874 726.382 910.889 727.015 910.507 727.414 910.125 727.813 909.492 727.828 909.093 727.446L899.702 718.475C896.705 715.616 891.957 715.729 889.098 718.726 888.36 719.5 887.796 720.423 887.444 721.433L869.68 772.517C869.54 772.919 869.162 773.189 868.736 773.189Z" fill="#494949"/><ellipse cx="912.815" cy="724.083" rx="28.398" ry="38.507" fill="#0CBC8B" transform="matrix(0.784094 -0.620642 0.620642 0.784094 -252.314 722.871)"/><path d="M850.351 782.157C849.888 782.157 849.486 781.839 849.379 781.389L819.569 656.745C818.958 654.194 816.395 652.621 813.843 653.232 812.876 653.463 812.006 653.993 811.356 654.745L802.167 665.364C801.806 665.782 801.174 665.827 800.756 665.466 800.338 665.105 800.293 664.473 800.654 664.055L809.844 653.436C812.283 650.617 816.546 650.309 819.365 652.748 820.434 653.672 821.186 654.909 821.514 656.284L851.325 780.928C851.454 781.465 851.123 782.005 850.586 782.133 850.509 782.152 850.43 782.161 850.351 782.161Z" fill="#494949"/><ellipse cx="811.37" cy="688.21" rx="38.507" ry="28.398" fill="#0CBC8B" transform="matrix(0.17 -0.985 0.985 0.17 -5.027 1370.45)"/><path d="M858.423 785.415C858.382 785.415 858.34 785.412 858.299 785.407 857.751 785.339 857.361 784.84 857.429 784.292 857.429 784.292 857.429 784.292 857.429 784.292L876.465 629.735C877.059 624.908 881.454 621.477 886.281 622.071 888.416 622.333 890.382 623.369 891.806 624.982L913.564 649.625C913.93 650.039 913.891 650.672 913.477 651.037 913.062 651.403 912.43 651.364 912.064 650.95L890.306 626.307C887.818 623.489 883.517 623.222 880.699 625.709 879.453 626.81 878.652 628.329 878.449 629.979L859.414 784.537C859.352 785.038 858.928 785.414 858.423 785.415Z" fill="#494949"/><ellipse cx="902.184" cy="644.682" rx="28.398" ry="38.507" fill="#0CBC8B" transform="matrix(0.484031 -0.875051 0.875051 0.484031 -98.63 1122.09)"/><ellipse cx="912.815" cy="724.083" rx="28.398" ry="38.507" fill="#FFFFFF" opacity="0.2" transform="matrix(0.784094 -0.620642 0.620642 0.784094 -252.314 722.871)"/><ellipse cx="811.37" cy="688.21" rx="38.507" ry="28.398" fill="#FFFFFF" opacity="0.5" transform="matrix(0.17 -0.985 0.985 0.17 -5.027 1370.45)"/><ellipse cx="902.184" cy="644.682" rx="28.398" ry="38.507" fill="#FFFFFF" opacity="0.5" transform="matrix(0.484031 -0.875051 0.875051 0.484031 -98.63 1122.09)"/><path d="M882.77 916.556 834.073 916.556 826.004 760.752 890.839 760.752 882.77 916.556Z" fill="#292A2E"/><path d="M882.77 916.556 834.073 916.556 826.004 760.752 890.839 760.752 882.77 916.556Z" fill="#FFFFFF" opacity="0.3"/><path d="M936.715 754.776C936.562 754.776 936.417 754.706 936.322 754.586L888.522 694.2C888.35 693.983 888.387 693.669 888.604 693.497 888.821 693.326 889.135 693.362 889.307 693.579L937.107 753.965C937.279 754.181 937.243 754.496 937.026 754.668 936.938 754.738 936.829 754.776 936.716 754.776Z" fill="#FFFFFF"/><path d="M932.7 668.159C932.594 668.158 932.491 668.123 932.406 668.059L871.24 623.4C871.017 623.237 870.968 622.924 871.131 622.701 871.294 622.478 871.607 622.429 871.83 622.592L933 667.255C933.221 667.421 933.266 667.734 933.1 667.955 933.006 668.081 932.857 668.155 932.7 668.155Z" fill="#FFFFFF"/><path d="M802.327 725.507C802.283 725.507 802.24 725.501 802.197 725.49 801.93 725.419 801.772 725.145 801.843 724.878L821.315 651.925C821.382 651.657 821.653 651.494 821.921 651.561 822.189 651.628 822.352 651.899 822.285 652.167 822.284 652.172 822.283 652.178 822.281 652.183L802.809 725.136C802.751 725.354 802.553 725.507 802.327 725.507Z" fill="#FFFFFF"/></g></g></svg>