<svg viewBox="0 0 907.087 858.036" xmlns="http://www.w3.org/2000/svg" xmlns:xlink="http://www.w3.org/1999/xlink" id="Layer_2" overflow="hidden"><g id="Layer_2-2"><g><g><path d="M657.436 597.912 708.426 483.096 786.054 448.065 907.087 501.819 830.307 674.684 657.436 597.912Z" fill="#F4F4F4"/><rect x="711.885" y="550.457" rx="2.391" ry="2.391" width="140.331" height="4.783" fill="#292A2E" opacity="0.05" transform="matrix(0.91297 0.408028 -0.408028 0.91297 293.638 -270.983)"/><rect x="701.487" y="575.28" rx="2.391" ry="2.391" width="140.331" height="4.783" fill="#292A2E" opacity="0.05" transform="matrix(0.91297 0.408028 -0.408028 0.91297 302.862 -264.579)"/><path d="M772.261 605.236 700.132 573.227C698.926 572.688 697.512 573.229 696.973 574.435L696.973 574.435C696.434 575.641 696.975 577.055 698.181 577.594L770.31 609.603C771.516 610.142 772.93 609.601 773.469 608.395L773.469 608.395C774.008 607.189 773.467 605.775 772.261 605.236Z" fill="#292A2E" opacity="0.05"/><path d="M786.054 448.065 760.975 506.372 708.426 483.096 786.054 448.065Z" fill="#FFFFFF" opacity="0.4"/></g><g><path d="M40.646 316.234 12.346 193.834 53.306 119.164 182.336 89.334 224.936 273.624 40.646 316.234Z" fill="#F4F4F4"/><rect x="42.95" y="202.903" rx="2.391" ry="2.391" width="140.331" height="4.783" fill="#292A2E" opacity="0.05" transform="matrix(0.974823 -0.222978 0.222978 0.974823 -42.928 30.39)"/><rect x="49.569" y="228.99" rx="2.391" ry="2.391" width="140.331" height="4.783" fill="#292A2E" opacity="0.05" transform="matrix(0.974823 -0.222978 0.222978 0.974823 -48.578 32.523)"/><path d="M136.795 253.039 59.916 270.836C58.628 271.131 57.823 272.413 58.118 273.701L58.118 273.701C58.413 274.989 59.695 275.794 60.983 275.499L137.862 257.702C139.15 257.407 139.955 256.125 139.66 254.837L139.66 254.837C139.365 253.549 138.083 252.744 136.795 253.039Z" fill="#292A2E" opacity="0.05"/><path d="M53.306 119.164 68.329 180.833 12.346 193.834 53.306 119.164Z" fill="#FFFFFF" opacity="0.4"/></g><g><g><g><path d="M655.014 691.451 137.998 691.451C123.466 691.451 111.686 679.671 111.686 665.139L129.686 81.505 698.326 81.505 681.326 665.139C681.326 679.671 669.546 691.451 655.014 691.451Z" fill="#292A2E"/><path d="M655.014 691.451 137.998 691.451C123.466 691.451 111.686 679.671 111.686 665.139L129.686 81.505 698.326 81.505 681.326 665.139C681.326 679.671 669.546 691.451 655.014 691.451Z" fill="#FFFFFF" opacity="0.9"/><path d="M655.014 692.45 137.999 692.45C122.939 692.45 110.687 680.198 110.687 665.138L128.687 80.504 699.327 80.504 682.327 665.138C682.327 680.198 670.075 692.45 655.015 692.45ZM130.686 82.505 112.686 665.139C112.686 679.096 124.041 690.451 137.998 690.451L655.014 690.451C668.971 690.451 680.326 679.096 680.326 665.139L697.326 82.505 130.686 82.505Z" fill="#292A2E"/></g><path d="M674.014 23.635 156.999 23.635C141.939 23.635 129.687 35.887 129.687 50.947L128.687 82.504 699.327 82.504 701.327 50.947C701.327 35.887 689.075 23.635 674.015 23.635Z" fill="#0C0C0C"/></g><g><path d="M684.014 23.635 160.999 23.635C145.939 23.635 133.687 35.887 133.687 50.947L133.687 82.504 711.327 82.504 711.327 50.947C711.327 35.887 699.075 23.635 684.015 23.635Z" fill="#292A2E"/><g><path d="M134.686 81.505 710.326 81.505 710.326 675.139C710.326 689.661 698.536 701.451 684.014 701.451L160.998 701.451C146.476 701.451 134.686 689.661 134.686 675.139L134.686 81.505 134.686 81.505Z" fill="#FFFFFF"/><path d="M684.014 702.45 160.999 702.45C145.939 702.45 133.687 690.198 133.687 675.138L133.687 80.505 711.327 80.505 711.327 675.139C711.327 690.199 699.075 702.451 684.015 702.451ZM135.686 82.505 135.686 675.139C135.686 689.096 147.041 700.451 160.998 700.451L684.014 700.451C697.971 700.451 709.326 689.096 709.326 675.139L709.326 82.505 135.686 82.505Z" fill="#292A2E"/></g><path d="M236.653 204.784 179.194 204.784C172.533 204.784 167.114 199.366 167.114 192.705L167.114 135.246C167.114 128.585 172.533 123.167 179.194 123.167L236.653 123.167C243.314 123.167 248.733 128.585 248.733 135.246L248.733 192.705C248.733 199.366 243.314 204.784 236.653 204.784ZM179.194 125.166C173.636 125.166 169.114 129.687 169.114 135.245L169.114 192.704C169.114 198.262 173.635 202.783 179.194 202.783L236.653 202.783C242.211 202.783 246.733 198.262 246.733 192.704L246.733 135.245C246.733 129.687 242.212 125.166 236.653 125.166L179.194 125.166Z" fill="#292A2E"/><path d="M236.653 318.622 179.194 318.622C172.533 318.622 167.114 313.203 167.114 306.542L167.114 249.083C167.114 242.422 172.533 237.003 179.194 237.003L236.653 237.003C243.314 237.003 248.733 242.422 248.733 249.083L248.733 306.542C248.733 313.203 243.314 318.622 236.653 318.622ZM179.194 239.004C173.636 239.004 169.114 243.525 169.114 249.084L169.114 306.543C169.114 312.101 173.635 316.623 179.194 316.623L236.653 316.623C242.211 316.623 246.733 312.102 246.733 306.543L246.733 249.084C246.733 243.526 242.212 239.004 236.653 239.004L179.194 239.004Z" fill="#292A2E"/><path d="M236.653 432.46 179.194 432.46C172.533 432.46 167.114 427.041 167.114 420.38L167.114 362.921C167.114 356.26 172.533 350.842 179.194 350.842L236.653 350.842C243.314 350.842 248.733 356.26 248.733 362.921L248.733 420.38C248.733 427.041 243.314 432.46 236.653 432.46ZM179.194 352.842C173.636 352.842 169.114 357.363 169.114 362.921L169.114 420.38C169.114 425.938 173.635 430.46 179.194 430.46L236.653 430.46C242.211 430.46 246.733 425.939 246.733 420.38L246.733 362.921C246.733 357.363 242.212 352.842 236.653 352.842L179.194 352.842Z" fill="#292A2E"/><path d="M236.653 544.734 179.194 544.734C172.533 544.734 167.114 539.316 167.114 532.655L167.114 475.196C167.114 468.535 172.533 463.116 179.194 463.116L236.653 463.116C243.314 463.116 248.733 468.535 248.733 475.196L248.733 532.655C248.733 539.316 243.314 544.734 236.653 544.734ZM179.194 465.116C173.636 465.116 169.114 469.637 169.114 475.196L169.114 532.655C169.114 538.213 173.635 542.734 179.194 542.734L236.653 542.734C242.211 542.734 246.733 538.213 246.733 532.655L246.733 475.196C246.733 469.638 242.212 465.116 236.653 465.116L179.194 465.116Z" fill="#292A2E"/><path d="M236.653 657.008 179.194 657.008C172.533 657.008 167.114 651.589 167.114 644.928L167.114 587.469C167.114 580.808 172.533 575.389 179.194 575.389L236.653 575.389C243.314 575.389 248.733 580.808 248.733 587.469L248.733 644.928C248.733 651.589 243.314 657.008 236.653 657.008ZM179.194 577.39C173.636 577.39 169.114 581.911 169.114 587.47L169.114 644.929C169.114 650.487 173.635 655.009 179.194 655.009L236.653 655.009C242.211 655.009 246.733 650.488 246.733 644.929L246.733 587.47C246.733 581.912 242.212 577.39 236.653 577.39L179.194 577.39Z" fill="#292A2E"/><path d="M197.702 186.963C196.704 186.963 195.706 186.592 194.931 185.847L178.183 169.75C176.59 168.219 176.54 165.687 178.071 164.094 179.602 162.502 182.133 162.451 183.727 163.982L197.635 177.349 232.496 142.172C234.051 140.602 236.584 140.591 238.153 142.146 239.722 143.701 239.734 146.234 238.179 147.803L200.545 185.778C199.763 186.567 198.733 186.963 197.703 186.963Z" fill="#367CFF"/><path d="M197.702 300.801C196.704 300.801 195.706 300.43 194.931 299.685L178.183 283.588C176.59 282.057 176.54 279.525 178.071 277.932 179.602 276.34 182.133 276.289 183.727 277.82L197.635 291.187 232.496 256.011C234.051 254.442 236.584 254.43 238.153 255.985 239.722 257.54 239.734 260.073 238.179 261.642L200.545 299.617C199.763 300.406 198.733 300.802 197.703 300.802Z" fill="#367CFF"/><path d="M197.702 414.639C196.704 414.639 195.706 414.268 194.931 413.523L178.183 397.426C176.59 395.895 176.54 393.363 178.071 391.77 179.602 390.178 182.133 390.127 183.727 391.658L197.635 405.025 232.496 369.848C234.051 368.279 236.584 368.267 238.153 369.822 239.722 371.377 239.734 373.91 238.179 375.479L200.545 413.454C199.763 414.243 198.734 414.639 197.703 414.639Z" fill="#367CFF"/><rect x="277.346" y="146.184" rx="2.791" ry="2.791" width="392.57" height="5.582" fill="#262626" opacity="0.5"/><rect x="277.346" y="176.184" rx="2.791" ry="2.791" width="232.57" height="5.582" fill="#262626" opacity="0.5"/><rect x="277.346" y="260.022" rx="2.791" ry="2.791" width="392.57" height="5.582" fill="#262626" opacity="0.5"/><rect x="277.346" y="290.022" rx="2.791" ry="2.791" width="232.57" height="5.582" fill="#262626" opacity="0.5"/><rect x="277.346" y="373.86" rx="2.791" ry="2.791" width="392.57" height="5.582" fill="#262626" opacity="0.5"/><rect x="277.346" y="403.86" rx="2.791" ry="2.791" width="232.57" height="5.582" fill="#262626" opacity="0.5"/><rect x="277.346" y="486.134" rx="2.791" ry="2.791" width="392.57" height="5.582" fill="#262626" opacity="0.5"/><rect x="277.346" y="516.134" rx="2.791" ry="2.791" width="232.57" height="5.582" fill="#262626" opacity="0.5"/><rect x="277.346" y="598.407" rx="2.791" ry="2.791" width="392.57" height="5.582" fill="#262626" opacity="0.5"/><rect x="277.346" y="628.407" rx="2.791" ry="2.791" width="232.57" height="5.582" fill="#262626" opacity="0.5"/></g><g><path d="M203.856 0C190.823 0 180.221 10.603 180.221 23.635L182.221 23.635C182.221 11.705 191.927 2 203.856 2 215.785 2 225.491 11.706 225.491 23.635 225.491 34.553 217.361 43.603 206.837 45.06 206.298 43.952 205.171 43.181 203.855 43.181 202.018 43.181 200.529 44.67 200.529 46.507 200.529 48.344 202.018 49.833 203.855 49.833 205.51 49.833 206.872 48.621 207.128 47.038 218.617 45.439 227.491 35.556 227.491 23.634 227.491 10.601 216.888-0.001 203.856-0.001Z" fill="#F4F4F4"/><path d="M664.791 23.635C664.791 10.602 654.188 0 641.156 0 628.124 0 617.521 10.603 617.521 23.635L619.521 23.635C619.521 11.705 629.227 2 641.156 2 653.085 2 662.791 11.706 662.791 23.635 662.791 34.553 654.661 43.603 644.137 45.06 643.598 43.952 642.471 43.181 641.155 43.181 639.318 43.181 637.829 44.67 637.829 46.507 637.829 48.344 639.318 49.833 641.155 49.833 642.81 49.833 644.172 48.621 644.428 47.038 655.917 45.439 664.791 35.556 664.791 23.634Z" fill="#F4F4F4"/><path d="M602.32 23.635C602.32 10.602 591.717 0 578.685 0 565.653 0 555.05 10.603 555.05 23.635L557.05 23.635C557.05 11.705 566.756 2 578.685 2 590.614 2 600.32 11.706 600.32 23.635 600.32 34.553 592.19 43.603 581.666 45.06 581.127 43.952 580 43.181 578.684 43.181 576.847 43.181 575.358 44.67 575.358 46.507 575.358 48.344 576.847 49.833 578.684 49.833 580.339 49.833 581.701 48.621 581.957 47.038 593.446 45.439 602.32 35.556 602.32 23.634Z" fill="#F4F4F4"/><path d="M539.849 23.635C539.849 10.602 529.246 0 516.214 0 503.182 0 492.579 10.603 492.579 23.635L494.579 23.635C494.579 11.705 504.285 2 516.214 2 528.143 2 537.849 11.706 537.849 23.635 537.849 34.553 529.719 43.603 519.195 45.06 518.656 43.952 517.529 43.181 516.213 43.181 514.376 43.181 512.887 44.67 512.887 46.507 512.887 48.344 514.376 49.833 516.213 49.833 517.868 49.833 519.23 48.621 519.486 47.038 530.975 45.439 539.849 35.556 539.849 23.634Z" fill="#F4F4F4"/><path d="M477.377 23.635C477.377 10.602 466.774 0 453.742 0 440.71 0 430.107 10.603 430.107 23.635L432.107 23.635C432.107 11.705 441.813 2 453.742 2 465.671 2 475.377 11.706 475.377 23.635 475.377 34.553 467.247 43.603 456.723 45.06 456.184 43.952 455.057 43.181 453.741 43.181 451.904 43.181 450.415 44.67 450.415 46.507 450.415 48.344 451.904 49.833 453.741 49.833 455.396 49.833 456.758 48.621 457.014 47.038 468.503 45.439 477.377 35.556 477.377 23.634Z" fill="#F4F4F4"/><path d="M414.906 23.635C414.906 10.602 404.303 0 391.271 0 378.239 0 367.636 10.603 367.636 23.635L369.636 23.635C369.636 11.705 379.342 2 391.271 2 403.2 2 412.906 11.706 412.906 23.635 412.906 34.553 404.776 43.603 394.252 45.06 393.713 43.952 392.586 43.181 391.27 43.181 389.433 43.181 387.944 44.67 387.944 46.507 387.944 48.344 389.433 49.833 391.27 49.833 392.925 49.833 394.287 48.621 394.543 47.038 406.032 45.439 414.906 35.556 414.906 23.634Z" fill="#F4F4F4"/><path d="M352.434 23.635C352.434 10.602 341.831 0 328.799 0 315.767 0 305.164 10.603 305.164 23.635L307.164 23.635C307.164 11.705 316.87 2 328.799 2 340.728 2 350.434 11.706 350.434 23.635 350.434 34.553 342.304 43.603 331.78 45.06 331.241 43.952 330.114 43.181 328.798 43.181 326.961 43.181 325.472 44.67 325.472 46.507 325.472 48.344 326.961 49.833 328.798 49.833 330.453 49.833 331.815 48.621 332.071 47.038 343.56 45.439 352.434 35.556 352.434 23.634Z" fill="#F4F4F4"/><path d="M289.963 23.635C289.963 10.602 279.36 0 266.328 0 253.296 0 242.693 10.603 242.693 23.635L244.693 23.635C244.693 11.705 254.399 2 266.328 2 278.257 2 287.963 11.706 287.963 23.635 287.963 34.553 279.833 43.603 269.309 45.06 268.77 43.952 267.643 43.181 266.327 43.181 264.49 43.181 263.001 44.67 263.001 46.507 263.001 48.344 264.49 49.833 266.327 49.833 267.982 49.833 269.344 48.621 269.6 47.038 281.089 45.439 289.963 35.556 289.963 23.634Z" fill="#F4F4F4"/></g><g fill="none" opacity="0.6"><path d="M203.856 0C190.823 0 180.221 10.603 180.221 23.635L182.221 23.635C182.221 11.705 191.927 2 203.856 2 215.785 2 225.491 11.706 225.491 23.635 225.491 34.553 217.361 43.603 206.837 45.06 206.298 43.952 205.171 43.181 203.855 43.181 202.018 43.181 200.529 44.67 200.529 46.507 200.529 48.344 202.018 49.833 203.855 49.833 205.51 49.833 206.872 48.621 207.128 47.038 218.617 45.439 227.491 35.556 227.491 23.634 227.491 10.601 216.888-0.001 203.856-0.001Z" fill="#292A2E"/><path d="M664.791 23.635C664.791 10.602 654.188 0 641.156 0 628.124 0 617.521 10.603 617.521 23.635L619.521 23.635C619.521 11.705 629.227 2 641.156 2 653.085 2 662.791 11.706 662.791 23.635 662.791 34.553 654.661 43.603 644.137 45.06 643.598 43.952 642.471 43.181 641.155 43.181 639.318 43.181 637.829 44.67 637.829 46.507 637.829 48.344 639.318 49.833 641.155 49.833 642.81 49.833 644.172 48.621 644.428 47.038 655.917 45.439 664.791 35.556 664.791 23.634Z" fill="#292A2E"/><path d="M602.32 23.635C602.32 10.602 591.717 0 578.685 0 565.653 0 555.05 10.603 555.05 23.635L557.05 23.635C557.05 11.705 566.756 2 578.685 2 590.614 2 600.32 11.706 600.32 23.635 600.32 34.553 592.19 43.603 581.666 45.06 581.127 43.952 580 43.181 578.684 43.181 576.847 43.181 575.358 44.67 575.358 46.507 575.358 48.344 576.847 49.833 578.684 49.833 580.339 49.833 581.701 48.621 581.957 47.038 593.446 45.439 602.32 35.556 602.32 23.634Z" fill="#292A2E"/><path d="M539.849 23.635C539.849 10.602 529.246 0 516.214 0 503.182 0 492.579 10.603 492.579 23.635L494.579 23.635C494.579 11.705 504.285 2 516.214 2 528.143 2 537.849 11.706 537.849 23.635 537.849 34.553 529.719 43.603 519.195 45.06 518.656 43.952 517.529 43.181 516.213 43.181 514.376 43.181 512.887 44.67 512.887 46.507 512.887 48.344 514.376 49.833 516.213 49.833 517.868 49.833 519.23 48.621 519.486 47.038 530.975 45.439 539.849 35.556 539.849 23.634Z" fill="#292A2E"/><path d="M477.377 23.635C477.377 10.602 466.774 0 453.742 0 440.71 0 430.107 10.603 430.107 23.635L432.107 23.635C432.107 11.705 441.813 2 453.742 2 465.671 2 475.377 11.706 475.377 23.635 475.377 34.553 467.247 43.603 456.723 45.06 456.184 43.952 455.057 43.181 453.741 43.181 451.904 43.181 450.415 44.67 450.415 46.507 450.415 48.344 451.904 49.833 453.741 49.833 455.396 49.833 456.758 48.621 457.014 47.038 468.503 45.439 477.377 35.556 477.377 23.634Z" fill="#292A2E"/><path d="M414.906 23.635C414.906 10.602 404.303 0 391.271 0 378.239 0 367.636 10.603 367.636 23.635L369.636 23.635C369.636 11.705 379.342 2 391.271 2 403.2 2 412.906 11.706 412.906 23.635 412.906 34.553 404.776 43.603 394.252 45.06 393.713 43.952 392.586 43.181 391.27 43.181 389.433 43.181 387.944 44.67 387.944 46.507 387.944 48.344 389.433 49.833 391.27 49.833 392.925 49.833 394.287 48.621 394.543 47.038 406.032 45.439 414.906 35.556 414.906 23.634Z" fill="#292A2E"/><path d="M352.434 23.635C352.434 10.602 341.831 0 328.799 0 315.767 0 305.164 10.603 305.164 23.635L307.164 23.635C307.164 11.705 316.87 2 328.799 2 340.728 2 350.434 11.706 350.434 23.635 350.434 34.553 342.304 43.603 331.78 45.06 331.241 43.952 330.114 43.181 328.798 43.181 326.961 43.181 325.472 44.67 325.472 46.507 325.472 48.344 326.961 49.833 328.798 49.833 330.453 49.833 331.815 48.621 332.071 47.038 343.56 45.439 352.434 35.556 352.434 23.634Z" fill="#292A2E"/><path d="M289.963 23.635C289.963 10.602 279.36 0 266.328 0 253.296 0 242.693 10.603 242.693 23.635L244.693 23.635C244.693 11.705 254.399 2 266.328 2 278.257 2 287.963 11.706 287.963 23.635 287.963 34.553 279.833 43.603 269.309 45.06 268.77 43.952 267.643 43.181 266.327 43.181 264.49 43.181 263.001 44.67 263.001 46.507 263.001 48.344 264.49 49.833 266.327 49.833 267.982 49.833 269.344 48.621 269.6 47.038 281.089 45.439 289.963 35.556 289.963 23.634Z" fill="#292A2E"/></g></g><g><path d="M75.8 724.795C75.544 724.795 75.288 724.697 75.093 724.502 73.684 723.093 71.387 697.243 65.201 620.279 62.67 588.787 60.279 559.041 58.534 540.964 58.409 539.673 57.909 539.523 57.744 539.473 55.356 538.752 48.092 544.48 44.037 549.495 43.69 549.924 43.06 549.992 42.63 549.644 42.201 549.296 42.134 548.667 42.481 548.237 45.163 544.921 53.903 536.228 58.319 537.557 59.21 537.825 60.315 538.599 60.525 540.771 62.271 558.864 64.662 588.618 67.194 620.118 70.953 666.888 75.212 719.874 76.611 723.211 76.893 723.602 76.858 724.15 76.506 724.502 76.311 724.697 76.055 724.795 75.799 724.795Z" fill="#494949"/><ellipse cx="38.203" cy="551.981" rx="38.507" ry="28.398" fill="#0CBC8B" transform="matrix(0.780267 -0.625447 0.625447 0.780267 -336.839 145.181)"/><ellipse cx="38.203" cy="551.981" rx="38.507" ry="28.398" fill="#FFFFFF" opacity="0.2" transform="matrix(0.780267 -0.625447 0.625447 0.780267 -336.839 145.181)"/><path d="M12.81 579.174C12.698 579.174 12.585 579.136 12.491 579.059 12.279 578.883 12.249 578.568 12.426 578.355L59.717 521.326C59.893 521.115 60.208 521.084 60.421 521.261 60.633 521.437 60.663 521.752 60.486 521.965L13.195 578.994C13.096 579.113 12.954 579.175 12.81 579.175Z" fill="#FFFFFF"/><path d="M86.114 712.57C86.005 712.57 85.894 712.552 85.785 712.514 85.264 712.333 84.988 711.763 85.169 711.241L102.933 660.154C103.999 657.089 106.519 654.803 109.674 654.042 112.83 653.279 116.114 654.164 118.462 656.406L127.853 665.377C128.252 665.758 128.267 666.392 127.885 666.791 127.503 667.19 126.87 667.204 126.471 666.823L117.08 657.852C115.227 656.082 112.635 655.383 110.143 655.985 107.653 656.586 105.664 658.39 104.822 660.81L87.058 711.897C86.914 712.31 86.528 712.569 86.114 712.569Z" fill="#494949"/><ellipse cx="130.193" cy="663.463" rx="28.398" ry="38.507" fill="#0CBC8B" transform="matrix(0.784094 -0.620642 0.620642 0.784094 -383.666 224.052)"/><path d="M67.73 721.538C67.278 721.538 66.868 721.229 66.758 720.77L36.947 596.125C36.525 594.358 35.218 593.046 33.453 592.615 31.688 592.186 29.923 592.748 28.735 594.121L19.546 604.74C19.185 605.157 18.552 605.203 18.135 604.842 17.718 604.481 17.672 603.849 18.033 603.431L27.222 592.812C28.887 590.888 31.455 590.068 33.927 590.671 36.398 591.274 38.301 593.185 38.892 595.659L68.703 720.304C68.831 720.841 68.5 721.381 67.963 721.509 67.885 721.528 67.807 721.536 67.73 721.536Z" fill="#494949"/><ellipse cx="28.748" cy="627.591" rx="38.507" ry="28.398" fill="#0CBC8B" transform="matrix(0.170399 -0.985375 0.985375 0.170399 -594.563 548.982)"/><path d="M75.801 724.795C75.76 724.795 75.719 724.793 75.677 724.788 75.129 724.72 74.739 724.221 74.806 723.673L93.842 569.115C94.272 565.629 96.622 562.819 99.977 561.78 103.331 560.741 106.86 561.731 109.184 564.363L130.942 589.006C131.308 589.42 131.268 590.052 130.854 590.418 130.44 590.784 129.808 590.744 129.443 590.331L107.685 565.688C105.888 563.653 103.163 562.889 100.569 563.691 97.976 564.494 96.159 566.666 95.828 569.36L76.792 723.918C76.73 724.425 76.298 724.796 75.801 724.796Z" fill="#494949"/><ellipse cx="119.563" cy="584.063" rx="28.398" ry="38.507" fill="#0CBC8B" transform="matrix(0.484031 -0.875051 0.875051 0.484031 -449.394 405.981)"/><ellipse cx="130.193" cy="663.463" rx="28.398" ry="38.507" fill="#FFFFFF" opacity="0.2" transform="matrix(0.784094 -0.620642 0.620642 0.784094 -383.666 224.052)"/><ellipse cx="28.748" cy="627.591" rx="38.507" ry="28.398" fill="#FFFFFF" opacity="0.5" transform="matrix(0.170399 -0.985375 0.985375 0.170399 -594.563 548.982)"/><ellipse cx="119.563" cy="584.063" rx="28.398" ry="38.507" fill="#FFFFFF" opacity="0.5" transform="matrix(0.484031 -0.875051 0.875051 0.484031 -449.394 405.981)"/><path d="M100.148 855.937 51.451 855.937 43.382 700.133 108.217 700.133 100.148 855.937Z" fill="#292A2E"/><path d="M100.148 855.937 51.451 855.937 43.382 700.133 108.217 700.133 100.148 855.937Z" fill="#FFFFFF" opacity="0.3"/><path d="M154.093 694.157C153.945 694.157 153.799 694.092 153.7 693.968L105.901 633.582C105.73 633.365 105.766 633.051 105.983 632.879 106.201 632.707 106.515 632.745 106.686 632.961L154.485 693.347C154.656 693.564 154.62 693.878 154.403 694.05 154.311 694.123 154.201 694.158 154.093 694.158Z" fill="#FFFFFF"/><path d="M150.08 607.539C149.978 607.539 149.874 607.508 149.786 607.443L88.619 562.78C88.396 562.617 88.347 562.304 88.51 562.081 88.673 561.858 88.986 561.809 89.209 561.972L150.376 606.635C150.599 606.798 150.648 607.111 150.485 607.334 150.387 607.468 150.235 607.539 150.081 607.539Z" fill="#FFFFFF"/><path d="M19.705 664.888C19.662 664.888 19.619 664.883 19.576 664.871 19.309 664.8 19.151 664.526 19.222 664.259L38.694 591.306C38.765 591.039 39.044 590.882 39.306 590.952 39.573 591.023 39.731 591.297 39.66 591.564L20.188 664.517C20.128 664.741 19.926 664.888 19.706 664.888Z" fill="#FFFFFF"/></g><g><g><path d="M547.921 133.441C547.921 133.441 538.13 123.703 538.023 104.361 537.94 89.385 550.187 100.757 550.187 100.757 550.187 100.757 550.232 89.973 557.802 92.08 565.372 94.188 568.172 105.907 568.172 105.907" fill="#0C0C0C"/><path d="M597.521 98.783C597.521 98.783 635.248 108.133 614.3 158.121L610.881 157.884 603.94 157.403" fill="#0C0C0C"/><path d="M549.097 210.074C549.267 210.052 551.153 241.338 587.498 238.611 612.66 236.726 621.631 210.03 622.208 210.03 619.495 209.453 616.142 208.578 614.81 208.278 610.383 207.28 604.857 203.628 603.58 195.933 602.844 191.498 604.093 168.811 603.708 164.324L565.085 172.945C565.625 182.421 569.402 204.39 556.163 208.278 553.96 208.921 551.587 209.512 549.096 210.074Z" id="sk" fill="#FF9E85"/><path d="M564.544 199.3C565.091 197.554 565.417 196.035 565.706 193.305 566.223 188.423 565.948 183.935 565.454 179.362 573.257 178.323 580.748 175.042 586.801 170.01 587.518 172.659 591.462 184.232 590.37 186.749 588.306 191.507 578.606 199.299 564.545 199.299Z" id="sh" fill="#0C0C0C" opacity="0.22"/><path d="M570.321 190.175C585.603 190.889 604.978 183.825 608.046 163.369L610.814 144.911C613.882 124.454 605.624 106.26 586.363 103.372L586.363 103.372C567.102 100.484 550.219 114.908 547.151 135.365L545.926 143.537C545.674 145.219 545.398 148.264 545.388 152.023 545.369 159.522 545.369 170.929 549.33 179.188 553.07 186.985 560.558 189.72 570.321 190.177Z" fill="#FF9E85"/><g><g><circle cx="553.921" cy="146.552" r="2.124" id="e1_eye" fill="#0A0A0A"/><g id="e1_n"><path d="M567.334 163.066C567.764 163.066 568.132 162.741 568.178 162.305 568.227 161.838 567.888 161.42 567.421 161.372L562.922 160.902 565.691 151.916C565.829 151.468 565.577 150.992 565.129 150.854 564.681 150.716 564.206 150.967 564.067 151.416L560.994 161.39C560.919 161.633 560.957 161.896 561.098 162.108 561.239 162.32 561.466 162.458 561.719 162.485L567.246 163.063C567.276 163.066 567.306 163.068 567.335 163.068Z" fill="#0A0A0A"/></g><g id="e1_m"><path d="M568.332 172.686C576.032 172.686 578.323 168.033 578.426 167.815 578.626 167.391 578.444 166.885 578.02 166.684 577.599 166.484 577.094 166.664 576.892 167.085 576.796 167.283 574.445 171.853 565.971 170.84 565.496 170.781 565.082 171.117 565.026 171.583 564.97 172.049 565.303 172.471 565.768 172.527 566.682 172.636 567.536 172.686 568.331 172.686Z" fill="#0A0A0A"/></g><path d="M574.759 138.853C574.555 139.486 576.857 140.432 580.094 141.299 583.331 142.166 586.261 142.792 586.481 141.994 586.759 140.986 584.347 138.613 581.11 137.746 577.873 136.879 575.08 137.858 574.759 138.853Z" id="e1_eb" fill="#0A0A0A"/><circle cx="575.217" cy="147.906" r="2.124" id="e1_eye-2" fill="#0A0A0A"/></g><path d="M548.965 139.297C549.035 139.958 551.523 139.889 554.834 139.368 558.144 138.847 561.076 138.23 560.953 137.412 560.798 136.378 557.975 135.114 554.665 135.635 551.355 136.156 548.855 138.257 548.965 139.297Z" id="e1_eb-2" fill="#0A0A0A"/></g><path d="M605.915 169.422C611.768 170.3 617.452 164.749 618.33 158.896 619.208 153.043 614.947 149.103 609.093 148.225L605.489 151.695 600.882 168.667 605.914 169.422Z" fill="#FF9E85"/><path d="M603.18 159.285C602.19 159.239 601.422 158.406 601.463 157.416 601.731 151.019 602.082 129.484 594.815 126.938 589.122 124.943 573.784 131.305 560.974 126.994 555.37 125.108 549.712 125.784 548.784 128.426 548.416 129.472 546.95 113.515 557.569 103.011 566.024 94.648 589.865 95.226 600.127 99.753 628.542 112.29 610.126 149.667 610.126 149.667L607.819 158.092C607.596 158.905 606.839 159.456 605.997 159.416L603.18 159.284Z" fill="#0C0C0C"/><ellipse cx="570.259" cy="103.212" rx="11.927" ry="8.103" fill="#0C0C0C" transform="matrix(0.335468 -0.942052 0.942052 0.335468 281.724 605.802)"/></g><path d="M842.335 296.812 845.147 294.496C846.935 292.898 847.342 290.126 845.839 288.257 844.237 286.263 841.314 286.041 839.431 287.724L806.061 317.348 815.286 328.282C821.147 335.229 830.637 337.926 839.275 335.098L858.392 328.802C860.428 328.136 861.843 326.148 861.572 324.023 861.31 321.972 842.336 296.812 842.336 296.812Z" fill="#FF9E85"/><path d="M822.39 297.041 730.336 325.566 674.204 230.473 626.246 258.515 697.013 372.883 697.462 373.455C704.852 382.631 717.513 386.573 729.22 382.355L838.947 342.609 822.391 297.042Z" fill="#367CFF"/><g><path d="M878.57 797.459 801.82 801.066 772.218 297.154 848.969 293.548 878.57 797.459Z" fill="#367CFF"/><path d="M878.57 797.459 801.82 801.066 772.218 297.154 848.969 293.548 878.57 797.459Z" fill="#FFFFFF" opacity="0.5"/><rect x="770.871" y="239.802" width="76.835" height="55.58" fill="#262626" transform="matrix(0.998897 -0.0469495 0.0469495 0.998897 -11.669 38.284)"/><path d="M878.573 797.458C878.573 797.458 868.042 815.744 858.552 832.095 851.025 845.063 844.152 856.815 843.708 857.253 843.252 857.709 834.673 846.301 825.399 833.649 814.126 818.279 801.819 801.063 801.819 801.063L878.574 797.457Z" fill="#367CFF"/><path d="M878.573 797.458C878.573 797.458 868.042 815.744 858.552 832.095 851.025 845.063 844.152 856.815 843.708 857.253 843.252 857.709 834.673 846.301 825.399 833.649 814.126 818.279 801.819 801.063 801.819 801.063L878.574 797.457Z" fill="#FFFFFF" opacity="0.9"/><path d="M858.551 832.095C851.024 845.063 844.151 856.815 843.707 857.253 843.251 857.709 834.672 846.301 825.398 833.649L858.551 832.094Z" fill="#262626"/><path d="M854.666 798.436 823.712 294.835 827.214 294.659 858.167 798.259 854.666 798.436Z" fill="#FFFFFF"/><path d="M824.639 799.859 793.685 296.258 797.187 296.082 828.141 799.682 824.639 799.859Z" fill="#FFFFFF"/></g><path d="M837.426 320.309C837.426 317.984 838.992 316.587 840.656 316.032 840.623 315.961 840.493 315.812 840.619 315.762L836.973 315.116C834.769 314.725 833.029 312.812 833.148 310.577 833.271 308.259 835.117 306.559 837.269 306.446 837.244 306.411 837.252 306.362 837.239 306.32L835.741 306.054C833.668 305.686 832.016 303.948 831.986 301.842 831.946 299.009 834.456 296.983 837.101 297.452L840.559 298.065C840.559 298.046 840.543 298.032 840.547 298.013 840.549 297.989 840.576 297.976 840.583 297.953 838.75 297.182 837.622 295.228 837.984 293.188 838.263 290.651 841.259 289.708 843.495 290.104L850.441 291.899C852.619 292.462 854.366 294.077 855.104 296.202 858.247 305.251 865.893 329.083 858.758 327.819L841.192 324.707C839.165 324.348 837.429 322.369 837.429 320.31Z" fill="#FF9E85"/><g><path d="M619.313 795.335C619.313 795.335 631.457 815.845 615.923 831.355 600.389 846.865 615.524 856.778 615.524 856.778L678.193 801.236 650.443 769.926 619.313 795.335Z" fill="#367CFF"/><path d="M512.682 391.045C512.682 391.045 505.625 594.516 506.522 604.445 509.916 642.008 620.46 812.218 620.46 812.218L661.623 777.072 609.06 670.595 575.829 596.404C575.829 596.404 581.549 532.588 596.968 473.331 604.88 442.925 609.581 411.774 611.136 380.393L611.136 380.393C611.136 380.393 512.682 391.044 512.682 391.044Z" fill="#262626"/><path d="M617.286 813.352C617.286 813.352 612.771 836.756 590.858 838.06 568.945 839.364 573.697 856.821 573.697 856.821L657.436 856.821 657.436 814.984C657.436 814.984 617.286 813.352 617.286 813.352Z" fill="#367CFF"/><path d="M663.115 386.422C663.115 386.422 662.852 379.386 662.908 395.346 663.115 454.875 661.132 828.289 661.132 828.289L606.106 827.827 572.773 384.004 663.115 386.423Z" fill="#262626"/><path d="M584.074 535.295 579.561 466.286C579.561 466.286 574.926 494.975 574.926 519.703 574.926 531.79 577.416 579.645 577.416 579.645L584.074 535.295Z" fill="#0A0A0A"/></g><path d="M591.413 631.199 602.859 784.599 592.145 767.362 581.193 608.382 591.413 631.199Z" fill="#0A0A0A"/><path d="M504.709 278.113C505.844 291.445 511.364 374.623 512.455 391.044L662.827 391.044C663.676 376.233 667.491 311.469 670.712 282.505 673.787 254.867 679.82 240.03 675.398 231.859 668.172 218.505 648.426 211.788 634.962 209.965 626.74 208.852 614.375 208.054 614.375 208.054 614.375 208.054 613.328 229.235 588.362 230.413 554.376 232.016 556.646 208.054 556.478 208.054 544.139 208.054 520.787 211.006 511.825 217.1 491.674 230.803 502.3 249.859 504.709 278.112Z" fill="#367CFF"/><g id="ha"><path d="M498.851 412.774C501.57 411.816 502.621 408.707 501.243 406.347L504.14 411.309C505.349 413.38 507.984 414.331 510.116 413.232 512.389 412.06 513.19 409.24 511.917 407.059L513.228 409.305C514.308 411.155 516.549 412.12 518.569 411.408 521.287 410.45 522.339 407.341 520.961 404.981L518.665 401.047C519.898 403.159 522.61 403.872 524.723 402.639L524.723 402.639C527.046 401.48 526.893 398.288 525.729 396.294L521.406 388.243 524.262 390.504C526.201 391.916 528.996 391.73 530.507 389.868 532.119 387.882 531.721 384.978 529.68 383.491L503.697 367.103 484.949 368.422C479.391 375.614 478.752 385.459 483.335 393.308L493.513 410.671C494.593 412.521 496.834 413.486 498.854 412.774Z" id="sk-2" fill="#FF9E85"/><path d="M515.736 396.124C515.718 395.959 515.8 395.792 515.956 395.71 516.16 395.603 516.411 395.682 516.518 395.885L519.381 401.338C519.486 401.541 519.409 401.793 519.206 401.9 519.002 402.007 518.751 401.928 518.644 401.725L515.781 396.272C515.756 396.224 515.741 396.174 515.736 396.124Z" id="sk-3" fill="#FF9E85"/><path d="M508.025 400.184C508.007 400.02 508.088 399.855 508.242 399.772 508.444 399.664 508.697 399.74 508.805 399.943L512.791 407.394C512.898 407.595 512.824 407.848 512.62 407.957 512.418 408.065 512.165 407.989 512.057 407.786L508.071 400.335C508.045 400.287 508.03 400.236 508.024 400.184Z" id="sk-4" fill="#FF9E85"/><path d="M499.649 404.534C499.631 404.367 499.716 404.198 499.875 404.117 500.08 404.014 500.331 404.096 500.434 404.301L502.234 407.864C502.337 408.069 502.255 408.319 502.05 408.423 501.845 408.526 501.594 408.444 501.491 408.239L499.691 404.676C499.668 404.63 499.654 404.582 499.649 404.533Z" id="sk-5" fill="#FF9E85"/><path d="M515.736 396.124C515.718 395.959 515.8 395.792 515.956 395.71 516.16 395.603 516.411 395.682 516.518 395.885L519.381 401.338C519.486 401.541 519.409 401.793 519.206 401.9 519.002 402.007 518.751 401.928 518.644 401.725L515.781 396.272C515.756 396.224 515.741 396.174 515.736 396.124Z" id="sh-2" fill="#0C0C0C" opacity="0.2"/><path d="M508.025 400.184C508.007 400.02 508.088 399.855 508.242 399.772 508.444 399.664 508.697 399.74 508.805 399.943L512.791 407.394C512.898 407.595 512.824 407.848 512.62 407.957 512.418 408.065 512.165 407.989 512.057 407.786L508.071 400.335C508.045 400.287 508.03 400.236 508.024 400.184Z" id="sh-3" fill="#0C0C0C" opacity="0.2"/><path d="M499.649 404.534C499.631 404.367 499.716 404.198 499.875 404.117 500.08 404.014 500.331 404.096 500.434 404.301L502.234 407.864C502.337 408.069 502.255 408.319 502.05 408.423 501.845 408.526 501.594 408.444 501.491 408.239L499.691 404.676C499.668 404.63 499.654 404.582 499.649 404.533Z" id="sh-4" fill="#0C0C0C" opacity="0.2"/></g><path d="M538.435 268.445C538.435 268.445 526.365 211.862 512.674 216.573 501.808 220.312 420.186 287.575 417.71 290.013 406.348 301.196 406.202 319.473 417.386 330.836L480.915 403.526 517.58 369.158 469.368 317.061 538.435 268.445Z" fill="#367CFF"/><path d="M505.54 292.952C505.34 292.952 505.171 292.798 505.155 292.595L503.541 270.224C503.525 270.011 503.684 269.825 503.897 269.81 504.122 269.796 504.296 269.953 504.312 270.166L505.926 292.537C505.942 292.75 505.783 292.936 505.57 292.951 505.559 292.951 505.55 292.952 505.54 292.952Z" fill="#0C0C0C"/><path d="M667.307 327.064C667.297 327.064 667.288 327.064 667.279 327.064 667.066 327.054 666.901 326.872 666.912 326.659L669.581 273.082C669.592 272.868 669.791 272.702 669.986 272.715 670.199 272.725 670.364 272.907 670.353 273.12L667.684 326.697C667.674 326.901 667.507 327.06 667.307 327.064Z" fill="#0C0C0C"/></g><path d="M883.241 858.036 21.772 858.036C21.346 858.036 20.999 857.69 20.999 857.263 20.999 856.836 21.345 856.49 21.772 856.49L883.241 856.49C883.668 856.49 884.014 856.836 884.014 857.263 884.014 857.69 883.668 858.036 883.241 858.036Z" fill="#3F3F3F"/></g></g></svg>