<svg viewBox="0 0 672.307 547.454" xmlns="http://www.w3.org/2000/svg" xmlns:xlink="http://www.w3.org/1999/xlink" id="Layer_1" overflow="hidden"><path d="M644.788 355.972C613.161 276.48 531.411 218.141 512.394 130.687 500.143 39.24 363.914 1.838 289.888 50.158 172.594 126.722 272.271 177.093 42.294 358.238-14.493 402.966 30.027 485.243 58.976 510.784 80.292 529.59 136.861 556.416 186.914 544.51 283.406 521.558 337.252 501.515 380.496 497.5 489.5 487.38 658.283 493.027 644.788 355.972Z" fill="#F4F4F4"/><g><g><path d="M384.571 339.157C383.471 339.67 382.853 339.932 382.846 339.935 382.538 340.065 382.394 340.42 382.524 340.728 382.654 341.036 383.009 341.18 383.317 341.05 383.343 341.039 383.961 340.777 385.084 340.25 385.388 340.108 385.519 339.747 385.378 339.444 385.236 339.14 384.875 339.008 384.571 339.15Z" fill="#292A2E"/><path d="M342.563 158.7C341.296 158.604 340.027 158.513 338.754 158.426 338.42 158.403 338.132 158.655 338.109 158.989 338.086 159.323 338.338 159.611 338.672 159.634 339.939 159.72 341.205 159.811 342.472 159.908L342.519 159.908C342.853 159.916 343.13 159.652 343.138 159.317 343.146 158.99 342.892 158.716 342.565 158.699Z" fill="#292A2E"/><path d="M257.136 153.684C255.883 153.441 254.636 153.177 253.436 152.901 253.11 152.826 252.786 153.029 252.711 153.355 252.636 153.681 252.839 154.005 253.165 154.08 254.381 154.36 255.64 154.626 256.908 154.873 256.946 154.88 256.985 154.884 257.024 154.884 257.359 154.881 257.627 154.607 257.624 154.272 257.621 153.986 257.419 153.741 257.138 153.684Z" fill="#292A2E"/><path d="M275.929 155.917 275.838 155.917C274.597 155.853 273.356 155.774 272.147 155.681 271.814 155.656 271.523 155.905 271.497 156.238 271.472 156.572 271.722 156.863 272.055 156.888 273.273 156.981 274.525 157.061 275.77 157.126L275.87 157.126 275.9 157.126C276.234 157.134 276.511 156.87 276.52 156.536 276.527 156.201 276.263 155.924 275.929 155.916Z" fill="#292A2E"/><path d="M247.938 151.487C246.718 151.137 245.502 150.762 244.324 150.374 244.006 150.269 243.664 150.442 243.56 150.759 243.455 151.077 243.627 151.419 243.945 151.524 245.138 151.917 246.369 152.296 247.604 152.65 247.925 152.742 248.26 152.557 248.353 152.235 248.445 151.914 248.259 151.579 247.938 151.487Z" fill="#292A2E"/><path d="M285.433 156.328C284.152 156.281 282.885 156.231 281.633 156.18 281.306 156.16 281.024 156.409 281.004 156.737 281.003 156.744 281.003 156.752 281.003 156.759 280.989 157.093 281.249 157.375 281.583 157.389 282.838 157.442 284.107 157.491 285.392 157.538L285.415 157.538C285.749 157.544 286.025 157.278 286.031 156.943 286.036 156.609 285.77 156.334 285.436 156.328Z" fill="#292A2E"/><path d="M239 148.432C237.825 147.96 236.657 147.459 235.528 146.944 235.217 146.822 234.866 146.975 234.744 147.286 234.631 147.574 234.754 147.901 235.028 148.044 236.173 148.567 237.359 149.075 238.551 149.554 238.623 149.583 238.7 149.598 238.777 149.598 239.111 149.599 239.382 149.328 239.383 148.994 239.383 148.746 239.232 148.523 239.002 148.431Z" fill="#292A2E"/><path d="M266.491 155.13C265.238 154.983 263.974 154.817 262.735 154.636 262.404 154.588 262.096 154.817 262.047 155.148 261.999 155.48 262.229 155.788 262.56 155.836 263.811 156.02 265.086 156.187 266.35 156.336 266.374 156.337 266.397 156.337 266.421 156.336 266.755 156.336 267.026 156.066 267.027 155.732 267.027 155.424 266.796 155.165 266.491 155.13Z" fill="#292A2E"/><path d="M333.035 158.068C331.765 157.995 330.496 157.926 329.228 157.86 328.894 157.843 328.61 158.1 328.592 158.434 328.575 158.767 328.832 159.052 329.166 159.069 330.433 159.136 331.699 159.205 332.966 159.277L333 159.277C333.334 159.286 333.613 159.023 333.622 158.689 333.631 158.355 333.368 158.076 333.034 158.067Z" fill="#292A2E"/><path d="M323.515 157.588C322.243 157.532 320.974 157.479 319.707 157.43L319.683 157.43C319.349 157.423 319.073 157.689 319.066 158.023 319.059 158.357 319.325 158.633 319.659 158.64 320.926 158.69 322.192 158.743 323.459 158.799L323.486 158.799C323.82 158.806 324.097 158.541 324.104 158.207 324.111 157.873 323.846 157.596 323.512 157.589Z" fill="#292A2E"/><path d="M313.993 157.219C312.718 157.175 311.449 157.133 310.184 157.093 309.85 157.083 309.57 157.345 309.56 157.679 309.549 158.013 309.812 158.293 310.146 158.303 311.409 158.343 312.677 158.385 313.951 158.429L313.972 158.429C314.306 158.435 314.582 158.169 314.587 157.835 314.593 157.5 314.327 157.225 313.993 157.219Z" fill="#292A2E"/><path d="M230.47 144.405C229.362 143.795 228.27 143.153 227.217 142.498 226.934 142.321 226.561 142.407 226.383 142.691 226.206 142.974 226.293 143.347 226.576 143.524 227.645 144.192 228.758 144.845 229.885 145.465 230.178 145.627 230.546 145.52 230.707 145.227 230.869 144.935 230.763 144.567 230.47 144.405Z" fill="#292A2E"/><path d="M294.949 156.639 291.142 156.521C290.811 156.52 290.538 156.777 290.518 157.107 290.508 157.441 290.77 157.721 291.104 157.732 292.364 157.772 293.634 157.811 294.914 157.849L294.932 157.849C295.266 157.854 295.541 157.587 295.546 157.253 295.55 156.918 295.283 156.644 294.949 156.639Z" fill="#292A2E"/><path d="M212.419 72.388C213.087 71.34 213.798 70.288 214.531 69.259 214.734 68.9937 214.684 68.614 214.418 68.4108 214.153 68.2077 213.773 68.2581 213.57 68.5234 213.561 68.535 213.553 68.5468 213.545 68.559 212.8 69.604 212.078 70.674 211.399 71.739 211.219 72.0207 211.302 72.3947 211.583 72.5745 211.865 72.7543 212.239 72.6717 212.419 72.39Z" fill="#292A2E"/><path d="M202.506 99.325 202.551 99.325C202.868 99.3257 203.13 99.08 203.151 98.764 203.242 97.531 203.384 96.274 203.573 95.029 203.623 94.6976 203.395 94.3883 203.064 94.338 202.733 94.2877 202.423 94.5156 202.373 94.847 202.179 96.123 202.034 97.411 201.941 98.675 201.915 99.0082 202.165 99.2989 202.498 99.3244 202.501 99.3247 202.503 99.3248 202.506 99.325Z" fill="#292A2E"/><path d="M203.426 108.132C203.261 106.905 203.145 105.649 203.083 104.396 203.066 104.062 202.782 103.805 202.448 103.822 202.115 103.838 201.857 104.122 201.874 104.456 201.938 105.743 202.056 107.034 202.226 108.294 202.267 108.594 202.523 108.817 202.826 108.818 202.853 108.819 202.881 108.819 202.908 108.818 203.24 108.773 203.472 108.467 203.427 108.136 203.426 108.134 203.426 108.133 203.426 108.132Z" fill="#292A2E"/><path d="M205.451 85.143C205.135 85.035 204.791 85.2038 204.683 85.52 204.266 86.741 203.889 87.979 203.562 89.2 203.476 89.5231 203.668 89.8548 203.991 89.941 204.314 90.0272 204.646 89.8351 204.732 89.512 205.051 88.318 205.42 87.107 205.832 85.912 205.94 85.5957 205.771 85.252 205.454 85.1442 205.453 85.1438 205.452 85.1434 205.451 85.143Z" fill="#292A2E"/><path d="M204.536 113.645C204.449 113.322 204.116 113.131 203.794 113.218 203.471 113.306 203.28 113.638 203.367 113.961 203.7 115.195 204.093 116.432 204.533 117.637 204.648 117.951 204.995 118.113 205.309 117.998 205.623 117.883 205.785 117.536 205.67 117.222 205.241 116.05 204.86 114.846 204.536 113.645Z" fill="#292A2E"/><path d="M452.423 236.343C452.623 237.585 452.805 238.843 452.952 240.085 452.986 240.39 453.245 240.621 453.552 240.619 453.576 240.62 453.6 240.62 453.624 240.619 453.956 240.579 454.193 240.278 454.154 239.946 454.005 238.688 453.824 237.411 453.617 236.146 453.562 235.816 453.25 235.594 452.92 235.649 452.59 235.704 452.368 236.016 452.423 236.346Z" fill="#292A2E"/><path d="M451.327 230.78C451.39 231.055 451.635 231.25 451.917 231.25 451.963 231.25 452.008 231.245 452.053 231.234 452.377 231.162 452.581 230.842 452.509 230.519 452.508 230.515 452.508 230.512 452.507 230.509 452.226 229.284 451.907 228.034 451.575 226.794 451.487 226.471 451.155 226.281 450.832 226.369 450.509 226.457 450.319 226.789 450.407 227.112 450.74 228.336 451.049 229.57 451.327 230.78Z" fill="#292A2E"/><path d="M207.114 80.963C207.415 81.1022 207.771 80.9713 207.911 80.6706 207.912 80.6681 207.913 80.6655 207.914 80.663 208.424 79.538 208.982 78.399 209.573 77.278 209.729 76.9823 209.615 76.6162 209.32 76.4605 209.024 76.3048 208.658 76.4183 208.502 76.714 207.902 77.856 207.332 79.014 206.812 80.164 206.674 80.4651 206.806 80.8214 207.107 80.9597 207.109 80.9608 207.112 80.9619 207.114 80.963Z" fill="#292A2E"/><path d="M213.081 130.205C212.871 129.945 212.49 129.905 212.23 130.115 211.97 130.325 211.93 130.706 212.14 130.966 212.94 131.949 213.787 132.924 214.671 133.866 214.9 134.109 215.283 134.121 215.526 133.892 215.769 133.663 215.781 133.28 215.552 133.037 214.689 132.117 213.857 131.165 213.081 130.205Z" fill="#292A2E"/><path d="M220.412 61.054C220.164 60.8301 219.781 60.8494 219.557 61.097 218.696 62.051 217.857 63.026 217.051 63.997 216.838 64.2546 216.874 64.6361 217.132 64.849 217.39 65.0619 217.771 65.0256 217.984 64.768 218.774 63.811 219.606 62.849 220.455 61.909 220.679 61.6652 220.664 61.2856 220.42 61.0612 220.417 61.0588 220.415 61.0564 220.412 61.054Z" fill="#292A2E"/><path d="M222.559 139.3C221.551 138.538 220.566 137.743 219.63 136.935 219.368 136.727 218.987 136.77 218.779 137.032 218.582 137.28 218.608 137.636 218.839 137.852 219.795 138.677 220.801 139.489 221.829 140.266 222.096 140.468 222.475 140.415 222.677 140.148 222.879 139.881 222.826 139.502 222.559 139.3Z" fill="#292A2E"/><path d="M207.937 122.371C207.783 122.074 207.418 121.958 207.121 122.112 206.824 122.266 206.708 122.631 206.862 122.928 207.449 124.059 208.094 125.184 208.778 126.271 208.956 126.554 209.33 126.639 209.613 126.461 209.895 126.282 209.98 125.909 209.802 125.626 209.136 124.567 208.508 123.472 207.937 122.371Z" fill="#292A2E"/><path d="M352.057 159.534C350.794 159.408 349.529 159.288 348.264 159.175 347.931 159.145 347.637 159.391 347.607 159.724 347.577 160.057 347.823 160.351 348.156 160.381 349.418 160.494 350.678 160.613 351.936 160.739L351.997 160.739C352.332 160.734 352.599 160.459 352.594 160.124 352.59 159.82 352.36 159.566 352.057 159.531Z" fill="#292A2E"/><path d="M227.188 54.379C226.964 54.1311 226.581 54.1114 226.333 54.335 225.383 55.194 224.444 56.076 223.542 56.958 223.303 57.1916 223.298 57.5749 223.532 57.814 223.766 58.0531 224.149 58.0576 224.388 57.824 225.279 56.953 226.206 56.082 227.144 55.233 227.392 55.013 227.414 54.6338 227.194 54.386 227.192 54.3836 227.19 54.3813 227.188 54.379Z" fill="#292A2E"/><path d="M304.47 156.918 300.662 156.807C300.328 156.797 300.049 157.06 300.039 157.395 300.03 157.729 300.293 158.007 300.627 158.017L304.434 158.128 304.452 158.128C304.786 158.133 305.061 157.866 305.066 157.532 305.071 157.198 304.804 156.923 304.47 156.918Z" fill="#292A2E"/><path d="M445.942 213.209C446.277 213.208 446.547 212.936 446.546 212.601 446.546 212.52 446.529 212.439 446.497 212.364 445.997 211.202 445.471 210.028 444.931 208.875 444.79 208.571 444.429 208.44 444.125 208.581 443.821 208.722 443.69 209.083 443.831 209.387 444.365 210.53 444.886 211.692 445.381 212.843 445.477 213.067 445.698 213.211 445.942 213.209Z" fill="#292A2E"/><path d="M442.427 290.472C442.146 290.297 441.776 290.382 441.6 290.663 441.599 290.666 441.597 290.669 441.595 290.672 440.94 291.741 440.254 292.812 439.555 293.857 439.379 294.142 439.468 294.515 439.753 294.691 440.023 294.858 440.376 294.787 440.562 294.53 441.269 293.472 441.962 292.387 442.627 291.304 442.802 291.023 442.717 290.653 442.436 290.477 442.433 290.475 442.43 290.474 442.427 290.472Z" fill="#292A2E"/><path d="M430.233 305.773C429.395 306.702 428.525 307.634 427.65 308.545 427.418 308.786 427.426 309.169 427.667 309.401 427.907 309.632 428.29 309.625 428.522 309.384 429.407 308.465 430.285 307.522 431.132 306.584 431.356 306.335 431.336 305.952 431.087 305.729 430.839 305.505 430.456 305.524 430.232 305.773Z" fill="#292A2E"/><path d="M441.318 204.291C441.472 204.588 441.838 204.703 442.134 204.549 442.431 204.394 442.546 204.029 442.392 203.732 441.81 202.615 441.202 201.482 440.582 200.366 440.42 200.074 440.052 199.968 439.759 200.13 439.467 200.293 439.362 200.661 439.524 200.953 440.138 202.06 440.742 203.183 441.318 204.291Z" fill="#292A2E"/><path d="M428.726 185.391C428.477 185.167 428.094 185.187 427.871 185.436 427.647 185.684 427.666 186.067 427.915 186.291 428.852 187.138 429.765 188.015 430.626 188.898 430.859 189.137 431.242 189.142 431.482 188.908 431.721 188.675 431.725 188.292 431.492 188.053 430.613 187.151 429.683 186.256 428.726 185.391Z" fill="#292A2E"/><path d="M437.113 298.363C436.846 298.162 436.467 298.215 436.265 298.481 435.515 299.475 434.729 300.481 433.93 301.46 433.719 301.719 433.758 302.101 434.017 302.311 434.277 302.522 434.658 302.483 434.869 302.224 435.677 301.23 436.469 300.216 437.231 299.211 437.433 298.948 437.384 298.572 437.122 298.37 437.119 298.367 437.116 298.365 437.113 298.363Z" fill="#292A2E"/><path d="M435.3 192.366C435.092 192.104 434.711 192.061 434.449 192.268 434.188 192.476 434.144 192.857 434.352 193.119 435.131 194.1 435.883 195.119 436.587 196.144 436.776 196.42 437.153 196.491 437.43 196.301 437.706 196.112 437.776 195.735 437.587 195.459 436.861 194.41 436.091 193.369 435.3 192.366Z" fill="#292A2E"/><path d="M453.963 254.605C453.633 254.578 453.343 254.823 453.316 255.154 453.315 255.157 453.315 255.161 453.315 255.164 453.223 256.417 453.098 257.68 452.945 258.918 452.901 259.246 453.132 259.548 453.461 259.592 453.464 259.592 453.468 259.593 453.471 259.593 453.496 259.594 453.521 259.594 453.546 259.593 453.851 259.593 454.108 259.366 454.146 259.063 454.302 257.805 454.429 256.521 454.522 255.248 454.546 254.918 454.298 254.63 453.968 254.605 453.966 254.605 453.965 254.605 453.963 254.605Z" fill="#292A2E"/><path d="M454.634 245.672C454.624 245.346 454.352 245.089 454.026 245.099 454.017 245.099 454.009 245.099 454 245.1 453.669 245.114 453.412 245.393 453.426 245.724 453.426 245.728 453.426 245.731 453.426 245.734 453.487 246.992 453.518 248.262 453.519 249.51 453.519 249.844 453.79 250.115 454.124 250.115 454.458 250.115 454.729 249.844 454.729 249.51 454.729 248.239 454.7 246.949 454.634 245.672Z" fill="#292A2E"/><path d="M452.751 264.028C452.427 263.96 452.108 264.167 452.04 264.491 452.039 264.495 452.039 264.498 452.038 264.502 451.792 265.726 451.51 266.963 451.201 268.18 451.119 268.504 451.315 268.834 451.639 268.916 451.688 268.929 451.738 268.935 451.788 268.935 452.065 268.934 452.307 268.746 452.375 268.478 452.688 267.242 452.975 265.984 453.225 264.74 453.293 264.416 453.085 264.098 452.76 264.03 452.757 264.029 452.754 264.029 452.751 264.028Z" fill="#292A2E"/><path d="M449.336 222.1C449.401 222.1 449.466 222.089 449.528 222.068 449.843 221.965 450.015 221.627 449.913 221.312 449.912 221.309 449.911 221.306 449.91 221.303 449.51 220.11 449.084 218.896 448.636 217.694 448.519 217.381 448.171 217.222 447.857 217.339 447.544 217.455 447.385 217.804 447.502 218.117 447.945 219.306 448.369 220.506 448.762 221.686 448.845 221.933 449.076 222.099 449.336 222.1Z" fill="#292A2E"/><path d="M446.891 282.074C446.589 281.931 446.228 282.061 446.086 282.363 446.085 282.363 446.085 282.364 446.085 282.364 445.553 283.493 444.985 284.631 444.398 285.744 444.242 286.04 444.356 286.406 444.651 286.562 444.946 286.718 445.312 286.605 445.469 286.31 445.469 286.31 445.469 286.309 445.469 286.309 446.069 285.179 446.64 284.026 447.18 282.88 447.323 282.578 447.194 282.217 446.892 282.074 446.892 282.074 446.891 282.074 446.891 282.074Z" fill="#292A2E"/><path d="M450.371 273.228C450.058 273.12 449.716 273.287 449.608 273.6 449.607 273.603 449.606 273.607 449.605 273.61 449.205 274.791 448.779 275.985 448.322 277.16 448.201 277.471 448.355 277.822 448.667 277.944 448.978 278.065 449.329 277.91 449.45 277.599 449.914 276.406 450.35 275.193 450.75 273.999 450.859 273.683 450.692 273.339 450.376 273.23 450.374 273.229 450.373 273.229 450.371 273.228Z" fill="#292A2E"/><path d="M361.522 160.613C360.263 160.451 359 160.296 357.734 160.148 357.4 160.128 357.114 160.382 357.093 160.715 357.075 161.023 357.29 161.295 357.594 161.348 358.855 161.496 360.113 161.651 361.367 161.812 361.393 161.813 361.419 161.813 361.445 161.812 361.779 161.816 362.054 161.549 362.058 161.215 362.062 160.905 361.83 160.641 361.522 160.606Z" fill="#292A2E"/><path d="M393 334.819C391.888 335.439 390.763 336.047 389.658 336.627 389.362 336.782 389.248 337.148 389.404 337.445 389.559 337.741 389.925 337.854 390.221 337.699 391.334 337.114 392.468 336.499 393.589 335.876 393.881 335.713 393.986 335.345 393.823 335.053 393.66 334.761 393.292 334.656 393 334.819Z" fill="#292A2E"/><path d="M398.589 169.934C398.923 169.937 399.197 169.669 399.2 169.335 399.202 169.073 399.037 168.84 398.789 168.756 397.602 168.35 396.379 167.951 395.153 167.57 394.837 167.461 394.492 167.629 394.383 167.945 394.274 168.262 394.442 168.607 394.758 168.716 394.77 168.72 394.782 168.724 394.794 168.727 396.009 169.104 397.222 169.499 398.394 169.901 398.457 169.923 398.523 169.934 398.589 169.934Z" fill="#292A2E"/><path d="M390.066 166.72C390.155 166.401 389.967 166.07 389.648 165.981 389.645 165.981 389.642 165.98 389.639 165.979 388.425 165.653 387.179 165.334 385.939 165.031 385.614 164.952 385.287 165.151 385.207 165.476 385.128 165.8 385.327 166.128 385.652 166.207 386.886 166.507 388.123 166.825 389.328 167.148 389.647 167.236 389.978 167.049 390.066 166.73 390.067 166.727 390.068 166.723 390.069 166.72Z" fill="#292A2E"/><path d="M380.348 163.76C379.123 163.501 377.863 163.247 376.604 163.006 376.276 162.943 375.958 163.158 375.896 163.486 375.833 163.815 376.048 164.132 376.376 164.195 377.628 164.435 378.876 164.687 380.098 164.944 380.425 165.013 380.746 164.804 380.815 164.477 380.884 164.15 380.675 163.829 380.348 163.76Z" fill="#292A2E"/><path d="M401.152 329.956C400.093 330.631 399.007 331.304 397.925 331.956 397.639 332.129 397.547 332.5 397.72 332.787 397.829 332.968 398.026 333.079 398.239 333.079 398.349 333.079 398.457 333.048 398.551 332.991 399.642 332.332 400.735 331.653 401.802 330.974 402.084 330.794 402.167 330.42 401.987 330.138 401.808 329.857 401.434 329.773 401.152 329.953Z" fill="#292A2E"/><path d="M370.964 162C369.738 161.8 368.464 161.6 367.193 161.405 366.862 161.355 366.553 161.584 366.503 161.915 366.453 162.246 366.682 162.555 367.013 162.605 368.283 162.796 369.546 162.995 370.766 163.197 370.799 163.203 370.832 163.206 370.866 163.206 371.201 163.196 371.463 162.916 371.453 162.582 371.444 162.3 371.243 162.061 370.966 162.006Z" fill="#292A2E"/><path d="M416.511 318.828C415.542 319.628 414.547 320.428 413.553 321.204 413.29 321.41 413.243 321.79 413.45 322.053 413.656 322.317 414.036 322.363 414.299 322.157 415.299 321.373 416.299 320.567 417.281 319.762 417.539 319.549 417.576 319.168 417.363 318.91 417.15 318.652 416.769 318.615 416.511 318.828Z" fill="#292A2E"/><path d="M423.614 312.55C422.714 313.41 421.771 314.275 420.827 315.12 420.588 315.354 420.584 315.737 420.818 315.976 421.038 316.199 421.392 316.219 421.634 316.02 422.587 315.167 423.534 314.294 424.448 313.426 424.69 313.196 424.7 312.812 424.47 312.57 424.24 312.328 423.856 312.318 423.614 312.548Z" fill="#292A2E"/><path d="M423.921 182.821C424.252 182.829 424.528 182.568 424.536 182.236 424.541 182.037 424.447 181.849 424.285 181.733 423.285 180.978 422.23 180.233 421.158 179.511 420.897 179.302 420.516 179.344 420.308 179.605 420.099 179.866 420.141 180.247 420.402 180.456 420.428 180.476 420.455 180.495 420.484 180.511 421.538 181.218 422.572 181.953 423.557 182.695 423.661 182.776 423.789 182.82 423.921 182.821Z" fill="#292A2E"/><path d="M409 324.625C407.99 325.356 406.946 326.092 405.9 326.813 405.624 327.002 405.554 327.38 405.743 327.656 405.932 327.932 406.31 328.002 406.586 327.813 407.642 327.087 408.694 326.345 409.712 325.613 409.983 325.417 410.043 325.039 409.847 324.768 409.651 324.497 409.273 324.437 409.002 324.633Z" fill="#292A2E"/><path d="M415.967 177.622C416.302 177.621 416.573 177.35 416.572 177.015 416.572 176.798 416.455 176.598 416.267 176.49 415.18 175.872 414.045 175.26 412.895 174.671 412.597 174.519 412.233 174.637 412.08 174.935 411.928 175.232 412.046 175.597 412.344 175.749 413.478 176.329 414.597 176.933 415.669 177.543 415.76 177.595 415.863 177.622 415.967 177.622Z" fill="#292A2E"/><path d="M407.46 173.372C407.791 173.387 408.072 173.131 408.087 172.8 408.099 172.543 407.945 172.306 407.704 172.213 406.559 171.713 405.37 171.213 404.171 170.739 403.856 170.625 403.509 170.787 403.394 171.102 403.285 171.403 403.429 171.738 403.724 171.865 404.911 172.335 406.086 172.825 407.218 173.321 407.294 173.355 407.377 173.372 407.46 173.372Z" fill="#292A2E"/><path d="M232.243 49.372C231.734 49.772 231.231 50.172 230.734 50.572 230.474 50.7821 230.434 51.1631 230.644 51.423 230.854 51.6828 231.235 51.7231 231.495 51.513 231.987 51.113 232.485 50.7173 232.988 50.326 233.251 50.1203 233.298 49.7399 233.093 49.4765 232.887 49.2131 232.506 49.1663 232.243 49.372Z" fill="#292A2E"/></g><g><path d="M229.48 31.896 232.117 51.238 298.937 5.519 229.48 31.896Z" fill="#0CBC8B"/><path d="M229.48 31.896 232.117 51.238 298.937 5.519 229.48 31.896Z" fill="#0A0A0A" opacity="0.2"/><path d="M233.876 37.171 232.117 51.238 283.112 15.191 233.876 37.171Z" fill="#0CBC8B"/><path d="M233.876 37.171 232.117 51.238 283.112 15.191 233.876 37.171Z" fill="#0A0A0A" opacity="0.1"/><path d="M221.567 22.224 298.937 5.519 249.701 59.151 233.876 37.171 298.937 5.519 229.48 31.896 221.567 22.224Z" fill="#0CBC8B"/></g></g><g><path d="M644.424 90.088C644.387 139.875 603.996 180.206 554.209 180.169 543.449 180.161 532.778 178.227 522.7 174.458 516.307 172.065 510.21 168.945 504.531 165.158 493.676 157.945 484.507 148.472 477.651 137.388L477.651 137.378C451.533 95.0288 464.691 39.5254 507.041 13.4076 549.39-12.7102 604.893 0.447932 631.011 42.7971 639.778 57.0129 644.421 73.3861 644.421 90.088Z" fill="#FFFFFF"/><path d="M644.424 90.088C644.387 139.875 603.996 180.206 554.209 180.169 543.449 180.161 532.778 178.227 522.7 174.458 516.307 172.065 510.21 168.945 504.531 165.158 493.676 157.945 484.507 148.472 477.651 137.388L477.651 137.378C451.533 95.0288 464.691 39.5254 507.041 13.4076 549.39-12.7102 604.893 0.447932 631.011 42.7971 639.778 57.0129 644.421 73.3861 644.421 90.088Z" fill="#367CFF" opacity="0.2"/><g><path d="M539.306 35.813C539.306 35.813 532.694 31.033 530.848 19.755 529.419 11.022 537.614 16.53 537.614 16.53 537.614 16.53 536.647 10.23 541.259 10.764 545.871 11.298 548.585 17.877 548.585 17.877" fill="#0C0C0C"/><path d="M565.055 11.014C565.055 11.014 587.934 12.992 580.318 44.096L578.301 44.273 574.201 44.632" fill="#0C0C0C"/><g><path d="M543.392 76.693C543.492 76.68 544.607 95.165 566.08 93.553 580.946 92.439 586.247 76.667 586.588 76.667 584.889 76.3846 583.213 75.9781 581.574 75.451 579.233 74.193 576.337 72.884 575.582 68.339 575.147 65.718 575.882 52.314 575.658 49.663L552.839 54.757C553.157 60.357 555.389 73.335 547.567 75.632 546.266 76.012 544.864 76.361 543.392 76.693Z" id="sk" fill="#E98862"/><path d="M552.519 70.328C552.876 69.1759 553.106 67.9881 553.205 66.786 553.456 64.0428 553.406 61.2803 553.056 58.548 557.694 57.9226 562.064 56.0084 565.668 53.023 566.092 54.588 568.422 61.423 567.777 62.913 566.557 65.724 560.826 70.328 552.519 70.328Z" id="sh" fill="#0C0C0C"/><path d="M557.609 66.856C566.593 65.864 577.248 59.956 577.152 47.735L577.066 36.708C576.966 24.487 570.473 14.63 558.966 14.721L558.966 14.721C547.459 14.811 538.936 24.785 539.032 37.006L539.071 41.888C539.113 43.5634 539.269 45.234 539.539 46.888 540.22 51.266 541.271 57.923 544.344 62.377 547.247 66.584 551.869 67.49 557.609 66.856Z" fill="#E98862"/><circle cx="542.952" cy="42.741" r="1.417" fill="#0C0C0C"/><circle cx="555.923" cy="41.693" r="1.417" fill="#0C0C0C"/><path d="M576.467 51.463C579.967 51.436 582.767 47.673 582.742 44.176 582.717 40.679 579.864 38.776 576.367 38.8L574.584 41.158 573.46 51.487Z" fill="#E98862"/></g><path d="M572.873 45.917C572.873 45.917 571.337 28.654 566.073 27.694 562.567 27.055 554.202 32.181 546.329 30.847 542.885 30.263 539.646 31.179 539.348 32.807 539.23 33.451 536.903 24.274 542.131 17.165 546.294 11.505 560.26 9.644 566.667 11.34 584.405 16.04 577.104 39.547 577.104 39.547L576.44 45.523Z" fill="#0C0C0C"/><g><path d="M550.8 52.05 550.778 52.05C549.651 52.062 547.76 51.956 547.75 51.113 547.743 50.413 549.576 42.855 549.785 41.996 549.822 41.8419 549.977 41.7472 550.131 41.7845 550.286 41.8218 550.38 41.9769 550.343 42.131 549.528 45.479 548.319 50.631 548.324 51.107 549.098 51.4268 549.937 51.5535 550.771 51.476 550.929 51.4728 551.061 51.5987 551.064 51.7572 551.067 51.9089 550.951 52.0367 550.8 52.049Z" fill="#0C0C0C"/></g><path d="M546.79 35.051C545.614 34.7511 544.379 34.7736 543.215 35.116 542.642 35.2803 542.097 35.5301 541.598 35.857 541.104 36.1775 540.652 36.5592 540.254 36.993 540.11 37.133 540.106 37.3636 540.246 37.508 540.386 37.6524 540.617 37.656 540.761 37.516L540.782 37.497C541.155 37.1334 541.572 36.8183 542.024 36.559 542.468 36.3016 542.949 36.1131 543.45 36 544.441 35.7654 545.476 35.7975 546.45 36.093L546.487 36.105C546.775 36.1981 547.084 36.04 547.177 35.752 547.27 35.464 547.112 35.1551 546.824 35.062Z" fill="#0C0C0C"/><path d="M555.176 35.443C556.083 34.9839 557.094 34.7728 558.109 34.831 558.621 34.8547 559.127 34.9558 559.609 35.131 560.099 35.3076 560.564 35.5455 560.994 35.839L561.018 35.854C561.195 35.9498 561.417 35.8838 561.513 35.7064 561.595 35.5544 561.559 35.3655 561.427 35.254 560.959 34.8965 560.448 34.5991 559.906 34.369 559.358 34.1345 558.777 33.9834 558.184 33.921 556.978 33.7864 555.758 33.9792 554.652 34.479 554.378 34.6058 554.258 34.931 554.385 35.2055 554.511 35.48 554.837 35.5998 555.111 35.473L555.137 35.461Z" fill="#0C0C0C"/><ellipse cx="549.554" cy="16.113" rx="7.047" ry="4.787" fill="#0C0C0C" transform="matrix(0.184346 -0.982861 0.982861 0.184346 432.412 553.279)"/><path d="M615.834 120.148C614.943 129.648 614.323 144.668 613.924 157.648 588.946 179.65 553.883 186.112 522.703 174.458 522.214 166.348 521.443 153.768 520.724 142.388 520.003 131.028 519.334 120.858 519.054 117.518 517.924 104.258 514.054 95.538 516.434 88.188 517.147 86.0133 518.351 84.032 519.953 82.398 525.924 76.088 541.323 75.628 547.513 75.628 547.623 75.628 546.263 89.958 566.584 88.998 581.513 88.298 582.144 75.628 582.144 75.628 582.144 75.628 589.534 76.108 594.453 76.768 602.503 77.858 607.813 80.588 612.034 84.808 615.964 88.748 618.364 93 615.834 120.148Z" fill="#367CFF"/><path d="M547.894 103.568 520.724 142.378 520.724 142.388 506.184 163.148C505.683 163.857 505.131 164.528 504.534 165.158 493.679 157.945 484.51 148.472 477.654 137.388L477.654 137.378 488.654 84.798 514.954 90.298 516.435 88.188 516.435 88.178 519.555 83.728Z" fill="#367CFF"/><rect x="490.627" y="134.094" width="31.333" height="0.494" fill="#0C0C0C" transform="matrix(0.158227 -0.987403 0.987403 0.158227 293.539 613.002)"/><g><path d="M519.961 81.113C520.74 80.1655 520.603 78.7659 519.656 77.9869 519.625 77.9614 519.593 77.9368 519.561 77.913 518.561 77.2246 517.198 77.4321 516.448 78.387L515.354 79.83 518.554 66.885C518.898 65.7775 518.28 64.6006 517.172 64.2562 516.065 63.9119 514.888 64.5306 514.543 65.6382 514.519 65.7169 514.499 65.797 514.484 65.878L513.151 71.269C513.137 71.2607 513.123 71.254 513.108 71.249 513.155 70.0553 512.251 69.0376 511.06 68.944 509.98 68.8825 509.005 69.5898 508.729 70.636L508.523 71.363C508.498 71.367 508.473 71.3758 508.451 71.389 508.502 70.3133 507.774 69.3559 506.724 69.118 505.532 68.8925 504.369 69.6283 504.062 70.802L503.555 72.594C503.517 72.4903 503.402 72.4371 503.298 72.4751 503.298 72.4754 503.297 72.4757 503.296 72.476 503.083 71.5284 502.277 70.83 501.309 70.753 500.229 70.691 499.254 71.3979 498.978 72.444L496.211 82.156C494.969 86.5442 496.514 91.2472 500.116 94.044L505.785 98.444Z" fill="#E98862"/><g opacity="0.2"><path d="M511.6 76.719C511.596 76.6949 511.596 76.6701 511.6 76.646L512.834 71.395C512.86 71.2829 512.972 71.2133 513.084 71.2395 513.197 71.2657 513.266 71.3779 513.24 71.49L512.006 76.742C511.978 76.854 511.865 76.9222 511.753 76.8943 511.669 76.8736 511.607 76.8041 511.596 76.719Z" fill="#0C0C0C"/><path d="M507.348 75.714C507.344 75.6892 507.344 75.6638 507.348 75.639L508.348 71.519C508.376 71.4069 508.489 71.3384 508.601 71.366 508.713 71.3936 508.782 71.5069 508.754 71.619L507.754 75.739C507.726 75.851 507.612 75.919 507.5 75.8909 507.417 75.87 507.355 75.8002 507.344 75.715Z" fill="#0C0C0C"/><path d="M502.732 74.65C502.729 74.6271 502.729 74.6039 502.732 74.581L503.159 72.624C503.189 72.5124 503.303 72.4459 503.415 72.4755 503.519 72.5032 503.585 72.6063 503.567 72.713L503.14 74.67C503.116 74.7829 503.005 74.8548 502.892 74.8306 502.804 74.8118 502.738 74.7391 502.728 74.65Z" fill="#0C0C0C"/></g></g><g><path d="M500.327 118.081 517.848 118.081C519.537 118.081 520.907 116.711 520.907 115.022 520.907 114.821 520.887 114.622 520.848 114.425L513.916 79.587C513.629 78.1462 512.359 77.1126 510.89 77.125L493.815 77.269C492.126 77.2833 490.768 78.6644 490.782 80.3538 490.784 80.5337 490.801 80.7131 490.834 80.89L497.32 115.584C497.59 117.032 498.854 118.081 500.327 118.081Z" fill="#262626"/><path d="M497.866 98.679C498.417 97.8528 499.443 97.4832 500.395 97.768 500.397 97.6725 500.475 97.5963 500.571 97.5979 500.593 97.5983 500.614 97.6027 500.634 97.611L499.274 96.254C498.383 95.4 498.305 94.002 499.095 93.054 499.828 92.2365 501.042 92.0635 501.974 92.644 501.974 92.622 501.992 92.603 501.999 92.582L501.439 92.023C500.645 91.2589 500.499 90.0415 501.089 89.111 501.781 88.0684 503.188 87.7844 504.23 88.4766 504.354 88.5591 504.47 88.6537 504.576 88.759L505.868 90.048C505.874 90.04 505.868 90.029 505.878 90.022 505.888 90.015 505.902 90.015 505.912 90.007 505.35 89.1161 505.477 87.955 506.219 87.207 507.092 86.207 508.651 86.696 509.486 87.53L517.37 95.252 517.13 94.892 516.013 92.047C515.539 90.9061 516.029 89.593 517.135 89.042 518.272 88.5238 519.614 89.0257 520.133 90.1631 520.149 90.2 520.165 90.2373 520.18 90.275L526.707 106.415C526.707 106.415 512.995 116.338 509.707 113.058L498.217 101.598C497.419 100.833 497.272 99.6112 497.866 98.679Z" fill="#E98862"/><g opacity="0.2"><path d="M513.435 97.324C513.354 97.4033 513.224 97.4033 513.143 97.324L505.883 90.313C505.799 90.2339 505.795 90.1017 505.874 90.0176 505.953 89.9335 506.085 89.9294 506.169 90.0084 506.171 90.0099 506.172 90.0115 506.174 90.013L513.433 97.023C513.517 97.1025 513.521 97.2354 513.442 97.3198 513.441 97.3209 513.44 97.322 513.439 97.323Z" fill="#0C0C0C"/><path d="M510.432 100.611C510.351 100.69 510.221 100.69 510.14 100.611L502.04 92.787C501.957 92.7066 501.955 92.5743 502.036 92.4915 502.037 92.49 502.039 92.4885 502.04 92.487 502.123 92.4089 502.252 92.4089 502.335 92.487L510.435 100.31C510.518 100.391 510.519 100.524 510.438 100.607 510.437 100.608 510.436 100.609 510.435 100.61Z" fill="#0C0C0C"/><path d="M507.2 104.19C507.119 104.269 506.989 104.269 506.908 104.19L500.445 97.949C500.364 97.8674 500.364 97.7355 500.445 97.654 500.526 97.5698 500.659 97.5668 500.743 97.6474 500.744 97.6479 500.744 97.6485 500.745 97.649L507.207 103.889C507.291 103.968 507.296 104.101 507.216 104.186 507.215 104.187 507.214 104.188 507.213 104.189Z" fill="#0C0C0C"/></g></g><path d="M588.012 97.286 560.221 135.335 526.96 98.114 504.376 116.861 548.276 170.881C549.252 172.137 550.396 173.254 551.676 174.199 559.176 179.679 571.185 177.545 576.664 170.043L577.031 169.543 615.947 117.692Z" fill="#367CFF"/><path d="M561.625 177.517C558.015 177.569 554.482 176.477 551.531 174.398 550.231 173.44 549.068 172.308 548.077 171.033L504.03 116.833 526.991 97.773 527.149 97.96 560.2 136.906 583.573 102.944 583.981 103.224 560.241 137.718 526.93 98.46 504.722 116.9 548.464 170.73C552.309 175.75 558.708 178.096 564.887 176.751 569.484 176.044 573.631 173.59 576.465 169.902L576.831 169.402 607.241 129.202 607.635 129.502 577.228 169.702 576.864 170.202C573.954 173.994 569.694 176.517 564.97 177.246 563.865 177.43 562.746 177.52 561.625 177.517Z" fill="#0C0C0C"/><rect x="562.257" y="136.514" width="0.494" height="7.328" fill="#0C0C0C" transform="matrix(0.782097 -0.623156 0.623156 0.782097 35.218 381.073)"/><path d="M548.459 54.559C552.172 54.6607 555.812 53.5228 558.806 51.325 559.108 51.105 559.53 51.1711 559.75 51.4727 559.844 51.6005 559.889 51.7571 559.879 51.915 559.717 54.115 558.792 58.176 554.223 58.866 551.273 59.312 549.038 57.12 547.897 55.649 547.668 55.3541 547.721 54.9294 548.016 54.7005 548.143 54.6025 548.299 54.5524 548.459 54.559Z" fill="#FFFFFF"/></g></g><circle cx="554.337" cy="90.086" r="90.086" fill="none"/><g><circle cx="91.841" cy="374.491" r="91.841" fill="#FFFFFF"/><path d="M183.684 374.488C183.685 425.21 142.566 466.329 91.844 466.33 41.1216 466.331 0.00256169 425.212 0.00200941 374.49 0.00145713 323.768 41.1196 282.649 91.842 282.648 91.8427 282.648 91.8433 282.648 91.844 282.648 142.378 282.46 183.496 323.273 183.684 373.807 183.685 374.034 183.685 374.261 183.684 374.488Z" fill="#367CFF" opacity="0.3"/><g><path d="M172.534 418.4C166.223 429.952 157.515 440.02 146.994 447.93L123.854 422.15 98.774 394.2 120.024 374.4 128.383 383.06 141.183 396.3 160.452 388.51Z" fill="#6B6C70"/><path d="M145.454 432.4C145.478 432.4 145.502 432.396 145.524 432.388 145.635 432.349 145.695 432.228 145.657 432.116L131.083 390.04C131.043 389.929 130.922 389.87 130.81 389.908 130.699 389.947 130.639 390.068 130.678 390.18L145.252 432.259C145.283 432.344 145.364 432.4 145.454 432.4Z" fill="#0C0C0C"/><g><path d="M50.913 322.4C50.913 322.4 51.913 350.061 70.371 351.331L73.494 314.856Z" fill="#0A0A0A"/><circle cx="54.469" cy="346.043" r="10.937" fill="#0A0A0A"/><path d="M97.263 364.171C97.163 364.158 96.085 382.094 75.249 380.53 60.824 379.449 55.681 364.145 55.349 364.145 56.9973 363.871 58.6233 363.477 60.214 362.966 62.485 361.745 65.295 360.475 66.028 356.066 66.449 353.524 65.734 340.518 65.954 337.946L88.1 342.886C87.79 348.318 85.625 360.912 93.214 363.141 94.475 363.51 95.835 363.849 97.263 364.171Z" id="sk-2" fill="#E98862"/><path d="M88.408 357.994C88.0611 356.876 87.8377 355.724 87.742 354.558 87.4986 351.896 87.5472 349.216 87.887 346.565 83.3862 345.956 79.1463 344.098 75.649 341.2 75.238 342.719 72.977 349.353 73.603 350.8 74.787 353.527 80.347 357.994 88.408 357.994Z" id="sh-2" fill="#0C0C0C" opacity="0.5"/><path d="M84.94 353.16C76.17 353.272 65.207 348.847 63.848 337.067L62.622 326.438C61.263 314.657 66.348 304.394 77.44 303.114L77.44 303.114C88.532 301.835 97.924 310.428 99.283 322.208L99.826 326.914C100.347 331.434 100.586 352.962 84.94 353.16Z" fill="#E98862"/><circle cx="96.647" cy="325.22" r="1.375" fill="#0C0C0C"/><circle cx="82.59" cy="326.828" r="1.375" fill="#0C0C0C"/><path d="M89.566 337.3 89.588 337.3C90.0374 337.245 90.4834 337.165 90.924 337.061 91.582 336.9 92.45 336.619 92.382 336.03 92.305 335.358 89.631 328.33 89.326 327.53 89.2757 327.383 89.1155 327.304 88.9681 327.354 88.8206 327.404 88.7419 327.565 88.7922 327.712 88.7943 327.718 88.7965 327.724 88.799 327.73 89.94 330.724 91.77 335.642 91.822 336.094 91.1183 336.491 90.3294 336.713 89.522 336.74 89.3672 336.757 89.2559 336.897 89.2733 337.052 89.2898 337.199 89.4172 337.308 89.565 337.302Z" fill="#0C0C0C" opacity="0.5"/><path d="M87.583 342.2C89.3845 342.097 91.1365 341.572 92.698 340.668 92.8385 340.601 92.8979 340.432 92.8307 340.292 92.7634 340.151 92.595 340.092 92.4546 340.159 92.4447 340.164 92.4352 340.169 92.426 340.175 89.053 342.041 85.826 342.149 83.099 340.488 83.0439 340.451 82.9868 340.418 82.928 340.388 82.7835 340.33 82.6193 340.4 82.5613 340.545 82.5063 340.682 82.5663 340.838 82.699 340.903 82.721 340.914 82.756 340.936 82.806 340.966 84.2401 341.844 85.9034 342.273 87.583 342.2Z" fill="#0C0C0C" opacity="0.5"/><path d="M53.6 329.459 63.539 328.37C71.189 325.9 74.365 313.2 74.365 313.2 74.365 313.2 81.215 320.991 101.517 317.434 101.517 317.434 100.731 291.261 69.856 294.945 59.1 296.233 51 307.011 50.914 321.108 50.856 330.986 53.6 329.459 53.6 329.459Z" fill="#0A0A0A"/><path d="M64.951 340.576C61.58 340.965 58.432 337.676 58.043 334.304 57.654 330.932 60.172 328.759 63.543 328.37L65.543 330.428 67.852 340.242Z" fill="#E98862"/><path d="M91.78 321.789C92.7743 321.239 93.8982 320.967 95.034 321 95.5949 321.012 96.1508 321.109 96.683 321.287 97.211 321.461 97.715 321.701 98.183 322.001 98.286 322.06 98.3214 322.192 98.262 322.295 98.2026 322.398 98.071 322.433 97.968 322.374L97.953 322.366C97.5092 322.103 97.0342 321.896 96.539 321.751 96.0479 321.604 95.5375 321.533 95.025 321.539 94.0047 321.545 93.0041 321.821 92.125 322.339L92.104 322.352C91.948 322.44 91.7505 322.384 91.6628 322.228 91.5795 322.08 91.625 321.893 91.767 321.799Z" fill="#0C0C0C"/><path d="M82.875 323.428C81.9039 323.121 80.869 323.076 79.875 323.298 79.3742 323.407 78.8928 323.59 78.447 323.843 77.9965 324.095 77.5795 324.402 77.206 324.758L77.194 324.769C77.1067 324.85 76.9704 324.845 76.8895 324.758 76.8086 324.67 76.8137 324.534 76.901 324.453 77.2892 324.056 77.726 323.71 78.201 323.422 78.68 323.13 79.2002 322.912 79.744 322.774 80.844 322.49 81.9999 322.505 83.092 322.818 83.2619 322.874 83.3541 323.057 83.298 323.227 83.2443 323.39 83.0735 323.482 82.908 323.439L82.899 323.439Z" fill="#0C0C0C"/><path d="M87.771 344.864C88.0972 344.85 88.4216 344.809 88.741 344.741 88.8934 344.709 88.991 344.559 88.959 344.407 88.927 344.255 88.7774 344.157 88.625 344.189 87.6171 344.484 86.531 344.33 85.645 343.766 85.5243 343.667 85.3466 343.685 85.248 343.806 85.1494 343.927 85.1673 344.104 85.288 344.203 86.0147 344.703 86.8919 344.937 87.771 344.864Z" fill="#0C0C0C"/><ellipse cx="80.618" cy="335.595" rx="2.62" ry="1.922" fill="#0C0C0C" opacity="0.1" transform="matrix(0.999388 -0.0349867 0.0349867 0.999388 -11.692 3.026)"/><path d="M96.164 334.588C96.204 335.647 97.406 336.465 98.852 336.416 99.1018 336.409 99.3502 336.375 99.593 336.316 99.764 335.072 99.869 333.869 99.926 332.753 99.5369 332.621 99.1266 332.561 98.716 332.579 97.27 332.624 96.128 333.525 96.164 334.588Z" fill="#0C0C0C" opacity="0.1"/></g><path d="M128.383 383.058C128.323 389.318 126.174 396.788 125.404 405.808 125.204 408.218 124.604 414.398 123.854 422.148 122.684 434.378 121.104 450.538 120.063 461.898 87.2921 472.459 51.3671 463.817 26.984 439.508 26.534 427.908 25.943 416.118 25.084 408.458 23.234 391.758 23.734 381.198 26.404 376.258 30.774 368.188 38.554 365.728 46.693 364.618 51.664 363.948 59.133 363.468 59.133 363.468 59.133 363.468 59.763 376.268 74.854 376.978 95.394 377.948 94.024 363.468 94.123 363.468 101.573 363.468 115.693 365.248 121.104 368.938 126.844 372.838 128.453 377.468 128.383 383.058Z" fill="#6B6C70"/><path d="M70.051 456.533C75.8242 456.533 81.1528 453.433 84.006 448.414L113.114 394.17 88.872 378.676 70.347 410.044 50.323 375.444 24.323 394.521 55.957 448.161C58.7442 453.276 64.0839 456.48 69.909 456.532Z" fill="#6B6C70"/><path d="M124.351 422.978C124.464 422.978 124.557 422.891 124.564 422.778L125.41 411.238C125.418 411.12 125.328 411.017 125.21 411.009 125.092 411.003 124.99 411.091 124.98 411.209L124.135 422.75C124.127 422.868 124.217 422.971 124.335 422.979Z" fill="#0C0C0C"/><g><path d="M139.058 396.267 121.1 396.267C119.368 396.267 117.964 394.863 117.964 393.131 117.964 392.926 117.984 392.721 118.024 392.519L125.131 356.806C125.425 355.33 126.726 354.27 128.231 354.282L145.731 354.429C147.463 354.444 148.855 355.86 148.84 357.591 148.839 357.776 148.821 357.96 148.787 358.141L142.138 393.707C141.861 395.19 140.567 396.266 139.058 396.267Z" fill="#262626"/><path d="M125.222 376.378C125.787 375.53 126.839 375.151 127.815 375.444 127.818 375.402 127.834 375.361 127.86 375.328 127.913 375.277 127.99 375.26 128.06 375.283L126.666 373.892C125.751 373.016 125.671 371.581 126.483 370.609 127.234 369.771 128.479 369.594 129.434 370.189 129.434 370.166 129.452 370.147 129.459 370.125L128.885 369.552C128.071 368.769 127.922 367.521 128.527 366.567 129.236 365.498 130.677 365.207 131.746 365.916 131.873 366.001 131.992 366.098 132.101 366.206L133.425 367.527C133.431 367.519 133.425 367.508 133.436 367.501 133.447 367.494 133.46 367.493 133.47 367.485 132.891 366.57 133.022 365.377 133.786 364.61 134.686 363.586 136.278 364.087 137.135 364.941L145.216 372.857 144.97 372.488 143.826 369.571C143.339 368.402 143.841 367.056 144.975 366.491 146.141 365.96 147.517 366.474 148.048 367.64 148.066 367.678 148.082 367.716 148.097 367.755L154.788 384.301C154.788 384.301 140.731 394.473 137.36 391.111L125.581 379.363C124.767 378.58 124.617 377.332 125.222 376.378Z" fill="#E98862"/><g opacity="0.2"><path d="M141.183 374.988C141.1 375.069 140.966 375.069 140.883 374.988L133.441 367.801C133.356 367.718 133.354 367.582 133.437 367.497 133.52 367.412 133.656 367.41 133.741 367.493L141.183 374.68C141.264 374.763 141.264 374.897 141.183 374.98Z" fill="#0C0C0C"/><path d="M138.1 378.358C138.017 378.439 137.883 378.439 137.8 378.358L129.495 370.337C129.413 370.254 129.413 370.12 129.495 370.037 129.578 369.957 129.709 369.954 129.795 370.031L138.101 378.052C138.182 378.135 138.182 378.269 138.101 378.352Z" fill="#0C0C0C"/><path d="M134.79 382.027C134.707 382.109 134.573 382.109 134.49 382.027L127.864 375.627C127.779 375.544 127.777 375.408 127.86 375.323 127.943 375.238 128.079 375.236 128.164 375.319L134.789 381.719C134.871 381.802 134.871 381.936 134.789 382.019Z" fill="#0C0C0C"/></g></g><path d="M172.693 418.108C172.633 418.208 172.584 418.298 172.534 418.398 166.937 428.646 159.443 437.737 150.453 445.188L131.323 389.948 157.084 379.898Z" fill="#6B6C70"/><g><path d="M92.836 381.208 108.231 391.046 116.585 385.367C117.516 384.761 117.892 383.584 117.485 382.55 117.098 381.634 116.16 381.076 115.17 381.172 115.173 381.133 115.162 381.093 115.139 381.061 115.129 381.046 115.124 381.03 115.109 381.02 115.102 381.012 115.093 381.005 115.084 381 115.075 380.992 115.064 380.985 115.053 380.98 115.026 380.968 114.997 380.961 114.967 380.96L114.967 380.96 116.548 379.891C117.59 379.214 117.931 377.846 117.328 376.76 116.758 375.815 115.592 375.415 114.562 375.812 114.567 375.785 114.567 375.758 114.562 375.731L115.205 375.296C116.134 374.69 116.507 373.514 116.097 372.484 115.626 371.353 114.343 370.8 113.197 371.233L113.197 371.233C113.187 371.223 113.177 371.207 113.167 371.197L117.984 368.163C118.989 367.531 119.291 366.204 118.659 365.199 118.026 364.195 116.7 363.893 115.695 364.525L104.124 371.81 105.177 370.285C105.862 369.246 105.625 367.853 104.635 367.099 103.608 366.372 102.186 366.616 101.46 367.642 101.437 367.675 101.414 367.708 101.393 367.742Z" fill="#E98862"/><g opacity="0.2"><path d="M108.36 374.458C108.385 374.453 108.409 374.444 108.43 374.431L113.143 371.538C113.24 371.471 113.265 371.338 113.197 371.24 113.135 371.15 113.015 371.122 112.919 371.174L108.206 374.066C108.105 374.128 108.074 374.26 108.136 374.361 108.183 374.436 108.272 374.475 108.36 374.458Z" fill="#0C0C0C"/><path d="M110.709 378.276C110.735 378.271 110.759 378.261 110.781 378.247L114.467 375.947C114.567 375.884 114.598 375.752 114.535 375.652 114.472 375.552 114.34 375.521 114.24 375.584L110.553 377.884C110.452 377.946 110.42 378.077 110.482 378.178 110.529 378.256 110.62 378.295 110.709 378.276Z" fill="#0C0C0C"/><path d="M113.23 382.425C113.254 382.42 113.276 382.411 113.297 382.399L115.064 381.353C115.166 381.293 115.2 381.161 115.14 381.06 115.079 380.958 114.948 380.924 114.846 380.984L113.079 382.031C112.977 382.091 112.944 382.222 113.004 382.324 113.051 382.402 113.141 382.442 113.23 382.425Z" fill="#0C0C0C"/></g></g><path d="M70.051 456.747C75.8992 456.74 81.2955 453.601 84.192 448.52L113.3 394.271C113.353 394.172 113.321 394.05 113.227 393.989L88.988 378.5C88.9393 378.468 88.8795 378.458 88.823 378.472 88.7662 378.485 88.7174 378.522 88.688 378.572L70.348 409.627 56.611 386.134C56.5511 386.032 56.4199 385.998 56.318 386.058 56.2161 386.118 56.1821 386.249 56.242 386.351L70.162 410.151C70.1999 410.217 70.2701 410.257 70.346 410.257L70.346 410.257C70.4206 410.258 70.4903 410.22 70.53 410.157L88.943 378.98 112.831 394.247 83.817 448.317C80.9965 453.262 75.743 456.317 70.05 456.323L69.907 456.323C64.1602 456.269 58.893 453.108 56.141 448.063L27.811 399.763C27.7559 399.658 27.6265 399.618 27.5219 399.673 27.4174 399.728 27.3772 399.858 27.4323 399.962 27.4353 399.968 27.4385 399.974 27.442 399.979L55.769 448.27C58.5951 453.448 64.0015 456.691 69.9 456.747Z" fill="#0C0C0C"/><path d="M63.476 422.416C63.5533 422.416 63.6247 422.375 63.663 422.308L70.533 410.15C70.5913 410.047 70.555 409.916 70.452 409.858 70.349 409.8 70.2183 409.836 70.16 409.939L63.29 422.1C63.2322 422.203 63.2683 422.333 63.371 422.392 63.4035 422.409 63.4395 422.417 63.476 422.416Z" fill="#0C0C0C"/></g></g><circle cx="91.841" cy="374.491" r="91.841" fill="none"/><g><circle cx="507.429" cy="236.957" r="19.708" fill="#367CFF"/><path d="M517.511 236.923C517.456 242.491 512.896 246.961 507.328 246.905 501.838 246.85 497.401 242.413 497.346 236.923Z" fill="#FFFFFF"/><g><circle cx="500.312" cy="229.047" r="1.717" fill="#0C0C0C"/><circle cx="514.545" cy="229.047" r="1.717" fill="#0C0C0C"/></g></g><g><rect x="233.066" y="66.746" rx="21.953" width="190.47" height="388.443" fill="#292A2E"/><rect x="240.014" y="73.601" rx="15.075" width="176.575" height="374.22" fill="#FFFFFF"/><path d="M292.138 70.767 364.465 70.767 364.465 70.767 364.465 78.251C364.465 82.7206 360.842 86.344 356.372 86.344L300.231 86.344C295.761 86.344 292.138 82.7206 292.138 78.251L292.138 70.767 292.138 70.767Z" fill="#292A2E"/></g><g><rect x="305.403" y="224.313" rx="5.37" width="18.506" height="76.143" fill="#292A2E" transform="matrix(0.942781 -0.333412 0.333412 0.942781 -69.478 119.924)"/><rect x="260.194" y="200.957" rx="26.616" width="55.605" height="53.232" fill="#367CFF" transform="matrix(0.942781 -0.333412 0.333412 0.942781 -59.397 109.044)"/><path d="M373.131 214.681 368.622 217.899 357.274 185.811 362.556 185.081C363.804 189.713 365.307 194.551 367.056 199.496 368.958 204.873 371.007 209.975 373.131 214.681Z" fill="#367CFF"/><path d="M384.415 193.36C386.643 199.66 387.133 205.231 385.515 205.804 385.122 205.901 384.706 205.808 384.39 205.554L384.39 205.554C382.69 204.463 380.334 200.481 378.55 195.437 376.894 190.754 376.197 186.473 376.617 184.35 376.76 183.618 377.036 183.142 377.452 182.995 379.066 182.421 382.187 187.062 384.415 193.36Z" fill="#367CFF"/><path d="M367.092 199.6C367.079 199.565 367.068 199.53 367.055 199.5 359.82 179.043 358.675 155.7 360.506 146.428 349.725 161.979 333.022 178.828 316.081 187.435 309.245 190.907 300.761 194.464 287.732 199.054L305.722 249.925C318.741 245.304 327.574 242.736 335.074 241.139 353.657 237.181 377.241 239.784 395.401 245.099 388.146 239.038 374.364 220.167 367.129 199.71 367.117 199.671 367.1 199.637 367.092 199.6Z" fill="#367CFF"/><rect x="284.464" y="193.276" rx="1.952" width="32.5" height="59.371" fill="#292A2E" transform="matrix(0.942781 -0.333412 0.333412 0.942781 -57.132 113.02)"/><rect x="284.464" y="193.276" rx="1.952" width="32.5" height="59.371" fill="#FFFFFF" opacity="0.1" transform="matrix(0.942781 -0.333412 0.333412 0.942781 -57.132 113.02)"/><path d="M392.7 190.428C402.432 217.944 404.573 242.276 397.5 244.778 396.09 245.278 394.424 244.878 392.588 243.685 392.58 243.685 392.577 243.685 392.569 243.685 385.141 238.92 374.852 221.527 367.062 199.499 359.827 179.042 356.786 160.347 358.618 151.072 359.245 147.872 360.449 145.8 362.268 145.157 369.336 142.651 382.968 162.92 392.7 190.428Z" fill="#367CFF"/><path d="M392.7 190.428C402.432 217.944 404.573 242.276 397.5 244.778 396.09 245.278 394.424 244.878 392.588 243.685 392.58 243.685 392.577 243.685 392.569 243.685 385.141 238.92 374.852 221.527 367.062 199.499 359.827 179.042 356.786 160.347 358.618 151.072 359.245 147.872 360.449 145.8 362.268 145.157 369.336 142.651 382.968 162.92 392.7 190.428Z" fill="#0C0C0C" opacity="0.3"/><path d="M377.457 183.024 385.524 205.835 373.131 214.681C371.007 209.975 368.958 204.873 367.056 199.496 365.307 194.551 363.804 189.713 362.556 185.081Z" fill="#FFFFFF" opacity="0.6"/><path d="M384.415 193.36C386.643 199.66 387.133 205.231 385.515 205.804 385.122 205.901 384.706 205.808 384.39 205.554L384.39 205.554C382.69 204.463 380.334 200.481 378.55 195.437 376.894 190.754 376.197 186.473 376.617 184.35 376.76 183.618 377.036 183.142 377.452 182.995 379.066 182.421 382.187 187.062 384.415 193.36Z" fill="#FFFFFF"/></g><g><rect x="284.246" y="333.082" rx="8.239" width="93.705" height="38.602" fill="#367CFF" opacity="0.8"/><path d="M377.949 363.446 377.949 367.238C377.948 371.787 374.26 375.475 369.711 375.475L292.485 375.475C287.936 375.475 284.248 371.787 284.248 367.238L284.248 363.446C284.247 367.995 287.935 371.683 292.484 371.684 292.484 371.684 292.485 371.684 292.485 371.684L369.711 371.684C374.261 371.684 377.949 367.996 377.949 363.446Z" fill="#367CFF"/><path d="M325.95 363.787C325.627 363.787 325.315 363.672 325.07 363.461L316.23 355.886C315.674 355.385 315.63 354.528 316.131 353.972 316.615 353.436 317.433 353.373 317.993 353.829L325.836 360.552 344.087 340.583C344.591 340.031 345.448 339.992 346 340.496 346.552 341 346.591 341.857 346.087 342.409L326.95 363.346C326.694 363.628 326.331 363.788 325.95 363.787Z" fill="#FFFFFF"/></g><g><g><path d="M350.257 441.229C345.836 436.174 346.351 428.493 351.406 424.072 351.569 423.929 351.737 423.79 351.908 423.656 357.083 419.587 364.678 420.783 369.008 425.738L375.226 433.452 355.706 363.552C353.927 357.462 357.319 351.062 363.358 349.115 369.426 347.297 375.818 350.743 377.636 356.81 377.656 356.878 377.676 356.947 377.695 357.015L385.866 386.273C385.938 386.226 386.016 386.187 386.097 386.158 385.637 379.518 390.597 373.74 397.23 373.189 402.976 372.78 408.236 376.41 409.893 381.927L411.193 386.034C411.333 386.051 411.469 386.095 411.593 386.162 411.133 380.231 415.036 374.84 420.814 373.425 427.171 372.018 433.537 375.75 435.414 381.984L438.56 391.952C438.681 391.594 438.973 391.321 439.339 391.225 439.544 391.179 439.759 391.192 439.957 391.263 440.969 386.047 445.258 382.097 450.539 381.516 456.379 380.834 461.793 384.777 463.562 390.384L480.283 443.039C487.792 466.831 480.114 492.8 460.874 508.684L460.874 508.684C444.027 522.592 419.164 520.532 404.836 504.041Z" fill="#E98862"/><g opacity="0.2"><path d="M395.243 415.834C395.255 415.7 395.244 415.564 395.209 415.434L387.6 386.921C387.45 386.308 386.832 385.932 386.218 386.082 385.605 386.232 385.23 386.85 385.379 387.463 385.383 387.479 385.387 387.495 385.392 387.511L393 416.024C393.162 416.634 393.787 416.996 394.397 416.834 394.86 416.711 395.198 416.312 395.241 415.834Z" fill="#0C0C0C"/><path d="M418.348 409.639C418.36 409.502 418.348 409.363 418.311 409.23L412.157 386.867C411.967 386.266 411.325 385.932 410.724 386.122 410.153 386.303 409.819 386.893 409.957 387.475L416.111 409.839C416.281 410.447 416.911 410.803 417.519 410.633 417.975 410.506 418.306 410.111 418.35 409.639Z" fill="#0C0C0C"/><path d="M443.41 403.071C443.422 402.943 443.412 402.814 443.38 402.69L440.722 392.061C440.569 391.449 439.95 391.077 439.338 391.23 438.726 391.383 438.354 392.002 438.507 392.614L441.165 403.243C441.318 403.855 441.938 404.227 442.55 404.074 443.021 403.956 443.365 403.554 443.41 403.071Z" fill="#0C0C0C"/></g></g><path d="M379.93 490 494.73 453.751C500.021 452.08 505.667 454.997 507.367 460.278L515.587 485.818C517.293 491.12 514.379 496.801 509.077 498.508 509.018 498.527 508.959 498.545 508.9 498.563L394.945 532.95C389.884 534.477 384.502 531.837 382.612 526.9L373.548 503.219C371.559 498.016 374.164 492.185 379.367 490.196 379.553 490.125 379.741 490.06 379.93 490Z" fill="#367CFF"/><path d="M379.93 490 494.73 453.751C500.021 452.08 505.667 454.997 507.367 460.278L515.587 485.818C517.293 491.12 514.379 496.801 509.077 498.508 509.018 498.527 508.959 498.545 508.9 498.563L394.945 532.95C389.884 534.477 384.502 531.837 382.612 526.9L373.548 503.219C371.559 498.016 374.164 492.185 379.367 490.196 379.553 490.125 379.741 490.06 379.93 490Z" fill="#FFFFFF" opacity="0.18"/></g><g><path d="M672.3 359.438C672.321 372.831 669.062 386.025 662.809 397.868L662.809 397.878C641.595 438.183 591.725 453.66 551.419 432.446 511.114 411.233 495.637 361.362 516.851 321.057 538.065 280.752 587.935 265.275 628.241 286.488 655.327 300.745 672.289 328.829 672.3 359.438Z" fill="#FFFFFF"/><path d="M672.3 359.438C672.321 372.831 669.062 386.025 662.809 397.868L662.809 397.878C641.595 438.183 591.725 453.66 551.419 432.446 511.114 411.233 495.637 361.362 516.851 321.057 538.065 280.752 587.935 265.275 628.241 286.488 655.327 300.745 672.289 328.829 672.3 359.438Z" fill="#367CFF" opacity="0.2"/><g><g><path d="M629.507 306.45C629.507 306.45 631.707 318.239 634.884 322.235 644.046 333.735 647.925 347.435 641.079 355.635 634.233 363.835 585.087 369.747 579.379 353.409 574.579 339.654 581.124 337.341 581.385 325.495 581.503 320.135 582.235 308.839 582.235 308.839" fill="#0A0A0A"/><path d="M589.821 347.234C589.906 347.223 590.854 362.956 609.132 361.584 621.785 360.636 626.297 347.212 626.586 347.212 625.14 346.971 623.714 346.626 622.319 346.177 620.327 345.106 617.861 343.992 617.219 340.123 616.849 337.893 617.477 326.484 617.284 324.223L597.861 328.559C598.132 333.324 600.032 344.371 593.374 346.327 592.267 346.654 591.073 346.951 589.821 347.234Z" id="sk-3" fill="#E98862"/><path d="M597.589 341.816C597.893 340.835 598.089 339.824 598.173 338.801 598.387 336.466 598.344 334.115 598.046 331.79 601.993 331.258 605.712 329.63 608.781 327.09 609.141 328.422 611.125 334.242 610.581 335.508 609.537 337.9 604.659 341.816 597.589 341.816Z" id="sh-3" fill="#0C0C0C" opacity="0.5"/><path d="M600.814 338C608.505 337.838 617.986 333.634 618.828 323.266L619.588 313.911C620.43 303.543 615.668 294.695 605.906 293.902L605.906 293.902C596.145 293.109 588.165 300.921 587.323 311.289L586.986 315.431C586.662 319.406 587.09 338.286 600.814 338Z" fill="#E98862"/><circle cx="589.868" cy="314.184" r="1.206" fill="#0C0C0C"/><circle cx="602.223" cy="314.907" r="1.206" fill="#0C0C0C"/><path d="M596.288 324.227 596.269 324.227C595.873 324.192 595.48 324.135 595.09 324.057 594.508 323.936 593.739 323.715 593.781 323.196 593.829 322.606 595.965 316.363 596.208 315.653 596.252 315.524 596.393 315.455 596.522 315.499 596.651 315.543 596.72 315.684 596.676 315.813 595.764 318.472 594.306 322.839 594.276 323.236 594.904 323.564 595.602 323.735 596.311 323.736 596.447 323.742 596.553 323.857 596.547 323.993 596.542 324.13 596.426 324.236 596.29 324.23Z" fill="#0C0C0C" opacity="0.5"/><path d="M598.171 328.464C596.589 328.427 595.037 328.019 593.641 327.273 593.519 327.211 593.471 327.062 593.534 326.94 593.596 326.819 593.745 326.771 593.866 326.833 596.878 328.369 599.709 328.368 602.052 326.833 602.099 326.801 602.148 326.771 602.199 326.744 602.323 326.688 602.47 326.744 602.525 326.868 602.579 326.987 602.53 327.127 602.415 327.188 602.396 327.198 602.365 327.219 602.323 327.247 601.091 328.057 599.645 328.481 598.171 328.464Z" fill="#0C0C0C" opacity="0.5"/><path d="M627.583 316.289 618.838 315.629C612.061 313.691 608.9 302.654 608.9 302.654 608.9 302.654 601.827 311.184 582.238 308.844 582.238 308.844 583.238 281.767 612.313 286.516 621.689 288.048 629.203 296.532 629.694 308.888 630.038 317.547 627.583 316.289 627.583 316.289Z" fill="#0A0A0A"/><path d="M617.965 326.372C620.932 326.613 623.594 323.635 623.835 320.672 624.076 317.709 621.804 315.872 618.835 315.633L617.145 317.497 615.411 326.169Z" fill="#E98862"/><path d="M593.194 310.031C592.306 309.577 591.313 309.369 590.318 309.431 589.827 309.459 589.342 309.56 588.881 309.731 588.421 309.899 587.984 310.124 587.581 310.401 587.496 310.462 587.477 310.581 587.538 310.666 587.594 310.743 587.697 310.767 587.781 310.723L587.794 310.715C588.175 310.471 588.585 310.276 589.015 310.134 589.441 309.991 589.887 309.913 590.336 309.903 591.23 309.877 592.115 310.089 592.9 310.516L592.92 310.527C593.059 310.599 593.231 310.546 593.303 310.406 593.372 310.273 593.326 310.109 593.198 310.032Z" fill="#0C0C0C"/><path d="M601.743 310.943C602.586 310.645 603.493 310.576 604.371 310.743 604.813 310.824 605.241 310.97 605.64 311.178 606.042 311.386 606.417 311.643 606.755 311.944L606.766 311.953C606.847 312.019 606.966 312.007 607.032 311.926 607.095 311.849 607.087 311.736 607.014 311.668 606.66 311.331 606.265 311.041 605.839 310.802 605.41 310.56 604.948 310.384 604.467 310.28 603.494 310.063 602.481 310.111 601.533 310.418 601.384 310.468 601.304 310.629 601.353 310.777 601.403 310.926 601.564 311.007 601.713 310.957L601.721 310.957Z" fill="#0C0C0C"/><path d="M598.085 330.807C597.799 330.805 597.514 330.779 597.232 330.728 597.098 330.705 597.008 330.576 597.031 330.442 597.055 330.307 597.182 330.217 597.317 330.241 598.209 330.469 599.157 330.302 599.917 329.782 600.021 329.693 600.177 329.705 600.265 329.809 600.353 329.911 600.342 330.064 600.242 330.154 599.62 330.615 598.858 330.846 598.085 330.807Z" fill="#0C0C0C"/><path d="M618.816 315.49 618.859 315.309C612.947 313.87 610.606 310.188 609.683 307.352 609.078 305.453 608.876 303.449 609.09 301.467L608.906 301.439C608.689 303.447 608.893 305.478 609.506 307.402 610.441 310.286 612.817 314.03 618.816 315.49Z" fill="#0C0C0C"/><ellipse cx="604.082" cy="322.469" rx="1.686" ry="2.298" fill="#0C0C0C" opacity="0.1" transform="matrix(0.00120428 -0.999999 0.999999 0.00120428 280.883 926.161)"/><path d="M590.423 322.047C590.423 322.977 589.39 323.729 588.123 323.729 587.904 323.729 587.685 323.706 587.471 323.66 587.284 322.574 587.156 321.523 587.071 320.546 587.408 320.418 587.766 320.354 588.127 320.358 589.4 320.358 590.423 321.114 590.423 322.047Z" fill="#0C0C0C" opacity="0.1"/></g><path d="M587.844 374.378 565.323 399.468 541.394 426.118C532.479 419.635 524.952 411.435 519.253 402L532.474 369.27 549.774 376.26 561.263 364.38 568.774 356.61Z" fill="#0CBC8B"/><path d="M545.941 408.675C545.919 408.675 545.898 408.671 545.878 408.664 545.778 408.629 545.725 408.52 545.759 408.42L558.841 370.649C558.876 370.549 558.985 370.496 559.086 370.53 559.186 370.565 559.239 370.675 559.204 370.775L546.122 408.545C546.096 408.622 546.023 408.675 545.941 408.675Z" fill="#0C0C0C"/><path d="M653.984 387.178C653.263 393.648 652.744 403.398 652.354 413.198 631.832 437.031 599.549 447.129 569.104 439.238 568.204 429.168 566.534 412.028 565.323 399.468 564.654 392.508 564.123 386.958 563.934 384.798 563.244 376.698 561.313 369.988 561.263 364.378 561.193 359.358 562.633 355.208 567.794 351.708 572.664 348.398 585.323 346.798 592.024 346.798 592.114 346.798 590.883 359.798 609.313 358.928 622.854 358.288 623.424 346.798 623.424 346.798 623.424 346.798 630.133 347.228 634.594 347.828 641.894 348.818 648.883 351.038 652.804 358.278 653.111 358.855 653.368 359.457 653.573 360.078 653.947 361.182 654.225 362.316 654.404 363.468L654.404 363.478C655.284 368.728 655.164 376.578 653.984 387.178Z" fill="#0CBC8B"/><path d="M564.883 400.215C564.783 400.214 564.7 400.137 564.692 400.037L563.933 389.678C563.926 389.572 564.005 389.48 564.111 389.472 564.216 389.468 564.305 389.546 564.317 389.65L565.076 400.009C565.081 400.113 565.002 400.202 564.898 400.209Z" fill="#0C0C0C"/><g><path d="M551.682 376.238 567.806 376.238C569.36 376.238 570.62 374.978 570.62 373.424 570.62 373.24 570.602 373.055 570.566 372.874L564.187 340.817C563.923 339.491 562.755 338.54 561.403 338.551L545.69 338.684C544.136 338.697 542.886 339.967 542.899 341.521 542.9 341.687 542.916 341.853 542.947 342.016L548.916 373.94C549.164 375.272 550.327 376.238 551.682 376.238Z" fill="#262626"/><path d="M564.1 358.385C563.593 357.624 562.649 357.284 561.774 357.547 561.77 357.51 561.756 357.476 561.733 357.447 561.685 357.402 561.616 357.386 561.553 357.406L562.805 356.157C563.626 355.371 563.698 354.083 562.969 353.211 562.294 352.459 561.177 352.3 560.32 352.834 560.32 352.813 560.304 352.796 560.298 352.776L560.813 352.262C561.544 351.559 561.678 350.438 561.134 349.582 560.497 348.623 559.204 348.362 558.245 348.998 558.13 349.074 558.023 349.162 557.926 349.259L556.737 350.445C556.732 350.437 556.737 350.427 556.728 350.421 556.719 350.415 556.706 350.414 556.697 350.407 557.217 349.586 557.1 348.515 556.414 347.826 555.614 346.907 554.177 347.356 553.408 348.126L546.154 355.232 546.375 354.9 547.402 352.282C547.838 351.232 547.387 350.024 546.37 349.517 545.322 349.042 544.087 349.506 543.611 350.554 543.597 350.587 543.583 350.619 543.57 350.652L537.57 365.504C537.57 365.504 550.188 374.634 553.213 371.617L563.787 361.072C564.519 360.365 564.65 359.241 564.1 358.385Z" fill="#E98862"/><g opacity="0.2"><path d="M549.775 357.138C549.85 357.211 549.969 357.211 550.044 357.138L556.724 350.688C556.799 350.613 556.799 350.491 556.724 350.416 556.65 350.341 556.529 350.34 556.454 350.414 556.453 350.415 556.453 350.415 556.452 350.416L549.772 356.867C549.697 356.942 549.697 357.063 549.771 357.139 549.772 357.139 549.772 357.139 549.772 357.139Z" fill="#0C0C0C"/><path d="M552.539 360.163C552.613 360.236 552.733 360.236 552.807 360.163L560.263 352.963C560.338 352.888 560.338 352.766 560.263 352.691 560.186 352.62 560.069 352.62 559.992 352.691L552.536 359.891C552.461 359.965 552.461 360.086 552.535 360.161 552.535 360.161 552.536 360.162 552.536 360.162Z" fill="#0C0C0C"/><path d="M555.513 363.456C555.588 363.529 555.707 363.529 555.782 363.456L561.729 357.714C561.805 357.64 561.808 357.518 561.734 357.442 561.66 357.366 561.539 357.363 561.462 357.437L555.515 363.18C555.44 363.255 555.44 363.377 555.515 363.452Z" fill="#0C0C0C"/></g></g><path d="M558.623 370.568 541.034 421.338 533.184 419.288C527.781 414.181 523.094 408.366 519.253 402 519.203 401.91 519.144 401.82 519.094 401.73L535.503 361.54Z" fill="#0CBC8B"/><path d="M662.813 397.868 662.813 397.878C656.936 408.972 648.622 418.589 638.494 426.008L627.614 382.988 653.573 360.078 654.404 363.468 654.404 363.478Z" fill="#0CBC8B"/><path d="M638.674 425.878C638.614 425.918 638.554 425.968 638.494 426.008 638.434 426.048 638.373 426.098 638.313 426.138L627.413 383.038C627.385 382.928 627.453 382.816 627.563 382.788 627.674 382.76 627.785 382.828 627.813 382.938Z" fill="#0C0C0C"/></g></g><circle cx="589.868" cy="359.439" r="82.439" fill="none"/><g><circle cx="145.287" cy="223.243" r="26.569" fill="#6B6C70"/><circle cx="145.287" cy="213.333" r="11.112" fill="#FFFFFF"/><path d="M124.2 239.418C133.138 251.06 149.821 253.253 161.464 244.315 163.303 242.903 164.949 241.257 166.361 239.418 156.25 227.776 138.616 226.534 126.974 236.644 125.985 237.503 125.058 238.43 124.2 239.418Z" fill="#FFFFFF"/><path d="M118.344 223.243C118.343 208.362 130.406 196.299 145.287 196.298 160.168 196.297 172.231 208.36 172.232 223.241 172.233 238.122 160.17 250.185 145.289 250.186 145.288 250.186 145.288 250.186 145.287 250.186 130.414 250.169 118.361 238.116 118.344 223.243ZM119.092 223.243C119.089 237.713 130.817 249.445 145.287 249.448 159.757 249.451 171.489 237.723 171.492 223.253 171.495 208.783 159.767 197.051 145.297 197.048 145.295 197.048 145.294 197.048 145.292 197.048 130.83 197.062 119.109 208.781 119.092 223.243Z" fill="#292A2E"/></g><g><circle cx="156.4" cy="511.506" r="21.514" fill="#292A2E"/><circle cx="156.4" cy="503.482" r="8.998" fill="#FFFFFF"/><path d="M139.328 524.6C146.565 534.027 160.074 535.802 169.501 528.565 170.99 527.422 172.323 526.089 173.466 524.6 165.279 515.173 151.001 514.168 141.574 522.354 140.774 523.049 140.023 523.8 139.328 524.6Z" fill="#FFFFFF"/><path d="M134.583 511.506C134.582 499.457 144.35 489.689 156.399 489.688 168.448 489.687 178.216 499.455 178.217 511.504 178.218 523.553 168.45 533.321 156.401 533.322 156.401 533.322 156.4 533.322 156.4 533.322 144.357 533.309 134.597 523.549 134.583 511.506ZM135.189 511.506C135.186 523.221 144.68 532.719 156.395 532.722 168.109 532.725 177.608 523.23 177.611 511.516 177.614 499.801 168.12 490.303 156.405 490.3 156.403 490.3 156.402 490.3 156.4 490.3 144.693 490.313 135.204 499.799 135.189 511.506Z" fill="#292A2E"/></g></svg>