<svg viewBox="0 0 991.824 939.027" xmlns="http://www.w3.org/2000/svg" xmlns:xlink="http://www.w3.org/1999/xlink" id="Layer_1" overflow="hidden"><g><g><g><rect x="177.403" y="627.099" width="80.326" height="23.372" fill="#F4F4F4"/><rect x="188.19" y="627.099" width="10.525" height="23.372" fill="#292A2E" opacity="0.05"/><rect x="203.701" y="632.179" width="43.764" height="13.85" fill="#FFFFFF"/></g><g><rect x="239.08" y="612.872" width="81.445" height="23.372" fill="#F4F4F4" transform="matrix(0.916405 0.400253 -0.400253 0.916405 273.373 -59.782)"/><rect x="239.08" y="612.872" width="81.445" height="23.372" fill="#292A2E" opacity="0.05" transform="matrix(0.916405 0.400253 -0.400253 0.916405 273.373 -59.782)"/><rect x="296.872" y="622.658" width="10.672" height="23.372" fill="#FFFFFF" transform="matrix(0.916405 0.400253 -0.400253 0.916405 279.163 -67.932)"/><rect x="250.039" y="614.671" width="44.373" height="13.85" fill="#FFFFFF" transform="matrix(0.916405 0.400253 -0.400253 0.916405 271.554 -56.997)"/></g><g><g><rect x="301.754" y="923.175" width="20.186" height="13.481" fill="#292A2E" opacity="0.05"/><rect x="95.374" y="923.175" width="20.186" height="13.481" fill="#292A2E" opacity="0.05"/></g><rect x="76.87" y="651.567" width="263.574" height="271.152" fill="#F4F4F4"/><rect x="76.87" y="651.567" width="263.574" height="271.152" fill="#292A2E" opacity="0.03"/><rect x="125.714" y="651.567" width="263.574" height="271.152" fill="#F4F4F4"/><g><rect x="350.598" y="923.175" width="20.186" height="13.481" fill="#292A2E" opacity="0.05"/><rect x="144.218" y="923.175" width="20.186" height="13.481" fill="#292A2E" opacity="0.05"/></g><rect x="135.609" y="664.266" width="243.786" height="52.094" fill="#FFFFFF" opacity="0.7"/><rect x="135.609" y="729.111" width="243.786" height="52.094" fill="#FFFFFF" opacity="0.7"/><rect x="135.609" y="793.954" width="243.786" height="52.094" fill="#FFFFFF" opacity="0.7"/><circle cx="257.502" cy="690.313" r="7.289" fill="#292A2E" opacity="0.05"/><circle cx="257.502" cy="755.158" r="7.289" fill="#292A2E" opacity="0.05"/><circle cx="257.502" cy="820.002" r="7.289" fill="#292A2E" opacity="0.05"/><g><rect x="135.609" y="860.26" width="243.786" height="52.094" fill="#FFFFFF" opacity="0.7"/><circle cx="257.502" cy="886.307" r="7.289" fill="#292A2E" opacity="0.05"/></g></g></g><g><g><path d="M0.7 938.524 991.12 938.524C991.507 938.524 991.82 938.211 991.82 937.824 991.82 937.437 991.507 937.124 991.12 937.124L0.7 937.124C0.313401 937.124-6.83052e-08 937.437-1.37859e-07 937.824-2.07412e-07 938.211 0.3134 938.524 0.7 938.524Z" fill="#292A2E"/><g opacity="0.65"><path d="M0.7 938.524 991.12 938.524C991.507 938.524 991.82 938.211 991.82 937.824 991.82 937.437 991.507 937.124 991.12 937.124L0.7 937.124C0.313401 937.124-6.83052e-08 937.437-1.37859e-07 937.824-2.07412e-07 938.211 0.3134 938.524 0.7 938.524Z" fill="#292A2E"/></g></g><g><g><path d="M924.101 938.116 926.065 937.738 895.369 632.707 893.405 633.085 924.101 938.116Z" fill="#494949"/><path d="M809.803 938.116 811.767 937.738 781.072 632.707 779.108 633.085 809.803 938.116Z" fill="#494949"/><g><path d="M557.155 938.116 555.191 937.738 585.887 632.707 587.851 633.085 557.155 938.116Z" fill="#494949"/><path d="M671.453 938.116 669.489 937.738 700.184 632.707 702.148 633.085 671.453 938.116Z" fill="#494949"/></g><rect x="636.434" y="564.744" width="135.496" height="2" fill="#494949" transform="matrix(0.132343 -0.991204 0.991204 0.132343 50.216 1188.85)"/><rect x="842.258" y="564.744" width="135.496" height="2" fill="#494949" transform="matrix(0.132343 -0.991204 0.991204 0.132343 228.799 1392.87)"/><g><rect x="684.565" y="623.061" rx="9.835" width="220.99" height="19.671" fill="#292A2E" transform="matrix(-1 1.22465e-16 -1.22465e-16 -1 1590.12 1265.79)"/><rect x="684.565" y="623.061" rx="9.835" width="220.99" height="19.671" fill="#FFFFFF" opacity="0.8" transform="matrix(-1 1.22465e-16 -1.22465e-16 -1 1590.12 1265.79)"/><path d="M683.565 632.9C683.569 626.917 688.417 622.068 694.4 622.061L895.72 622.061C901.704 622.061 906.555 626.912 906.555 632.896 906.555 638.88 901.704 643.731 895.72 643.731L694.4 643.731C688.421 643.724 683.574 638.88 683.565 632.9ZM694.4 624.065C689.521 624.065 685.565 628.021 685.565 632.9 685.565 637.779 689.521 641.735 694.4 641.735L895.72 641.735C900.599 641.735 904.555 637.779 904.555 632.9 904.555 628.021 900.599 624.065 895.72 624.065Z" fill="#292A2E"/></g><g><rect x="574.07" y="623.061" rx="9.835" width="220.99" height="19.671" fill="#FFFFFF" transform="matrix(-1 -1.22465e-16 1.22465e-16 -1 1369.13 1265.79)"/><path d="M573.069 632.9C573.076 626.919 577.924 622.072 583.905 622.065L785.225 622.065C791.209 622.065 796.06 626.916 796.06 632.9 796.06 638.884 791.209 643.735 785.225 643.735L583.905 643.735C577.924 643.728 573.077 638.881 573.069 632.9ZM583.905 624.065C579.026 624.065 575.07 628.021 575.07 632.9 575.07 637.779 579.026 641.735 583.905 641.735L785.225 641.735C790.104 641.735 794.06 637.779 794.06 632.9 794.06 628.021 790.104 624.065 785.225 624.065Z" fill="#292A2E"/></g><g><path d="M723.189 498.591 918.436 498.591C925.039 498.591 930.618 493.692 931.471 487.144L944.385 387.964C945.323 380.766 940.248 374.17 933.049 373.232 932.486 373.159 931.919 373.122 931.351 373.122L736.1 373.122C729.496 373.122 723.918 378.022 723.065 384.57L710.15 483.749C709.213 490.948 714.289 497.544 721.488 498.481 722.052 498.554 722.62 498.591 723.189 498.591Z" fill="#292A2E"/><path d="M723.189 498.591 918.436 498.591C925.039 498.591 930.618 493.692 931.471 487.144L944.385 387.964C945.323 380.766 940.248 374.17 933.049 373.232 932.486 373.159 931.919 373.122 931.351 373.122L736.1 373.122C729.496 373.122 723.918 378.022 723.065 384.57L710.15 483.749C709.213 490.948 714.289 497.544 721.488 498.481 722.052 498.554 722.62 498.591 723.189 498.591Z" fill="#FFFFFF" opacity="0.8"/><path d="M712.561 494.78C709.875 491.723 708.636 487.657 709.161 483.621L722.076 384.441C723.008 377.403 729.001 372.139 736.1 372.122L931.351 372.122C939.163 372.122 945.495 378.454 945.495 386.266 945.495 386.877 945.456 387.487 945.377 388.093L932.462 487.273C931.53 494.312 925.536 499.576 918.436 499.591L723.189 499.591C719.119 499.591 715.247 497.838 712.561 494.78ZM736.1 374.122C730.005 374.137 724.86 378.658 724.061 384.7L711.146 483.88C710.28 490.531 714.97 496.624 721.62 497.49 722.141 497.558 722.664 497.592 723.189 497.592L918.436 497.592C924.532 497.579 929.679 493.059 930.479 487.016L943.393 387.836C944.26 381.185 939.57 375.091 932.92 374.225 932.4 374.157 931.876 374.123 931.351 374.123Z" fill="#292A2E"/></g><g><path d="M712.148 498.591 907.4 498.591C914.003 498.591 919.582 493.692 920.435 487.144L933.35 387.964C934.287 380.765 929.211 374.169 922.012 373.232 921.449 373.159 920.882 373.122 920.315 373.122L725.063 373.122C718.46 373.122 712.881 378.022 712.029 384.57L699.114 483.749C698.176 490.947 703.251 497.543 710.45 498.481 711.013 498.554 711.58 498.591 712.148 498.591Z" fill="#FFFFFF"/><path d="M701.52 494.78C698.834 491.722 697.596 487.657 698.12 483.621L711.035 384.441C711.967 377.402 717.961 372.138 725.061 372.122L920.31 372.122C928.122 372.122 934.454 378.454 934.454 386.266 934.454 386.877 934.415 387.487 934.336 388.093L921.422 487.273C920.49 494.31 914.498 499.573 907.4 499.591L712.148 499.591C708.078 499.591 704.206 497.838 701.52 494.78ZM725.063 374.122C718.967 374.136 713.82 378.657 713.02 384.7L700.105 483.88C699.239 490.531 703.929 496.624 710.579 497.49 711.099 497.558 711.623 497.592 712.148 497.592L907.4 497.592C913.496 497.579 918.643 493.059 919.443 487.016L932.358 387.837C933.224 381.185 928.534 375.091 921.882 374.225 921.362 374.157 920.839 374.123 920.315 374.123Z" fill="#292A2E"/></g></g><g><g><path d="M739.873 213.452C739.873 213.452 728.347 201.989 728.222 179.22 728.122 161.59 742.54 174.977 742.54 174.977 742.54 174.977 742.594 162.282 751.505 164.764 760.416 167.246 763.713 181.04 763.713 181.04" fill="#0C0C0C"/><path d="M798.261 172.655C798.261 172.655 842.673 183.661 818.012 242.507L813.987 242.228 805.817 241.661" fill="#0C0C0C"/><path d="M741.257 303.665C741.457 303.638 743.677 340.465 786.463 337.257 816.083 335.038 826.644 303.612 827.323 303.612 824.129 302.934 820.183 301.904 818.614 301.55 811.617 299.924 806.356 294.138 805.4 287.018 804.533 281.798 806 255.09 805.551 249.808L760.084 259.957C760.719 271.112 765.166 296.973 749.584 301.55 746.983 302.307 744.19 303 741.257 303.665Z" id="sk" fill="#E98862"/><path d="M759.441 290.981C760.154 288.686 760.612 286.319 760.809 283.924 761.308 278.459 761.207 272.955 760.509 267.512 769.75 266.265 778.456 262.45 785.638 256.502 786.482 259.62 791.125 273.244 789.838 276.202 787.413 281.809 775.994 290.981 759.441 290.981Z" id="sh" fill="#0C0C0C" opacity="0.52"/><path d="M766.241 280.239C784.231 281.08 807.041 272.765 810.65 248.684L813.909 226.955C817.52 202.874 807.799 181.455 785.126 178.055L785.126 178.055C762.453 174.655 742.578 191.636 738.967 215.717L737.524 225.336C737.086 228.648 736.875 231.985 736.891 235.326 736.869 244.154 736.869 257.582 741.532 267.304 745.933 276.482 754.748 279.7 766.241 280.239Z" fill="#E98862"/><path d="M761.016 257.06C757.326 256.723 753.767 255.525 750.625 253.56 750.344 253.407 750.241 253.055 750.394 252.774 750.547 252.494 750.899 252.39 751.18 252.544 751.193 252.551 751.206 252.559 751.219 252.567 758.011 256.632 764.619 257.078 770.338 253.86 770.454 253.791 770.573 253.729 770.695 253.673 770.995 253.562 771.328 253.716 771.439 254.016 771.545 254.303 771.409 254.623 771.129 254.746 771.084 254.766 771.01 254.81 770.906 254.868 767.901 256.567 764.457 257.33 761.016 257.06Z" fill="#0C0C0C"/><path d="M760.443 262.518C759.775 262.468 759.112 262.361 758.462 262.198 758.152 262.122 757.962 261.808 758.039 261.498 758.115 261.188 758.429 260.999 758.739 261.075 762.651 262.04 764.795 260.481 764.885 260.414 765.139 260.221 765.502 260.27 765.695 260.525 765.889 260.779 765.839 261.142 765.585 261.335 764.059 262.311 762.242 262.729 760.443 262.518Z" fill="#0C0C0C"/><circle cx="745.433" cy="223.405" r="2.824" fill="#0C0C0C"/><circle cx="771.692" cy="225.156" r="2.824" fill="#0C0C0C"/><path d="M808.142 255.809C815.032 256.842 821.724 250.309 822.757 243.418 823.79 236.527 818.774 231.89 811.884 230.857L807.641 234.941 802.218 254.921Z" fill="#E98862"/><g><path d="M802.794 243.777C802.794 243.777 805.139 209.323 795.077 205.797 788.377 203.449 770.32 210.938 755.24 205.864 748.64 203.644 741.983 204.44 740.89 207.55 740.458 208.781 738.731 189.997 751.232 177.632 761.185 167.787 789.25 168.467 801.332 173.797 834.782 188.555 813.102 232.555 813.102 232.555L809.937 244.11Z" fill="#0C0C0C"/><path d="M757.947 248.433 757.903 248.433C755.682 248.106 751.992 247.31 752.235 245.648 752.435 244.271 758.396 229.963 759.076 228.337 759.186 228.041 759.515 227.89 759.811 227.999 760.107 228.109 760.258 228.438 760.149 228.735 760.143 228.749 760.137 228.763 760.131 228.777 757.487 235.113 753.505 244.877 753.367 245.814 753.528 246.239 755.767 246.962 758.067 247.302 758.379 247.352 758.592 247.645 758.542 247.957 758.496 248.247 758.238 248.455 757.945 248.438Z" fill="#0C0C0C"/><path d="M754.914 214.139C752.664 213.177 750.196 212.84 747.77 213.164 746.579 213.316 745.418 213.645 744.325 214.141 743.246 214.626 742.232 215.246 741.308 215.985 740.944 216.266 740.876 216.789 741.157 217.153 741.42 217.494 741.899 217.579 742.263 217.348L742.32 217.311C743.161 216.721 744.074 216.239 745.036 215.877 745.982 215.515 746.977 215.299 747.987 215.236 749.978 215.096 751.971 215.483 753.765 216.359L753.84 216.398C754.454 216.714 755.209 216.473 755.526 215.858 755.842 215.244 755.6 214.489 754.986 214.173Z" fill="#0C0C0C"/><path d="M771.274 217.81C773.171 217.189 775.199 217.081 777.152 217.496 778.144 217.698 779.1 218.049 779.986 218.538 780.889 219.03 781.726 219.633 782.478 220.333L782.527 220.376C782.875 220.677 783.401 220.639 783.702 220.291 783.987 219.962 783.97 219.469 783.664 219.16 782.851 218.3 781.932 217.547 780.93 216.917 779.916 216.275 778.812 215.788 777.654 215.473 775.296 214.817 772.805 214.81 770.443 215.452 769.777 215.638 769.389 216.329 769.576 216.995 769.762 217.66 770.453 218.048 771.118 217.862L771.191 217.839Z" fill="#0C0C0C"/></g><ellipse cx="766.169" cy="177.868" rx="14.04" ry="9.539" fill="#0C0C0C" transform="matrix(0.335468 -0.942052 0.942052 0.335468 341.583 839.97)"/></g><g><path d="M464.375 886.277C464.375 886.277 459.013 914.07 432.991 915.619 406.969 917.168 412.611 937.899 412.611 937.899L512.055 937.899 512.055 888.215Z" fill="#367CFF"/><path d="M653.563 868.729C653.563 868.729 661.02 896.035 638.353 908.912 615.686 921.789 629.9 937.9 629.9 937.9L719.133 894 697.2 849.421Z" fill="#367CFF"/><g><path d="M708.831 861.016 633.581 623.626 769.981 623.626C797.381 623.626 808.803 600.391 808.803 572.993 808.803 545.595 781.868 521.577 754.469 521.577L570.379 521.577C553.668 521.577 534.93 531.797 525.759 545.767 516.588 559.737 519.066 581.384 525.711 596.718L646.211 889.385" fill="#262626"/><path d="M708.831 861.016 633.581 623.626 769.981 623.626C797.381 623.626 808.803 600.391 808.803 572.993 808.803 545.595 781.868 521.577 754.469 521.577L570.379 521.577C553.668 521.577 534.93 531.797 525.759 545.767 516.588 559.737 519.066 581.384 525.711 596.718L646.211 889.385" fill="#0A0A0A" opacity="0.8"/><path d="M517.774 912.088 643.593 623.626 808.802 623.615C847.513 620.58 865.242 599.365 864.678 571.973 864.122 544.928 850.428 518.215 823.505 518.215L600.836 518.215C580.916 518.624 565.244 540.638 557.854 559.14L453.254 894.428" fill="#262626"/><path d="M875.949 518.546C875.949 518.546 883.286 566.392 871.656 592.993 857.137 626.203 802.709 623.616 802.709 623.616L805.776 518.216Z" fill="#262626"/></g></g><path d="M553.12 517.605 669.82 493.423C679.703 491.375 687.855 484.421 691.436 474.985L737.336 354.032C743.196 338.813 735.608 321.725 720.389 315.865 705.17 310.005 688.082 317.593 682.222 332.812 682.188 332.9 682.154 332.989 682.121 333.078L641.969 438.878 541.137 459.775C541.137 459.775 551.1 518.024 553.12 517.605Z" fill="#367CFF"/><path d="M688.1 384.747C689.447 400.58 699 499.357 700.3 518.859L875.872 518.859C876.881 501.27 880.156 426.593 883.982 392.198 887.633 359.376 888.958 340.646 884.752 330.447 877.334 312.457 858.771 305.984 842.781 303.819 833.018 302.498 818.333 301.55 818.333 301.55 818.333 301.55 817.09 326.7 787.441 328.1 747.082 330 749.777 301.547 749.577 301.547 743.039 301.547 707.449 306.302 698.55 312.102 685.981 320.295 682.266 331.459 682.119 341.716 681.95 353.53 686.568 366.791 688.1 384.747Z" fill="#367CFF"/><path d="M695 465.459 695.042 465.459C695.317 465.436 695.521 465.194 695.498 464.919L690.94 410.165C690.925 409.896 690.695 409.691 690.427 409.706 690.418 409.706 690.41 409.707 690.401 409.708 690.126 409.731 689.921 409.972 689.944 410.248 689.944 410.248 689.944 410.248 689.944 410.248L694.5 465C694.521 465.26 694.739 465.46 695 465.459Z" fill="#0C0C0C"/><g><path d="M611.377 498.321 572.853 379.9C571.466 375.631 567.488 372.741 563 372.739L406.044 372.739C400.32 372.739 395.679 377.379 395.678 383.103 395.678 384.193 395.85 385.275 396.187 386.311L434.712 504.734C436.1 509.003 440.08 511.893 444.569 511.893L601.52 511.893C607.244 511.893 611.885 507.253 611.886 501.529 611.886 500.439 611.714 499.357 611.377 498.321Z" fill="#292A2E"/><path d="M611.377 498.321 572.853 379.9C571.466 375.631 567.488 372.741 563 372.739L406.044 372.739C400.32 372.739 395.679 377.379 395.678 383.103 395.678 384.193 395.85 385.275 396.187 386.311L434.712 504.734C436.1 509.003 440.08 511.893 444.569 511.893L601.52 511.893C607.244 511.893 611.885 507.253 611.886 501.529 611.886 500.439 611.714 499.357 611.377 498.321Z" fill="#292A2E"/><rect x="575.211" y="502.29" rx="4.74" width="114.544" height="9.602" fill="#292A2E"/><rect x="575.211" y="502.29" rx="4.74" width="114.544" height="9.602" fill="#292A2E"/><circle cx="503.782" cy="448.093" r="16.461" fill="#FFFFFF"/></g><g id="b_4_ha"><path d="M620.159 470.58 646.38 461.389 642.616 461.129C640.098 460.905 638.183 458.769 638.236 456.241 638.378 453.687 640.564 451.732 643.118 451.874 643.201 451.878 643.282 451.885 643.364 451.894L689.755 456.824 688.55 471.732C687.784 481.204 681.348 489.264 672.28 492.106L652.19 498.364C650.051 499.076 647.706 498.185 646.581 496.231 645.607 494.453 645.902 492.249 647.309 490.79 647.248 490.745 647.2 490.685 647.17 490.615 647.122 490.48 647.143 490.33 647.228 490.215L643.528 491.376C641.132 492.181 638.521 490.992 637.555 488.656 636.769 486.548 637.613 484.181 639.555 483.045 639.511 483.022 639.473 482.991 639.441 482.953L637.919 483.43C635.778 484.149 633.427 483.258 632.3 481.3 631.105 479.117 631.846 476.381 633.98 475.1 633.971 475.069 633.967 475.038 633.966 475.006L623.046 478.834C620.769 479.632 618.277 478.433 617.479 476.156 616.681 473.879 617.88 471.387 620.157 470.589Z" fill="#E98862"/><path d="M634.4 475.424C634.451 475.424 634.501 475.415 634.549 475.398L645.111 471.557C645.337 471.474 645.453 471.224 645.37 470.998 645.287 470.772 645.037 470.656 644.811 470.739L634.248 474.58C634.022 474.662 633.905 474.911 633.987 475.137 634.05 475.31 634.214 475.424 634.397 475.424Z" id="b_4_ha_sh" fill="#0A0A0A" opacity="0.2"/><path d="M639.737 483.1C639.787 483.1 639.836 483.092 639.883 483.075L648.208 480.12C648.436 480.045 648.561 479.799 648.486 479.571 648.411 479.343 648.165 479.218 647.937 479.293 647.931 479.295 647.924 479.298 647.918 479.3L639.592 482.255C639.366 482.335 639.247 482.584 639.327 482.81 639.389 482.984 639.553 483.1 639.737 483.1Z" id="b_4_ha_sh-2" fill="#0A0A0A" opacity="0.2"/><path d="M647.577 490.9C647.63 490.9 647.682 490.89 647.732 490.871L651.632 489.384C651.857 489.298 651.969 489.047 651.883 488.822 651.797 488.597 651.545 488.485 651.321 488.571L647.421 490.059C647.197 490.145 647.085 490.397 647.171 490.621 647.236 490.789 647.396 490.9 647.576 490.9Z" id="b_4_ha_sh-3" fill="#0A0A0A" opacity="0.2"/></g><path d="M669.222 448 779.222 447.926 820.838 346.414 882.915 372.514 830.993 492.994 830.486 494.194C825.282 506.189 813.139 513.656 800.086 512.886L667.558 505.056Z" fill="#367CFF"/><path d="M801.91 513.438C814.511 513.416 825.906 505.941 830.945 494.392L831.453 493.192 875.693 390.536 874.775 390.136 830.025 494C824.882 505.782 812.949 513.117 800.115 512.387L668.072 504.587 669.708 448.504 779.557 448.43 811.557 370.378 810.631 369.999 778.888 447.43 668.738 447.505 667.045 505.528 667.53 505.557 800.058 513.386C800.675 513.42 801.3 513.438 801.91 513.438Z" fill="#0C0C0C"/></g><g><rect x="11.006" y="729.252" width="419.473" height="2" fill="#494949" transform="matrix(0.100501 -0.994937 0.994937 0.100501 -527.996 876.489)"/><g><g><rect x="943.359" y="520.515" width="2" height="419.473" fill="#494949" transform="matrix(0.99493 -0.10057 0.10057 0.99493 -68.652 98.674)"/><rect x="769.061" y="520.515" width="2" height="419.473" fill="#494949" transform="matrix(0.99493 -0.10057 0.10057 0.99493 -69.535 81.145)"/></g><rect x="-163.291" y="729.252" width="419.473" height="2" fill="#494949" transform="matrix(0.100501 -0.994937 0.994937 0.100501 -684.777 703.073)"/></g><g><rect x="20.317" y="513.383" rx="8.194" width="947.391" height="16.387" fill="#292A2E" transform="matrix(-1 1.22465e-16 -1.22465e-16 -1 988.026 1043.15)"/><rect x="20.317" y="513.383" rx="8.194" width="947.391" height="16.387" fill="#FFFFFF" opacity="0.8" transform="matrix(-1 1.22465e-16 -1.22465e-16 -1 988.026 1043.15)"/><path d="M19.317 521.577C19.3203 516.501 23.4347 512.386 28.511 512.383L959.511 512.383C964.589 512.383 968.705 516.499 968.705 521.577 968.705 526.655 964.589 530.771 959.511 530.771L28.511 530.771C23.4347 530.768 19.3203 526.653 19.317 521.577ZM28.511 514.383C24.5379 514.383 21.317 517.604 21.317 521.577 21.317 525.55 24.5379 528.771 28.511 528.771L959.511 528.771C963.484 528.771 966.705 525.55 966.705 521.577 966.705 517.604 963.484 514.383 959.511 514.383Z" fill="#292A2E"/></g><g><rect x="20.317" y="513.383" rx="8.194" width="766.43" height="16.387" fill="#FFFFFF" transform="matrix(-1 1.22465e-16 -1.22465e-16 -1 807.065 1043.15)"/><path d="M19.317 521.577C19.3203 516.501 23.4347 512.386 28.511 512.383L778.554 512.383C783.632 512.383 787.748 516.499 787.748 521.577 787.748 526.655 783.632 530.771 778.554 530.771L28.511 530.771C23.4347 530.768 19.3203 526.653 19.317 521.577ZM28.511 514.383C24.5379 514.383 21.317 517.604 21.317 521.577 21.317 525.55 24.5379 528.771 28.511 528.771L778.554 528.771C782.527 528.771 785.748 525.55 785.748 521.577 785.748 517.604 782.527 514.383 778.554 514.383Z" fill="#292A2E"/></g></g></g></g><g><g><path d="M136.033 858.8C136.033 858.8 117.096 886.671 133.88 906.737 150.664 926.803 131.644 936.955 131.644 936.955L63.182 864.346 99.456 830.141Z" fill="#367CFF"/><path d="M235.414 410.676C235.414 410.676 299.337 630.537 284.271 662.676 269.459 694.276 134.271 878.867 134.271 878.867L85.654 836.5 205.893 641.506C205.893 641.506 170.3 528.9 151.057 469.845 139.457 434.245 119.939 435.379 118.085 397.983L118.085 397.983Z" fill="#262626"/><path d="M164.635 658.526 180.448 640.519 176.332 746.223 158.708 762.974 164.635 658.526Z" fill="#0A0A0A"/><path d="M162.016 503.69C162.016 503.69 154.445 458.749 162.542 468.375 188.871 499.675 191.492 595.993 191.492 595.993Z" fill="#0A0A0A"/><path d="M206.248 883.943C206.248 883.943 211.629 911.834 237.748 913.388 263.867 914.942 258.199 935.746 258.199 935.746L158.4 935.746 158.4 885.888Z" fill="#367CFF"/><path d="M57.249 405.167C57.249 405.167 56.807 403.112 56.549 415.128 56.364 423.613 52.918 453.646 64.832 501.016 87.15 589.767 154 901.743 154 901.743L219.575 901.192 157.735 402.44Z" fill="#262626"/></g><g><path d="M56.234 405.527 56.02 405.539C56.02 405.539 56.174 401.408 56.234 405.527Z" fill="#333333"/><g><path d="M415.191 208.936C414.382 207.335 412.651 206.418 410.872 206.649 410.88 206.572 410.863 206.494 410.824 206.427 410.742 206.321 410.61 206.268 410.477 206.286L413.407 204.186C415.218 202.945 415.836 200.559 414.857 198.594 413.823 196.68 411.507 195.862 409.5 196.7 409.507 196.659 409.479 196.619 409.473 196.577L410.673 195.714C412.37 194.542 413.008 192.336 412.198 190.439 411.234 188.305 408.722 187.357 406.588 188.321 406.333 188.436 406.09 188.576 405.863 188.739L403.086 190.73C403.078 190.713 403.086 190.694 403.075 190.679 403.064 190.664 403.034 190.658 403.018 190.641 404.331 189.164 404.447 186.974 403.297 185.366 401.986 183.256 398.959 183.687 397.163 184.974L380.815 196.267 383.737 191.347C384.958 189.383 384.45 186.809 382.574 185.456 380.63 184.154 377.998 184.675 376.696 186.62 376.654 186.683 376.613 186.747 376.574 186.813L360.627 213.67C356.735 220.222 358.762 228.68 365.2 232.757L365.2 232.757C372.546 237.409 381.981 237.138 389.048 232.072L413.736 214.377C415.424 213.12 416.027 210.868 415.191 208.936Z" fill="#E98862"/><g opacity="0.25"><path d="M386.912 201.886C387.037 202.058 387.276 202.099 387.451 201.978L402.984 191.219C403.162 191.096 403.206 190.852 403.083 190.674 402.959 190.497 402.716 190.453 402.538 190.576L387.005 201.335C386.827 201.458 386.782 201.701 386.905 201.879 386.905 201.879 386.905 201.879 386.905 201.879Z" fill="#0C0C0C"/></g><g opacity="0.25"><path d="M391.468 208.868C391.593 209.039 391.832 209.08 392.007 208.959L409.342 196.952C409.52 196.829 409.565 196.586 409.442 196.408 409.442 196.408 409.442 196.408 409.442 196.408 409.315 196.237 409.078 196.194 408.898 196.308L391.563 208.315C391.385 208.438 391.34 208.681 391.463 208.859 391.463 208.859 391.463 208.859 391.463 208.859Z" fill="#0C0C0C"/></g><g opacity="0.25"><path d="M396.359 216.458C396.484 216.629 396.723 216.67 396.898 216.549L410.726 206.972C410.904 206.849 410.948 206.605 410.825 206.428 410.701 206.25 410.458 206.206 410.28 206.329L396.452 215.906C396.274 216.029 396.229 216.272 396.352 216.45 396.352 216.45 396.352 216.45 396.352 216.45Z" fill="#0C0C0C"/></g></g><path d="M351.212 207.552 304.357 287.352 247.184 212.362 199.7 255.168 280.788 360.18 281.32 360.927C291.877 375.387 312.157 378.552 326.618 367.995 330.612 365.079 333.887 361.287 336.19 356.911L402.819 236.252Z" fill="#367CFF"/><path d="M299.763 296.948C299.434 296.948 299.168 296.682 299.168 296.353 299.168 296.259 299.19 296.166 299.233 296.082L303.826 287.082C304.013 286.808 304.386 286.738 304.66 286.924 304.886 287.078 304.979 287.366 304.886 287.624L300.293 296.624C300.19 296.822 299.986 296.947 299.763 296.948Z" fill="#0C0C0C"/><rect x="231.143" y="298.939" width="25.245" height="1.19" fill="#0C0C0C" transform="matrix(0.0566579 -0.998394 0.998394 0.0566579 -69.099 525.936)"/><g><g><g><path d="M92.908 104.488C92.908 104.488 90.708 132.543 84.278 142.656 65.753 171.771 60.1 204.7 78.114 222.146 96.128 239.592 212.275 241.176 221.533 201.635 229.327 168.346 213.471 164.574 209.921 136.997 208.315 124.519 203.803 98.341 203.803 98.341" fill="#0A0A0A"/><path d="M191.964 195.315C191.764 195.288 189.538 232.209 146.648 228.99 116.955 226.766 106.367 195.262 105.687 195.262 108.887 194.582 114.279 193.593 115.701 192.834 120.377 190.321 126.162 187.707 127.669 178.627 128.538 173.394 127.064 146.621 127.518 141.327L173.1 151.5C172.463 162.683 168.006 188.608 183.629 193.2 186.224 193.954 189.024 194.652 191.964 195.315Z" id="sk-2" fill="#E98862"/><path d="M173.735 182.6C173.022 180.299 172.562 177.927 172.364 175.526 171.864 170.047 171.965 164.53 172.664 159.073 163.4 157.822 154.673 153.998 147.473 148.036 146.627 151.162 141.973 164.819 143.261 167.79 145.7 173.405 157.142 182.6 173.735 182.6Z" id="sh-2" fill="#0C0C0C" opacity="0.52"/><path d="M167.694 170.98C149.706 172.51 126.54 165.054 122.001 141.069L117.901 119.428C113.362 95.443 122.28 73.616 144.862 69.342L144.862 69.342C167.445 65.068 188.004 81.317 192.543 105.302L194.356 114.883C196.1 124.086 199.79 168.249 167.694 170.98Z" fill="#E98862"/><circle cx="187.924" cy="113.097" r="2.831" fill="#0C0C0C"/><circle cx="158.922" cy="116.97" r="2.831" fill="#0C0C0C"/><path d="M174.838 137.724C174.853 137.723 174.867 137.721 174.882 137.718 175.797 137.538 176.701 137.308 177.59 137.028 178.918 136.601 180.657 135.894 180.431 134.695 180.173 133.328 173.638 119.295 172.894 117.695 172.758 117.405 172.413 117.279 172.123 117.415 171.833 117.551 171.707 117.896 171.843 118.186 174.63 124.163 179.117 133.991 179.291 134.911 179.141 135.337 176.937 136.148 174.666 136.578 174.352 136.64 174.147 136.945 174.209 137.259 174.266 137.553 174.539 137.755 174.838 137.724Z" fill="#0C0C0C"/><path d="M171.494 148.079C175.177 147.602 178.697 146.266 181.769 144.179 182.036 144.002 182.108 143.642 181.931 143.375 181.756 143.112 181.402 143.037 181.136 143.207 174.488 147.538 167.882 148.239 162.036 145.233 161.918 145.169 161.796 145.111 161.672 145.06 161.37 144.954 161.039 145.112 160.932 145.414 160.827 145.713 160.981 146.041 161.278 146.151 161.324 146.17 161.4 146.211 161.506 146.266 164.581 147.851 168.058 148.482 171.494 148.079Z" fill="#0C0C0C"/><path d="M99.839 126.97 120.083 123.259C135.414 117.059 140.051 90.514 140.051 90.514 140.051 90.514 158.673 108.664 203.803 98.341 203.803 98.341 194.754 35.404 128.082 53.704 106.582 59.604 91.154 81.269 93.076 110.223 94.423 130.514 99.839 126.97 99.839 126.97Z" fill="#0A0A0A"/><path d="M124.786 148.111C117.923 149.411 110.971 143.121 109.672 136.258 108.373 129.395 113.22 124.558 120.083 123.258L124.489 127.187 130.689 146.993Z" fill="#E98862"/><path d="M177.029 106.225C179.032 104.932 181.346 104.202 183.729 104.111 184.901 104.059 186.075 104.183 187.21 104.479 188.334 104.768 189.418 105.198 190.435 105.757 190.731 105.913 190.844 106.28 190.688 106.576 190.539 106.857 190.2 106.975 189.909 106.848L189.865 106.828C188.925 106.366 187.93 106.024 186.905 105.81 185.892 105.593 184.851 105.53 183.819 105.625 181.771 105.796 179.804 106.506 178.119 107.683L178.065 107.723C177.646 108 177.081 107.886 176.804 107.467 176.542 107.072 176.628 106.542 177 106.249Z" fill="#0C0C0C"/><path d="M158.975 110.476C156.979 109.987 154.89 110.035 152.919 110.615 151.923 110.9 150.975 111.334 150.108 111.902 149.229 112.472 148.425 113.151 147.716 113.922L147.684 113.954C147.448 114.191 147.064 114.191 146.827 113.955 146.601 113.73 146.589 113.368 146.798 113.128 147.544 112.239 148.399 111.447 149.343 110.772 150.295 110.086 151.344 109.547 152.456 109.172 154.71 108.397 157.13 108.242 159.464 108.724 159.956 108.83 160.268 109.314 160.163 109.806 160.057 110.297 159.573 110.61 159.081 110.504L159.044 110.495Z" fill="#0C0C0C"/><path d="M172.277 153.525C172.944 153.448 173.604 153.314 174.249 153.125 174.557 153.036 174.735 152.715 174.646 152.407 174.557 152.099 174.236 151.921 173.928 152.01 170.047 153.127 167.84 151.647 167.747 151.583 167.485 151.399 167.123 151.462 166.938 151.724 166.754 151.987 166.818 152.349 167.08 152.533 168.646 153.454 170.482 153.805 172.277 153.525Z" fill="#0C0C0C"/><path d="M120.127 123 119.927 122.44C145.576 113.232 139.304 88.062 139.238 87.809L139.813 87.658C139.88 87.918 146.3 113.608 120.127 123Z" fill="#0C0C0C"/></g><ellipse cx="156.214" cy="135.557" rx="5.393" ry="3.956" fill="#0C0C0C" opacity="0.1" transform="matrix(0.994262 -0.106976 0.106976 0.994262 -13.605 17.49)"/><path d="M187.982 131.181C188.222 133.35 190.811 134.851 193.772 134.536 194.284 134.481 194.789 134.373 195.278 134.213 195.445 131.632 195.478 129.148 195.433 126.847 194.614 126.633 193.763 126.573 192.922 126.671 189.96 126.985 187.75 129 187.982 131.181Z" fill="#0C0C0C" opacity="0.1"/></g><path d="M245.253 276.6C243.902 292.471 237.33 391.491 236.032 411.041L56.605 411.041C55.594 393.409 51.466 316.309 47.631 281.829 43.971 248.929 36.789 232.454 42.053 222.729 50.653 206.829 74.162 197.645 90.19 195.475 99.978 194.15 114.699 193.2 114.699 193.2 114.699 193.2 115.946 218.415 145.666 219.818 186.125 221.727 183.423 193.2 183.624 193.2 190.178 193.2 227.624 197.349 236.781 202.779 261.743 217.556 248.121 242.962 245.253 276.6Z" fill="#367CFF"/><path d="M356.814 287.684 340.247 368.207C339.553 371.576 336.602 374.003 333.162 374.034L219.084 375.005C215.052 375.038 211.758 371.796 211.725 367.764 211.721 367.251 211.771 366.74 211.874 366.237L228.442 285.714C229.136 282.345 232.087 279.918 235.527 279.887L349.605 278.916C353.637 278.884 356.931 282.126 356.963 286.158 356.967 286.67 356.917 287.182 356.814 287.684Z" fill="#292A2E"/><g><path d="M250.439 344.881C250.566 347.074 249.057 349.024 246.903 349.452L243.392 350.226C243.519 350.268 243.617 350.371 243.653 350.5 243.662 350.575 243.645 350.65 243.606 350.714 245.336 351.2 246.569 352.729 246.677 354.523 246.687 356.623 245.254 358.456 243.213 358.952L213.558 365.535C212.042 365.876 210.493 366.047 208.939 366.047 201.913 366.046 195.337 362.587 191.356 356.797 187.032 350.523 188.489 341.946 194.642 337.452L219.868 319.012C220.423 318.605 221.069 318.34 221.749 318.238L219.427 329.512 220.046 329.369 220.177 329.345 239.523 325.404C241.677 324.928 244.63 325.714 245.011 328.166 245.431 330.099 244.464 332.067 242.677 332.916 242.689 332.928 242.713 332.94 242.713 332.964 242.713 332.988 242.701 333 242.701 333.023L246.046 332.285C248.332 331.779 250.595 333.221 251.102 335.507 251.162 335.778 251.195 336.055 251.201 336.333 251.201 338.396 249.747 340.173 247.725 340.583L246.284 340.904C246.273 340.952 246.284 341.004 246.261 341.035 248.436 341.051 250.243 342.715 250.439 344.881Z" fill="#E98862"/><g opacity="0.25"><path d="M223.443 336.931C223.489 337.14 223.694 337.273 223.903 337.231L242.413 333.431C242.625 333.387 242.761 333.181 242.717 332.969 242.673 332.757 242.467 332.621 242.255 332.665L223.745 336.465C223.535 336.51 223.401 336.716 223.445 336.926Z" fill="#0C0C0C"/></g><g opacity="0.25"><path d="M224.892 345.141C224.94 345.348 225.144 345.479 225.352 345.436L246.009 341.2C246.219 341.155 246.353 340.948 246.309 340.738 246.259 340.531 246.056 340.399 245.847 340.438L225.19 344.674C224.98 344.72 224.847 344.926 224.89 345.136Z" fill="#0C0C0C"/></g><g opacity="0.25"><path d="M226.41 354.042C226.455 354.251 226.66 354.385 226.87 354.342L243.347 350.963C243.559 350.923 243.698 350.718 243.658 350.506 243.618 350.294 243.413 350.154 243.201 350.195 243.197 350.195 243.194 350.196 243.19 350.197L226.712 353.576C226.502 353.621 226.368 353.828 226.412 354.038Z" fill="#0C0C0C"/></g></g><path d="M211.722 377.269 50.836 406.343C32.8905 408.296 16.7598 395.331 14.807 377.386 14.4823 374.402 14.5701 371.388 15.068 368.428L37.592 234.551C40.5879 216.75 57.4468 204.749 75.2475 207.744 93.0482 210.74 105.05 227.599 102.054 245.4L86.7 337.556 204.653 322.743Z" id="b_4_b" fill="#367CFF"/><g id="b_4_b-2"><path d="M50.835 406.938C50.5045 406.914 50.2561 406.627 50.2801 406.296 50.299 406.037 50.4826 405.819 50.735 405.757L211.063 376.784 204.139 323.408 86.77 338.147C86.5845 338.171 86.3987 338.105 86.27 337.969 86.1393 337.834 86.0807 337.644 86.112 337.459L95.875 278.559C95.9246 278.238 96.2249 278.018 96.5459 278.068 96.5506 278.068 96.5553 278.069 96.56 278.07 96.8837 278.123 97.1028 278.429 97.0494 278.753 97.0492 278.753 97.0491 278.754 97.049 278.755L87.416 336.868 204.577 322.154C204.902 322.116 205.197 322.344 205.242 322.668L212.315 377.194C212.353 377.508 212.141 377.797 211.831 377.856L50.942 406.929C50.9066 406.935 50.8709 406.938 50.835 406.938Z" fill="#0C0C0C"/></g><rect x="76.281" y="337.792" width="10.481" height="1.191" fill="#0C0C0C" transform="matrix(0.987428 -0.158072 0.158072 0.987428 -52.463 17.14)"/></g></g></g><g id="b_1_idea"><path d="M631.92 90.887C631.978 40.749 591.379 0.0574188 541.241-0.000116953 540.508-0.000958277 539.775 0.00708164 539.042 0.024001 489.905 1.129 450.215 41.9 450.355 91.05 450.402 116.708 461.336 141.14 480.439 158.269 500.763 176.55 512.829 202.262 512.797 229.598L512.797 229.698 569.157 229.763 569.157 229.663C569.188 202.363 581.25 176.663 601.61 158.469 620.891 141.296 631.919 116.706 631.92 90.887Z" id="b_1_idea-2" fill="#0CBC8B"/><path d="M568.3 99.9C567.367 98.7 565.745 97.954 563.482 97.7 559.646 97.271 555.266 99.444 551.503 103.678L551.138 104.078 550.854 103.624C550.349 102.805 549.774 102.032 549.135 101.313 546.426 98.279 541.544 95.181 533.635 97.622 530.977 98.3959 528.533 99.7695 526.49 101.637L526.214 101.897 525.939 101.637C525.306 101.061 524.618 100.548 523.886 100.104 519.442 97.395 514.486 98.044 511.113 99.066 509.177 99.6566 507.984 101.598 508.331 103.592L530.423 229.853C530.499 230.295 530.919 230.591 531.361 230.515 531.803 230.439 532.099 230.019 532.023 229.577L509.927 103.32C509.717 102.131 510.426 100.973 511.581 100.62 514.639 99.696 519.107 99.095 523.041 101.496 523.687 101.886 524.293 102.34 524.85 102.85L525.126 103.102 524.898 103.394C523.016 105.878 521.966 108.892 521.898 112.007 521.687 117.295 523.982 122.583 527.015 123.783 528.208 124.272 529.574 124.056 530.559 123.224 531.589 122.38 533.159 120.15 532.149 114.708 531.249 109.915 529.7 106.108 527.534 103.37L527.299 103.078 527.575 102.818C529.444 101.117 531.681 99.871 534.111 99.176 539.716 97.449 544.493 98.552 547.916 102.396 548.685 103.262 549.354 104.212 549.911 105.227L550.04 105.454 549.886 105.665C549.586 106.065 549.294 106.476 549.01 106.898 545.734 111.764 543.122 118.69 545.134 122.405 545.944 123.876 547.539 124.736 549.213 124.605L549.286 124.605C550.957 124.581 552.36 123.47 553.228 121.491 554.928 117.622 554.428 111.061 552.052 105.879L551.946 105.652 552.109 105.457C555.393 101.483 559.124 99.269 562.465 99.269 562.749 99.269 563.025 99.285 563.301 99.309 567.567 99.796 567.501 102.009 567.486 102.261L549.448 229.63C549.385 230.073 549.693 230.483 550.136 230.546 550.137 230.546 550.137 230.546 550.138 230.546 550.577 230.593 550.978 230.292 551.054 229.857L569.083 102.509C569.17 101.571 568.89 100.635 568.3 99.9ZM530.551 115C531.443 119.793 530.137 121.472 529.529 121.967 529.193 122.257 528.765 122.418 528.321 122.421 528.079 122.418 527.84 122.371 527.615 122.283 525.523 121.447 523.315 117.052 523.515 112.072 523.598 109.456 524.425 106.918 525.9 104.756L526.216 104.302 526.557 104.748C528.638 107.824 530.002 111.327 530.551 115ZM551.743 120.839C551.127 122.239 550.292 122.964 549.262 122.98L549.108 122.98C548.064 123.094 547.055 122.561 546.561 121.634 545.161 119.039 546.788 113.094 550.361 107.806L550.799 107.157 551.123 107.822C552.855 112.355 553.114 117.708 551.743 120.838Z" fill="#FFFFFF"/><path d="M512.778 229.73 569.138 229.73 569.138 229.73 569.138 233.024C569.138 248.587 556.521 261.204 540.958 261.204L540.958 261.204C525.395 261.204 512.778 248.587 512.778 233.024L512.778 229.73 512.778 229.73Z" id="b_1_idea-3" fill="#262626" transform="matrix(1 0.001 -0.001 1 0.284 -0.625)"/></g></g></svg>