<svg viewBox="0 0 918.777 518.786" xmlns="http://www.w3.org/2000/svg" xmlns:xlink="http://www.w3.org/1999/xlink" id="Layer_2" overflow="hidden"><g id="Layer_2-2"><g><path d="M856.044 90.157 842.084 90.157C839.815 90.157 837.773 88.726 837.029 86.58 835.956 83.492 834.685 80.499 833.245 77.609 832.21 75.548 832.633 73.062 834.262 71.434L844.183 61.513C846.282 59.414 846.282 56.006 844.183 53.907L822.749 32.483C820.65 30.384 817.252 30.384 815.143 32.483L805.043 42.583C803.433 44.193 800.967 44.626 798.915 43.618 796.082 42.234 793.145 41.02 790.123 39.994 787.949 39.26 786.499 37.208 786.499 34.92L786.499 20.612C786.499 17.647 784.099 15.237 781.124 15.237L750.823 15.237C747.848 15.237 745.448 17.647 745.448 20.612L745.448 34.92C745.448 37.207 743.998 39.259 741.824 39.994 738.802 41.02 735.866 42.234 733.032 43.618 730.98 44.625 728.514 44.192 726.904 42.583L716.804 32.483C714.705 30.384 711.297 30.384 709.198 32.483L687.765 53.907C685.666 56.006 685.666 59.414 687.765 61.513L697.686 71.434C699.314 73.062 699.738 75.548 698.703 77.609 697.263 80.499 695.992 83.492 694.928 86.58 694.175 88.726 692.132 90.157 689.864 90.157L675.904 90.157C672.929 90.157 670.529 92.567 670.529 95.532L670.529 125.842C670.529 128.807 672.929 131.217 675.904 131.217L689.496 131.217C691.821 131.217 693.873 132.704 694.598 134.907 695.652 138.079 696.914 141.157 698.354 144.122 699.361 146.193 698.956 148.669 697.337 150.288L687.764 159.861C685.665 161.96 685.665 165.358 687.764 167.457L709.197 188.89C711.296 190.989 714.704 190.989 716.803 188.89L726.188 179.505C727.826 177.867 730.33 177.472 732.401 178.507 735.423 180.013 738.557 181.331 741.786 182.423 743.97 183.167 745.448 185.209 745.448 187.515L745.448 200.75C745.448 203.725 747.848 206.134 750.823 206.134L781.124 206.134C784.099 206.134 786.499 203.724 786.499 200.75L786.499 187.515C786.499 185.209 787.977 183.166 790.161 182.423 793.39 181.331 796.524 180.013 799.546 178.507 801.617 177.472 804.121 177.867 805.759 179.505L815.144 188.89C817.253 190.989 820.651 190.989 822.75 188.89L844.184 167.457C846.283 165.358 846.283 161.96 844.184 159.861L834.611 150.288C832.992 148.669 832.587 146.193 833.594 144.122 835.034 141.157 836.296 138.079 837.35 134.907 838.075 132.704 840.127 131.217 842.452 131.217L856.044 131.217C859.019 131.217 861.419 128.807 861.419 125.842L861.419 95.532C861.419 92.567 859.019 90.157 856.044 90.157ZM765.98 155.474C741.243 155.474 721.183 135.424 721.183 110.687 721.183 85.95 741.242 65.89 765.98 65.89 790.718 65.89 810.767 85.949 810.767 110.687 810.767 135.425 790.717 155.474 765.98 155.474Z" fill="#F4F4F4"/><path d="M262.408 417.142 252.154 417.142C250.488 417.142 248.987 416.091 248.441 414.515 247.653 412.247 246.719 410.048 245.662 407.926 244.901 406.412 245.213 404.586 246.409 403.39L253.697 396.103C255.239 394.561 255.239 392.058 253.697 390.516L237.954 374.779C236.412 373.237 233.916 373.237 232.367 374.779L224.948 382.198C223.766 383.38 221.954 383.698 220.447 382.959 218.366 381.943 216.209 381.051 213.989 380.297 212.392 379.758 211.327 378.25 211.327 376.57L211.327 366.061C211.327 363.883 209.564 362.113 207.379 362.113L185.122 362.113C182.937 362.113 181.174 363.883 181.174 366.061L181.174 376.57C181.174 378.25 180.109 379.757 178.512 380.297 176.293 381.051 174.135 381.943 172.054 382.959 170.547 383.699 168.735 383.381 167.553 382.198L160.134 374.779C158.592 373.237 156.089 373.237 154.547 374.779L138.804 390.516C137.262 392.058 137.262 394.561 138.804 396.103L146.091 403.39C147.287 404.586 147.598 406.411 146.838 407.926 145.78 410.049 144.847 412.247 144.065 414.515 143.512 416.091 142.011 417.142 140.345 417.142L130.091 417.142C127.906 417.142 126.143 418.912 126.143 421.09L126.143 443.353C126.143 445.531 127.906 447.301 130.091 447.301L140.075 447.301C141.783 447.301 143.29 448.393 143.822 450.011 144.596 452.341 145.523 454.602 146.581 456.78 147.321 458.301 147.023 460.12 145.834 461.309L138.802 468.341C137.26 469.883 137.26 472.379 138.802 473.921L154.545 489.664C156.087 491.206 158.59 491.206 160.132 489.664L167.025 482.771C168.228 481.568 170.067 481.278 171.588 482.038 173.807 483.144 176.11 484.112 178.481 484.914 180.085 485.46 181.171 486.961 181.171 488.655L181.171 498.376C181.171 500.561 182.934 502.331 185.119 502.331L207.376 502.331C209.561 502.331 211.324 500.561 211.324 498.376L211.324 488.655C211.324 486.961 212.41 485.461 214.014 484.914 216.386 484.112 218.688 483.144 220.907 482.038 222.428 481.277 224.267 481.568 225.47 482.771L232.363 489.664C233.912 491.206 236.408 491.206 237.95 489.664L253.693 473.921C255.235 472.379 255.235 469.883 253.693 468.341L246.661 461.309C245.472 460.12 245.174 458.301 245.914 456.78 246.972 454.602 247.898 452.341 248.673 450.011 249.205 448.393 250.713 447.301 252.42 447.301L262.404 447.301C264.589 447.301 266.352 445.531 266.352 443.353L266.352 421.09C266.352 418.912 264.589 417.142 262.404 417.142ZM196.254 465.119C178.084 465.119 163.35 450.392 163.35 432.222 163.35 414.052 178.084 399.318 196.254 399.318 214.424 399.318 229.151 414.052 229.151 432.222 229.151 450.392 214.424 465.119 196.254 465.119Z" fill="#F4F4F4"/><path d="M185.513 235.216 171.553 235.216C169.284 235.216 167.242 233.785 166.498 231.639 165.425 228.551 164.154 225.558 162.714 222.668 161.679 220.607 162.102 218.121 163.731 216.493L173.652 206.572C175.751 204.473 175.751 201.065 173.652 198.966L152.218 177.542C150.119 175.443 146.721 175.443 144.612 177.542L134.512 187.642C132.902 189.252 130.436 189.685 128.384 188.677 125.551 187.293 122.614 186.079 119.592 185.053 117.418 184.319 115.968 182.267 115.968 179.979L115.968 165.671C115.968 162.706 113.568 160.296 110.593 160.296L80.292 160.296C77.317 160.296 74.917 162.706 74.917 165.671L74.917 179.979C74.917 182.266 73.467 184.318 71.293 185.053 68.271 186.079 65.335 187.293 62.501 188.677 60.449 189.684 57.983 189.251 56.373 187.642L46.273 177.542C44.174 175.443 40.766 175.443 38.667 177.542L17.234 198.966C15.135 201.065 15.135 204.473 17.234 206.572L27.155 216.493C28.783 218.121 29.207 220.607 28.172 222.668 26.732 225.558 25.461 228.551 24.397 231.639 23.644 233.785 21.601 235.216 19.333 235.216L5.375 235.216C2.4 235.216 0 237.626 0 240.591L0 270.901C0 273.866 2.4 276.276 5.375 276.276L18.967 276.276C21.292 276.276 23.344 277.763 24.069 279.966 25.123 283.138 26.385 286.216 27.825 289.181 28.832 291.252 28.427 293.728 26.808 295.347L17.235 304.92C15.136 307.019 15.136 310.417 17.235 312.516L38.668 333.949C40.767 336.048 44.175 336.048 46.274 333.949L55.659 324.564C57.297 322.926 59.801 322.531 61.872 323.566 64.894 325.072 68.028 326.39 71.257 327.482 73.441 328.226 74.919 330.268 74.919 332.574L74.919 345.809C74.919 348.784 77.319 351.193 80.294 351.193L110.595 351.193C113.57 351.193 115.97 348.783 115.97 345.809L115.97 332.574C115.97 330.268 117.448 328.225 119.632 327.482 122.861 326.39 125.995 325.072 129.017 323.566 131.088 322.531 133.592 322.926 135.23 324.564L144.615 333.949C146.724 336.048 150.122 336.048 152.221 333.949L173.655 312.516C175.754 310.417 175.754 307.019 173.655 304.92L164.082 295.347C162.463 293.728 162.058 291.252 163.065 289.181 164.505 286.216 165.767 283.138 166.821 279.966 167.546 277.763 169.598 276.276 171.923 276.276L185.515 276.276C188.49 276.276 190.89 273.866 190.89 270.901L190.89 240.591C190.89 237.626 188.49 235.216 185.515 235.216ZM95.449 300.533C70.712 300.533 50.652 280.483 50.652 255.746 50.652 231.009 70.711 210.949 95.449 210.949 120.187 210.949 140.236 231.008 140.236 255.746 140.236 280.484 120.186 300.533 95.449 300.533Z" fill="#F4F4F4"/><g><g><g><rect x="117.936" y="0.779" rx="23.379" ry="23.379" width="572.541" height="431.712" fill="#FFFFFF" transform="matrix(-1 -1.22465e-16 1.22465e-16 -1 808.413 433.27)"/><path d="M117.156 409.112 117.156 24.158C117.156 10.838 127.994 0 141.315 0L667.099 0C680.42 0 691.257 10.838 691.257 24.158L691.257 409.112C691.257 422.433 680.419 433.27 667.099 433.27L141.315 433.27C127.994 433.27 117.157 422.432 117.157 409.112ZM141.315 1.559C128.854 1.559 118.715 11.697 118.715 24.159L118.715 409.113C118.715 421.575 128.853 431.713 141.315 431.713L667.099 431.713C679.561 431.713 689.699 421.575 689.699 409.113L689.699 24.158C689.699 11.696 679.561 1.558 667.099 1.558L141.315 1.558Z" fill="#292A2E"/></g><path d="M117.936 24.155 117.936 47.68C117.936 47.68 690.474 47.68 690.474 47.68L690.474 24.155C690.474 11.243 680.007 0.776 667.095 0.776L141.315 0.776C128.403 0.776 117.936 11.243 117.936 24.155Z" fill="#292A2E"/></g><g><path d="M218.714 261.937C183.809 261.937 155.412 233.54 155.412 198.635 155.412 163.73 183.809 135.333 218.714 135.333 253.619 135.333 282.016 163.73 282.016 198.635 282.016 233.54 253.619 261.937 218.714 261.937ZM218.714 137.333C184.912 137.333 157.412 164.833 157.412 198.635 157.412 232.437 184.912 259.937 218.714 259.937 252.516 259.937 280.016 232.437 280.016 198.635 280.016 164.833 252.516 137.333 218.714 137.333Z" fill="#292A2E"/><path d="M404.206 261.937C369.302 261.937 340.905 233.54 340.905 198.635 340.905 163.73 369.302 135.333 404.206 135.333 439.11 135.333 467.508 163.73 467.508 198.635 467.508 233.54 439.111 261.937 404.206 261.937ZM404.206 137.333C370.404 137.333 342.905 164.833 342.905 198.635 342.905 232.437 370.405 259.937 404.206 259.937 438.007 259.937 465.508 232.437 465.508 198.635 465.508 164.833 438.008 137.333 404.206 137.333Z" fill="#292A2E"/><path d="M589.699 261.937C554.794 261.937 526.397 233.54 526.397 198.635 526.397 163.73 554.794 135.333 589.699 135.333 624.604 135.333 653.001 163.73 653.001 198.635 653.001 233.54 624.604 261.937 589.699 261.937ZM589.699 137.333C555.897 137.333 528.397 164.833 528.397 198.635 528.397 232.437 555.897 259.937 589.699 259.937 623.501 259.937 651.001 232.437 651.001 198.635 651.001 164.833 623.501 137.333 589.699 137.333Z" fill="#292A2E"/><g><path d="M629.104 207.756 629.104 168.343 583.629 168.343 583.629 199.267 617.253 199.267 629.104 207.756Z" fill="#0CBC8B" opacity="0.6"/><path d="M550.294 236.398 550.294 183.094 611.798 183.094 611.798 224.917 566.323 224.917 550.294 236.398Z" fill="#0CBC8B"/><circle cx="564.235" cy="204.415" r="5.33" fill="#FFFFFF"/><circle cx="581.046" cy="204.415" r="5.33" fill="#FFFFFF"/><circle cx="597.857" cy="204.415" r="5.33" fill="#FFFFFF"/></g><path d="M250.252 218.005C251.523 218.853 251.906 220.551 251.119 221.864L247.671 227.609C246.756 229.163 245.278 230.306 243.545 230.799 237.814 232.372 225.176 232.688 204.918 212.432 184.662 192.174 184.978 179.534 186.551 173.805 187.044 172.07 188.186 170.592 189.738 169.677L195.485 166.229C196.795 165.444 198.493 165.825 199.341 167.098L208.504 180.842C209.333 182.09 209.062 183.767 207.879 184.689L202.733 188.689C201.618 189.549 201.297 191.096 201.98 192.329 203.49 195.045 204.921 198.246 212.007 205.341 219.093 212.436 222.303 213.858 225.019 215.368 226.253 216.051 227.797 215.73 228.657 214.613L232.66 209.47C233.582 208.285 235.26 208.013 236.507 208.845L250.251 218.005Z" fill="#0CBC8B"/><g><path d="M436.827 220.885 371.842 220.885C370.32 220.893 369.08 219.665 369.072 218.144L368.845 179.196C368.837 177.839 369.931 176.733 371.288 176.726L436.873 176.389C438.229 176.382 439.333 177.475 439.341 178.83L439.568 218.115C439.576 219.637 438.348 220.877 436.827 220.885Z" fill="#0CBC8B" opacity="0.6"/><path d="M438.642 177.125C434.762 179.975 406.582 200.715 406.552 200.735 404.662 201.605 403.432 201.575 401.562 200.635L369.512 177.505C369.952 177.025 370.592 176.735 371.292 176.725L436.872 176.385C437.562 176.385 438.192 176.665 438.642 177.125Z" fill="#0CBC8B"/></g></g></g><g><circle cx="707.619" cy="202.377" r="22.79" fill="#367CFF"/><path d="M696.939 200.218C695.778 200.218 694.672 199.54 694.183 198.406 693.772 197.453 684.232 174.685 694.594 141.285 705.819 105.106 744.913 104.687 745.307 104.687 746.964 104.687 748.307 106.03 748.307 107.687 748.307 109.344 746.966 110.685 745.311 110.687L745.311 110.687C743.883 110.691 710.223 111.158 700.324 143.063 690.613 174.366 699.6 195.816 699.692 196.029 700.349 197.55 699.648 199.316 698.126 199.972 697.739 200.139 697.335 200.219 696.939 200.219Z" fill="#367CFF"/><g><g><circle cx="699.368" cy="202.377" r="22.79" fill="#367CFF"/><circle cx="699.368" cy="202.377" r="22.79" fill="#FFFFFF" opacity="0.3"/><circle cx="704.836" cy="202.377" r="22.79" fill="#367CFF"/></g><path d="M812.337 161.371C812.337 161.371 819.658 196.456 828.403 207.071 853.578 237.629 864.628 274.335 846.563 296.726 828.498 319.117 702.651 337.2 686.567 293.471 673.026 256.656 687.553 250.137 687.73 218.237 687.81 203.803 689.808 173.361 689.808 173.361" fill="#0A0A0A"/><path d="M707.158 274.908C707.388 274.878 709.941 317.238 759.151 313.545 793.219 310.993 805.366 274.848 806.147 274.848 802.474 274.067 796.289 272.932 794.657 272.061 789.293 269.179 782.655 266.179 780.926 255.762 779.929 249.758 781.62 219.04 781.1 212.965L728.806 224.637C729.537 237.467 734.651 267.212 716.726 272.476 713.744 273.347 710.531 274.147 707.158 274.908Z" id="sk" fill="#FF9E85"/><path d="M728.073 260.32C728.814 257.956 729.254 255.9 729.646 252.204 730.346 245.594 729.974 239.518 729.304 233.327 739.868 231.921 750.011 227.477 758.206 220.665 759.177 224.251 764.517 239.921 763.039 243.329 760.244 249.771 747.11 260.321 728.073 260.321Z" id="sh" fill="#0C0C0C" opacity="0.5"/><path d="M737.383 251.015C758.082 250.237 783.417 238.499 785.224 210.55L786.855 185.332C788.662 157.383 775.448 133.777 749.133 132.076L749.133 132.076C722.818 130.374 701.684 151.759 699.876 179.708L699.154 190.873C698.461 201.597 700.451 252.404 737.382 251.016Z" fill="#FF9E85"/><g><path d="M702.228 179.913C702.323 180.809 705.696 180.716 710.184 180.01 714.672 179.304 718.646 178.468 718.48 177.358 718.27 175.956 714.443 175.395 709.955 176.101 705.467 176.807 702.077 178.505 702.227 179.914Z" id="e1_eb" fill="#0A0A0A"/><g><circle cx="708.469" cy="188.501" r="2.879" id="e1_eye" fill="#0A0A0A"/><g id="e1_n"><path d="M724.066 212.138C724.649 212.138 725.148 211.698 725.21 211.106 725.276 210.473 724.817 209.907 724.184 209.841L718.085 209.203 721.839 197.02C722.026 196.412 721.685 195.768 721.076 195.58 720.469 195.393 719.824 195.734 719.636 196.341L715.47 209.863C715.369 210.192 715.421 210.55 715.611 210.837 715.801 211.124 716.109 211.312 716.452 211.348L723.945 212.131C723.985 212.135 724.026 212.137 724.065 212.137Z" fill="#0A0A0A"/></g><g id="e1_m"><path d="M728.486 225.181C738.926 225.181 742.032 218.873 742.171 218.577 742.442 218.002 742.196 217.316 741.621 217.044 741.05 216.773 740.366 217.017 740.091 217.588 739.961 217.856 736.773 224.052 725.285 222.679 724.641 222.599 724.079 223.055 724.004 223.686 723.929 224.318 724.38 224.891 725.011 224.966 726.25 225.114 727.408 225.182 728.485 225.182Z" fill="#0A0A0A"/></g><path d="M737.199 179.311C736.923 180.169 740.043 181.452 744.432 182.628 748.821 183.804 752.792 184.652 753.091 183.57 753.468 182.204 750.198 180.138 745.809 178.962 741.421 177.786 737.634 177.963 737.199 179.312Z" id="e1_eb-2" fill="#0A0A0A"/><circle cx="737.342" cy="190.337" r="2.879" id="e1_eye-2" fill="#0A0A0A"/></g></g><path d="M808.161 191.364 779.198 201.035C760.87 196.119 757.26 155.485 757.26 155.485 757.26 155.485 742.597 178.764 689.759 173.334 689.759 173.334 687.185 99.366 765.73 111.891 790.989 115.919 811.645 138.105 813.514 171.346 814.824 194.641 808.16 191.364 808.16 191.364Z" fill="#0A0A0A"/><path d="M783.039 218.959C791.036 219.476 798.072 211.34 798.589 203.343 799.106 195.346 792.908 190.517 784.911 189.999L780.444 195.091 776.163 218.514 783.039 218.959Z" fill="#FF9E85"/></g><g><path d="M535.513 291.214 519.467 260.955C517.99 258.17 514.428 257.201 511.722 258.952 509.322 260.504 508.684 263.756 510.023 266.281L513.464 272.77 493.278 257.332C491.064 255.577 487.224 254.839 485.418 257.452 483.819 259.469 483.891 262.269 485.433 264.197 485.414 264.216 485.389 264.23 485.373 264.253 485.36 264.27 485.356 264.291 485.345 264.31L481.93 261.603C479.297 259.516 475.323 260.268 473.707 263.434 472.524 265.752 473.315 268.604 475.354 270.221L476.807 271.373C476.793 271.431 476.789 271.49 476.797 271.548 474.466 270.443 471.574 271.12 470.018 273.369 468.368 275.753 469.045 279.05 471.317 280.851L474.926 283.712C474.77 283.706 474.614 283.764 474.507 283.898 474.447 283.977 474.422 284.068 474.415 284.161 472.149 283.773 469.72 284.836 468.58 287.201 467.471 289.501 468.286 292.28 470.287 293.867L500.74 318.008C509.455 324.917 521.49 325.847 531.163 320.359L531.163 320.359C539.64 315.549 542.753 304.868 538.187 296.257L535.513 291.215Z" fill="#FF9E85"/><g fill="none" opacity="0.2"><path d="M505.337 279.577C505.167 279.788 504.859 279.826 504.643 279.66L485.465 264.954C485.246 264.786 485.205 264.472 485.373 264.253 485.514 264.035 485.855 263.993 486.074 264.161L505.252 278.867C505.471 279.035 505.512 279.349 505.344 279.568L505.337 279.577Z" fill="#0C0C0C"/></g><g fill="none" opacity="0.2"><path d="M499.084 288.214C498.914 288.425 498.606 288.463 498.39 288.297L476.987 271.886C476.768 271.718 476.727 271.404 476.895 271.185 477.05 270.986 477.377 270.925 477.596 271.093L498.999 287.504C499.218 287.672 499.259 287.986 499.091 288.205L499.084 288.214Z" fill="#0C0C0C"/></g><g fill="none" opacity="0.2"><path d="M492.367 297.608C492.197 297.819 491.889 297.857 491.673 297.691L474.6 284.6C474.381 284.432 474.34 284.118 474.508 283.899 474.682 283.681 474.99 283.639 475.209 283.807L492.282 296.898C492.501 297.066 492.542 297.38 492.374 297.599L492.367 297.608Z" fill="#0C0C0C"/></g></g><path d="M649.812 292.891 597.923 383.844 544.892 287.01 481.517 322.393 566.835 472.314C569.49 476.938 573.319 481.17 578.085 484.292 594.273 494.901 615.997 490.377 626.605 474.189L627.043 473.52 718.044 334.656 649.812 292.89Z" fill="#367CFF"/><path d="M535.513 291.214 519.467 260.955C517.99 258.17 514.428 257.201 511.722 258.952 509.322 260.504 508.684 263.756 510.023 266.281L513.464 272.77 518.814 284.485" fill="#FF9E85"/><path d="M760.07 302.956C794.162 301.349 795.597 272.412 795.597 272.412 795.597 272.412 812.489 273.504 823.718 275.023 842.102 277.51 854.23 283.744 863.881 293.395 872.859 302.373 878.325 312.087 872.541 374.106 868.353 419.012 871.301 517.785 871.301 517.785L665.551 517.785C665.551 517.785 653.213 388.32 651.493 368.106 648.21 329.517 634.769 307.766 653.557 287.888 667.182 273.472 702.354 272.412 716.515 272.414 716.746 272.414 713.642 305.144 760.07 302.955Z" id="b_1_b" fill="#367CFF"/><path d="M652.691 361.654C652.673 361.379 652.436 361.168 652.161 361.186 651.885 361.204 651.676 361.441 651.693 361.716L655.876 428.544C655.892 428.795 656.091 428.992 656.335 429.011 656.358 429.013 656.382 429.013 656.406 429.011 656.682 428.993 656.891 428.756 656.874 428.481" fill="#0C0C0C"/><g><path d="M698.022 459.207 664.74 451.12C661.676 450.376 658.588 452.396 658.1 455.583 657.668 458.408 659.676 461.044 662.453 461.719L669.59 463.453 644.644 468.301C641.861 468.792 638.76 471.174 639.516 474.259 639.963 476.794 642.105 478.599 644.57 478.726 644.572 478.753 644.565 478.781 644.572 478.808 644.576 478.829 644.589 478.846 644.596 478.866L640.305 479.623C636.996 480.207 634.921 483.678 636.216 486.988 637.164 489.412 639.822 490.713 642.385 490.262L644.211 489.94C644.245 489.989 644.287 490.031 644.335 490.064 641.961 491.074 640.548 493.686 641.196 496.343 641.884 499.16 644.799 500.842 647.654 500.339L652.19 499.539C652.082 499.652 652.022 499.807 652.051 499.975 652.07 500.072 652.122 500.151 652.186 500.218 650.391 501.655 649.574 504.178 650.586 506.6 651.57 508.957 654.189 510.192 656.704 509.748L694.974 502.999C705.926 501.068 714.611 492.684 716.928 481.807L716.928 481.807C718.959 472.274 713.037 462.856 703.566 460.554L698.02 459.206Z" fill="#FF9E85"/><g fill="none" opacity="0.2"><path d="M669.287 474.049C669.332 474.316 669.156 474.572 668.889 474.623L645.16 479.203C644.889 479.255 644.627 479.078 644.574 478.807 644.505 478.556 644.699 478.273 644.97 478.221L668.699 473.641C668.97 473.589 669.232 473.766 669.285 474.037L669.287 474.049Z" fill="#0C0C0C"/></g><g fill="none" opacity="0.2"><path d="M671.595 484.459C671.64 484.726 671.464 484.982 671.197 485.033L644.715 490.145C644.444 490.197 644.182 490.02 644.129 489.749 644.083 489.501 644.255 489.216 644.525 489.163L671.007 484.051C671.278 483.999 671.54 484.176 671.593 484.447L671.595 484.459Z" fill="#0C0C0C"/></g><g fill="none" opacity="0.2"><path d="M674.161 495.719C674.206 495.986 674.03 496.242 673.763 496.293L652.639 500.371C652.368 500.423 652.106 500.246 652.053 499.975 652.006 499.7 652.179 499.442 652.449 499.389L673.573 495.311C673.844 495.259 674.106 495.436 674.159 495.707L674.161 495.719Z" fill="#0C0C0C"/></g></g><path d="M694.707 516.091 873.545 517.066C874.901 517.213 876.257 517.286 877.606 517.286 887.87 517.286 897.756 513.07 904.88 505.519 912.941 496.974 916.532 485.147 914.583 473.564L874.741 313.961C871.304 293.538 851.966 279.771 831.539 283.202 811.116 286.638 797.344 305.98 800.78 326.404L831.335 446.639 695.571 451.093 694.706 516.09Z" id="b_4_b" fill="#367CFF"/><g id="b_4_st"><path d="M854.712 446.132C854.956 446.132 855.169 445.954 855.206 445.706 855.247 445.433 855.059 445.179 854.786 445.138L831.625 445.979C831.342 445.936 831.097 446.126 831.056 446.399 831.015 446.672 831.203 446.926 831.476 446.967L854.637 446.126C854.662 446.13 854.687 446.132 854.712 446.132Z" fill="#0C0C0C"/></g><g id="b_4_st-2"><path d="M868.343 517.786C868.591 517.786 868.805 517.602 868.838 517.35 868.874 517.077 868.681 516.826 868.407 516.789L695.753 515.712 696.51 451.711 831.462 446.968C831.62 446.987 831.777 446.933 831.887 446.82 831.997 446.706 832.047 446.546 832.021 446.389L817.305 374.119C817.26 373.847 817.007 373.658 816.729 373.709 816.457 373.755 816.273 374.013 816.319 374.285L830.923 445.887 696.135 450.651C696.002 450.632 695.866 450.671 695.76 450.754 695.654 450.837 695.586 450.96 695.572 451.094L694.707 516.091C694.678 516.361 694.87 516.606 695.139 516.641L868.278 517.782C868.3 517.785 868.322 517.786 868.343 517.786Z" fill="#0C0C0C"/></g><g><path d="M610.469 499.007 561.545 348.618C559.781 343.197 554.728 339.527 549.027 339.527L349.709 339.527C340.764 339.527 334.424 348.257 337.191 356.763L386.115 507.152C387.879 512.573 392.932 516.243 398.633 516.243L597.951 516.243C606.896 516.243 613.236 507.513 610.469 499.007Z" fill="#292A2E"/><rect x="564.541" y="504.049" rx="6.02" ry="6.02" width="145.462" height="12.194" fill="#292A2E"/><circle cx="470.831" cy="432.221" r="20.905" fill="#FFFFFF"/></g><path d="M796.635 198.957C794.978 198.957 793.635 197.614 793.635 195.957L793.635 161.783C793.635 144.393 788.822 130.615 779.716 121.936 771.085 113.71 758.698 109.928 742.912 110.684 741.273 110.766 739.851 109.487 739.771 107.831 739.691 106.176 740.968 104.77 742.624 104.69 760.115 103.845 773.99 108.189 783.856 117.592 794.179 127.43 799.636 142.711 799.636 161.782L799.636 195.956C799.636 197.613 798.293 198.956 796.636 198.956Z" fill="#367CFF"/><g><circle cx="792.151" cy="202.377" r="22.79" fill="#367CFF"/><path d="M793.031 219.449C792.361 218.964 791.422 219.114 790.936 219.785L789.192 222.194C784.877 228.157 777.906 231.717 770.546 231.717L742.8 231.717 742.8 231.13C742.8 229.473 741.457 228.13 739.8 228.13L730.41 228.13C728.753 228.13 727.41 229.473 727.41 231.13L727.41 235.521C727.41 237.178 728.753 238.521 730.41 238.521L739.8 238.521C741.457 238.521 742.8 237.178 742.8 235.521L742.8 234.717 770.546 234.717C778.866 234.717 786.745 230.693 791.623 223.952L793.367 221.543C793.852 220.872 793.702 219.934 793.031 219.448Z" fill="#367CFF"/><circle cx="797.619" cy="202.377" r="22.79" fill="#367CFF"/><circle cx="797.619" cy="202.377" r="22.79" fill="#FFFFFF" opacity="0.3"/></g></g><path d="M364.778 518.786 917.777 518.786C918.329 518.786 918.777 518.338 918.777 517.786 918.777 517.234 918.329 516.786 917.777 516.786L364.778 516.786C364.226 516.786 363.778 517.234 363.778 517.786 363.778 518.338 364.226 518.786 364.778 518.786Z" fill="#292A2E"/></g></g></svg>