<svg viewBox="0 0 638.821 538.187" xmlns="http://www.w3.org/2000/svg" xmlns:xlink="http://www.w3.org/1999/xlink" id="Layer_1" overflow="hidden"><path d="M612.743 537.428 0 537.428C6.714 517.614 19.113 500.806 36.592 495.819 62.16 488.534 89.219 508.566 114.731 501.033 129.225 496.759 140.631 484.302 152.631 473.958 197.866 434.929 259.853 423.393 313.386 444.05 341.365 454.843 366.86 473.717 395.521 481.741 432.584 492.121 471.343 483.513 509.457 482.095 546.569 480.713 599.754 498.219 612.743 537.428Z" fill="#F3F5FD"/><g><rect x="14.053" y="457.055" width="160.001" height="6" fill="#C1D8ED" transform="matrix(0.254383 -0.967104 0.967104 0.254383 -374.793 433.985)"/><rect x="189.799" y="381.739" width="6" height="156.63" fill="#C1D8ED" transform="matrix(0.98793 -0.1549 0.1549 0.98793 -68.935 35.417)"/><path d="M106.056 234.254C106.056 234.254 56.491 231.123 56.491 274.428 56.491 317.733 63.791 378.254 100.317 385.036 136.843 391.818 190.798 389.774 203.325 387.651 218.716 385.042 225.425 349.34 204.925 346.951 146.751 340.168 174.925 238.95 106.056 234.254Z" fill="#C1D8ED"/></g><line x1="211.276" y1="508.282" x2="209.39" y2="532.741" stroke="#E98862" stroke-width="21" stroke-miterlimit="10" fill="none"/><path d="M246.465 537.241C248.733 537.231 250.564 535.384 250.554 533.116 250.554 533.116 250.554 533.116 250.554 533.116 250.554 533.016 250.554 532.916 250.541 532.816L250.541 532.816C250.417 531.223 249.38 529.846 247.883 529.287L223.44 521.1C222.482 520.783 221.433 520.9 220.568 521.42 217.208 523.752 213.188 524.944 209.1 524.82 205.916 524.594 202.86 523.477 200.28 521.597 199.618 521.056 198.643 521.154 198.102 521.815 197.875 522.092 197.752 522.439 197.752 522.797L197.752 534.749C197.752 536.228 198.951 537.427 200.43 537.427L200.441 537.427Z" fill="#C1D8ED"/><line x1="294.58" y1="508.282" x2="298.694" y2="532.741" stroke="#E98862" stroke-width="21" stroke-miterlimit="10" fill="none"/><path d="M315.634 511.9 269.526 334.512C267.407 326.36 260.049 320.669 251.626 320.667L150.578 320.667 150.578 320.732 93.969 320.732 93.969 338.08C93.9685 359.115 111.02 376.167 132.055 376.168L159.665 376.168 159.665 376.277 207.865 376.277 194.593 517.391 231.431 520.855 244.264 384.4 279.824 521.205Z" fill="#262626"/><g><path d="M238.644 235.952C238.644 235.952 238.794 223.941 247.379 224.566 252.795 224.96 278.53 223.766 278.913 226.11 279.861 231.91 256.321 233.328 254.185 238.732Z" fill="#E98862"/><path d="M244.339 224.951C244.339 224.951 256.288 221.051 259.225 221.751 261.825 222.369 256.405 226.601 256.405 226.601Z" fill="#E98862"/></g><path d="M213.963 288.655 256.6 239.021 238.226 228.689 204.084 267.1 177.384 219.309C174.858 211.756 169.104 206.696 157.364 206.19 156.734 206.17 155.724 206.14 154.424 206.12 154.164 211.62 120.094 211.6 119.374 205.99 109.754 206 101.854 208.96 97.294 213.52 81.544 229.27 100.874 256.11 100.874 277.11 100.874 298.11 91.374 307.53 92.074 318.31 93.174 335.25 175.504 331.25 179.694 321.62 182.504 315.168 179.781 310.32 177.638 298.783L213.962 298.783ZM175.635 273.106C175.676 269.573 175.949 265.876 176.324 262.114L184.624 276.974 175.638 276.974C175.625 275.723 175.62 274.445 175.638 273.106Z" fill="#367CFF"/><path d="M154.425 206.116C154.165 211.616 151.165 219.706 141.945 220.306 129.635 221.126 120.095 211.596 119.375 205.986L119.415 205.986C131.515 205.986 147.355 206.006 154.425 206.116Z" fill="#E98862"/><path d="M332.769 537.241C335.038 537.231 336.868 535.383 336.858 533.114 336.858 533.114 336.858 533.114 336.858 533.114 336.858 533.014 336.858 532.914 336.845 532.814L336.845 532.814C336.72 531.221 335.683 529.845 334.186 529.285L309.744 521.1C308.785 520.783 307.736 520.9 306.871 521.42 303.511 523.752 299.492 524.944 295.404 524.82 292.22 524.594 289.163 523.477 286.583 521.597 285.922 521.056 284.947 521.153 284.406 521.814 284.179 522.091 284.055 522.439 284.056 522.797L284.056 534.749C284.056 536.228 285.255 537.427 286.734 537.427L286.745 537.427Z" fill="#C1D8ED"/><g><rect x="36.678" y="308.471" width="9.391" height="228.957" fill="#DEE8F5"/><rect x="489.652" y="308.471" width="9.391" height="228.957" fill="#C1D8ED"/><rect x="414.348" y="305.602" width="84.695" height="216.171" fill="#C1D8ED"/><rect x="397.439" y="506.117" width="9.391" height="31.311" fill="#C1D8ED"/><rect x="23.695" y="299.015" width="488.332" height="12.913" fill="#DEE8F5"/><rect x="409.652" y="308.471" width="9.391" height="228.957" fill="#DEE8F5"/><rect x="317.439" y="308.471" width="9.391" height="228.957" fill="#DEE8F5"/><rect x="322.135" y="311.946" width="92.213" height="209.827" fill="#DEE8F5"/></g><path d="M244.086 290.105C238.356 289.768 228.195 288.827 223.956 286.312 226.105 285.656 228.987 284.585 228.716 283.623 228.005 281.092 218.042 282.665 215.062 282.665L213.977 282.71 213.977 295.515C213.977 295.515 233.611 302.877 245.167 293.451 245.974 292.791 246.093 291.601 245.433 290.794 245.1 290.387 244.612 290.137 244.086 290.105Z" fill="#E98862"/><g><g><path d="M300.158 241.22 288.016 292.192C287.328 295.091 289.118 298 292.016 298.692 292.425 298.789 292.843 298.838 293.263 298.839L364.847 298.839C367.278 298.839 369.409 297.214 370.053 294.87L384.048 243.9C384.837 241.024 383.144 238.053 380.268 237.264 379.804 237.137 379.324 237.072 378.842 237.072L305.41 237.072C302.91 237.072 300.738 238.788 300.158 241.22Z" fill="#9EBCEA"/><path d="M262.532 298.841 349.051 298.841C350.803 298.841 352.223 297.421 352.223 295.669L352.223 295.669C352.223 293.917 350.803 292.497 349.051 292.497L262.532 292.497C260.78 292.497 259.36 293.917 259.36 295.669L259.36 295.669C259.36 297.421 260.78 298.841 262.532 298.841Z" fill="#9EBCEA"/></g><circle cx="338.963" cy="267.454" r="8.466" fill="#FFFFFF"/></g><g><circle cx="155.886" cy="177.682" r="9.584" fill="#DEE8F5"/><path d="M157.555 178.8C158.284 178.658 158.874 178.124 159.088 177.413 159.338 176.583 161.98 157.052 154.333 145.284 151.857 141.176 147.556 138.51 142.775 138.12 141.677 138.004 140.692 138.8 140.575 139.898 140.575 139.9 140.575 139.901 140.575 139.903 140.461 141.003 141.26 140.986 142.359 141.103 147.69 141.655 148.498 143.749 151.001 147.503 157.748 157.633 155.31 176.075 155.255 176.26 154.936 177.317 155.534 178.434 156.591 178.753 156.904 178.847 157.235 178.864 157.555 178.801Z" fill="#C1D8ED"/><circle cx="153.411" cy="177.456" r="9.584" fill="#C1D8ED"/><g><path d="M150.211 207.937 149.431 208.027 124.781 208.027C126.781 204.707 128.941 198.197 127.941 186.027L143.921 183.067C143.921 183.067 142.121 201.947 150.211 207.937Z" fill="#E98862"/><path d="M146.935 203.994 133.662 193.84 144.087 193.732C144.389 197.3 145.355 200.781 146.935 203.994Z" opacity="0.15"/><path d="M118.88 177.866C119.986 184.254 123.472 190.304 129.107 192.366 135.25 194.804 141.896 195.702 148.465 194.982 165.954 193.548 162.495 153.782 154.191 146.055 145.887 138.328 121.518 143.223 118.554 156.143 117.021 162.826 117.827 171.785 118.88 177.866Z" fill="#E98862"/><path d="M159.96 147.429C159.438 146.601 158.707 145.925 157.84 145.47 150.074 141.246 135.68 139.785 128.767 141.853 120.747 144.253 110.691 150.976 113.267 167.279 113.376 167.965 113.493 168.627 113.614 169.279 105.993 167.976 98.7581 173.099 97.4555 180.72 96.1529 188.342 101.275 195.576 108.897 196.879 114.77 197.883 120.636 195.059 123.514 189.841 124.704 190.869 125.989 191.781 127.353 192.564 128.31 193.133 128.541 192.67 128.873 191.607 130.033 187.896 131.173 173.219 130.263 162.562L149.109 161.91 152.393 152.568 155.085 161.91 161.503 161.91C162.364 156.845 163.252 151.107 159.96 147.429Z" fill="#0F1011"/><g><circle cx="143.898" cy="171.496" r="1.449" fill="#0F1011"/><circle cx="155.33" cy="170.558" r="1.449" fill="#0F1011"/><path d="M157.841 167.471 157.832 167.471 153.993 167.422C153.617 167.405 153.326 167.087 153.343 166.711 153.359 166.356 153.646 166.072 154.002 166.061L154.011 166.061 157.849 166.109C158.225 166.111 158.528 166.418 158.526 166.794 158.524 167.17 158.217 167.473 157.841 167.471Z" fill="#0F1011"/><path d="M140.77 168.87C140.394 168.869 140.09 168.563 140.091 168.187 140.092 167.873 140.307 167.601 140.612 167.527L144.396 166.617C144.76 166.524 145.131 166.744 145.224 167.109 145.317 167.473 145.097 167.844 144.732 167.937 144.726 167.938 144.721 167.94 144.715 167.941L140.931 168.851C140.878 168.864 140.824 168.87 140.77 168.87Z" fill="#0F1011"/></g><path d="M136.361 175.041C136.658 178.421 134.159 181.401 130.779 181.698 127.4 181.995 124.419 179.496 124.122 176.117 124.12 176.091 124.118 176.066 124.116 176.041 123.788 172.72 126.213 169.762 129.534 169.434 129.601 169.427 129.669 169.421 129.736 169.417 134.114 169.278 136.083 171.66 136.361 175.041Z" fill="#E98862"/><g opacity="0.15"><path d="M150.33 179.533C150.054 179.533 149.83 179.309 149.83 179.033 149.83 178.814 149.973 178.619 150.183 178.555L153.131 177.65 151.069 173.059C150.948 172.811 151.052 172.511 151.3 172.391 151.548 172.27 151.847 172.373 151.968 172.622 151.973 172.631 151.977 172.64 151.981 172.65L154.275 177.757C154.388 178.009 154.276 178.305 154.024 178.418 154.005 178.427 153.986 178.434 153.966 178.44L150.477 179.511C150.429 179.526 150.38 179.533 150.33 179.533Z"/></g><path d="M144.569 182.907C144.569 182.907 149.917 183.472 153.669 182.161 153.669 182.161 153.64 185.684 149.407 186.031 145.174 186.378 144.569 182.907 144.569 182.907Z" fill="#F8FCFF"/></g><path d="M121.033 177.652 121.12 177.633C122.193 177.374 122.854 176.295 122.596 175.221 122.557 175.056 118.729 158.655 126.15 148.732 129.65 144.051 135.204 141.487 142.67 141.107 143.759 141.055 144.623 141.113 144.57 140.007 144.467 138.926 143.556 138.102 142.47 138.107 135.596 137.592 127.185 140.659 122.939 146.346 114.397 157.788 118.53 175.41 118.711 176.155 118.961 177.194 119.983 177.854 121.033 177.652Z" fill="#C1D8ED"/><circle cx="123.879" cy="178.033" r="9.584" fill="#C1D8ED"/><circle cx="120.935" cy="178.321" r="9.584" fill="#DEE8F5"/><path d="M122.093 183.379C122.554 185.478 123.151 187.546 123.879 189.568 125.036 191.483 141.419 190.619 141.419 190.619" stroke="#DEE8F5" stroke-width="3" stroke-linecap="round" stroke-linejoin="round" fill="none"/><rect x="138.723" y="188.306" rx="2.345" width="6.721" height="4.69" fill="#C1D8ED" transform="matrix(-1 -1.22465e-16 1.22465e-16 -1 284.168 381.303)"/></g><path d="M267.151 209.948 279.646 200.478 395.845 200.478 395.845 123.879 267.151 123.879 267.151 209.948Z" fill="#DEE8F5"/><g><circle cx="525.707" cy="60.952" r="60.952" fill="#DEE8F5"/><g><path d="M491.3 78.644C491.3 78.644 486.467 70.967 486.665 68.888 486.863 66.809 492.903 64.706 492.903 64.706 492.903 64.706 492.029 62.868 491.25 60.85 490.35 58.521 489.579 55.95 490.422 55.699 491.235 55.452 492.468 57.565 493.598 60.021 495.05 63.175 496.331 66.893 496.331 66.893 496.331 66.893 496.464 63.221 497.822 63.455 498.38 63.555 498.616 64.214 498.622 66.847 498.622 69.847 499.091 74.523 499.091 74.523Z" fill="#E98862"/><path d="M506.644 113.059C503.781 113.057 501.204 111.322 500.127 108.669L487.478 77.517 500.517 72.217 504.347 81.649 507.354 66.624 521.154 69.386 513.547 107.4C512.936 110.446 510.401 112.732 507.308 113.025 507.086 113.048 506.864 113.059 506.644 113.059Z" fill="#367CFF"/><path d="M483.807 87.8 491.631 86.551C492.837 86.359 493.659 85.2258 493.467 84.0199 493.454 83.9366 493.436 83.8542 493.413 83.773L488.491 66.106C488.189 65.0221 487.122 64.3375 486.011 64.515L478.188 65.764C476.982 65.9561 476.159 67.0899 476.351 68.2964 476.365 68.3792 476.383 68.4612 476.405 68.542L481.328 86.209C481.63 87.2921 482.696 87.9765 483.807 87.8Z" fill="#C1D8ED"/><path d="M496.407 83.172 491.793 89.433C491.793 89.433 479.393 86.947 478.227 77.392 478.093 76.292 478.209 73.249 479.571 73.657 483.12 74.721 487.539 80.168 490.637 80.892 489.93 79.626 489.067 77.839 489.624 77.512 491.086 76.653 495.02 81.84 496.407 83.172Z" fill="#E98862"/><path d="M556.472 104.552C556.466 107.41 556.756 110.261 557.337 113.059 542.163 122.257 523.737 124.398 506.858 118.926 507.893 113.338 508.35 107.658 508.22 101.977 508.213 101.596 508.207 101.209 508.194 100.815L488.657 92.2 494.33 79.323 506.613 84.739C505.141 71.449 505.096 59.425 520.018 58.779 520.425 58.76 521.077 58.747 521.918 58.734 522.086 62.284 544.069 62.271 544.534 58.65 550.743 58.657 555.834 60.561 558.785 63.51 568.948 73.675 556.472 91 556.472 104.552Z" fill="#367CFF"/><path d="M521.916 58.733C522.084 62.283 524.016 67.505 529.971 67.898 537.91 68.421 544.071 62.27 544.532 58.649L544.513 58.649C536.7 58.649 526.473 58.662 521.916 58.733Z" fill="#E98862"/><g><path d="M538.5 50.426C538.493 50.309 538.493 50.193 538.493 50.076 538.493 48.899 538.538 47.617 538.655 46.22L537.192 45.948 528.324 44.3C528.499 46.5985 528.462 48.9082 528.214 51.2 528.188 51.459 528.156 51.725 528.114 51.99 528.112 52.0141 528.108 52.0379 528.101 52.061 528.05 52.41 527.991 52.761 527.927 53.109 527.888 53.336 527.842 53.562 527.791 53.789 527.739 54.08 527.668 54.365 527.591 54.65 527.514 54.935 527.436 55.213 527.345 55.491 527.254 55.769 527.17 56.041 527.067 56.306 526.878 56.8299 526.649 57.3385 526.381 57.827L526.381 57.833C525.891 58.791 525.203 59.6337 524.362 60.305L540.62 60.305C539.6 58.554 538.555 55.519 538.5 50.426Z" fill="#E98862"/><path d="M526.372 57.845 534.961 51.274 528.215 51.204C528.02 53.5132 527.395 55.7656 526.372 57.845Z" opacity="0.15"/><path d="M544.527 40.937C543.811 45.071 541.555 48.986 537.909 50.321 533.58 51.906 530.373 52.013 525.382 52.013 518.571 52.013 518.796 44.913 518.605 37.752 518.413 30.565 518.984 22.852 521.676 20.352 527.05 15.352 542.82 18.519 544.738 26.88 545.73 31.2 545.208 37 544.527 40.937Z" fill="#E98862"/><path d="M514.954 24.507C513.515 24.2277 512.575 22.8349 512.854 21.3959 512.874 21.2966 512.898 21.1985 512.929 21.102 513.435 19.258 515.798 19.667 515.798 19.667 515.798 19.667 513.56 19.258 513.56 17.304 513.56 16.073 514.506 13.988 517.36 15.18 520.586 16.3427 524.069 16.5956 527.429 15.911 529.072 15.5526 530.739 15.3186 532.417 15.211L532.426 15.211 532.426 15.211C534.354 15.1786 536.275 15.4358 538.126 15.974 543.315 17.527 551.17 22.181 549.5 32.73 547.639 44.5 542.115 49 539.684 50.446 539.161 50.7619 538.48 50.5936 538.164 50.0702 538.118 49.9938 538.081 49.9122 538.055 49.827 537.365 47.62 536.176 42.068 536.51 30.619 520.557 29.837 515.967 29.599 515.967 29.599 515.967 29.599 512.211 29.74 512.211 26.999 512.159 25.6635 513.2 24.5388 514.535 24.4869 514.675 24.4815 514.815 24.4882 514.954 24.507Z" fill="#0F1011"/><g><circle cx="528.337" cy="36.815" r="0.937" fill="#0F1011"/><circle cx="520.939" cy="36.208" r="0.937" fill="#0F1011"/><path d="M519.315 34.21 519.315 34.21 521.799 34.179C522.042 34.1674 522.23 33.9608 522.219 33.7175 522.208 33.4905 522.026 33.3088 521.799 33.298L521.793 33.298 519.309 33.329C519.066 33.3421 518.879 33.5499 518.892 33.7931 518.905 34.0203 519.088 34.2008 519.315 34.21Z" fill="#0F1011"/><path d="M530.361 35.115C530.604 35.1139 530.8 34.916 530.799 34.673 530.798 34.47 530.658 34.2941 530.461 34.247L528.012 33.657C527.777 33.5915 527.534 33.7285 527.469 33.9631 527.403 34.1976 527.54 34.4409 527.775 34.5065 527.785 34.5094 527.796 34.5119 527.806 34.514L530.254 35.103C530.289 35.1116 530.325 35.1157 530.361 35.115Z" fill="#0F1011"/></g><path d="M533.215 39.109C533.014 41.2951 534.623 43.2302 536.81 43.4311 538.996 43.6321 540.931 42.0228 541.132 39.8367 541.134 39.8108 541.136 39.7849 541.138 39.759 541.351 37.6107 539.783 35.6962 537.634 35.4829 537.59 35.4785 537.546 35.4749 537.501 35.472 534.668 35.38 533.394 36.921 533.215 39.109Z" fill="#E98862"/><g opacity="0.15"><path d="M524.175 42.015C524.353 42.0184 524.501 41.8765 524.504 41.6982 524.507 41.5537 524.413 41.425 524.275 41.383L522.368 40.797 523.702 37.827C523.775 37.6638 523.703 37.472 523.54 37.3985 523.376 37.325 523.185 37.3978 523.111 37.561L521.627 40.866C521.554 41.0301 521.628 41.2221 521.792 41.2949 521.804 41.2999 521.815 41.3043 521.827 41.308L524.08 42C524.111 42.0099 524.143 42.0149 524.175 42.015Z"/></g><path d="M527.9 44.2C525.925 44.3981 523.93 44.2347 522.013 43.718 522.312 45.379 523.901 46.483 525.562 46.1838 526.641 45.9895 527.533 45.2326 527.9 44.2Z" fill="#F8FCFF"/></g></g></g><g><g><path d="M568.3 492.023C561.737 490.139 556.8 484.267 554.833 477.723 552.866 471.179 553.562 464.086 555.479 457.532 557.044 452.184 559.415 447.014 559.999 441.472 561.945 423.018 544.046 404.164 552.469 387.63 555.193 382.284 560.469 378.105 561.404 372.179 562.182 367.279 559.768 362.515 558.567 357.7 556.916 351.074 557.753 343.554 562.052 338.248 566.351 332.942 574.475 330.623 580.399 334.021 588.148 338.466 588.819 349.439 586.828 358.146 584.837 366.853 581.146 375.812 583.579 384.406 585.898 392.598 593.445 398.767 594.798 407.172 595.923 414.16 592.512 420.972 591.013 427.89 588.658 438.762 591.055 450.031 591.158 461.154 591.261 472.277 588.12 484.755 568.3 492.023Z" fill="#8DDBE0"/><path d="M558.17 493.08C550.218 490.552 544.247 483.931 542.554 475.76 541.269 469.141 542.846 461.707 539.224 456.02 534.315 448.32 529.281 447.444 523.17 440.653 513.77 430.21 513.444 425.585 514.063 406.245 514.326 398.066 503.032 388.835 507.009 380.977 510.509 374.054 521.165 374.018 527.209 378.89 533.253 383.762 535.902 391.571 538.535 398.872 541.168 406.173 544.485 413.895 551.157 417.858 555.157 420.234 560.396 421.332 562.607 425.428 564.383 428.719 563.488 432.735 562.774 436.406 560.98 445.633 561.429 456.888 569.174 462.217 572.667 464.617 577.242 465.449 580.114 468.569 582.954 471.655 583.414 476.226 583.219 480.414 582.841 488.467 580.623 496.326 576.733 503.388" fill="#DEE8F5"/><path d="M567.508 499.505C560.507 491.164 559.58 479.297 565.2 469.97 569.94 462.46 578.774 457.287 580.629 448.601 582.281 440.865 577.699 432.871 579.071 425.081 580.563 416.609 588.389 411.05 594.605 405.105 596.223 403.66 597.615 401.98 598.733 400.121 601.468 395.2 600.705 389.163 601.633 383.61 603.411 372.977 612.172 363.545 622.809 361.787 632.138 360.246 638.82 365.605 638.82 375.474 638.82 387.166 630.062 392.174 625.593 397.474 619.176 405.137 615.77 414.876 616.012 424.869 616.327 436.031 621.079 447.915 616.002 457.86 612.276 465.16 604.317 469.05 598.063 474.346 588.512 482.529 582.765 494.294 582.182 506.858" fill="#F3F5FD"/></g><rect x="541.34" y="481.173" width="56.255" height="56.255" fill="#0CBC8B"/><g opacity="0.42"><rect x="541.34" y="492.142" width="56.255" height="10.981" fill="#FFFFFF"/></g></g><g><path d="M443.746 106.422 428.09 94.908C428.09 94.908 359.507 94.908 325.215 94.908L325.215 21.12 443.746 21.12Z" fill="#C1D8ED"/><rect x="336.618" y="35.923" width="95.725" height="6.587" fill="#FFFFFF"/><rect x="336.618" y="54.366" width="95.725" height="6.587" fill="#FFFFFF"/><rect x="336.618" y="72.808" width="95.725" height="6.587" fill="#FFFFFF"/></g><rect x="278.818" y="139.622" width="105.3" height="5.87" fill="#FFFFFF"/><rect x="278.818" y="158.877" width="105.3" height="5.87" fill="#FFFFFF"/><rect x="278.818" y="178.133" width="105.3" height="5.87" fill="#FFFFFF"/></svg>