<svg width="512" height="512" viewBox="0 0 24 24" xmlns="http://www.w3.org/2000/svg" xmlns:xlink="http://www.w3.org/1999/xlink" id="Layer_1" overflow="hidden"><path d="M12 15C11.448 15 11 14.553 11 14L11 5C11 4.447 11.448 4 12 4 12.552 4 13 4.447 13 5L13 14C13 14.553 12.552 15 12 15ZM12 17C11.172 17 10.5 17.672 10.5 18.5 10.5 19.328 11.172 20 12 20 12.828 20 13.5 19.328 13.5 18.5 13.5 17.672 12.828 17 12 17ZM24 19 24 12.34C24 5.861 19.096 0.454 12.836 0.028 9.364-0.204 5.96 1.066 3.509 3.521 1.057 5.977-0.211 9.378 0.03 12.854 0.47 19.208 6.082 24 13.084 24L19.001 24C21.758 24 24.001 21.757 24.001 19ZM12.701 2.024C17.916 2.378 22 6.909 22 12.339L22 18.999C22 20.653 20.654 21.999 19 21.999L13.083 21.999C7.048 21.999 2.397 18.095 2.024 12.715 1.823 9.816 2.879 6.98 4.923 4.934 6.805 3.049 9.358 2 12.015 2 12.243 2 12.472 2.008 12.7 2.023Z"/></svg>