<svg viewBox="0 0 523.55 411.531" xmlns="http://www.w3.org/2000/svg" xmlns:xlink="http://www.w3.org/1999/xlink" id="Layer_1" overflow="hidden"><g><g><path d="M121.16 383.708C219.432 448.867 361.042 389.367 448.527 310.314 532.494 234.44 573.327 37.421 421.791 5.171 358.694-8.257 330 5.747 283.532 32.415 246.018 53.945 194.472 43.754 157.192 24.455 104.478-2.833 39.513 36.857 11.7 96.711-22.373 170.061 19.112 316.044 121.16 383.708Z" fill="#FFFFFF" opacity="0.08"/><path d="M121.16 383.708C219.432 448.867 361.042 389.367 448.527 310.314 532.494 234.44 573.327 37.421 421.791 5.171 358.694-8.257 330 5.747 283.532 32.415 246.018 53.945 194.472 43.754 157.192 24.455 104.478-2.833 39.513 36.857 11.7 96.711-22.373 170.061 19.112 316.044 121.16 383.708Z" fill="#367CFF" opacity="0.1"/></g><g><g><path d="M138.684 63.519C138.684 63.519 136.537 95.735 129.29 107.419 108.424 141.067 102.379 178.919 123.274 198.696 144.169 218.473 277.444 218.747 287.541 173.26 296.041 134.966 277.8 130.848 273.361 99.26 271.353 84.966 265.828 54.993 265.828 54.993" fill="#0A0A0A"/><path d="M253.044 166.6C252.814 166.57 250.261 208.93 201.05 205.237 166.982 202.685 154.835 166.537 154.055 166.537 157.728 165.756 163.913 164.621 165.544 163.751 170.909 160.868 177.544 157.869 179.276 147.451 180.276 141.451 178.576 110.729 179.102 104.651L231.4 116.324C230.669 129.154 225.555 158.899 243.48 164.163 246.458 165.034 249.671 165.834 253.044 166.6Z" id="sk" fill="#E98862"/><path d="M232.129 152.007C231.31 149.367 230.782 146.646 230.556 143.891 229.981 137.605 230.096 131.274 230.898 125.013 220.271 123.578 210.259 119.191 202 112.351 201.029 115.937 195.688 131.607 197.167 135.015 199.958 141.457 213.091 152.007 232.129 152.007Z" id="sh" fill="#0C0C0C" opacity="0.5"/><path d="M225.367 138.809C204.749 140.809 178.073 132.557 172.547 105.101L167.561 80.327C162.035 52.871 171.976 27.71 197.827 22.507L197.827 22.507C223.679 17.307 247.481 35.673 253.007 63.129L255.215 74.1C257.335 84.632 262.152 135.25 225.367 138.809Z" fill="#E98862"/><path d="M240.032 105.974C233.333 109.38 225.69 110.457 218.311 109.035 217.568 108.895 216.852 109.384 216.712 110.127 216.653 110.44 216.705 110.765 216.86 111.044 219.06 114.921 224.278 121.544 233.23 118.844 239.01 117.1 241.195 111.153 242.005 107.475 242.165 106.737 241.696 106.008 240.958 105.848 240.644 105.78 240.316 105.825 240.032 105.974Z" fill="#FFFFFF"/><circle cx="240.451" cy="72.944" r="3.237" fill="#0C0C0C"/><circle cx="209.347" cy="78.39" r="3.237" fill="#0C0C0C"/><ellipse cx="211.725" cy="98.323" rx="6.187" ry="4.538" fill="#0C0C0C" opacity="0.1" transform="matrix(0.992957 -0.118473 0.118473 0.992957 -10.158 25.778)"/><path d="M248.113 92.881C248.413 95.366 251.408 97.053 254.801 96.653 255.387 96.5826 255.965 96.4516 256.524 96.262 256.682 93.299 256.691 90.448 256.605 87.809 255.663 87.5737 254.684 87.5164 253.721 87.64 250.328 88.041 247.819 90.385 248.113 92.881Z" fill="#0C0C0C" opacity="0.1"/><path d="M233.121 100.562 233.171 100.554C234.219 100.336 235.254 100.06 236.271 99.727 237.789 99.219 239.771 98.385 239.499 97.012 239.185 95.447 231.499 79.43 230.627 77.612 230.477 77.2763 230.083 77.1261 229.747 77.2765 229.411 77.4269 229.261 77.8209 229.411 78.1566 229.416 78.1675 229.422 78.1783 229.427 78.189 232.704 85.01 237.982 96.224 238.194 97.278 238.028 97.769 235.51 98.728 232.911 99.252 232.548 99.3105 232.302 99.6519 232.36 100.014 232.419 100.377 232.76 100.624 233.123 100.565Z" fill="#0C0C0C" opacity="0.5"/><path d="M146.934 89.22 170.11 84.693C187.617 77.372 192.584 46.861 192.584 46.861 192.584 46.861 214.19 67.437 265.828 54.994 265.828 54.994 254.611-17.091 178.363 4.794 153.778 11.849 136.363 36.908 138.953 70.101 140.768 93.358 146.934 89.22 146.934 89.22Z" fill="#0A0A0A"/><path d="M175.836 113.143C167.98 114.724 159.92 107.601 158.336 99.743 156.752 91.885 162.252 86.272 170.108 84.691L175.216 89.14 182.589 111.781Z" fill="#E98862"/><path d="M236.2 64.838C238.165 63.4478 240.464 62.6035 242.862 62.391 244.065 62.2764 245.279 62.3438 246.462 62.591 247.657 62.8348 248.816 63.2275 249.913 63.76L249.947 63.776C250.202 63.8956 250.505 63.7861 250.625 63.5315 250.744 63.2769 250.635 62.9736 250.38 62.854 249.218 62.2406 247.982 61.776 246.704 61.471 245.417 61.158 244.089 61.0404 242.767 61.122 240.088 61.2693 237.498 62.1326 235.267 63.622 234.918 63.8595 234.828 64.335 235.065 64.684 235.303 65.033 235.778 65.1235 236.127 64.886L236.145 64.873Z" fill="#0C0C0C"/><path d="M215.025 67.764C212.393 67.2415 209.669 67.4341 207.137 68.322 205.885 68.7531 204.706 69.3696 203.637 70.151 202.573 70.9223 201.61 71.8244 200.771 72.836 200.585 73.0464 200.604 73.3681 200.815 73.5545 201.021 73.737 201.335 73.7226 201.523 73.522L201.55 73.494C202.359 72.5825 203.28 71.7761 204.29 71.094 205.29 70.412 206.387 69.8851 207.544 69.531 209.841 68.8104 212.288 68.7107 214.636 69.242L214.694 69.256C215.104 69.3554 215.517 69.1036 215.617 68.6935 215.716 68.2834 215.464 67.8704 215.054 67.771Z" fill="#0C0C0C"/><path d="M170.126 84.313C185.705 78.513 190.875 67.755 192.467 59.749 193.497 54.4097 193.401 48.9139 192.184 43.614L191.702 43.746C192.901 48.9771 192.993 54.401 191.974 59.67 190.402 67.545 185.306 78.131 169.951 83.845Z" fill="#0C0C0C"/></g><path d="M314.4 192.735 378.115 362.148 325.235 347.189 445.5 257.489 488.346 316.077 366.416 403.5C350.619 414.803 328.65 411.159 317.347 395.362 315.994 393.471 314.831 391.45 313.877 389.329L313.536 388.541 240.346 223Z" fill="#367CFF"/><path d="M200.132 194.643C166.04 193.036 164.605 164.099 164.605 164.099 164.605 164.099 147.713 165.191 136.484 166.71 118.1 169.198 105.972 175.432 96.32 185.083 87.342 194.061 81.876 203.775 87.66 265.794 91.848 310.7 88.9 409.473 88.9 409.473L294.65 409.473C294.65 409.473 306.988 280.008 308.708 259.794 311.99 221.204 325.432 199.454 306.644 179.576 293.019 165.16 257.844 164.099 243.686 164.102 243.456 164.1 246.56 196.831 200.132 194.643Z" id="b_1_b" fill="#367CFF"/><g><path d="M397.917 201.088C385.128 179.488 356.186 176.894 334.586 189.688L333.217 190.538 332.299 189.059C319.079 167.72 292.129 156.59 270.79 169.81 249.452 183.03 242.871 211.045 256.09 232.384L300.007 301.761C302.971 306.444 309.144 307.881 313.872 304.99L383.572 262.362C404.007 249.086 410.335 222.056 397.917 201.088Z" fill="#367CFF"/><path d="M397.917 201.088C385.128 179.488 356.186 176.894 334.586 189.688L333.217 190.538 332.299 189.059C319.079 167.72 292.129 156.59 270.79 169.81 249.452 183.03 242.871 211.045 256.09 232.384L300.007 301.761C302.971 306.444 309.144 307.881 313.872 304.99L383.572 262.362C404.007 249.086 410.335 222.056 397.917 201.088Z" fill="#FFFFFF" opacity="0.6"/></g><g><path d="M324.283 245.759C301.607 232.092 273.43 244.152 259.763 266.828L258.916 268.302 257.324 267.387C234.378 254.177 203.783 257.314 190.574 280.26 177.363 303.205 185.255 332.515 208.2 345.726L283.673 388.206C288.767 391.074 295.22 389.322 298.165 384.272L341.585 309.837C353.927 287.293 346.295 259.027 324.283 245.759Z" fill="#367CFF"/><path d="M324.283 245.759C301.607 232.092 273.43 244.152 259.763 266.828L258.916 268.302 257.324 267.387C234.378 254.177 203.783 257.314 190.574 280.26 177.363 303.205 185.255 332.515 208.2 345.726L283.673 388.206C288.767 391.074 295.22 389.322 298.165 384.272L341.585 309.837C353.927 287.293 346.295 259.027 324.283 245.759Z" fill="#FFFFFF" opacity="0.5"/></g><path d="M304.511 277.913C304.528 277.637 304.766 277.427 305.042 277.444 305.319 277.462 305.528 277.7 305.511 277.976L301.326 344.8C301.311 345.049 301.115 345.248 300.867 345.268 300.844 345.268 300.82 345.268 300.796 345.268 300.52 345.251 300.311 345.014 300.328 344.738" fill="#0C0C0C"/><g><path d="M460.484 271.915C460.698 268.93 463.291 266.683 466.276 266.896 466.373 266.903 466.47 266.913 466.566 266.925 469.487 267.396 471.544 270.048 471.273 272.994L470.751 280.294 481.467 260.63C482.783 258.13 485.997 255.902 488.704 257.563 490.982 258.763 495.275 258.11 496.857 261.118 496.884 261.128 505.157 290.418 503.937 292.742L503.937 292.742C498.76 302.584 481.351 309.142 470.285 308.042L452.869 306.297Z" fill="#E98862"/><g opacity="0.1"><path d="M460.484 271.915C460.698 268.93 463.291 266.683 466.276 266.896 466.373 266.903 466.47 266.913 466.566 266.925 469.487 267.396 471.544 270.048 471.273 272.994L470.751 280.294 481.467 260.63C482.783 258.13 485.997 255.902 488.704 257.563 490.982 258.763 495.275 258.11 496.857 261.118 496.884 261.128 505.157 290.418 503.937 292.742L503.937 292.742C498.76 302.584 481.351 309.142 470.285 308.042L452.869 306.297Z" fill="#0C0C0C"/></g><path d="M479.556 249.654C459.556 224.354 422.256 226.027 396.956 246.028L395.356 247.346 393.933 245.62C373.433 220.72 337.196 211.189 312.299 231.694 287.402 252.198 283.841 289.003 304.346 313.9 304.346 313.901 304.347 313.901 304.347 313.902L372.2 394.687C376.781 400.139 384.888 400.907 390.411 396.412L471.824 330.14C495.56 309.722 498.971 274.218 479.556 249.654Z" fill="#0CBC8B"/><path d="M480.457 286.031C480.454 284.043 481.773 282.295 483.686 281.754 483.653 281.683 483.523 281.534 483.649 281.484L480 280.838C477.77 280.493 476.137 278.555 476.175 276.299 476.284 274.069 478.065 272.283 480.295 272.168 480.27 272.133 480.278 272.084 480.265 272.042L478.765 271.776C476.672 271.443 475.102 269.683 475.01 267.565 474.955 265.159 476.861 263.164 479.267 263.109 479.555 263.102 479.842 263.124 480.125 263.174L483.583 263.787C483.583 263.768 483.567 263.754 483.57 263.735 483.573 263.716 483.599 263.697 483.606 263.675 481.733 262.888 480.653 260.91 481.006 258.909 481.285 256.373 484.281 255.429 486.517 255.825L493.462 257.625C495.638 258.188 497.388 259.802 498.126 261.925 501.269 270.974 508.915 294.806 501.779 293.542L484.214 290.43C482.104 289.994 480.557 288.183 480.457 286.031Z" fill="#E98862"/></g><g><path d="M268.329 319.794 295.611 299.087C297.996 297.277 301.397 297.744 303.206 300.129 303.304 300.258 303.395 300.39 303.481 300.527 304.934 303.013 304.268 306.195 301.94 307.89L296.09 312.33 320.896 306.812C323.643 306.151 327.438 307.096 327.977 310.226 328.566 312.679 327.384 315.214 325.127 316.34 325.14 316.364 325.15 316.39 325.157 316.416 325.158 316.437 325.158 316.458 325.157 316.479L329.393 315.459C332.306 314.759 335.236 316.552 335.936 319.465 336.024 319.83 336.073 320.203 336.084 320.578 336.106 323.198 334.293 325.477 331.735 326.043L329.935 326.478C329.924 326.536 329.902 326.591 329.871 326.641 332.526 326.619 334.806 328.524 335.256 331.141 335.665 334.032 333.781 336.751 330.931 337.384L326.454 338.462C326.604 338.522 326.716 338.65 326.754 338.807 326.773 338.9 326.764 338.996 326.728 339.084 329.088 339.718 330.732 341.852 330.744 344.295 330.704 346.866 328.903 349.072 326.392 349.625L288.611 358.725C277.799 361.329 266.488 357.112 260.02 348.065L260.02 348.065C254.351 340.136 256.018 329.137 263.782 323.244Z" fill="#E98862"/><g opacity="0.2"><path d="M300.6 321.924C300.665 322.188 300.929 322.351 301.194 322.292L324.778 317.014C325.048 316.954 325.217 316.686 325.157 316.416 325.097 316.146 324.829 315.977 324.559 316.037L300.975 321.315C300.706 321.375 300.536 321.643 300.596 321.912 300.597 321.913 300.597 321.914 300.597 321.915Z" fill="#0C0C0C"/></g><g opacity="0.2"><path d="M302.641 332.39C302.707 332.654 302.971 332.817 303.236 332.757L329.555 326.867C329.825 326.807 329.995 326.54 329.935 326.271 329.935 326.269 329.934 326.268 329.934 326.267 329.866 326.002 329.603 325.836 329.334 325.889L303.014 331.779C302.745 331.839 302.575 332.107 302.635 332.376 302.636 332.377 302.636 332.378 302.636 332.379Z" fill="#0C0C0C"/></g><g opacity="0.2"><path d="M304.786 343.737C304.852 344.001 305.116 344.164 305.381 344.104L326.381 339.404C326.651 339.344 326.82 339.076 326.76 338.806 326.699 338.537 326.432 338.368 326.162 338.428L305.162 343.128C304.893 343.188 304.723 343.456 304.783 343.725 304.784 343.726 304.784 343.727 304.784 343.728Z" fill="#0C0C0C"/></g></g><path d="M280.044 369.339 106.657 408.753C86.0679 410.994 67.5606 396.12 65.3197 375.531 64.9471 372.107 65.0478 368.649 65.619 365.253L85.461 205.653C88.897 185.229 108.239 171.458 128.663 174.894 149.087 178.33 162.858 197.672 159.422 218.096L149.867 332.331 270.331 305.07Z" id="b_4_b" fill="#367CFF"/><g id="b_4_st"><path d="M125.49 336.819C125.214 336.839 124.974 336.632 124.953 336.355 124.933 336.079 125.141 335.839 125.417 335.819L149.578 330.661C149.846 330.617 150.099 330.798 150.144 331.066 150.145 331.071 150.145 331.076 150.146 331.081 150.187 331.354 149.999 331.608 149.726 331.649L125.565 336.808C125.54 336.814 125.515 336.817 125.49 336.819Z" fill="#0C0C0C"/></g><g id="b_4_st-2"><path d="M111.859 409.473C111.583 409.491 111.344 409.282 111.326 409.005 111.309 408.729 111.518 408.491 111.794 408.473L278.956 369.102 269.484 305.802 149.739 331.656C149.465 331.692 149.214 331.5 149.177 331.226 149.171 331.177 149.172 331.126 149.18 331.077L155.897 265.807C155.938 265.538 156.189 265.354 156.457 265.394 156.462 265.395 156.468 265.396 156.473 265.397 156.745 265.443 156.929 265.701 156.883 265.973L150.283 330.573 269.717 304.703C269.847 304.667 269.986 304.685 270.102 304.753 270.218 304.821 270.302 304.933 270.335 305.064L280.048 369.337C280.112 369.6 279.955 369.865 279.695 369.937L111.924 409.469C111.902 409.472 111.881 409.473 111.859 409.473Z" fill="#0C0C0C"/></g><g><path d="M495.251 118.335C488.651 107.184 473.708 105.845 462.557 112.447L461.85 112.886 461.377 112.122C454.552 101.106 440.639 95.361 429.623 102.185 418.609 109.01 415.212 123.47 422.034 134.485L444.706 170.3C446.236 172.717 449.423 173.459 451.864 171.967L487.844 149.961C498.39 143.108 501.657 129.158 495.251 118.335Z" fill="#0CBC8B"/><path d="M495.251 118.335C488.651 107.184 473.708 105.845 462.557 112.447L461.85 112.886 461.377 112.122C454.552 101.106 440.639 95.361 429.623 102.185 418.609 109.01 415.212 123.47 422.034 134.485L444.706 170.3C446.236 172.717 449.423 173.459 451.864 171.967L487.844 149.961C498.39 143.108 501.657 129.158 495.251 118.335Z" fill="#FFFFFF" opacity="0.2"/></g><g><path d="M396.715 13.166C390.72 9.657 383.368 12.916 379.86 18.911L379.642 19.3 379.222 19.066C373.157 15.678 365.142 16.604 361.754 22.666 358.365 28.7292 360.533 36.3918 366.596 39.7808 366.597 39.7815 366.599 39.7823 366.6 39.783L386.543 50.672C387.889 51.407 389.576 50.9257 390.332 49.591L401.471 29.917C404.632 23.9612 402.534 16.572 396.715 13.166Z" fill="#367CFF"/><path d="M396.715 13.166C390.72 9.657 383.368 12.916 379.86 18.911L379.642 19.3 379.222 19.066C373.157 15.678 365.142 16.604 361.754 22.666 358.365 28.7292 360.533 36.3918 366.596 39.7808 366.597 39.7815 366.599 39.7823 366.6 39.783L386.543 50.672C387.889 51.407 389.576 50.9257 390.332 49.591L401.471 29.917C404.632 23.9612 402.534 16.572 396.715 13.166Z" fill="#FFFFFF" opacity="0.5"/></g></g><path d="M491.642 410.473 50.444 410.473C49.8917 410.473 49.444 410.025 49.444 409.473 49.444 408.921 49.8917 408.473 50.444 408.473L491.644 408.473C492.196 408.473 492.644 408.921 492.644 409.473 492.644 410.025 492.196 410.473 491.644 410.473Z" fill="#292A2E"/></g></svg>