<svg viewBox="0 0 894.767 684.04" xmlns="http://www.w3.org/2000/svg" xmlns:xlink="http://www.w3.org/1999/xlink" id="Layer_1" overflow="hidden"><g id="Layer_8"><path d="M67.141 684.04C41.4426 684.064 18.4938 667.957 9.782 643.78 1.813 621.581-36.352 496.892 121.764 390.2 276.892 285.52 212.378 139.035 409.233 111.232 614.088 99.281 643.324 249.032 734.094 380.076 786.707 456.034 885.561 509.766 893.115 601.621 902.779 660.194 868.344 684.064 834.05 684.042 642.323 683.915 67.141 684.04 67.141 684.04Z" fill="#F3F5FD"/></g><g><rect x="250.859" y="0" width="381.27" height="494.601" fill="#DEE8F5"/><g><rect x="278.292" y="25.683" width="326.404" height="171.09" fill="#C1D8ED"/><rect x="299.468" y="74.639" width="14.394" height="99.951" fill="#FFFFFF"/><rect x="380.259" y="84.565" width="14.394" height="90.023" fill="#FFFFFF"/><rect x="326.399" y="53.485" width="14.394" height="121.103" fill="#FFFFFF"/><rect x="353.329" y="98.347" width="14.394" height="76.242" fill="#FFFFFF"/><rect x="407.189" y="69.763" width="14.394" height="104.826" fill="#FFFFFF"/><rect x="434.119" y="61.311" width="14.394" height="113.277" fill="#FFFFFF"/><rect x="461.049" y="98.347" width="14.394" height="76.242" fill="#FFFFFF"/><rect x="487.979" y="74.639" width="14.394" height="99.951" fill="#FFFFFF"/><rect x="568.769" y="84.565" width="14.394" height="90.023" fill="#FFFFFF"/><rect x="514.909" y="53.485" width="14.394" height="121.103" fill="#FFFFFF"/><rect x="541.839" y="98.347" width="14.394" height="76.242" fill="#FFFFFF"/></g><g><g><circle cx="304.615" cy="245.601" r="24.261" fill="#FFFFFF"/><rect x="350.213" y="229.404" width="252.422" height="10.657" fill="#FFFFFF"/><rect x="350.213" y="249.66" width="78.054" height="10.657" fill="#FFFFFF"/><path d="M300.4 258.1C299.706 258.1 299.039 257.834 298.534 257.358L289.205 248.558C288.121 247.518 288.086 245.797 289.125 244.714 290.153 243.642 291.849 243.593 292.937 244.603L300.25 251.503 316.139 233.993C317.127 232.862 318.844 232.745 319.975 233.733 321.107 234.721 321.223 236.438 320.236 237.569 320.213 237.595 320.19 237.621 320.166 237.646L302.413 257.209C301.922 257.75 301.235 258.07 300.505 258.099Z" fill="#C1D8ED"/></g><g><circle cx="304.615" cy="310.69" r="24.261" fill="#FFFFFF"/><rect x="350.213" y="294.493" width="252.422" height="10.657" fill="#FFFFFF"/><rect x="350.213" y="314.749" width="78.054" height="10.657" fill="#FFFFFF"/><path d="M300.4 323.19C299.706 323.189 299.039 322.924 298.534 322.449L289.205 313.649C288.121 312.609 288.086 310.888 289.125 309.805 290.153 308.733 291.849 308.684 292.937 309.694L300.25 316.594 316.139 299.085C317.127 297.954 318.844 297.837 319.975 298.825 321.107 299.812 321.223 301.53 320.236 302.661 320.213 302.687 320.19 302.713 320.166 302.738L302.416 322.3C301.925 322.841 301.238 323.161 300.508 323.19Z" fill="#C1D8ED"/></g><g><circle cx="304.615" cy="375.779" r="24.261" fill="#FFFFFF"/><rect x="350.213" y="359.583" width="252.422" height="10.657" fill="#FFFFFF"/><rect x="350.213" y="379.839" width="78.054" height="10.657" fill="#FFFFFF"/><path d="M300.4 388.279C299.706 388.279 299.039 388.014 298.534 387.538L289.205 378.738C288.094 377.727 288.013 376.008 289.024 374.897 290.034 373.786 291.754 373.705 292.865 374.716 292.889 374.738 292.913 374.761 292.937 374.784L300.25 381.684 316.139 364.175C317.127 363.044 318.844 362.927 319.975 363.915 321.107 364.902 321.223 366.62 320.236 367.751 320.213 367.777 320.19 367.803 320.166 367.828L302.413 387.39C301.922 387.931 301.235 388.252 300.505 388.28Z" fill="#C1D8ED"/></g><g><circle cx="304.615" cy="440.868" r="24.261" fill="#FFFFFF"/><rect x="350.213" y="424.672" width="252.422" height="10.657" fill="#FFFFFF"/><rect x="350.213" y="444.928" width="78.054" height="10.657" fill="#FFFFFF"/><path d="M300.4 453.368C299.706 453.368 299.039 453.103 298.534 452.627L289.205 443.827C288.121 442.787 288.086 441.066 289.125 439.983 290.153 438.911 291.849 438.862 292.937 439.872L300.25 446.772 316.139 429.263C317.127 428.132 318.844 428.015 319.975 429.003 321.107 429.991 321.223 431.708 320.236 432.839 320.213 432.865 320.19 432.891 320.166 432.916L302.413 452.478C301.923 453.019 301.235 453.34 300.505 453.368Z" fill="#C1D8ED"/></g></g></g><g><path d="M578.8 672.324C576.4 652.154 576.4 650.078 576.4 649.396L599.152 649.396C599.152 649.327 599.152 649.238 599.152 649.132 599.232 650.815 600.379 661.087 601.396 669.639Z" fill="#E98862"/><path d="M669.453 675.045C669.453 675.045 669.376 651.483 669.376 649.396L692.128 649.396C692.128 651.478 692.205 674.971 692.205 674.971Z" fill="#E98862"/><path d="M570.4 664.458C572.284 617.395 572.293 566.058 572.984 518.91 580.689 467.325 584.969 410.793 594.584 359.576L594.873 359.661 595.72 353.886 678.144 352.298 698.067 663.849 658.123 667.224 633.053 409.171C625.088 447.216 619.745 486.671 612.697 524.33 612.697 524.33 610.325 618.757 610.484 665.141Z" fill="#262626"/><path d="M641.795 683.844C639.337 683.833 637.354 681.833 637.364 679.375 637.364 679.375 637.364 679.375 637.364 679.375 637.364 679.265 637.364 679.155 637.378 679.044L637.378 679.044C637.513 677.318 638.637 675.826 640.259 675.22L666.74 666.351C667.778 666.007 668.915 666.134 669.852 666.697 673.492 669.224 677.848 670.516 682.277 670.382 685.727 670.137 689.038 668.927 691.833 666.891 692.548 666.304 693.603 666.408 694.19 667.122 694.438 667.424 694.572 667.801 694.571 668.191L694.571 681.14C694.571 682.742 693.273 684.04 691.671 684.04L691.658 684.04Z" fill="#C1D8ED"/><path d="M551.076 683.844C548.618 683.833 546.635 681.833 546.645 679.375 546.645 679.375 546.645 679.375 546.645 679.375 546.645 679.265 546.645 679.155 546.659 679.044L546.659 679.044C546.794 677.318 547.918 675.826 549.54 675.22L576.021 666.351C577.059 666.007 578.196 666.134 579.133 666.697 582.773 669.224 587.129 670.516 591.558 670.382 595.008 670.137 598.319 668.927 601.114 666.891 601.829 666.304 602.884 666.408 603.471 667.122 603.719 667.424 603.853 667.801 603.852 668.191L603.852 681.14C603.852 682.742 602.554 684.04 600.952 684.04L600.939 684.04Z" fill="#C1D8ED"/><g><path d="M702.4 387.838C702.4 391.067 700.7 401.861 703.437 402.632 705.081 403.094 707.023 395.05 707.023 395.05" fill="#E98862"/><path d="M715.348 386.143C715.348 386.143 724.301 407.935 714.089 420.455 713.374 421.33 712.086 421.459 711.211 420.745 710.769 420.383 710.498 419.853 710.464 419.283 709.964 410.842 708.264 393.504 702.7 395.529L702.7 381.917" fill="#E98862"/></g><path d="M513.461 270.039C513.461 270.039 500.961 260.107 500.072 256.539 499.183 252.971 507.994 245.955 507.994 245.955 507.994 245.955 496.284 234.155 498.619 232.44 501.375 230.42 514.963 247.588 514.963 247.588 514.963 247.588 513.042 241.411 515.435 241.006 516.418 240.84 517.197 241.806 518.735 246.176 520.488 251.157 523.992 258.653 523.992 258.653Z" fill="#E98862"/><path d="M652.83 236.1C652.83 236.1 644.118 232.357 644.118 209.468L626.6 207.684C626.6 207.684 630.21 227.91 622.013 235.098Z" fill="#E98862"/><path d="M653.183 199.849C652.554 206.849 649.325 213.687 643.423 216.414 637.006 219.591 629.909 221.149 622.752 220.952 603.74 220.952 603.952 177.704 612.237 168.628 620.522 159.552 647.267 162.676 651.611 176.365 653.859 183.444 653.781 193.19 653.183 199.849Z" fill="#E98862"/><g><circle cx="625.604" cy="195.186" r="1.569" fill="#367CFF"/><path d="M628.69 192.077C628.651 192.077 628.613 192.074 628.575 192.068L624.407 191.42C624.005 191.357 623.729 190.98 623.792 190.578 623.855 190.176 624.232 189.9 624.634 189.963L628.802 190.611C629.205 190.671 629.483 191.046 629.423 191.448 629.369 191.811 629.057 192.079 628.69 192.077Z" fill="#367CFF"/></g><path d="M614.1 183.019C621.535 216.367 628.381 225.281 645.618 218.604 649.57 217.073 659.039 207.684 659.987 187.704 660.835 169.842 646.545 160.438 637.562 159.188 603.425 154.441 602.227 185.265 602.227 185.265 619.359 188.202 642.695 183.349 642.695 183.349" fill="#0F1011"/><circle cx="655.222" cy="172.521" r="15.174" fill="#0F1011"/><path d="M526.625 256.833 563.611 298.445 592.577 246.595C595.329 238.457 601.554 232.995 614.233 232.457 618.582 232.27 639.808 232.237 655.348 232.237 665.789 232.237 674.36 235.437 679.309 240.39 681.802 242.847 683.668 245.867 684.748 249.196L684.897 249.141 709.766 316.763C710.046 317.521 710.247 318.306 710.366 319.106L720.4 386.728 697.034 390.2 687.175 323.78 677.133 296.472C676.088 300.669 675.518 304.97 675.433 309.295 675.433 332.052 685.722 342.251 684.969 353.928 683.776 372.287 594.58 367.949 590.035 357.521 585.356 346.766 594.853 340.141 594.435 304.964 594.39 301.137 594.094 297.132 593.687 293.055L576.135 324.47C572.955 330.165 565.761 332.204 560.066 329.024 558.911 328.379 557.873 327.545 556.994 326.556L508.366 269.672Z" fill="#367CFF"/><path d="M613.294 201.849C613.294 205.524 616.274 208.504 619.949 208.504 623.625 208.504 626.604 205.524 626.604 201.849 626.666 198.235 623.787 195.256 620.173 195.194L619.949 195.194C615.209 195.427 613.294 198.173 613.294 201.849Z" fill="#E98862"/></g><g><path d="M757.473 616.006C761.531 614.678 765.695 616.172 769.679 619.199 764.432 605.947 762.265 593.977 771.238 593.438 777.515 593.061 782.324 597.877 785.977 604.724 787.262 592.685 790.577 583.707 798.003 586.683 806.155 589.952 807.395 601.152 806.158 612.871 809.75 606.886 813.617 603.548 817.128 607.059 827.607 617.537 801.886 647.069 801.886 647.069L795.5 647.069 791.855 651.027C792.593 652.587 792.997 653.516 792.997 653.516L788.366 662.939C788.366 662.939 740.634 621.518 757.473 616.006Z" fill="#8DDBE0"/><path d="M768.926 684.04 805.078 684.04 811.13 641.837 762.875 641.837 768.926 684.04Z" fill="#C1D8ED"/></g><g><g><rect x="136.493" y="464.573" width="10.055" height="53.316" fill="#F0F6FF" transform="matrix(0.973171 0.230084 -0.230084 0.973171 116.82 -19.382)"/><g><rect x="130.72" y="460.22" width="5.524" height="46.31" fill="#C1D8ED" transform="matrix(0.983407 -0.181412 0.181412 0.983407 -85.473 32.235)"/><rect x="126.998" y="460.559" width="5.524" height="5.113" fill="#DEE8F5" transform="matrix(0.982369 -0.186953 0.186953 0.982369 -84.29 32.423)"/></g><rect x="117.507" y="492.994" width="48.026" height="3.242" fill="#0CBC8B" transform="matrix(0.366534 -0.930405 0.930405 0.366534 -370.545 444.997)"/><rect x="126.133" y="491.231" width="26.535" height="33.914" fill="#DEE8F5"/></g><g><g><rect x="223.502" y="586.404" width="9.925" height="97.637" fill="#C1D8ED" transform="matrix(-1 -1.22465e-16 1.22465e-16 -1 456.928 1270.44)"/><rect x="231.67" y="586.404" width="9.925" height="97.637" fill="#DEE8F5" transform="matrix(-1 -1.22465e-16 1.22465e-16 -1 473.264 1270.44)"/></g><g><rect x="99.88" y="586.404" width="9.925" height="97.637" fill="#C1D8ED" transform="matrix(-1 -1.22465e-16 1.22465e-16 -1 209.685 1270.44)"/><rect x="108.048" y="586.404" width="9.925" height="97.637" fill="#DEE8F5" transform="matrix(-1 -1.22465e-16 1.22465e-16 -1 226.021 1270.44)"/></g><g><rect x="196.28" y="586.404" width="9.925" height="97.637" fill="#C1D8ED" transform="matrix(-1 -1.22465e-16 1.22465e-16 -1 402.485 1270.44)"/><rect x="204.448" y="586.404" width="9.925" height="97.637" fill="#DEE8F5" transform="matrix(-1 -1.22465e-16 1.22465e-16 -1 418.821 1270.44)"/></g><g><rect x="72.658" y="586.404" width="9.925" height="97.637" fill="#C1D8ED" transform="matrix(-1 -1.22465e-16 1.22465e-16 -1 155.241 1270.44)"/><rect x="80.826" y="586.404" width="9.925" height="97.637" fill="#DEE8F5" transform="matrix(-1 -1.22465e-16 1.22465e-16 -1 171.578 1270.44)"/></g><rect x="72.658" y="523.907" width="133.485" height="64.838" fill="#C1D8ED"/><rect x="108.11" y="523.907" width="133.485" height="64.838" fill="#DEE8F5"/><g opacity="0.53"><rect x="115.291" y="533.124" width="119.123" height="46.117" fill="#F3F5FD"/></g><circle cx="174.852" cy="556.183" r="5.291" fill="#FFFFFF"/></g></g></svg>