<svg viewBox="0 0 708.076 540.551" xmlns="http://www.w3.org/2000/svg" xmlns:xlink="http://www.w3.org/1999/xlink" id="Layer_1" overflow="hidden"><path d="M645.1 540.458C679.883 540.458 708.08 512.261 708.08 477.478 708.08 476.549 708.059 475.62 708.018 474.692 705.946 427.828 673.667 348.439 625.234 300.005 525.8 200.579 567.592 17.228 446.621 2.473 226.257-24.4 298.651 174.371 128.579 280.654 37.121 337.809 0.006 412.99 0 477.578 0.0325708 512.33 28.2249 540.479 62.977 540.458Z" fill="#F3F5FD"/><g><g><path d="M527.4 264.779C507.45 352.667 489.385 441.146 475.129 530.147L495.169 534.269C517.2 446.869 535.527 358.442 551.887 269.816Z" fill="#E98862"/><path d="M568.642 270.223C566.81 357.536 566.942 445.044 570.913 532.298L591.372 532.298C595.341 445.045 595.472 357.535 593.642 270.223Z" fill="#E98862"/><path d="M544.443 540.364C542.175 540.354 540.344 538.507 540.355 536.239 540.355 536.138 540.359 536.037 540.367 535.937L540.367 535.937C540.491 534.344 541.529 532.967 543.026 532.408L567.468 524.221C568.427 523.904 569.476 524.021 570.341 524.541 573.701 526.872 577.72 528.064 581.808 527.941 584.992 527.715 588.049 526.598 590.629 524.718 591.29 524.177 592.265 524.274 592.806 524.935 593.033 525.212 593.157 525.56 593.156 525.918L593.156 537.87C593.156 539.349 591.957 540.548 590.478 540.548 590.474 540.548 590.471 540.548 590.467 540.548Z" fill="#C1D8ED"/><path d="M450.71 540.364C448.441 540.354 446.61 538.506 446.621 536.237 446.621 536.137 446.625 536.037 446.633 535.937L446.633 535.937C446.758 534.344 447.795 532.967 449.292 532.408L473.735 524.221C474.693 523.904 475.742 524.021 476.607 524.541 479.967 526.872 483.987 528.064 488.075 527.941 491.259 527.715 494.315 526.598 496.895 524.718 497.556 524.176 498.53 524.273 499.072 524.933 499.3 525.211 499.424 525.559 499.423 525.918L499.423 537.87C499.423 539.349 498.224 540.548 496.745 540.548 496.741 540.548 496.738 540.548 496.734 540.548Z" fill="#C1D8ED"/><path d="M606.316 232.528C606.316 232.528 617.675 283.399 617.675 326.182 617.675 368.965 630.719 435.225 630.719 435.225 630.719 435.225 593.752 429.245 568.674 435.225 525.466 445.525 486.723 423.093 486.723 423.093L530.239 237.224Z" fill="#262626"/></g><g><path d="M523.726 84.349C523.426 88.019 527.251 91.434 527.881 94.892 528.533 98.47 526.195 103.014 527.721 106.224 529.268 109.48 534.283 110.537 536.603 113.265 538.923 115.993 539.157 121.114 542.121 123.165 545.043 125.187 549.904 123.612 553.33 124.832 556.641 126.011 559.396 130.332 563.066 130.632 566.736 130.932 570.151 127.107 573.609 126.477 577.186 125.825 581.731 128.163 584.941 126.638 588.197 125.09 589.253 120.075 591.982 117.755 594.711 115.435 599.831 115.201 601.882 112.237 603.905 109.315 602.329 104.454 603.549 101.028 604.728 97.717 609.049 94.962 609.349 91.292 609.649 87.622 605.825 84.207 605.195 80.749 604.543 77.172 606.88 72.627 605.355 69.417 603.808 66.162 598.792 65.105 596.473 62.376 594.154 59.647 593.919 54.527 590.955 52.476 588.033 50.454 583.171 52.029 579.746 50.809 576.435 49.63 573.68 45.309 570.01 45.009 566.34 44.709 562.925 48.533 559.467 49.164 555.889 49.816 551.345 47.478 548.135 49.003 544.879 50.55 543.822 55.566 541.094 57.885 538.366 60.204 533.245 60.439 531.194 63.403 529.172 66.325 530.747 71.187 529.528 74.613 528.347 77.924 524.024 80.68 523.726 84.349Z" fill="#0F1011"/><path d="M579.829 124.229C577.849 120.879 575.729 114.389 576.709 102.339L560.729 99.389C560.729 99.389 562.529 118.189 554.519 124.229Z" fill="#E98862"/><path d="M557.735 120.321 571 110.156 560.576 110.056C560.277 113.625 559.313 117.106 557.735 120.321Z" opacity="0.15"/><path d="M585.766 94.168C584.666 100.558 581.185 106.61 575.552 108.679 569.412 111.123 562.767 112.027 556.197 111.312 538.706 109.893 542.13 70.122 550.426 62.391 558.722 54.66 583.097 59.529 586.073 72.446 587.612 79.127 586.814 88.087 585.766 94.168Z" fill="#E98862"/><g><circle cx="560.742" cy="87.821" r="1.449" fill="#0F1011"/><circle cx="549.31" cy="86.894" r="1.449" fill="#0F1011"/><path d="M546.8 83.808 546.809 83.808 550.647 83.757C551.023 83.7545 551.326 83.4476 551.323 83.0715 551.321 82.6954 551.014 82.3925 550.638 82.395L550.629 82.395 546.791 82.447C546.415 82.4637 546.124 82.7818 546.141 83.1575 546.157 83.5134 546.444 83.7969 546.8 83.808Z" fill="#0F1011"/><path d="M563.867 85.193C564.243 85.1944 564.549 84.8906 564.55 84.5145 564.552 84.1974 564.334 83.9214 564.025 83.849L560.239 82.942C559.87 82.8674 559.511 83.1057 559.436 83.4743 559.365 83.8251 559.578 84.171 559.923 84.266L563.708 85.174C563.76 85.1862 563.813 85.1925 563.867 85.193Z" fill="#0F1011"/><path d="M560.082 99.233C560.082 99.233 554.734 99.802 550.982 98.495 550.982 98.495 551.014 102.018 555.247 102.361 559.48 102.704 560.082 99.233 560.082 99.233Z" fill="#F8FCFF"/></g><path d="M573.984 77.627C572.934 92.6013 574.582 107.642 578.85 122.034 578.85 122.034 591.043 101.009 592.929 83.503 594.696 67.093 582.596 57.416 574.429 55.596 543.378 48.682 541.143 71.364 541.143 71.364 546.8 83.127 577.349 83.076 577.349 83.076" fill="#0F1011"/><path d="M568.064 94.059C567.751 97.4372 570.236 100.429 573.614 100.742 576.993 101.055 579.985 98.5702 580.298 95.192 580.302 95.1454 580.306 95.0987 580.309 95.052 580.635 91.7316 578.208 88.7756 574.887 88.4496 574.819 88.4429 574.751 88.4374 574.683 88.433 570.3 88.294 568.338 90.678 568.064 94.059Z" fill="#E98862"/><g opacity="0.15"><path d="M554.317 95.863C554.593 95.8626 554.817 95.6385 554.816 95.3623 554.816 95.1429 554.673 94.9494 554.463 94.885L551.515 93.985 553.573 89.393C553.686 89.1409 553.573 88.8449 553.321 88.732 553.069 88.619 552.773 88.7319 552.66 88.984L550.371 94.093C550.258 94.3449 550.37 94.6408 550.622 94.754 550.641 94.7625 550.661 94.7699 550.681 94.776L554.17 95.843C554.218 95.8574 554.267 95.8642 554.317 95.863Z"/></g></g><g><g><path d="M409.1 183.38C409.1 183.38 400.891 179.391 394.726 180.921 388.561 182.451 391.45 185.106 395.936 186.05 400.422 186.994 410.279 188.529 410.279 188.529" fill="#E98862"/><path d="M404.305 183.192C404.305 183.192 389.087 181.592 388.928 185.254 388.928 185.254 388.262 196.554 390.328 198.297 393.449 200.933 408.908 198.869 408.908 198.869Z" fill="#E98862"/></g><path d="M444.534 201.857 504.013 201.857C507.592 201.857 510.924 200.035 512.855 197.021L550.437 138.353 532.753 127.025 498.27 180.857 444.534 180.857Z" fill="#367CFF"/><path d="M524.848 237.645C529.037 247.275 611.367 251.275 612.467 234.335 613.167 223.555 603.667 214.145 603.667 193.135 603.667 172.125 622.997 145.295 607.247 129.545 602.676 124.975 594.786 122.025 585.167 122.015 584.446 127.625 550.386 127.645 550.126 122.145 548.826 122.165 547.816 122.185 547.187 122.215 514.006 123.645 528.587 161.405 528.906 189.145 529.3 221.605 520.527 227.725 524.848 237.645Z" fill="#367CFF"/><path d="M550.127 122.145C550.387 127.645 553.377 135.735 562.607 136.345 574.907 137.155 584.447 127.625 585.168 122.015L585.137 122.015C573.027 122.015 557.188 122.035 550.127 122.145Z" fill="#E98862"/><circle cx="455.46" cy="182.843" r="63.193" fill="#0CBC8B"/><path d="M390.333 198.3C390.614 198.523 390.927 198.701 391.263 198.827 393.056 199.198 397.578 198.116 398.303 196.861 399.483 194.821 398.75 187.447 397.709 184.771 396.733 182.271 391.867 183.318 391.227 183.436 391.207 183.444 391.187 183.449 391.166 183.452 389.84 183.816 388.966 184.384 388.929 185.258 388.929 185.259 388.259 196.549 390.333 198.3Z" fill="#E98862"/><g><path d="M522.813 205.118C522.813 205.118 520.4 191.964 511.1 194.253 505.229 195.698 488.167 193.119 487.907 200.659 487.682 207.201 503.707 208.944 509.007 208.399 513.762 207.91 522.813 205.118 522.813 205.118Z" fill="#E98862"/><path d="M514.506 194.108C514.506 194.108 500.664 192.066 497.571 193.38 494.833 194.544 501.571 198.18 501.571 198.18Z" fill="#E98862"/></g><path d="M510.078 212.422 571.958 210.536C575.891 210.416 579.454 208.186 581.282 204.702L611.832 146.447 592.522 136.32 564.929 188.935 509.414 190.627Z" fill="#367CFF"/><g><circle cx="472.242" cy="165.778" r="5.478" fill="#0F1011"/><circle cx="438.678" cy="165.778" r="5.478" fill="#0F1011"/></g><path d="M425.33 186.174C425.33 202.814 438.82 216.304 455.46 216.304 472.1 216.304 485.59 202.814 485.59 186.174Z" fill="#FFFFFF"/></g></g><g><rect x="74.163" y="25.59" width="304.434" height="126.968" fill="#C1D8ED"/><path d="M143.7 35.849C114.302 35.8497 90.4715 59.6817 90.4722 89.0792 90.4725 102.841 95.8029 116.068 105.345 125.985 106.365 127.045 107.428 128.062 108.535 129.036 117.913 137.292 131.407 140.2 144.889 140.2 159.952 140.2 172.363 136.034 182.039 125.969 202.42 104.793 201.775 71.1035 180.599 50.7226 170.684 41.1809 157.46 35.8501 143.7 35.849Z" fill="#FFFFFF"/><rect x="209.366" y="80.663" width="146.748" height="9.115" fill="#FFFFFF"/><rect x="209.366" y="103.806" width="146.748" height="9.115" fill="#FFFFFF"/><rect x="209.366" y="126.949" width="146.748" height="9.115" fill="#FFFFFF"/><g><path d="M167.749 127.955C166.992 127.931 165.758 127.896 164.186 127.873 164.036 132.206 162.519 136.38 159.853 139.799 166.527 137.667 172.713 134.234 178.053 129.699 174.715 128.647 171.247 128.06 167.749 127.955ZM121.757 128.025C121.75 128.018 121.75 128.008 121.757 128.001 121.722 127.907 121.698 127.81 121.687 127.71 117.367 127.691 113.064 128.24 108.887 129.341 115.775 135.304 124.081 139.395 133.007 141.22 126.66 137.552 122.432 132.031 121.757 128.025Z" fill="#367CFF"/><path d="M164.186 127.873C164.036 132.206 162.519 136.38 159.853 139.799 159.841 139.799 159.83 139.811 159.818 139.811 159.271 139.986 158.723 140.149 158.176 140.3 157.976 140.358 157.792 140.4 157.605 140.452 157.058 140.603 156.522 140.743 155.975 140.871 155.369 141.011 154.763 141.139 154.158 141.271 153.343 141.434 152.527 141.571 151.7 141.69 151.188 141.772 150.664 141.853 150.14 141.911 150.012 141.923 149.884 141.946 149.74 141.958 149.227 142.016 148.726 142.058 148.202 142.098 147.527 142.168 146.828 142.214 146.141 142.238L145.314 142.272C144.778 142.284 144.231 142.296 143.695 142.296 141.781 142.296 139.868 142.196 137.965 141.996 137.627 141.961 137.278 141.914 136.94 141.868 136.602 141.822 136.265 141.786 135.927 141.728 135.671 141.693 135.403 141.658 135.135 141.612 134.867 141.566 134.587 141.518 134.308 141.472 133.889 141.402 133.469 141.32 133.05 141.239 133.038 141.239 133.015 141.227 133.003 141.227 126.656 137.559 122.428 132.038 121.753 128.032 121.746 128.025 121.746 128.015 121.753 128.008 121.723 127.913 121.704 127.816 121.695 127.717L121.741 127.717C136.408 127.71 155.614 127.745 164.186 127.873Z" fill="#E98862"/><g><circle cx="165.694" cy="90.618" r="11.62" fill="#DEE8F5"/><path d="M167.718 91.973C168.602 91.8015 169.317 91.1547 169.577 90.293 169.877 89.286 173.083 65.606 163.812 51.339 160.81 46.3586 155.596 43.1262 149.8 42.653 148.468 42.5155 147.277 43.4832 147.138 44.815 147 46.147 147.968 46.127 149.3 46.265 155.765 46.934 156.744 49.473 159.778 54.028 167.959 66.309 165.003 88.669 164.936 88.894 164.549 90.175 165.274 91.5272 166.555 91.9141 166.556 91.9144 166.557 91.9147 166.558 91.915 166.934 92.029 167.332 92.0489 167.718 91.973Z" fill="#C1D8ED"/><circle cx="162.694" cy="90.344" r="11.62" fill="#C1D8ED"/><g><path d="M125.9 134.6C125.9 134.6 135.275 129.629 133.182 104.1L152.552 100.508C152.552 100.508 150.375 123.397 160.175 130.664Z" fill="#E98862"/><g opacity="0.15"><path d="M156.2 125.878 140.108 113.567 152.747 113.436C153.113 117.762 154.284 121.982 156.2 125.878Z"/></g><path d="M122.186 94.2C123.527 101.945 127.754 109.28 134.586 111.782 142.697 114.752 148.704 114.953 158.056 114.953 170.816 114.953 170.395 101.644 170.756 88.233 171.116 74.769 170.045 60.325 165.002 55.633 154.934 46.268 125.388 52.199 121.794 67.863 119.933 75.965 120.91 86.827 122.186 94.2Z" fill="#E98862"/><g><g><circle cx="152.132" cy="86.477" r="1.756" fill="#0F1011"/><circle cx="165.992" cy="85.34" r="1.756" fill="#0F1011"/><path d="M169.036 81.6 169.026 81.6 164.372 81.542C163.917 81.5371 163.552 81.1642 163.557 80.7091 163.557 80.7084 163.557 80.7077 163.557 80.707 163.556 80.2574 163.92 79.8924 164.37 79.8917 164.377 79.8917 164.385 79.8918 164.392 79.892L169.046 79.95C169.502 79.9528 169.869 80.3244 169.866 80.78 169.863 81.2356 169.492 81.6028 169.036 81.6Z" fill="#0F1011"/><path d="M148.341 83.294C147.885 83.2937 147.515 82.9236 147.516 82.4674 147.516 82.086 147.777 81.7544 148.148 81.665L152.737 80.565C153.171 80.4272 153.635 80.6676 153.773 81.1019 153.911 81.5362 153.67 82 153.236 82.1377 153.199 82.1495 153.161 82.1586 153.123 82.165L148.534 83.265C148.471 83.2825 148.406 83.2922 148.341 83.294Z" fill="#0F1011"/></g><path d="M136.54 68C137.908 94.149 135.349 106.3 133.926 110.858 133.584 111.953 132.419 112.564 131.324 112.222 131.166 112.172 131.015 112.104 130.873 112.019 126.319 109.313 115.973 100.876 112.473 78.819 109.345 59.054 124.061 50.335 133.784 47.426 142.166 44.919 153.526 45.403 162.566 51.162 173.952 58.416 172.271 73.34 172.271 73.34 158.457 73.977 128.941 75.203 128.941 75.203" fill="#0F1011"/><path d="M142.994 90.776C143.309 94.8774 140.239 98.4573 136.138 98.772 132.066 99.0844 128.503 96.0607 128.148 91.993 127.749 87.9678 130.689 84.3813 134.714 83.9823 134.796 83.9742 134.879 83.9674 134.962 83.962 140.27 83.788 142.658 86.676 142.994 90.776Z" fill="#E98862"/><g opacity="0.15"><path d="M159.931 96.221C159.596 96.2223 159.324 95.9521 159.323 95.6174 159.322 95.3495 159.497 95.1126 159.753 95.035L163.326 93.935 160.826 88.369C160.664 88.076 160.77 87.7074 161.063 87.5455 161.356 87.3837 161.725 87.49 161.887 87.7829 161.902 87.8105 161.915 87.8393 161.926 87.869L164.707 94.061C164.846 94.3616 164.716 94.7183 164.415 94.8577 164.388 94.8702 164.36 94.8806 164.332 94.889L160.103 96.189C160.047 96.2078 159.99 96.2186 159.931 96.221Z"/></g><path d="M152.945 100.312C152.945 100.312 159.43 100.996 163.975 99.412 163.975 99.412 163.939 103.683 158.808 104.104 153.677 104.525 152.945 100.312 152.945 100.312Z" fill="#FFFFFF"/></g></g><path d="M123.438 90.582C123.473 90.575 123.509 90.568 123.544 90.559 124.845 90.245 125.646 88.9364 125.333 87.635 125.286 87.435 120.645 67.55 129.642 55.519 133.884 49.844 140.619 46.735 149.672 46.274 150.991 46.211 152.038 46.282 151.972 44.942 151.845 43.6335 150.743 42.6369 149.428 42.642 141.093 42.017 130.896 45.735 125.748 52.63 115.391 66.503 120.403 87.868 120.622 88.772 120.926 90.0307 122.167 90.8277 123.438 90.582Z" fill="#C1D8ED"/><circle cx="126.889" cy="91.044" r="11.62" fill="#C1D8ED"/><circle cx="123.319" cy="91.393" r="11.62" fill="#DEE8F5"/><path d="M124.723 97.526C124.723 97.526 126.223 103.936 126.889 105.026 128.289 107.347 148.155 106.299 148.155 106.299" stroke="#DEE8F5" stroke-width="3.637" stroke-linecap="round" stroke-linejoin="round" fill="none"/><rect x="144.886" y="103.5" rx="2.843" width="8.149" height="5.686" fill="#C1D8ED" transform="matrix(-1 1.22465e-16 -1.22465e-16 -1 297.921 212.686)"/></g></g><g><rect x="207.285" y="42.803" width="112.635" height="24.572" fill="#0CBC8B" transform="matrix(-1 -1.22465e-16 1.22465e-16 -1 527.206 110.178)"/><g><path d="M225.584 62.609 220.697 60.039 215.806 62.609 216.742 57.168 212.786 53.313 218.251 52.521 220.697 47.569 223.137 52.521 228.603 53.313 224.648 57.168 225.584 62.609Z" fill="#FFFFFF"/><path d="M247.038 62.609 242.151 60.039 237.26 62.609 238.196 57.168 234.24 53.313 239.705 52.521 242.151 47.569 244.591 52.521 250.058 53.313 246.102 57.168 247.038 62.609Z" fill="#FFFFFF"/><path d="M268.492 62.609 263.605 60.039 258.714 62.609 259.65 57.168 255.694 53.313 261.159 52.521 263.605 47.569 266.045 52.521 271.512 53.313 267.556 57.168 268.492 62.609Z" fill="#FFFFFF"/><path d="M289.946 62.609 285.059 60.039 280.168 62.609 281.104 57.168 277.148 53.313 282.613 52.521 285.059 47.569 287.499 52.521 292.966 53.313 289.01 57.168 289.946 62.609Z" fill="#FFFFFF"/><path d="M311.4 62.609 306.513 60.039 301.622 62.609 302.558 57.168 298.602 53.313 304.067 52.521 306.513 47.569 308.953 52.521 314.42 53.313 310.464 57.168 311.4 62.609Z" fill="#FFFFFF"/></g></g></g><path d="M116.769 533.109C96.963 526.971 77.747 518.95 60.238 496.5 56.645 491.9 53.269 486.006 55.238 480.5 56.72 476.356 61.007 473.7 65.363 473.023 66.9855 472.787 68.63 472.742 70.263 472.889 70.271 472.889 70.279 472.889 70.282 472.889 72.7923 473.146 75.2737 473.633 77.695 474.343L78.387 474.543C89.9429 477.828 100.951 482.799 111.056 489.297 113.295 490.726 116.269 490.07 117.698 487.831 118.685 486.286 118.707 484.314 117.756 482.747 116.725 481.063 115.526 479.488 114.176 478.047 112.186 475.965 110.005 474.074 107.662 472.398 104.549 470.126 101.226 468.098 97.975 466.024 85.889 458.327 74.4391 449.674 63.735 440.149 56.095 433.343 48.623 425.79 44.992 416.222 43.323 411.822 42.564 406.748 44.554 402.484 47.838 395.484 57.141 393.522 64.748 394.975 78.078 397.528 88.727 407.299 98.17 417.038 106.001 425.131 114.77 434.092 126.026 434.589 127.944 434.769 129.872 434.382 131.573 433.477 134.782 431.533 135.607 427.029 134.464 423.453 133.321 419.877 130.673 417.02 128.117 414.275 113.267 398.343 98.652 381.769 89.009 362.247 79.366 342.725 75.094 319.676 81.795 298.947 83.76 292.888 86.712 286.992 91.317 282.59 95.922 278.188 102.38 275.427 108.702 276.27 117.315 277.404 123.802 284.67 128.166 292.178 143.166 317.932 142.249 349.486 146.474 378.987 147.657 387.245 149.374 395.716 154.294 402.514 154.748 403.168 155.336 403.716 156.02 404.123 160.068 406.467 163.701 401.741 165.22 397.73 171.22 381.861 172.72 363.713 183.463 350.579 187.563 345.579 193.363 341.4 199.827 341.441 207.727 341.495 214.482 348.09 216.786 355.641 219.09 363.192 217.711 371.397 215.243 378.896 210.661 392.802 202.449 405.296 192.772 416.275 187.672 422.075 181.901 427.931 180.372 435.494 179.419 440.721 181.24 446.069 185.185 449.628 187.018 451.223 189.418 452.008 191.839 451.803 194.431 451.566 196.775 450.244 199.039 448.959 199.988 448.419 200.939 447.871 201.896 447.334 205.669 445.186 209.443 443.035 213.218 440.881 222.813 435.407 234.399 429.814 244.393 434.528 249.498 436.938 252.835 441.677 254.406 447.114 255.813 452.049 255.813 457.279 254.406 462.214 251.429 472.477 232.665 501.036 224.926 508.401 215.882 517 184.537 554.112 116.769 533.109Z" fill="#8DDBE0"/></svg>