<svg viewBox="0 0 814.531 557.1" xmlns="http://www.w3.org/2000/svg" xmlns:xlink="http://www.w3.org/1999/xlink" id="Layer_2" overflow="hidden"><g id="Layer_2-2"><g><g><rect x="527.386" y="0.493" width="155.191" height="201.999" fill="#F4F4F4"/><rect x="682.576" y="0.493" width="5.034" height="201.999" fill="#F4F4F4" transform="matrix(-1 1.22465e-16 -1.22465e-16 -1 1370.19 202.985)"/><rect x="682.576" y="0.493" width="5.034" height="201.999" fill="#292A2E" opacity="0.05" transform="matrix(-1 1.22465e-16 -1.22465e-16 -1 1370.19 202.985)"/><rect x="555.656" y="37.29" width="98.651" height="128.406" fill="#292A2E" opacity="0.05"/><rect x="649.165" y="37.29" width="5.141" height="128.406" fill="#292A2E" opacity="0.03"/><rect x="682.576" y="252.167" width="126.921" height="128.086" fill="#F4F4F4"/><rect x="705.697" y="275.5" width="80.68" height="81.421" fill="#292A2E" opacity="0.05"/><rect x="809.497" y="252.167" width="5.034" height="128.086" fill="#F4F4F4" transform="matrix(-1 1.22465e-16 -1.22465e-16 -1 1624.03 632.42)"/><rect x="809.497" y="252.167" width="5.034" height="128.086" fill="#292A2E" opacity="0.05" transform="matrix(-1 1.22465e-16 -1.22465e-16 -1 1624.03 632.42)"/><rect x="781.235" y="275.5" width="5.141" height="81.421" fill="#292A2E" opacity="0.03"/></g><g><rect x="66.257" y="0" width="378.643" height="378.643" id="c_3_c" fill="#F4F4F4"/><rect x="444.9" y="0" width="4.34" height="378.643" id="c_3_c-2" fill="#F4F4F4"/><rect x="444.9" y="0" width="4.34" height="378.643" id="c_3_c-3" fill="#292A2E" opacity="0.05"/><path d="M353.172 260.916 353.172 161.851 272.023 161.851 272.023 219.406 146.323 219.406 146.323 321.314 92.899 321.314 92.899 378.643 146.323 378.643 156.615 378.643 426.686 378.643 426.686 260.916 353.172 260.916Z" id="c_3_c-4" fill="#292A2E" opacity="0.05"/><g id="c_3_wh"><rect x="282.44" y="172.607" width="59.094" height="10.756" id="c_3_wh-2" fill="#FFFFFA" opacity="0.34"/><rect x="282.44" y="194.896" width="59.094" height="10.756" id="c_3_wh-3" fill="#FFFFFA" opacity="0.34"/><rect x="282.44" y="217.185" width="59.094" height="10.756" id="c_3_wh-4" fill="#FFFFFA" opacity="0.34"/></g><g id="c_3_wh-5"><rect x="405.315" y="271.357" width="10.892" height="10.756" id="c_3_wh-6" fill="#FFFFFA" opacity="0.34"/><rect x="405.315" y="293.646" width="10.892" height="10.756" id="c_3_wh-7" fill="#FFFFFA" opacity="0.34"/><rect x="405.315" y="315.935" width="10.892" height="10.756" id="c_3_wh-8" fill="#FFFFFA" opacity="0.34"/><rect x="385.165" y="271.357" width="10.892" height="10.756" id="c_3_wh-9" fill="#FFFFFA" opacity="0.34"/><rect x="385.165" y="293.646" width="10.892" height="10.756" id="c_3_wh-10" fill="#FFFFFA" opacity="0.34"/><rect x="385.165" y="315.935" width="10.892" height="10.756" id="c_3_wh-11" fill="#FFFFFA" opacity="0.34"/><rect x="365.56" y="271.357" width="10.892" height="10.756" id="c_3_wh-12" fill="#FFFFFA" opacity="0.34"/><rect x="365.56" y="293.646" width="10.892" height="10.756" id="c_3_wh-13" fill="#FFFFFA" opacity="0.34"/><rect x="365.56" y="315.935" width="10.892" height="10.756" id="c_3_wh-14" fill="#FFFFFA" opacity="0.34"/></g><path d="M444.9 187.198 368.711 187.198 368.711 0 362.41 0 362.41 187.198 156.615 187.198 156.615 0 150.314 0 150.314 187.198 66.257 187.198 66.257 193.498 150.314 193.498 150.314 378.643 156.615 378.643 156.615 193.498 362.41 193.498 362.41 378.643 368.711 378.643 368.711 193.498 444.9 193.498 444.9 187.198Z" fill="#FFFFFF"/><rect x="51.173" y="378.186" width="408.811" height="12.592" id="c_3_c-5" fill="#F4F4F4"/><rect x="51.173" y="378.186" width="408.811" height="12.592" id="c_3_c-6" fill="#292A2E" opacity="0.1"/><rect x="459.984" y="378.186" width="5.902" height="12.592" id="c_3_c-7" fill="#292A2E" opacity="0.1"/><rect x="459.984" y="378.186" width="5.902" height="12.592" id="c_3_c-8" fill="#292A2E" opacity="0.1"/><g><rect x="66.257" y="6.759" width="382.983" height="9.362" fill="#FFFFFF"/><rect x="66.257" y="24.246" width="382.983" height="9.362" fill="#FFFFFF"/><rect x="66.257" y="41.733" width="382.983" height="9.362" fill="#FFFFFF"/><rect x="66.257" y="59.22" width="382.983" height="9.362" fill="#FFFFFF"/><rect x="66.257" y="76.707" width="382.983" height="9.362" fill="#FFFFFF"/></g><rect x="402.823" y="0" width="5.739" height="96.629" fill="#FFFFFF"/><circle cx="406.179" cy="102.62" r="7.885" fill="#FFFFFF"/></g><g><g id="tail"><path d="M343.877 453.631C342.844 453.631 341.806 453.54 340.775 453.355 335.086 452.332 330.115 448.701 327.479 443.643 324.87 438.639 324.856 432.797 327.438 427.194 328.962 423.888 330.964 421.167 333.426 419.049 324.061 416.728 314.411 417.381 314.268 417.392 311.483 417.593 309.071 415.509 308.866 412.733 308.66 409.956 310.74 407.538 313.517 407.329 314.431 407.26 333.663 405.928 347.306 413.734 357.795 413.104 367.797 418.038 368.308 418.294 370.799 419.543 371.806 422.575 370.556 425.066 369.307 427.557 366.273 428.563 363.784 427.314 362.667 426.76 360.739 425.963 358.403 425.264 359.802 428.211 360.604 431.473 360.799 435.029 361.119 440.837 359.127 445.952 355.189 449.433 352.116 452.149 348.045 453.63 343.876 453.63ZM344.911 424.245C344.487 424.35 344.07 424.473 343.663 424.616 340.509 425.729 338.199 427.954 336.603 431.417 335.321 434.198 335.262 436.742 336.427 438.978 337.594 441.218 340.002 442.962 342.561 443.422 344.741 443.814 346.964 443.235 348.505 441.873 350.105 440.459 350.872 438.284 350.723 435.584 350.479 431.157 348.815 427.646 345.635 424.849 345.399 424.642 345.158 424.44 344.91 424.244Z" fill="#367CFF"/><g fill="none" opacity="0.6"><path d="M343.877 453.631C342.844 453.631 341.806 453.54 340.775 453.355 335.086 452.332 330.115 448.701 327.479 443.643 324.87 438.639 324.856 432.797 327.438 427.194 328.962 423.888 330.964 421.167 333.426 419.049 324.061 416.728 314.411 417.381 314.268 417.392 311.483 417.593 309.071 415.509 308.866 412.733 308.66 409.956 310.74 407.538 313.517 407.329 314.431 407.26 333.663 405.928 347.306 413.734 357.795 413.104 367.797 418.038 368.308 418.294 370.799 419.543 371.806 422.575 370.556 425.066 369.307 427.557 366.273 428.563 363.784 427.314 362.667 426.76 360.739 425.963 358.403 425.264 359.802 428.211 360.604 431.473 360.799 435.029 361.119 440.837 359.127 445.952 355.189 449.433 352.116 452.149 348.045 453.63 343.876 453.63ZM344.911 424.245C344.487 424.35 344.07 424.473 343.663 424.616 340.509 425.729 338.199 427.954 336.603 431.417 335.321 434.198 335.262 436.742 336.427 438.978 337.594 441.218 340.002 442.962 342.561 443.422 344.741 443.814 346.964 443.235 348.505 441.873 350.105 440.459 350.872 438.284 350.723 435.584 350.479 431.157 348.815 427.646 345.635 424.849 345.399 424.642 345.158 424.44 344.91 424.244Z" fill="#FFFFFF"/></g><g fill="none" opacity="0.5"><path d="M332.018 434.353C331.311 434.353 330.593 434.204 329.909 433.889 327.378 432.722 326.272 429.725 327.438 427.194 330.204 421.192 334.549 417.117 340.352 415.084 352.894 410.688 367.684 417.982 368.307 418.294 370.798 419.543 371.805 422.575 370.555 425.066 369.306 427.557 366.272 428.563 363.783 427.314 360.58 425.725 350.699 422.133 343.662 424.616 340.508 425.729 338.198 427.954 336.602 431.417 335.751 433.264 333.924 434.352 332.016 434.352Z" fill="#FFFFFF"/></g></g><path d="M128.189 360.56C128.189 360.56 97.041 337.467 85.959 346.548 75.928 354.768 87.545 387.575 87.545 387.575 87.545 387.575 114.321 389.992 128.189 360.56Z" fill="#367CFF"/><g fill="none" opacity="0.2"><path d="M128.189 360.56C128.189 360.56 97.041 337.467 85.959 346.548 75.928 354.768 87.545 387.575 87.545 387.575 87.545 387.575 114.321 389.992 128.189 360.56Z" fill="#FFFFFF"/></g><path d="M330.622 435.756C330.622 377.561 282.752 330.385 207.464 330.385 139.845 330.385 83.612 367.772 72.881 417.686L57.174 417.686 57.174 485.155 86.61 485.155C95.289 497.869 107.45 508.744 121.797 517.715L121.797 548.505C121.797 552.699 125.197 556.099 129.391 556.099L139.592 556.099C139.826 556.099 140.057 556.083 140.286 556.064 140.515 556.083 140.746 556.099 140.98 556.099L151.181 556.099C155.375 556.099 158.775 552.699 158.775 548.505L158.775 534.198C173.897 538.669 190.308 541.126 207.464 541.126 218.353 541.126 228.663 540.133 238.343 538.269L238.343 548.505C238.343 552.699 241.743 556.099 245.937 556.099L256.138 556.099C256.372 556.099 256.603 556.083 256.832 556.064 257.061 556.083 257.292 556.099 257.526 556.099L267.727 556.099C271.921 556.099 275.321 552.699 275.321 548.505L275.321 525.459C310.299 506.897 330.621 473.667 330.621 435.755Z" fill="#367CFF"/><path d="M330.622 435.756C330.622 377.561 282.752 330.385 207.464 330.385 139.845 330.385 83.612 367.772 72.881 417.686L57.174 417.686 57.174 485.155 86.61 485.155C95.289 497.869 107.45 508.744 121.797 517.715L121.797 548.505C121.797 552.699 125.197 556.099 129.391 556.099L139.592 556.099C139.826 556.099 140.057 556.083 140.286 556.064 140.515 556.083 140.746 556.099 140.98 556.099L151.181 556.099C155.375 556.099 158.775 552.699 158.775 548.505L158.775 534.198C173.897 538.669 190.308 541.126 207.464 541.126 218.353 541.126 228.663 540.133 238.343 538.269L238.343 548.505C238.343 552.699 241.743 556.099 245.937 556.099L256.138 556.099C256.372 556.099 256.603 556.083 256.832 556.064 257.061 556.083 257.292 556.099 257.526 556.099L267.727 556.099C271.921 556.099 275.321 552.699 275.321 548.505L275.321 525.459C310.299 506.897 330.621 473.667 330.621 435.755Z" fill="#FFFFFF" opacity="0.5"/><circle cx="96.215" cy="396.965" r="4.452" fill="#262626"/><path d="M118.562 371.537C116.275 369.466 115.906 365.766 117.681 363.157 123.607 354.448 137.18 336.572 146.53 340.229 155.086 343.575 157.138 365.006 157.629 374.665 157.779 377.612 155.997 380.247 153.393 380.955 146.53 382.82 132.586 384.235 118.562 371.537Z" fill="#367CFF"/><g fill="none" opacity="0.2"><path d="M118.562 371.537C116.275 369.466 115.906 365.766 117.681 363.157 123.607 354.448 137.18 336.572 146.53 340.229 155.086 343.575 157.138 365.006 157.629 374.665 157.779 377.612 155.997 380.247 153.393 380.955 146.53 382.82 132.586 384.235 118.562 371.537Z" fill="#FFFFFF"/></g><rect x="168.437" y="339.282" rx="4.859" ry="4.859" width="76.756" height="9.719" fill="#262626"/><path d="M244.777 346.11C244.531 346.663 244.189 347.159 243.768 347.58 242.89 348.458 241.675 349.002 240.333 349.002L173.295 349.002C171.312 349.002 169.605 347.813 168.855 346.106 169.096 345.553 169.439 345.049 169.864 344.632 170.742 343.746 171.952 343.206 173.295 343.206L240.333 343.206C242.321 343.206 244.027 344.4 244.778 346.111Z" fill="#FFFFFF" opacity="0.2"/><ellipse cx="57.173" cy="451.42" rx="15.097" ry="33.735" fill="#367CFF"/><g fill="none" opacity="0.7"><ellipse cx="57.173" cy="451.42" rx="15.097" ry="33.735" fill="#FFFFFF"/></g></g><path d="M797.129 557.1 1 557.1C0.448 557.1 0 556.652 0 556.1 0 555.548 0.448 555.1 1 555.1L797.129 555.1C797.681 555.1 798.129 555.548 798.129 556.1 798.129 556.652 797.681 557.1 797.129 557.1Z" fill="#292A2E"/><g><g><path d="M674.076 144.045C674.076 144.045 681.287 183.237 690.134 194.083 715.604 225.309 725.297 251.125 706.8 273.823 688.303 296.521 553.825 314.269 537.672 269.683 524.073 232.146 541.944 225.6 542.283 193.133 542.436 178.443 544.083 147.467 544.083 147.467" fill="#0A0A0A"/><path d="M564.31 250.45C564.544 250.419 567.143 293.532 617.228 289.774 651.901 287.177 664.264 250.389 665.059 250.389 661.321 249.594 655.025 248.439 653.365 247.553 647.905 244.619 641.15 241.567 639.39 230.964 638.376 224.853 640.096 193.589 639.567 187.406L586.344 199.285C587.088 212.344 592.293 242.617 574.049 247.974 571.014 248.86 567.744 249.675 564.311 250.449Z" id="sk" fill="#FF9E85"/><path d="M585.596 235.602C586.35 233.196 586.798 231.103 587.197 227.341 587.91 220.614 587.53 214.43 586.849 208.128 597.601 206.697 607.924 202.174 616.265 195.241 617.253 198.891 622.689 214.839 621.184 218.308 618.339 224.865 604.972 235.602 585.596 235.602Z" id="sh" fill="#0C0C0C" opacity="0.22"/><path d="M595.908 226.758C616.979 226.075 638.323 214.767 640.301 186.331L646.585 160.154C648.563 131.718 635.232 107.627 608.458 105.764L608.458 105.764C581.684 103.901 561.671 115.043 559.693 143.479 559.693 143.479 558.324 159.777 558.459 165.219 558.969 185.741 563.936 227.794 595.907 226.757Z" fill="#FF9E85"/><path d="M557.785 160.849C557.988 161.74 561.373 161.245 565.808 160 570.243 158.756 574.146 157.441 573.846 156.342 573.468 154.955 569.548 154.845 565.112 156.09 560.677 157.334 557.466 159.447 557.784 160.849Z" id="e1_eb" fill="#0A0A0A"/><path d="M668.569 166.427 640.044 178.045C621.415 172.951 616.943 129.658 616.943 129.658 616.943 129.658 597.833 153.258 544.084 147.468 544.084 147.468 546.231 75.561 626.055 87.651 651.794 91.549 672.929 116.878 674.666 150.719 675.883 174.434 668.57 166.427 668.57 166.427Z" fill="#0A0A0A"/><path d="M642.535 194.361C650.671 194.927 658.532 191.131 659.351 178.881 659.895 170.743 652.722 165.463 644.585 164.896L640.013 170.056 635.539 193.874 642.534 194.361Z" fill="#FF9E85"/><g><circle cx="566.207" cy="169.815" r="2.919" id="e1_eye" fill="#0A0A0A" transform="matrix(0.993097 -0.117295 0.117295 0.993097 -16.011 67.59)"/><g id="e1_n"><path d="M586.312 189.07C586.899 189.001 587.349 188.498 587.341 187.895 587.333 187.25 586.803 186.734 586.158 186.743L579.941 186.826 582.272 174.112C582.388 173.478 581.968 172.869 581.333 172.753 580.699 172.637 580.091 173.056 579.974 173.691L577.388 187.802C577.325 188.146 577.42 188.499 577.645 188.766 577.87 189.033 578.203 189.185 578.553 189.18L586.191 189.078C586.232 189.078 586.273 189.075 586.313 189.07Z" fill="#0A0A0A"/></g><g id="e1_m"><path d="M590.748 201.865C601.307 202.603 604.895 196.442 605.057 196.153 605.372 195.59 605.171 194.879 604.609 194.564 604.05 194.249 603.341 194.448 603.023 195.006 602.872 195.268 599.21 201.309 587.688 199.108 587.042 198.982 586.442 199.403 586.321 200.036 586.2 200.669 586.616 201.281 587.249 201.402 588.492 201.64 589.658 201.79 590.748 201.866Z" fill="#0A0A0A"/></g><path d="M592.926 156.084C592.75 156.981 596.045 157.901 600.603 158.563 605.162 159.225 609.262 159.607 609.434 158.481 609.651 157.06 606.113 155.369 601.554 154.707 596.995 154.045 593.203 154.673 592.926 156.083Z" id="e1_eb-2" fill="#0A0A0A"/><circle cx="596.778" cy="167.815" r="2.919" id="e1_eye-2" fill="#0A0A0A" transform="matrix(0.993097 -0.117295 0.117295 0.993097 -15.565 71.162)"/></g><path d="M633.169 155.491C633.488 157.927 628.371 167.425 629.495 169.61 631.267 173.057 637.567 178.207 640.045 178.045 644.407 177.76 639.746 170.551 644.54 165.736 645.38 165.564 646.248 165.451 647.137 165.463 650.708 165.466 653.949 166.864 656.348 169.142L654.678 158.124" fill="#0A0A0A"/></g><path d="M729.989 501.812 738.894 556.1 516.795 556.1 525.097 501.484 729.989 501.812Z" fill="#262626"/><path d="M618.528 278.236C652.62 276.629 654.055 247.692 654.055 247.692 654.055 247.692 670.947 248.784 682.176 250.303 700.56 252.79 712.688 259.024 722.339 268.675 731.317 277.653 736.783 287.367 730.999 349.386 726.811 394.292 729.989 501.812 729.989 501.812L525.097 501.484C525.097 501.484 505.98 363.601 504.26 343.387 500.977 304.798 507.972 272.176 515.984 264.164 532.455 247.693 560.812 247.693 574.973 247.695 575.204 247.695 572.1 280.425 618.528 278.236Z" id="b_1_b" fill="#367CFF"/><g><path d="M272.533 227.134C269.9 225.518 266.429 226.422 264.934 229.172 263.532 231.75 264.625 234.999 267.126 236.533L273.364 240.36 248.134 237.318C245.335 236.931 241.652 238.246 241.425 241.415 241.073 243.964 242.56 246.334 244.866 247.211 244.858 247.24 244.843 247.266 244.841 247.296 244.838 247.318 244.846 247.337 244.846 247.359L240.529 246.762C237.217 246.304 234.19 248.943 234.374 252.465 234.51 255.082 236.647 257.167 239.243 257.526L241.08 257.78C241.098 257.838 241.125 257.894 241.162 257.941 238.614 258.171 236.481 260.185 236.251 262.877 236.001 265.801 238.306 268.338 241.213 268.74L245.728 269.364C245.591 269.438 245.486 269.568 245.462 269.736 245.45 269.835 245.476 269.926 245.516 270.009 243.418 270.807 241.889 272.874 242.021 275.405 242.158 278.022 244.295 280.107 246.891 280.466L285.386 285.789C296.402 287.312 307.241 281.999 312.785 272.358L321.51 257.184 272.531 227.134Z" fill="#FF9E85"/><g fill="none" opacity="0.2"><path d="M269.823 250.352C269.784 250.62 269.538 250.809 269.268 250.776L245.279 247.853C245.005 247.819 244.81 247.57 244.843 247.296 244.854 247.036 245.126 246.827 245.4 246.86L269.389 249.783C269.663 249.817 269.858 250.066 269.825 250.34L269.823 250.352Z" fill="#0C0C0C"/></g><g fill="none" opacity="0.2"><path d="M268.825 260.967C268.786 261.235 268.54 261.424 268.27 261.391L241.498 258.128C241.224 258.094 241.029 257.845 241.062 257.571 241.094 257.321 241.345 257.102 241.619 257.135L268.391 260.398C268.665 260.432 268.86 260.681 268.827 260.955L268.825 260.967Z" fill="#0C0C0C"/></g><g fill="none" opacity="0.2"><path d="M267.811 272.471C267.772 272.739 267.526 272.928 267.256 272.895L245.9 270.293C245.626 270.259 245.431 270.01 245.464 269.736 245.503 269.46 245.747 269.267 246.021 269.3L267.377 271.902C267.651 271.936 267.846 272.185 267.813 272.459L267.811 272.471Z" fill="#0C0C0C"/></g></g><g><g><circle cx="209.747" cy="243.505" r="63.47" fill="#0CBC8B"/><g fill="none" opacity="0.1"><circle cx="209.747" cy="243.505" r="50.316" fill="#292A2E"/></g></g><path d="M206.384 267.649 206.119 258.993C210.8 259.229 214.304 258.58 217.154 256.616 220.57 254.262 221.096 251.81 219.206 249.067 214.933 242.867 199.102 253.941 191.608 243.066 186.791 236.075 188.564 228.285 196.201 223.023 201.356 219.471 206.324 219.184 211.196 220.23L210.263 228.362C206.699 227.879 204.119 228.11 201.603 229.844 198.704 231.842 197.937 234.095 199.802 236.802 203.762 242.549 219.324 231.084 227.263 242.604 232.032 249.524 230.902 257.685 222.081 263.764 218.274 266.387 211.913 268.387 206.385 267.648ZM188.784 219.424 194.663 215.373 200.644 224.052 194.765 228.103 188.784 219.424ZM217.73 261.428 223.609 257.377 230.172 266.9 224.293 270.951 217.73 261.428Z" fill="#FFFFFF"/></g><path d="M275.605 241.849 267.126 236.532C264.625 234.997 263.532 231.749 264.934 229.171 266.429 226.422 269.9 225.518 272.533 227.133" fill="#FF9E85"/><path d="M598.784 376.963 572.412 355.108C570.033 353.137 566.47 353.541 564.601 356.052 562.849 358.406 563.472 361.776 565.732 363.649L571.367 368.319 597.889 382.055 598.784 376.963Z" fill="#FF9E85"/><g><path d="M571.367 368.319 546.82 361.744C544.103 360.965 540.272 361.747 539.6 364.852 538.891 367.326 540.025 369.888 542.185 371.082 542.174 371.107 542.156 371.129 542.151 371.157 542.145 371.178 542.15 371.199 542.147 371.22L537.958 370.019C534.744 369.098 531.375 371.283 531.059 374.795 530.824 377.405 532.646 379.771 535.165 380.493L536.948 381.004C536.957 381.063 536.976 381.119 537.005 381.17 534.451 381.038 532.056 382.736 531.448 385.368 530.788 388.227 532.711 391.064 535.532 391.873L539.914 393.129C539.768 393.183 539.645 393.296 539.598 393.46 539.572 393.556 539.585 393.65 539.613 393.738 537.424 394.231 535.618 396.062 535.391 398.586 535.157 401.196 536.978 403.562 539.497 404.284L576.854 414.99C587.545 418.054 599.026 414.325 605.875 405.563L616.656 391.773 571.367 368.318Z" fill="#FF9E85"/><g fill="none" opacity="0.2"><path d="M566.45 377.711C566.373 377.971 566.103 378.123 565.84 378.053L542.504 371.771C542.238 371.699 542.08 371.425 542.151 371.158 542.198 370.902 542.498 370.733 542.764 370.805L566.1 377.087C566.366 377.159 566.524 377.433 566.453 377.7L566.45 377.711Z" fill="#0C0C0C"/></g><g fill="none" opacity="0.2"><path d="M563.963 388.08C563.886 388.34 563.616 388.492 563.353 388.422L537.31 381.411C537.044 381.339 536.886 381.065 536.957 380.798 537.024 380.555 537.303 380.374 537.57 380.445L563.613 387.456C563.879 387.528 564.037 387.802 563.966 388.069L563.963 388.08Z" fill="#0C0C0C"/></g><g fill="none" opacity="0.2"><path d="M561.335 399.325C561.258 399.585 560.988 399.737 560.725 399.667L539.951 394.075C539.685 394.003 539.527 393.729 539.598 393.462 539.676 393.194 539.944 393.038 540.211 393.109L560.985 398.701C561.251 398.773 561.409 399.047 561.338 399.314L561.335 399.325Z" fill="#0C0C0C"/></g></g><path d="M579.708 424.689 749.373 473.665C752.561 474.512 755.794 474.923 758.998 474.923 769.816 474.923 780.298 470.234 787.525 461.765 796.893 450.786 799.13 435.408 793.278 422.216L735.434 284.415C727.035 265.483 695.665 246.056 676.737 254.455 657.805 262.853 658.479 295.897 666.878 314.828L701.659 387.293 595.872 362.837 579.709 424.69Z" fill="#367CFF"/><path d="M729.244 468.354C729.198 468.354 729.152 468.348 729.105 468.334L579.569 425.169C579.308 425.094 579.155 424.824 579.224 424.562L595.387 362.709C595.455 362.446 595.719 362.286 595.984 362.348L700.757 386.57 666.426 315.043C666.306 314.794 666.411 314.496 666.66 314.376 666.91 314.254 667.207 314.361 667.327 314.61L702.108 387.075C702.191 387.248 702.168 387.454 702.047 387.604 701.926 387.754 701.732 387.819 701.544 387.779L596.231 363.432 580.314 424.343 729.382 467.373C729.647 467.45 729.8 467.727 729.724 467.992 729.661 468.211 729.461 468.353 729.244 468.353Z" fill="#0C0C0C"/><path d="M719.124 391.591C719.089 391.591 719.053 391.588 719.017 391.58L701.552 387.781C701.282 387.722 701.111 387.456 701.17 387.186 701.229 386.916 701.494 386.744 701.765 386.804L719.23 390.603C719.5 390.662 719.671 390.928 719.612 391.198 719.561 391.432 719.354 391.592 719.124 391.592Z" fill="#0C0C0C"/><line x1="502.356" y1="320.743" x2="500.128" y2="291.905" stroke="#0C0C0C" stroke-linecap="round" stroke-linejoin="round" fill="none"/><path d="M416.14 439.441C406.279 439.441 396.45 435.573 389.105 427.938L263.102 296.947 317.154 244.953 418.294 350.097 517.368 262.95 566.903 319.264 440.9 430.098C433.791 436.351 424.953 439.441 416.141 439.441Z" fill="#367CFF"/><rect x="505.005" y="338.358" width="1" height="33.218" fill="#0C0C0C" transform="matrix(0.992178 -0.124831 0.124831 0.992178 -40.356 65.877)"/></g></g></g></svg>