<svg viewBox="0 0 896.9 588.291" xmlns="http://www.w3.org/2000/svg" xmlns:xlink="http://www.w3.org/1999/xlink" id="Layer_2" overflow="hidden"><g id="Layer_2-2"><g><g><path d="M254.706 573.836C254.946 573.836 255.177 573.702 255.29 573.472L272.394 538.39C272.551 538.068 272.417 537.68 272.095 537.523 271.773 537.366 271.385 537.5 271.228 537.822L254.124 572.904C253.967 573.226 254.101 573.614 254.423 573.771 254.515 573.816 254.611 573.837 254.707 573.837Z" fill="#292A2E"/><path d="M225.793 571.8C226.081 571.8 226.344 571.607 226.42 571.316L246.212 495.751C246.303 495.405 246.095 495.05 245.749 494.959 245.401 494.869 245.048 495.076 244.957 495.422L225.165 570.987C225.074 571.333 225.282 571.688 225.628 571.779 225.683 571.794 225.739 571.8 225.793 571.8Z" fill="#292A2E"/><path d="M188.037 575.145C188.122 575.145 188.207 575.128 188.29 575.093 188.62 574.953 188.773 574.572 188.634 574.243L168.174 526.057C168.034 525.727 167.653 525.573 167.324 525.713 166.994 525.853 166.841 526.234 166.98 526.563L187.44 574.749C187.545 574.996 187.785 575.144 188.037 575.144Z" fill="#292A2E"/><path d="M225.059 586.31C225.111 586.31 225.164 586.304 225.217 586.291 225.564 586.204 225.776 585.852 225.689 585.504L201.914 490.394C201.827 490.047 201.475 489.836 201.127 489.922 200.78 490.009 200.568 490.361 200.655 490.709L224.43 585.819C224.504 586.113 224.768 586.31 225.059 586.31Z" fill="#292A2E"/><ellipse cx="195.546" cy="499.851" rx="27.189" ry="23.345" fill="#0CBC8B" transform="matrix(0.429566 -0.903036 0.903036 0.429566 -339.837 461.721)"/><ellipse cx="195.546" cy="499.851" rx="27.189" ry="23.345" fill="#FFFFFF" opacity="0.4" transform="matrix(0.429566 -0.903036 0.903036 0.429566 -339.837 461.721)"/><ellipse cx="163.938" cy="536.081" rx="16.307" ry="13.665" fill="#0CBC8B" transform="matrix(0.373587 -0.927595 0.927595 0.373587 -394.574 487.88)"/><ellipse cx="252.096" cy="507.361" rx="19.676" ry="24.148" fill="#0CBC8B" transform="matrix(0.95695 -0.290251 0.290251 0.95695 -136.41 95.013)"/><ellipse cx="274.512" cy="542.837" rx="10.657" ry="15" fill="#0CBC8B" transform="matrix(0.986263 -0.165185 0.165185 0.986263 -85.897 52.802)"/><rect x="168.953" y="562.035" width="100.991" height="25.167" fill="#292A2E" transform="matrix(-1 -1.22465e-16 1.22465e-16 -1 438.898 1149.24)"/><rect x="168.953" y="562.035" width="100.991" height="25.167" fill="#FFFFFF" opacity="0.3" transform="matrix(-1 -1.22465e-16 1.22465e-16 -1 438.898 1149.24)"/><ellipse cx="201.285" cy="549.451" rx="19.893" ry="16.747" fill="#0CBC8B" transform="matrix(0.373587 -0.927595 0.927595 0.373587 -383.58 530.898)"/><circle cx="239.235" cy="549.909" r="15.472" fill="#0CBC8B"/><ellipse cx="163.938" cy="536.081" rx="16.307" ry="13.665" fill="#FFFFFF" opacity="0.68" transform="matrix(0.373587 -0.927595 0.927595 0.373587 -394.574 487.88)"/><ellipse cx="252.096" cy="507.361" rx="19.676" ry="24.148" fill="#FFFFFF" opacity="0.68" transform="matrix(0.95695 -0.290251 0.290251 0.95695 -136.41 95.013)"/><ellipse cx="274.512" cy="542.837" rx="10.657" ry="15" fill="#FFFFFF" opacity="0.68" transform="matrix(0.986263 -0.165185 0.165185 0.986263 -85.897 52.802)"/><ellipse cx="201.285" cy="549.451" rx="19.893" ry="16.747" fill="#FFFFFF" opacity="0.68" transform="matrix(0.373587 -0.927595 0.927595 0.373587 -383.58 530.898)"/><circle cx="239.235" cy="549.909" r="15.472" fill="#FFFFFF" opacity="0.4"/><path d="M189.538 536.884C201.282 540.165 207.462 530.568 207.462 530.568L207.456 530.555C201.192 528.687 194.247 531.314 189.539 536.884Z" fill="#292A2E"/><path d="M263.716 540.813C269.507 538.686 274.124 534.426 277.21 528.92 275.569 528.083 273.799 527.746 272.035 528.045 267.146 528.862 263.825 534.251 263.715 540.813Z" fill="#292A2E"/><path d="M236.474 534.685C241.26 538.848 246.862 541.481 252.614 542.136 249.929 537.532 244.943 534.439 239.236 534.439 238.289 534.439 237.368 534.523 236.474 534.685Z" fill="#292A2E"/></g><g><g><rect x="63.83" y="22.97" rx="20.51" ry="20.51" width="379.21" height="370.351" fill="#F4F4F4"/><g><g><path d="M279.779 178.262C279.575 178.235 277.31 215.814 233.655 212.538 203.433 210.274 192.657 178.209 191.964 178.209 195.222 177.516 199.249 176.465 200.85 176.105 206.167 174.907 212.804 170.519 214.338 161.278 215.222 155.951 213.722 128.701 214.184 123.312L260.575 133.667C259.927 145.049 255.39 171.436 271.291 176.106 273.937 176.878 276.787 177.589 279.779 178.263Z" id="sk" fill="#FF9E85"/><path d="M261.225 165.321C260.568 163.224 260.177 161.4 259.83 158.121 259.209 152.257 259.539 146.867 260.133 141.374 250.761 140.127 241.764 136.185 234.493 130.141 233.632 133.322 228.894 147.223 230.206 150.247 232.685 155.962 244.337 165.321 261.225 165.321Z" id="sh" fill="#0C0C0C" opacity="0.22"/><g><path d="M288.812 93.577C288.812 93.577 302.125 83.684 305.577 60.709 308.25 42.92 291.737 54.334 291.737 54.334 291.737 54.334 293.537 41.506 284.176 42.711 274.815 43.915 269.472 57.365 269.472 57.365" fill="#0C0C0C"/><path d="M235.808 43.852C235.808 43.852 189.353 48.482 205.662 111.506L209.767 111.812 218.1 112.433" fill="#0C0C0C"/><path d="M252.432 157.17C234.143 155.392 212.325 143.665 212.194 118.819L212.077 96.401C211.947 71.556 224.891 51.346 248.284 51.224L248.284 51.224C271.677 51.101 289.268 71.151 289.398 95.996L289.45 105.921C289.461 107.964 289.265 111.631 288.631 116.101 287.365 125.019 285.403 138.579 279.275 147.716 273.489 156.342 264.117 158.306 252.433 157.17Z" fill="#FF9E85"/><g id="m"><path d="M261.953 138.423C261.516 138.423 261.115 138.134 260.991 137.694 258.996 130.606 248.994 132.306 248.569 132.382 248.025 132.477 247.506 132.117 247.408 131.574 247.31 131.031 247.671 130.511 248.214 130.413 252.429 129.649 260.926 130.08 262.916 137.151 263.066 137.683 262.756 138.235 262.224 138.384 262.134 138.41 262.042 138.422 261.953 138.422Z" fill="#0C0C0C"/></g><g><g><circle cx="277.941" cy="109.602" r="2.551" id="e1_eye" fill="#0A0A0A" transform="matrix(0.143113 -0.989706 0.989706 0.143113 129.69 368.996)"/><g id="e1_n"><path d="M260.643 125.458C260.132 125.384 259.75 124.935 259.771 124.408 259.793 123.845 260.267 123.406 260.831 123.429L266.26 123.643 264.513 112.485C264.426 111.928 264.807 111.406 265.364 111.319 265.92 111.232 266.442 111.612 266.53 112.169L268.468 124.554C268.515 124.856 268.424 125.162 268.221 125.39 268.018 125.618 267.724 125.743 267.419 125.731L260.75 125.468C260.714 125.467 260.678 125.463 260.644 125.458Z" fill="#0A0A0A"/></g><path d="M255.978 95.397C256.112 96.184 253.213 96.913 249.216 97.388 245.219 97.863 241.629 98.103 241.504 97.116 241.347 95.87 244.622 93.463 248.619 92.989 252.616 92.514 255.768 94.159 255.978 95.397Z" id="e1_eb" fill="#0A0A0A"/><circle cx="251.291" cy="107.681" r="2.551" id="e1_eye-2" fill="#0A0A0A" transform="matrix(0.143113 -0.989706 0.989706 0.143113 108.756 340.975)"/></g><path d="M286.564 100.359C286.367 101.133 283.421 100.623 279.575 99.435 275.729 98.247 272.351 97.01 272.637 96.057 272.999 94.854 276.572 93.838 280.417 95.025 284.263 96.213 286.873 99.141 286.563 100.358Z" id="e1_eb-2" fill="#0A0A0A"/></g><path d="M213.687 126.381C206.578 126.418 200.775 118.843 200.738 111.734 200.701 104.625 206.443 100.674 213.552 100.637L217.24 105.381 219.799 126.349 213.687 126.381Z" fill="#FF9E85"/><path d="M218.68 114.801C219.865 114.916 220.921 114.058 221.042 112.874 221.823 105.224 225.107 79.563 234.183 77.786 241.293 76.393 258.433 86.592 274.402 83.67 281.388 82.392 287.998 84.168 288.647 87.468 288.904 88.775 293.39 70.058 282.572 55.746 273.959 44.351 245.519 40.94 232.541 44.558 196.607 54.577 212.075 102.175 212.075 102.175L213.37 112.586C213.495 113.591 214.3 114.375 215.309 114.473L218.681 114.801Z" fill="#0C0C0C"/><ellipse cx="267.453" cy="53.803" rx="9.733" ry="14.326" fill="#0C0C0C" transform="matrix(0.980364 -0.197195 0.197195 0.980364 -5.358 53.797)"/></g></g><g><path d="M413.491 188.884 422.218 160.997C423.022 158.43 425.857 157.061 428.401 158.106 430.656 159.033 431.7 161.66 430.972 163.987L429.101 169.967 443.618 153.864C445.201 152.046 448.306 150.826 450.229 152.736 451.885 154.178 452.263 156.538 451.271 158.396 451.29 158.409 451.313 158.416 451.33 158.434 451.344 158.447 451.35 158.463 451.362 158.477L453.803 155.673C455.685 153.511 459.136 153.521 460.986 155.923 462.341 157.682 462.123 160.198 460.666 161.873L459.627 163.067C459.648 163.113 459.66 163.162 459.663 163.212 461.446 161.921 463.976 162.037 465.633 163.679 467.39 165.421 467.337 168.292 465.713 170.158L463.133 173.122C463.263 173.093 463.403 173.117 463.513 173.212 463.576 173.269 463.611 173.342 463.631 173.418 465.471 172.738 467.674 173.25 469 175.055 470.29 176.811 470.041 179.269 468.61 180.912L446.844 205.92C440.615 213.077 430.666 215.738 421.696 212.648L421.696 212.648C413.834 209.939 409.554 201.468 412.037 193.532L413.491 188.885Z" fill="#FF9E85"/><g fill="none" opacity="0.2"><path d="M436.98 174.406C437.156 174.556 437.42 174.54 437.575 174.367L451.36 159.035C451.517 158.86 451.503 158.59 451.328 158.432 451.175 158.271 450.883 158.289 450.725 158.464L436.94 173.796C436.783 173.971 436.797 174.241 436.972 174.399L436.98 174.406Z" fill="#0C0C0C"/></g><g fill="none" opacity="0.2"><path d="M443.574 180.672C443.75 180.822 444.014 180.806 444.169 180.633L459.554 163.523C459.711 163.348 459.697 163.078 459.522 162.92 459.361 162.777 459.077 162.777 458.919 162.952L443.534 180.062C443.377 180.237 443.391 180.507 443.566 180.665L443.574 180.672Z" fill="#0C0C0C"/></g><g fill="none" opacity="0.2"><path d="M450.677 187.5C450.853 187.65 451.117 187.634 451.272 187.461L463.544 173.813C463.701 173.638 463.687 173.368 463.512 173.21 463.332 173.055 463.067 173.067 462.909 173.242L450.637 186.89C450.48 187.065 450.494 187.335 450.669 187.493L450.677 187.5Z" fill="#0C0C0C"/></g></g><g><path d="M58.513 196.578 49.45 167.62C48.616 164.954 45.671 163.533 43.03 164.618 40.688 165.58 39.604 168.309 40.361 170.725L42.304 176.935 27.23 160.213C25.586 158.325 22.362 157.058 20.365 159.042 18.645 160.539 18.253 162.99 19.283 164.919 19.263 164.933 19.239 164.94 19.222 164.958 19.208 164.971 19.201 164.988 19.189 165.003L16.655 162.091C14.7 159.845 11.117 159.856 9.196 162.351 7.789 164.178 8.015 166.79 9.529 168.529L10.608 169.768C10.587 169.816 10.574 169.867 10.57 169.919 8.719 168.578 6.091 168.698 4.37 170.404 2.546 172.213 2.6 175.194 4.286 177.131L6.965 180.209C6.83 180.178 6.685 180.204 6.57 180.303 6.505 180.362 6.469 180.438 6.447 180.517 4.536 179.811 2.248 180.343 0.872 182.217-0.467 184.04-0.209 186.593 1.277 188.3L23.88 214.269C30.348 221.701 40.679 224.465 49.995 221.255L49.995 221.255C58.159 218.442 62.604 209.645 60.025 201.405L58.515 196.579Z" fill="#FF9E85"/><g fill="none" opacity="0.2"><path d="M34.121 181.544C33.939 181.7 33.664 181.683 33.503 181.504L19.188 165.583C19.025 165.401 19.039 165.121 19.221 164.957 19.38 164.79 19.683 164.808 19.847 164.99L34.162 180.911C34.325 181.093 34.311 181.373 34.129 181.537L34.121 181.544Z" fill="#0C0C0C"/></g><g fill="none" opacity="0.2"><path d="M27.274 188.051C27.092 188.207 26.817 188.19 26.656 188.011L10.68 170.243C10.517 170.061 10.531 169.781 10.713 169.617 10.88 169.468 11.175 169.469 11.339 169.65L27.315 187.418C27.478 187.6 27.464 187.88 27.282 188.044L27.274 188.051Z" fill="#0C0C0C"/></g><g fill="none" opacity="0.2"><path d="M19.898 195.142C19.716 195.298 19.441 195.281 19.28 195.102L6.536 180.929C6.373 180.747 6.387 180.467 6.569 180.303 6.756 180.142 7.031 180.155 7.195 180.336L19.939 194.509C20.102 194.691 20.088 194.971 19.906 195.135L19.898 195.142Z" fill="#0C0C0C"/></g></g><path d="M330.918 195.236 405.866 333.604 349.994 338.794 403.233 184.527 463.856 205.969 408.263 359.403C402.429 375.505 384.646 383.828 368.545 377.994 361.721 375.521 356.293 370.902 352.749 365.175L352.391 364.594 269.598 230.773 330.918 195.236Z" fill="#367CFF"/><path d="M232.714 203.06C202.511 201.636 201.24 176.001 201.24 176.001 201.24 176.001 186.275 176.968 176.327 178.314 160.04 180.518 149.296 186.04 140.745 194.591 132.791 202.545 127.948 211.151 133.073 266.095 136.783 305.878 134.172 393.384 134.172 393.384L316.451 393.384C316.451 393.384 327.382 278.688 328.905 260.78 331.813 226.593 343.721 207.323 327.077 189.713 315.006 176.942 283.846 176.002 271.301 176.004 271.097 176.004 273.846 205 232.714 203.061Z" id="b_1_b" fill="#367CFF"/><path d="M195.976 238.218 110.675 362.275 110.29 362.835C100.582 376.954 81.266 380.53 67.147 370.822 61.522 366.955 57.572 361.56 55.467 355.579L5.724 214.579 66.541 193.693 113.923 335.504 58.715 328.807 136.393 199.839 195.976 238.218Z" fill="#367CFF"/></g></g><path d="M323.792 316.399C323.778 316.399 323.763 316.399 323.75 316.397 323.507 316.374 323.328 316.158 323.35 315.914L329.131 254.301C329.153 254.058 329.378 253.89 329.614 253.901 329.857 253.924 330.036 254.14 330.014 254.384L324.233 315.997C324.211 316.226 324.018 316.398 323.793 316.398Z" fill="#0C0C0C"/><path d="M135.047 323.582C134.809 323.582 134.613 323.393 134.604 323.155L132.63 266.11C132.622 265.865 132.813 265.66 133.057 265.651 133.275 265.648 133.506 265.834 133.516 266.078L135.49 323.123C135.498 323.368 135.307 323.573 135.063 323.582L135.047 323.582Z" fill="#0C0C0C"/></g><g><path d="M626.254 248.082 626.254 174.25C626.254 169.295 622.238 165.279 617.283 165.279L531.902 165.279C526.947 165.279 522.931 169.295 522.931 174.25L522.931 226.567C522.931 231.522 526.947 235.538 531.902 235.538L602.825 235.538C602.825 235.538 622.897 249.813 622.897 249.813 624.304 250.814 626.253 249.808 626.253 248.081Z" fill="#0CBC8B"/><path d="M626.254 248.082 626.254 174.25C626.254 169.295 622.238 165.279 617.283 165.279L531.902 165.279C526.947 165.279 522.931 169.295 522.931 174.25L522.931 226.567C522.931 231.522 526.947 235.538 531.902 235.538L602.825 235.538C602.825 235.538 622.897 249.813 622.897 249.813 624.304 250.814 626.253 249.808 626.253 248.081Z" fill="#FFFFFF" opacity="0.5"/><g><circle cx="602.834" cy="201.097" r="8.955" fill="#FFFFFF"/><circle cx="574.593" cy="201.097" r="8.955" fill="#FFFFFF"/><circle cx="546.351" cy="201.097" r="8.955" fill="#FFFFFF"/></g></g><g><path d="M374.291 110.843 374.291 8.651C374.291 3.873 378.164 0 382.942 0L503.139 0C507.917 0 511.79 3.873 511.79 8.651L511.79 84.848C511.79 89.626 507.917 93.499 503.139 93.499L405.469 93.499C405.469 93.499 378.228 112.873 378.228 112.873 376.578 114.047 374.291 112.867 374.291 110.842Z" fill="#0CBC8B"/><circle cx="443.04" cy="75.808" r="5.294" fill="#FFFFFF"/><path d="M442.794 64.317C440.891 64.317 439.348 62.774 439.348 60.871L439.348 48.07C439.348 46.478 440.438 45.093 441.986 44.72 442.136 44.683 457.553 40.781 457.553 30.406 457.553 23.896 452.216 19.349 444.574 19.349 436.299 19.349 432.045 27.621 431.869 27.974 431.016 29.669 428.952 30.364 427.252 29.518 425.553 28.673 424.853 26.62 425.691 24.918 425.941 24.409 431.967 12.457 444.574 12.457 456.088 12.457 464.445 20.006 464.445 30.406 464.445 42.941 451.868 48.682 446.241 50.623L446.241 60.87C446.241 62.773 444.698 64.316 442.795 64.316Z" fill="#FFFFFF"/></g><g><g><circle cx="685.743" cy="271.349" r="22.79" fill="#367CFF"/><path d="M675.062 269.19C673.901 269.19 672.795 268.512 672.306 267.378 671.895 266.425 662.355 243.657 672.717 210.257 683.942 174.078 723.036 173.659 723.43 173.659 725.087 173.659 726.43 175.002 726.43 176.659 726.43 178.316 725.089 179.657 723.434 179.659L723.434 179.659C722.006 179.663 688.346 180.13 678.447 212.035 668.736 243.338 677.723 264.788 677.815 265.001 678.472 266.522 677.771 268.288 676.249 268.944 675.862 269.111 675.458 269.191 675.062 269.191Z" fill="#367CFF"/><g><g><circle cx="677.492" cy="271.349" r="22.79" fill="#367CFF"/><circle cx="677.492" cy="271.349" r="22.79" fill="#FFFFFF" opacity="0.3"/><circle cx="682.96" cy="271.349" r="22.79" fill="#367CFF"/></g><path d="M790.461 230.343C790.461 230.343 797.782 265.428 806.527 276.043 831.702 306.601 842.752 343.307 824.687 365.698 806.622 388.089 680.775 406.172 664.691 362.443 651.15 325.628 665.677 319.109 665.854 287.209 665.934 272.775 667.932 242.333 667.932 242.333" fill="#0A0A0A"/><path d="M685.282 343.88C685.512 343.85 688.065 386.21 737.275 382.517 771.343 379.965 783.49 343.82 784.271 343.82 780.598 343.039 774.413 341.904 772.781 341.033 767.417 338.151 760.779 335.151 759.05 324.734 758.053 318.73 759.744 288.012 759.224 281.937L706.93 293.609C707.661 306.439 712.775 336.184 694.85 341.448 691.868 342.319 688.655 343.119 685.282 343.88Z" id="sk-2" fill="#FF9E85"/><path d="M706.196 329.292C706.937 326.928 707.377 324.872 707.769 321.176 708.469 314.566 708.097 308.49 707.427 302.299 717.991 300.893 728.134 296.449 736.329 289.637 737.3 293.223 742.64 308.893 741.162 312.301 738.367 318.743 725.233 329.293 706.196 329.293Z" id="sh-2" fill="#0C0C0C" opacity="0.5"/><path d="M715.506 319.987C736.205 319.209 761.54 307.471 763.347 279.522L764.978 254.304C766.785 226.355 753.571 202.749 727.256 201.048L727.256 201.048C700.941 199.346 679.807 220.731 677.999 248.68L677.277 259.845C676.584 270.569 678.574 321.376 715.505 319.988Z" fill="#FF9E85"/><g><path d="M679.536 248.616C679.631 249.512 683.004 249.419 687.492 248.713 691.98 248.007 695.954 247.171 695.788 246.061 695.578 244.659 691.751 244.098 687.263 244.804 682.775 245.51 679.385 247.208 679.535 248.617Z" id="e1_eb-3" fill="#0A0A0A"/><g><circle cx="685.777" cy="257.204" r="2.879" id="e1_eye-3" fill="#0A0A0A"/><g id="e1_n-2"><path d="M702.074 280.841C702.657 280.841 703.156 280.401 703.218 279.809 703.284 279.176 702.825 278.61 702.192 278.544L696.093 277.906 699.847 265.723C700.034 265.115 699.693 264.471 699.084 264.283 698.477 264.096 697.832 264.437 697.644 265.044L693.478 278.566C693.377 278.895 693.429 279.253 693.619 279.54 693.809 279.827 694.117 280.015 694.46 280.051L701.953 280.834C701.993 280.838 702.034 280.84 702.073 280.84Z" fill="#0A0A0A"/></g><g id="e1_m"><path d="M705.793 293.883C716.233 293.883 719.339 287.575 719.478 287.279 719.749 286.704 719.503 286.018 718.928 285.746 718.357 285.475 717.673 285.719 717.398 286.29 717.268 286.558 714.08 292.754 702.592 291.381 701.948 291.301 701.386 291.757 701.311 292.388 701.236 293.02 701.687 293.593 702.318 293.668 703.557 293.816 704.715 293.884 705.792 293.884Z" fill="#0A0A0A"/></g><path d="M714.506 248.013C714.23 248.871 717.35 250.154 721.739 251.33 726.128 252.506 730.099 253.354 730.398 252.272 730.775 250.906 727.505 248.84 723.116 247.664 718.728 246.488 714.941 246.665 714.506 248.014Z" id="e1_eb-4" fill="#0A0A0A"/><circle cx="714.649" cy="259.039" r="2.879" id="e1_eye-4" fill="#0A0A0A"/></g></g><path d="M786.285 260.336 759.308 270.392C740.98 265.476 735.384 224.457 735.384 224.457 735.384 224.457 720.721 247.736 667.883 242.306 667.883 242.306 665.309 168.338 743.854 180.863 769.113 184.891 789.769 207.077 791.638 240.318 792.948 263.613 786.284 260.336 786.284 260.336Z" fill="#0A0A0A"/><path d="M761.162 287.932C769.159 288.449 776.195 280.313 776.712 272.316 777.229 264.319 771.031 259.49 763.034 258.972L758.567 264.064 754.286 287.487 761.162 287.932Z" fill="#FF9E85"/></g><g><path d="M528.846 328.286 520.77 295.001C520.026 291.937 516.814 290.119 513.759 291.147 511.05 292.059 509.629 295.052 510.303 297.829L512.035 304.966 496.287 285.021C494.575 282.773 491.036 281.11 488.641 283.196 486.594 284.756 485.972 287.487 486.989 289.736 486.965 289.75 486.938 289.757 486.917 289.776 486.9 289.79 486.891 289.809 486.876 289.824L484.236 286.357C482.2 283.684 478.163 283.432 475.816 286.101 474.097 288.055 474.159 291.014 475.736 293.084L476.86 294.559C476.832 294.612 476.814 294.668 476.807 294.726 474.821 293.079 471.852 293.022 469.788 294.816 467.6 296.719 467.442 300.081 469.199 302.387L471.99 306.051C471.84 306.007 471.675 306.025 471.538 306.127 471.46 306.189 471.414 306.271 471.384 306.359 469.284 305.423 466.667 305.854 464.979 307.863 463.336 309.818 463.44 312.712 464.987 314.744L488.534 345.658C495.273 354.505 506.706 358.378 517.434 355.449L517.434 355.449C526.837 352.882 532.491 343.3 530.192 333.828L528.846 328.281Z" fill="#FF9E85"/><g fill="none" opacity="0.2"><path d="M502.479 309.557C502.262 309.72 501.954 309.68 501.786 309.466L486.834 290.48C486.663 290.263 486.701 289.949 486.918 289.778 487.109 289.601 487.45 289.645 487.62 289.862L502.572 308.848C502.743 309.065 502.705 309.379 502.488 309.55L502.479 309.557Z" fill="#0C0C0C"/></g><g fill="none" opacity="0.2"><path d="M494.287 316.382C494.07 316.545 493.762 316.505 493.594 316.291L476.907 295.102C476.736 294.885 476.774 294.571 476.991 294.4 477.19 294.245 477.522 294.267 477.693 294.484L494.38 315.673C494.551 315.89 494.513 316.204 494.296 316.375L494.287 316.382Z" fill="#0C0C0C"/></g><g fill="none" opacity="0.2"><path d="M485.458 323.826C485.241 323.989 484.933 323.949 484.765 323.735L471.454 306.833C471.283 306.616 471.321 306.302 471.538 306.131 471.76 305.963 472.069 305.998 472.24 306.215L485.551 323.117C485.722 323.334 485.684 323.648 485.467 323.819L485.458 323.826Z" fill="#0C0C0C"/></g></g><path d="M631.681 356.861 566.447 433.46 538.973 326.529 468.823 345.165 514.473 511.513C515.904 516.65 518.569 521.696 522.416 525.898 535.483 540.176 557.65 541.158 571.928 528.091L572.518 527.551 689.13 415.462 631.68 356.861Z" fill="#367CFF"/><path d="M528.846 328.286 520.77 295.001C520.026 291.937 516.814 290.119 513.759 291.147 511.05 292.059 509.629 295.052 510.303 297.829L512.035 304.966 514.326 317.639" fill="#FF9E85"/><path d="M738.194 371.928C772.286 370.321 773.721 341.384 773.721 341.384 773.721 341.384 790.613 342.476 801.842 343.995 820.226 346.482 832.354 352.716 842.005 362.367 850.983 371.345 856.449 381.059 850.665 443.078 846.477 487.984 849.425 586.757 849.425 586.757L643.675 586.757C643.675 586.757 631.337 457.292 629.617 437.078 626.334 398.489 612.893 376.738 631.681 356.86 645.306 342.444 680.478 341.384 694.639 341.386 694.87 341.386 691.766 374.116 738.194 371.927Z" id="b_1_b-2" fill="#367CFF"/><path d="M630.814 430.626C630.796 430.351 630.559 430.14 630.284 430.158 630.008 430.176 629.799 430.413 629.816 430.688L631.907 469.751C631.923 470.002 632.122 470.199 632.366 470.218 632.389 470.22 632.413 470.22 632.437 470.218 632.713 470.2 632.922 469.963 632.905 469.688" fill="#0C0C0C"/><g><path d="M676.146 528.179 642.864 520.092C639.8 519.348 636.712 521.368 636.224 524.555 635.792 527.38 637.8 530.016 640.577 530.691L647.714 532.425 622.768 537.273C619.985 537.764 616.884 540.146 617.64 543.231 618.087 545.766 620.229 547.571 622.694 547.698 622.696 547.725 622.689 547.753 622.696 547.78 622.7 547.801 622.713 547.818 622.72 547.838L618.429 548.595C615.12 549.179 613.045 552.65 614.34 555.96 615.288 558.384 617.946 559.685 620.509 559.234L622.335 558.912C622.369 558.961 622.411 559.003 622.459 559.036 620.085 560.046 618.672 562.658 619.32 565.315 620.008 568.132 622.923 569.814 625.778 569.311L630.314 568.511C630.206 568.624 630.146 568.779 630.175 568.947 630.194 569.044 630.246 569.123 630.31 569.19 628.515 570.627 627.698 573.15 628.71 575.572 629.694 577.929 632.313 579.164 634.828 578.72L673.098 571.971C684.05 570.04 692.735 561.656 695.052 550.779L695.052 550.779C697.083 541.246 691.161 531.828 681.69 529.526L676.144 528.178Z" fill="#FF9E85"/><g fill="none" opacity="0.2"><path d="M647.41 543.021C647.455 543.288 647.279 543.544 647.012 543.595L623.283 548.175C623.012 548.227 622.75 548.05 622.697 547.779 622.628 547.528 622.822 547.245 623.093 547.193L646.822 542.613C647.093 542.561 647.355 542.738 647.408 543.009L647.41 543.021Z" fill="#0C0C0C"/></g><g fill="none" opacity="0.2"><path d="M649.719 553.431C649.764 553.698 649.588 553.954 649.321 554.005L622.839 559.117C622.568 559.169 622.306 558.992 622.253 558.721 622.207 558.473 622.379 558.188 622.649 558.135L649.131 553.023C649.402 552.971 649.664 553.148 649.717 553.419L649.719 553.431Z" fill="#0C0C0C"/></g><g fill="none" opacity="0.2"><path d="M652.285 564.691C652.33 564.958 652.154 565.214 651.887 565.265L630.763 569.343C630.492 569.395 630.23 569.218 630.177 568.947 630.13 568.672 630.303 568.414 630.573 568.361L651.697 564.283C651.968 564.231 652.23 564.408 652.283 564.679L652.285 564.691Z" fill="#0C0C0C"/></g></g><path d="M672.83 585.064 851.668 586.039C853.024 586.186 854.38 586.259 855.729 586.259 865.993 586.259 875.879 582.043 883.003 574.492 891.064 565.947 894.655 554.12 892.706 542.537L852.864 382.934C849.427 362.511 830.089 348.744 809.662 352.175 789.239 355.611 775.467 374.953 778.903 395.377L809.458 515.612 673.694 520.066 672.829 585.063Z" id="b_4_b" fill="#367CFF"/><g id="b_4_st"><path d="M832.835 515.104C833.079 515.104 833.292 514.926 833.329 514.678 833.37 514.405 833.182 514.151 832.909 514.11L809.748 514.951C809.465 514.908 809.22 515.098 809.179 515.371 809.138 515.644 809.326 515.898 809.599 515.939L832.76 515.098C832.785 515.102 832.81 515.104 832.835 515.104Z" fill="#0C0C0C"/></g><g id="b_4_st-2"><path d="M846.467 586.758C846.715 586.758 846.929 586.574 846.962 586.322 846.998 586.049 846.805 585.798 846.531 585.761L673.877 584.684 674.634 520.683 809.586 515.94C809.744 515.959 809.901 515.905 810.011 515.792 810.121 515.678 810.171 515.518 810.145 515.361L795.429 443.091C795.384 442.819 795.131 442.63 794.853 442.681 794.581 442.727 794.397 442.985 794.443 443.257L809.047 514.859 674.259 519.623C674.126 519.604 673.99 519.643 673.884 519.726 673.778 519.809 673.71 519.932 673.696 520.066L672.831 585.063C672.802 585.333 672.994 585.578 673.263 585.613L846.402 586.754C846.424 586.757 846.446 586.758 846.467 586.758Z" fill="#0C0C0C"/></g><path d="M774.758 267.929C773.101 267.929 771.758 266.586 771.758 264.929L771.758 230.755C771.758 213.365 766.945 199.587 757.839 190.908 749.208 182.682 736.821 178.9 721.035 179.656 719.396 179.738 717.974 178.459 717.894 176.803 717.814 175.148 719.091 173.742 720.747 173.662 738.238 172.817 752.113 177.161 761.979 186.564 772.302 196.402 777.759 211.683 777.759 230.754L777.759 264.928C777.759 266.585 776.416 267.928 774.759 267.928Z" fill="#367CFF"/><g><circle cx="770.275" cy="271.349" r="22.79" fill="#367CFF"/><path d="M771.155 288.421C770.485 287.936 769.546 288.086 769.06 288.757L767.316 291.166C763.001 297.129 756.03 300.689 748.67 300.689L720.924 300.689 720.924 300.102C720.924 298.445 719.581 297.102 717.924 297.102L708.534 297.102C706.877 297.102 705.534 298.445 705.534 300.102L705.534 304.493C705.534 306.15 706.877 307.493 708.534 307.493L717.924 307.493C719.581 307.493 720.924 306.15 720.924 304.493L720.924 303.689 748.67 303.689C756.99 303.689 764.869 299.665 769.747 292.924L771.491 290.515C771.976 289.844 771.826 288.906 771.155 288.42Z" fill="#367CFF"/><circle cx="775.743" cy="271.349" r="22.79" fill="#367CFF"/><circle cx="775.743" cy="271.349" r="22.79" fill="#FFFFFF" opacity="0.3"/></g></g><g><g><path d="M512.593 536.147 283.464 536.147C274.819 536.147 267.811 529.139 267.811 520.494L246.489 352.077C246.489 343.432 253.497 336.424 262.142 336.424L491.271 336.424C499.916 336.424 506.924 343.432 506.924 352.077L528.246 520.494C528.246 529.139 521.238 536.147 512.593 536.147Z" fill="#292A2E"/><path d="M389.904 586.758 336.411 586.758C331.038 586.758 327.226 581.519 328.88 576.407L360.958 477.244C362.015 473.978 365.056 471.765 368.489 471.765L416.704 471.765C420.434 471.765 423.18 475.257 422.301 478.882L397.596 580.709C396.735 584.259 393.557 586.758 389.904 586.758Z" fill="#292A2E"/><rect x="336.56" y="577.782" rx="4.488" ry="4.488" width="104.338" height="8.976" fill="#292A2E"/><path d="M436.41 577.782 398.306 577.782 422.301 478.883C423.181 475.258 420.434 471.766 416.704 471.766L368.489 471.766C365.056 471.766 362.015 473.979 360.958 477.245L328.88 576.408C327.226 581.52 331.038 586.759 336.411 586.759L436.41 586.759C438.889 586.759 440.898 584.75 440.898 582.271L440.898 582.271C440.898 579.792 438.888 577.783 436.41 577.783Z" fill="#FFFFFF" opacity="0.2"/><circle cx="386.443" cy="497.562" r="13.828" fill="#292A2E"/></g><path d="M495.462 577.782 500.801 577.782C501.084 576.331 502.36 575.235 503.894 575.235L508.14 575.235C509.674 575.235 510.949 576.331 511.233 577.782L514.555 577.782C514.838 576.331 516.114 575.235 517.648 575.235L521.893 575.235C523.427 575.235 524.703 576.331 524.986 577.782L528.308 577.782C528.591 576.331 529.867 575.235 531.401 575.235L535.647 575.235C537.181 575.235 538.456 576.331 538.74 577.782L542.062 577.782C542.345 576.331 543.621 575.235 545.155 575.235L549.401 575.235C550.935 575.235 552.21 576.331 552.494 577.782L555.816 577.782C556.099 576.331 557.375 575.235 558.909 575.235L563.155 575.235C564.689 575.235 565.964 576.331 566.248 577.782L568.645 577.782C568.928 576.331 570.204 575.235 571.738 575.235L609.431 575.235C610.965 575.235 612.24 576.331 612.524 577.782L615.603 577.782C615.886 576.331 617.162 575.235 618.696 575.235L622.942 575.235C624.476 575.235 625.751 576.331 626.035 577.782L629.357 577.782C629.64 576.331 630.916 575.235 632.45 575.235L636.695 575.235C638.229 575.235 639.505 576.331 639.788 577.782L643.11 577.782C643.393 576.331 644.669 575.235 646.203 575.235L650.449 575.235C651.983 575.235 653.258 576.331 653.542 577.782L656.864 577.782C657.147 576.331 658.423 575.235 659.957 575.235L664.203 575.235C665.737 575.235 667.012 576.331 667.296 577.782L681.267 577.782C683.745 577.782 685.755 579.791 685.755 582.27 685.755 584.749 683.745 586.758 681.267 586.758L622.679 586.758C622.679 586.758 585.906 586.758 585.906 586.758L495.473 586.758C492.994 586.758 490.985 584.749 490.985 582.27 490.985 579.791 492.994 577.782 495.473 577.782Z" fill="#292A2E"/><path d="M495.462 577.782 500.801 577.782C501.084 576.331 502.36 575.235 503.894 575.235L508.14 575.235C509.674 575.235 510.949 576.331 511.233 577.782L514.555 577.782C514.838 576.331 516.114 575.235 517.648 575.235L521.893 575.235C523.427 575.235 524.703 576.331 524.986 577.782L528.308 577.782C528.591 576.331 529.867 575.235 531.401 575.235L535.647 575.235C537.181 575.235 538.456 576.331 538.74 577.782L542.062 577.782C542.345 576.331 543.621 575.235 545.155 575.235L549.401 575.235C550.935 575.235 552.21 576.331 552.494 577.782L555.816 577.782C556.099 576.331 557.375 575.235 558.909 575.235L563.155 575.235C564.689 575.235 565.964 576.331 566.248 577.782L568.645 577.782C568.928 576.331 570.204 575.235 571.738 575.235L609.431 575.235C610.965 575.235 612.24 576.331 612.524 577.782L615.603 577.782C615.886 576.331 617.162 575.235 618.696 575.235L622.942 575.235C624.476 575.235 625.751 576.331 626.035 577.782L629.357 577.782C629.64 576.331 630.916 575.235 632.45 575.235L636.695 575.235C638.229 575.235 639.505 576.331 639.788 577.782L643.11 577.782C643.393 576.331 644.669 575.235 646.203 575.235L650.449 575.235C651.983 575.235 653.258 576.331 653.542 577.782L656.864 577.782C657.147 576.331 658.423 575.235 659.957 575.235L664.203 575.235C665.737 575.235 667.012 576.331 667.296 577.782L681.267 577.782C683.745 577.782 685.755 579.791 685.755 582.27 685.755 584.749 683.745 586.758 681.267 586.758L622.679 586.758C622.679 586.758 585.906 586.758 585.906 586.758L495.473 586.758C492.994 586.758 490.985 584.749 490.985 582.27 490.985 579.791 492.994 577.782 495.473 577.782Z" fill="#FFFFFF" opacity="0.2"/></g><path d="M151.35 588.291 895.9 588.291C896.452 588.291 896.9 587.843 896.9 587.291 896.9 586.739 896.452 586.291 895.9 586.291L151.35 586.291C150.798 586.291 150.35 586.739 150.35 587.291 150.35 587.843 150.798 588.291 151.35 588.291Z" fill="#292A2E"/></g></g></g></svg>