<svg viewBox="0 0 995.408 800.988" xmlns="http://www.w3.org/2000/svg" xmlns:xlink="http://www.w3.org/1999/xlink" id="Layer_2" overflow="hidden"><g id="Layer_2-2"><g><g><path d="M285.941 691.828 148.144 691.828 148.144 512.242 259.583 512.242 285.941 539.811 285.941 691.828Z" fill="#292A2E" opacity="0.1"/><path d="M259.583 512.242 259.583 539.401 285.941 539.811 259.583 512.242Z" fill="#292A2E" opacity="0.1"/><path d="M226.454 583.222 226.454 591.712C226.454 595.556 223.338 598.672 219.494 598.672L134.813 598.672C130.969 598.672 127.853 601.788 127.853 605.632L127.853 718.997C127.853 722.841 130.969 725.957 134.813 725.957L299.271 725.957C303.115 725.957 306.231 722.841 306.231 718.997L306.231 690.778C306.231 690.778 306.231 598.673 306.231 598.673L306.231 583.224C306.231 579.38 303.115 576.264 299.271 576.264L233.414 576.264C229.57 576.264 226.454 579.38 226.454 583.224Z" fill="#FFFFFF"/><path d="M226.454 583.222 226.454 591.712C226.454 595.556 223.338 598.672 219.494 598.672L134.813 598.672C130.969 598.672 127.853 601.788 127.853 605.632L127.853 718.997C127.853 722.841 130.969 725.957 134.813 725.957L299.271 725.957C303.115 725.957 306.231 722.841 306.231 718.997L306.231 690.778C306.231 690.778 306.231 598.673 306.231 598.673L306.231 583.224C306.231 579.38 303.115 576.264 299.271 576.264L233.414 576.264C229.57 576.264 226.454 579.38 226.454 583.224Z" fill="#292A2E" opacity="0.05"/></g><g><path d="M461.929 256.351 324.133 256.351 324.133 76.765 435.572 76.765 461.929 104.334 461.929 256.351Z" fill="#292A2E" opacity="0.1"/><path d="M435.572 76.765 435.572 103.924 461.929 104.334 435.572 76.765Z" fill="#292A2E" opacity="0.1"/><path d="M402.443 147.745 402.443 156.235C402.443 160.079 399.327 163.195 395.483 163.195L310.802 163.195C306.958 163.195 303.842 166.311 303.842 170.155L303.842 283.52C303.842 287.364 306.958 290.48 310.802 290.48L475.26 290.48C479.104 290.48 482.22 287.364 482.22 283.52L482.22 255.301C482.22 255.301 482.22 163.196 482.22 163.196L482.22 147.747C482.22 143.903 479.104 140.787 475.26 140.787L409.403 140.787C405.559 140.787 402.443 143.903 402.443 147.747Z" fill="#FFFFFF"/><path d="M402.443 147.745 402.443 156.235C402.443 160.079 399.327 163.195 395.483 163.195L310.802 163.195C306.958 163.195 303.842 166.311 303.842 170.155L303.842 283.52C303.842 287.364 306.958 290.48 310.802 290.48L475.26 290.48C479.104 290.48 482.22 287.364 482.22 283.52L482.22 255.301C482.22 255.301 482.22 163.196 482.22 163.196L482.22 147.747C482.22 143.903 479.104 140.787 475.26 140.787L409.403 140.787C405.559 140.787 402.443 143.903 402.443 147.747Z" fill="#292A2E" opacity="0.05"/></g><g><path d="M973.96 641.613 836.164 641.613 836.164 462.028 947.603 462.028 973.96 489.596 973.96 641.613Z" fill="#292A2E" opacity="0.1"/><path d="M947.603 462.028 947.603 489.187 973.96 489.596 947.603 462.028Z" fill="#292A2E" opacity="0.1"/><path d="M914.474 533.007 914.474 541.497C914.474 545.341 911.358 548.457 907.514 548.457L822.833 548.457C818.989 548.457 815.873 551.573 815.873 555.417L815.873 668.782C815.873 672.626 818.989 675.742 822.833 675.742L987.291 675.742C991.135 675.742 994.251 672.626 994.251 668.782L994.251 640.563C994.251 640.563 994.251 548.458 994.251 548.458L994.251 533.009C994.251 529.165 991.135 526.049 987.291 526.049L921.434 526.049C917.59 526.049 914.474 529.165 914.474 533.009Z" fill="#FFFFFF"/><path d="M914.474 533.007 914.474 541.497C914.474 545.341 911.358 548.457 907.514 548.457L822.833 548.457C818.989 548.457 815.873 551.573 815.873 555.417L815.873 668.782C815.873 672.626 818.989 675.742 822.833 675.742L987.291 675.742C991.135 675.742 994.251 672.626 994.251 668.782L994.251 640.563C994.251 640.563 994.251 548.458 994.251 548.458L994.251 533.009C994.251 529.165 991.135 526.049 987.291 526.049L921.434 526.049C917.59 526.049 914.474 529.165 914.474 533.009Z" fill="#292A2E" opacity="0.05"/></g><g><path d="M948.219 108.209C951.778 86.492 947.54 64.176 936.247 45.267 923.527 23.937 903.328 8.865 879.369 2.823 873.292 1.306 867.085 0.4 860.907 0.126L860.907 0.036 829.152 0.036 829.152 4.332C806.334 11.559 787.495 27.091 775.947 48.19 768.358 43.201 759.541 40.57 750.375 40.57 748.944 40.57 747.453 40.641 746.035 40.776L724.58 40.776 717.568 54.008 717.413 54.158C717.207 54.357 717.001 54.556 716.802 54.76 709.577 62.161 704.934 71.871 703.674 82.179 666.742 84.825 637.243 115.869 636.357 153.211 635.909 172.657 643.01 191.151 656.354 205.286 669.752 219.388 687.776 227.402 707.126 227.851L935.288 227.88C968.438 227.88 995.407 200.72 995.407 167.335 995.407 138.421 976.051 114.241 948.217 108.208Z" fill="#292A2E"/><g><path d="M911.776 226.917C944.387 226.917 970.93 200.196 970.93 167.337 970.93 138.503 951.041 114.484 923.599 108.964 927.397 87.159 923.356 64.936 911.905 45.761 899.312 24.646 879.337 9.74 855.621 3.76 848.311 1.934 840.843 1 833.39 1 799.451 1 768.625 19.844 752.776 49.584 745.18 44.337 736.228 41.535 726.861 41.535 714.396 41.535 702.703 46.451 693.979 55.435 686.683 62.91 682.114 72.727 681.029 83.091 644.477 85.29 614.693 115.907 613.808 153.236 613.365 172.454 620.39 190.695 633.54 204.623 646.733 218.508 664.495 226.443 683.613 226.888L911.775 226.917Z" fill="#FFFFFF"/><path d="M911.776 227.917 683.614 227.888C664.254 227.437 646.221 219.42 632.816 205.312 619.464 191.17 612.361 172.668 612.809 153.212 613.695 115.86 643.193 84.808 680.13 82.149 681.396 71.843 686.04 62.137 693.264 54.737 702.157 45.58 714.089 40.536 726.862 40.536 736.021 40.536 744.834 43.162 752.422 48.14 768.712 18.415 799.633 1.42109e-14 833.391 1.42109e-14 840.889 1.42109e-14 848.45 0.938 855.864 2.789 879.833 8.833 900.04 23.911 912.764 45.248 924.056 64.155 928.296 86.466 924.745 108.182 952.579 114.231 971.931 138.417 971.931 167.337 971.931 200.741 944.946 227.917 911.777 227.917ZM726.862 42.535C714.634 42.535 703.212 47.363 694.698 56.131 687.59 63.414 683.09 73.025 682.024 83.195L681.936 84.038 681.09 84.089C644.79 86.274 615.676 116.656 614.809 153.259 614.372 172.185 621.283 190.183 634.268 203.937 647.301 217.654 664.835 225.451 683.637 225.888L911.776 225.917C943.842 225.917 969.93 199.638 969.93 167.337 969.93 139.055 950.796 115.454 923.401 109.944L922.446 109.752 922.613 108.792C926.365 87.249 922.258 65.046 911.047 46.273 898.596 25.395 878.824 10.641 855.377 4.729 848.123 2.918 840.726 2 833.391 2 800.007 2 769.456 20.414 753.661 50.056L753.133 51.046 752.21 50.408C744.753 45.258 735.988 42.535 726.863 42.535Z" fill="#292A2E"/></g></g><g><g><rect x="671.418" y="159.4" width="100.473" height="640.271" fill="#262626"/><path d="M772.89 800.672 670.417 800.672 670.417 158.4 772.89 158.4 772.89 800.671ZM672.417 798.672 770.89 798.672 770.89 160.4 672.417 160.4 672.417 798.671Z" fill="#292A2E"/></g><g><rect x="357.578" y="159.4" width="313.84" height="640.271" fill="#FFFFFF" transform="matrix(-1 1.22465e-16 -1.22465e-16 -1 1028.99 959.072)"/><path d="M672.417 800.672 356.577 800.672 356.577 158.4 672.417 158.4 672.417 800.671ZM358.577 798.672 670.417 798.672 670.417 160.4 358.577 160.4 358.577 798.671Z" fill="#292A2E"/></g><g><rect x="380.86" y="185.152" width="267.274" height="59.97" fill="#367CFF"/><g fill="none" opacity="0.5"><rect x="380.86" y="185.152" width="267.274" height="59.97" fill="#FFFFFF"/></g><path d="M648.135 246.122 380.861 246.122C380.308 246.122 379.861 245.675 379.861 245.122L379.861 185.152C379.861 184.599 380.308 184.152 380.861 184.152L648.135 184.152C648.688 184.152 649.135 184.599 649.135 185.152L649.135 245.122C649.135 245.675 648.688 246.122 648.135 246.122ZM381.861 244.122 647.135 244.122 647.135 186.152 381.861 186.152 381.861 244.122Z" fill="#292A2E"/><g><circle cx="411.154" cy="215.137" r="12.303" fill="#FFFFFF"/><path d="M411.155 228.44C403.82 228.44 397.852 222.472 397.852 215.137 397.852 207.802 403.82 201.834 411.155 201.834 418.49 201.834 424.458 207.802 424.458 215.137 424.458 222.472 418.49 228.44 411.155 228.44ZM411.155 203.835C404.923 203.835 399.852 208.905 399.852 215.138 399.852 221.371 404.922 226.441 411.155 226.441 417.388 226.441 422.458 221.371 422.458 215.138 422.458 208.905 417.388 203.835 411.155 203.835Z" fill="#292A2E"/></g><path d="M592.31 214.902 439.331 214.902C438.778 214.902 438.331 214.455 438.331 213.902 438.331 213.349 438.778 212.902 439.331 212.902L592.31 212.902C592.863 212.902 593.31 213.349 593.31 213.902 593.31 214.455 592.863 214.902 592.31 214.902Z" fill="#292A2E"/><path d="M614.798 214.902 611.623 214.902C611.07 214.902 610.623 214.455 610.623 213.902 610.623 213.349 611.07 212.902 611.623 212.902L614.798 212.902C615.351 212.902 615.798 213.349 615.798 213.902 615.798 214.455 615.351 214.902 614.798 214.902Z" fill="#292A2E"/><path d="M603.657 214.902 600.482 214.902C599.929 214.902 599.482 214.455 599.482 213.902 599.482 213.349 599.929 212.902 600.482 212.902L603.657 212.902C604.21 212.902 604.657 213.349 604.657 213.902 604.657 214.455 604.21 214.902 603.657 214.902Z" fill="#292A2E"/><path d="M626.705 214.902 623.53 214.902C622.977 214.902 622.53 214.455 622.53 213.902 622.53 213.349 622.977 212.902 623.53 212.902L626.705 212.902C627.258 212.902 627.705 213.349 627.705 213.902 627.705 214.455 627.258 214.902 626.705 214.902Z" fill="#292A2E"/></g><g><rect x="380.86" y="268.405" width="267.274" height="59.97" fill="#367CFF"/><g fill="none" opacity="0.5"><rect x="380.86" y="268.405" width="267.274" height="59.97" fill="#FFFFFF"/></g><path d="M648.135 329.375 380.861 329.375C380.308 329.375 379.861 328.928 379.861 328.375L379.861 268.405C379.861 267.852 380.308 267.405 380.861 267.405L648.135 267.405C648.688 267.405 649.135 267.852 649.135 268.405L649.135 328.375C649.135 328.928 648.688 329.375 648.135 329.375ZM381.861 327.375 647.135 327.375 647.135 269.405 381.861 269.405 381.861 327.375Z" fill="#292A2E"/><g><circle cx="411.154" cy="298.39" r="12.303" fill="#FFFFFF"/><path d="M411.155 311.693C403.82 311.693 397.852 305.725 397.852 298.39 397.852 291.055 403.82 285.087 411.155 285.087 418.49 285.087 424.458 291.055 424.458 298.39 424.458 305.725 418.49 311.693 411.155 311.693ZM411.155 287.088C404.923 287.088 399.852 292.158 399.852 298.391 399.852 304.624 404.922 309.694 411.155 309.694 417.388 309.694 422.458 304.624 422.458 298.391 422.458 292.158 417.388 287.088 411.155 287.088Z" fill="#292A2E"/></g><path d="M592.31 298.155 439.331 298.155C438.778 298.155 438.331 297.708 438.331 297.155 438.331 296.602 438.778 296.155 439.331 296.155L592.31 296.155C592.863 296.155 593.31 296.602 593.31 297.155 593.31 297.708 592.863 298.155 592.31 298.155Z" fill="#292A2E"/><path d="M614.798 298.155 611.623 298.155C611.07 298.155 610.623 297.708 610.623 297.155 610.623 296.602 611.07 296.155 611.623 296.155L614.798 296.155C615.351 296.155 615.798 296.602 615.798 297.155 615.798 297.708 615.351 298.155 614.798 298.155Z" fill="#292A2E"/><path d="M603.657 298.155 600.482 298.155C599.929 298.155 599.482 297.708 599.482 297.155 599.482 296.602 599.929 296.155 600.482 296.155L603.657 296.155C604.21 296.155 604.657 296.602 604.657 297.155 604.657 297.708 604.21 298.155 603.657 298.155Z" fill="#292A2E"/><path d="M626.705 298.155 623.53 298.155C622.977 298.155 622.53 297.708 622.53 297.155 622.53 296.602 622.977 296.155 623.53 296.155L626.705 296.155C627.258 296.155 627.705 296.602 627.705 297.155 627.705 297.708 627.258 298.155 626.705 298.155Z" fill="#292A2E"/></g><g><rect x="380.86" y="351.658" width="267.274" height="59.97" fill="#367CFF"/><g fill="none" opacity="0.5"><rect x="380.86" y="351.658" width="267.274" height="59.97" fill="#FFFFFF"/></g><path d="M648.135 412.628 380.861 412.628C380.308 412.628 379.861 412.181 379.861 411.628L379.861 351.658C379.861 351.105 380.308 350.658 380.861 350.658L648.135 350.658C648.688 350.658 649.135 351.105 649.135 351.658L649.135 411.628C649.135 412.181 648.688 412.628 648.135 412.628ZM381.861 410.628 647.135 410.628 647.135 352.658 381.861 352.658 381.861 410.628Z" fill="#292A2E"/><g><circle cx="411.154" cy="381.643" r="12.303" fill="#FFFFFF"/><path d="M411.155 394.946C403.82 394.946 397.852 388.978 397.852 381.643 397.852 374.308 403.82 368.34 411.155 368.34 418.49 368.34 424.458 374.308 424.458 381.643 424.458 388.978 418.49 394.946 411.155 394.946ZM411.155 370.341C404.923 370.341 399.852 375.411 399.852 381.644 399.852 387.877 404.922 392.947 411.155 392.947 417.388 392.947 422.458 387.877 422.458 381.644 422.458 375.411 417.388 370.341 411.155 370.341Z" fill="#292A2E"/></g><path d="M592.31 381.408 439.331 381.408C438.778 381.408 438.331 380.961 438.331 380.408 438.331 379.855 438.778 379.408 439.331 379.408L592.31 379.408C592.863 379.408 593.31 379.855 593.31 380.408 593.31 380.961 592.863 381.408 592.31 381.408Z" fill="#292A2E"/><path d="M614.798 381.408 611.623 381.408C611.07 381.408 610.623 380.961 610.623 380.408 610.623 379.855 611.07 379.408 611.623 379.408L614.798 379.408C615.351 379.408 615.798 379.855 615.798 380.408 615.798 380.961 615.351 381.408 614.798 381.408Z" fill="#292A2E"/><path d="M603.657 381.408 600.482 381.408C599.929 381.408 599.482 380.961 599.482 380.408 599.482 379.855 599.929 379.408 600.482 379.408L603.657 379.408C604.21 379.408 604.657 379.855 604.657 380.408 604.657 380.961 604.21 381.408 603.657 381.408Z" fill="#292A2E"/><path d="M626.705 381.408 623.53 381.408C622.977 381.408 622.53 380.961 622.53 380.408 622.53 379.855 622.977 379.408 623.53 379.408L626.705 379.408C627.258 379.408 627.705 379.855 627.705 380.408 627.705 380.961 627.258 381.408 626.705 381.408Z" fill="#292A2E"/></g><path d="M648.135 495.881 380.861 495.881C380.308 495.881 379.861 495.434 379.861 494.881L379.861 434.911C379.861 434.358 380.308 433.911 380.861 433.911L648.135 433.911C648.688 433.911 649.135 434.358 649.135 434.911L649.135 494.881C649.135 495.434 648.688 495.881 648.135 495.881ZM381.861 493.881 647.135 493.881 647.135 435.911 381.861 435.911 381.861 493.881Z" fill="#292A2E"/><g><rect x="268.328" y="434.911" width="277.274" height="59.97" fill="#367CFF"/><g fill="none" opacity="0.5"><rect x="268.328" y="434.911" width="277.274" height="59.97" fill="#FFFFFF"/></g><path d="M545.602 495.881 268.328 495.881C267.775 495.881 267.328 495.434 267.328 494.881L267.328 434.911C267.328 434.358 267.775 433.911 268.328 433.911L545.602 433.911C546.155 433.911 546.602 434.358 546.602 434.911L546.602 494.881C546.602 495.434 546.155 495.881 545.602 495.881ZM269.328 493.881 544.602 493.881 544.602 435.911 269.328 435.911 269.328 493.881Z" fill="#292A2E"/><g><circle cx="298.622" cy="464.896" r="12.303" fill="#FFFFFF"/><path d="M298.622 478.198C291.287 478.198 285.319 472.23 285.319 464.895 285.319 457.56 291.287 451.592 298.622 451.592 305.957 451.592 311.925 457.56 311.925 464.895 311.925 472.23 305.957 478.198 298.622 478.198ZM298.622 453.593C292.39 453.593 287.319 458.663 287.319 464.896 287.319 471.129 292.389 476.199 298.622 476.199 304.855 476.199 309.925 471.129 309.925 464.896 309.925 458.663 304.855 453.593 298.622 453.593Z" fill="#292A2E"/></g><path d="M489.777 464.661 326.799 464.661C326.246 464.661 325.799 464.214 325.799 463.661 325.799 463.108 326.246 462.661 326.799 462.661L489.777 462.661C490.33 462.661 490.777 463.108 490.777 463.661 490.777 464.214 490.33 464.661 489.777 464.661Z" fill="#292A2E"/><path d="M512.266 464.661 509.091 464.661C508.538 464.661 508.091 464.214 508.091 463.661 508.091 463.108 508.538 462.661 509.091 462.661L512.266 462.661C512.819 462.661 513.266 463.108 513.266 463.661 513.266 464.214 512.819 464.661 512.266 464.661Z" fill="#292A2E"/><path d="M501.124 464.661 497.949 464.661C497.396 464.661 496.949 464.214 496.949 463.661 496.949 463.108 497.396 462.661 497.949 462.661L501.124 462.661C501.677 462.661 502.124 463.108 502.124 463.661 502.124 464.214 501.677 464.661 501.124 464.661Z" fill="#292A2E"/><path d="M524.172 464.661 520.996 464.661C520.443 464.661 519.996 464.214 519.996 463.661 519.996 463.108 520.443 462.661 520.996 462.661L524.172 462.661C524.725 462.661 525.172 463.108 525.172 463.661 525.172 464.214 524.725 464.661 524.172 464.661Z" fill="#292A2E"/></g><g><rect x="380.86" y="518.164" width="267.274" height="59.97" fill="#367CFF"/><g fill="none" opacity="0.5"><rect x="380.86" y="518.164" width="267.274" height="59.97" fill="#FFFFFF"/></g><path d="M648.135 579.134 380.861 579.134C380.308 579.134 379.861 578.687 379.861 578.134L379.861 518.164C379.861 517.611 380.308 517.164 380.861 517.164L648.135 517.164C648.688 517.164 649.135 517.611 649.135 518.164L649.135 578.134C649.135 578.687 648.688 579.134 648.135 579.134ZM381.861 577.134 647.135 577.134 647.135 519.164 381.861 519.164 381.861 577.134Z" fill="#292A2E"/><g><circle cx="411.154" cy="548.149" r="12.303" fill="#FFFFFF"/><path d="M411.155 561.451C403.82 561.451 397.852 555.483 397.852 548.148 397.852 540.813 403.82 534.845 411.155 534.845 418.49 534.845 424.458 540.813 424.458 548.148 424.458 555.483 418.49 561.451 411.155 561.451ZM411.155 536.846C404.923 536.846 399.852 541.916 399.852 548.149 399.852 554.382 404.922 559.452 411.155 559.452 417.388 559.452 422.458 554.382 422.458 548.149 422.458 541.916 417.388 536.846 411.155 536.846Z" fill="#292A2E"/></g><path d="M592.31 547.914 439.331 547.914C438.778 547.914 438.331 547.467 438.331 546.914 438.331 546.361 438.778 545.914 439.331 545.914L592.31 545.914C592.863 545.914 593.31 546.361 593.31 546.914 593.31 547.467 592.863 547.914 592.31 547.914Z" fill="#292A2E"/><path d="M614.798 547.914 611.623 547.914C611.07 547.914 610.623 547.467 610.623 546.914 610.623 546.361 611.07 545.914 611.623 545.914L614.798 545.914C615.351 545.914 615.798 546.361 615.798 546.914 615.798 547.467 615.351 547.914 614.798 547.914Z" fill="#292A2E"/><path d="M603.657 547.914 600.482 547.914C599.929 547.914 599.482 547.467 599.482 546.914 599.482 546.361 599.929 545.914 600.482 545.914L603.657 545.914C604.21 545.914 604.657 546.361 604.657 546.914 604.657 547.467 604.21 547.914 603.657 547.914Z" fill="#292A2E"/><path d="M626.705 547.914 623.53 547.914C622.977 547.914 622.53 547.467 622.53 546.914 622.53 546.361 622.977 545.914 623.53 545.914L626.705 545.914C627.258 545.914 627.705 546.361 627.705 546.914 627.705 547.467 627.258 547.914 626.705 547.914Z" fill="#292A2E"/></g><g><rect x="380.86" y="601.417" width="267.274" height="59.97" fill="#367CFF"/><g fill="none" opacity="0.5"><rect x="380.86" y="601.417" width="267.274" height="59.97" fill="#FFFFFF"/></g><path d="M648.135 662.387 380.861 662.387C380.308 662.387 379.861 661.94 379.861 661.387L379.861 601.417C379.861 600.864 380.308 600.417 380.861 600.417L648.135 600.417C648.688 600.417 649.135 600.864 649.135 601.417L649.135 661.387C649.135 661.94 648.688 662.387 648.135 662.387ZM381.861 660.387 647.135 660.387 647.135 602.417 381.861 602.417 381.861 660.387Z" fill="#292A2E"/><g><circle cx="411.154" cy="631.402" r="12.303" fill="#FFFFFF"/><path d="M411.155 644.704C403.82 644.704 397.852 638.736 397.852 631.401 397.852 624.066 403.82 618.098 411.155 618.098 418.49 618.098 424.458 624.066 424.458 631.401 424.458 638.736 418.49 644.704 411.155 644.704ZM411.155 620.099C404.923 620.099 399.852 625.169 399.852 631.402 399.852 637.635 404.922 642.705 411.155 642.705 417.388 642.705 422.458 637.635 422.458 631.402 422.458 625.169 417.388 620.099 411.155 620.099Z" fill="#292A2E"/></g><path d="M592.31 631.167 439.331 631.167C438.778 631.167 438.331 630.72 438.331 630.167 438.331 629.614 438.778 629.167 439.331 629.167L592.31 629.167C592.863 629.167 593.31 629.614 593.31 630.167 593.31 630.72 592.863 631.167 592.31 631.167Z" fill="#292A2E"/><path d="M614.798 631.167 611.623 631.167C611.07 631.167 610.623 630.72 610.623 630.167 610.623 629.614 611.07 629.167 611.623 629.167L614.798 629.167C615.351 629.167 615.798 629.614 615.798 630.167 615.798 630.72 615.351 631.167 614.798 631.167Z" fill="#292A2E"/><path d="M603.657 631.167 600.482 631.167C599.929 631.167 599.482 630.72 599.482 630.167 599.482 629.614 599.929 629.167 600.482 629.167L603.657 629.167C604.21 629.167 604.657 629.614 604.657 630.167 604.657 630.72 604.21 631.167 603.657 631.167Z" fill="#292A2E"/><path d="M626.705 631.167 623.53 631.167C622.977 631.167 622.53 630.72 622.53 630.167 622.53 629.614 622.977 629.167 623.53 629.167L626.705 629.167C627.258 629.167 627.705 629.614 627.705 630.167 627.705 630.72 627.258 631.167 626.705 631.167Z" fill="#292A2E"/></g><g><rect x="380.86" y="684.67" width="267.274" height="59.97" fill="#367CFF"/><g fill="none" opacity="0.5"><rect x="380.86" y="684.67" width="267.274" height="59.97" fill="#FFFFFF"/></g><path d="M648.135 745.64 380.861 745.64C380.308 745.64 379.861 745.193 379.861 744.64L379.861 684.67C379.861 684.117 380.308 683.67 380.861 683.67L648.135 683.67C648.688 683.67 649.135 684.117 649.135 684.67L649.135 744.64C649.135 745.193 648.688 745.64 648.135 745.64ZM381.861 743.64 647.135 743.64 647.135 685.67 381.861 685.67 381.861 743.64Z" fill="#292A2E"/><g><circle cx="411.154" cy="714.655" r="12.303" fill="#FFFFFF"/><path d="M411.155 727.957C403.82 727.957 397.852 721.989 397.852 714.654 397.852 707.319 403.82 701.351 411.155 701.351 418.49 701.351 424.458 707.319 424.458 714.654 424.458 721.989 418.49 727.957 411.155 727.957ZM411.155 703.352C404.923 703.352 399.852 708.422 399.852 714.655 399.852 720.888 404.922 725.958 411.155 725.958 417.388 725.958 422.458 720.888 422.458 714.655 422.458 708.422 417.388 703.352 411.155 703.352Z" fill="#292A2E"/></g><path d="M592.31 714.42 439.331 714.42C438.778 714.42 438.331 713.973 438.331 713.42 438.331 712.867 438.778 712.42 439.331 712.42L592.31 712.42C592.863 712.42 593.31 712.867 593.31 713.42 593.31 713.973 592.863 714.42 592.31 714.42Z" fill="#292A2E"/><path d="M614.798 714.42 611.623 714.42C611.07 714.42 610.623 713.973 610.623 713.42 610.623 712.867 611.07 712.42 611.623 712.42L614.798 712.42C615.351 712.42 615.798 712.867 615.798 713.42 615.798 713.973 615.351 714.42 614.798 714.42Z" fill="#292A2E"/><path d="M603.657 714.42 600.482 714.42C599.929 714.42 599.482 713.973 599.482 713.42 599.482 712.867 599.929 712.42 600.482 712.42L603.657 712.42C604.21 712.42 604.657 712.867 604.657 713.42 604.657 713.973 604.21 714.42 603.657 714.42Z" fill="#292A2E"/><path d="M626.705 714.42 623.53 714.42C622.977 714.42 622.53 713.973 622.53 713.42 622.53 712.867 622.977 712.42 623.53 712.42L626.705 712.42C627.258 712.42 627.705 712.867 627.705 713.42 627.705 713.973 627.258 714.42 626.705 714.42Z" fill="#292A2E"/></g></g><g><g><path d="M107.905 193.707C107.905 193.707 103.437 217.988 97.956 224.708 82.176 244.054 76.171 260.049 87.63 274.111 99.09 288.174 182.406 299.169 192.413 271.546 200.838 248.29 189.766 244.234 189.556 224.12 189.461 215.019 188.441 195.828 188.441 195.828" fill="#0A0A0A"/><path d="M175.911 259.63C175.766 259.611 174.156 286.322 143.126 283.993 121.644 282.384 113.985 259.592 113.492 259.592 115.808 259.1 119.708 258.384 120.737 257.835 124.12 256.017 128.305 254.126 129.395 247.557 130.023 243.771 128.957 224.401 129.285 220.571L162.26 227.931C161.799 236.021 158.575 254.777 169.877 258.097 171.758 258.646 173.783 259.151 175.91 259.631Z" id="sk" fill="#FF9E85"/><path d="M162.723 250.431C162.256 248.94 161.978 247.644 161.731 245.313 161.289 241.145 161.524 237.314 161.947 233.41 155.286 232.523 148.89 229.721 143.722 225.426 143.11 227.687 139.742 237.568 140.675 239.717 142.437 243.779 150.719 250.432 162.723 250.432Z" id="sh" fill="#0C0C0C" opacity="0.22"/><path d="M156.334 244.952C143.28 244.529 130.056 237.523 128.83 219.906L124.937 203.688C123.711 186.071 131.971 171.145 148.558 169.991L148.558 169.991C165.146 168.837 177.545 175.74 178.77 193.357 178.77 193.357 179.618 203.454 179.535 206.826 179.219 219.54 176.142 245.594 156.334 244.952Z" fill="#FF9E85"/><path d="M179.953 204.118C179.827 204.67 177.73 204.363 174.982 203.592 172.234 202.821 169.816 202.006 170.002 201.326 170.236 200.467 172.665 200.399 175.413 201.17 178.161 201.941 180.15 203.25 179.953 204.118Z" id="e1_eb" fill="#0A0A0A"/><path d="M111.317 207.573 128.99 214.771C140.532 211.615 143.302 184.793 143.302 184.793 143.302 184.793 155.142 199.414 188.442 195.827 188.442 195.827 187.112 151.277 137.657 158.767 121.71 161.182 108.616 176.875 107.54 197.841 106.786 212.534 111.317 207.573 111.317 207.573Z" fill="#0A0A0A"/><path d="M127.447 224.88C122.406 225.231 117.536 222.879 117.029 215.289 116.692 210.247 121.136 206.976 126.177 206.625L129.01 209.822 131.782 224.578 127.448 224.88Z" fill="#FF9E85"/><g><circle cx="174.736" cy="209.673" r="1.809" id="e1_eye" fill="#0A0A0A" transform="matrix(0.117295 -0.993097 0.993097 0.117295 -53.986 358.607)"/><g id="e1_n"><path d="M161.852 221.602C161.489 221.559 161.209 221.248 161.214 220.874 161.219 220.474 161.547 220.155 161.947 220.16L165.799 220.212 164.355 212.335C164.283 211.942 164.543 211.565 164.937 211.493 165.33 211.421 165.707 211.681 165.779 212.074L167.381 220.817C167.42 221.03 167.361 221.249 167.222 221.414 167.083 221.579 166.876 221.673 166.66 221.671L161.928 221.608C161.902 221.608 161.877 221.606 161.852 221.603Z" fill="#0A0A0A"/></g><g id="e1_m"><path d="M159.531 229.529C152.989 229.986 150.766 226.169 150.666 225.99 150.471 225.641 150.595 225.201 150.943 225.005 151.289 224.81 151.728 224.933 151.925 225.279 152.019 225.441 154.287 229.184 161.426 227.82 161.826 227.742 162.198 228.003 162.273 228.395 162.348 228.787 162.09 229.166 161.698 229.241 160.928 229.388 160.206 229.481 159.53 229.528Z" fill="#0A0A0A"/></g><path d="M158.182 201.165C158.291 201.72 156.25 202.291 153.426 202.701 150.602 203.111 148.061 203.348 147.955 202.65 147.821 201.77 150.013 200.722 152.837 200.312 155.661 199.902 158.011 200.291 158.183 201.165Z" id="e1_eb-2" fill="#0A0A0A"/><circle cx="155.795" cy="208.434" r="1.809" id="e1_eye-2" fill="#0A0A0A" transform="matrix(0.117295 -0.993097 0.993097 0.117295 -69.475 338.703)"/></g><path d="M119.924 202.429 118.889 209.255C120.375 207.844 122.383 206.977 124.596 206.976 125.147 206.968 125.684 207.039 126.205 207.145 129.175 210.128 126.287 214.595 128.99 214.771 130.525 214.871 134.429 211.681 135.526 209.545 136.222 208.191 133.052 202.307 133.25 200.798" fill="#0A0A0A"/></g><g><path d="M77.339 747.122C77.339 747.122 66.154 763.653 78.357 777.401 90.56 791.148 77.41 798.671 77.41 798.671L27.826 749.087 52.599 724.314 77.339 747.121Z" fill="#367CFF"/><path d="M79.975 407.083C79.975 407.083 80.195 401.191 80.149 414.556 80.072 436.749 82.183 495.395 80.7 570.981 79.514 631.402 37.454 735.084 37.454 735.084L75.389 762.312C75.389 762.312 132.452 669.758 141.508 578.133 146.144 531.232 155.627 405.056 155.627 405.056L79.976 407.082Z" fill="#262626"/><path d="M197.033 764.588C197.033 764.588 200.814 784.186 219.163 785.278 237.512 786.37 233.533 800.988 233.533 800.988L163.411 800.988 163.411 765.954C163.411 765.954 197.032 764.587 197.032 764.587Z" fill="#367CFF"/><path d="M205.946 410.954C205.946 410.954 211.702 581.325 211.104 589.652L205.692 775.805 160.376 776.642 153.069 582.919C153.069 582.919 148.279 529.481 135.368 479.859 128.743 454.397 124.806 428.312 123.504 402.034L123.504 402.034C123.504 402.034 205.948 410.953 205.948 410.953Z" fill="#262626"/><path d="M146.163 531.746 149.942 473.959C149.942 473.959 153.823 497.983 153.823 518.69 153.823 528.811 151.738 568.884 151.738 568.884L146.163 531.746Z" fill="#0A0A0A"/><path d="M79.474 407.078 79.323 407.086C79.323 407.086 79.432 404.18 79.474 407.078Z" fill="#333333"/></g><path d="M79.664 407.078 79.513 407.086C79.513 407.086 79.622 404.18 79.664 407.078Z" fill="#333333"/><g><path d="M212.621 316.387C211.671 327.551 207.048 397.203 206.135 410.954L80.215 410.954C79.504 398.551 76.31 344.319 73.612 320.066 71.037 296.922 65.985 285.335 69.688 278.493 75.739 267.31 92.274 260.849 103.548 259.322 110.433 258.39 120.788 257.722 120.788 257.722 120.788 257.722 121.665 275.458 142.571 276.445 171.03 277.788 169.129 257.722 169.27 257.722 173.88 257.722 200.218 260.64 206.661 264.46 224.219 274.858 214.637 292.729 212.62 316.388Z" fill="#367CFF"/><g><path d="M308.331 336.798C308.939 335.121 310.832 334.281 312.496 334.986 314.056 335.646 314.731 337.506 314.153 339.099L312.712 343.071 321.765 333.84C322.89 332.658 325.026 331.928 326.268 333.278 327.344 334.302 329.831 334.618 330.235 336.538 330.249 336.548 330.224 354.122 329.18 355.218L329.18 355.218C324.752 359.868 314.049 360.767 308.078 358.406L298.68 354.69 308.331 336.798Z" fill="#FF9E85"/><g fill="none" opacity="0.1"><path d="M308.331 336.798C308.939 335.121 310.832 334.281 312.496 334.986 314.056 335.646 314.731 337.506 314.153 339.099L312.712 343.071 321.765 333.84C322.89 332.658 325.026 331.928 326.268 333.278 327.344 334.302 329.831 334.618 330.235 336.538 330.249 336.548 330.224 354.122 329.18 355.218L329.18 355.218C324.752 359.868 314.049 360.767 308.078 358.406L298.68 354.69 308.331 336.798Z" fill="#0C0C0C"/></g></g><g><path d="M256.684 296.395 256.809 302.684C256.866 305.532 254.525 307.437 251.581 306.941L186.719 295.997C183.775 295.5 181.434 297.406 181.491 300.254L175.501 383.296C175.558 386.144 177.99 388.855 180.935 389.352L307.037 411.55C309.981 412.047 312.322 410.141 312.265 407.293L314.854 306.706C314.797 303.858 312.365 301.147 309.42 300.65L261.912 292.138C258.968 291.641 256.627 293.547 256.684 296.395Z" fill="#262626"/><path d="M307.942 412.627C307.589 412.627 307.231 412.597 306.871 412.536L180.761 390.336C177.378 389.767 174.567 386.616 174.501 383.315L180.494 300.181C180.459 298.638 181.08 297.187 182.24 296.186 183.449 295.145 185.143 294.717 186.886 295.01L251.748 305.954C252.923 306.154 253.989 305.897 254.755 305.236 255.456 304.632 255.831 303.732 255.81 302.704L255.685 296.414C255.653 294.779 256.274 293.328 257.434 292.327 258.642 291.286 260.337 290.86 262.08 291.151L309.599 299.665C313.037 300.245 315.788 303.33 315.856 306.686L313.266 407.318C313.299 408.907 312.678 410.358 311.519 411.359 310.561 412.185 309.297 412.627 307.944 412.627ZM185.793 296.918C184.923 296.918 184.144 297.187 183.547 297.701 182.846 298.305 182.471 299.205 182.491 300.234L176.498 383.368C176.548 385.663 178.611 387.946 181.101 388.365L307.211 410.565C308.377 410.762 309.445 410.504 310.211 409.844 310.911 409.24 311.286 408.34 311.265 407.313L313.855 306.68C313.808 304.339 311.744 302.056 309.255 301.636L261.736 293.122C260.577 292.928 259.507 293.181 258.74 293.842 258.039 294.446 257.664 295.346 257.684 296.375L257.809 302.664C257.842 304.298 257.221 305.75 256.061 306.751 254.853 307.793 253.16 308.221 251.415 307.927L186.553 296.983C186.293 296.939 186.039 296.918 185.792 296.918Z" fill="#292A2E"/></g><g><g><path d="M295.441 390.632 192.644 377.544 209.702 243.572 292.836 254.157 309.88 277.227 295.441 390.632Z" fill="#FFFFFF"/><path d="M295.441 391.633C295.399 391.633 295.357 391.63 295.315 391.625L192.518 378.536C191.97 378.466 191.582 377.966 191.652 377.418L208.71 243.445C208.744 243.181 208.88 242.943 209.09 242.78 209.301 242.619 209.565 242.548 209.828 242.579L292.963 253.165C293.234 253.2 293.479 253.344 293.642 253.563L310.686 276.632C310.838 276.839 310.906 277.097 310.874 277.352L296.435 390.758C296.402 391.022 296.265 391.26 296.055 391.423 295.878 391.559 295.663 391.632 295.443 391.632ZM193.762 376.679 294.575 389.515 308.837 277.498 292.285 255.096 210.566 244.69 193.761 376.679Z" fill="#292A2E"/></g><g><path d="M292.836 254.157 290.256 274.418 309.88 277.227 292.836 254.157Z" fill="#FFFFFF"/><path d="M309.88 278.227C309.833 278.227 309.786 278.224 309.738 278.217L290.114 275.408C289.573 275.33 289.195 274.834 289.263 274.292L291.843 254.031C291.895 253.626 292.188 253.293 292.583 253.189 292.975 253.086 293.396 253.233 293.64 253.563L310.684 276.632C310.923 276.956 310.945 277.393 310.738 277.738 310.556 278.043 310.228 278.225 309.88 278.225ZM291.372 273.568 307.655 275.898 293.512 256.757 291.371 273.568Z" fill="#292A2E"/></g></g><g><path d="M291.369 391.528 194.287 355.285 241.522 228.761 320.034 258.071 331.353 284.427 291.369 391.528Z" fill="#367CFF"/><g fill="none" opacity="0.43"><path d="M291.369 391.528 194.287 355.285 241.522 228.761 320.034 258.071 331.353 284.427 291.369 391.528Z" fill="#FFFFFF"/></g><path d="M291.37 392.528C291.254 392.528 291.136 392.507 291.02 392.465L193.937 356.222C193.688 356.129 193.487 355.942 193.376 355.701 193.267 355.46 193.257 355.184 193.35 354.936L240.585 228.412C240.777 227.894 241.354 227.633 241.871 227.825L320.384 257.136C320.64 257.231 320.846 257.427 320.953 257.678L332.271 284.033C332.373 284.269 332.379 284.536 332.289 284.777L292.306 391.879C292.157 392.281 291.775 392.529 291.369 392.529ZM195.573 354.698 290.783 390.242 330.276 284.453 319.285 258.858 242.109 230.046 195.573 354.697Z" fill="#292A2E"/><g><path d="M320.034 258.071 312.891 277.206 331.353 284.427 320.034 258.071Z" fill="#FFFFFF"/><path d="M331.353 285.427C331.231 285.427 331.107 285.405 330.989 285.359L312.527 278.138C312.018 277.939 311.763 277.368 311.955 276.857L319.099 257.722C319.242 257.339 319.603 257.081 320.011 257.072L320.035 257.072C320.434 257.072 320.796 257.309 320.954 257.677L332.272 284.032C332.431 284.402 332.352 284.832 332.072 285.122 331.88 285.32 331.619 285.427 331.353 285.427ZM314.172 276.634 329.49 282.625 320.098 260.757 314.171 276.634Z" fill="#292A2E"/></g><path d="M312.834 295.483C312.718 295.483 312.6 295.462 312.484 295.42L240.638 268.577C240.12 268.384 239.858 267.807 240.051 267.291 240.244 266.773 240.821 266.513 241.337 266.704L313.183 293.547C313.701 293.74 313.963 294.317 313.77 294.833 313.62 295.235 313.239 295.483 312.833 295.483Z" fill="#292A2E"/><path d="M307.512 308.727C307.396 308.727 307.278 308.706 307.162 308.664L235.316 281.821C234.798 281.628 234.536 281.051 234.729 280.535 234.923 280.017 235.499 279.757 236.015 279.948L307.861 306.791C308.379 306.984 308.641 307.561 308.448 308.077 308.298 308.479 307.917 308.727 307.511 308.727Z" fill="#292A2E"/><path d="M302.521 322.027C302.405 322.027 302.287 322.006 302.171 321.964L230.325 295.121C229.807 294.928 229.545 294.351 229.738 293.835 229.931 293.317 230.508 293.056 231.024 293.248L302.87 320.091C303.388 320.284 303.65 320.861 303.457 321.377 303.307 321.779 302.926 322.027 302.52 322.027Z" fill="#292A2E"/></g><g><path d="M271.608 296.395 270.511 302.684C270.014 305.532 267.303 307.437 264.455 306.941L201.72 295.997C198.872 295.5 196.161 297.406 195.664 300.254L181.012 384.239C180.515 387.087 182.421 389.798 185.269 390.295L307.106 411.55C309.954 412.047 312.665 410.141 313.162 407.293L316.809 386.387 328.713 318.152 330.71 306.706C331.207 303.858 329.301 301.147 326.453 300.65L277.663 292.138C274.815 291.641 272.104 293.547 271.607 296.395Z" fill="#FFFFFF"/><path d="M308.008 412.628C307.654 412.628 307.295 412.598 306.935 412.535L185.097 391.28C181.711 390.688 179.437 387.453 180.028 384.067L194.679 300.082C194.965 298.441 195.872 297.011 197.236 296.053 198.598 295.095 200.251 294.729 201.892 295.012L264.626 305.956C265.739 306.151 266.862 305.899 267.789 305.249 268.714 304.599 269.33 303.627 269.524 302.513L270.622 296.224C270.908 294.583 271.816 293.153 273.179 292.195 274.542 291.237 276.195 290.871 277.835 291.154L326.625 299.666C328.266 299.952 329.696 300.86 330.653 302.223 331.611 303.585 331.98 305.239 331.694 306.879L314.147 407.466C313.619 410.491 310.979 412.629 308.007 412.629ZM200.811 296.918C199.948 296.918 199.107 297.183 198.385 297.689 197.46 298.339 196.844 299.311 196.65 300.425L181.999 384.41C181.598 386.71 183.142 388.907 185.441 389.308L307.279 410.563C309.58 410.964 311.776 409.418 312.177 407.12L329.724 306.533C330.125 304.233 328.581 302.036 326.282 301.635L277.492 293.123C275.183 292.719 272.994 294.268 272.594 296.566L271.496 302.855C271.21 304.496 270.303 305.926 268.939 306.884 267.577 307.841 265.924 308.208 264.283 307.925L201.549 296.981C201.303 296.938 201.057 296.917 200.812 296.917Z" fill="#292A2E"/></g><path d="M317.197 347.788C317.564 346.497 318.654 345.968 319.665 345.922 319.658 345.877 319.609 345.774 319.687 345.766L317.764 344.832C316.602 344.267 315.937 342.931 316.355 341.708 316.789 340.44 318.082 339.787 319.295 340.064 319.286 340.04 319.299 340.014 319.298 339.989L318.508 339.605C317.415 339.074 316.771 337.848 317.087 336.674 317.512 335.094 319.225 334.365 320.62 335.043L322.444 335.929C322.447 335.919 322.441 335.908 322.445 335.898 322.45 335.885 322.467 335.882 322.475 335.87 321.578 335.153 321.26 333.89 321.783 332.814 322.338 331.449 324.151 331.398 325.33 331.97L328.904 334.062C330.025 334.718 330.74 335.891 330.815 337.187 331.134 342.708 331.621 357.15 327.858 355.322L318.593 350.823C317.524 350.304 316.872 348.931 317.196 347.788Z" fill="#FF9E85"/><g><path d="M213.627 371.197C213.536 369.862 212.619 368.855 211.465 368.525 211.486 368.476 211.507 368.425 211.495 368.368 211.473 368.269 211.397 368.211 211.31 368.181L213.785 367.632C215.281 367.3 216.415 365.94 216.268 364.415 216.116 362.833 214.803 361.725 213.328 361.711 213.344 361.686 213.337 361.653 213.345 361.624L214.362 361.398C215.769 361.086 216.848 359.848 216.806 358.407 216.75 356.468 214.973 355.157 213.178 355.555L210.831 356.076C210.831 356.063 210.841 356.053 210.838 356.04 210.836 356.023 210.817 356.015 210.812 356 212.043 355.419 212.757 354.049 212.45 352.664 212.185 350.937 210.107 350.38 208.59 350.717L194.896 353.507 198.145 351.132C199.448 350.179 199.902 348.35 199.019 346.999 198.077 345.558 196.134 345.217 194.763 346.22L177.023 359.19C172.696 362.354 171.671 368.386 174.71 372.801L174.71 372.801C178.178 377.839 184.356 380.27 190.327 378.944L211.185 374.315C212.561 374.01 213.725 372.603 213.629 371.197Z" fill="#FF9E85"/><g fill="none" opacity="0.25"><path d="M197.28 358.827C197.313 358.972 197.457 359.065 197.603 359.035L210.623 356.365C210.772 356.334 210.867 356.189 210.837 356.04 210.82 355.898 210.661 355.795 210.512 355.826L197.492 358.496C197.343 358.527 197.248 358.672 197.278 358.821L197.278 358.827Z" fill="#0C0C0C"/></g><g fill="none" opacity="0.25"><path d="M198.299 364.601C198.332 364.746 198.476 364.839 198.622 364.809L213.152 361.829C213.301 361.798 213.396 361.653 213.366 361.504 213.337 361.368 213.19 361.26 213.041 361.29L198.511 364.27C198.362 364.301 198.267 364.446 198.297 364.595L198.297 364.601Z" fill="#0C0C0C"/></g><g fill="none" opacity="0.25"><path d="M199.367 370.862C199.4 371.007 199.544 371.1 199.69 371.07L211.281 368.693C211.43 368.662 211.525 368.517 211.495 368.368 211.461 368.218 211.319 368.124 211.17 368.154L199.579 370.531C199.43 370.562 199.335 370.707 199.365 370.856L199.365 370.862Z" fill="#0C0C0C"/></g></g><path d="M189.035 387.2 75.867 407.651C75.035 407.741 74.204 407.786 73.378 407.786 67.086 407.786 61.024 405.201 56.657 400.572 51.715 395.333 49.514 388.082 50.708 380.981L66.551 286.811C68.658 274.29 80.514 265.85 93.037 267.954 105.558 270.061 114.001 281.919 111.894 294.44L101.091 359.266 184.06 348.846 189.035 387.2Z" id="b_4_b" fill="#367CFF"/><g id="b_4_b-2"><path d="M75.866 408.07C75.667 408.07 75.491 407.929 75.455 407.726 75.414 407.499 75.565 407.28 75.793 407.239L188.569 386.859 183.698 349.314 101.143 359.682C101.006 359.698 100.88 359.653 100.789 359.557 100.698 359.461 100.656 359.329 100.678 359.198L107.546 317.766C107.584 317.539 107.797 317.378 108.028 317.422 108.256 317.46 108.41 317.676 108.372 317.904L101.596 358.781 184.008 348.431C184.232 348.403 184.446 348.563 184.476 348.792L189.451 387.146C189.48 387.368 189.33 387.572 189.11 387.612L75.942 408.063C75.917 408.067 75.892 408.07 75.867 408.07Z" fill="#0C0C0C"/></g><rect x="93.766" y="359.432" width="7.372" height="0.838" fill="#0C0C0C" transform="matrix(0.987428 -0.158072 0.158072 0.987428 -55.655 19.928)"/></g></g><g><path d="M813.022 632.167 758.142 632.167 758.142 630.167 813.022 630.167C841.114 630.167 863.968 607.313 863.968 579.221L863.968 226.882 865.968 226.882 865.968 579.221C865.968 608.415 842.216 632.167 813.022 632.167Z" fill="#292A2E"/><g><circle cx="864.968" cy="289.167" r="6.425" fill="#FFFFFF"/><path d="M864.968 296.592C860.874 296.592 857.543 293.261 857.543 289.167 857.543 285.073 860.874 281.741 864.968 281.741 869.062 281.741 872.394 285.072 872.394 289.167 872.394 293.262 869.063 296.592 864.968 296.592ZM864.968 283.741C861.977 283.741 859.543 286.175 859.543 289.167 859.543 292.159 861.977 294.592 864.968 294.592 867.959 294.592 870.394 292.158 870.394 289.167 870.394 286.176 867.96 283.741 864.968 283.741Z" fill="#292A2E"/></g><g><circle cx="864.968" cy="379.595" r="6.425" fill="#292A2E"/><path d="M864.968 387.021C860.874 387.021 857.543 383.69 857.543 379.595 857.543 375.5 860.874 372.17 864.968 372.17 869.062 372.17 872.394 375.501 872.394 379.595 872.394 383.689 869.063 387.021 864.968 387.021ZM864.968 374.17C861.977 374.17 859.543 376.604 859.543 379.595 859.543 382.586 861.977 385.021 864.968 385.021 867.959 385.021 870.394 382.587 870.394 379.595 870.394 376.603 867.96 374.17 864.968 374.17Z" fill="#FFFFFF"/></g><g><circle cx="864.968" cy="470.023" r="6.425" fill="#FFFFFF"/><path d="M864.968 477.449C860.874 477.449 857.543 474.118 857.543 470.023 857.543 465.928 860.874 462.597 864.968 462.597 869.062 462.597 872.394 465.928 872.394 470.023 872.394 474.118 869.063 477.449 864.968 477.449ZM864.968 464.597C861.977 464.597 859.543 467.031 859.543 470.023 859.543 473.015 861.977 475.449 864.968 475.449 867.959 475.449 870.394 473.015 870.394 470.023 870.394 467.031 867.96 464.597 864.968 464.597Z" fill="#292A2E"/></g><g><circle cx="864.968" cy="560.452" r="6.425" fill="#FFFFFF"/><path d="M864.968 567.877C860.874 567.877 857.543 564.546 857.543 560.451 857.543 556.356 860.874 553.026 864.968 553.026 869.062 553.026 872.394 556.357 872.394 560.451 872.394 564.545 869.063 567.877 864.968 567.877ZM864.968 555.026C861.977 555.026 859.543 557.46 859.543 560.451 859.543 563.442 861.977 565.877 864.968 565.877 867.959 565.877 870.394 563.443 870.394 560.451 870.394 557.459 867.96 555.026 864.968 555.026Z" fill="#292A2E"/></g><g><circle cx="815.873" cy="631.402" r="6.425" fill="#292A2E"/><path d="M815.874 638.827C811.779 638.827 808.448 635.496 808.448 631.401 808.448 627.306 811.779 623.976 815.874 623.976 819.969 623.976 823.299 627.307 823.299 631.401 823.299 635.495 819.968 638.827 815.874 638.827ZM815.874 625.976C812.882 625.976 810.448 628.41 810.448 631.401 810.448 634.392 812.882 636.827 815.874 636.827 818.866 636.827 821.299 634.393 821.299 631.401 821.299 628.409 818.865 625.976 815.874 625.976Z" fill="#FFFFFF"/></g></g><path d="M1 800.671 929.139 800.671C929.691 800.671 930.139 800.223 930.139 799.671 930.139 799.119 929.691 798.671 929.139 798.671L1 798.671C0.448 798.671 0 799.119 0 799.671 0 800.223 0.448 800.671 1 800.671Z" fill="#262626"/></g></g></svg>