<svg viewBox="0 0 962.119 964.861" xmlns="http://www.w3.org/2000/svg" xmlns:xlink="http://www.w3.org/1999/xlink" id="Layer_2" overflow="hidden"><g id="Layer_2-2"><g><g><g><rect x="528.194" y="637.627" rx="17.318" ry="17.318" width="269.558" height="162.035" fill="#FFFFFF"/><rect x="528.194" y="637.627" rx="17.318" ry="17.318" width="269.558" height="162.035" fill="#367CFF" opacity="0.1"/></g><g><rect x="700.407" y="724.509" rx="2.293" ry="2.293" width="25.387" height="50.692" id="gra19_b" fill="#FFFFFF"/><rect x="750.534" y="685.085" rx="2.293" ry="2.293" width="25.387" height="90.116" id="gra19_b-2" fill="#FFFFFF"/><rect x="550.024" y="724.509" rx="2.293" ry="2.293" width="25.387" height="50.692" id="gra19_b-3" fill="#FFFFFF"/><rect x="600.152" y="667.159" rx="2.293" ry="2.293" width="25.387" height="108.042" id="gra19_b-4" fill="#FFFFFF"/><rect x="650.279" y="713.147" rx="2.293" ry="2.293" width="25.387" height="62.054" id="gra19_b-5" fill="#FFFFFF"/></g></g><g><g><rect x="37.493" y="538.525" rx="21.98" ry="21.98" width="342.119" height="205.652" fill="#FFFFFF"/><rect x="37.493" y="538.525" rx="21.98" ry="21.98" width="342.119" height="205.652" fill="#367CFF" opacity="0.1"/></g><g><rect x="256.063" y="648.795" rx="2.91" ry="2.91" width="32.221" height="64.337" id="gra19_b-6" fill="#FFFFFF"/><rect x="319.684" y="598.759" rx="2.91" ry="2.91" width="32.221" height="114.374" id="gra19_b-7" fill="#FFFFFF"/><rect x="65.199" y="648.795" rx="2.91" ry="2.91" width="32.221" height="64.337" id="gra19_b-8" fill="#FFFFFF"/><rect x="128.82" y="576.008" rx="2.91" ry="2.91" width="32.221" height="137.124" id="gra19_b-9" fill="#FFFFFF"/><rect x="192.442" y="634.374" rx="2.91" ry="2.91" width="32.221" height="78.758" id="gra19_b-10" fill="#FFFFFF"/></g></g><g><g><rect x="555.245" y="0" rx="25.244" ry="25.244" width="392.921" height="236.191" fill="#FFFFFF"/><rect x="555.245" y="0" rx="25.244" ry="25.244" width="392.921" height="236.191" fill="#367CFF" opacity="0.1"/></g><g><rect x="806.272" y="126.645" rx="3.342" ry="3.342" width="37.005" height="73.891" id="gra19_b-11" fill="#FFFFFF"/><rect x="879.34" y="69.178" rx="3.342" ry="3.342" width="37.005" height="131.358" id="gra19_b-12" fill="#FFFFFF"/><rect x="587.066" y="126.645" rx="3.342" ry="3.342" width="37.005" height="73.891" id="gra19_b-13" fill="#FFFFFF"/><rect x="660.135" y="43.049" rx="3.342" ry="3.342" width="37.005" height="157.487" id="gra19_b-14" fill="#FFFFFF"/><rect x="733.203" y="110.082" rx="3.342" ry="3.342" width="37.005" height="90.453" id="gra19_b-15" fill="#FFFFFF"/></g></g><g><g><rect x="0" y="194.948" rx="12.314" ry="12.314" width="191.676" height="115.219" fill="#FFFFFF"/><rect x="0" y="194.948" rx="12.314" ry="12.314" width="191.676" height="115.219" fill="#367CFF" opacity="0.3"/></g><g><rect x="122.457" y="256.728" rx="1.63" ry="1.63" width="18.052" height="36.046" id="gra19_b-16" fill="#FFFFFF"/><rect x="158.101" y="228.694" rx="1.63" ry="1.63" width="18.052" height="64.079" id="gra19_b-17" fill="#FFFFFF"/><rect x="15.523" y="256.728" rx="1.63" ry="1.63" width="18.052" height="36.046" id="gra19_b-18" fill="#FFFFFF"/><rect x="51.168" y="215.948" rx="1.63" ry="1.63" width="18.052" height="76.826" id="gra19_b-19" fill="#FFFFFF"/><rect x="86.812" y="248.648" rx="1.63" ry="1.63" width="18.052" height="44.125" id="gra19_b-20" fill="#FFFFFF"/></g></g><g><rect x="129.258" y="49.362" rx="30" ry="30" width="734.688" height="553.975" fill="#FFFFFF" transform="matrix(-1 -1.22465e-16 1.22465e-16 -1 993.205 652.699)"/><path d="M128.258 573.337 128.258 79.362C128.258 62.269 142.164 48.362 159.258 48.362L833.946 48.362C851.039 48.362 864.946 62.269 864.946 79.362L864.946 573.337C864.946 590.43 851.039 604.337 833.946 604.337L159.258 604.337C142.164 604.337 128.258 590.43 128.258 573.337ZM159.258 50.362C143.268 50.362 130.258 63.371 130.258 79.362L130.258 573.337C130.258 589.328 143.268 602.337 159.258 602.337L833.946 602.337C849.937 602.337 862.946 589.328 862.946 573.337L862.946 79.362C862.946 63.371 849.937 50.362 833.946 50.362L159.258 50.362Z" fill="#292A2E"/><path d="M129.259 79.359 129.259 109.547C129.259 109.547 863.943 109.547 863.943 109.547L863.943 79.359C863.943 62.79 850.512 49.359 833.943 49.359L159.259 49.359C142.69 49.359 129.259 62.79 129.259 79.359Z" fill="#292A2E"/><g><rect x="525.259" y="138.231" rx="12.723" ry="12.723" width="311.714" height="227.954" fill="#FFFFFF"/><rect x="525.259" y="138.231" rx="12.723" ry="12.723" width="311.714" height="227.954" fill="#367CFF" opacity="0.15"/><g><rect x="554.388" y="166.676" rx="2.081" ry="2.081" width="28.903" height="171.064" id="grp6_b" fill="#FAFAFA"/><path d="M554.388 250.529 583.291 250.529 583.291 335.659C583.291 336.808 582.358 337.74 581.21 337.74L556.469 337.74C555.32 337.74 554.388 336.807 554.388 335.659L554.388 250.529 554.388 250.529Z" id="grp6_b-2" fill="#367CFF" opacity="0.6"/></g><g><rect x="610.526" y="166.676" rx="2.081" ry="2.081" width="28.903" height="171.064" id="grp6_b-3" fill="#FAFAFA"/><path d="M610.526 226.82 639.429 226.82 639.429 335.658C639.429 336.807 638.496 337.739 637.348 337.739L612.607 337.739C611.458 337.739 610.526 336.806 610.526 335.658L610.526 226.82 610.526 226.82Z" id="grp6_b-4" fill="#367CFF" opacity="0.6"/></g><g><rect x="778.941" y="166.676" rx="2.081" ry="2.081" width="28.903" height="171.064" id="grp6_b-5" fill="#FAFAFA"/><path d="M778.941 202.898 807.844 202.898 807.844 335.658C807.844 336.807 806.911 337.739 805.763 337.739L781.022 337.739C779.873 337.739 778.941 336.806 778.941 335.658L778.941 202.898 778.941 202.898Z" id="grp6_b-6" fill="#367CFF" opacity="0.6"/></g><g><rect x="666.665" y="166.676" rx="2.081" ry="2.081" width="28.903" height="171.064" id="grp6_b-7" fill="#FAFAFA"/><path d="M666.665 288.876 695.568 288.876 695.568 335.659C695.568 336.808 694.635 337.74 693.487 337.74L668.746 337.74C667.597 337.74 666.665 336.807 666.665 335.659L666.665 288.876 666.665 288.876Z" id="grp6_b-8" fill="#367CFF" opacity="0.6"/></g><g><rect x="722.803" y="166.676" rx="2.081" ry="2.081" width="28.903" height="171.064" id="grp6_b-9" fill="#FAFAFA"/><path d="M722.803 258.984 751.706 258.984 751.706 335.658C751.706 336.807 750.773 337.739 749.625 337.739L724.884 337.739C723.735 337.739 722.803 336.806 722.803 335.658L722.803 258.984 722.803 258.984Z" id="grp6_b-10" fill="#367CFF" opacity="0.6"/></g></g><g><rect x="521.815" y="388.498" rx="18.213" ry="18.213" width="315.158" height="187.357" fill="#367CFF" opacity="0.15"/><circle cx="710.338" cy="428.527" r="6.77" id="gra7_p" fill="#367CFF"/><circle cx="710.338" cy="463.038" r="6.77" id="gra7_p-2" fill="#262626"/><circle cx="710.338" cy="497.55" r="6.77" id="gra7_p-3" fill="#FFFFFF"/><circle cx="710.338" cy="532.061" r="6.77" id="gra7_p-4" fill="#367CFF" opacity="0.5"/><path d="M804.289 428.524 804.289 428.524C804.289 430.639 802.574 432.354 800.459 432.354L735.385 432.354C733.531 432.354 731.827 431.111 731.464 429.294 731.195 427.95 731.659 426.682 732.511 425.818 733.209 425.13 734.17 424.695 735.223 424.695L800.46 424.695C802.575 424.695 804.29 426.41 804.29 428.525Z" fill="#FFFFFF"/><path d="M804.289 463.037 804.289 463.037C804.289 465.152 802.574 466.867 800.459 466.867L735.425 466.867C733.211 466.867 731.278 465.052 731.393 462.841 731.444 461.859 731.867 460.975 732.511 460.33 733.209 459.632 734.17 459.207 735.223 459.207L800.46 459.207C802.575 459.207 804.29 460.922 804.29 463.037Z" fill="#FFFFFF"/><path d="M804.289 497.55 804.289 497.55C804.289 499.665 802.574 501.38 800.459 501.38L734.828 501.38C732.928 501.38 731.388 499.84 731.388 497.94L731.388 497.161C731.388 495.261 732.928 493.721 734.828 493.721L800.459 493.721C802.574 493.721 804.289 495.436 804.289 497.551Z" fill="#FFFFFF"/><path d="M804.289 532.063 804.289 532.063C804.289 534.178 802.574 535.893 800.459 535.893L735.402 535.893C733.546 535.893 731.838 534.654 731.467 532.836 731.192 531.487 731.656 530.211 732.511 529.356 733.209 528.658 734.17 528.233 735.223 528.233L800.46 528.233C802.575 528.233 804.29 529.948 804.29 532.063Z" fill="#FFFFFF"/><g><path d="M583.312 480.294C583.312 497.663 594.425 512.437 609.927 517.909L598.983 544.597C572.99 534.809 554.498 509.706 554.498 480.294 554.498 442.355 585.259 411.594 623.198 411.594L623.198 440.408C601.174 440.408 583.312 458.262 583.312 480.294Z" fill="#367CFF"/><path d="M691.899 480.294 663.085 480.294C663.085 458.262 645.223 440.408 623.199 440.408L623.199 411.594C661.138 411.594 691.899 442.355 691.899 480.294Z" fill="#262626"/><path d="M691.899 480.294C691.899 512.987 669.058 540.346 638.475 547.289L633.593 518.807C650.582 514.232 663.085 498.722 663.085 480.295L691.899 480.295Z" fill="#FFFFFF"/><path d="M638.474 547.288C633.56 548.403 628.444 548.993 623.198 548.993 614.671 548.993 606.516 547.441 598.983 544.596L609.927 517.908C614.073 519.371 618.543 520.171 623.198 520.171 626.795 520.171 630.278 519.694 633.592 518.805L638.474 547.287Z" fill="#367CFF" opacity="0.5"/></g></g><g><rect x="156.195" y="138.231" rx="18" ry="18" width="343.629" height="437.624" fill="#367CFF" opacity="0.15"/><path d="M420.981 309.027C420.981 364.788 375.778 409.991 320.017 409.991 264.256 409.991 219.053 364.788 219.053 309.027 219.053 253.266 264.256 208.063 320.017 208.063L320.017 309.027 420.981 309.027Z" id="gra14_p" fill="#FAFAFA"/><path d="M433.36 295.912 332.396 295.912 332.396 194.948C388.157 194.948 433.36 240.151 433.36 295.912Z" id="gra14_p-2" fill="#367CFF" opacity="0.6"/><circle cx="215.322" cy="460.497" r="6.77" id="gra7_p-5" fill="#367CFF" opacity="0.6"/><circle cx="215.322" cy="495.009" r="6.77" id="gra7_p-6" fill="#FAFAFA"/><path d="M447.272 460.495 447.272 460.495C447.272 462.61 445.557 464.325 443.442 464.325L240.368 464.325C238.514 464.325 236.81 463.082 236.447 461.265 236.178 459.921 236.642 458.653 237.494 457.789 238.192 457.101 239.153 456.666 240.206 456.666L443.443 456.666C445.558 456.666 447.273 458.381 447.273 460.496Z" fill="#367CFF" opacity="0.6"/><path d="M447.272 495.008 447.272 495.008C447.272 497.123 445.557 498.838 443.442 498.838L240.408 498.838C238.194 498.838 236.261 497.023 236.376 494.812 236.427 493.83 236.85 492.946 237.494 492.301 238.192 491.603 239.153 491.178 240.206 491.178L443.443 491.178C445.558 491.178 447.273 492.893 447.273 495.008Z" fill="#FFFFFF"/></g></g><g><path d="M126.855 857.059C126.645 857.059 126.434 856.979 126.274 856.818 125.116 855.66 123.228 834.41 118.143 771.144 116.062 745.256 114.097 720.805 112.663 705.945 112.561 704.884 112.149 704.76 112.014 704.72 110.051 704.128 104.08 708.836 100.746 712.959 100.461 713.312 99.943 713.367 99.59 713.081 99.237 712.795 99.182 712.278 99.468 711.925 101.673 709.199 108.857 702.053 112.487 703.146 113.219 703.366 114.127 704.003 114.3 705.788 115.735 720.661 117.701 745.119 119.782 771.014 122.872 809.46 126.373 853.016 127.523 855.759 127.755 856.08 127.726 856.531 127.437 856.82 127.276 856.981 127.066 857.061 126.856 857.061Z" fill="#494949"/><ellipse cx="95.95" cy="715.001" rx="31.654" ry="23.344" fill="#0CBC8B" transform="matrix(0.780267 -0.625447 0.625447 0.780267 -426.11 217.119)"/><ellipse cx="95.95" cy="715.001" rx="31.654" ry="23.344" fill="#FFFFFF" opacity="0.2" transform="matrix(0.780267 -0.625447 0.625447 0.780267 -426.11 217.119)"/><path d="M75.075 737.354C74.983 737.354 74.89 737.323 74.813 737.259 74.638 737.114 74.614 736.855 74.759 736.68L113.634 689.801C113.778 689.627 114.037 689.602 114.213 689.747 114.388 689.892 114.412 690.151 114.267 690.326L75.392 737.205C75.311 737.303 75.194 737.354 75.075 737.354Z" fill="#FFFFFF"/><path d="M135.334 847.009C135.244 847.009 135.153 846.994 135.064 846.963 134.635 846.814 134.409 846.346 134.558 845.917L149.16 803.922C150.036 801.402 152.108 799.524 154.701 798.898 157.296 798.271 159.995 798.998 161.925 800.841L169.645 808.216C169.973 808.529 169.985 809.05 169.671 809.378 169.357 809.706 168.837 809.718 168.509 809.404L160.789 802.029C159.266 800.574 157.135 800 155.087 800.495 153.04 800.989 151.405 802.472 150.713 804.461L136.111 846.456C135.993 846.795 135.675 847.008 135.335 847.008Z" fill="#494949"/><ellipse cx="171.568" cy="806.642" rx="23.344" ry="31.654" fill="#0CBC8B" transform="matrix(0.784094 -0.620642 0.620642 0.784094 -463.596 280.644)"/><path d="M120.221 854.381C119.849 854.381 119.513 854.127 119.422 853.75L94.917 751.289C94.57 749.836 93.496 748.758 92.045 748.403 90.594 748.05 89.143 748.512 88.166 749.641L80.612 758.37C80.315 758.713 79.795 758.751 79.452 758.454 79.109 758.157 79.071 757.638 79.368 757.294L86.922 748.565C88.291 746.984 90.402 746.31 92.434 746.805 94.465 747.301 96.029 748.872 96.516 750.906L121.021 853.367C121.127 853.809 120.854 854.252 120.413 854.358 120.349 854.373 120.285 854.38 120.221 854.38Z" fill="#494949"/><ellipse cx="88.177" cy="777.154" rx="31.654" ry="23.344" fill="#0CBC8B" transform="matrix(0.170399 -0.985375 0.985375 0.170399 -692.637 731.621)"/><path d="M126.856 857.059C126.822 857.059 126.789 857.057 126.754 857.053 126.303 856.997 125.983 856.587 126.038 856.137L141.686 729.086C142.039 726.221 143.971 723.91 146.729 723.056 149.486 722.202 152.387 723.015 154.297 725.179L172.183 745.436C172.484 745.776 172.451 746.296 172.111 746.596 171.771 746.897 171.251 746.864 170.951 746.524L153.065 726.267C151.588 724.594 149.347 723.966 147.216 724.626 145.085 725.286 143.591 727.072 143.319 729.286L127.671 856.337C127.62 856.754 127.265 857.059 126.856 857.059Z" fill="#494949"/><ellipse cx="162.829" cy="741.372" rx="23.344" ry="31.654" fill="#0CBC8B" transform="matrix(0.484031 -0.875051 0.875051 0.484031 -564.724 525.009)"/><ellipse cx="171.568" cy="806.642" rx="23.344" ry="31.654" fill="#FFFFFF" opacity="0.2" transform="matrix(0.784094 -0.620642 0.620642 0.784094 -463.596 280.644)"/><ellipse cx="88.177" cy="777.154" rx="31.654" ry="23.344" fill="#FFFFFF" opacity="0.5" transform="matrix(0.170399 -0.985375 0.985375 0.170399 -692.637 731.621)"/><ellipse cx="162.829" cy="741.372" rx="23.344" ry="31.654" fill="#FFFFFF" opacity="0.5" transform="matrix(0.484031 -0.875051 0.875051 0.484031 -564.724 525.009)"/><path d="M146.87 964.861 106.84 964.861 100.207 836.786 153.503 836.786 146.87 964.861Z" fill="#292A2E"/><path d="M146.87 964.861 106.84 964.861 100.207 836.786 153.503 836.786 146.87 964.861Z" fill="#FFFFFF" opacity="0.3"/><path d="M191.215 831.873C191.093 831.873 190.973 831.82 190.892 831.717L151.6 782.078C151.459 781.9 151.489 781.641 151.667 781.5 151.846 781.359 152.104 781.39 152.245 781.567L191.537 831.206C191.678 831.384 191.648 831.643 191.47 831.784 191.394 831.844 191.304 831.873 191.215 831.873Z" fill="#FFFFFF"/><path d="M187.915 760.671C187.831 760.671 187.746 760.645 187.673 760.592L137.392 723.878C137.209 723.744 137.168 723.487 137.302 723.304 137.436 723.121 137.693 723.08 137.876 723.214L188.157 759.928C188.34 760.062 188.381 760.319 188.247 760.502 188.166 760.612 188.041 760.671 187.915 760.671Z" fill="#FFFFFF"/><path d="M80.744 807.813C80.709 807.813 80.673 807.809 80.638 807.799 80.419 807.741 80.288 807.515 80.347 807.296L96.353 747.326C96.412 747.106 96.641 746.977 96.856 747.035 97.075 747.093 97.206 747.319 97.147 747.538L81.141 807.508C81.092 807.692 80.926 807.813 80.744 807.813Z" fill="#FFFFFF"/></g><path d="M897.468 964.861 77.049 964.861C76.661 964.861 76.347 964.547 76.347 964.159 76.347 963.771 76.661 963.457 77.049 963.457L897.468 963.457C897.856 963.457 898.17 963.771 898.17 964.159 898.17 964.547 897.856 964.861 897.468 964.861Z" fill="#292A2E"/><g><g><path d="M285.775 919.987C285.775 919.987 290.29 943.391 312.203 944.695 334.116 945.999 329.364 963.456 329.364 963.456L245.625 963.456 245.625 921.619C245.625 921.619 285.775 919.987 285.775 919.987Z" fill="#367CFF"/><path d="M239.946 493.057C239.946 493.057 246.209 486.021 246.153 501.981 245.946 561.51 241.929 934.924 241.929 934.924L296.955 934.462 330.288 490.639 239.946 493.058Z" fill="#262626"/><path d="M379.736 919.987C379.736 919.987 384.251 943.391 406.164 944.695 428.077 945.999 423.325 963.456 423.325 963.456L339.586 963.456 339.586 921.619C339.586 921.619 379.736 919.987 379.736 919.987Z" fill="#367CFF"/><path d="M390.379 497.68C390.379 497.68 397.253 701.136 396.539 711.08L390.075 933.383 335.958 934.383 327.232 703.04C327.232 703.04 321.512 639.224 306.093 579.967 298.181 549.561 293.48 518.41 291.925 487.029L291.925 487.029C291.925 487.029 390.379 497.68 390.379 497.68Z" fill="#262626"/><path d="M318.987 641.93 323.5 572.921C323.5 572.921 328.135 601.61 328.135 626.338 328.135 638.425 325.645 686.28 325.645 686.28L318.987 641.93Z" fill="#0A0A0A"/><path d="M239.348 493.051 239.168 493.061C239.168 493.061 239.298 489.591 239.348 493.051Z" fill="#333333"/></g><g><path d="M239.574 493.051 239.394 493.061C239.394 493.061 239.524 489.591 239.574 493.051Z" fill="#333333"/><g><path d="M541.1 327.913C540.374 326.49 538.895 325.814 537.472 325.992 537.472 325.928 537.471 325.862 537.432 325.806 537.361 325.708 537.251 325.68 537.141 325.687L539.602 323.923C541.089 322.857 541.697 320.832 540.82 319.226 539.911 317.56 537.949 316.958 536.323 317.635 536.329 317.6 536.306 317.567 536.301 317.531L537.312 316.806C538.711 315.803 539.315 313.938 538.594 312.375 537.623 310.272 535.057 309.664 533.272 310.944L530.939 312.616C530.932 312.602 530.939 312.586 530.93 312.573 530.92 312.556 530.896 312.556 530.882 312.541 531.962 311.325 532.104 309.487 531.116 308.11 530.015 306.338 527.472 306.7 525.964 307.781L512.232 317.267 514.687 313.135C515.671 311.478 515.313 309.256 513.709 308.186 511.999 307.045 509.706 307.582 508.669 309.326L495.267 331.889C491.998 337.393 493.7 344.498 499.109 347.923L499.109 347.923C505.28 351.831 513.205 351.603 519.141 347.348L539.879 332.484C541.247 331.503 541.866 329.413 541.102 327.914Z" fill="#FF9E85"/><g fill="none" opacity="0.25"><path d="M517.346 321.991C517.451 322.135 517.652 322.169 517.799 322.068L530.847 313.031C530.996 312.928 531.033 312.723 530.93 312.574 530.844 312.426 530.622 312.388 530.473 312.491L517.425 321.528C517.276 321.631 517.239 321.836 517.342 321.985L517.347 321.991Z" fill="#0C0C0C"/></g><g fill="none" opacity="0.25"><path d="M521.173 327.856C521.278 328 521.479 328.034 521.626 327.933L536.187 317.847C536.336 317.744 536.373 317.539 536.27 317.39 536.175 317.254 535.962 317.204 535.813 317.307L521.252 327.393C521.103 327.496 521.066 327.701 521.169 327.85L521.174 327.856Z" fill="#0C0C0C"/></g><g fill="none" opacity="0.25"><path d="M525.281 334.231C525.386 334.375 525.587 334.409 525.734 334.308L537.35 326.263C537.499 326.16 537.536 325.955 537.433 325.806 537.326 325.658 537.125 325.62 536.976 325.723L525.36 333.768C525.211 333.871 525.174 334.076 525.277 334.225L525.282 334.231Z" fill="#0C0C0C"/></g></g><path d="M487.357 326.751 447.998 393.783 399.973 330.791 360.09 366.748 428.201 454.959 428.647 455.587C431.022 458.849 434.162 461.631 437.975 463.636 451.281 470.634 467.741 465.52 474.738 452.213L530.706 350.859 487.356 326.751Z" fill="#367CFF"/><path d="M444.14 401.844C444.063 401.844 443.986 401.826 443.912 401.789 443.666 401.664 443.568 401.362 443.694 401.116L447.552 393.555C447.677 393.309 447.98 393.212 448.225 393.337 448.471 393.462 448.569 393.764 448.443 394.01L444.585 401.571C444.497 401.744 444.321 401.843 444.14 401.843Z" fill="#0C0C0C"/><rect x="386.499" y="403.516" width="21.206" height="1" fill="#0C0C0C" transform="matrix(0.0566579 -0.998394 0.998394 0.0566579 -28.765 777.588)"/><g><g><path d="M266.978 246.894C266.978 246.894 267.253 276.47 262.336 285.622 248.181 311.97 244.76 332.149 261.441 346.08 278.122 360.011 378.62 353.971 384.1 319.202 388.713 289.931 374.767 287.681 369.94 264.071 367.756 253.388 362.185 231.049 362.185 231.049" fill="#0A0A0A"/><path d="M355.529 317.267C355.355 317.243 353.125 349.223 315.978 346.082 290.262 343.911 281.344 316.521 280.754 316.516 283.534 315.952 288.215 315.139 289.453 314.493 293.526 312.354 298.561 310.136 299.942 302.279 300.738 297.751 299.68 274.535 300.116 269.949L339.535 279.139C338.892 288.826 334.816 311.258 348.319 315.362 350.566 316.041 352.987 316.669 355.529 317.267Z" id="sk" fill="#FF9E85"/><path d="M339.834 306.098C339.291 304.307 338.973 302.751 338.704 299.956 338.222 294.958 338.547 290.371 339.097 285.699 331.127 284.561 323.497 281.133 317.355 275.928 316.596 278.63 312.45 290.428 313.543 293.014 315.608 297.9 325.454 305.963 339.835 306.099Z" id="sh" fill="#0C0C0C" opacity="0.22"/><path d="M335.608 296.139C320.157 298.614 303.009 293.385 297.555 272.943L289.283 254.755C283.829 234.313 290.145 214.877 309.392 209.742L309.392 209.742C328.639 204.607 344.794 209.903 350.248 230.345 350.248 230.345 353.545 242.028 354.214 246.013 356.738 261.039 359.051 292.384 335.608 296.139Z" fill="#FF9E85"/><path d="M350.673 242.437C350.651 243.115 348.114 243.231 344.707 242.95 341.3 242.669 338.27 242.261 338.334 241.419 338.414 240.355 341.255 239.722 344.662 240.003 348.069 240.284 350.707 241.371 350.673 242.437Z" id="e1_eb" fill="#0A0A0A"/><path d="M274.148 262.427 296.573 266.868C309.429 260.527 306.58 228.35 306.58 228.35 306.58 228.35 323.835 242.851 362.185 231.049 362.185 231.049 350.476 178.954 294.014 199.025 275.808 205.497 263.981 226.936 267.489 251.84 269.948 269.293 274.148 262.427 274.148 262.427Z" fill="#0A0A0A"/><path d="M297.06 279.109C291.211 280.669 284.947 279.012 282.622 270.201 281.077 264.348 285.56 259.488 291.409 257.927L295.469 261.042 302.089 277.767 297.06 279.109Z" fill="#FF9E85"/><g><circle cx="346.459" cy="248.487" r="2.167" id="e1_eye" fill="#0A0A0A" transform="matrix(0.997288 -0.0736037 0.0736037 0.997288 -17.35 26.174)"/><g id="e1_n"><path d="M337.107 267.138C336.67 267.17 336.271 266.868 336.191 266.427 336.106 265.956 336.419 265.505 336.891 265.421L341.433 264.605 337.941 255.669C337.767 255.223 337.987 254.721 338.434 254.546 338.879 254.372 339.382 254.592 339.557 255.038L343.433 264.956C343.527 265.198 343.508 265.469 343.381 265.695 343.254 265.921 343.033 266.079 342.778 266.125L337.198 267.128C337.168 267.133 337.138 267.137 337.108 267.139Z" fill="#0A0A0A"/></g><g id="e1_m"><path d="M333.473 277.866C325.638 278.444 322.957 273.882 322.836 273.667 322.601 273.25 322.748 272.722 323.164 272.486 323.578 272.251 324.105 272.396 324.342 272.809 324.455 273.003 327.19 277.477 335.736 275.81 336.215 275.715 336.662 276.025 336.753 276.495 336.845 276.965 336.538 277.42 336.068 277.512 335.146 277.692 334.281 277.807 333.472 277.866Z" fill="#0A0A0A"/></g><path d="M324.393 243.922C324.648 244.55 322.377 245.686 319.148 246.812 315.919 247.938 312.986 248.794 312.702 247.998 312.343 246.993 314.683 245.262 317.912 244.136 321.14 243.01 323.992 242.933 324.393 243.922Z" id="e1_eb-2" fill="#0A0A0A"/><circle cx="324.891" cy="251.464" r="2.167" id="e1_eye-2" fill="#0A0A0A" transform="matrix(0.997288 -0.0736037 0.0736037 0.997288 -17.627 24.595)"/></g><path d="M283.1 254.416 283.437 262.681C284.863 260.683 287.028 259.206 289.63 258.701 290.276 258.567 290.924 258.527 291.561 258.533 295.733 261.365 293.354 267.276 296.573 266.868 298.401 266.636 302.266 261.995 303.071 259.233 303.581 257.482 298.513 251.283 298.402 249.463" fill="#0A0A0A"/></g><path d="M398.351 384.748C397.216 398.08 391.696 481.258 390.605 497.679L246.233 497.679C245.384 482.868 235.569 418.104 232.348 389.14 229.273 361.502 223.24 347.665 227.662 339.494 234.888 326.14 254.634 318.423 268.098 316.6 276.32 315.487 288.685 314.689 288.685 314.689 288.685 314.689 289.732 335.87 314.698 337.048 348.684 338.651 346.414 314.689 346.582 314.689 352.088 314.689 383.54 318.174 391.235 322.735 412.203 335.152 400.76 356.494 398.351 384.747Z" fill="#367CFF"/><path d="M492.063 394.062 478.146 461.702C477.564 464.532 475.084 466.572 472.194 466.596L376.368 467.412C372.465 467.445 369.525 463.87 370.312 460.047L384.229 392.407C384.811 389.577 387.291 387.537 390.181 387.513L486.007 386.697C489.91 386.664 492.85 390.239 492.063 394.062Z" fill="#292A2E"/><g><path d="M402.707 442.107C402.877 443.927 401.527 445.547 399.737 445.947L396.787 446.597C396.887 446.637 396.977 446.707 397.007 446.827 397.017 446.887 396.997 446.957 396.967 447.007 398.347 447.407 399.447 448.607 399.547 450.207 399.667 451.877 398.277 453.557 396.637 453.927L371.727 459.457C370.437 459.747 369.137 459.887 367.847 459.887 362.027 459.887 356.467 457.047 353.077 452.117 349.447 446.847 350.667 439.637 355.837 435.867L377.027 420.377C377.507 420.027 378.057 419.807 378.607 419.727L376.657 429.197 377.177 429.077 377.287 429.057 393.537 425.747C395.347 425.347 397.827 426.007 398.147 428.067 398.507 429.727 397.657 431.357 396.187 432.057 396.197 432.067 396.217 432.077 396.217 432.097 396.227 432.117 396.207 432.127 396.207 432.147L399.017 431.527C401.157 431.047 403.277 432.617 403.347 434.927 403.397 436.647 402.107 438.127 400.427 438.497L399.217 438.767C399.207 438.807 399.217 438.847 399.197 438.877 400.957 438.887 402.527 440.217 402.707 442.107Z" fill="#FF9E85"/><g fill="none" opacity="0.25"><path d="M380.031 435.43C380.071 435.603 380.242 435.714 380.417 435.678L395.965 432.489C396.143 432.452 396.257 432.279 396.221 432.101 396.2 431.931 396.011 431.809 395.833 431.845L380.285 435.034C380.107 435.071 379.993 435.244 380.029 435.422L380.031 435.43Z" fill="#0C0C0C"/></g><g fill="none" opacity="0.25"><path d="M381.248 442.326C381.288 442.499 381.459 442.61 381.634 442.574L398.986 439.016C399.164 438.979 399.278 438.806 399.242 438.628 399.208 438.466 399.032 438.336 398.854 438.372L381.502 441.93C381.324 441.967 381.21 442.14 381.246 442.318L381.248 442.326Z" fill="#0C0C0C"/></g><g fill="none" opacity="0.25"><path d="M382.523 449.803C382.563 449.976 382.734 450.087 382.909 450.051L396.75 447.213C396.928 447.176 397.042 447.003 397.006 446.825 396.966 446.646 396.796 446.533 396.618 446.569L382.777 449.407C382.599 449.444 382.485 449.617 382.521 449.795L382.523 449.803Z" fill="#0C0C0C"/></g></g><path d="M370.185 469.313 235.04 493.736C234.047 493.844 233.055 493.897 232.067 493.897 224.553 493.897 217.314 490.81 212.099 485.282 206.198 479.026 203.568 470.367 204.995 461.887L223.915 349.43C226.431 334.477 240.589 324.398 255.545 326.911 270.498 329.427 280.58 343.588 278.064 358.541L265.163 435.956 364.244 423.513 370.185 469.315Z" id="b_4_b" fill="#367CFF"/><g id="b_4_b-2"><path d="M235.039 494.236C234.802 494.236 234.592 494.067 234.548 493.825 234.499 493.554 234.68 493.293 234.951 493.244L369.628 468.906 363.812 424.07 265.225 436.451C265.062 436.471 264.912 436.416 264.802 436.302 264.692 436.188 264.643 436.03 264.669 435.873L272.87 386.395C272.915 386.124 273.17 385.932 273.445 385.984 273.717 386.029 273.901 386.287 273.856 386.559L265.764 435.374 364.18 423.015C364.448 422.982 364.702 423.173 364.739 423.447L370.68 469.249C370.714 469.514 370.535 469.758 370.273 469.806L235.128 494.229C235.098 494.234 235.068 494.237 235.038 494.237Z" fill="#0C0C0C"/></g><rect x="256.414" y="436.153" width="8.804" height="1.001" fill="#0C0C0C" transform="matrix(0.987428 -0.158072 0.158072 0.987428 -65.741 46.716)"/></g></g></g><g><g><rect x="620.877" y="553.252" rx="22.244" ry="22.244" width="340.242" height="145.753" fill="#FFFFFF"/><rect x="620.877" y="553.252" rx="22.244" ry="22.244" width="340.242" height="145.753" fill="#367CFF" opacity="0.4"/><path d="M938.875 700.004 643.121 700.004C630.305 700.004 619.877 689.576 619.877 676.76L619.877 575.496C619.877 562.68 630.305 552.252 643.121 552.252L938.875 552.252C951.691 552.252 962.119 562.68 962.119 575.496L962.119 676.76C962.119 689.576 951.691 700.004 938.875 700.004ZM643.121 554.252C631.407 554.252 621.877 563.782 621.877 575.496L621.877 676.76C621.877 688.474 631.407 698.004 643.121 698.004L938.875 698.004C950.589 698.004 960.119 688.474 960.119 676.76L960.119 575.496C960.119 563.782 950.589 554.252 938.875 554.252L643.121 554.252Z" fill="#292A2E"/></g><g><path d="M651.387 667.949C651.109 667.949 650.828 667.872 650.577 667.711 649.88 667.264 649.678 666.336 650.125 665.639 650.449 665.134 683.136 615.16 735.079 615.16 762.222 615.16 778.667 625.634 794.571 635.763 809.293 645.139 823.198 653.994 844.716 653.994 888.709 653.994 924.149 590.103 924.501 589.458 924.898 588.731 925.811 588.464 926.537 588.861 927.263 589.258 927.531 590.17 927.134 590.897 925.658 593.595 890.471 656.994 844.716 656.994 822.324 656.994 808.061 647.91 792.96 638.293 777.418 628.395 761.348 618.16 735.079 618.16 684.796 618.16 652.966 666.769 652.649 667.261 652.363 667.707 651.879 667.95 651.386 667.95Z" fill="#FFFFFF"/><circle cx="926.238" cy="590.177" r="5.87" fill="#FFFFFF"/></g></g></g></g></svg>