<svg viewBox="0 0 809.213 468.086" xmlns="http://www.w3.org/2000/svg" xmlns:xlink="http://www.w3.org/1999/xlink" id="Layer_2" overflow="hidden"><g id="Layer_2-2"><g><g><g><path d="M512.859 450.876 426.46 450.818C419.223 450.813 414.836 442.827 418.714 436.716L461.96 368.578C465.569 362.891 473.869 362.897 477.471 368.588L520.625 436.784C524.495 442.9 520.097 450.88 512.86 450.875Z" fill="#F4F4F4"/><path d="M462.972 433.139C462.975 429.173 465.838 426.117 469.698 426.119 473.558 426.122 476.418 429.181 476.415 433.148 476.412 437.088 473.549 440.144 469.689 440.141 465.829 440.139 462.969 437.079 462.972 433.139ZM464.51 398.543 464.143 388.48 475.304 388.487 474.922 398.55 473.356 421.713 466.046 421.708 464.51 398.543Z" fill="#FFFFFF"/></g><g><path d="M778.038 437.715 698.8 437.662C692.162 437.658 688.139 430.333 691.696 424.729L731.357 362.239C734.667 357.024 742.279 357.029 745.582 362.249L785.159 424.792C788.708 430.401 784.675 437.72 778.038 437.715Z" fill="#F4F4F4"/><path d="M732.286 421.448C732.289 417.81 734.915 415.007 738.455 415.01 741.995 415.013 744.618 417.819 744.615 421.457 744.613 425.071 741.987 427.873 738.447 427.871 734.907 427.869 732.284 425.063 732.286 421.449ZM733.697 389.717 733.36 380.487 743.596 380.494 743.247 389.724 741.809 410.969 735.104 410.964 733.696 389.717Z" fill="#FFFFFF"/></g><g><path d="M458.665 189.621 365.551 189.558C357.751 189.553 353.023 180.946 357.203 174.36L403.81 100.926C407.7 94.797 416.645 94.803 420.526 100.937L467.034 174.433C471.205 181.024 466.465 189.625 458.666 189.62Z" fill="#F4F4F4"/><path d="M404.9 170.504C404.903 166.229 407.989 162.936 412.149 162.939 416.309 162.942 419.39 166.239 419.387 170.514 419.384 174.761 416.298 178.054 412.138 178.051 407.979 178.048 404.897 174.751 404.9 170.505ZM406.558 133.218 406.162 122.372 418.191 122.38 417.78 133.226 416.092 158.19 408.214 158.185 406.559 133.219Z" fill="#FFFFFF"/></g><g><path d="M681.094 267.168 593.993 267.109C586.697 267.104 582.274 259.053 586.184 252.893L629.781 184.202C633.419 178.469 641.787 178.475 645.418 184.213L688.922 252.963C692.823 259.129 688.39 267.174 681.094 267.169Z" fill="#F4F4F4"/><path d="M630.804 249.287C630.807 245.288 633.694 242.207 637.585 242.21 641.477 242.212 644.359 245.297 644.356 249.296 644.354 253.268 641.467 256.349 637.576 256.347 633.684 256.344 630.802 253.259 630.804 249.287ZM632.356 214.406 631.985 204.259 643.238 204.267 642.854 214.413 641.274 237.767 633.904 237.762 632.356 214.406Z" fill="#FFFFFF"/></g><g><g><g><path d="M209.088 125.294C209.088 125.294 206.633 163.372 199.438 174.68 178.725 207.234 172.407 232.873 192.546 252.379 212.685 271.886 342.557 273.657 352.909 229.445 361.624 192.223 343.895 188.005 339.926 157.17 338.13 143.218 333.085 113.947 333.085 113.947" fill="#0A0A0A"/><path d="M319.847 222.379C319.623 222.35 317.135 263.632 269.176 260.033 235.975 257.546 224.137 222.321 223.376 222.321 226.956 221.56 232.984 220.454 234.573 219.605 239.801 216.796 246.27 213.873 247.955 203.72 248.926 197.868 247.279 167.932 247.786 162.012L298.75 173.387C298.038 185.891 293.054 214.879 310.523 220.009 313.43 220.858 316.56 221.638 319.847 222.379Z" id="sk" fill="#FF9E85"/><path d="M299.465 208.162C298.743 205.858 298.314 203.854 297.932 200.252 297.249 193.81 297.613 187.889 298.265 181.855 287.97 180.485 278.085 176.154 270.098 169.515 269.152 173.01 263.947 188.281 265.388 191.602 268.112 197.881 280.911 208.162 299.465 208.162Z" id="sh" fill="#0C0C0C" opacity="0.22"/><path d="M292.71 195.169C272.597 196.886 251.03 188.531 245.954 161.713L237.038 137.527C231.963 110.709 241.934 86.303 267.185 81.524L267.185 81.524C292.436 76.745 312.718 85.093 317.793 111.911 317.793 111.911 320.926 127.255 321.408 132.445 323.228 152.017 323.228 192.564 292.71 195.17Z" fill="#FF9E85"/><path d="M317.191 122.868C317.098 123.738 313.824 123.647 309.466 122.962 305.109 122.277 301.25 121.465 301.411 120.387 301.615 119.026 305.33 118.481 309.688 119.166 314.045 119.851 317.336 121.5 317.19 122.868Z" id="e1_eb" fill="#0A0A0A"/><path d="M216.838 145.96 245.268 153.804C262.411 146.867 261.801 105.197 261.801 105.197 261.801 105.197 282.624 125.492 333.085 113.949 333.085 113.949 322.967 45.812 248.418 66.275 224.38 72.873 207.128 99.333 209.277 131.708 210.783 154.396 216.839 145.961 216.839 145.961Z" fill="#0A0A0A"/><path d="M244.732 169.598C237.058 171.05 229.157 168.323 227.003 156.766 225.572 149.089 231.8 143.261 239.473 141.809L244.4 146.202 251.329 168.349 244.732 169.598Z" fill="#FF9E85"/><g><circle cx="306.347" cy="134.068" r="2.795" id="e1_eye" fill="#0A0A0A"/><g id="e1_n"><path d="M294.982 157.934C294.416 157.934 293.932 157.507 293.871 156.932 293.807 156.318 294.252 155.768 294.867 155.704L300.789 155.085 297.144 143.257C296.963 142.667 297.294 142.041 297.884 141.859 298.474 141.678 299.099 142.008 299.282 142.598L303.327 155.726C303.425 156.046 303.375 156.393 303.191 156.672 303.007 156.951 302.707 157.133 302.374 157.168L295.099 157.929C295.06 157.933 295.02 157.935 294.982 157.935Z" fill="#0A0A0A"/></g><g id="e1_m"><path d="M282.888 163.209C293.008 163.76 295.687 170.04 295.806 170.334 296.038 170.906 295.763 171.558 295.192 171.791 294.624 172.024 293.974 171.751 293.738 171.183 293.626 170.916 290.863 164.741 279.654 165.466 279.025 165.509 278.505 165.038 278.465 164.422 278.425 163.806 278.893 163.274 279.508 163.234 280.717 163.156 281.843 163.151 282.887 163.208Z" fill="#0A0A0A"/></g><path d="M283.24 122.283C283.508 123.116 280.478 124.361 276.218 125.503 271.958 126.645 268.101 127.468 267.811 126.417 267.445 125.09 270.62 123.085 274.88 121.943 279.141 120.801 282.817 120.973 283.239 122.283Z" id="e1_eb-2" fill="#0A0A0A"/><circle cx="278.315" cy="135.85" r="2.796" id="e1_eye-2" fill="#0A0A0A"/></g><path d="M229.116 136.503 228.765 147.168C230.79 144.732 233.715 143.039 237.111 142.635 237.955 142.523 238.793 142.534 239.611 142.603 244.71 146.643 241.087 154.022 245.268 153.803 247.642 153.679 253.055 148.074 254.353 144.597 255.176 142.393 249.244 133.936 249.273 131.584" fill="#0A0A0A"/></g><g><path d="M555.188 220.304C554.208 218.383 552.211 217.47 550.291 217.711 550.291 217.625 550.289 217.536 550.236 217.459 550.14 217.327 549.992 217.289 549.843 217.299L553.165 214.918C555.173 213.479 555.993 210.745 554.81 208.577 553.583 206.328 550.935 205.515 548.739 206.429 548.747 206.382 548.716 206.337 548.709 206.289L550.074 205.311C551.963 203.957 552.778 201.439 551.804 199.329 550.493 196.49 547.03 195.67 544.62 197.397L541.47 199.655C541.461 199.636 541.47 199.615 541.457 199.597 541.443 199.574 541.411 199.574 541.392 199.554 542.849 197.913 543.041 195.431 541.708 193.572 540.221 191.18 536.789 191.669 534.753 193.128L516.214 205.933 519.528 200.354C520.857 198.117 520.373 195.117 518.208 193.673 515.9 192.133 512.803 192.857 511.404 195.212L493.311 225.672C488.898 233.102 491.196 242.694 498.497 247.317L498.497 247.317C506.828 252.592 517.526 252.285 525.54 246.54L553.536 226.473C555.383 225.149 556.219 222.327 555.186 220.303Z" fill="#FF9E85"/><g fill="none" opacity="0.25"><path d="M523.12 212.31C523.261 212.504 523.533 212.551 523.731 212.413L541.345 200.213C541.546 200.074 541.596 199.798 541.457 199.596 541.341 199.397 541.041 199.345 540.84 199.484L523.226 211.684C523.025 211.823 522.975 212.099 523.114 212.301L523.12 212.309Z" fill="#0C0C0C"/></g><g fill="none" opacity="0.25"><path d="M528.286 220.227C528.427 220.421 528.699 220.468 528.897 220.33L548.555 206.714C548.756 206.575 548.806 206.299 548.667 206.097 548.538 205.914 548.251 205.846 548.05 205.985L528.392 219.601C528.191 219.74 528.141 220.016 528.28 220.218L528.286 220.226Z" fill="#0C0C0C"/></g><g fill="none" opacity="0.25"><path d="M533.833 228.834C533.974 229.028 534.246 229.075 534.444 228.937L550.125 218.076C550.326 217.937 550.376 217.661 550.237 217.459 550.092 217.259 549.821 217.208 549.62 217.347L533.939 228.208C533.738 228.347 533.688 228.623 533.827 228.825L533.833 228.833Z" fill="#0C0C0C"/></g></g><path d="M485.336 214.685 440.302 318.678 378.168 233.639 324.326 282.181 416.276 401.265 416.879 402.113C420.086 406.517 424.325 410.272 429.472 412.979 447.435 422.426 469.656 415.522 479.102 397.559L543.858 247.231 485.336 214.685Z" fill="#367CFF"/><path d="M435.093 329.559C434.989 329.559 434.885 329.535 434.786 329.485 434.454 329.316 434.322 328.909 434.492 328.577L439.701 318.37C439.87 318.038 440.278 317.907 440.609 318.076 440.941 318.245 441.073 318.652 440.903 318.984L435.694 329.191C435.575 329.424 435.338 329.559 435.093 329.559Z" fill="#0C0C0C"/><path d="M380.962 314.933C379.43 332.931 371.978 445.22 370.505 467.39L167.503 467.39C166.356 447.395 161.207 359.964 156.858 320.864 152.707 283.553 144.563 264.873 150.533 253.842 160.288 235.814 174.297 219.556 201.157 217.308 212.319 216.374 232.914 220.356 232.914 220.356 232.914 220.356 234.327 248.95 268.031 250.541 313.911 252.706 310.861 220.434 311.075 220.356 320.533 216.898 352.189 211.355 366.687 220.928 394.344 239.191 384.214 276.792 380.963 314.933Z" fill="#367CFF"/><rect x="364.962" y="340.27" width="28.627" height="1.35" fill="#0C0C0C" transform="matrix(0.0566579 -0.998394 0.998394 0.0566579 17.389 700.292)"/><g><path d="M0.647 232.921C1.8 231.098 3.872 230.374 5.762 230.79 5.77 230.704 5.78 230.616 5.839 230.544 5.947 230.421 6.098 230.397 6.245 230.421L3.157 227.744C1.29 226.126 0.725 223.328 2.103 221.278 3.532 219.152 6.244 218.586 8.346 219.698 8.342 219.65 8.378 219.608 8.389 219.561L7.12 218.461C5.364 216.939 4.784 214.356 5.948 212.345 7.514 209.639 11.039 209.141 13.279 211.083L16.208 213.621C16.219 213.603 16.212 213.581 16.226 213.564 16.242 213.542 16.274 213.545 16.294 213.527 14.994 211.758 15.032 209.269 16.53 207.541 18.231 205.296 21.603 206.099 23.497 207.74L40.777 222.198 37.991 216.338C36.874 213.988 37.632 211.045 39.92 209.807 42.36 208.486 45.377 209.492 46.553 211.966L61.764 243.963C65.474 251.768 62.302 261.108 54.607 265.039L54.607 265.039C45.826 269.525 35.201 268.233 27.75 261.775L1.722 239.216C0.005 237.728-0.568 234.841 0.647 232.92Z" fill="#FF9E85"/><g fill="none" opacity="0.25"><path d="M33.315 227.914C33.156 228.094 32.882 228.116 32.697 227.961L16.281 214.19C16.094 214.033 16.069 213.753 16.226 213.565 16.36 213.377 16.663 213.353 16.851 213.51L33.267 227.281C33.454 227.438 33.479 227.718 33.322 227.906L33.315 227.914Z" fill="#0C0C0C"/></g><g fill="none" opacity="0.25"><path d="M27.442 235.321C27.283 235.501 27.009 235.523 26.824 235.368L8.504 220C8.317 219.843 8.292 219.563 8.449 219.375 8.594 219.204 8.886 219.163 9.074 219.32L27.394 234.688C27.581 234.845 27.606 235.125 27.449 235.313L27.442 235.321Z" fill="#0C0C0C"/></g><g fill="none" opacity="0.25"><path d="M21.126 243.381C20.967 243.561 20.693 243.583 20.508 243.428L5.894 231.169C5.707 231.012 5.682 230.732 5.839 230.544 6.002 230.358 6.276 230.332 6.464 230.489L21.078 242.748C21.265 242.905 21.29 243.185 21.133 243.373L21.126 243.381Z" fill="#0C0C0C"/></g></g><path d="M68.905 231.578 103.139 319.371 153.123 249.182 206.965 297.724 129.865 415.458 129.262 416.306C126.055 420.71 121.816 424.465 116.669 427.172 98.706 436.619 76.485 429.715 67.039 411.752L11.733 262.774 68.905 231.578Z" fill="#367CFF"/><path d="M108.348 330.253C108.452 330.253 108.556 330.229 108.655 330.179 108.987 330.01 109.119 329.603 108.949 329.271L103.74 319.064C103.571 318.732 103.163 318.601 102.832 318.77 102.5 318.939 102.368 319.346 102.538 319.678L107.747 329.885C107.866 330.118 108.103 330.253 108.348 330.253Z" fill="#0C0C0C"/></g><path d="M161.005 368.694C160.599 368.694 160.254 368.382 160.221 367.97L158.083 341.553C158.048 341.12 158.37 340.74 158.804 340.705 159.234 340.667 159.617 340.993 159.652 341.426L161.79 367.843C161.825 368.276 161.503 368.656 161.069 368.691 161.047 368.693 161.026 368.694 161.005 368.694Z" fill="#292A2E"/></g><g><path d="M720.168 256.959 718.168 256.959 718.168 66.848 514.531 66.848 514.531 64.848 720.168 64.848 720.168 256.959Z" fill="#0A0A0A"/><g><g><path d="M709.335 8.542 649.719 111.799C645.349 119.369 650.812 128.831 659.552 128.831L778.783 128.831C787.524 128.831 792.987 119.369 788.616 111.799L729 8.542C724.63 0.972 713.704 0.972 709.334 8.542Z" fill="#FFFFFF"/><path d="M778.784 129.831 659.553 129.831C655.086 129.831 651.086 127.521 648.853 123.653 646.621 119.785 646.621 115.167 648.853 111.299L708.468 8.042C710.701 4.174 714.7 1.865 719.167 1.865 723.634 1.865 727.633 4.174 729.866 8.042L789.482 111.299C791.714 115.167 791.714 119.785 789.482 123.653 787.249 127.521 783.249 129.83 778.783 129.83ZM719.168 3.865C715.425 3.865 712.072 5.801 710.201 9.042L710.201 9.042 650.586 112.299C648.714 115.541 648.714 119.411 650.586 122.653 652.457 125.895 655.81 127.831 659.554 127.831L778.785 127.831C782.528 127.831 785.881 125.895 787.752 122.654 789.624 119.412 789.624 115.542 787.752 112.3L728.136 9.043C726.265 5.801 722.912 3.866 719.169 3.866ZM709.335 8.542 709.345 8.542 709.335 8.542Z" fill="#292A2E"/></g><path d="M711.262 98.365C711.262 93.691 714.633 90.089 719.182 90.089 723.731 90.089 727.101 93.692 727.101 98.365 727.101 103.007 723.73 106.61 719.182 106.61 714.634 106.61 711.262 103.007 711.262 98.365ZM713.047 57.6 712.606 45.743 725.757 45.743 725.316 57.6 723.488 84.893 714.876 84.893 713.048 57.6Z" fill="#292A2E"/></g><g><g><path d="M803.946 384.089 634.391 384.089C629.328 384.089 628.189 378.193 629.813 375.079L640.48 360.844C641.286 359.299 642.884 358.33 644.626 358.33L793.71 358.33C795.453 358.33 797.051 359.299 797.856 360.844L808.523 375.079C810.147 378.192 809.008 384.089 803.945 384.089Z" fill="#292A2E"/><g><rect x="665.964" y="225.578" rx="6.541" ry="6.541" width="106.408" height="152.381" fill="#292A2E" transform="matrix(6.12323e-17 -1 1 6.12323e-17 417.399 1020.94)"/><path d="M791.242 256.658 791.242 346.879C791.242 349.206 789.356 351.092 787.029 351.092L651.07 351.092C648.716 351.092 646.807 349.183 646.807 346.829L646.807 256.709C646.807 254.355 648.716 252.446 651.07 252.446L787.029 252.446C789.356 252.446 791.242 254.332 791.242 256.659Z" fill="#FFFFFF"/></g><path d="M803.946 380.731 634.391 380.731C630.88 380.731 628.621 377.005 630.245 373.892L640.48 357.487C641.286 355.942 642.884 354.973 644.626 354.973L793.71 354.973C795.453 354.973 797.051 355.942 797.856 357.487L808.091 373.892C809.715 377.005 807.456 380.731 803.945 380.731Z" fill="#292A2E"/><path d="M803.946 380.731 634.391 380.731C630.88 380.731 628.621 377.005 630.245 373.892L640.48 357.487C641.286 355.942 642.884 354.973 644.626 354.973L793.71 354.973C795.453 354.973 797.051 355.942 797.856 357.487L808.091 373.892C809.715 377.005 807.456 380.731 803.945 380.731Z" fill="#FFFFFF" opacity="0.1"/></g><g><path d="M714.425 271.335 685.667 321.145C683.559 324.797 686.194 329.361 690.41 329.361L747.926 329.361C752.142 329.361 754.778 324.797 752.669 321.145L723.911 271.335C721.803 267.683 716.532 267.683 714.424 271.335Z" fill="#367CFF"/><path d="M715.354 314.665C715.354 312.41 716.98 310.672 719.174 310.672 721.368 310.672 722.995 312.41 722.995 314.665 722.995 316.905 721.368 318.643 719.174 318.643 716.98 318.643 715.354 316.905 715.354 314.665ZM716.215 294.997 716.002 289.276 722.347 289.276 722.134 294.997 721.252 308.165 717.097 308.165 716.215 294.997Z" fill="#FFFFFF"/></g></g><g><g><rect x="405.383" y="1" width="147.001" height="121.037" fill="#FFFFFF"/><path d="M552.385 123.037 405.384 123.037C404.831 123.037 404.384 122.589 404.384 122.037L404.384 1C404.384 0.448 404.831 0 405.384 0L552.385 0C552.938 0 553.385 0.448 553.385 1L553.385 122.037C553.385 122.589 552.938 123.037 552.385 123.037ZM406.384 121.037 551.385 121.037 551.385 2 406.384 2 406.384 121.037Z" fill="#292A2E"/></g><g><g><rect x="438.349" y="6.204" width="108.666" height="32.678" fill="#367CFF"/><g fill="none" opacity="0.69"><rect x="438.349" y="6.204" width="108.666" height="32.678" fill="#FFFFFF"/></g><path d="M547.016 39.426 438.35 39.426C438.049 39.426 437.805 39.182 437.805 38.881L437.805 6.204C437.805 5.903 438.049 5.659 438.35 5.659L547.016 5.659C547.317 5.659 547.561 5.903 547.561 6.204L547.561 38.882C547.561 39.183 547.317 39.427 547.016 39.427ZM438.895 38.336 546.471 38.336 546.471 6.749 438.895 6.749 438.895 38.337Z" fill="#292A2E"/><g><circle cx="454.857" cy="22.543" r="6.704" fill="#FFFFFF"/><path d="M454.857 29.791C450.86 29.791 447.608 26.539 447.608 22.542 447.608 18.545 450.86 15.293 454.857 15.293 458.854 15.293 462.106 18.545 462.106 22.542 462.106 26.539 458.854 29.791 454.857 29.791ZM454.857 16.383C451.461 16.383 448.698 19.146 448.698 22.542 448.698 25.938 451.461 28.701 454.857 28.701 458.253 28.701 461.016 25.938 461.016 22.542 461.016 19.146 458.253 16.383 454.857 16.383Z" fill="#292A2E"/></g><path d="M516.597 22.415 470.211 22.415C469.91 22.415 469.666 22.171 469.666 21.87 469.666 21.569 469.91 21.325 470.211 21.325L516.597 21.325C516.898 21.325 517.142 21.569 517.142 21.87 517.142 22.171 516.898 22.415 516.597 22.415Z" fill="#292A2E"/><path d="M528.851 22.415 527.121 22.415C526.82 22.415 526.576 22.171 526.576 21.87 526.576 21.569 526.82 21.325 527.121 21.325L528.851 21.325C529.152 21.325 529.396 21.569 529.396 21.87 529.396 22.171 529.152 22.415 528.851 22.415Z" fill="#292A2E"/><path d="M522.779 22.415 521.049 22.415C520.748 22.415 520.504 22.171 520.504 21.87 520.504 21.569 520.748 21.325 521.049 21.325L522.779 21.325C523.08 21.325 523.324 21.569 523.324 21.87 523.324 22.171 523.08 22.415 522.779 22.415Z" fill="#292A2E"/><path d="M535.338 22.415 533.608 22.415C533.307 22.415 533.063 22.171 533.063 21.87 533.063 21.569 533.307 21.325 533.608 21.325L535.338 21.325C535.639 21.325 535.883 21.569 535.883 21.87 535.883 22.171 535.639 22.415 535.338 22.415Z" fill="#292A2E"/></g><g><rect x="438.349" y="44.602" width="108.666" height="32.678" fill="#367CFF"/><g fill="none" opacity="0.69"><rect x="438.349" y="44.602" width="108.666" height="32.678" fill="#FFFFFF"/></g><path d="M547.016 77.824 438.35 77.824C438.049 77.824 437.805 77.58 437.805 77.279L437.805 44.601C437.805 44.3 438.049 44.056 438.35 44.056L547.016 44.056C547.317 44.056 547.561 44.3 547.561 44.601L547.561 77.279C547.561 77.58 547.317 77.824 547.016 77.824ZM438.895 76.734 546.471 76.734 546.471 45.146 438.895 45.146 438.895 76.734Z" fill="#292A2E"/><g><circle cx="454.857" cy="60.941" r="6.704" fill="#FFFFFF"/><path d="M454.857 68.189C450.86 68.189 447.608 64.937 447.608 60.94 447.608 56.943 450.86 53.691 454.857 53.691 458.854 53.691 462.106 56.943 462.106 60.94 462.106 64.937 458.854 68.189 454.857 68.189ZM454.857 54.781C451.461 54.781 448.698 57.544 448.698 60.94 448.698 64.336 451.461 67.099 454.857 67.099 458.253 67.099 461.016 64.336 461.016 60.94 461.016 57.544 458.253 54.781 454.857 54.781Z" fill="#292A2E"/></g><path d="M516.597 60.813 470.211 60.813C469.91 60.813 469.666 60.569 469.666 60.268 469.666 59.967 469.91 59.723 470.211 59.723L516.597 59.723C516.898 59.723 517.142 59.967 517.142 60.268 517.142 60.569 516.898 60.813 516.597 60.813Z" fill="#292A2E"/><path d="M528.851 60.813 527.121 60.813C526.82 60.813 526.576 60.569 526.576 60.268 526.576 59.967 526.82 59.723 527.121 59.723L528.851 59.723C529.152 59.723 529.396 59.967 529.396 60.268 529.396 60.569 529.152 60.813 528.851 60.813Z" fill="#292A2E"/><path d="M522.779 60.813 521.049 60.813C520.748 60.813 520.504 60.569 520.504 60.268 520.504 59.967 520.748 59.723 521.049 59.723L522.779 59.723C523.08 59.723 523.324 59.967 523.324 60.268 523.324 60.569 523.08 60.813 522.779 60.813Z" fill="#292A2E"/><path d="M535.338 60.813 533.608 60.813C533.307 60.813 533.063 60.569 533.063 60.268 533.063 59.967 533.307 59.723 533.608 59.723L535.338 59.723C535.639 59.723 535.883 59.967 535.883 60.268 535.883 60.569 535.639 60.813 535.338 60.813Z" fill="#292A2E"/></g><g><rect x="438.349" y="83" width="108.666" height="32.678" fill="#367CFF"/><g fill="none" opacity="0.69"><rect x="438.349" y="83" width="108.666" height="32.678" fill="#FFFFFF"/></g><path d="M547.016 116.223 438.35 116.223C438.049 116.223 437.805 115.979 437.805 115.678L437.805 83C437.805 82.699 438.049 82.455 438.35 82.455L547.016 82.455C547.317 82.455 547.561 82.699 547.561 83L547.561 115.678C547.561 115.979 547.317 116.223 547.016 116.223ZM438.895 115.133 546.471 115.133 546.471 83.545 438.895 83.545 438.895 115.133Z" fill="#292A2E"/><g><circle cx="454.857" cy="99.339" r="6.704" fill="#FFFFFF"/><path d="M454.857 106.587C450.86 106.587 447.608 103.335 447.608 99.338 447.608 95.341 450.86 92.089 454.857 92.089 458.854 92.089 462.106 95.341 462.106 99.338 462.106 103.335 458.854 106.587 454.857 106.587ZM454.857 93.179C451.461 93.179 448.698 95.942 448.698 99.338 448.698 102.734 451.461 105.497 454.857 105.497 458.253 105.497 461.016 102.734 461.016 99.338 461.016 95.942 458.253 93.179 454.857 93.179Z" fill="#292A2E"/></g><path d="M516.597 99.211 470.211 99.211C469.91 99.211 469.666 98.967 469.666 98.666 469.666 98.365 469.91 98.121 470.211 98.121L516.597 98.121C516.898 98.121 517.142 98.365 517.142 98.666 517.142 98.967 516.898 99.211 516.597 99.211Z" fill="#292A2E"/><path d="M528.851 99.211 527.121 99.211C526.82 99.211 526.576 98.967 526.576 98.666 526.576 98.365 526.82 98.121 527.121 98.121L528.851 98.121C529.152 98.121 529.396 98.365 529.396 98.666 529.396 98.967 529.152 99.211 528.851 99.211Z" fill="#292A2E"/><path d="M522.779 99.211 521.049 99.211C520.748 99.211 520.504 98.967 520.504 98.666 520.504 98.365 520.748 98.121 521.049 98.121L522.779 98.121C523.08 98.121 523.324 98.365 523.324 98.666 523.324 98.967 523.08 99.211 522.779 99.211Z" fill="#292A2E"/><path d="M535.338 99.211 533.608 99.211C533.307 99.211 533.063 98.967 533.063 98.666 533.063 98.365 533.307 98.121 533.608 98.121L535.338 98.121C535.639 98.121 535.883 98.365 535.883 98.666 535.883 98.967 535.639 99.211 535.338 99.211Z" fill="#292A2E"/></g></g><path d="M432.643 123.037C432.09 123.037 431.643 122.589 431.643 122.037L431.643 1C431.643 0.448 432.09 0 432.643 0 433.196 0 433.643 0.448 433.643 1L433.643 122.037C433.643 122.589 433.196 123.037 432.643 123.037Z" fill="#292A2E"/></g><g><circle cx="584.122" cy="65.848" r="4.476" fill="#FFFFFF"/><path d="M584.122 71.324C581.102 71.324 578.646 68.867 578.646 65.847 578.646 62.827 581.102 60.37 584.122 60.37 587.142 60.37 589.599 62.827 589.599 65.847 589.599 68.867 587.142 71.324 584.122 71.324ZM584.122 62.371C582.206 62.371 580.646 63.931 580.646 65.848 580.646 67.765 582.206 69.325 584.122 69.325 586.038 69.325 587.599 67.765 587.599 65.848 587.599 63.931 586.039 62.371 584.122 62.371Z" fill="#292A2E"/></g><g><circle cx="636.022" cy="65.848" r="4.476" fill="#FFFFFF"/><path d="M636.022 71.324C633.002 71.324 630.545 68.867 630.545 65.847 630.545 62.827 633.002 60.37 636.022 60.37 639.042 60.37 641.499 62.827 641.499 65.847 641.499 68.867 639.042 71.324 636.022 71.324ZM636.022 62.371C634.105 62.371 632.545 63.931 632.545 65.848 632.545 67.765 634.105 69.325 636.022 69.325 637.939 69.325 639.499 67.765 639.499 65.848 639.499 63.931 637.939 62.371 636.022 62.371Z" fill="#292A2E"/></g><g><g><circle cx="719.168" cy="188.743" r="15.736" fill="#FFFFFF"/><path d="M719.168 205.479C709.94 205.479 702.433 197.971 702.433 188.743 702.433 179.515 709.941 172.007 719.168 172.007 728.395 172.007 735.904 179.515 735.904 188.743 735.904 197.971 728.396 205.479 719.168 205.479ZM719.168 174.007C711.043 174.007 704.433 180.617 704.433 188.743 704.433 196.869 711.043 203.479 719.168 203.479 727.293 203.479 733.904 196.868 733.904 188.743 733.904 180.618 727.294 174.007 719.168 174.007Z" fill="#292A2E"/></g><g><path d="M725.645 196.221C725.389 196.221 725.133 196.123 724.938 195.928L711.984 182.973C711.593 182.582 711.593 181.95 711.984 181.559 712.375 181.168 713.007 181.168 713.398 181.559L726.352 194.514C726.743 194.905 726.743 195.537 726.352 195.928 726.157 196.123 725.901 196.221 725.645 196.221Z" fill="#0A0A0A"/><path d="M712.691 196.221C712.435 196.221 712.179 196.123 711.984 195.928 711.593 195.537 711.593 194.905 711.984 194.514L724.938 181.559C725.329 181.168 725.961 181.168 726.352 181.559 726.743 181.95 726.743 182.582 726.352 182.973L713.398 195.928C713.203 196.123 712.947 196.221 712.691 196.221Z" fill="#0A0A0A"/></g></g></g></g><path d="M404.184 468.086 149.116 468.086C148.731 468.086 148.419 467.774 148.419 467.389 148.419 467.004 148.731 466.692 149.116 466.692L404.184 466.692C404.569 466.692 404.881 467.004 404.881 467.389 404.881 467.774 404.569 468.086 404.184 468.086Z" fill="#292A2E"/></g></g></svg>